<svg width="450" height="440" viewBox="0 0 450 440" fill="none" xmlns="http://www.w3.org/2000/svg">
<path d="M198.809 61.288L197.556 55.4088C197.363 54.4941 196.958 53.6377 196.374 52.9088C195.789 52.1798 195.042 51.5989 194.193 51.2128C193.343 50.8267 192.415 50.6464 191.483 50.6863C190.551 50.7263 189.641 50.9855 188.828 51.4428L188.788 51.4651C184.23 54.0822 181.855 101.379 181.855 101.379C181.855 101.379 175.626 112.139 176.026 113.937C176.426 115.735 185.44 119.728 186.296 117.792C187.152 115.857 193.374 109.796 193.126 106.688C192.878 103.58 189.288 101.026 189.288 101.026C189.288 101.026 196.784 69.1869 198.809 61.288Z" fill="url(#paint0_linear)"/>
<path opacity="0.1" d="M198.809 61.288L197.556 55.4088C197.363 54.4941 196.958 53.6377 196.374 52.9088C195.789 52.1798 195.042 51.5989 194.193 51.2128C193.343 50.8267 192.415 50.6464 191.483 50.6863C190.551 50.7263 189.641 50.9855 188.828 51.4428L188.788 51.4651C184.23 54.0822 181.855 101.379 181.855 101.379C181.855 101.379 175.626 112.139 176.026 113.937C176.426 115.735 185.44 119.728 186.296 117.792C187.152 115.857 193.374 109.796 193.126 106.688C192.878 103.58 189.288 101.026 189.288 101.026C189.288 101.026 196.784 69.1869 198.809 61.288Z" fill="url(#paint1_linear)"/>
<path d="M202.897 87.8193L194.453 77.0909C194.453 77.0909 190.879 66.8237 199.905 63.3878L207.25 64.3406L202.897 87.8193Z" fill="url(#paint2_linear)"/>
<path opacity="0.5" d="M202.897 87.8193L194.453 77.0909C194.453 77.0909 190.879 66.8237 199.905 63.3878L207.25 64.3406L202.897 87.8193Z" fill="url(#paint3_linear)"/>
<path d="M379.933 186.541L378.363 196.427L355.381 193.6L356.953 183.702L379.933 186.541Z" fill="url(#paint4_linear)"/>
<path d="M377.81 196.981L372.641 185.978C372.557 185.798 372.537 185.594 372.584 185.401C372.631 185.207 372.742 185.035 372.899 184.913L380.108 179.33C380.42 179.094 380.812 178.992 381.199 179.045C381.586 179.099 381.936 179.304 382.173 179.615C382.238 179.702 382.294 179.796 382.34 179.895C383.955 183.482 384.954 186.178 387.054 190.649C388.348 193.402 392.539 201.574 394.326 205.379C396.113 209.185 392.596 211.447 391.521 210.053C386.724 203.787 382.151 199.526 379.1 198.235C378.526 197.999 378.064 197.55 377.81 196.981Z" fill="#484D58"/>
<path d="M380.804 199.229C381.142 199.821 381.268 200.511 381.161 201.185C381.102 201.417 380.986 201.63 380.821 201.804C380.657 201.978 380.451 202.106 380.224 202.177C380.1 202.24 379.961 202.265 379.824 202.249C379.686 202.234 379.556 202.179 379.449 202.091C378.461 201.333 378.879 197.56 378.936 197.139C378.937 197.093 378.953 197.049 378.981 197.013C379.01 196.977 379.049 196.951 379.093 196.939C379.139 196.924 379.187 196.923 379.233 196.935C379.279 196.948 379.321 196.974 379.353 197.009C379.917 197.693 380.404 198.438 380.804 199.229ZM379.563 201.46C379.6 201.56 379.666 201.647 379.751 201.71C379.777 201.768 379.896 201.798 380.069 201.73C380.219 201.68 380.356 201.595 380.466 201.482C380.577 201.368 380.658 201.229 380.703 201.077C380.686 199.844 380.202 198.664 379.348 197.775C379.187 199.006 379.262 200.257 379.569 201.459L379.563 201.46Z" fill="url(#paint5_linear)"/>
<path d="M379.39 197.068L379.438 197.172C379.37 198.344 378.231 201.091 377.191 201.357C377.016 201.4 376.833 201.382 376.671 201.304C376.509 201.227 376.379 201.095 376.303 200.932C376.205 200.78 376.141 200.608 376.114 200.428C376.088 200.249 376.1 200.066 376.15 199.892C376.509 198.441 379.004 196.997 379.125 196.925C379.163 196.907 379.206 196.898 379.248 196.9C379.291 196.902 379.333 196.914 379.369 196.936C379.389 196.977 379.396 197.023 379.39 197.068ZM376.577 200.618L376.626 200.723C376.755 200.999 376.926 200.947 376.99 200.931C377.631 200.769 378.595 198.906 378.858 197.643C377.857 198.189 377.046 199.028 376.534 200.048C376.481 200.237 376.499 200.438 376.583 200.615L376.577 200.618Z" fill="url(#paint6_linear)"/>
<path opacity="0.2" d="M356.964 183.703L355.393 193.601L367.245 195.053L368.816 185.156L356.964 183.703Z" fill="black"/>
<path d="M367.382 183.112L362.614 196.682C362.614 196.682 309.646 195.825 295.269 178.966C284.573 166.433 276.552 140.917 273.142 128.642C271.961 124.4 271.332 121.745 271.332 121.745L259.361 96.8465L306.08 92.262C306.08 92.262 303.408 121.456 306.16 142.823C307.251 151.251 309.176 158.452 312.451 162.17C324.022 175.324 367.382 183.112 367.382 183.112Z" fill="#4D6BA0"/>
<path opacity="0.2" d="M306.08 92.262C306.08 92.262 303.408 121.456 306.16 142.823C301.261 138.184 297.366 132.584 294.718 126.372C288.885 128.441 279.818 128.754 273.142 128.642C271.961 124.4 271.332 121.745 271.332 121.745L259.361 96.8465L306.08 92.262Z" fill="black"/>
<path d="M438.164 177.291L433.034 185.88L412.757 174.678L417.894 166.079L438.164 177.291Z" fill="url(#paint7_linear)"/>
<path d="M432.312 186.184L431.602 174.042C431.591 173.844 431.648 173.647 431.763 173.484C431.879 173.322 432.046 173.204 432.237 173.149L441.002 170.658C441.379 170.556 441.781 170.607 442.12 170.801C442.459 170.995 442.708 171.315 442.812 171.692C442.841 171.798 442.858 171.906 442.864 172.016C443.029 175.947 442.955 178.823 443.244 183.754C443.422 186.793 444.274 195.941 444.52 200.137C444.765 204.333 440.661 205.122 440.182 203.427C438.057 195.821 435.396 190.16 433.045 187.824C432.6 187.392 432.337 186.805 432.312 186.184Z" fill="#484D58"/>
<path d="M434.255 189.387C434.348 190.062 434.209 190.75 433.86 191.336C433.72 191.529 433.532 191.683 433.314 191.783C433.097 191.883 432.858 191.926 432.62 191.907C432.483 191.918 432.345 191.889 432.224 191.824C432.103 191.758 432.003 191.659 431.937 191.538C431.301 190.466 433.093 187.124 433.299 186.75C433.318 186.708 433.35 186.672 433.39 186.649C433.431 186.626 433.477 186.617 433.524 186.623C433.571 186.627 433.617 186.644 433.655 186.674C433.692 186.703 433.721 186.743 433.736 186.788C434.005 187.632 434.179 188.504 434.255 189.387ZM432.275 190.995C432.272 191.101 432.3 191.206 432.355 191.297C432.359 191.361 432.452 191.431 432.644 191.432C432.802 191.443 432.96 191.415 433.105 191.351C433.25 191.287 433.377 191.189 433.475 191.065C433.916 189.914 433.905 188.638 433.445 187.494C432.835 188.576 432.438 189.764 432.275 190.995Z" fill="url(#paint8_linear)"/>
<path d="M433.751 186.852L433.758 186.966C433.26 188.029 431.182 190.153 430.118 190.018C429.94 189.993 429.776 189.907 429.655 189.774C429.533 189.641 429.461 189.471 429.451 189.291C429.418 189.113 429.422 188.93 429.465 188.754C429.507 188.577 429.586 188.412 429.697 188.269C430.572 187.056 433.422 186.647 433.56 186.626C433.602 186.624 433.645 186.631 433.684 186.649C433.723 186.667 433.757 186.694 433.783 186.729C433.785 186.772 433.774 186.815 433.751 186.852ZM429.821 189.098L429.826 189.213C429.845 189.517 430.021 189.533 430.087 189.536C430.742 189.625 432.333 188.255 433.043 187.18C431.91 187.314 430.846 187.79 429.99 188.546C429.869 188.703 429.809 188.9 429.822 189.098L429.821 189.098Z" fill="url(#paint9_linear)"/>
<path opacity="0.2" d="M417.898 166.08L412.762 174.68L423.222 180.45L428.359 171.851L417.898 166.08Z" fill="url(#paint10_linear)"/>
<path d="M425.017 166.974L416.068 181.137C416.068 181.137 365.51 162.744 345.965 148.178C337.684 142.009 305.763 113.238 298.135 106.349C297.073 105.389 296.482 104.859 296.482 104.859L261.357 88.8943L276.065 49.6113C276.065 49.6113 286.339 50.3537 299.21 57.7242C301.116 58.806 303.08 60.0396 305.08 61.4423C312.794 66.9132 319.526 73.656 324.989 81.3838C326.419 83.363 327.813 85.4719 329.172 87.7103C358.96 136.798 425.017 166.974 425.017 166.974Z" fill="#4D6BA0"/>
<path d="M199.695 81.6678C199.695 81.6678 206.4 61.2877 239.618 51.2793C272.836 41.2709 303.324 55.5832 303.324 55.5832C303.324 55.5832 319.06 96.4929 287.391 115.544C275.963 122.42 260.63 118.523 260.63 118.523L254.561 104.982C254.561 104.982 206.652 94.1336 199.695 81.6678Z" fill="#407BFF"/>
<path opacity="0.8" d="M307.204 80.0401C306.954 88.6791 304.737 98.2567 298.134 106.349C295.118 110.019 291.483 113.13 287.394 115.542C275.96 122.421 260.628 118.519 260.628 118.519L254.556 104.984C254.556 104.984 206.65 94.1284 199.698 81.6652C199.698 81.6652 206.404 61.2911 239.62 51.2769C272.836 41.2627 303.326 55.5809 303.326 55.5809C303.326 55.5809 303.419 55.8388 303.585 56.3209C303.911 57.2611 304.492 59.0432 305.079 61.4426C306.63 67.5157 307.345 73.7729 307.204 80.0401Z" fill="url(#paint11_linear)"/>
<path d="M273.007 40.3901C273.007 40.3901 296.455 23.4545 302.082 20.3803C307.708 17.306 358.26 45.0472 358.26 45.0472C358.26 45.0472 373.394 45.435 375.002 46.9997C376.611 48.5644 374.992 60.5024 372.44 60.1548C369.888 59.8072 359.628 62.419 356.57 60.1721C353.513 57.9253 353.151 52.5572 353.151 52.5572C353.151 52.5572 306.485 37.0883 303.835 36.4904C301.923 36.0586 280.935 53.6392 280.935 53.6392L273.007 40.3901Z" fill="url(#paint12_linear)"/>
<path opacity="0.2" d="M324.99 81.3837C319.042 81.255 313.105 80.8063 307.205 80.0395C279.731 76.3882 270.859 66.798 270.859 66.798L299.211 57.7241L303.586 56.3204C303.912 57.2606 304.493 59.0426 305.08 61.4421C312.795 66.913 319.527 73.6559 324.99 81.3837Z" fill="black"/>
<path d="M227.12 81.1562C224.986 82.0161 222.661 82.284 220.389 81.9317C213.308 80.8858 208.046 74.5528 208.046 74.5528C207.833 65.0926 216.142 59.7106 223.782 57.4957C226.997 56.4502 230.393 56.0765 233.758 56.3979C240.605 57.5243 237.324 77.0906 227.12 81.1562Z" fill="url(#paint13_linear)"/>
<path opacity="0.2" d="M220.387 81.9306C213.306 80.8847 208.044 74.5517 208.044 74.5517C207.831 65.0915 216.14 59.7095 223.78 57.4946C226.044 62.5551 228.905 72.898 220.387 81.9306Z" fill="black"/>
<path d="M207.044 80.168C208.811 86.2832 222.91 96.5677 240.394 101.283C240.394 101.283 219.831 101.906 207.364 91.8378C194.896 81.7698 197.737 77.3589 205.257 72.0877L207.044 80.168Z" fill="url(#paint14_linear)"/>
<path opacity="0.4" d="M207.044 80.168C208.811 86.2832 222.91 96.5677 240.394 101.283C240.394 101.283 219.831 101.906 207.364 91.8378C194.896 81.7698 197.737 77.3589 205.257 72.0877L207.044 80.168Z" fill="url(#paint15_linear)"/>
<path d="M222.944 56.3238C236.647 52.224 236.417 57.8967 245.412 65.0982C263.74 79.7688 341.265 60.5788 341.265 60.5788C341.265 60.5788 320.545 42.3019 293.237 40.4472C265.928 38.5926 222.944 56.3238 222.944 56.3238Z" fill="url(#paint16_linear)"/>
<path opacity="0.4" d="M222.944 56.3238C236.647 52.224 236.417 57.8967 245.412 65.0982C263.74 79.7688 341.265 60.5788 341.265 60.5788C341.265 60.5788 320.545 42.3019 293.237 40.4472C265.928 38.5926 222.944 56.3238 222.944 56.3238Z" fill="url(#paint17_linear)"/>
<path d="M198.706 81.9536C198.706 81.9536 195.617 68.1344 213.11 56.678C230.604 45.2215 251.361 59.3329 251.361 59.3329L244.119 60.1988L245.415 65.0979C245.415 65.0979 231.319 58.141 220.286 61.5533C209.253 64.9655 207.047 80.1693 207.047 80.1693L201.219 76.4221L198.706 81.9536Z" fill="url(#paint18_linear)"/>
<path opacity="0.5" d="M198.706 81.9536C198.706 81.9536 195.617 68.1344 213.11 56.678C230.604 45.2215 251.361 59.3329 251.361 59.3329L244.119 60.1988L245.415 65.0979C245.415 65.0979 231.319 58.141 220.286 61.5533C209.253 64.9655 207.047 80.1693 207.047 80.1693L201.219 76.4221L198.706 81.9536Z" fill="url(#paint19_linear)"/>
<path d="M191.286 45.5657C191.286 45.5657 191.752 59.5134 199.904 63.3878C208.057 67.2623 203.362 42.0149 203.362 42.0149L191.286 45.5657Z" fill="#484D58"/>
<path d="M222.763 70.2719C221.672 72.7855 219.789 74.8711 217.401 76.2087C215.014 77.5463 212.254 78.062 209.546 77.6767C206.035 77.2435 202.819 75.4863 200.553 72.7624C200.236 72.3844 199.938 71.99 199.662 71.5809C194.586 63.9557 190.764 49.6659 198.499 42.5989C200.2 41.0298 202.273 39.9229 204.521 39.3834C206.769 38.8439 209.118 38.8897 211.343 39.5166C213.569 40.1434 215.598 41.3304 217.236 42.9647C218.875 44.5989 220.069 46.6262 220.706 48.8535C223.582 58.3433 225.72 63.7857 222.763 70.2719Z" fill="url(#paint20_linear)"/>
<path d="M207.573 56.6641C207.902 57.3955 207.682 58.1787 207.18 58.3632C206.677 58.5478 206.059 58.0727 205.777 57.3201C205.494 56.5675 205.678 55.8008 206.171 55.621C206.663 55.4412 207.285 55.8987 207.573 56.6641Z" fill="#484D58"/>
<path d="M199.027 59.8235C199.357 60.5547 199.126 61.3428 198.634 61.5226C198.142 61.7024 197.513 61.2321 197.231 60.4795C196.948 59.7269 197.134 58.96 197.625 58.7804C198.115 58.6009 198.76 59.1017 199.027 59.8235Z" fill="#484D58"/>
<path d="M201.88 59.1911C201.832 61.8414 201.417 64.4722 200.649 67.0087C201.306 67.1895 201.995 67.2238 202.667 67.1089C203.339 66.9941 203.978 66.733 204.538 66.3439L201.88 59.1911Z" fill="#FFBCB0"/>
<path d="M209.204 52.9102C209.127 52.9511 209.04 52.9707 208.953 52.9672C208.866 52.9636 208.782 52.937 208.708 52.8901C208.216 52.558 207.654 52.3453 207.065 52.269C206.477 52.1927 205.879 52.2547 205.319 52.4502C205.263 52.4758 205.202 52.49 205.14 52.492C205.079 52.4941 205.017 52.4839 204.959 52.4622C204.902 52.4404 204.849 52.4075 204.804 52.3652C204.759 52.323 204.722 52.2723 204.697 52.216C204.671 52.1597 204.657 52.0989 204.655 52.0371C204.653 51.9753 204.663 51.9137 204.685 51.8558C204.707 51.7979 204.74 51.7449 204.782 51.6998C204.824 51.6546 204.875 51.6183 204.931 51.5927C205.632 51.327 206.387 51.2337 207.131 51.3205C207.876 51.4074 208.589 51.6719 209.211 52.0918C209.264 52.1237 209.31 52.1656 209.347 52.2154C209.383 52.2651 209.41 52.3216 209.425 52.3816C209.44 52.4416 209.443 52.504 209.433 52.5652C209.424 52.6263 209.403 52.6851 209.371 52.738L209.366 52.748C209.32 52.81 209.266 52.8647 209.204 52.9102Z" fill="#484D58"/>
<path d="M194.269 58.2272C194.198 58.2917 194.109 58.332 194.014 58.3425C193.952 58.3374 193.892 58.3203 193.838 58.292C193.783 58.2637 193.734 58.2248 193.694 58.1776C193.654 58.1304 193.624 58.0758 193.606 58.0169C193.587 57.958 193.58 57.896 193.585 57.8344L193.583 57.8247C193.64 57.0732 193.877 56.3464 194.273 55.7057C194.669 55.065 195.213 54.5291 195.859 54.1434C195.914 54.1148 195.974 54.0973 196.035 54.092C196.097 54.0866 196.159 54.0935 196.218 54.1122C196.276 54.1309 196.331 54.1611 196.378 54.201C196.425 54.2409 196.464 54.2898 196.493 54.3448C196.547 54.4565 196.556 54.5847 196.518 54.703C196.481 54.8213 196.399 54.9205 196.29 54.9802C195.789 55.3001 195.369 55.7329 195.064 56.244C194.759 56.7551 194.577 57.3305 194.533 57.9245C194.513 57.991 194.48 58.0525 194.434 58.1047C194.388 58.157 194.332 58.1988 194.269 58.2272Z" fill="#484D58"/>
<path d="M209.623 39.7656L210.428 44.0943C211.237 44.2092 211.973 44.6248 212.489 45.2585C213.006 45.8922 213.266 46.6975 213.218 47.5145C212.98 51.4454 216.677 56.2547 220.044 57.5744C220.044 57.5744 219.649 56.0289 221.041 55.9846C222.434 55.9402 225.414 62.9055 225.414 62.9055C225.414 62.9055 228.48 61.1255 227.995 52.1476C227.546 43.844 223.254 40.1581 220.745 37.6878L209.623 39.7656Z" fill="#484D58"/>
<path d="M204.637 68.8757C205.397 69.8271 206.087 70.8326 206.702 71.8844C206.903 71.8098 207.105 71.735 207.301 71.6501C210.003 70.5667 210.902 69.1748 211.078 67.9554C211.151 67.3581 211.08 66.752 210.871 66.1878C210.763 65.8638 210.611 65.5565 210.418 65.2747C209.045 66.6835 207.386 67.7805 205.553 68.4916C204.997 68.7444 204.637 68.8757 204.637 68.8757Z" fill="#484D58"/>
<path d="M205.553 68.4929L206.185 69.3675C208.727 68.3448 210.382 67.2823 210.871 66.1915C210.764 65.8675 210.611 65.5602 210.418 65.2784C209.045 66.6864 207.385 67.7825 205.553 68.4929Z" fill="white"/>
<path d="M207.3 71.6505C210.002 70.5671 210.901 69.1752 211.077 67.9558C210.056 68.3856 209.119 68.9935 208.31 69.7513C207.784 70.2631 207.431 70.9272 207.3 71.6505Z" fill="#ED827E"/>
<path d="M210.428 44.0944C207.088 44.0404 199.396 46.1682 194.434 50.2503C194.434 50.2503 191.837 50.5778 189.334 45.2363C186.831 39.8948 189.982 36.1334 191.273 36.5994C192.564 37.0654 190.232 38.624 190.458 40.222C190.458 40.222 196.497 36.0037 196.586 32.1112C196.675 28.2186 199.061 26.5148 200.488 27.7091C201.916 28.9035 198.489 33.6609 198.489 33.6609C198.489 33.6609 203.32 32.8109 205.08 28.6137C206.84 24.4164 210.691 21.7739 212.076 23.0142C213.46 24.2544 208.343 26.616 207.268 28.7805C207.268 28.7805 214.774 23.9415 218.783 25.5579C222.792 27.1743 222.294 28.3718 219.713 28.3372C217.804 28.5136 215.991 29.2569 214.507 30.4719C214.507 30.4719 220.755 29.1458 223.648 31.265C226.541 33.3842 228.938 31.3307 229.879 32.6053C230.819 33.8799 225.928 35.3942 225.928 35.3942C225.928 35.3942 229.206 37.1267 232.016 35.5391C234.826 33.9516 236.817 38.3659 229.41 38.5046C229.41 38.5046 230.61 43.2475 233.339 43.3451C236.069 43.4426 235.42 45.7241 233.493 45.7274C231.566 45.7308 229.335 43.6669 229.335 43.6669C229.335 43.6669 233.616 48.3877 232.673 50.5733C231.729 52.7589 229.683 48.553 229.683 48.553C229.683 48.553 232.661 55.1514 231.698 55.7324C230.736 56.3133 228.933 53.9885 228.933 53.9885C228.933 53.9885 231.437 58.5154 229.628 59.7738C228.177 60.6221 226.567 61.1627 224.899 61.362C224.899 61.362 216.334 44.1899 210.428 44.0944Z" fill="#484D58"/>
<path d="M227.569 54.9822C227.314 57.4678 226.086 59.7507 224.154 61.3305C221.581 63.4027 218.999 61.4075 218.62 58.2931C218.31 55.5224 219.229 51.0254 222.351 50.1942C225.474 49.3629 227.844 51.9261 227.569 54.9822Z" fill="url(#paint21_linear)"/>
<path d="M255.727 45.679C255.727 45.679 257.824 61.3632 277.612 61.8442L299.065 44.4116L289.463 27.8175L255.727 45.679Z" fill="url(#paint22_linear)"/>
<path opacity="0.5" d="M255.727 45.679C255.727 45.679 257.824 61.3632 277.612 61.8442L299.065 44.4116L289.463 27.8175L255.727 45.679Z" fill="url(#paint23_linear)"/>
<path d="M288.86 297.837C288.853 261.929 275.185 227.375 250.64 201.21C226.095 175.046 192.519 159.24 156.749 157.012C120.98 154.783 85.7087 166.3 58.1179 189.216C30.5271 212.133 12.6923 244.725 8.24576 280.355C4.7736 308.234 9.68635 336.516 22.3548 361.58C36.646 389.907 60.0517 412.578 88.7901 425.93C117.529 439.283 149.921 442.538 180.733 435.168C211.545 427.798 238.978 410.235 258.598 385.316C278.218 360.396 288.879 329.577 288.86 297.837Z" fill="url(#paint24_linear)"/>
<path d="M276.773 355.121C208.696 390.128 185.354 375.447 112.619 349.472C71.0493 334.612 40.7068 347.666 22.3533 361.58C34.3909 385.4 52.9243 405.309 75.8018 418.999C98.6793 432.688 124.963 439.596 151.601 438.919C178.239 438.243 204.14 430.01 226.296 415.178C248.452 400.345 265.955 379.52 276.773 355.121Z" fill="url(#paint25_linear)"/>
<path d="M283.446 258.856C274.476 227.606 255.014 200.417 228.348 181.884C201.682 163.35 169.448 154.609 137.093 157.136C104.737 159.664 74.2452 173.306 50.7687 195.756C27.2921 218.207 12.2709 248.09 8.24341 280.355C20.6294 268.65 35.2862 259.624 51.3025 253.837C67.3188 248.05 84.3521 245.627 101.343 246.717C175.375 251.079 232.273 303.486 283.446 258.856Z" fill="url(#paint26_linear)"/>
<ellipse rx="7.16181" ry="7.17751" transform="matrix(-1 0 0 1 348.541 331.362)" fill="url(#paint27_linear)"/>
<path d="M19.6949 139.961C8.81768 139.961 -4.19617e-05 131.124 -4.19617e-05 120.223C-4.19617e-05 109.322 8.81768 100.485 19.6949 100.485C30.5721 100.485 39.3899 109.322 39.3899 120.223C39.3899 131.124 30.5721 139.961 19.6949 139.961Z" fill="url(#paint28_linear)"/>
<defs>
<linearGradient id="paint0_linear" x1="180.051" y1="53.0481" x2="193.642" y2="116.54" gradientUnits="userSpaceOnUse">
<stop offset="0.0625" stop-color="#FFC19E"/>
<stop offset="1" stop-color="white"/>
</linearGradient>
<linearGradient id="paint1_linear" x1="194.455" y1="34.1759" x2="169.06" y2="156.247" gradientUnits="userSpaceOnUse">
<stop offset="0.0625" stop-color="#FFC19E"/>
<stop offset="1" stop-color="white"/>
</linearGradient>
<linearGradient id="paint2_linear" x1="196.778" y1="67.5847" x2="213.323" y2="79.7621" gradientUnits="userSpaceOnUse">
<stop stop-color="#EF8197"/>
<stop offset="0.942708" stop-color="#F7C58F"/>
</linearGradient>
<linearGradient id="paint3_linear" x1="196.778" y1="67.5847" x2="213.323" y2="79.7621" gradientUnits="userSpaceOnUse">
<stop stop-color="#EF8197"/>
<stop offset="0.942708" stop-color="#F7C58F"/>
</linearGradient>
<linearGradient id="paint4_linear" x1="367.307" y1="186.448" x2="369.429" y2="198.34" gradientUnits="userSpaceOnUse">
<stop offset="0.0625" stop-color="#FFC19E"/>
<stop offset="1" stop-color="white"/>
</linearGradient>
<linearGradient id="paint5_linear" x1="379.256" y1="196.902" x2="380.383" y2="202.167" gradientUnits="userSpaceOnUse">
<stop offset="0.0625" stop-color="#FFC19E"/>
<stop offset="1" stop-color="white"/>
</linearGradient>
<linearGradient id="paint6_linear" x1="377.45" y1="197.276" x2="378.274" y2="201.126" gradientUnits="userSpaceOnUse">
<stop offset="0.0625" stop-color="#FFC19E"/>
<stop offset="1" stop-color="white"/>
</linearGradient>
<linearGradient id="paint7_linear" x1="423.112" y1="164.962" x2="427.828" y2="186.994" gradientUnits="userSpaceOnUse">
<stop offset="0.0625" stop-color="#FFC19E"/>
<stop offset="1" stop-color="white"/>
</linearGradient>
<linearGradient id="paint8_linear" x1="432.353" y1="186.861" x2="433.41" y2="191.797" gradientUnits="userSpaceOnUse">
<stop offset="0.0625" stop-color="#FFC19E"/>
<stop offset="1" stop-color="white"/>
</linearGradient>
<linearGradient id="paint9_linear" x1="431.411" y1="187.065" x2="431.969" y2="189.672" gradientUnits="userSpaceOnUse">
<stop offset="0.0625" stop-color="#FFC19E"/>
<stop offset="1" stop-color="white"/>
</linearGradient>
<linearGradient id="paint10_linear" x1="425.302" y1="172.539" x2="422.78" y2="181.322" gradientUnits="userSpaceOnUse">
<stop offset="0.0625" stop-color="#FFC19E"/>
<stop offset="1" stop-color="white"/>
</linearGradient>
<linearGradient id="paint11_linear" x1="247.669" y1="49.2765" x2="263.269" y2="122.15" gradientUnits="userSpaceOnUse">
<stop stop-color="#3B3E89"/>
<stop offset="1" stop-color="#262859"/>
</linearGradient>
<linearGradient id="paint12_linear" x1="320.834" y1="41.992" x2="324.641" y2="31.6674" gradientUnits="userSpaceOnUse">
<stop offset="0.0625" stop-color="#FFC19E"/>
<stop offset="1" stop-color="white"/>
</linearGradient>
<linearGradient id="paint13_linear" x1="217.67" y1="70.051" x2="233.844" y2="75.6648" gradientUnits="userSpaceOnUse">
<stop offset="0.0625" stop-color="#FFC19E"/>
<stop offset="1" stop-color="white"/>
</linearGradient>
<linearGradient id="paint14_linear" x1="208.443" y1="76.5714" x2="231.443" y2="103.402" gradientUnits="userSpaceOnUse">
<stop stop-color="#EF8197"/>
<stop offset="0.942708" stop-color="#F7C58F"/>
</linearGradient>
<linearGradient id="paint15_linear" x1="208.443" y1="76.5714" x2="231.443" y2="103.402" gradientUnits="userSpaceOnUse">
<stop stop-color="#EF8197"/>
<stop offset="0.942708" stop-color="#F7C58F"/>
</linearGradient>
<linearGradient id="paint16_linear" x1="254.927" y1="50.1773" x2="268.074" y2="84.2639" gradientUnits="userSpaceOnUse">
<stop stop-color="#EF8197"/>
<stop offset="0.942708" stop-color="#F7C58F"/>
</linearGradient>
<linearGradient id="paint17_linear" x1="254.927" y1="50.1773" x2="268.074" y2="84.2639" gradientUnits="userSpaceOnUse">
<stop stop-color="#EF8197"/>
<stop offset="0.942708" stop-color="#F7C58F"/>
</linearGradient>
<linearGradient id="paint18_linear" x1="210.076" y1="58.8377" x2="220.971" y2="82.1116" gradientUnits="userSpaceOnUse">
<stop stop-color="#EF8197"/>
<stop offset="0.942708" stop-color="#F7C58F"/>
</linearGradient>
<linearGradient id="paint19_linear" x1="210.076" y1="58.8377" x2="220.971" y2="82.1116" gradientUnits="userSpaceOnUse">
<stop stop-color="#EF8197"/>
<stop offset="0.942708" stop-color="#F7C58F"/>
</linearGradient>
<linearGradient id="paint20_linear" x1="235.79" y1="66.0015" x2="197.871" y2="66.1752" gradientUnits="userSpaceOnUse">
<stop offset="0.0625" stop-color="#FFC19E"/>
<stop offset="1" stop-color="white"/>
</linearGradient>
<linearGradient id="paint21_linear" x1="220.379" y1="47.94" x2="224.308" y2="61.7484" gradientUnits="userSpaceOnUse">
<stop offset="0.0625" stop-color="#FFC19E"/>
<stop offset="1" stop-color="white"/>
</linearGradient>
<linearGradient id="paint22_linear" x1="266.276" y1="37.2115" x2="284.1" y2="63.853" gradientUnits="userSpaceOnUse">
<stop stop-color="#EF8197"/>
<stop offset="0.942708" stop-color="#F7C58F"/>
</linearGradient>
<linearGradient id="paint23_linear" x1="266.276" y1="37.2115" x2="284.1" y2="63.853" gradientUnits="userSpaceOnUse">
<stop stop-color="#EF8197"/>
<stop offset="0.942708" stop-color="#F7C58F"/>
</linearGradient>
<linearGradient id="paint24_linear" x1="87.0371" y1="399.309" x2="220.996" y2="156.975" gradientUnits="userSpaceOnUse">
<stop stop-color="#EF8197"/>
<stop offset="0.942708" stop-color="#F7C58F"/>
</linearGradient>
<linearGradient id="paint25_linear" x1="94.494" y1="425.448" x2="115.991" y2="322.249" gradientUnits="userSpaceOnUse">
<stop stop-color="#EF8197"/>
<stop offset="0.942708" stop-color="#F7C58F"/>
</linearGradient>
<linearGradient id="paint26_linear" x1="86.2771" y1="262.959" x2="118.636" y2="132.397" gradientUnits="userSpaceOnUse">
<stop stop-color="#EF8197"/>
<stop offset="0.942708" stop-color="#F7C58F"/>
</linearGradient>
<linearGradient id="paint27_linear" x1="4.06146" y1="2.01965" x2="10.8741" y2="14.3424" gradientUnits="userSpaceOnUse">
<stop stop-color="#8177F7"/>
<stop offset="1" stop-color="#799FF8"/>
</linearGradient>
<linearGradient id="paint28_linear" x1="12.1645" y1="139.961" x2="18.9683" y2="101.624" gradientUnits="userSpaceOnUse">
<stop stop-color="#675AFF"/>
<stop offset="0.586458" stop-color="#C9D9FF"/>
</linearGradient>
</defs>
</svg>
