<svg width="46" height="46" viewBox="0 0 46 46" fill="none" xmlns="http://www.w3.org/2000/svg">
<path d="M5.61825e-06 22.9927C0.00115333 17.1413 2.23306 11.5104 6.24115 7.24676C10.2492 2.98314 15.7321 0.407492 21.573 0.0443671C27.4139 -0.318762 33.1736 1.55794 37.6791 5.29228C42.1845 9.02661 45.0969 14.3377 45.823 20.1439C46.39 24.6868 45.5877 29.2956 43.519 33.3799C41.1854 37.9959 37.3633 41.6902 32.6705 43.8662C27.9776 46.0421 22.6881 46.5724 17.6566 45.3715C12.6251 44.1705 8.14547 41.3085 4.94161 37.2477C1.73776 33.187 -0.00321735 28.1648 5.61825e-06 22.9927Z" fill="url(#paint0_linear)"/>
<defs>
<linearGradient id="paint0_linear" x1="15.6226" y1="67.9544" x2="15.6226" y2="-1.53657e-05" gradientUnits="userSpaceOnUse">
<stop offset="0.169841" stop-color="#EA5AB1"/>
<stop offset="0.942708" stop-color="#F9E1C5"/>
</linearGradient>
</defs>
</svg>
