<svg width="122" height="122" viewBox="0 0 122 122" fill="none" xmlns="http://www.w3.org/2000/svg">
<path d="M-0.000325752 60.7909C0.00270177 45.3203 5.90368 30.4326 16.5008 19.1599C27.0979 7.88724 41.594 1.07742 57.037 0.117338C72.4799 -0.842746 87.7082 4.11912 99.6203 13.9924C111.532 23.8657 119.232 37.9078 121.152 53.2589C122.651 65.2702 120.53 77.4555 115.061 88.2541C108.891 100.458 98.7854 110.226 86.3778 115.979C73.9703 121.732 59.9852 123.134 46.6823 119.959C33.3793 116.784 21.5357 109.216 13.0649 98.4803C4.59415 87.744 -0.00884659 74.4657 -0.000325752 60.7909Z" fill="url(#paint0_linear)"/>
<defs>
<linearGradient id="paint0_linear" x1="87.1347" y1="104.509" x2="29.4836" y2="-4.8842e-05" gradientUnits="userSpaceOnUse">
<stop stop-color="#73BCF9"/>
<stop offset="1" stop-color="#7A96F8"/>
</linearGradient>
</defs>
</svg>
