<svg width="268" height="269" viewBox="0 0 268 269" fill="none" xmlns="http://www.w3.org/2000/svg">
<path d="M4.93181e-05 133.985C0.00672969 99.8946 13.01 67.0884 36.3615 42.2483C59.713 17.408 91.6564 2.40208 125.686 0.286481C159.716 -1.82915 193.272 9.10471 219.522 30.8613C245.771 52.6178 262.738 83.5607 266.969 117.388C270.272 143.856 265.598 170.707 253.546 194.502C239.949 221.395 217.682 242.919 190.341 255.596C163 268.273 132.183 271.363 102.869 264.366C73.5547 257.369 47.4562 240.695 28.7903 217.037C10.1244 193.378 -0.0187164 164.119 4.93181e-05 133.985Z" fill="url(#paint0_linear)"/>
<path d="M11.4918 188.367C76.2583 221.603 98.4657 207.664 167.664 183.004C207.212 168.896 236.079 181.29 253.54 194.5C242.088 217.113 224.456 236.016 202.691 249.012C180.926 262.009 155.92 268.567 130.577 267.925C105.234 267.283 80.5933 259.467 59.5145 245.385C38.4358 231.302 21.7839 211.532 11.4918 188.367Z" fill="url(#paint1_linear)"/>
<path d="M5.14795 96.9779C13.6819 67.3094 32.1979 41.4963 57.5671 23.9007C82.9363 6.30505 113.603 -1.99408 144.385 0.40564C175.167 2.80536 204.176 15.7568 226.511 37.0713C248.846 58.3859 263.137 86.7567 266.969 117.389C255.185 106.277 241.241 97.7071 226.003 92.2131C210.766 86.7191 194.561 84.4181 178.396 85.4533C107.964 89.5944 53.8327 139.349 5.14795 96.9779Z" fill="url(#paint2_linear)"/>
<defs>
<linearGradient id="paint0_linear" x1="192.009" y1="230.322" x2="64.9702" y2="0.0277688" gradientUnits="userSpaceOnUse">
<stop stop-color="#5FA8ED"/>
<stop offset="1" stop-color="#7ED5B7"/>
</linearGradient>
<linearGradient id="paint1_linear" x1="184.907" y1="255.135" x2="164.537" y2="157.142" gradientUnits="userSpaceOnUse">
<stop stop-color="#5FA8ED"/>
<stop offset="1" stop-color="#7ED5B7"/>
</linearGradient>
<linearGradient id="paint2_linear" x1="192.73" y1="100.873" x2="162.064" y2="-23.1117" gradientUnits="userSpaceOnUse">
<stop stop-color="#5FA8ED"/>
<stop offset="1" stop-color="#7ED5B7"/>
</linearGradient>
</defs>
</svg>
