<svg width="339" height="176" viewBox="0 0 339 176" fill="none" xmlns="http://www.w3.org/2000/svg">
<path d="M81.4563 56.1349C76.7136 61.4166 77.4681 71.2254 84.3666 74.5669C95.9 64.9736 85.4445 57.3206 81.4563 56.1349Z" fill="#BA68C8"/>
<path opacity="0.3" d="M81.4563 56.1349C76.7136 61.4166 77.4681 71.2254 84.3666 74.5669C95.9 64.9736 85.4445 57.3206 81.4563 56.1349Z" fill="black"/>
<path d="M122.739 52.4701C111.961 48.0508 92.8819 54.3026 76.0668 57.8596C46.9638 57.2129 16.5673 71.441 16.5673 71.441C16.5673 71.441 7.40525 69.6086 2.87812 71.441C-1.64902 73.2734 0.0756102 81.8965 1.90802 83.7289C3.74043 85.4536 10.2078 86.6392 10.2078 86.6392C10.2078 87.6093 10.9623 88.4716 11.9324 88.4716H12.3635C14.9505 88.6872 17.5374 87.9327 19.4776 86.2081C20.4477 85.4535 21.2022 84.4834 21.849 83.4056L24.4359 78.8784C52.2455 75.6448 74.1266 73.7045 74.1266 73.7045L121.662 69.8241L122.739 52.4701Z" fill="url(#paint0_linear)"/>
<path d="M84.3664 74.5669C84.3664 74.5669 90.9415 66.3749 81.4561 56.135C91.696 53.2247 114.547 46.3262 122.739 52.5779L121.446 70.0398L84.3664 74.5669Z" fill="url(#paint1_linear)"/>
<path opacity="0.3" d="M10.1006 86.747L12.5797 86.9626C13.2265 87.0704 13.7654 86.8548 14.3044 86.5314L16.1368 85.3458C16.7835 84.9146 17.1069 84.1601 16.9991 83.4056L16.4601 80.0641L17.538 81.2498C18.1848 82.0043 18.4003 83.0822 18.1848 84.0523C17.9692 84.9146 17.3224 85.5613 16.5679 85.9925L14.4121 87.0704C13.8732 87.2859 13.3343 87.3937 12.7953 87.286L10.1006 86.747Z" fill="black"/>
<path d="M310.723 38.6732C312.339 38.1342 314.819 38.781 316.867 40.1822C318.915 41.6913 320.316 43.8471 321.825 45.7873C324.089 48.8053 326.675 51.5001 329.478 53.8714C331.31 55.3805 333.143 56.7817 334.76 58.3986C336.376 60.1232 337.67 62.1712 337.885 64.4347C338.101 66.0516 337.67 67.7762 336.7 69.0697C338.424 67.7762 339.179 65.5126 338.963 63.3568C338.748 61.0933 337.347 58.9375 335.838 57.3207C334.221 55.5961 332.388 54.3026 330.556 52.7935C327.646 50.4222 325.059 47.6197 322.903 44.7094C321.394 42.6614 319.993 40.29 317.945 38.781C315.897 37.2719 313.31 36.733 311.801 37.2719L310.723 38.6732Z" fill="#263238"/>
<path d="M326.783 60.9855C325.274 59.4765 323.657 62.279 320.854 62.279C321.501 62.8179 322.04 63.3569 322.579 64.0036C325.597 63.3569 327.753 61.9556 326.783 60.9855Z" fill="white"/>
<path d="M323.549 57.9674C322.04 56.4583 319.884 59.4764 316.866 59.5842C317.297 59.7998 317.729 60.0154 318.16 60.3388C318.483 60.5543 318.806 60.7699 319.238 61.0933C322.363 60.4466 324.627 59.0453 323.549 57.9674Z" fill="white"/>
<path d="M304.04 48.3742C303.609 48.9131 303.501 49.6677 303.609 50.3144L311.37 58.5063C313.31 58.183 315.25 58.7219 316.975 59.5842C319.993 59.4764 322.149 56.5661 323.658 57.9674C324.628 58.9375 322.472 60.4466 319.346 60.9855C319.885 61.4167 320.424 61.8478 320.855 62.2789C323.766 62.1712 325.383 59.4765 326.784 60.9855C327.754 61.9556 325.598 63.4646 322.58 64.0036C322.903 64.3269 323.335 64.7581 323.658 65.0815C323.981 65.4048 324.305 65.836 324.628 66.1594C329.91 66.8061 332.604 64.5425 336.161 60.231C335.73 59.5842 335.299 59.0453 334.76 58.5063C333.143 56.7817 331.311 55.4883 329.479 53.9792C326.568 51.6079 323.981 48.8053 321.826 45.895C320.316 43.8471 318.915 41.6913 316.867 40.29C314.819 38.781 312.232 38.242 310.723 38.781L304.04 48.3742Z" fill="#455A64"/>
<path d="M324.627 66.1593C325.813 67.5606 326.998 69.1775 328.615 70.1476C330.663 71.3332 333.25 71.7644 335.298 70.5787C335.837 70.2553 336.376 69.8242 336.807 69.2852C337.777 67.9918 338.208 66.2671 337.993 64.6503C337.777 63.0335 337.13 61.5244 336.16 60.231C332.603 64.4347 329.801 66.6983 324.627 66.1593Z" fill="white"/>
<path d="M300.698 70.2554L313.201 57.2129C314.064 56.3506 314.064 54.9493 313.201 54.087L309.213 50.0988C307.812 48.6976 305.548 48.6976 304.147 49.991L290.458 62.279L300.698 70.2554Z" fill="url(#paint2_linear)"/>
<path d="M261.032 10.2169C262.433 9.3546 265.128 9.46241 267.392 10.4325C269.655 11.4026 271.488 13.235 273.428 14.9596C276.23 17.4388 279.356 19.5945 282.59 21.3192C284.638 22.3971 286.794 23.3672 288.734 24.6606C290.674 25.9541 292.291 27.7865 293.046 29.9423C293.584 31.5591 293.477 33.2837 292.83 34.7928C294.231 33.176 294.555 30.8046 293.8 28.7566C293.046 26.6009 291.321 24.7684 289.489 23.4749C287.548 22.1815 285.393 21.2114 283.345 20.1335C280.003 18.4089 276.985 16.2531 274.182 13.7739C272.242 12.1571 270.41 10.0013 268.146 9.03123C265.883 8.06113 263.188 7.95336 261.787 8.81567L261.032 10.2169Z" fill="#263238"/>
<path d="M281.404 28.7566C279.679 27.5709 278.601 30.589 275.799 31.2358C276.553 31.6669 277.2 32.0981 277.847 32.5292C280.757 31.3436 282.59 29.5111 281.404 28.7566Z" fill="white"/>
<path d="M277.631 26.493C275.906 25.3074 274.289 28.7566 271.379 29.4033C271.81 29.5111 272.349 29.6189 272.78 29.8345C273.211 29.9423 273.535 30.1579 273.966 30.3735C276.984 29.1878 278.816 27.2476 277.631 26.493Z" fill="white"/>
<path d="M256.504 21.1036C256.289 21.7503 256.289 22.5048 256.504 23.1516L265.774 29.5111C267.607 28.8644 269.547 28.8644 271.487 29.4033C274.397 28.7566 275.906 25.3074 277.739 26.493C278.925 27.2476 277.092 29.1878 274.074 30.3735C274.721 30.6968 275.26 30.9124 275.799 31.2358C278.601 30.589 279.679 27.5709 281.404 28.7566C282.589 29.5111 280.757 31.3436 277.847 32.5292C278.278 32.8526 278.709 33.0682 279.14 33.3915C279.571 33.6071 279.895 33.9305 280.326 34.2538C285.607 33.8227 287.871 31.0202 290.458 26.0619C289.919 25.5229 289.38 25.0918 288.733 24.6606C286.793 23.3671 284.637 22.397 282.589 21.3192C279.248 19.5945 276.23 17.4388 273.427 14.9596C271.487 13.3428 269.763 11.5104 267.391 10.4325C265.128 9.46239 262.433 9.35459 261.032 10.2169L256.504 21.1036Z" fill="#455A64"/>
<path d="M280.325 34.2538C281.834 35.4394 283.235 36.7329 285.068 37.3797C287.331 38.1342 290.026 38.0264 291.751 36.4095C292.29 35.9784 292.613 35.4394 292.936 34.7927C293.583 33.2837 293.691 31.559 293.152 29.9422C292.613 28.4332 291.643 27.1397 290.457 25.954C287.87 31.0201 285.607 33.7148 280.325 34.2538Z" fill="white"/>
<path d="M257.798 43.2004L267.283 27.8943C267.93 26.8164 267.714 25.523 266.637 24.7685L261.894 21.6426C260.277 20.5647 258.013 20.9958 256.936 22.6127L246.049 37.4875L257.798 43.2004Z" fill="url(#paint3_linear)"/>
<path d="M193.556 117.79C220.287 117.898 240.552 115.635 253.055 113.802C262.002 112.509 270.086 107.981 276.122 101.299L306.087 67.6684C302.315 58.0752 289.596 54.1948 289.596 54.1948C281.404 64.1114 255.642 74.5669 252.516 85.9925C240.121 83.729 223.306 83.4056 223.306 83.4056L230.204 80.6031C235.701 78.3395 240.336 74.4591 243.462 69.5008L263.942 36.9486C256.289 28.0021 243.354 27.3553 243.354 27.3553C237.749 38.781 221.581 50.8533 218.132 60.4466C192.909 62.6023 183.316 67.3451 173.723 73.2734L193.556 117.79Z" fill="url(#paint4_linear)"/>
<g opacity="0.2">
<path opacity="0.5" d="M262.433 98.496C264.912 87.0704 258.984 82.1121 255.75 80.4953C254.133 82.3277 252.948 84.1601 252.517 86.1003C260.385 89.4418 262.325 96.5558 262.433 98.496Z" fill="black"/>
<path opacity="0.5" d="M196.897 70.9021C196.897 70.9021 205.736 73.1657 213.82 83.4056C213.82 83.4056 217.485 83.2978 223.306 83.4056L230.204 80.6031C230.635 80.3875 230.959 80.2797 231.39 80.0642L216.299 80.7109C216.299 80.7109 208.862 72.0878 196.897 70.9021Z" fill="black"/>
<path opacity="0.5" d="M227.941 69.393C228.372 60.7699 222.875 57.3207 220.395 56.135C219.425 57.6441 218.671 59.0453 218.132 60.5544C224.06 61.9556 227.402 67.345 227.941 69.393Z" fill="black"/>
</g>
<path d="M113.47 58.7219C109.697 86.9626 121.123 109.383 148.717 117.467C163.484 121.671 194.743 119.515 194.743 119.515C204.552 95.1546 196.36 83.6212 173.724 73.1656C159.712 77.6928 156.37 61.5244 155.723 59.5842C145.591 54.3026 120.261 46.6495 120.261 46.6495C114.656 49.3443 113.47 58.7219 113.47 58.7219Z" fill="url(#paint5_linear)"/>
<path d="M139.662 54.8415L135.566 47.5119L119.29 58.5064C121.446 61.4167 123.602 64.2192 125.757 67.1295C128.56 68.3152 131.686 68.7463 134.488 67.4529C137.291 66.1594 139.447 63.788 140.417 60.8777C141.063 58.8297 140.74 56.8895 139.662 54.8415Z" fill="url(#paint6_linear)"/>
<path opacity="0.3" d="M134.165 48.5898C134.165 57.4285 127.158 61.5245 122.847 63.1413L119.397 58.5063L134.165 48.5898Z" fill="black"/>
<path d="M138.585 41.6913C137.183 43.4159 135.459 44.9249 133.303 45.1405C130.5 45.4639 127.914 43.3081 126.297 41.0445C124.68 38.6732 123.602 35.9784 121.554 33.9304C118.967 31.2357 115.087 30.05 111.422 30.1578C107.649 30.2656 103.984 31.5591 100.643 33.1759C97.9482 31.6669 95.7924 29.0799 94.8223 26.1696C94.1756 24.1216 94.0678 21.8581 94.4989 19.7023C94.7145 18.7322 95.9002 18.5166 96.4391 19.2711C96.7625 19.7023 97.1937 20.1335 97.517 20.4568C97.3014 17.0076 98.056 13.5583 99.8884 10.5402C101.397 8.06109 103.553 6.0131 106.032 4.61184C106.787 4.18069 107.757 4.50406 108.188 5.25858C108.619 6.22868 109.266 6.98322 110.128 7.62995C112.607 4.18071 116.057 1.48598 120.045 0.084726C120.907 -0.238641 121.77 0.408099 121.77 1.27041C122.201 7.09101 132.117 10.8636 135.351 13.4505C135.782 11.8337 136.752 10.4325 138.261 9.57014C139.662 8.60004 141.495 8.27667 143.112 8.49225C141.279 10.3247 139.555 12.2649 137.722 14.0973C139.662 13.9895 141.603 13.6661 143.327 12.9116C144.297 12.4804 145.375 13.1272 145.483 14.2051C145.806 16.5764 145.16 19.1634 143.758 21.1036C144.405 20.7802 144.944 20.5646 145.483 20.2412C146.13 19.9179 146.884 20.4568 146.777 21.2114C146.238 24.445 144.729 27.5709 142.249 29.7267C142.681 29.7267 143.112 29.6189 143.543 29.5111C144.405 29.2955 145.16 29.8345 145.052 30.6968C144.729 32.4214 143.866 34.0382 142.896 35.5473C141.71 37.4875 140.094 39.8589 138.585 41.6913Z" fill="#263238"/>
<path d="M99.781 23.4749C98.0564 33.9304 99.242 44.8171 103.122 54.6259C103.985 56.8895 105.17 59.2609 107.326 60.4465C109.59 61.74 112.285 61.4166 114.871 61.0933C118.967 60.4465 123.063 59.5842 126.836 57.7518C130.501 55.8116 133.734 52.7935 135.136 48.9131C137.83 49.5598 140.633 48.2664 142.358 46.1106C144.082 43.847 144.621 41.0445 144.729 38.242C144.729 36.4096 144.406 34.3616 142.789 33.6071C141.28 32.8526 139.555 33.7149 138.262 34.7927C136.106 36.5174 134.597 38.8887 133.842 41.4757C132.657 37.1641 130.824 32.9603 129.639 28.541C129.207 26.8164 128.561 24.9839 127.159 24.0138C125.327 22.8282 122.956 23.4749 120.8 24.0138C114.225 25.4151 106.033 25.4151 99.781 23.4749Z" fill="url(#paint7_linear)"/>
<path d="M112.5 36.6252L107.326 45.2483L113.47 46.3262L112.5 36.6252Z" fill="#FCDDCD"/>
<path d="M119.29 49.3442C117.781 50.0988 116.164 50.8533 114.655 51.6078C115.302 52.6857 117.027 53.1169 118.105 52.5779C119.29 52.039 119.614 50.5299 119.29 49.3442Z" fill="#F28F8F"/>
<path opacity="0.3" d="M119.29 49.3442C117.781 50.0988 116.164 50.8533 114.655 51.6078C115.302 52.6857 117.027 53.1169 118.105 52.5779C119.29 52.039 119.614 50.5299 119.29 49.3442Z" fill="black"/>
<path d="M116.596 52.6857C117.135 52.7935 117.674 52.7935 118.213 52.5779C119.075 52.1468 119.506 51.1767 119.398 50.0988C118.751 50.0988 118.105 50.3144 117.566 50.7456C117.027 51.1767 116.596 51.9312 116.596 52.6857Z" fill="#F28F8F"/>
<path d="M121.231 36.9485C121.339 37.9186 120.584 38.781 119.722 38.8888C118.752 38.9966 117.89 38.242 117.782 37.3797C117.674 36.4096 118.429 35.5473 119.291 35.4395C120.261 35.3317 121.123 35.9784 121.231 36.9485Z" fill="#263238"/>
<path d="M106.679 37.9186C106.787 38.8887 106.033 39.751 105.17 39.8588C104.2 39.9666 103.338 39.2121 103.23 38.3498C103.122 37.3797 103.877 36.5173 104.739 36.4095C105.709 36.194 106.571 36.9485 106.679 37.9186Z" fill="#263238"/>
<path d="M104.2 31.1279C103.015 32.098 101.829 33.1759 100.643 34.146C100.212 33.2837 100.428 32.098 101.074 31.3435C101.829 30.6967 103.338 30.6967 104.2 31.1279Z" fill="#263238"/>
<path d="M119.075 29.4033C120.476 30.1578 121.77 30.9123 123.171 31.6669C123.495 30.6968 122.956 29.6189 122.093 28.9721C121.339 28.541 119.83 28.8643 119.075 29.4033Z" fill="#263238"/>
<path d="M205.737 91.9209L182.886 73.5968C174.909 67.2372 165.747 62.4945 155.831 59.7998C154.645 72.9501 161.328 85.5614 172.861 92.1365L194.311 104.317L195.281 141.935L194.958 149.049L190.97 151.636L184.071 159.828C183.748 160.259 183.64 160.906 183.964 161.337C184.395 161.876 185.149 162.092 185.688 161.768L191.832 157.996L190.646 164.032C190.431 164.894 190.108 165.649 189.676 166.403L185.041 173.086C184.61 173.733 184.718 174.487 185.257 175.026C185.688 175.457 186.335 175.457 186.874 175.242L191.078 173.409C196.575 170.93 200.671 166.188 202.395 160.475L205.414 150.343C205.845 148.833 206.168 147.324 206.276 145.815L210.48 103.131C210.911 98.9272 209.078 94.6156 205.737 91.9209Z" fill="url(#paint8_linear)"/>
<path d="M155.83 59.692L163.807 62.1712C169.735 64.0036 175.34 66.8061 180.514 70.3631L193.988 79.9564C193.88 91.2742 181.808 99.7895 181.808 99.7895L164.885 89.7651C156.908 85.0224 152.704 75.8604 154.429 66.6983L155.83 59.692Z" fill="url(#paint9_linear)"/>
<defs>
<linearGradient id="paint0_linear" x1="61.3697" y1="50.947" x2="61.3697" y2="88.5076" gradientUnits="userSpaceOnUse">
<stop stop-color="#F7BC9C"/>
<stop offset="1" stop-color="#FCDDCD"/>
</linearGradient>
<linearGradient id="paint1_linear" x1="102.098" y1="50.0383" x2="102.098" y2="74.5669" gradientUnits="userSpaceOnUse">
<stop stop-color="#DE6069"/>
<stop offset="1" stop-color="#F4A494"/>
</linearGradient>
<linearGradient id="paint2_linear" x1="302.153" y1="49.034" x2="302.153" y2="70.2554" gradientUnits="userSpaceOnUse">
<stop stop-color="#F7BB9B"/>
<stop offset="1" stop-color="#FCDDCD"/>
</linearGradient>
<linearGradient id="paint3_linear" x1="256.848" y1="21.0495" x2="256.848" y2="43.2004" gradientUnits="userSpaceOnUse">
<stop stop-color="#F7BC9C"/>
<stop offset="1" stop-color="#F6C6AE"/>
</linearGradient>
<linearGradient id="paint4_linear" x1="211.255" y1="40.0794" x2="228.993" y2="138.235" gradientUnits="userSpaceOnUse">
<stop stop-color="#4E46A4"/>
<stop offset="1" stop-color="#799FF8"/>
</linearGradient>
<linearGradient id="paint5_linear" x1="184.32" y1="46.3493" x2="155.798" y2="120.068" gradientUnits="userSpaceOnUse">
<stop stop-color="#CD3641"/>
<stop offset="0.639986" stop-color="#F18F96"/>
<stop offset="1" stop-color="#F4A693"/>
</linearGradient>
<linearGradient id="paint6_linear" x1="136.353" y1="51.1998" x2="130.424" y2="67.9071" gradientUnits="userSpaceOnUse">
<stop stop-color="#F7BB9B"/>
<stop offset="1" stop-color="#F6C6AE"/>
</linearGradient>
<linearGradient id="paint7_linear" x1="144.438" y1="42.0377" x2="71.1413" y2="42.0377" gradientUnits="userSpaceOnUse">
<stop stop-color="#F7B998"/>
<stop offset="1" stop-color="#F5CEBC"/>
</linearGradient>
<linearGradient id="paint8_linear" x1="240.908" y1="99.1658" x2="180.547" y2="117.49" gradientUnits="userSpaceOnUse">
<stop stop-color="#F7BE9F"/>
<stop offset="1" stop-color="#FCDDCD"/>
</linearGradient>
<linearGradient id="paint9_linear" x1="183.78" y1="64.6734" x2="174.017" y2="99.7895" gradientUnits="userSpaceOnUse">
<stop stop-color="#DF636C"/>
<stop offset="1" stop-color="#F4A394"/>
</linearGradient>
</defs>
</svg>
