<svg width="244" height="244" viewBox="0 0 244 244" fill="none" xmlns="http://www.w3.org/2000/svg">
<path d="M0.456364 122.036C0.46242 91.0944 12.2644 61.3191 33.4586 38.7737C54.6527 16.2283 83.6451 2.60872 114.531 0.688549C145.417 -1.23162 175.873 8.69211 199.698 28.4387C223.522 48.1853 238.922 76.2695 242.761 106.972C245.759 130.994 241.517 155.365 230.578 176.962C218.238 201.37 198.028 220.906 173.213 232.412C148.398 243.917 120.427 246.722 93.8215 240.371C67.2157 234.021 43.5283 218.887 26.5868 197.414C9.64533 175.942 0.439323 149.385 0.456364 122.036Z" fill="url(#paint0_linear)"/>
<defs>
<linearGradient id="paint0_linear" x1="174.726" y1="209.472" x2="59.4242" y2="0.453763" gradientUnits="userSpaceOnUse">
<stop stop-color="#5FA8ED"/>
<stop offset="1" stop-color="#7ED5B7"/>
</linearGradient>
</defs>
</svg>
