<svg width="38" height="38" viewBox="0 0 38 38" fill="none" xmlns="http://www.w3.org/2000/svg">
<path d="M0.919051 19.0309C0.919969 14.3354 2.71097 9.81684 5.92729 6.39548C9.14361 2.97411 13.5433 0.907267 18.2304 0.615873C22.9175 0.324479 27.5394 1.83045 31.1549 4.82709C34.7703 7.82373 37.1073 12.0857 37.69 16.7449C38.145 20.3904 37.5012 24.0887 35.8412 27.3662C33.9685 31.0703 30.9015 34.0349 27.1357 35.7809C23.3698 37.527 19.1252 37.9526 15.0877 36.9889C11.0501 36.0252 7.45543 33.7285 4.88447 30.47C2.31352 27.2114 0.916465 23.1813 0.919051 19.0309Z" fill="url(#paint0_linear)"/>
<defs>
<linearGradient id="paint0_linear" x1="13.4555" y1="55.1107" x2="13.4555" y2="0.580261" gradientUnits="userSpaceOnUse">
<stop offset="0.169841" stop-color="#EA5AB1"/>
<stop offset="0.942708" stop-color="#F9E1C5"/>
</linearGradient>
</defs>
</svg>
