<svg width="450" height="450" viewBox="0 0 450 450" fill="none" xmlns="http://www.w3.org/2000/svg">
<g opacity="0.2">
<g opacity="0.4" filter="url(#filter0_f)">
<path d="M70.666 225.028C70.6737 185.745 85.6575 147.942 112.566 119.318C139.474 90.6943 176.283 73.4026 215.496 70.9648C254.709 68.5269 293.377 81.1262 323.624 106.197C353.871 131.267 373.423 166.923 378.298 205.903C382.104 236.402 376.719 267.343 362.83 294.763C347.163 325.752 321.504 350.555 289.999 365.163C258.493 379.771 222.982 383.331 189.203 375.268C155.424 367.206 125.35 347.991 103.841 320.73C82.3324 293.468 70.6444 259.752 70.666 225.028Z" fill="url(#paint0_linear)"/>
</g>
</g>
<path d="M103.456 225.036C103.462 194.094 115.264 164.319 136.459 141.774C157.653 119.228 186.645 105.609 217.531 103.689C248.417 101.768 278.873 111.692 302.698 131.439C326.522 151.185 341.922 179.27 345.761 209.972C348.759 233.994 344.517 258.365 333.578 279.962C321.238 304.37 301.028 323.906 276.213 335.412C251.398 346.917 223.427 349.722 196.822 343.371C170.216 337.021 146.528 321.887 129.587 300.414C112.645 278.942 103.439 252.385 103.456 225.036Z" fill="url(#paint1_linear)"/>
<path d="M113.887 274.393C172.671 304.558 192.826 291.907 255.632 269.525C291.526 256.72 317.726 267.969 333.574 279.959C323.18 300.484 307.177 317.64 287.422 329.435C267.668 341.231 244.973 347.183 221.971 346.601C198.97 346.018 176.605 338.924 157.474 326.143C138.342 313.362 123.229 295.417 113.887 274.393Z" fill="url(#paint2_linear)"/>
<path d="M108.129 191.446C115.875 164.519 132.68 141.09 155.705 125.12C178.731 109.15 206.565 101.618 234.503 103.796C262.441 105.974 288.77 117.729 309.042 137.074C329.313 156.419 342.284 182.169 345.762 209.972C335.067 199.886 322.411 192.108 308.581 187.121C294.751 182.135 280.043 180.047 265.372 180.986C201.446 184.745 152.316 229.903 108.129 191.446Z" fill="url(#paint3_linear)"/>
<defs>
<filter id="filter0_f" x="0.666016" y="0.666992" width="448.82" height="448.82" filterUnits="userSpaceOnUse" color-interpolation-filters="sRGB">
<feFlood flood-opacity="0" result="BackgroundImageFix"/>
<feBlend mode="normal" in="SourceGraphic" in2="BackgroundImageFix" result="shape"/>
<feGaussianBlur stdDeviation="35" result="effect1_foregroundBlur"/>
</filter>
<linearGradient id="paint0_linear" x1="291.92" y1="336.039" x2="145.531" y2="70.667" gradientUnits="userSpaceOnUse">
<stop stop-color="#5FA8ED"/>
<stop offset="1" stop-color="#7ED5B7"/>
</linearGradient>
<linearGradient id="paint1_linear" x1="277.726" y1="312.472" x2="162.424" y2="103.454" gradientUnits="userSpaceOnUse">
<stop stop-color="#5FA8ED"/>
<stop offset="1" stop-color="#7ED5B7"/>
</linearGradient>
<linearGradient id="paint2_linear" x1="271.282" y1="334.993" x2="252.794" y2="246.052" gradientUnits="userSpaceOnUse">
<stop stop-color="#5FA8ED"/>
<stop offset="1" stop-color="#7ED5B7"/>
</linearGradient>
<linearGradient id="paint3_linear" x1="278.381" y1="194.982" x2="250.549" y2="82.4509" gradientUnits="userSpaceOnUse">
<stop stop-color="#5FA8ED"/>
<stop offset="1" stop-color="#7ED5B7"/>
</linearGradient>
</defs>
</svg>
