<svg width="27" height="28" viewBox="0 0 27 28" fill="none" xmlns="http://www.w3.org/2000/svg">
<g filter="url(#filter0_b)">
<path d="M10.2614 26.108V1.97159H16.3636V26.108H10.2614ZM1.24432 17.0909V10.9886H25.3807V17.0909H1.24432Z" fill="url(#paint0_linear)"/>
<path d="M10.2614 26.108H9.26136V27.108H10.2614V26.108ZM10.2614 1.97159V0.971588H9.26136V1.97159H10.2614ZM16.3636 1.97159H17.3636V0.971588H16.3636V1.97159ZM16.3636 26.108V27.108H17.3636V26.108H16.3636ZM1.24432 17.0909H0.244318V18.0909H1.24432V17.0909ZM1.24432 10.9886V9.98864H0.244318V10.9886H1.24432ZM25.3807 10.9886H26.3807V9.98864H25.3807V10.9886ZM25.3807 17.0909V18.0909H26.3807V17.0909H25.3807ZM11.2614 26.108V1.97159H9.26136V26.108H11.2614ZM10.2614 2.97159H16.3636V0.971588H10.2614V2.97159ZM15.3636 1.97159V26.108H17.3636V1.97159H15.3636ZM16.3636 25.108H10.2614V27.108H16.3636V25.108ZM2.24432 17.0909V10.9886H0.244318V17.0909H2.24432ZM1.24432 11.9886H25.3807V9.98864H1.24432V11.9886ZM24.3807 10.9886V17.0909H26.3807V10.9886H24.3807ZM25.3807 16.0909H1.24432V18.0909H25.3807V16.0909Z" fill="url(#paint1_linear)"/>
</g>
<defs>
<filter id="filter0_b" x="-39.7559" y="-39.0283" width="106.136" height="106.136" filterUnits="userSpaceOnUse" color-interpolation-filters="sRGB">
<feFlood flood-opacity="0" result="BackgroundImageFix"/>
<feGaussianBlur in="BackgroundImage" stdDeviation="20"/>
<feComposite in2="SourceAlpha" operator="in" result="effect1_backgroundBlur"/>
<feBlend mode="normal" in="SourceGraphic" in2="effect1_backgroundBlur" result="shape"/>
</filter>
<linearGradient id="paint0_linear" x1="6.35714" y1="-9.83983" x2="38.8447" y2="23.6683" gradientUnits="userSpaceOnUse">
<stop stop-color="#5FA8ED"/>
<stop offset="1" stop-color="#7ED5B7"/>
</linearGradient>
<linearGradient id="paint1_linear" x1="22.616" y1="-18" x2="22.616" y2="40" gradientUnits="userSpaceOnUse">
<stop stop-color="white" stop-opacity="0.4"/>
<stop offset="1" stop-color="white" stop-opacity="0.1"/>
</linearGradient>
</defs>
</svg>
