<svg width="524" height="615" viewBox="0 0 524 615" fill="none" xmlns="http://www.w3.org/2000/svg">
<g opacity="0.2">
<g opacity="0.4" filter="url(#filter0_f)">
<path d="M144.666 390.028C144.674 350.745 159.658 312.942 186.566 284.318C213.474 255.694 250.283 238.403 289.496 235.965C328.709 233.527 367.377 246.126 397.624 271.197C427.871 296.267 447.423 331.923 452.298 370.903C456.104 401.402 450.719 432.343 436.83 459.763C421.163 490.752 395.504 515.555 363.999 530.163C332.493 544.771 296.982 548.331 263.203 540.268C229.424 532.206 199.35 512.991 177.841 485.73C156.332 458.468 144.644 424.752 144.666 390.028Z" fill="url(#paint0_linear)"/>
</g>
</g>
<path d="M177.456 390.036C177.462 359.094 189.264 329.319 210.459 306.774C231.653 284.228 260.645 270.609 291.531 268.689C322.417 266.768 352.873 276.692 376.698 296.439C400.522 316.185 415.922 344.27 419.761 374.972C422.759 398.994 418.517 423.365 407.578 444.962C395.238 469.37 375.028 488.906 350.213 500.412C325.398 511.917 297.427 514.722 270.822 508.371C244.216 502.021 220.528 486.887 203.587 465.414C186.645 443.942 177.439 417.385 177.456 390.036Z" fill="url(#paint1_linear)"/>
<path d="M187.887 439.393C246.671 469.558 266.826 456.907 329.632 434.525C365.526 421.72 391.726 432.969 407.574 444.959C397.18 465.484 381.177 482.64 361.422 494.435C341.668 506.231 318.973 512.183 295.971 511.601C272.97 511.018 250.605 503.924 231.474 491.143C212.342 478.362 197.229 460.417 187.887 439.393Z" fill="url(#paint2_linear)"/>
<path d="M182.129 356.446C189.875 329.519 206.68 306.09 229.705 290.12C252.731 274.15 280.565 266.618 308.503 268.796C336.441 270.974 362.77 282.729 383.042 302.074C403.313 321.419 416.284 347.169 419.762 374.972C409.067 364.886 396.411 357.108 382.581 352.121C368.751 347.135 354.043 345.047 339.372 345.986C275.446 349.745 226.316 394.903 182.129 356.446Z" fill="url(#paint3_linear)"/>
<path d="M345.917 0.323207C347.546 0.685939 349.116 1.27536 350.581 2.07424C351.982 2.82839 353.237 3.82629 354.288 5.0211C355.299 6.17871 356.045 7.54292 356.475 9.01859C356.924 10.5828 356.959 12.237 356.577 13.819C356.324 15.0748 355.825 16.2679 355.108 17.3296C354.464 18.243 353.69 19.0573 352.81 19.7469C351.949 20.4149 351.032 21.0065 350.068 21.515L347.352 22.95C346.533 23.3779 345.755 23.8812 345.029 24.4533C344.373 24.951 343.87 25.6228 343.577 26.3923C343.429 26.7353 343.19 27.031 342.885 27.2464C342.739 27.3583 342.569 27.4356 342.388 27.4726C342.208 27.5096 342.021 27.5053 341.843 27.46L337.845 26.6058C337.653 26.5653 337.472 26.4871 337.31 26.3757C337.149 26.2642 337.011 26.1218 336.906 25.9566C336.794 25.802 336.72 25.6232 336.691 25.4347C336.661 25.2462 336.676 25.0534 336.735 24.8718C337.068 23.6293 337.649 22.467 338.443 21.4552C339.159 20.5622 339.986 19.7642 340.903 19.0806C341.79 18.4321 342.73 17.8605 343.713 17.3723C344.687 16.8854 345.593 16.4156 346.43 15.9544C347.195 15.55 347.914 15.0631 348.574 14.5023C349.149 14.018 349.548 13.3575 349.71 12.6232C349.857 11.9818 349.847 11.3143 349.681 10.6776C349.514 10.041 349.196 9.45414 348.753 8.96734C347.649 7.76036 346.172 6.95753 344.559 6.68672C341.575 6.02047 339.053 7.02554 336.991 9.70192C336.793 9.99495 336.541 10.2472 336.248 10.445C336.089 10.5258 335.916 10.5742 335.739 10.5874C335.562 10.6006 335.383 10.5783 335.214 10.5219L330.944 9.57379C330.793 9.54478 330.65 9.48602 330.522 9.40095C330.395 9.31588 330.285 9.20622 330.201 9.07838C330.108 8.94753 330.045 8.79768 330.017 8.63964C329.989 8.48159 329.996 8.31928 330.038 8.16442C330.397 6.85166 331.072 5.64651 332.003 4.65381C333.048 3.50022 334.288 2.54021 335.667 1.81799C337.178 1.02466 338.808 0.482313 340.493 0.212168C342.291 -0.10417 344.134 -0.0664533 345.917 0.323207ZM341.407 30.6802C341.595 30.7202 341.772 30.7985 341.928 30.9102C342.083 31.0219 342.214 31.1646 342.313 31.3293C342.418 31.4888 342.489 31.6679 342.523 31.8558C342.557 32.0438 342.552 32.2366 342.509 32.4227L341.484 37.0522C341.398 37.4218 341.172 37.7435 340.853 37.9491C340.534 38.1548 340.148 38.2283 339.776 38.1541L335.249 37.1547C335.062 37.1147 334.886 37.0373 334.73 36.9272C334.575 36.8171 334.443 36.6766 334.343 36.5141C334.237 36.3553 334.164 36.1762 334.13 35.988C334.097 35.7998 334.102 35.6067 334.147 35.4208L335.172 30.7827C335.258 30.4131 335.484 30.0914 335.803 29.8858C336.122 29.6801 336.508 29.6066 336.88 29.6808L341.407 30.6802Z" fill="#73C5CB"/>
<path d="M359.346 43.877C360.475 43.6908 361.626 43.6678 362.762 43.8087C363.855 43.9327 364.916 44.2509 365.897 44.7483C366.833 45.2274 367.655 45.9034 368.306 46.7299C368.995 47.6158 369.44 48.6674 369.596 49.7793C369.773 50.6444 369.773 51.5364 369.596 52.4016C369.418 53.1543 369.13 53.8767 368.741 54.5455C368.361 55.1902 367.926 55.8017 367.443 56.3734L366.068 57.9963C365.654 58.4818 365.282 59.0019 364.957 59.5509C364.668 60.039 364.52 60.5979 364.53 61.1653C364.529 61.4318 364.452 61.6924 364.308 61.9169C364.243 62.0243 364.155 62.116 364.05 62.1854C363.945 62.2548 363.826 62.3002 363.702 62.3184L360.909 62.7796C360.639 62.822 360.363 62.7577 360.14 62.6003C360.03 62.5287 359.939 62.433 359.872 62.3204C359.806 62.2079 359.766 62.0815 359.756 61.9511C359.639 61.0757 359.706 60.1855 359.952 59.3374C360.174 58.5763 360.498 57.8492 360.917 57.1763C361.317 56.5322 361.771 55.9235 362.275 55.357C362.779 54.7932 363.232 54.2636 363.659 53.7511C364.044 53.2957 364.379 52.8003 364.658 52.2734C364.903 51.816 364.99 51.2906 364.906 50.7786C364.837 50.3287 364.659 49.9023 364.388 49.5363C364.117 49.1703 363.762 48.8755 363.352 48.6774C362.339 48.1829 361.19 48.0445 360.089 48.2845C359.093 48.4313 358.166 48.8816 357.436 49.574C356.705 50.2664 356.206 51.1673 356.006 52.1539C355.952 52.3948 355.853 52.6236 355.715 52.8286C355.55 53.0103 355.32 53.1206 355.075 53.1361L352.102 53.623C351.891 53.6577 351.675 53.612 351.496 53.4949C351.402 53.4344 351.323 53.354 351.264 53.2596C351.205 53.1651 351.168 53.0588 351.154 52.9482C351.051 52.0152 351.177 51.0711 351.521 50.1978C351.892 49.1881 352.442 48.2535 353.144 47.4389C353.911 46.5447 354.816 45.7804 355.826 45.1753C356.904 44.5182 358.099 44.0772 359.346 43.877ZM364.223 64.5392C364.354 64.5172 364.488 64.5218 364.617 64.5526C364.746 64.5834 364.868 64.6399 364.975 64.7186C365.081 64.7945 365.172 64.8911 365.241 65.0026C365.31 65.1141 365.356 65.2382 365.376 65.3678L365.906 68.5965C365.928 68.7274 365.923 68.8614 365.892 68.9905C365.861 69.1197 365.805 69.2413 365.726 69.3482C365.651 69.456 365.555 69.5474 365.443 69.6164C365.332 69.6855 365.207 69.7308 365.077 69.7496L361.917 70.2707C361.787 70.2919 361.655 70.287 361.527 70.2562C361.399 70.2254 361.279 70.1693 361.173 70.0913C361.064 70.0173 360.971 69.9214 360.9 69.8096C360.83 69.6979 360.783 69.5728 360.763 69.4421L360.234 66.2048C360.195 65.9387 360.263 65.6679 360.423 65.4518C360.583 65.2357 360.822 65.0918 361.088 65.0517L364.223 64.5392Z" fill="#73C5CB"/>
<g opacity="0.2">
<path opacity="0.2" d="M359.346 43.877C360.475 43.6908 361.626 43.6678 362.762 43.8087C363.855 43.9327 364.916 44.2509 365.897 44.7483C366.833 45.2274 367.655 45.9034 368.306 46.7299C368.995 47.6158 369.44 48.6674 369.596 49.7793C369.773 50.6444 369.773 51.5364 369.596 52.4016C369.418 53.1543 369.13 53.8767 368.741 54.5455C368.361 55.1902 367.926 55.8017 367.443 56.3734L366.068 57.9963C365.654 58.4818 365.282 59.0019 364.957 59.5509C364.668 60.039 364.52 60.5979 364.53 61.1653C364.529 61.4318 364.452 61.6924 364.308 61.9169C364.243 62.0243 364.155 62.116 364.05 62.1854C363.945 62.2548 363.826 62.3002 363.702 62.3184L360.909 62.7796C360.639 62.822 360.363 62.7577 360.14 62.6003C360.03 62.5287 359.939 62.433 359.872 62.3204C359.806 62.2079 359.766 62.0815 359.756 61.9511C359.639 61.0757 359.706 60.1855 359.952 59.3374C360.174 58.5763 360.498 57.8492 360.917 57.1763C361.317 56.5322 361.771 55.9235 362.275 55.357C362.779 54.7932 363.232 54.2636 363.659 53.7511C364.044 53.2957 364.379 52.8003 364.658 52.2734C364.903 51.816 364.99 51.2906 364.906 50.7786C364.837 50.3287 364.659 49.9023 364.388 49.5363C364.117 49.1703 363.762 48.8755 363.352 48.6774C362.339 48.1829 361.19 48.0445 360.089 48.2845C359.093 48.4313 358.166 48.8816 357.436 49.574C356.705 50.2664 356.206 51.1673 356.006 52.1539C355.952 52.3948 355.853 52.6236 355.715 52.8286C355.55 53.0103 355.32 53.1206 355.075 53.1361L352.102 53.623C351.891 53.6577 351.675 53.612 351.496 53.4949C351.402 53.4344 351.323 53.354 351.264 53.2596C351.205 53.1651 351.168 53.0588 351.154 52.9482C351.051 52.0152 351.177 51.0711 351.521 50.1978C351.892 49.1881 352.442 48.2535 353.144 47.4389C353.911 46.5447 354.816 45.7804 355.826 45.1753C356.904 44.5182 358.099 44.0772 359.346 43.877ZM364.223 64.5392C364.354 64.5172 364.488 64.5218 364.617 64.5526C364.746 64.5834 364.868 64.6399 364.975 64.7186C365.081 64.7945 365.172 64.8911 365.241 65.0026C365.31 65.1141 365.356 65.2382 365.376 65.3678L365.906 68.5965C365.928 68.7274 365.923 68.8614 365.892 68.9905C365.861 69.1197 365.805 69.2413 365.726 69.3482C365.651 69.456 365.555 69.5474 365.443 69.6164C365.332 69.6855 365.207 69.7308 365.077 69.7496L361.917 70.2707C361.787 70.2919 361.655 70.287 361.527 70.2562C361.399 70.2254 361.279 70.1693 361.173 70.0913C361.064 70.0173 360.971 69.9214 360.9 69.8096C360.83 69.6979 360.783 69.5728 360.763 69.4421L360.234 66.2048C360.195 65.9387 360.263 65.6679 360.423 65.4518C360.583 65.2357 360.822 65.0918 361.088 65.0517L364.223 64.5392Z" fill="black"/>
</g>
<path d="M388.472 53.0417C388.725 53.2267 388.897 53.5034 388.949 53.813C389.002 54.1225 388.932 54.4404 388.754 54.6988L386.499 57.8592C386.314 58.1129 386.037 58.2844 385.727 58.337C385.418 58.3897 385.1 58.3194 384.841 58.1411L381.749 55.9459C381.622 55.8567 381.514 55.7425 381.432 55.6104C381.349 55.4783 381.295 55.3309 381.271 55.1771C381.226 54.8778 381.296 54.5726 381.468 54.323L383.723 51.154C383.906 50.8993 384.182 50.7274 384.491 50.6757C384.792 50.6305 385.098 50.704 385.345 50.8807L388.472 53.0417ZM401.523 31.6108C402.638 32.3974 403.634 33.3411 404.479 34.4124C405.295 35.432 405.923 36.589 406.332 37.8291C406.724 39.0143 406.855 40.27 406.717 41.5105C406.556 42.8315 406.056 44.0882 405.265 45.1578C404.675 46.0227 403.92 46.7628 403.044 47.3359C402.265 47.8195 401.419 48.1851 400.532 48.4207C399.673 48.65 398.796 48.8043 397.91 48.882L395.399 49.0955C394.649 49.1643 393.906 49.2958 393.178 49.4884C392.527 49.6605 391.935 50.0094 391.47 50.4963C391.246 50.7143 390.969 50.8703 390.667 50.949C390.52 50.9838 390.367 50.9858 390.22 50.9548C390.072 50.9238 389.933 50.8606 389.813 50.7697L387.079 48.8307C386.819 48.643 386.641 48.3612 386.584 48.0449C386.551 47.8957 386.554 47.741 386.591 47.5928C386.628 47.4446 386.699 47.307 386.798 47.1907C387.433 46.3572 388.233 45.6625 389.146 45.1493C389.969 44.6983 390.848 44.3593 391.76 44.1414C392.635 43.9298 393.527 43.7927 394.425 43.7314C395.279 43.6801 396.134 43.6118 396.919 43.5349C397.625 43.4741 398.321 43.3336 398.995 43.1164C399.582 42.9375 400.093 42.5678 400.447 42.0657C400.765 41.6308 400.971 41.1248 401.048 40.5919C401.126 40.0589 401.072 39.5152 400.891 39.0078C400.446 37.749 399.592 36.6755 398.465 35.9585C396.432 34.5064 394.212 34.458 391.803 35.8133C391.56 35.9685 391.291 36.0784 391.009 36.1379C390.862 36.1483 390.715 36.1295 390.575 36.0826C390.436 36.0356 390.308 35.9615 390.197 35.8645L387.293 33.7974C387.081 33.6536 386.934 33.433 386.883 33.1825C386.858 33.0543 386.861 32.9223 386.892 32.7955C386.923 32.6688 386.981 32.5502 387.062 32.4479C387.739 31.5742 388.618 30.8792 389.625 30.4235C390.78 29.8891 392.02 29.5624 393.289 29.4583C394.679 29.345 396.077 29.4546 397.432 29.7829C398.903 30.1149 400.294 30.7363 401.523 31.6108Z" fill="#73C5CB"/>
<g opacity="0.6">
<path opacity="0.6" d="M388.472 53.0417C388.725 53.2267 388.897 53.5034 388.949 53.813C389.002 54.1225 388.932 54.4404 388.754 54.6988L386.499 57.8592C386.314 58.1129 386.037 58.2844 385.727 58.337C385.418 58.3897 385.1 58.3194 384.841 58.1411L381.749 55.9459C381.622 55.8567 381.514 55.7425 381.432 55.6104C381.349 55.4783 381.295 55.3309 381.271 55.1771C381.226 54.8778 381.296 54.5726 381.468 54.323L383.723 51.154C383.906 50.8993 384.182 50.7274 384.491 50.6757C384.792 50.6305 385.098 50.704 385.345 50.8807L388.472 53.0417ZM401.523 31.6108C402.638 32.3974 403.634 33.3411 404.479 34.4124C405.295 35.432 405.923 36.589 406.332 37.8291C406.724 39.0143 406.855 40.27 406.717 41.5105C406.556 42.8315 406.056 44.0882 405.265 45.1578C404.675 46.0227 403.92 46.7628 403.044 47.3359C402.265 47.8195 401.419 48.1851 400.532 48.4207C399.673 48.65 398.796 48.8043 397.91 48.882L395.399 49.0955C394.649 49.1643 393.906 49.2958 393.178 49.4884C392.527 49.6605 391.935 50.0094 391.47 50.4963C391.246 50.7143 390.969 50.8703 390.667 50.949C390.52 50.9838 390.367 50.9858 390.22 50.9548C390.072 50.9238 389.933 50.8606 389.813 50.7697L387.079 48.8307C386.819 48.643 386.641 48.3612 386.584 48.0449C386.551 47.8957 386.554 47.741 386.591 47.5928C386.628 47.4446 386.699 47.307 386.798 47.1907C387.433 46.3572 388.233 45.6625 389.146 45.1493C389.969 44.6983 390.848 44.3593 391.76 44.1414C392.635 43.9298 393.527 43.7927 394.425 43.7314C395.279 43.6801 396.134 43.6118 396.919 43.5349C397.625 43.4741 398.321 43.3336 398.995 43.1164C399.582 42.9375 400.093 42.5678 400.447 42.0657C400.765 41.6308 400.971 41.1248 401.048 40.5919C401.126 40.0589 401.072 39.5152 400.891 39.0078C400.446 37.749 399.592 36.6755 398.465 35.9585C396.432 34.5064 394.212 34.458 391.803 35.8133C391.56 35.9685 391.291 36.0784 391.009 36.1379C390.862 36.1483 390.715 36.1295 390.575 36.0826C390.436 36.0356 390.308 35.9615 390.197 35.8645L387.293 33.7974C387.081 33.6536 386.934 33.433 386.883 33.1825C386.858 33.0543 386.861 32.9223 386.892 32.7955C386.923 32.6688 386.981 32.5502 387.062 32.4479C387.739 31.5742 388.618 30.8792 389.625 30.4235C390.78 29.8891 392.02 29.5624 393.289 29.4583C394.679 29.345 396.077 29.4546 397.432 29.7829C398.903 30.1149 400.294 30.7363 401.523 31.6108Z" fill="white"/>
</g>
<path d="M74.4144 207.95L77.0819 196.504L93.4434 198.342L108.457 200.039L107.492 214.143L89.9859 210.876L74.4144 207.95Z" fill="url(#paint4_linear)"/>
<path d="M78.3776 194.22C79.6315 194.541 75.028 209.818 75.028 209.818C75.028 209.818 63.1245 217.026 58.785 225.853C54.4455 234.68 50.0986 228.136 52.5016 217.777C54.9046 207.418 56.7576 199.529 58.472 192.164C60.1864 184.8 65.3846 190.859 78.3776 194.22Z" fill="#455A64"/>
<path d="M69.1647 217.043C69.0242 217.523 69.0433 218.036 69.2191 218.505C69.3728 218.775 69.6041 218.992 69.8831 219.128C70.162 219.265 70.4756 219.314 70.7829 219.27C71.0206 219.262 71.2542 219.206 71.4693 219.104C71.6843 219.003 71.8763 218.858 72.0332 218.679C72.7252 217.691 73.1311 216.531 73.2063 215.327C73.5991 216.746 74.1476 218.044 74.9584 218.273C75.4809 218.428 76.0035 218.181 76.5044 217.563C76.7304 217.287 76.8929 216.965 76.9805 216.619C77.068 216.273 77.0784 215.912 77.011 215.561C76.6274 213.268 73.3501 211.14 73.1892 211.032C73.1348 211.009 73.0754 211.001 73.017 211.009L72.9309 210.998L72.8104 210.982L72.6741 211.087C71.1748 212.859 69.988 214.873 69.1647 217.043ZM72.2291 216.374C72.1195 217.009 71.855 217.606 71.4591 218.114C71.3824 218.21 71.2857 218.288 71.1757 218.344C71.0657 218.399 70.945 218.43 70.822 218.434C70.1714 218.454 70.0629 218.212 70.0202 218.136C69.5899 217.274 71.108 214.633 72.6034 212.567C72.6105 213.846 72.4851 215.122 72.2291 216.374ZM76.2269 216.335C76.1718 216.584 76.0574 216.815 75.8937 217.01C75.7462 217.201 75.4601 217.514 75.2407 217.451C74.5677 217.24 73.8428 214.745 73.5378 212.251C74.4945 212.972 76.0334 214.33 76.2435 215.671C76.2712 215.893 76.2479 216.118 76.1753 216.328L76.2269 216.335Z" fill="#F4F4F4"/>
<path opacity="0.2" d="M89.6291 210.795L93.1383 198.268L108.305 200.002L107.423 214.135L89.6291 210.795Z" fill="black"/>
<path d="M276.169 135.536C276.169 135.536 236.741 133.052 176.198 193.846L100.818 195.922L94.5314 213.625C94.5314 213.625 165.9 226.184 188.55 221.57C211.2 216.956 259.995 181.354 259.995 181.354L300.357 156.831L276.169 135.536Z" fill="#407BFF"/>
<path opacity="0.6" d="M94.5304 213.625C94.5304 213.625 165.899 226.184 188.549 221.57C211.199 216.956 259.994 181.354 259.994 181.354L300.356 156.831L276.161 135.587C276.161 135.587 245.642 133.671 197.078 174.613C192.453 178.513 187.659 182.777 182.718 187.494C180.581 189.552 178.405 191.687 176.19 193.898L100.81 195.974L94.5304 213.625Z" fill="url(#paint5_linear)"/>
<path opacity="0.2" d="M179.71 191.314C200.433 194.99 228.877 194.003 263.613 178.075L219.13 165.202L203.015 167.341C195.463 174.533 187.674 182.475 179.71 191.314Z" fill="black"/>
<path d="M102.764 194.967L95.9183 215.611L91.8421 214.641L98.5703 195.296L102.764 194.967Z" fill="#F4F4F4"/>
<path d="M39.9212 123.798L47.0592 114.46L61.2132 122.88L74.1949 130.62L67.5092 143.066L52.9041 132.87L39.9212 123.798Z" fill="url(#paint6_linear)"/>
<path d="M49.1864 112.915C50.1857 113.711 39.7245 125.699 39.7245 125.699C39.7245 125.699 25.8613 127.395 18.3076 133.611C10.7539 139.828 9.45044 132.104 15.9116 123.66C22.3727 115.215 27.3106 108.78 31.8951 102.771C36.4796 96.763 38.7113 104.485 49.1864 112.915Z" fill="#455A64"/>
<path d="M31.3992 129.922C31.0639 130.293 30.8659 130.768 30.8381 131.268C30.8708 131.578 30.995 131.87 31.1947 132.108C31.3945 132.347 31.6607 132.52 31.9594 132.606C32.1779 132.694 32.4121 132.737 32.6476 132.731C32.8831 132.726 33.1151 132.673 33.3294 132.575C34.3769 131.958 35.2332 131.063 35.8035 129.989C35.6146 131.436 35.5357 132.845 36.1832 133.385C36.5904 133.754 37.1698 133.742 37.9343 133.386C38.2477 133.226 38.5245 133.003 38.747 132.73C38.9695 132.458 39.1329 132.142 39.2268 131.802C39.8186 129.549 37.7111 126.242 37.5936 126.069L37.4693 125.948L37.3488 125.932L37.2111 125.914L37.0561 125.894C34.9485 126.893 33.0335 128.257 31.3992 129.922ZM34.4199 130.527C34.0573 131.061 33.5736 131.502 33.0084 131.814C32.8959 131.867 32.7738 131.894 32.6499 131.896C32.5259 131.898 32.403 131.874 32.289 131.826C31.6916 131.572 31.6886 131.327 31.6826 131.238C31.6514 130.27 34.1081 128.488 36.3229 127.217C35.7989 128.383 35.1553 129.491 34.4027 130.524L34.4199 130.527ZM38.079 132.143C37.9252 132.35 37.7231 132.516 37.4905 132.627C37.2831 132.74 36.8945 132.9 36.7208 132.755C36.1871 132.282 36.5912 129.723 37.3089 127.311C38.1076 128.574 38.4785 130.06 38.3666 131.55C38.3094 131.764 38.2118 131.966 38.079 132.143Z" fill="#F4F4F4"/>
<path opacity="0.2" d="M52.6187 132.641L60.96 122.671L74.0682 130.516L67.4446 143.023L52.6187 132.641Z" fill="black"/>
<path d="M328.979 136.927C328.979 136.927 327.011 168.495 328.961 170.467C330.91 172.438 364.278 203.502 364.278 203.502C364.278 203.502 376.718 207.211 380.496 209.79C384.275 212.369 379.204 224.518 376.933 225.956C374.661 227.394 358.116 216.227 358.116 216.227L356.269 211.867C356.269 211.867 319.36 183.776 315.906 181.258C312.453 178.739 308.506 141.895 308.506 141.895L328.979 136.927Z" fill="url(#paint7_linear)"/>
<path d="M325.288 119.043C336.808 124.701 330.992 154.101 330.992 154.101L308.413 158.164L304.862 148.342L325.288 119.043Z" fill="url(#paint8_linear)"/>
<path d="M253.57 140.962C253.57 140.962 218.642 122.383 138.464 152.889L68.9154 123.709L55.9041 137.257C55.9041 137.257 115.75 178.121 138.3 183.256C160.851 188.39 219.953 176.057 219.953 176.057L266.85 170.297L253.57 140.962Z" fill="#407BFF"/>
<path opacity="0.6" d="M253.57 140.962C253.57 140.962 218.642 122.383 138.464 152.889L68.9154 123.709L55.9041 137.257C55.9041 137.257 115.75 178.121 138.3 183.256C160.851 188.39 219.953 176.057 219.953 176.057L266.85 170.297L253.57 140.962Z" fill="url(#paint9_linear)"/>
<path d="M72.3574 123.229L68.0528 122.668L53.6877 137.195L57.6639 140.273L72.3574 123.229Z" fill="#F4F4F4"/>
<path d="M321.8 55.621C321.8 55.621 304.034 45.889 288.736 56.5623C279.106 63.2614 256.451 79.5812 246.74 71.7416C237.028 63.9021 220.796 55.8422 211.879 62.8447C211.879 62.8447 224.922 63.6712 230.726 69.6512C230.726 69.6512 218.917 64.6046 214.041 67.4731C209.166 70.3417 202.548 67.918 202.548 67.918C202.548 67.918 194.481 85.4412 224.294 91.5586C224.294 91.5586 208.39 92.6544 201.97 85.6301C201.97 85.6301 198.222 98.3721 232.783 107.02C267.344 115.667 298.687 113.678 307.233 104.156C315.779 94.6337 321.8 55.621 321.8 55.621Z" fill="#313131"/>
<path d="M218.988 132.207C218.988 132.207 221.201 168.246 247.291 177.12C251.404 178.578 255.755 179.247 260.115 179.092C268.536 178.599 276.417 174.781 282.026 168.476C283.703 166.728 285.183 164.799 286.436 162.725L250.13 137.937L247.141 135.882C242.236 134.185 237.211 132.861 232.107 131.922C227.175 131.068 222.115 130.792 218.988 132.207Z" fill="url(#paint10_linear)"/>
<path opacity="0.2" d="M239.854 158.028C246.488 167.306 252.892 174.328 260.115 179.092C268.536 178.599 276.417 174.781 282.025 168.475C271.959 157.72 261.312 147.525 250.13 137.937L247.141 135.882C242.236 134.185 237.211 132.861 232.107 131.922C229.728 136.728 230.612 145.115 239.854 158.028Z" fill="black"/>
<path d="M325.288 119.043C302.826 108.145 277.894 103.35 252.993 105.137C252.993 105.137 236.981 125.303 230.663 142.038C230.663 142.038 247.351 175.183 275.758 177.98C304.165 180.777 325.288 119.043 325.288 119.043Z" fill="url(#paint11_linear)"/>
<path d="M332.42 86.5544C332.42 86.5544 339.521 48.9269 305.178 53.7669C262.011 59.8032 280.202 113.087 301.576 109.131C322.949 105.174 332.42 86.5544 332.42 86.5544Z" fill="#313131"/>
<path d="M274.748 109.782C274.748 109.782 279.546 131.788 292.844 132.14C296.351 132.218 299.817 131.367 302.889 129.672C305.962 127.977 308.532 125.499 310.338 122.489C310.71 121.912 311.046 121.312 311.343 120.692C311.343 120.692 304.955 117.843 309.934 112.57L295.251 97.7374C295.039 99.495 294.724 101.239 294.307 102.959C293.523 106.011 292.245 109.367 290.201 109.994C286.264 111.18 274.748 109.782 274.748 109.782Z" fill="url(#paint12_linear)"/>
<path opacity="0.2" d="M294.239 102.95C294.59 110.585 297.205 122.615 310.269 122.48C310.642 121.903 310.977 121.303 311.274 120.684C311.274 120.684 304.887 117.835 309.866 112.561L295.183 97.7286C294.971 99.4862 294.655 101.23 294.239 102.95Z" fill="black"/>
<path d="M313.097 64.3344C327.879 65.125 332.223 73.2978 332.485 88.5961C332.825 107.725 327.884 121.03 309.647 115.985C284.825 109.065 288.565 62.9721 313.097 64.3344Z" fill="url(#paint13_linear)"/>
<path d="M322.982 87.2149C324.048 89.4875 325.386 91.6218 326.968 93.5709C326.501 94.1594 325.882 94.6083 325.178 94.8687C324.474 95.129 323.712 95.1909 322.975 95.0475L322.982 87.2149Z" fill="#D4827D"/>
<path d="M314.014 85.4838C313.977 86.7057 313.291 87.6677 312.471 87.6482C311.65 87.6287 311.029 86.6188 311.014 85.3901C311 84.1615 311.737 83.2063 312.558 83.2258C313.378 83.2453 314.047 84.2964 314.014 85.4838Z" fill="#263238"/>
<path d="M312.264 83.3277L314.93 82.3613C314.93 82.3613 313.593 84.5527 312.264 83.3277Z" fill="#263238"/>
<path d="M329.202 85.7134C329.167 86.9181 328.479 87.8972 327.661 87.8605C326.842 87.8238 326.219 86.8311 326.202 85.6197C326.185 84.4083 326.925 83.4359 327.745 83.4554C328.566 83.4748 329.167 84.4997 329.202 85.7134Z" fill="#263238"/>
<path d="M327.388 83.5136L330.051 82.5645C330.051 82.5645 328.68 84.7513 327.388 83.5136Z" fill="#263238"/>
<path d="M314.397 75.299C313.236 75.0928 312.042 75.1568 310.909 75.4859C309.776 75.8151 308.734 76.4007 307.863 77.1974" stroke="#263238" stroke-width="0.72" stroke-linecap="round" stroke-linejoin="round"/>
<path d="M325.173 75.2511C326.195 75.0499 327.25 75.0815 328.258 75.3436C329.267 75.6057 330.204 76.0916 330.999 76.7652" stroke="#263238" stroke-width="0.72" stroke-linecap="round" stroke-linejoin="round"/>
<path d="M295.587 88.3351C295.587 88.3351 303.15 76.5469 302.612 67.1184C302.612 67.1184 332.536 56.6895 332.388 86.5323C332.388 86.5323 336.675 60.2616 311.292 58.3149C285.908 56.3682 281.093 93.1199 293.634 104.904C293.667 104.926 290.946 95.7205 295.587 88.3351Z" fill="#313131"/>
<path d="M297.873 91.613C297.851 90.7601 297.66 89.9201 297.312 89.1413C296.964 88.3624 296.466 87.6601 295.846 87.0744C295.226 86.4888 294.496 86.0314 293.699 85.7285C292.902 85.4255 292.053 85.2831 291.201 85.3093C286.597 85.5669 283.911 94.8725 295.184 97.7285C296.812 98.1338 297.82 96.583 297.873 91.613Z" fill="#EEC1BB"/>
<path d="M323.997 101.034C323.154 102.636 322.434 104.3 321.841 106.01L320.877 105.884C316.621 105.083 314.921 103.354 314.319 101.523C314.047 100.672 313.979 99.7687 314.121 98.8862C314.183 98.3844 314.317 97.8943 314.521 97.4313C316.93 99.0913 319.668 100.214 322.549 100.723C323.431 100.943 323.997 101.034 323.997 101.034Z" fill="#263238"/>
<path d="M322.55 100.722L321.87 102.176C317.872 101.408 315.106 100.329 314.121 98.8858C314.183 98.384 314.318 97.8939 314.521 97.4309C316.931 99.0909 319.669 100.213 322.55 100.722Z" fill="white"/>
<path d="M320.884 105.833C316.628 105.032 314.928 103.303 314.326 101.472C315.941 101.807 317.485 102.423 318.886 103.294C319.804 103.907 320.504 104.796 320.884 105.833Z" fill="#DE5753"/>
<path d="M312.749 65.3935C312.749 65.3935 305.499 89.4024 290.2 88.2814C274.901 87.1604 300.177 57.6011 300.177 57.6011C300.177 57.6011 325.666 49.4849 337.295 63.428C348.924 77.3711 332.419 86.5551 332.419 86.5551C332.419 86.5551 334.385 67.7447 312.749 65.3935Z" fill="#313131"/>
<path d="M232.625 107.823C232.625 107.823 198.61 111.093 192.394 111.894C186.177 112.695 141.153 125.446 141.153 125.446C141.153 125.446 126.67 117.667 124.708 119.146C122.746 120.625 117.814 128.761 117.916 130.93C118.018 133.099 138.933 140.035 140.076 139.465C141.763 138.187 143.347 136.776 144.812 135.247C144.812 135.247 189.037 125.931 197.224 125.195C205.411 124.459 232.77 125.629 232.77 125.629L232.625 107.823Z" fill="url(#paint14_linear)"/>
<path d="M252.992 105.137C252.992 105.137 250.185 126.641 236.383 132.428L213.802 127.394L210.246 107.145C210.246 107.145 232.396 102.869 252.992 105.137Z" fill="url(#paint15_linear)"/>
<path d="M431.663 215.675C431.664 210.899 433.486 206.303 436.758 202.822C440.03 199.342 444.505 197.239 449.273 196.943C454.041 196.647 458.743 198.178 462.421 201.227C466.098 204.275 468.476 208.61 469.068 213.35C469.531 217.058 468.876 220.821 467.188 224.154C465.283 227.922 462.163 230.938 458.332 232.714C454.501 234.49 450.184 234.923 446.076 233.943C441.969 232.963 438.313 230.626 435.697 227.312C433.082 223.997 431.661 219.897 431.663 215.675Z" fill="url(#paint16_linear)"/>
<path d="M130.919 550.031C130.92 545.335 132.711 540.817 135.927 537.395C139.144 533.974 143.543 531.907 148.23 531.616C152.918 531.324 157.539 532.83 161.155 535.827C164.77 538.824 167.107 543.086 167.69 547.745C168.145 551.39 167.501 555.089 165.841 558.366C163.968 562.07 160.901 565.035 157.136 566.781C153.37 568.527 149.125 568.953 145.088 567.989C141.05 567.025 137.455 564.729 134.884 561.47C132.314 558.211 130.916 554.181 130.919 550.031Z" fill="url(#paint17_linear)"/>
<path d="M21.0046 434.012C21.0068 422.812 25.2787 412.035 32.9502 403.874C40.6217 395.714 51.1158 390.784 62.2954 390.089C73.475 389.394 84.4991 392.986 93.1226 400.133C101.746 407.281 107.32 417.446 108.71 428.559C109.795 437.255 108.26 446.076 104.3 453.893C99.8336 462.728 92.5181 469.799 83.536 473.964C74.5539 478.129 64.4297 479.144 54.7993 476.845C45.169 474.546 36.595 469.068 30.4628 461.296C24.3306 453.524 20.9984 443.911 21.0046 434.012Z" fill="url(#paint18_linear)"/>
<defs>
<filter id="filter0_f" x="74.666" y="165.667" width="448.82" height="448.82" filterUnits="userSpaceOnUse" color-interpolation-filters="sRGB">
<feFlood flood-opacity="0" result="BackgroundImageFix"/>
<feBlend mode="normal" in="SourceGraphic" in2="BackgroundImageFix" result="shape"/>
<feGaussianBlur stdDeviation="35" result="effect1_foregroundBlur"/>
</filter>
<linearGradient id="paint0_linear" x1="365.92" y1="501.039" x2="219.531" y2="235.667" gradientUnits="userSpaceOnUse">
<stop stop-color="#5FA8ED"/>
<stop offset="1" stop-color="#7ED5B7"/>
</linearGradient>
<linearGradient id="paint1_linear" x1="351.726" y1="477.472" x2="236.424" y2="268.454" gradientUnits="userSpaceOnUse">
<stop stop-color="#5FA8ED"/>
<stop offset="1" stop-color="#7ED5B7"/>
</linearGradient>
<linearGradient id="paint2_linear" x1="345.282" y1="499.993" x2="326.794" y2="411.052" gradientUnits="userSpaceOnUse">
<stop stop-color="#5FA8ED"/>
<stop offset="1" stop-color="#7ED5B7"/>
</linearGradient>
<linearGradient id="paint3_linear" x1="352.381" y1="359.982" x2="324.549" y2="247.451" gradientUnits="userSpaceOnUse">
<stop stop-color="#5FA8ED"/>
<stop offset="1" stop-color="#7ED5B7"/>
</linearGradient>
<linearGradient id="paint4_linear" x1="62.0505" y1="206.503" x2="75.6163" y2="187.763" gradientUnits="userSpaceOnUse">
<stop stop-color="#F7A491"/>
<stop offset="1" stop-color="#FFE8E5"/>
</linearGradient>
<linearGradient id="paint5_linear" x1="199" y1="181.999" x2="192" y2="230.499" gradientUnits="userSpaceOnUse">
<stop stop-color="#262859"/>
<stop offset="1" stop-color="#262859" stop-opacity="0"/>
</linearGradient>
<linearGradient id="paint6_linear" x1="25.5018" y1="134.469" x2="52.5101" y2="112.625" gradientUnits="userSpaceOnUse">
<stop stop-color="#F7A491"/>
<stop offset="1" stop-color="#FFE8E5"/>
</linearGradient>
<linearGradient id="paint7_linear" x1="275.239" y1="204.534" x2="338.749" y2="164.813" gradientUnits="userSpaceOnUse">
<stop stop-color="#F7A491"/>
<stop offset="1" stop-color="#FFE8E5"/>
</linearGradient>
<linearGradient id="paint8_linear" x1="327.238" y1="125.112" x2="301.32" y2="148.768" gradientUnits="userSpaceOnUse">
<stop stop-color="#EF8197"/>
<stop offset="0.942708" stop-color="#F7C58F"/>
</linearGradient>
<linearGradient id="paint9_linear" x1="156" y1="143.999" x2="161" y2="182.999" gradientUnits="userSpaceOnUse">
<stop stop-color="#262859"/>
<stop offset="1" stop-color="#262859" stop-opacity="0"/>
</linearGradient>
<linearGradient id="paint10_linear" x1="268.776" y1="142.853" x2="248.3" y2="184.425" gradientUnits="userSpaceOnUse">
<stop stop-color="#EF8197"/>
<stop offset="0.942708" stop-color="#F7C58F"/>
</linearGradient>
<linearGradient id="paint11_linear" x1="299.375" y1="118.531" x2="261.098" y2="181.975" gradientUnits="userSpaceOnUse">
<stop stop-color="#EF8197"/>
<stop offset="0.942708" stop-color="#F7C58F"/>
</linearGradient>
<linearGradient id="paint12_linear" x1="308.113" y1="98.7275" x2="282.007" y2="121.814" gradientUnits="userSpaceOnUse">
<stop stop-color="#F7A491"/>
<stop offset="1" stop-color="#FFE8E5"/>
</linearGradient>
<linearGradient id="paint13_linear" x1="275.289" y1="105.52" x2="321.174" y2="85.4932" gradientUnits="userSpaceOnUse">
<stop stop-color="#F7A491"/>
<stop offset="1" stop-color="#FFE8E5"/>
</linearGradient>
<linearGradient id="paint14_linear" x1="235.15" y1="115.141" x2="223.034" y2="136.235" gradientUnits="userSpaceOnUse">
<stop stop-color="#F7A491"/>
<stop offset="1" stop-color="#FFE8E5"/>
</linearGradient>
<linearGradient id="paint15_linear" x1="240.616" y1="107.666" x2="226.086" y2="134.572" gradientUnits="userSpaceOnUse">
<stop stop-color="#EF8197"/>
<stop offset="0.942708" stop-color="#F7C58F"/>
</linearGradient>
<linearGradient id="paint16_linear" x1="458.566" y1="229.173" x2="440.766" y2="196.907" gradientUnits="userSpaceOnUse">
<stop stop-color="#8177F7"/>
<stop offset="1" stop-color="#799FF8"/>
</linearGradient>
<linearGradient id="paint17_linear" x1="143.456" y1="586.111" x2="143.456" y2="531.58" gradientUnits="userSpaceOnUse">
<stop offset="0.169841" stop-color="#EA5AB1"/>
<stop offset="0.942708" stop-color="#F9E1C5"/>
</linearGradient>
<linearGradient id="paint18_linear" x1="84.0839" y1="465.661" x2="42.3488" y2="390.004" gradientUnits="userSpaceOnUse">
<stop stop-color="#73BCF9"/>
<stop offset="1" stop-color="#7A96F8"/>
</linearGradient>
</defs>
</svg>
