<svg width="39" height="39" viewBox="0 0 39 39" fill="none" xmlns="http://www.w3.org/2000/svg">
<path d="M0.663477 19.6755C0.664411 14.899 2.4863 10.3026 5.75807 6.8222C9.02984 3.34184 13.5054 1.23936 18.2733 0.942945C23.0412 0.646528 27.7428 2.17846 31.4206 5.22677C35.0984 8.27507 37.4757 12.6105 38.0684 17.35C38.5312 21.0584 37.8764 24.8205 36.1877 28.1545C34.2827 31.9224 31.1628 34.9381 27.3321 36.7143C23.5014 38.4905 19.1836 38.9234 15.0764 37.9431C10.9692 36.9628 7.31255 34.6265 4.69727 31.3118C2.08199 27.997 0.660845 23.8975 0.663477 19.6755Z" fill="url(#paint0_linear)"/>
<defs>
<linearGradient id="paint0_linear" x1="27.5658" y1="33.1731" x2="9.76643" y2="0.906696" gradientUnits="userSpaceOnUse">
<stop stop-color="#8177F7"/>
<stop offset="1" stop-color="#799FF8"/>
</linearGradient>
</defs>
</svg>
