<svg width="89" height="89" viewBox="0 0 89 89" fill="none" xmlns="http://www.w3.org/2000/svg">
<path d="M0.00458142 44.0119C0.0067777 32.8123 4.27865 22.0347 11.9502 13.8741C19.6217 5.71353 30.1158 0.783719 41.2954 0.0886958C52.475 -0.606335 63.4991 2.98569 72.1226 10.1332C80.746 17.2808 86.3203 27.4462 87.71 38.5593C88.7952 47.2546 87.2598 56.0758 83.3003 63.8932C78.8336 72.7281 71.5181 79.7992 62.536 83.9639C53.5539 88.1286 43.4297 89.1437 33.7993 86.8451C24.169 84.5465 15.595 79.0685 9.46284 71.2962C3.33065 63.524 -0.00158227 53.9115 0.00458142 44.0119Z" fill="url(#paint0_linear)"/>
<defs>
<linearGradient id="paint0_linear" x1="63.0839" y1="75.6607" x2="21.3488" y2="0.00371882" gradientUnits="userSpaceOnUse">
<stop stop-color="#73BCF9"/>
<stop offset="1" stop-color="#7A96F8"/>
</linearGradient>
</defs>
</svg>
