<svg width="59" height="59" viewBox="0 0 59 59" fill="none" xmlns="http://www.w3.org/2000/svg">
<path d="M10.6635 30.6755C10.6644 25.899 12.4863 21.3026 15.7581 17.8222C19.0298 14.3418 23.5054 12.2394 28.2733 11.9429C33.0412 11.6465 37.7428 13.1785 41.4206 16.2268C45.0984 19.2751 47.4757 23.6105 48.0684 28.35C48.5312 32.0584 47.8764 35.8205 46.1877 39.1545C44.2827 42.9224 41.1628 45.9381 37.3321 47.7143C33.5014 49.4905 29.1836 49.9234 25.0764 48.9431C20.9692 47.9628 17.3125 45.6265 14.6973 42.3118C12.082 38.997 10.6608 34.8975 10.6635 30.6755Z" fill="url(#paint0_linear)"/>
<defs>
<linearGradient id="paint0_linear" x1="37.5658" y1="44.1731" x2="19.7664" y2="11.9067" gradientUnits="userSpaceOnUse">
<stop stop-color="#8177F7"/>
<stop offset="1" stop-color="#799FF8"/>
</linearGradient>
</defs>
</svg>
