<svg width="58" height="58" viewBox="0 0 58 58" fill="none" xmlns="http://www.w3.org/2000/svg">
<path d="M9.91905 29.0309C9.91997 24.3354 11.711 19.8168 14.9273 16.3955C18.1436 12.9741 22.5433 10.9073 27.2304 10.6159C31.9175 10.3245 36.5394 11.8305 40.1549 14.8271C43.7703 17.8237 46.1073 22.0857 46.69 26.7449C47.145 30.3904 46.5012 34.0887 44.8412 37.3662C42.9685 41.0703 39.9015 44.0349 36.1357 45.7809C32.3698 47.527 28.1252 47.9526 24.0877 46.9889C20.0501 46.0252 16.4554 43.7285 13.8845 40.47C11.3135 37.2114 9.91646 33.1813 9.91905 29.0309Z" fill="url(#paint0_linear)"/>
<defs>
<linearGradient id="paint0_linear" x1="22.4555" y1="65.1107" x2="22.4555" y2="10.5803" gradientUnits="userSpaceOnUse">
<stop offset="0.169841" stop-color="#EA5AB1"/>
<stop offset="0.942708" stop-color="#F9E1C5"/>
</linearGradient>
</defs>
</svg>
