<svg width="107" height="107" viewBox="0 0 107 107" fill="none" xmlns="http://www.w3.org/2000/svg">
<path d="M0.927402 53.5155C0.930025 40.133 6.03455 27.2547 15.2014 17.5034C24.3682 7.75223 36.9078 1.86153 50.2664 1.03103C63.625 0.200535 76.798 4.49269 87.1023 13.0334C97.4066 21.5741 104.067 33.721 105.728 47.0001C107.025 57.3902 105.19 67.9309 100.459 77.272C95.1214 87.829 86.38 96.2783 75.6471 101.255C64.9142 106.231 52.8167 107.444 41.3093 104.698C29.8018 101.951 19.5567 95.4051 12.2292 86.118C4.90177 76.8308 0.920033 65.3447 0.927402 53.5155Z" fill="url(#paint0_linear)"/>
<defs>
<linearGradient id="paint0_linear" x1="76.3018" y1="91.3332" x2="26.4319" y2="0.929485" gradientUnits="userSpaceOnUse">
<stop stop-color="#73BCF9"/>
<stop offset="1" stop-color="#7A96F8"/>
</linearGradient>
</defs>
</svg>
