<svg width="602" height="596" viewBox="0 0 602 596" fill="none" xmlns="http://www.w3.org/2000/svg">
<path d="M340.747 544.796C340.748 539.534 342.755 534.47 346.36 530.636C349.964 526.802 354.895 524.485 360.148 524.159C365.401 523.832 370.58 525.52 374.632 528.878C378.684 532.237 381.303 537.013 381.956 542.234C382.466 546.32 381.744 550.465 379.884 554.138C377.785 558.289 374.348 561.611 370.128 563.568C365.908 565.525 361.151 566.002 356.626 564.922C352.101 563.842 348.072 561.268 345.191 557.616C342.31 553.964 340.744 549.448 340.747 544.796Z" fill="url(#paint0_linear)"/>
<path d="M16.4481 152.313C16.4495 144.946 19.2596 137.857 24.3058 132.489C29.3521 127.121 36.2552 123.878 43.609 123.421C50.9629 122.963 58.2145 125.326 63.887 130.028C69.5595 134.729 73.2262 141.416 74.1404 148.726C74.8543 154.446 73.8442 160.249 71.2397 165.391C68.3015 171.203 63.4895 175.854 57.581 178.593C51.6726 181.333 45.013 182.001 38.6782 180.489C32.3434 178.977 26.7034 175.373 22.6697 170.261C18.636 165.148 16.444 158.825 16.4481 152.313Z" fill="url(#paint1_linear)"/>
<path d="M58.9997 365.663C59.0064 331.4 72.0755 298.428 95.5451 273.462C119.015 248.496 151.12 233.414 185.322 231.288C219.524 229.162 253.25 240.151 279.632 262.017C306.014 283.884 323.067 314.983 327.319 348.982C330.639 375.583 325.941 402.57 313.828 426.486C300.163 453.515 277.783 475.148 250.303 487.889C222.824 500.63 191.851 503.736 162.389 496.704C132.926 489.671 106.696 472.912 87.9356 449.135C69.1752 425.357 58.9809 395.949 58.9997 365.663Z" fill="url(#paint2_linear)"/>
<path d="M70.5515 420.32C135.646 453.724 157.965 439.715 227.513 414.93C267.262 400.751 296.275 413.207 313.824 426.484C302.314 449.212 284.593 468.21 262.718 481.272C240.842 494.335 215.711 500.926 190.239 500.281C164.768 499.635 140.003 491.78 118.817 477.626C97.6318 463.473 80.8956 443.602 70.5515 420.32Z" fill="url(#paint3_linear)"/>
<path d="M64.1749 328.468C72.752 298.65 91.3617 272.706 116.859 255.021C142.357 237.337 173.179 228.996 204.116 231.408C235.054 233.819 264.21 246.836 286.658 268.259C309.106 289.681 323.469 318.195 327.32 348.983C315.477 337.814 301.462 329.201 286.148 323.679C270.833 318.158 254.546 315.845 238.3 316.885C167.511 321.047 113.106 371.054 64.1749 328.468Z" fill="url(#paint4_linear)"/>
<path d="M336.144 136.932C329.304 142.465 319.085 152.253 313.42 156.334L298.136 143.643L285.266 129.714L280.347 138.496C280.347 138.496 294.745 159.76 298.136 163.62C302.156 168.242 305.004 172.257 309.134 175.613C312.263 178.136 316.759 176.152 321.543 173.322C328.35 169.328 347.366 155.922 347.366 155.922L361.332 129.714C352.295 127.106 343.132 131.298 336.144 136.932Z" fill="url(#paint5_linear)"/>
<path d="M282.765 126.143C282.007 124.678 281.209 124.577 280.501 123.228C280.202 122.53 279.792 121.88 279.382 121.23C278.922 120.463 278.4 119.86 277.878 119.258C274.66 115.129 272.311 111.179 268.98 107.098C268.769 106.913 268.67 106.68 268.347 106.543C268.135 106.358 267.75 106.385 267.577 106.597C267.465 106.645 267.453 106.925 267.391 107.09C267.006 108.355 267.218 109.778 267.653 111.106C268.089 112.433 268.698 113.549 269.357 114.781C269.817 115.548 270.214 116.479 270.674 117.245C271.433 118.71 272.241 120.291 272.664 121.9C272.701 122.296 272.788 122.81 272.987 123.275C273.087 123.508 273.186 123.74 273.335 124.089C272.49 123.35 271.484 122.541 270.639 121.802C270.217 121.432 269.521 121.041 269.174 121.465C268.888 121.724 268.926 122.121 268.963 122.518C269.262 124.454 270.505 126.125 271.76 127.515C272.592 128.535 273.375 129.439 274.096 130.507C274.606 131.39 275.053 132.438 275.563 133.321C276.52 135.251 277.813 137.038 279.453 138.401C281.217 140.674 284.223 140.903 287.937 142.481L287.311 131.739C285.765 130.507 283.523 127.608 282.765 126.143Z" fill="#FFE8E5"/>
<path d="M362.078 129.855C355.864 126.621 345.562 128.667 336.192 136.684C326.993 144.475 322.051 148.822 322.051 148.822C322.051 148.822 323.654 159.426 333.353 166.023L351.083 155.336L362.078 129.855Z" fill="url(#paint6_linear)"/>
<path d="M490.259 118.013C494.512 111.863 500.768 107.379 507.256 103.711C513.743 100.043 520.611 97.0908 527.122 93.2987C527.714 92.8953 528.429 92.5154 528.695 91.7929C529.272 90.0991 527.346 88.7051 525.807 88.6719C524.789 88.6083 523.848 88.8169 522.854 88.629C521.983 88.4645 521.207 87.8028 520.236 87.4905C518.589 86.6643 516.653 86.685 514.913 86.3561C513.024 86.1281 511.377 85.3019 509.418 85.4469C504.458 85.7977 500.76 90.3788 495.878 91.0017C492.309 91.4865 488.518 89.7402 485.057 91.018C481.721 92.3193 480.122 96.0094 479.317 99.5917C478.8 102.327 478.821 104.263 477.807 106.904C476.816 109.421 473.162 115.814 466.262 125.07C466.867 125.957 481.941 136.145 482.495 134.575C484.265 130.66 488.11 121.213 490.259 118.013Z" fill="url(#paint7_linear)"/>
<path d="M541.407 173.778C547.996 170.258 556.968 169.12 564.485 168.866C572.002 168.612 579.378 169.104 586.918 168.726C587.688 168.742 588.481 168.634 588.971 168.083C590.372 166.803 589.085 164.756 587.811 164.001C586.988 163.588 586.016 163.275 585.24 162.614C584.588 161.975 584.107 161.112 583.478 160.349C582.346 158.847 580.722 157.897 579.247 156.845C577.647 155.771 576.514 154.269 574.743 153.419C570.206 151.532 564.746 153.848 560.162 152.21C556.798 150.93 554.207 147.608 550.678 147.199C547.15 146.79 543.951 149.405 541.748 152.208C540.058 154.335 539.185 156.231 537.045 158.016C535.029 159.824 528.844 163.936 518.374 168.912C518.435 169.953 527.021 183.809 527.021 183.809C530.119 181.046 537.953 175.701 541.407 173.778Z" fill="url(#paint8_linear)"/>
<path d="M453.959 179.278C462.622 177.051 465.4 174.615 467.247 170.971C471.012 163.312 479.27 144.139 487.857 123.226C485.297 125.189 472.012 119.846 472.055 116.892C457.483 137.448 451.436 142.873 448.053 156.013C438.429 156.513 420.673 157.794 414.967 158.004C399.513 158.69 386.713 168.506 380.438 175.82L392.718 193.979C409.088 188.444 445.297 181.505 453.959 179.278Z" fill="url(#paint9_linear)"/>
<path opacity="0.15" d="M455.766 164.94C455.766 164.94 457.169 156.834 449.271 151.608C448.74 153.053 448.334 154.521 447.904 156.114C454.421 159.792 455.766 164.94 455.766 164.94Z" fill="black"/>
<path d="M478.463 189.316C478.463 189.316 454.089 182.007 440.468 177.759C427.289 163.68 406.643 163.9 404.829 166.004L411.601 209.908C438.71 212.969 466.921 217.011 481.326 215.74C495.389 214.92 533.697 179.146 533.697 179.146C534.517 176.854 527.837 167.222 523.035 166.057C507.385 173.918 485.302 179.018 478.463 189.316Z" fill="url(#paint10_linear)"/>
<path opacity="0.3" d="M478.463 189.316C478.463 189.316 454.089 182.007 440.468 177.759C427.289 163.68 406.643 163.9 404.829 166.004L411.601 209.908C438.71 212.969 466.921 217.011 481.326 215.74C495.389 214.92 533.697 179.146 533.697 179.146C534.517 176.854 527.837 167.222 523.035 166.057C507.385 173.918 485.302 179.018 478.463 189.316Z" fill="white"/>
<path opacity="0.15" d="M480.962 186.311C479.857 187.39 479.219 188.042 478.338 189.292C482.657 191.653 485.495 197.083 485.724 199.959C485.848 199.983 487.715 193.51 480.962 186.311Z" fill="black"/>
<path d="M371.632 134.493C379.43 139.572 382.848 141.248 386.451 143.989C390.605 147.221 391.385 150.588 393.5 155.752C395.897 159.424 398.623 161.355 400.434 161.311C403.465 161.626 413.911 168.364 417.54 180.511C421.3 193.326 417.949 204.927 412.726 210.765C406.22 210.438 394.257 210.367 376.752 204.871C366.193 201.459 356.97 193.021 351.39 186.429C343.296 176.787 339.509 166.156 339.449 153.525C339.239 136.229 350.19 120.527 371.632 134.493Z" fill="url(#paint11_linear)"/>
<path d="M330.79 107.332C331.348 108.468 332.76 110.538 333.809 111.122C335.432 112.073 336.678 110.248 338.382 109.41C339.517 108.852 340.475 107.874 340.958 106.678C341.442 105.481 341.428 104.191 341.686 102.823C341.851 101.953 341.642 101.012 341.41 100.196C340.97 98.4382 340.132 96.7348 338.852 95.3338C338.324 94.719 337.648 94.2051 336.825 93.792C336.227 93.5502 335.83 93.6041 335.239 94.0074C334.009 95.0629 333.23 96.461 332.8 98.0539C332.3 100.02 332.422 102.103 332.839 103.985C332.234 103.098 331.73 102.359 331.125 101.472C331.024 101.324 331.024 101.324 330.923 101.176C330.698 101.005 330.55 101.106 330.379 101.331C330.207 101.556 330.184 101.68 330.137 101.929C329.825 102.9 329.573 104.913 330.79 107.332Z" fill="#263238"/>
<path d="M368.083 127.384L370.277 137.585C370.856 140.656 368.952 145.963 361.348 147.359C356.294 148.207 353.679 145.009 353.679 145.009L350.703 138.266L368.083 127.384Z" fill="url(#paint12_linear)"/>
<path d="M374.241 120.691C374.241 120.691 372.501 125.128 371.255 126.953C369.152 129.903 365.601 129.619 365.601 129.619L366.301 123.184L374.241 120.691Z" fill="#263238"/>
<path d="M373.13 102.71C373.13 102.71 375.983 102.605 377.97 105.041C379.832 107.453 377.794 114.151 374.264 120.567L369.251 120.521L373.13 102.71Z" fill="#263238"/>
<path d="M373.099 125.37C372.803 125.571 372.407 125.625 372.135 125.702C370.797 125.965 369.779 125.901 368.909 125.737C366.422 125.267 366.176 123.16 366.176 123.16L365.687 128.476L364.37 142.264C363.624 142.123 363.026 141.882 362.427 141.64C360.384 140.867 358.489 139.994 357.091 139.215C355.444 138.389 354.419 137.68 354.419 137.68C351.075 138.336 347.406 138.673 347.157 138.626C347.157 138.626 342.245 138.728 339.906 138.158C335.997 137.033 333.382 133.835 332.789 129.473C331.695 122.312 332.154 116.475 335.437 103.188C339.103 88.556 356.248 90.5072 364.835 97.5382C373.423 104.569 367.841 116.392 367.841 116.392C368.838 114.52 369.446 113.347 370.824 112.191C372.201 111.035 376.842 111.01 378.328 115.412C379.737 119.541 376.163 124.146 373.099 125.37Z" fill="url(#paint13_linear)"/>
<path d="M359.275 104.472C358.389 109.842 362.251 111.215 363.766 111.373C362.977 114.185 362.766 115.304 363.035 117.287C363.227 118.997 364.196 121.369 366 120.68C366.568 120.401 366.786 119.927 366.904 119.305C367.169 118.583 367.404 117.34 367.817 116.516C370.131 112.446 371.539 111.811 373.226 111.743C373.235 110.328 373.269 108.789 373.255 107.499C373.338 103.651 374.012 99.4004 372.408 95.6205C370.727 91.5683 366.906 89.3011 362.92 87.9043C359.532 86.7492 355.927 86.068 352.492 85.1616C348.685 84.1848 344.917 82.3141 342.45 79.0149C341.946 78.2757 341.317 77.5131 340.4 77.5973C339.482 77.6816 339.046 78.6293 338.781 79.3519C337.672 82.4907 337.31 85.7705 338.215 89.1608C337.641 88.7947 337.291 88.5999 336.864 88.1329C336.236 87.3703 335.708 86.7555 335.079 85.9928C334.878 85.6972 334.551 85.378 334.279 85.4554C333.758 85.4858 333.517 86.084 333.423 86.5813C332.577 91.0575 334.164 95.607 336.561 99.2792C340.02 104.826 347.736 106.928 359.275 104.472Z" fill="#263238"/>
<path d="M373.043 103.853L379.421 101.452C378.731 99.648 376.836 98.7748 375.055 99.3398C373.274 99.9048 372.354 102.049 373.043 103.853Z" fill="#263238"/>
<path d="M364.448 130.946C364.448 130.946 362.833 135.406 360.623 137.564C359.961 138.34 356.756 140.31 351.772 140.785L350.68 138.39L354.272 137.781C355.881 137.441 357.514 136.977 358.525 136.395C360.773 135.403 363.716 132.096 364.448 130.946Z" fill="#B16668"/>
<path d="M349.683 117.082C349.619 118.1 350.224 118.987 351.219 119.175C352.237 119.239 353.124 118.634 353.211 117.491C353.275 116.473 352.67 115.586 351.675 115.398C350.781 115.358 349.871 116.087 349.683 117.082Z" fill="#263238"/>
<path d="M351.727 111.03L355.642 112.8C356.125 111.603 355.591 110.344 354.519 109.883C353.447 109.423 352.187 109.958 351.727 111.03Z" fill="#263238"/>
<path d="M349.894 127.553L343.012 129.215C343.406 131.221 345.255 132.343 347.136 131.925C349.166 131.407 350.288 129.559 349.894 127.553Z" fill="#874C4C"/>
<path d="M349.239 128.974C347.499 128.646 345.872 129.755 345.544 131.496C345.52 131.62 345.497 131.744 345.473 131.869C345.971 131.963 346.592 132.08 347.137 131.925C348.474 131.663 349.455 130.56 349.713 129.193C349.737 129.068 349.488 129.021 349.239 128.974Z" fill="#B16668"/>
<path d="M335.328 109.22L339.535 108.083C339.249 106.87 338.1 106.138 336.863 106.548C335.775 106.857 335.042 108.007 335.328 109.22Z" fill="#263238"/>
<path d="M335.626 113.783C335.563 114.801 336.168 115.688 337.162 115.876C338.181 115.94 339.067 115.334 339.155 114.192C339.218 113.174 338.613 112.287 337.618 112.099C336.724 112.059 335.814 112.788 335.626 113.783Z" fill="#263238"/>
<path d="M344.51 113.787L341.61 125.73L335.746 122.691L344.51 113.787Z" fill="#F8B6A9"/>
<path d="M404.132 203.089C404.027 200.236 401.952 182.588 400.343 171.338C397.701 153.969 397.42 148.636 386.233 144.462C376.472 148.413 379.096 173.376 379.096 173.376L385.553 203.957C382.434 216.374 376.996 236.981 374.94 239.684C370.226 242.141 367.475 247.159 363.998 249.206C360.396 251.23 360.44 253.041 362.181 253.37C364.917 253.887 367.383 252.421 369.802 251.204C370.074 251.127 370.222 251.026 370.47 251.073C370.82 251.268 370.975 251.812 370.32 253.234C368.261 257.996 364.898 261.481 361.529 264.322C361.062 264.749 360.47 265.152 360.104 265.727C359.738 266.301 359.597 267.047 359.876 267.615C360.434 268.751 361.973 268.784 363.163 268.622C369.85 267.31 376.434 261.085 380.422 255.657C385.141 249.08 397.067 224.805 402.652 210.922C404.126 207.208 404.237 205.942 404.132 203.089Z" fill="url(#paint14_linear)"/>
<path d="M385.651 143.452C396.752 148.768 398.248 151.755 399.473 159.584C400.597 167.266 402.278 182.908 402.278 182.908C402.278 182.908 397.148 188.248 389.709 188.775C382.269 189.301 381.362 187.97 381.362 187.97C381.362 187.97 377.476 170.367 377.219 164.91C376.687 150 385.651 143.452 385.651 143.452Z" fill="url(#paint15_linear)"/>
<path d="M321.965 50.337C318.153 70.5129 298.707 83.7783 278.531 79.966C258.355 76.1538 245.09 56.7076 248.902 36.5317C252.714 16.3558 272.16 3.09043 292.336 6.90267C312.512 10.7149 325.778 30.1611 321.965 50.337Z" fill="url(#paint16_linear)"/>
<path d="M317.942 80.8174C312.311 79.7535 310.842 73.6906 310.811 70.7921C299.03 70.0702 278.862 70.8647 292.444 79.8179C309.421 91.0094 324.98 82.1473 317.942 80.8174Z" fill="url(#paint17_linear)"/>
<path d="M295.159 20.0583L284.99 18.1369L279.713 51.0784L288.076 52.6587L295.159 20.0583ZM281.131 66.4935C284.056 67.0461 287.054 65.0803 287.652 62.0454C288.194 59.0476 286.12 56.1232 283.195 55.5705C280.179 55.0006 277.226 56.975 276.683 59.9729C276.086 63.0078 278.115 65.9235 281.131 66.4935Z" fill="white"/>
<g opacity="0.2">
<g opacity="0.4" filter="url(#filter0_f)">
<path d="M394.747 458.512C394.75 441.521 401.231 425.171 412.869 412.791C424.507 400.41 440.428 392.932 457.388 391.877C474.348 390.823 491.073 396.272 504.155 407.115C517.238 417.959 525.694 433.381 527.802 450.24C529.449 463.431 527.119 476.814 521.112 488.673C514.336 502.077 503.238 512.804 489.612 519.122C475.985 525.44 460.626 526.98 446.016 523.493C431.406 520.006 418.399 511.695 409.096 499.904C399.793 488.113 394.738 473.53 394.747 458.512Z" fill="url(#paint18_linear)"/>
</g>
</g>
<path d="M408.927 458.516C408.93 445.133 414.035 432.255 423.201 422.503C432.368 412.752 444.908 406.862 458.266 406.031C471.625 405.201 484.798 409.493 495.102 418.033C505.407 426.574 512.067 438.721 513.728 452C515.025 462.39 513.19 472.931 508.459 482.272C503.121 492.829 494.38 501.278 483.647 506.255C472.914 511.231 460.817 512.444 449.309 509.698C437.802 506.951 427.557 500.405 420.229 491.118C412.902 481.831 408.92 470.345 408.927 458.516Z" fill="url(#paint19_linear)"/>
<defs>
<filter id="filter0_f" x="324.746" y="321.749" width="273.57" height="273.57" filterUnits="userSpaceOnUse" color-interpolation-filters="sRGB">
<feFlood flood-opacity="0" result="BackgroundImageFix"/>
<feBlend mode="normal" in="SourceGraphic" in2="BackgroundImageFix" result="shape"/>
<feGaussianBlur stdDeviation="35" result="effect1_foregroundBlur"/>
</filter>
<linearGradient id="paint0_linear" x1="370.385" y1="559.667" x2="350.776" y2="524.119" gradientUnits="userSpaceOnUse">
<stop stop-color="#8177F7"/>
<stop offset="1" stop-color="#799FF8"/>
</linearGradient>
<linearGradient id="paint1_linear" x1="57.9414" y1="173.132" x2="30.4882" y2="123.365" gradientUnits="userSpaceOnUse">
<stop stop-color="#EF8197"/>
<stop offset="0.942708" stop-color="#F7C58F"/>
</linearGradient>
<linearGradient id="paint2_linear" x1="251.98" y1="462.487" x2="124.298" y2="231.028" gradientUnits="userSpaceOnUse">
<stop stop-color="#5FA8ED"/>
<stop offset="1" stop-color="#7ED5B7"/>
</linearGradient>
<linearGradient id="paint3_linear" x1="244.844" y1="487.426" x2="224.371" y2="388.937" gradientUnits="userSpaceOnUse">
<stop stop-color="#5FA8ED"/>
<stop offset="1" stop-color="#7ED5B7"/>
</linearGradient>
<linearGradient id="paint4_linear" x1="252.705" y1="332.384" x2="221.885" y2="207.771" gradientUnits="userSpaceOnUse">
<stop stop-color="#5FA8ED"/>
<stop offset="1" stop-color="#7ED5B7"/>
</linearGradient>
<linearGradient id="paint5_linear" x1="328.74" y1="183.908" x2="296.034" y2="160.235" gradientUnits="userSpaceOnUse">
<stop stop-color="#FBC7BC"/>
<stop offset="1" stop-color="#FFE8E5"/>
</linearGradient>
<linearGradient id="paint6_linear" x1="335.883" y1="130.306" x2="350.424" y2="166.618" gradientUnits="userSpaceOnUse">
<stop stop-color="#BA3184"/>
<stop offset="1" stop-color="#FCE1C2"/>
</linearGradient>
<linearGradient id="paint7_linear" x1="503.799" y1="90.1496" x2="492.158" y2="136.648" gradientUnits="userSpaceOnUse">
<stop stop-color="#FCCBC1"/>
<stop offset="1" stop-color="#FFE8E5"/>
</linearGradient>
<linearGradient id="paint8_linear" x1="564.851" y1="152.136" x2="550.149" y2="188.178" gradientUnits="userSpaceOnUse">
<stop stop-color="#FCCBC1"/>
<stop offset="1" stop-color="#FFE8E5"/>
</linearGradient>
<linearGradient id="paint9_linear" x1="441.406" y1="111.102" x2="424.611" y2="200.004" gradientUnits="userSpaceOnUse">
<stop stop-color="#6A6A6A"/>
<stop offset="1" stop-color="#9F9F9F"/>
</linearGradient>
<linearGradient id="paint10_linear" x1="471.716" y1="183.285" x2="460.472" y2="219.141" gradientUnits="userSpaceOnUse">
<stop stop-color="#898989"/>
<stop offset="1" stop-color="white"/>
</linearGradient>
<linearGradient id="paint11_linear" x1="397.999" y1="158" x2="372.677" y2="203.966" gradientUnits="userSpaceOnUse">
<stop stop-color="#EB4BAC"/>
<stop offset="1" stop-color="#FCE1C2"/>
</linearGradient>
<linearGradient id="paint12_linear" x1="361.136" y1="142.48" x2="346.185" y2="144.66" gradientUnits="userSpaceOnUse">
<stop stop-color="#FDCFC6"/>
<stop offset="1" stop-color="#FFE8E5"/>
</linearGradient>
<linearGradient id="paint13_linear" x1="377.956" y1="120.053" x2="328.741" y2="125.036" gradientUnits="userSpaceOnUse">
<stop stop-color="#FBC2B6"/>
<stop offset="1" stop-color="#FFE8E5"/>
</linearGradient>
<linearGradient id="paint14_linear" x1="421.565" y1="208.827" x2="353.66" y2="241.222" gradientUnits="userSpaceOnUse">
<stop stop-color="#FBC7BC"/>
<stop offset="1" stop-color="#FFE8E5"/>
</linearGradient>
<linearGradient id="paint15_linear" x1="401.5" y1="154.5" x2="388.504" y2="197.042" gradientUnits="userSpaceOnUse">
<stop stop-color="#C82889"/>
<stop offset="1" stop-color="#FCE1C2"/>
</linearGradient>
<linearGradient id="paint16_linear" x1="275.595" y1="14.3858" x2="297.208" y2="84.9094" gradientUnits="userSpaceOnUse">
<stop stop-color="#5FA8ED"/>
<stop offset="1" stop-color="#7ED5B7"/>
</linearGradient>
<linearGradient id="paint17_linear" x1="275.595" y1="14.3858" x2="297.208" y2="84.9094" gradientUnits="userSpaceOnUse">
<stop stop-color="#5FA8ED"/>
<stop offset="1" stop-color="#7ED5B7"/>
</linearGradient>
<linearGradient id="paint18_linear" x1="490.443" y1="506.526" x2="427.127" y2="391.748" gradientUnits="userSpaceOnUse">
<stop stop-color="#73BCF9"/>
<stop offset="1" stop-color="#7A96F8"/>
</linearGradient>
<linearGradient id="paint19_linear" x1="484.302" y1="496.333" x2="434.432" y2="405.929" gradientUnits="userSpaceOnUse">
<stop stop-color="#73BCF9"/>
<stop offset="1" stop-color="#7A96F8"/>
</linearGradient>
</defs>
</svg>
