<svg width="377" height="367" viewBox="0 0 377 367" fill="none" xmlns="http://www.w3.org/2000/svg">
<path d="M210.444 51.2334L211.494 46.3187C211.655 45.554 211.995 44.8381 212.484 44.2288C212.973 43.6194 213.599 43.1338 214.311 42.811C215.023 42.4883 215.801 42.3376 216.581 42.371C217.362 42.4044 218.124 42.621 218.806 43.0033L218.839 43.022C222.658 45.2097 224.648 84.7472 224.648 84.7472C224.648 84.7472 229.866 93.7416 229.531 95.2448C229.196 96.748 221.644 100.086 220.927 98.4678C220.209 96.8496 214.997 91.7837 215.205 89.1852C215.412 86.5868 218.42 84.4524 218.42 84.4524C218.42 84.4524 212.14 57.8364 210.444 51.2334Z" fill="url(#paint0_linear)"/>
<path opacity="0.1" d="M210.444 51.2334L211.494 46.3187C211.655 45.554 211.995 44.8381 212.484 44.2288C212.973 43.6194 213.599 43.1338 214.311 42.811C215.023 42.4883 215.801 42.3376 216.581 42.371C217.362 42.4044 218.124 42.621 218.806 43.0033L218.839 43.022C222.658 45.2097 224.648 84.7472 224.648 84.7472C224.648 84.7472 229.866 93.7416 229.531 95.2448C229.196 96.748 221.644 100.086 220.927 98.4678C220.209 96.8496 214.997 91.7837 215.205 89.1852C215.412 86.5868 218.42 84.4524 218.42 84.4524C218.42 84.4524 212.14 57.8364 210.444 51.2334Z" fill="url(#paint1_linear)"/>
<path d="M207.018 73.412L214.092 64.4437C214.092 64.4437 217.086 55.8608 209.524 52.9886L203.371 53.7852L207.018 73.412Z" fill="url(#paint2_linear)"/>
<path opacity="0.5" d="M207.018 73.412L214.092 64.4437C214.092 64.4437 217.086 55.8608 209.524 52.9886L203.371 53.7852L207.018 73.412Z" fill="url(#paint3_linear)"/>
<path d="M58.7003 155.938L60.0159 164.203L79.2696 161.839L77.9529 153.565L58.7003 155.938Z" fill="url(#paint4_linear)"/>
<path d="M60.4794 164.665L64.8103 155.468C64.8804 155.317 64.8973 155.147 64.858 154.985C64.8188 154.823 64.7257 154.679 64.5942 154.577L58.5545 149.91C58.2931 149.713 57.9645 149.628 57.6403 149.672C57.3161 149.717 57.0228 149.888 56.8244 150.148C56.7695 150.221 56.7227 150.299 56.6847 150.382C55.3317 153.381 54.4946 155.635 52.7349 159.372C51.6512 161.674 48.1403 168.505 46.6429 171.686C45.1454 174.867 48.0926 176.758 48.9926 175.593C53.0117 170.355 56.8428 166.793 59.3985 165.714C59.88 165.516 60.2671 165.141 60.4794 164.665Z" fill="#484D58"/>
<path d="M57.9701 166.544C57.687 167.04 57.5817 167.617 57.6714 168.18C57.7205 168.374 57.8184 168.552 57.9559 168.697C58.0934 168.842 58.2659 168.95 58.4568 169.009C58.5603 169.062 58.6767 169.082 58.7919 169.07C58.9071 169.057 59.0161 169.011 59.1055 168.937C59.9333 168.303 59.5831 165.15 59.5358 164.798C59.5346 164.759 59.5211 164.722 59.4974 164.692C59.4736 164.662 59.4408 164.64 59.4038 164.63C59.3657 164.618 59.325 164.617 59.2864 164.627C59.2478 164.638 59.213 164.659 59.1864 164.689C58.7138 165.261 58.3059 165.883 57.9701 166.544ZM59.0102 168.41C58.9788 168.493 58.9241 168.566 58.8526 168.619C58.8307 168.667 58.7314 168.692 58.5864 168.635C58.4603 168.594 58.346 168.523 58.2534 168.428C58.1608 168.333 58.0927 168.217 58.0548 168.09C58.0694 167.059 58.4752 166.072 59.19 165.33C59.3254 166.358 59.2626 167.404 59.0051 168.409L59.0102 168.41Z" fill="#407BFF"/>
<path d="M59.1569 164.739L59.1163 164.825C59.173 165.805 60.1273 168.102 60.9991 168.324C61.1451 168.36 61.2991 168.344 61.4348 168.28C61.5705 168.215 61.6795 168.105 61.7431 167.969C61.8251 167.841 61.8789 167.697 61.9009 167.547C61.923 167.397 61.9127 167.244 61.8708 167.099C61.5704 165.886 59.48 164.679 59.3787 164.619C59.3466 164.603 59.311 164.596 59.2753 164.598C59.2395 164.599 59.2047 164.61 59.1741 164.628C59.1573 164.662 59.1513 164.701 59.1569 164.739ZM61.5131 167.706L61.4722 167.794C61.3637 168.025 61.2212 167.981 61.1669 167.968C60.6302 167.832 59.8229 166.275 59.6021 165.219C60.4407 165.675 61.1201 166.377 61.5494 167.23C61.5936 167.387 61.579 167.555 61.5085 167.703L61.5131 167.706Z" fill="#407BFF"/>
<path opacity="0.2" d="M77.9432 153.566L79.2598 161.84L69.3306 163.054L68.0139 154.78L77.9432 153.566Z" fill="black"/>
<path d="M69.2155 153.072L73.2095 164.416C73.2095 164.416 117.585 163.699 129.63 149.606C138.591 139.129 145.311 117.799 148.167 107.538C149.157 103.992 149.684 101.772 149.684 101.772L159.713 80.9585L120.573 77.1261C120.573 77.1261 122.811 101.531 120.505 119.393C119.592 126.438 117.979 132.457 115.236 135.566C105.541 146.561 69.2155 153.072 69.2155 153.072Z" fill="url(#paint5_linear)"/>
<path opacity="0.2" d="M120.573 77.1261C120.573 77.1261 122.811 101.531 120.505 119.393C124.61 115.514 127.873 110.833 130.092 105.64C134.979 107.37 142.575 107.631 148.167 107.538C149.157 103.992 149.684 101.772 149.684 101.772L159.713 80.9585L120.573 77.1261Z" fill="black"/>
<path d="M9.91675 148.205L14.2144 155.385L31.2018 146.021L26.8985 138.833L9.91675 148.205Z" fill="url(#paint6_linear)"/>
<path d="M14.8193 155.64L15.4137 145.49C15.4228 145.323 15.3751 145.159 15.2785 145.023C15.1819 144.887 15.042 144.789 14.8819 144.743L7.53861 142.66C7.2229 142.575 6.88624 142.618 6.60211 142.78C6.31799 142.942 6.10946 143.21 6.02201 143.525C5.99803 143.613 5.98359 143.704 5.97899 143.795C5.84058 147.082 5.90239 149.486 5.66036 153.608C5.51145 156.149 4.79734 163.796 4.59168 167.303C4.38601 170.811 7.82415 171.47 8.22605 170.053C10.0062 163.696 12.235 158.963 14.2047 157.01C14.5779 156.649 14.798 156.158 14.8193 155.64Z" fill="#484D58"/>
<path d="M13.1919 158.317C13.1136 158.882 13.2302 159.457 13.5225 159.946C13.6405 160.108 13.798 160.237 13.9798 160.32C14.1617 160.404 14.3619 160.439 14.5614 160.424C14.6764 160.433 14.7917 160.409 14.8933 160.354C14.9949 160.3 15.0785 160.217 15.1339 160.115C15.6663 159.219 14.1658 156.426 13.9929 156.113C13.9773 156.078 13.9505 156.048 13.9165 156.029C13.8826 156.009 13.8433 156.002 13.8046 156.007C13.7647 156.01 13.7266 156.025 13.6949 156.049C13.6633 156.074 13.6394 156.107 13.6263 156.145C13.4015 156.85 13.2558 157.579 13.1919 158.317ZM14.851 159.661C14.8533 159.75 14.8298 159.838 14.7833 159.914C14.7804 159.967 14.7023 160.026 14.5417 160.027C14.4094 160.036 14.2769 160.013 14.1555 159.959C14.0342 159.906 13.9277 159.824 13.8453 159.72C13.4757 158.758 13.4847 157.691 13.8706 156.735C14.3813 157.639 14.7141 158.632 14.851 159.661Z" fill="#407BFF"/>
<path d="M13.6127 156.198L13.607 156.294C14.0242 157.182 15.7653 158.957 16.6569 158.845C16.8058 158.824 16.9428 158.751 17.0446 158.641C17.1464 158.53 17.2067 158.387 17.2152 158.237C17.2432 158.088 17.2393 157.935 17.2038 157.787C17.1684 157.64 17.1021 157.502 17.0093 157.382C16.276 156.369 13.8888 156.027 13.7732 156.009C13.7374 156.007 13.7015 156.013 13.6688 156.028C13.6362 156.043 13.6077 156.066 13.5861 156.095C13.5847 156.131 13.5939 156.167 13.6127 156.198ZM16.9056 158.076L16.9008 158.172C16.8856 158.426 16.7383 158.439 16.6828 158.442C16.134 158.516 14.8007 157.371 14.2063 156.472C15.1549 156.584 16.0469 156.982 16.7636 157.614C16.8655 157.745 16.9156 157.909 16.9045 158.075L16.9056 158.076Z" fill="#407BFF"/>
<path opacity="0.2" d="M26.8946 138.834L31.1979 146.023L22.4343 150.846L18.1311 143.658L26.8946 138.834Z" fill="url(#paint7_linear)"/>
<path d="M20.9315 139.581L28.4294 151.42C28.4294 151.42 70.7858 136.045 87.1599 123.869C94.098 118.712 120.84 94.661 127.231 88.9019C128.12 88.0997 128.616 87.6567 128.616 87.6567L158.042 74.311L145.721 41.4726C145.721 41.4726 137.113 42.0932 126.33 48.2545C124.733 49.1588 123.088 50.1901 121.413 51.3626C114.95 55.936 109.31 61.5726 104.733 68.0326C103.535 69.6871 102.367 71.45 101.229 73.3212C76.2733 114.356 20.9315 139.581 20.9315 139.581Z" fill="url(#paint8_linear)"/>
<path d="M209.701 68.2708C209.701 68.2708 204.084 51.2341 176.255 42.8676C148.425 34.5011 122.883 46.4655 122.883 46.4655C122.883 46.4655 109.7 80.6637 136.231 96.5896C145.805 102.337 158.651 99.0796 158.651 99.0796L163.736 87.7601C163.736 87.7601 203.872 78.6914 209.701 68.2708Z" fill="#407BFF"/>
<path opacity="0.8" d="M119.632 66.9092C119.841 74.1309 121.698 82.1373 127.23 88.9021C129.757 91.97 132.802 94.5709 136.227 96.5865C145.807 102.337 158.651 99.0754 158.651 99.0754L163.738 87.7606C163.738 87.7606 203.873 78.6862 209.697 68.2677C209.697 68.2677 204.079 51.2361 176.252 42.8648C148.424 34.4935 122.88 46.4627 122.88 46.4627C122.88 46.4627 122.802 46.6782 122.664 47.0813C122.39 47.8673 121.903 49.3569 121.411 51.3628C120.112 56.4395 119.513 61.6701 119.632 66.9092Z" fill="url(#paint9_linear)"/>
<path d="M148.281 33.7641C148.281 33.7641 128.636 19.6068 123.923 17.037C119.209 14.4671 76.8578 37.6572 76.8578 37.6572C76.8578 37.6572 64.1792 37.9813 62.8317 39.2893C61.4842 40.5973 62.8398 50.5769 64.9779 50.2863C67.116 49.9957 75.7117 52.179 78.2733 50.3007C80.835 48.4225 81.1381 43.9351 81.1381 43.9351C81.1381 43.9351 120.234 31.0039 122.454 30.5041C124.055 30.1432 141.639 44.8396 141.639 44.8396L148.281 33.7641Z" fill="url(#paint10_linear)"/>
<path opacity="0.2" d="M104.731 68.0325C109.715 67.925 114.688 67.5499 119.631 66.9089C142.648 63.8566 150.081 55.8398 150.081 55.8398L126.328 48.2544L122.663 47.0811C122.39 47.867 121.903 49.3567 121.411 51.3625C114.948 55.9359 109.309 61.5725 104.731 68.0325Z" fill="black"/>
<path d="M186.724 67.8423C188.512 68.5611 190.46 68.785 192.363 68.4905C198.296 67.6162 202.704 62.3222 202.704 62.3222C202.883 54.414 195.922 49.9149 189.521 48.0634C186.827 47.1894 183.982 46.877 181.163 47.1457C175.427 48.0873 178.175 64.4436 186.724 67.8423Z" fill="url(#paint11_linear)"/>
<path opacity="0.2" d="M192.365 68.49C198.298 67.6157 202.705 62.3217 202.705 62.3217C202.884 54.4135 195.923 49.9144 189.523 48.0629C187.626 52.2932 185.229 60.9393 192.365 68.49Z" fill="black"/>
<path d="M203.543 67.0161C202.063 72.128 190.251 80.7253 175.603 84.6669C175.603 84.6669 192.831 85.1877 203.276 76.7714C213.72 68.3551 211.341 64.6678 205.04 60.2614L203.543 67.0161Z" fill="url(#paint12_linear)"/>
<path opacity="0.4" d="M203.543 67.0161C202.063 72.128 190.251 80.7253 175.603 84.6669C175.603 84.6669 192.831 85.1877 203.276 76.7714C213.72 68.3551 211.341 64.6678 205.04 60.2614L203.543 67.0161Z" fill="url(#paint13_linear)"/>
<path d="M190.223 47.0835C178.743 43.6564 178.936 48.3984 171.399 54.4184C156.045 66.6822 91.0961 50.6405 91.0961 50.6405C91.0961 50.6405 108.455 35.362 131.333 33.8116C154.212 32.2613 190.223 47.0835 190.223 47.0835Z" fill="url(#paint14_linear)"/>
<path opacity="0.4" d="M190.223 47.0835C178.743 43.6564 178.936 48.3984 171.399 54.4184C156.045 66.6822 91.0961 50.6405 91.0961 50.6405C91.0961 50.6405 108.455 35.362 131.333 33.8116C154.212 32.2613 190.223 47.0835 190.223 47.0835Z" fill="url(#paint15_linear)"/>
<path d="M210.529 68.508C210.529 68.508 213.116 56.9559 198.461 47.3789C183.805 37.802 166.416 49.5983 166.416 49.5983L172.483 50.3222L171.397 54.4175C171.397 54.4175 183.206 48.602 192.449 51.4544C201.693 54.3069 203.54 67.0164 203.54 67.0164L208.423 63.8839L210.529 68.508Z" fill="url(#paint16_linear)"/>
<path opacity="0.5" d="M210.529 68.508C210.529 68.508 213.116 56.9559 198.461 47.3789C183.805 37.802 166.416 49.5983 166.416 49.5983L172.483 50.3222L171.397 54.4175C171.397 54.4175 183.206 48.602 192.449 51.4544C201.693 54.3069 203.54 67.0164 203.54 67.0164L208.423 63.8839L210.529 68.508Z" fill="url(#paint17_linear)"/>
<path d="M216.746 38.0905C216.746 38.0905 216.356 49.75 209.525 52.9888C202.695 56.2277 206.629 35.1222 206.629 35.1222L216.746 38.0905Z" fill="#484D58"/>
<path d="M190.375 58.7434C191.289 60.8448 192.867 62.5882 194.867 63.7063C196.867 64.8245 199.179 65.2556 201.448 64.9335C204.39 64.5713 207.084 63.1025 208.982 60.8254C209.248 60.5094 209.497 60.1797 209.729 59.8378C213.981 53.4635 217.183 41.518 210.703 35.6104C209.278 34.2987 207.541 33.3734 205.658 32.9224C203.774 32.4714 201.807 32.5097 199.942 33.0337C198.078 33.5577 196.378 34.55 195.005 35.9162C193.633 37.2823 192.632 38.977 192.099 40.8389C189.689 48.7719 187.898 53.3214 190.375 58.7434Z" fill="url(#paint18_linear)"/>
<path d="M203.101 47.3685C202.826 47.9799 203.01 48.6346 203.431 48.7888C203.852 48.9431 204.369 48.546 204.606 47.9169C204.843 47.2877 204.688 46.6468 204.276 46.4965C203.864 46.3462 203.342 46.7287 203.101 47.3685Z" fill="#484D58"/>
<path d="M210.261 50.0093C209.985 50.6205 210.179 51.2793 210.591 51.4296C211.003 51.58 211.529 51.1868 211.766 50.5577C212.003 49.9285 211.847 49.2874 211.436 49.1373C211.025 48.9872 210.485 49.4059 210.261 50.0093Z" fill="#484D58"/>
<path d="M207.87 49.4807C207.91 51.6962 208.258 53.8954 208.901 56.0157C208.351 56.1669 207.773 56.1955 207.21 56.0995C206.647 56.0035 206.112 55.7853 205.643 55.4601L207.87 49.4807Z" fill="#FFBCB0"/>
<path d="M201.735 44.2303C201.8 44.2645 201.872 44.2809 201.945 44.278C202.018 44.275 202.089 44.2528 202.15 44.2135C202.563 43.9359 203.034 43.7581 203.527 43.6943C204.02 43.6305 204.52 43.6824 204.99 43.8458C205.037 43.8672 205.088 43.8791 205.139 43.8808C205.191 43.8825 205.242 43.874 205.291 43.8558C205.339 43.8376 205.384 43.8101 205.421 43.7748C205.459 43.7395 205.489 43.6971 205.511 43.65C205.532 43.6029 205.544 43.5521 205.546 43.5005C205.547 43.4488 205.539 43.3973 205.521 43.3489C205.503 43.3005 205.475 43.2562 205.44 43.2185C205.404 43.1807 205.362 43.1503 205.315 43.129C204.727 42.9069 204.095 42.8288 203.471 42.9014C202.847 42.974 202.25 43.1952 201.729 43.5462C201.685 43.5728 201.646 43.6079 201.615 43.6495C201.585 43.691 201.562 43.7383 201.55 43.7884C201.537 43.8386 201.535 43.8908 201.543 43.9419C201.55 43.993 201.568 44.0421 201.595 44.0864L201.599 44.0948C201.637 44.1466 201.683 44.1923 201.735 44.2303Z" fill="#484D58"/>
<path d="M214.247 48.6749C214.307 48.7288 214.381 48.7625 214.461 48.7712C214.513 48.767 214.563 48.7527 214.609 48.729C214.655 48.7054 214.695 48.6729 214.729 48.6334C214.762 48.594 214.787 48.5483 214.803 48.4991C214.818 48.4498 214.824 48.398 214.82 48.3465L214.822 48.3385C214.774 47.7102 214.576 47.1027 214.244 46.5671C213.912 46.0315 213.456 45.5835 212.915 45.261C212.869 45.2371 212.819 45.2225 212.768 45.2181C212.716 45.2136 212.664 45.2194 212.615 45.235C212.565 45.2506 212.52 45.2759 212.48 45.3092C212.441 45.3426 212.408 45.3834 212.384 45.4294C212.339 45.5228 212.331 45.63 212.363 45.7288C212.394 45.8277 212.463 45.9107 212.554 45.9606C212.974 46.228 213.325 46.5898 213.581 47.017C213.837 47.4443 213.989 47.9253 214.026 48.4218C214.042 48.4774 214.071 48.5288 214.109 48.5725C214.147 48.6162 214.194 48.6511 214.247 48.6749Z" fill="#484D58"/>
<path d="M201.383 33.2422L200.708 36.8607C200.031 36.9568 199.414 37.3042 198.981 37.8339C198.548 38.3636 198.33 39.0368 198.371 39.7198C198.57 43.0058 195.473 47.0261 192.652 48.1293C192.652 48.1293 192.983 46.8374 191.816 46.8003C190.65 46.7632 188.153 52.5858 188.153 52.5858C188.153 52.5858 185.584 51.0978 185.99 43.5928C186.367 36.6514 189.962 33.5702 192.065 31.5052L201.383 33.2422Z" fill="#484D58"/>
<path d="M205.561 57.5766C204.924 58.3719 204.346 59.2124 203.831 60.0916C203.663 60.0293 203.494 59.9667 203.33 59.8958C201.066 58.9901 200.313 57.8266 200.166 56.8072C200.104 56.3079 200.164 55.8013 200.339 55.3296C200.429 55.0588 200.557 54.8018 200.718 54.5663C201.869 55.744 203.259 56.661 204.794 57.2554C205.26 57.4668 205.561 57.5766 205.561 57.5766Z" fill="#484D58"/>
<path d="M204.795 57.2567L204.265 57.9879C202.135 57.1329 200.749 56.2448 200.339 55.3329C200.43 55.062 200.557 54.8051 200.719 54.5696C201.87 55.7466 203.26 56.6629 204.795 57.2567Z" fill="white"/>
<path d="M203.329 59.8963C201.066 58.9906 200.313 57.8271 200.165 56.8078C201.021 57.1671 201.805 57.6752 202.483 58.3087C202.924 58.7365 203.22 59.2917 203.329 59.8963Z" fill="#ED827E"/>
<path d="M200.709 36.8607C203.507 36.8156 209.952 38.5943 214.108 42.0068C214.108 42.0068 216.284 42.2805 218.381 37.8153C220.478 33.3501 217.838 30.2058 216.757 30.5954C215.675 30.9849 217.629 32.2878 217.44 33.6236C217.44 33.6236 212.38 30.0974 212.305 26.8434C212.231 23.5894 210.232 22.1651 209.036 23.1636C207.84 24.162 210.711 28.1389 210.711 28.1389C210.711 28.1389 206.664 27.4284 205.189 23.9197C203.715 20.4111 200.488 18.2021 199.329 19.2388C198.169 20.2756 202.456 22.2498 203.357 24.0592C203.357 24.0592 197.068 20.014 193.709 21.3653C190.35 22.7165 190.768 23.7175 192.93 23.6886C194.529 23.8361 196.048 24.4574 197.292 25.4731C197.292 25.4731 192.057 24.3645 189.634 26.1361C187.21 27.9076 185.202 26.191 184.414 27.2565C183.626 28.322 187.724 29.5878 187.724 29.5878C187.724 29.5878 184.977 31.0361 182.623 29.709C180.269 28.3819 178.601 32.0721 184.806 32.188C184.806 32.188 183.801 36.1528 181.514 36.2343C179.228 36.3159 179.771 38.223 181.386 38.2259C183 38.2287 184.869 36.5034 184.869 36.5034C184.869 36.5034 181.282 40.4497 182.073 42.2767C182.864 44.1037 184.577 40.5879 184.577 40.5879C184.577 40.5879 182.083 46.1038 182.889 46.5894C183.695 47.0751 185.206 45.1317 185.206 45.1317C185.206 45.1317 183.108 48.9159 184.623 49.9679C185.839 50.677 187.188 51.1289 188.586 51.2955C188.586 51.2955 195.761 36.9406 200.709 36.8607Z" fill="#484D58"/>
<path d="M186.348 45.9622C186.562 48.0401 187.591 49.9484 189.209 51.2691C191.365 53.0013 193.528 51.3335 193.845 48.73C194.105 46.4138 193.335 42.6546 190.719 41.9597C188.104 41.2649 186.118 43.4075 186.348 45.9622Z" fill="url(#paint19_linear)"/>
<path d="M162.758 38.1855C162.758 38.1855 161.002 51.2967 144.424 51.6988L126.451 37.1261L134.495 23.2543L162.758 38.1855Z" fill="url(#paint20_linear)"/>
<path opacity="0.5" d="M162.758 38.1855C162.758 38.1855 161.002 51.2967 144.424 51.6988L126.451 37.1261L134.495 23.2543L162.758 38.1855Z" fill="url(#paint21_linear)"/>
<path d="M135 248.975C135.006 218.958 146.456 190.072 167.02 168.201C187.583 146.329 215.712 133.116 245.679 131.253C275.645 129.39 305.195 139.018 328.31 158.174C351.425 177.331 366.367 204.576 370.092 234.361C373.001 257.666 368.885 281.309 358.272 302.261C346.299 325.94 326.69 344.892 302.614 356.054C278.537 367.216 251.4 369.937 225.586 363.776C199.772 357.616 176.79 342.934 160.353 322.102C143.915 301.271 134.983 275.508 135 248.975Z" fill="url(#paint22_linear)"/>
<path d="M145.126 296.861C202.159 326.125 221.715 313.852 282.651 292.139C317.477 279.716 342.897 290.63 358.273 302.261C348.189 322.172 332.662 338.816 313.495 350.259C294.329 361.703 272.31 367.477 249.993 366.912C227.676 366.346 205.977 359.465 187.415 347.065C168.853 334.666 154.189 317.257 145.126 296.861Z" fill="url(#paint23_linear)"/>
<path d="M139.535 216.389C147.05 190.266 163.355 167.538 185.695 152.045C208.035 136.552 235.04 129.244 262.147 131.357C289.253 133.47 314.799 144.874 334.467 163.641C354.135 182.409 366.72 207.389 370.094 234.361C359.717 224.577 347.438 217.031 334.02 212.194C320.602 207.356 306.332 205.33 292.097 206.242C230.074 209.888 182.407 253.697 139.535 216.389Z" fill="url(#paint24_linear)"/>
<circle cx="85" cy="277" r="6" fill="#9EA1EB"/>
<path d="M360.5 117C369.613 117 377 109.613 377 100.5C377 91.3873 369.613 84 360.5 84C351.387 84 344 91.3873 344 100.5C344 109.613 351.387 117 360.5 117Z" fill="url(#paint25_linear)"/>
<defs>
<linearGradient id="paint0_linear" x1="226.159" y1="44.3452" x2="214.82" y2="97.4312" gradientUnits="userSpaceOnUse">
<stop offset="0.0625" stop-color="#FFC19E"/>
<stop offset="1" stop-color="white"/>
</linearGradient>
<linearGradient id="paint1_linear" x1="214.091" y1="28.5691" x2="235.278" y2="130.632" gradientUnits="userSpaceOnUse">
<stop offset="0.0625" stop-color="#FFC19E"/>
<stop offset="1" stop-color="white"/>
</linearGradient>
<linearGradient id="paint2_linear" x1="212.145" y1="56.4971" x2="198.305" y2="66.7056" gradientUnits="userSpaceOnUse">
<stop stop-color="#8177F7"/>
<stop offset="1" stop-color="#799FF8"/>
</linearGradient>
<linearGradient id="paint3_linear" x1="212.145" y1="56.4971" x2="198.305" y2="66.7056" gradientUnits="userSpaceOnUse">
<stop stop-color="#8177F7"/>
<stop offset="1" stop-color="#799FF8"/>
</linearGradient>
<linearGradient id="paint4_linear" x1="69.2784" y1="155.861" x2="67.5081" y2="165.803" gradientUnits="userSpaceOnUse">
<stop offset="0.0625" stop-color="#FFC19E"/>
<stop offset="1" stop-color="white"/>
</linearGradient>
<linearGradient id="paint5_linear" x1="141.071" y1="139.83" x2="79.5085" y2="97.5075" gradientUnits="userSpaceOnUse">
<stop stop-color="#EB4BAC"/>
<stop offset="1" stop-color="#FCE1C2"/>
</linearGradient>
<linearGradient id="paint6_linear" x1="22.5274" y1="137.899" x2="18.5927" y2="156.32" gradientUnits="userSpaceOnUse">
<stop offset="0.0625" stop-color="#FFC19E"/>
<stop offset="1" stop-color="white"/>
</linearGradient>
<linearGradient id="paint7_linear" x1="20.6921" y1="144.233" x2="22.7963" y2="151.578" gradientUnits="userSpaceOnUse">
<stop offset="0.0625" stop-color="#FFC19E"/>
<stop offset="1" stop-color="white"/>
</linearGradient>
<linearGradient id="paint8_linear" x1="84.2753" y1="135.392" x2="54.6579" y2="86.3121" gradientUnits="userSpaceOnUse">
<stop stop-color="#EB4BAC"/>
<stop offset="1" stop-color="#FCE1C2"/>
</linearGradient>
<linearGradient id="paint9_linear" x1="169.508" y1="41.1925" x2="156.494" y2="102.122" gradientUnits="userSpaceOnUse">
<stop stop-color="#3B3E89"/>
<stop offset="1" stop-color="#262859"/>
</linearGradient>
<linearGradient id="paint10_linear" x1="108.212" y1="35.1032" x2="105.035" y2="26.4679" gradientUnits="userSpaceOnUse">
<stop offset="0.0625" stop-color="#FFC19E"/>
<stop offset="1" stop-color="white"/>
</linearGradient>
<linearGradient id="paint11_linear" x1="194.641" y1="58.5589" x2="181.097" y2="63.2701" gradientUnits="userSpaceOnUse">
<stop offset="0.0625" stop-color="#FFC19E"/>
<stop offset="1" stop-color="white"/>
</linearGradient>
<linearGradient id="paint12_linear" x1="202.371" y1="64.0095" x2="183.151" y2="86.4801" gradientUnits="userSpaceOnUse">
<stop stop-color="#8177F7"/>
<stop offset="1" stop-color="#799FF8"/>
</linearGradient>
<linearGradient id="paint13_linear" x1="202.371" y1="64.0095" x2="183.151" y2="86.4801" gradientUnits="userSpaceOnUse">
<stop stop-color="#8177F7"/>
<stop offset="1" stop-color="#799FF8"/>
</linearGradient>
<linearGradient id="paint14_linear" x1="163.428" y1="41.9454" x2="152.456" y2="70.456" gradientUnits="userSpaceOnUse">
<stop stop-color="#8177F7"/>
<stop offset="1" stop-color="#799FF8"/>
</linearGradient>
<linearGradient id="paint15_linear" x1="163.428" y1="41.9454" x2="152.456" y2="70.456" gradientUnits="userSpaceOnUse">
<stop stop-color="#8177F7"/>
<stop offset="1" stop-color="#799FF8"/>
</linearGradient>
<linearGradient id="paint16_linear" x1="201.003" y1="49.1844" x2="191.908" y2="68.6553" gradientUnits="userSpaceOnUse">
<stop stop-color="#8177F7"/>
<stop offset="1" stop-color="#799FF8"/>
</linearGradient>
<linearGradient id="paint17_linear" x1="201.003" y1="49.1844" x2="191.908" y2="68.6553" gradientUnits="userSpaceOnUse">
<stop stop-color="#8177F7"/>
<stop offset="1" stop-color="#799FF8"/>
</linearGradient>
<linearGradient id="paint18_linear" x1="179.461" y1="55.1736" x2="211.229" y2="55.3195" gradientUnits="userSpaceOnUse">
<stop offset="0.0625" stop-color="#FFC19E"/>
<stop offset="1" stop-color="white"/>
</linearGradient>
<linearGradient id="paint19_linear" x1="192.372" y1="40.0753" x2="189.093" y2="51.6222" gradientUnits="userSpaceOnUse">
<stop offset="0.0625" stop-color="#FFC19E"/>
<stop offset="1" stop-color="white"/>
</linearGradient>
<linearGradient id="paint20_linear" x1="149.979" y1="30.2114" x2="140.572" y2="46.2833" gradientUnits="userSpaceOnUse">
<stop stop-color="#8177F7"/>
<stop offset="1" stop-color="#799FF8"/>
</linearGradient>
<linearGradient id="paint21_linear" x1="153.921" y1="31.1072" x2="139.033" y2="53.4081" gradientUnits="userSpaceOnUse">
<stop stop-color="#8177F7"/>
<stop offset="1" stop-color="#799FF8"/>
</linearGradient>
<linearGradient id="paint22_linear" x1="304.082" y1="333.8" x2="192.231" y2="131.015" gradientUnits="userSpaceOnUse">
<stop stop-color="#EF8197"/>
<stop offset="0.942708" stop-color="#F7C58F"/>
</linearGradient>
<linearGradient id="paint23_linear" x1="297.836" y1="355.651" x2="279.901" y2="269.366" gradientUnits="userSpaceOnUse">
<stop stop-color="#EF8197"/>
<stop offset="0.942708" stop-color="#F7C58F"/>
</linearGradient>
<linearGradient id="paint24_linear" x1="304.719" y1="219.819" x2="277.721" y2="110.649" gradientUnits="userSpaceOnUse">
<stop stop-color="#EF8197"/>
<stop offset="0.942708" stop-color="#F7C58F"/>
</linearGradient>
<linearGradient id="paint25_linear" x1="344" y1="100.5" x2="377" y2="100.5" gradientUnits="userSpaceOnUse">
<stop offset="0.005" stop-color="#FEA7AF"/>
<stop offset="0.973" stop-color="#EA47AC"/>
</linearGradient>
</defs>
</svg>
