<svg width="59" height="59" viewBox="0 0 59 59" fill="none" xmlns="http://www.w3.org/2000/svg">
<path d="M0.448091 29.3131C0.449536 21.946 3.25956 14.8566 8.30585 9.48858C13.3521 4.12057 20.2552 0.877761 27.609 0.420573C34.9629 -0.0366114 42.2145 2.32621 47.887 7.02783C53.5595 11.7295 57.2262 18.4163 58.1404 25.7264C58.8543 31.4461 57.8442 37.2487 55.2397 42.3909C52.3015 48.2025 47.4895 52.8538 41.581 55.5934C35.6726 58.3329 29.013 59.0006 22.6782 57.4886C16.3434 55.9766 10.7034 52.3732 6.6697 47.2606C2.63597 42.1481 0.444036 35.825 0.448091 29.3131Z" fill="url(#paint0_linear)"/>
<defs>
<linearGradient id="paint0_linear" x1="41.9414" y1="50.1316" x2="14.4882" y2="0.364672" gradientUnits="userSpaceOnUse">
<stop stop-color="#EF8197"/>
<stop offset="0.942708" stop-color="#F7C58F"/>
</linearGradient>
</defs>
</svg>
