<svg width="262" height="307" viewBox="0 0 262 307" fill="none" xmlns="http://www.w3.org/2000/svg">
<path d="M185.306 145.978C185.396 129.738 188.926 109.558 188.926 109.558C194.316 118.168 214.616 131.158 214.616 131.158L224.076 152.498C224.076 152.498 217.636 174.498 215.126 182.408C223.126 191.038 225.786 196.588 229.126 205.508C231.656 212.308 235.376 223.388 238.026 230.988C240.446 237.918 241.726 238.768 243.086 239.768C243.856 240.338 244.826 240.978 244.826 240.978C244.826 240.978 248.916 250.538 251.166 257.398C253.416 264.258 254.966 267.838 251.736 271.338C248.506 274.838 239.206 279.088 237.996 279.178C236.786 279.268 238.346 272.328 238.346 272.328C238.984 268.726 239.089 265.05 238.656 261.418C238.066 258.188 236.866 253.568 235.126 250.698C233.019 247.273 230.588 244.058 227.866 241.098C224.446 237.258 195.516 201.158 191.256 193.188C186.996 185.218 185.186 168.618 185.306 145.978Z" fill="#F0997A"/>
<path d="M252.346 246.938C253.036 248.458 252.926 250.798 253.866 253.268C254.926 256.091 256.266 258.802 257.866 261.358L260.056 264.948L259.056 265.548L255.056 259.018C253.836 257.018 252.486 255.788 251.406 256.158C251.416 256.158 247.636 249.818 252.346 246.938Z" fill="#BA68C8"/>
<path opacity="0.3" d="M252.346 246.938C253.036 248.458 252.926 250.798 253.866 253.268C254.926 256.091 256.266 258.802 257.866 261.358L260.056 264.948L259.056 265.548L255.056 259.018C253.836 257.018 252.486 255.788 251.406 256.158C251.416 256.158 247.636 249.818 252.346 246.938Z" fill="black"/>
<path d="M244.187 240.258C245.817 241.558 248.417 242.258 250.717 244.338C251.673 245.222 252.33 246.383 252.597 247.658C252.317 248.938 251.977 249.528 251.737 250.428C251.201 251.881 251.032 253.444 251.247 254.978C251.799 258.133 252.578 261.245 253.577 264.288C254.517 267.288 255.217 269.048 253.717 271.718C252.547 273.788 247.767 278.178 244.207 280.588C239.367 283.878 235.727 282.538 236.467 279.488C237.207 276.438 238.257 271.488 238.587 270.698C238.587 270.698 239.717 269.308 243.417 270.228C246.877 271.078 247.097 273.548 249.187 270.318C251.077 267.398 251.447 258.628 247.017 251.628C241.957 243.708 244.187 240.258 244.187 240.258Z" fill="#28806B"/>
<path opacity="0.15" d="M244.187 240.258C245.817 241.558 248.417 242.258 250.717 244.338C251.673 245.222 252.33 246.383 252.597 247.658C252.317 248.938 251.977 249.528 251.737 250.428C251.201 251.881 251.032 253.444 251.247 254.978C251.799 258.133 252.578 261.245 253.577 264.288C254.517 267.288 255.217 269.048 253.717 271.718C252.547 273.788 247.767 278.178 244.207 280.588C239.367 283.878 235.727 282.538 236.467 279.488C237.207 276.438 238.257 271.488 238.587 270.698C238.587 270.698 239.717 269.308 243.417 270.228C246.877 271.078 247.097 273.548 249.187 270.318C251.077 267.398 251.447 258.628 247.017 251.628C241.957 243.708 244.187 240.258 244.187 240.258Z" fill="#50BFA5"/>
<path d="M199.536 287.808C200.606 284.598 200.976 280.268 201.176 275.688C201.276 273.288 201.326 269.988 201.296 265.538C201.296 265.388 200.086 238.238 199.486 224.198C198.116 192.138 199.166 194.818 200.386 178.418L204.086 147.098C204.086 147.098 196.516 142.738 191.846 131.788C189.516 126.328 188.246 113.788 188.926 109.558C188.926 109.558 193.256 115.968 208.746 115.308C224.586 114.638 227.856 109.638 227.856 109.638C228.796 113.258 230.936 114.188 236.006 122.638C240.084 128.764 241.714 136.197 240.576 143.468C239.576 151.318 236.896 158.078 233.446 171.148C229.996 184.218 222.376 205.418 222.376 205.418C224.076 215.478 225.376 218.028 221.876 236.148C220.016 245.738 214.696 267.468 215.526 269.798C215.792 270.465 216.145 271.094 216.576 271.668C216.576 271.668 215.216 282.068 213.836 289.388C212.456 296.708 212.086 300.698 207.436 302.258C202.786 303.818 192.266 303.038 191.136 302.518C190.006 301.998 194.846 296.518 194.846 296.518C196.867 293.885 198.45 290.944 199.536 287.808Z" fill="url(#paint0_linear)"/>
<path d="M220.116 280.578C219.986 282.298 218.726 284.358 218.346 287.058C217.901 290.13 217.757 293.238 217.916 296.338C218.096 300.128 218.126 300.668 218.126 300.668L216.946 300.718C216.946 300.718 216.696 295.248 216.576 292.838C216.456 290.428 215.866 288.648 214.696 288.448C214.696 288.448 214.426 280.848 220.116 280.578Z" fill="#BA68C8"/>
<path opacity="0.3" d="M220.116 280.578C219.986 282.298 218.726 284.358 218.346 287.058C217.901 290.13 217.757 293.238 217.916 296.338C218.096 300.128 218.126 300.668 218.126 300.668L216.946 300.718C216.946 300.718 216.696 295.248 216.576 292.838C216.456 290.428 215.866 288.648 214.696 288.448C214.696 288.448 214.426 280.848 220.116 280.578Z" fill="#50BFA5"/>
<path d="M216.046 270.488C216.866 272.488 218.876 274.398 219.916 277.418C220.326 278.696 220.326 280.07 219.916 281.348C219.026 282.348 218.426 282.728 217.766 283.428C216.559 284.47 215.631 285.797 215.066 287.288C214.005 290.412 213.163 293.607 212.546 296.848C211.896 300.048 211.666 301.968 208.986 303.628C206.896 304.918 200.396 306.508 195.986 306.928C189.986 307.488 187.356 304.468 189.536 302.088C191.716 299.708 194.116 297.088 194.786 296.558C196.684 296.266 198.625 296.477 200.416 297.168C203.826 298.518 204.966 300.448 208.416 298.568C211.576 296.868 213.416 290.688 212.856 282.158C212.346 272.488 216.046 270.488 216.046 270.488Z" fill="#50BFA5"/>
<path d="M188.027 109.558C187.287 117.168 185.027 134.398 184.737 149.558C184.604 161.956 185.423 174.346 187.187 186.618C188.487 193.358 190.657 199.288 192.187 204.898C192.187 204.898 200.137 214.388 211.637 213.788C223.137 213.188 230.207 207.328 231.297 203.788C229.417 200.588 226.747 193.998 228.637 189.218C230.527 184.438 241.397 149.698 241.637 142.988C241.877 136.278 242.147 130.138 236.027 119.558C229.907 108.978 229.607 107.228 229.607 107.228L188.027 109.558Z" fill="#455A64"/>
<path d="M199.677 209.798C198.967 204.108 198.457 190.978 202.497 163.708C198.947 174.828 196.767 187.238 197.047 193.958C197.327 200.678 199.677 209.798 199.677 209.798Z" fill="#37474F"/>
<path d="M196.277 62.598C188.877 64.868 187.477 66.598 180.937 71.798C174.737 76.798 154.847 92.068 151.237 95.628C148.617 98.218 165.897 103.628 166.237 103.628C166.577 103.628 194.077 87.578 194.077 87.578L196.277 62.598Z" fill="#455A64"/>
<path d="M171.526 99.948C168.776 97.668 162.966 93.058 157.196 94.948C161.366 94.828 169.316 101.118 169.746 101.528C170.426 101.148 171.176 100.708 171.976 100.248L171.526 99.948Z" fill="#37474F"/>
<path d="M217.377 13.978C219.185 13.0214 221.186 12.4843 223.231 12.4064C225.275 12.3285 227.311 12.7118 229.187 13.528C234.327 16.028 235.357 18.838 235.987 24.798C236.987 33.798 237.647 36.438 238.777 38.448C239.257 39.3232 239.907 40.094 240.688 40.7155C241.469 41.337 242.366 41.7968 243.327 42.068C242.585 42.5591 241.729 42.8519 240.841 42.9184C239.954 42.9849 239.064 42.823 238.257 42.448C239.257 46.728 240.677 50.318 239.707 54.908C239.073 58.2265 237.537 61.3061 235.267 63.808C233.317 65.748 230.447 66.418 228.067 67.558C229.587 63.998 230.357 60.658 229.067 56.748C227.677 52.438 224.647 48.838 223.207 44.488C221.207 38.488 218.957 32.278 218.207 25.968C217.677 20.628 217.457 17.648 217.377 13.978Z" fill="#263238"/>
<path d="M216.536 13.608C217.076 12.678 220.536 12.118 223.316 13.928C226.096 15.738 228.316 18.928 226.436 21.498C224.666 23.948 212.886 17.258 216.536 13.608Z" fill="url(#paint1_linear)"/>
<path d="M227.516 61.648C232.706 63.648 234.317 64.248 234.317 64.248C235.397 67.078 239.127 74.468 237.857 82.068C236.587 89.668 232.696 105.778 233.527 108.948C234.357 112.118 240.037 121.948 241.597 131.468C239.805 133.175 237.786 134.626 235.597 135.778C235.597 135.778 233.367 126.578 231.877 122.288C231.877 130.158 232.007 136.528 232.007 136.528C232.007 136.528 224.686 141.368 200.366 139.048C187.366 137.808 185.086 132.668 185.086 132.668C185.086 132.668 187.676 111.538 187.676 106.548V93.278C186.354 91.8247 185.361 90.1028 184.765 88.2302C184.17 86.3575 183.986 84.3783 184.227 82.428C184.857 75.378 193.847 64.928 196.227 62.598C198.127 61.838 206.697 58.968 206.697 58.968L227.516 61.648Z" fill="#37474F"/>
<path d="M222.267 61.198C221.527 64.908 220.047 65.808 215.847 70.418C211.647 75.028 198.497 87.598 197.287 93.048C196.497 88.368 195.427 82.108 196.657 76.638C197.887 71.168 200.887 63.898 205.607 60.198L221.857 59.508L222.267 61.198Z" fill="url(#paint2_linear)"/>
<path d="M193.627 33.148C189.707 18.668 203.047 11.268 216.327 13.608C220.697 14.368 226.327 16.878 226.947 23.108C232.717 24.918 235.497 32.648 231.947 40.908C229.357 46.908 224.187 49.908 221.837 53.558L193.627 33.148Z" fill="#263238"/>
<path d="M227.188 35.218C223.478 33.598 221.608 37.478 221.608 37.478C219.198 38.988 217.808 34.148 217.278 32.688C216.348 30.138 215.478 26.518 212.658 25.458C210.558 24.668 208.188 25.458 206.268 26.598C205.696 26.9412 205.061 27.1635 204.4 27.2512C203.74 27.339 203.068 27.2902 202.428 27.108C201.278 26.798 200.918 24.998 199.868 24.438C196.868 22.818 194.518 27.788 194.098 30.168C193.548 33.3438 193.313 36.5661 193.398 39.788C193.618 50.568 197.238 54.958 199.068 55.948C200.898 56.938 203.158 57.198 206.768 56.898L206.718 60.088C205.149 63.5873 204.27 67.356 204.128 71.188C212.068 68.568 216.868 64.978 221.838 60.238V45.768C222.518 47.178 225.708 47.848 227.688 45.318C230.258 42.028 230.768 36.768 227.188 35.218Z" fill="url(#paint3_linear)"/>
<path d="M208.188 46.828L203.188 48.388C203.275 48.725 203.43 49.0409 203.642 49.3168C203.854 49.5927 204.12 49.8229 204.424 49.9937C204.727 50.1646 205.062 50.2725 205.408 50.311C205.754 50.3495 206.104 50.3179 206.438 50.218C207.111 49.989 207.67 49.5079 207.996 48.8758C208.322 48.2437 208.391 47.5097 208.188 46.828Z" fill="#B16668"/>
<path d="M207.807 47.988C207.137 47.9696 206.481 48.1822 205.949 48.5901C205.418 48.9979 205.043 49.5763 204.887 50.228C205.365 50.3778 205.878 50.3778 206.357 50.228C206.835 50.0734 207.261 49.7884 207.586 49.405C207.911 49.0216 208.122 48.5551 208.197 48.058C208.069 48.0234 207.938 48 207.807 47.988Z" fill="#F28F8F"/>
<path d="M206.787 56.898C210.277 56.368 216.657 54.658 217.717 51.788C217.717 51.788 217.877 54.118 215.177 56.178C212.917 57.898 206.747 58.968 206.747 58.968L206.787 56.898Z" fill="#F0997A"/>
<path d="M195.847 31.948L199.417 30.818C199.355 30.5813 199.246 30.3597 199.096 30.1667C198.945 29.9737 198.757 29.8133 198.543 29.6954C198.329 29.5775 198.093 29.5045 197.849 29.4809C197.606 29.4573 197.36 29.4835 197.127 29.558C196.652 29.7229 196.257 30.0602 196.02 30.503C195.783 30.9458 195.721 31.4617 195.847 31.948Z" fill="#263238"/>
<path d="M212.627 32.908L209.087 31.708C209.154 31.4735 209.268 31.2551 209.422 31.0659C209.576 30.8768 209.766 30.7209 209.983 30.6078C210.199 30.4946 210.435 30.4265 210.678 30.4077C210.922 30.3888 211.166 30.4195 211.397 30.498C211.867 30.6726 212.254 31.0172 212.481 31.4634C212.709 31.9097 212.761 32.4252 212.627 32.908Z" fill="#263238"/>
<path d="M196.077 37.228C196.064 37.5284 196.139 37.8259 196.295 38.0835C196.45 38.341 196.677 38.5471 196.949 38.6761C197.221 38.805 197.524 38.8511 197.822 38.8085C198.119 38.7659 198.398 38.6366 198.623 38.4367C198.847 38.2368 199.008 37.9751 199.085 37.6844C199.161 37.3937 199.151 37.0868 199.054 36.8021C198.957 36.5174 198.779 36.2675 198.541 36.0836C198.303 35.8997 198.016 35.7899 197.717 35.768C197.306 35.7461 196.903 35.8872 196.596 36.1606C196.289 36.434 196.102 36.8176 196.077 37.228Z" fill="#263238"/>
<path d="M207.567 38.088C207.554 38.3884 207.63 38.6859 207.785 38.9435C207.94 39.201 208.168 39.4071 208.439 39.5361C208.711 39.665 209.014 39.7111 209.312 39.6685C209.61 39.626 209.888 39.4966 210.113 39.2967C210.337 39.0968 210.498 38.8351 210.575 38.5444C210.651 38.2537 210.641 37.9468 210.544 37.6621C210.448 37.3774 210.269 37.1275 210.031 36.9436C209.793 36.7597 209.507 36.6499 209.207 36.628C208.796 36.6061 208.394 36.7472 208.086 37.0206C207.779 37.294 207.593 37.6776 207.567 38.088Z" fill="#263238"/>
<path d="M189.417 33.618C189.509 34.2092 189.758 34.765 190.137 35.228C190.277 35.3929 190.376 35.588 190.427 35.798C190.671 37.2495 191.026 38.6803 191.487 40.078C191.848 41.0134 192.477 41.8216 193.296 42.4014C194.114 42.9813 195.085 43.307 196.087 43.338C196.602 43.3954 197.122 43.3954 197.637 43.338H197.757C198.195 43.268 198.618 43.1225 199.007 42.908H199.087L199.187 42.848L199.327 42.758L199.447 42.678L199.587 42.568L199.717 42.458L199.957 42.228C200.377 41.7724 200.715 41.2481 200.957 40.678C201.597 39.228 201.387 37.148 202.467 36.968H202.737C204.207 37.068 204.087 39.318 204.927 40.968C205.401 42.0123 206.164 42.8989 207.127 43.5228C208.089 44.1466 209.21 44.4816 210.357 44.488H210.767H211.097C211.352 44.4814 211.605 44.458 211.857 44.418H212.107L212.327 44.358H212.477C212.775 44.2678 213.063 44.1472 213.337 43.998L213.617 43.818C213.792 43.6923 213.959 43.5553 214.117 43.408C214.52 42.9888 214.839 42.4967 215.057 41.958C215.442 40.6031 215.713 39.2182 215.867 37.818C215.904 37.6049 215.982 37.4011 216.097 37.218C216.478 36.8142 216.72 36.2991 216.787 35.748C216.799 35.4529 216.719 35.1615 216.558 34.9141C216.396 34.6668 216.162 34.4759 215.887 34.368L215.097 34.218C212.545 33.6881 209.924 33.58 207.337 33.898C204.887 34.428 204.037 35.178 202.667 35.078C201.297 34.978 200.537 34.078 198.197 33.228C195.832 32.5608 193.369 32.3038 190.917 32.468C190.667 32.468 190.417 32.468 190.187 32.468C189.767 32.358 189.357 32.938 189.417 33.618ZM205.637 36.038C205.823 35.8075 206.059 35.6227 206.327 35.498L206.457 35.438H206.517L206.867 35.288L207.187 35.178C207.514 35.0651 207.848 34.9749 208.187 34.908L208.607 34.828C208.965 34.7716 209.325 34.7348 209.687 34.718H209.937C212.307 34.658 213.797 35.298 214.337 35.808C214.877 36.318 214.687 38.518 214.477 39.618V39.708C214.477 39.708 214.477 39.768 214.477 39.798C214.477 39.828 214.427 40.078 214.387 40.238C214.347 40.398 214.387 40.418 214.307 40.508C214.307 40.658 214.217 40.808 214.157 40.968L214.097 41.128V41.218C214.097 41.218 214.097 41.288 214.047 41.318L213.987 41.448C213.987 41.448 213.987 41.548 213.907 41.588L213.817 41.748L213.707 41.898C213.339 42.406 212.838 42.8033 212.26 43.0466C211.682 43.2899 211.048 43.37 210.427 43.278C209.767 43.2739 209.114 43.1373 208.508 42.8761C207.901 42.615 207.354 42.2348 206.897 41.758C206.325 41.0931 205.921 40.3011 205.717 39.448C205.377 38.148 205.187 36.708 205.637 36.038ZM191.637 34.118C191.808 33.973 192.005 33.8611 192.217 33.788L192.477 33.698H192.627H192.757H192.847H192.977L193.527 33.638H194.137H194.517H194.777C195.146 33.6703 195.514 33.7237 195.877 33.798C197.567 34.138 199.347 35.008 199.817 35.728C200.23 36.8075 200.297 37.989 200.007 39.108C199.964 39.3866 199.897 39.661 199.807 39.928C199.811 39.9478 199.811 39.9682 199.807 39.988V40.078C199.811 40.1112 199.811 40.1448 199.807 40.178L199.717 40.378L199.637 40.548C199.64 40.5679 199.64 40.5881 199.637 40.608L199.577 40.718L199.507 40.818C199.123 41.3674 198.588 41.7939 197.967 42.0459C197.346 42.2979 196.665 42.3646 196.007 42.238C195.369 42.1976 194.747 42.0166 194.187 41.708C193.556 41.2806 193.021 40.728 192.613 40.0846C192.205 39.4411 191.934 38.7207 191.817 37.968C191.537 36.798 191.187 34.578 191.667 34.118H191.637Z" fill="#37474F"/>
<path d="M215.987 34.398L223.177 35.618C222.627 36.0679 222.154 36.605 221.777 37.208L215.947 36.208L215.987 34.398Z" fill="#37474F"/>
<path d="M203.327 37.058L202.327 45.848L197.187 44.028L202.797 36.858C202.986 36.8829 203.168 36.9513 203.327 37.058Z" fill="#F0997A"/>
<path d="M223.307 44.008C223.307 44.279 223.387 44.5438 223.538 44.7691C223.688 44.9944 223.902 45.17 224.152 45.2737C224.403 45.3774 224.678 45.4045 224.944 45.3517C225.21 45.2988 225.454 45.1683 225.645 44.9767C225.837 44.7851 225.967 44.541 226.02 44.2753C226.073 44.0095 226.046 43.7341 225.942 43.4837C225.839 43.2334 225.663 43.0194 225.438 42.8689C225.213 42.7184 224.948 42.638 224.677 42.638C224.496 42.6367 224.318 42.6712 224.151 42.7396C223.984 42.808 223.832 42.9088 223.705 43.0363C223.578 43.1638 223.477 43.3153 223.408 43.4822C223.34 43.649 223.305 43.8277 223.307 44.008Z" fill="#FAFAFA"/>
<path d="M221.847 57.848V59.508C218.864 63.6822 215.652 67.6883 212.227 71.508C205.847 78.508 200.407 83.888 198.447 88.758C197.152 92.2992 196.247 95.9708 195.747 99.708C197.333 94.1601 200.638 89.2584 205.187 85.708C209.807 82.008 217.267 79.168 218.677 76.818C220.087 74.468 217.337 71.518 217.337 71.518C219.919 70.6834 222.382 69.5205 224.667 68.058C227.447 66.058 227.507 61.678 227.507 61.678L221.847 57.848Z" fill="#263238"/>
<path d="M206.737 60.088C202.815 64.0863 200.098 69.1078 198.897 74.578C197.717 80.838 197.207 95.078 197.207 95.078C197.207 95.078 195.547 85.458 194.637 81.378C193.727 77.298 193.267 74.148 197.717 69.948C196.627 68.048 196.427 67.328 198.717 64.558C199.962 63.0252 201.42 61.6783 203.047 60.558L206.697 58.228L206.737 60.088Z" fill="#263238"/>
<path d="M172.417 103.148C173.017 102.678 174.417 103.558 176.297 104.818C176.758 105.13 177.145 105.54 177.428 106.019C177.712 106.498 177.886 107.034 177.937 107.588C176.789 107.566 175.684 107.149 174.807 106.408C173.768 105.522 172.95 104.405 172.417 103.148Z" fill="#263238"/>
<path d="M170.767 116.228C171.367 115.928 171.557 115.618 170.567 114.948C169.577 114.278 166.317 112.648 166.317 112.648L165.797 113.988C165.797 113.988 169.697 116.648 170.767 116.228Z" fill="black"/>
<path d="M170.747 109.998C171.587 108.998 173.637 106.378 175.267 106.768C177.837 107.388 179.127 108.158 183.017 109.258C185.827 110.058 189.267 110.778 190.087 111.478C190.907 112.178 191.087 113.478 191.417 114.738C192.013 116.901 192.25 119.148 192.117 121.388C192.082 121.683 191.983 121.967 191.828 122.221C191.673 122.474 191.464 122.691 191.217 122.856C190.97 123.021 190.69 123.131 190.397 123.178C190.103 123.225 189.803 123.208 189.517 123.128C189.377 123.618 188.967 124.708 187.057 124.638C187.057 125.348 186.117 126.348 184.427 126.288C184.347 127.078 182.927 127.578 181.867 127.288C180.407 126.898 178.667 125.188 177.687 124.588C176.707 123.988 176.247 123.778 176.157 123.318C176.027 122.688 176.617 121.948 177.777 121.868C176.351 121.717 175.003 121.142 173.907 120.218C173.027 119.365 172.254 118.408 171.607 117.368C171.1 116.49 170.42 115.724 169.607 115.118C168.107 113.898 169.657 111.458 170.517 110.278L170.747 109.998Z" fill="url(#paint4_linear)"/>
<path d="M177.776 121.878C178.209 122.012 178.622 122.2 179.006 122.438C179.19 122.561 179.364 122.698 179.526 122.848C179.686 122.998 179.826 123.178 180.006 123.348L180.096 123.438L180.196 123.358C180.829 122.984 181.542 122.768 182.276 122.728C181.502 122.558 180.692 122.694 180.016 123.108H180.216C179.907 122.755 179.542 122.454 179.136 122.218C178.713 122.008 178.249 121.892 177.776 121.878Z" fill="#B16668"/>
<path d="M180.917 125.138C180.767 124.788 180.587 124.518 180.477 124.198C180.367 123.878 180.237 123.578 180.107 123.198C179.998 123.559 180.027 123.947 180.187 124.288C180.326 124.646 180.584 124.946 180.917 125.138Z" fill="#B16668"/>
<path d="M184.427 126.288C184.712 125.353 184.81 124.371 184.717 123.398C184.654 122.422 184.403 121.468 183.977 120.588C184.195 121.518 184.336 122.465 184.397 123.418C184.492 124.372 184.502 125.332 184.427 126.288Z" fill="#B16668"/>
<path d="M187.056 124.638C187.274 123.492 187.348 122.323 187.276 121.158C187.227 119.984 186.987 118.825 186.566 117.728C186.774 118.865 186.907 120.014 186.966 121.168C187.056 122.318 187.036 123.478 187.056 124.638Z" fill="#B16668"/>
<path d="M189.517 123.128C190.183 120.804 189.984 118.317 188.957 116.128C189.268 117.273 189.473 118.445 189.567 119.628C189.647 120.794 189.631 121.965 189.517 123.128Z" fill="#B16668"/>
<path d="M188.506 114.288C188.477 114 188.381 113.723 188.226 113.478C188.061 113.226 187.838 113.017 187.576 112.868C187.059 112.61 186.484 112.49 185.906 112.518L186.696 112.798C186.952 112.886 187.2 112.996 187.436 113.128C187.901 113.399 188.274 113.803 188.506 114.288Z" fill="#B16668"/>
<path d="M185.987 115.778C185.962 115.489 185.866 115.211 185.707 114.968C185.536 114.721 185.314 114.513 185.057 114.358C184.539 114.1 183.964 113.98 183.387 114.008L184.177 114.298C184.434 114.378 184.682 114.485 184.917 114.618C185.386 114.883 185.761 115.289 185.987 115.778Z" fill="#B16668"/>
<path d="M182.967 117.798C182.942 117.506 182.846 117.224 182.687 116.978C182.522 116.729 182.299 116.523 182.037 116.378C181.52 116.12 180.945 116 180.367 116.028L181.157 116.308C181.413 116.396 181.661 116.506 181.897 116.638C182.369 116.9 182.744 117.307 182.967 117.798Z" fill="#B16668"/>
<path d="M171.187 116.618C168.767 113.948 156.037 109.888 152.767 106.268C150.327 103.568 148.957 101.338 149.067 99.528C149.147 98.6084 149.495 97.7324 150.067 97.008C151.07 95.6966 152.483 94.7581 154.081 94.3414C155.679 93.9248 157.37 94.0538 158.887 94.708C161.034 95.6147 163.096 96.7124 165.047 97.988C169.757 101.058 174.787 106.818 178.627 107.878L171.187 116.618Z" fill="url(#paint5_linear)"/>
<path d="M166.847 104.848L170.297 103.008C170.695 102.827 171.13 102.741 171.567 102.757C172.005 102.772 172.432 102.889 172.817 103.098L176.127 105.178C176.269 105.246 176.39 105.35 176.478 105.48C176.566 105.61 176.617 105.761 176.627 105.918C176.627 106.118 176.627 106.838 176.627 107.038C176.604 107.192 176.541 107.338 176.444 107.461C176.348 107.583 176.221 107.679 176.077 107.738L172.627 109.568C172.23 109.753 171.794 109.842 171.356 109.826C170.918 109.811 170.49 109.691 170.107 109.478L166.797 107.408C166.66 107.34 166.542 107.238 166.454 107.112C166.367 106.986 166.313 106.84 166.297 106.688C166.297 106.488 166.297 105.748 166.297 105.548C166.316 105.392 166.377 105.245 166.474 105.121C166.571 104.998 166.7 104.903 166.847 104.848Z" fill="#37474F"/>
<path d="M176.126 105.178L172.816 103.098C172.432 102.889 172.004 102.772 171.567 102.757C171.13 102.741 170.695 102.827 170.296 103.008L166.846 104.848C166.136 105.218 166.116 105.848 166.796 106.298L170.106 108.368C170.489 108.581 170.917 108.701 171.356 108.716C171.794 108.732 172.229 108.643 172.626 108.458L176.076 106.628C176.786 106.258 176.806 105.608 176.126 105.178Z" fill="#455A64"/>
<path d="M171.367 108.358C171.743 108.375 172.117 108.299 172.457 108.138L175.907 106.308C176.127 106.188 176.257 106.048 176.257 105.908C176.257 105.768 176.147 105.618 175.937 105.488L172.617 103.408C172.292 103.226 171.928 103.127 171.557 103.118C171.181 103.096 170.805 103.172 170.467 103.338L167.017 105.168C166.797 105.278 166.667 105.428 166.657 105.568C166.647 105.708 166.777 105.858 166.987 105.988L170.297 108.068C170.624 108.251 170.992 108.351 171.367 108.358Z" fill="#263238"/>
<path d="M173.107 108.838H173.187L175.637 107.538C175.665 107.521 175.686 107.494 175.695 107.463C175.705 107.431 175.702 107.397 175.687 107.368C175.681 107.352 175.671 107.337 175.659 107.325C175.646 107.314 175.631 107.305 175.615 107.3C175.598 107.295 175.581 107.294 175.564 107.297C175.547 107.3 175.531 107.308 175.517 107.318L173.067 108.608C173.052 108.616 173.038 108.628 173.027 108.641C173.016 108.655 173.008 108.671 173.004 108.687C172.999 108.704 172.998 108.722 173 108.739C173.002 108.756 173.008 108.773 173.017 108.788C173.027 108.803 173.04 108.815 173.056 108.824C173.071 108.833 173.089 108.838 173.107 108.838Z" fill="#455A64"/>
<path d="M169.937 108.818C169.417 109.078 168.327 110.018 168.187 112.288C168.047 114.558 169.477 116.178 170.767 116.228C170.377 116.588 169.257 116.328 167.767 115.568L166.557 114.928C166.079 114.677 165.669 114.314 165.363 113.87C165.056 113.426 164.862 112.914 164.797 112.378C164.767 112.045 164.767 111.711 164.797 111.378C164.79 110.526 164.965 109.682 165.31 108.902C165.655 108.123 166.162 107.426 166.797 106.858L169.937 108.818Z" fill="#263238"/>
<path d="M226.907 183.908C227.593 184.209 228.357 184.283 229.087 184.118C236.707 181.938 256.957 163.498 261.087 157.738C263.997 152.738 252.247 120.158 252.247 120.158L223.787 140.018L226.907 183.908Z" fill="url(#paint6_linear)"/>
<path d="M219.567 138.538L223.767 140.018C223.767 140.018 228.767 181.338 228.917 183.758C229.067 186.178 215.157 178.368 215.337 174.368C215.517 170.368 219.567 138.538 219.567 138.538Z" fill="url(#paint7_linear)"/>
<path opacity="0.15" d="M219.567 138.538L223.767 140.018C223.767 140.018 228.767 181.338 228.917 183.758C229.067 186.178 215.157 178.368 215.337 174.368C215.517 170.368 219.567 138.538 219.567 138.538Z" fill="black"/>
<path d="M219.566 138.538L247.616 118.598C247.616 118.598 251.966 118.138 253.616 121.858C255.266 125.578 256.966 133.858 254.726 139.638C252.486 145.418 239.606 154.938 234.286 155.118C228.966 155.298 226.846 154.118 224.286 144.648C222.886 139.278 219.566 138.538 219.566 138.538Z" fill="url(#paint8_linear)"/>
<path opacity="0.2" d="M219.566 138.538L247.616 118.598C247.616 118.598 251.966 118.138 253.616 121.858C255.266 125.578 256.966 133.858 254.726 139.638C252.486 145.418 239.606 154.938 234.286 155.118C228.966 155.298 226.846 154.118 224.286 144.648C222.886 139.278 219.566 138.538 219.566 138.538Z" fill="white"/>
<path d="M246.447 145.858C248.177 144.698 248.117 142.428 246.107 142.468C244.777 142.468 243.047 143.768 243.267 145.238C243.487 146.708 245.387 146.568 246.447 145.858Z" fill="#37474F"/>
<path d="M234.317 64.248C232.477 65.178 228.437 67.938 226.747 86.168C225.247 102.438 224.007 143.628 224.007 143.628L219.427 140.498C219.427 140.498 221.007 97.708 222.627 85.778C224.417 72.528 226.057 66.548 230.497 62.778C231.853 63.0169 233.15 63.5161 234.317 64.248Z" fill="url(#paint9_linear)"/>
<path opacity="0.35" d="M234.317 64.248C232.477 65.178 228.437 67.938 226.747 86.168C225.247 102.438 224.007 143.628 224.007 143.628L219.427 140.498C219.427 140.498 221.007 97.708 222.627 85.778C224.417 72.528 226.057 66.548 230.497 62.778C231.853 63.0169 233.15 63.5161 234.317 64.248Z" fill="black"/>
<path d="M254.267 143.048C255.267 137.758 258.267 125.328 260.077 114.908C261.167 108.578 259.967 106.548 258.707 103.158C257.447 99.768 252.107 85.358 249.637 79.288C247.167 73.218 246.637 70.578 243.637 68.538C241.957 67.408 240.037 67.138 235.107 65.888C232.438 73.5343 232.658 81.893 235.727 89.388L245.067 112.208C245.067 112.208 244.067 137.658 242.887 140.588C241.307 144.588 239.517 145.898 238.177 148.708C237.267 150.608 236.347 153.788 235.177 155.548C234.877 155.978 234.577 156.638 235.007 156.948C235.132 157.028 235.278 157.07 235.427 157.068C236.166 157.041 236.891 156.859 237.556 156.536C238.22 156.212 238.81 155.753 239.287 155.188C240.057 154.328 240.687 152.878 241.457 152.008C241.727 151.698 241.897 152.228 241.767 153.508C241.63 154.438 241.412 155.355 241.117 156.248C240.577 158.13 239.857 159.955 238.967 161.698C238.647 162.338 237.967 163.348 237.717 164.008C237.277 165.008 236.207 167.378 237.717 168.008C238.157 168.188 238.717 167.408 239.077 167.068C239.341 166.807 239.588 166.53 239.817 166.238C240.095 166.475 240.452 166.6 240.817 166.588C241.544 166.418 242.21 166.047 242.737 165.518C242.957 165.618 243.196 165.67 243.437 165.67C243.679 165.67 243.917 165.618 244.137 165.518C244.764 165.307 245.34 164.966 245.827 164.518C246.198 164.522 246.568 164.479 246.927 164.388C248.877 163.608 249.607 162.198 250.427 160.628C251.477 158.628 251.957 157.738 252.607 156.278C253.046 154.709 253.337 153.102 253.477 151.478C253.817 148.708 253.757 145.838 254.267 143.048Z" fill="url(#paint10_linear)"/>
<path d="M234.317 64.248C236.247 64.938 239.267 66.168 240.697 66.828C242.857 67.828 245.647 69.018 247.367 72.898C249.087 76.778 252.457 85.818 254.507 91.318C256.557 96.818 259.767 105.058 260.437 106.928C261.267 109.268 260.817 111.008 260.337 114.708C259.857 118.408 258.137 124.998 258.137 124.998C256.221 123.623 253.925 122.878 251.567 122.868C248.964 122.766 246.398 123.513 244.257 124.998L244.777 112.518C244.777 112.518 234.777 92.458 233.267 89.078C231.757 85.698 228.187 70.918 234.317 64.248Z" fill="#455A64"/>
<path d="M101.699 253.708C101.389 251.708 104.969 249.708 106.619 248.128C109.159 245.638 109.979 240.618 110.379 237.318C110.879 233.208 111.289 230.318 109.289 226.318C106.929 221.558 103.959 215.898 91.9287 201.578L110.829 194.578C113.619 200.718 120.089 213.448 120.089 213.448L120.689 214.568C121.844 216.709 123.182 218.747 124.689 220.658L126.509 222.258C128.639 224.258 130.889 225.178 130.809 228.258C130.709 232.258 128.619 232.968 126.479 235.968C124.834 237.867 123.826 240.235 123.599 242.738C123.119 245.898 123.149 247.288 122.819 250.128C122.539 252.518 119.959 255.708 115.309 256.698C108.539 258.178 102.189 256.858 101.699 253.708Z" fill="#B16668"/>
<path d="M132.469 229.358C133.409 230.938 134.339 236.978 134.829 239.358L130.919 244.448L127.309 236.648C129.71 234.78 131.505 232.243 132.469 229.358Z" fill="#263238"/>
<path d="M130.919 244.488L124.839 243.288L123.929 241.478C125.289 239.858 127.309 236.688 127.309 236.688L130.919 244.488Z" fill="black"/>
<path d="M132.189 228.368C132.189 228.368 132.799 229.928 132.999 230.598C132.849 231.138 132.299 231.888 129.999 234.348C128.069 236.428 126.869 237.128 125.999 241.138C125.438 244.646 124.53 248.089 123.289 251.418C121.709 255.178 117.169 258.068 110.399 258.468C104.629 258.798 102.099 257.888 101.059 257.188C100.875 256.802 100.766 256.384 100.739 255.958C100.649 254.268 101.239 253.728 104.049 252.278C107.429 250.538 132.189 228.368 132.189 228.368Z" fill="#263238"/>
<path d="M132.189 228.408C131.059 231.558 129.799 232.408 127.409 235.048C124.039 238.848 124.409 247.118 121.409 251.748C118.409 256.378 108.079 258.688 100.779 255.958C98.6188 253.628 99.2088 251.218 101.629 249.208C105.449 246.028 107.839 241.988 108.419 238.378C109.249 233.298 109.089 231.238 108.259 228.378C107.788 227.07 107.227 225.797 106.579 224.568C105.969 223.068 105.029 221.568 106.039 220.278C106.289 220.708 106.479 221.108 106.759 221.518C109.329 221.848 112.599 220.568 114.689 219.518C117.105 218.425 119.179 216.697 120.689 214.518C120.449 214.078 120.259 213.748 120.049 213.328C121.869 213.138 122.649 215.958 123.279 216.998C124.699 219.368 125.729 221.128 127.889 222.768C129.719 224.188 131.739 225.918 132.189 228.408Z" fill="url(#paint11_linear)"/>
<path d="M45.6089 288.708C47.1951 289.175 48.8359 289.43 50.4889 289.468C52.0909 289.418 53.6862 289.237 55.2589 288.928C56.1734 288.768 57.047 288.428 57.8289 287.928C59.9751 286.806 61.9105 285.321 63.5489 283.538C64.6174 282.25 65.546 280.852 66.3189 279.368C67.0514 278.037 67.9448 276.801 68.9789 275.688C69.5673 275.032 70.2398 274.457 70.9789 273.978C71.9511 273.52 72.9534 273.129 73.9789 272.808C74.8681 272.418 75.7047 271.917 76.4689 271.318C77.082 270.857 77.573 270.252 77.8989 269.558C78.235 268.871 78.3932 268.111 78.3589 267.348C78.1853 266.109 77.8491 264.899 77.3589 263.748C76.9818 262.71 76.7039 261.638 76.5289 260.548C76.3888 259.276 76.3688 257.994 76.4689 256.718C76.3497 255.642 76.2896 254.56 76.2889 253.478L76.5089 252.018C77.339 245.901 78.4771 239.83 79.9189 233.828L61.2689 224.708C61.1889 231.408 61.2689 237.468 61.0089 244.168C61.0089 245.358 60.9089 248.718 60.9189 251.458V252.888C60.9927 254.664 60.9727 256.443 60.8589 258.218C60.5309 260.142 60.0765 262.043 59.4989 263.908C58.2412 267.021 56.5586 269.946 54.4989 272.598C52.9634 274.49 51.1847 276.171 49.2089 277.598C48.6289 278.068 47.9589 278.418 47.3689 278.888C46.5879 279.463 45.7731 279.991 44.9289 280.468C44.2489 280.898 43.6389 281.468 42.9289 281.888C42.0189 282.448 40.7489 283.088 40.5889 284.288C40.5471 284.735 40.6013 285.185 40.7479 285.61C40.8945 286.034 41.1301 286.422 41.4389 286.748C42.5789 287.878 44.0989 288.238 45.6089 288.708Z" fill="#B16668"/>
<path d="M79.289 272.268C79.289 272.268 78.4989 277.268 78.0889 280.478C76.9131 281.534 75.6015 282.429 74.1889 283.138L72.4189 275.138L79.289 272.268Z" fill="#263238"/>
<path d="M74.1891 283.138L67.5391 281.208C67.5391 281.208 69.1991 277.278 70.8091 276.208C71.7792 275.58 72.926 275.282 74.0791 275.358L74.1891 283.138Z" fill="black"/>
<path d="M41.1885 287.528C40.8785 288.398 41.8585 289.898 44.8485 290.778C49.0985 292.038 56.5585 291.938 61.4985 288.438C64.7066 286.337 67.2903 283.411 68.9785 279.968C70.0785 277.968 70.8985 276.328 74.1285 275.378C77.3585 274.428 78.4685 273.378 79.3385 272.268C79.3385 272.268 80.3885 269.488 78.6885 268.428C76.9885 267.368 41.1885 287.528 41.1885 287.528Z" fill="#263238"/>
<path d="M79.3987 270.888C77.3287 273.048 75.0087 273.688 72.1287 274.508C68.0587 275.668 66.8887 283.348 61.3087 286.998C53.7387 291.948 44.6087 290.488 41.1387 287.528C39.7587 284.938 39.7987 282.948 43.2887 280.638C48.6587 277.068 52.9087 273.008 54.7487 270.108C57.1587 266.308 57.7487 264.108 58.5787 259.728C58.8287 258.468 59.0387 256.648 59.1787 255.378C59.4087 253.378 59.8687 251.458 60.9187 251.378V252.808C62.3187 254.098 66.9187 254.888 69.0187 254.898C71.6287 254.898 74.8487 254.628 76.3787 253.468L76.5987 252.008C78.1887 252.318 77.2887 255.788 77.3287 256.838C77.4187 259.228 77.2187 261.698 78.3287 263.898C79.2887 265.878 80.2887 269.048 79.3987 270.888Z" fill="url(#paint12_linear)"/>
<path d="M94.7288 134.478L82.9087 114.908C82.9087 114.908 65.2187 103.238 58.9087 95.5278C53.7283 107.321 51.6624 120.247 52.9087 133.068C54.7281 149.63 60.6691 165.473 70.1887 179.148C75.3187 186.368 102.649 215.408 102.649 215.408C105.649 215.238 114.549 209.408 115.979 205.258C115.979 205.258 110.519 193.038 107.209 186.718C102.889 178.458 101.749 174.588 92.9188 167.198C94.3588 159.238 94.7288 134.478 94.7288 134.478Z" fill="url(#paint13_linear)"/>
<path d="M112.189 204.148L112.829 203.818L112.519 203.208C104.749 188.288 97.3388 174.408 77.7288 168.338L77.5088 169.028C96.8388 175.028 104.169 188.738 111.879 203.548L112.189 204.148Z" fill="#263238"/>
<path d="M98.8187 172.848L97.9187 171.848L97.5387 171.458C97.2487 171.148 96.9287 170.838 96.6087 170.518L96.1587 170.088C95.8087 169.758 95.4487 169.418 95.0687 169.088L94.6187 168.678C94.0687 168.188 93.5087 167.678 92.8887 167.188C92.9487 166.858 93.0087 166.498 93.0687 166.118C93.0687 166.018 93.0687 165.918 93.0687 165.818C93.1153 165.458 93.1653 165.078 93.2187 164.678C93.2187 164.678 93.2187 164.618 93.2187 164.578C93.2787 164.138 93.3287 163.668 93.3687 163.188C93.3687 163.078 93.3687 162.968 93.3687 162.858C93.3687 162.408 93.4487 161.948 93.4987 161.468C93.4937 161.421 93.4937 161.374 93.4987 161.328C93.4987 160.788 93.5887 160.228 93.6287 159.658C93.6287 159.568 93.6287 159.478 93.6287 159.378L93.7487 157.738V157.628L93.8687 155.718V155.708C93.8687 155.068 93.9487 154.418 93.9787 153.768L69.7387 129.548C69.7387 129.548 61.3387 126.688 57.8887 121.328C59.7687 127.408 66.4187 130.868 66.4187 130.868L62.3187 165.708L62.7387 166.558C62.8987 166.888 63.0587 167.218 63.2287 167.558C63.4887 168.078 63.7487 168.558 64.0187 169.068L64.4087 169.828C64.7887 170.528 65.1687 171.208 65.5387 171.828L65.9487 172.528C66.1987 172.958 66.4487 173.388 66.6987 173.798L67.1387 174.528L67.8187 175.608L68.2287 176.248C68.4587 176.618 68.6887 176.958 68.9187 177.298L69.2287 177.768C69.5487 178.248 69.8687 178.698 70.1587 179.108C72.9187 182.998 82.1587 193.208 90.0287 201.808C90.5487 198.018 90.9687 192.498 89.8387 187.958L98.9987 173.018L98.8187 172.848Z" fill="#263238"/>
<path d="M98.889 155.348C102.779 144.448 105.219 137.548 106.569 129.908C108.499 119.038 106.709 112.828 105.199 109.378C100.669 99.0378 98.199 95.6478 96.489 92.0678C96.489 92.0678 93.069 99.1978 77.609 100.498C59.899 101.998 57.819 95.4978 57.819 95.4978C58.379 102.018 56.459 110.358 58.489 115.808C62.559 126.738 69.859 129.448 69.859 129.448L64.859 159.918C62.929 175.918 61.089 178.698 60.979 210.118C60.929 223.918 60.869 245.808 60.869 245.808C62.999 247.148 73.149 248.658 76.869 247.078C76.869 247.078 80.639 232.908 82.869 223.478C87.109 205.408 87.669 200.768 86.369 192.108C86.349 192.138 94.439 167.838 98.889 155.348Z" fill="url(#paint14_linear)"/>
<path d="M73.6289 247.708C75.3889 239.258 78.8989 222.108 80.4189 213.048C81.4515 207.592 81.7275 202.019 81.2389 196.488C81.0887 194.913 81.0419 193.329 81.0989 191.748C81.3689 186.488 86.1689 169.498 90.2689 157.288C93.8989 146.498 97.6289 135.368 98.7089 128.838H98.3489C96.8891 128.826 95.4775 128.314 94.3489 127.388C90.7189 124.538 88.2389 117.578 86.9889 106.698L87.7089 106.618C88.9189 117.138 91.3689 124.128 94.7989 126.818C95.9361 127.751 97.393 128.203 98.8589 128.078C100.369 117.708 97.6989 110.268 95.3289 103.698C94.6789 101.878 94.0589 100.158 93.5289 98.4178L94.2289 98.2078C94.7489 99.9278 95.3589 101.638 96.0089 103.448C98.4289 110.158 101.169 117.768 99.5389 128.448C98.5389 134.958 94.6989 146.398 90.9889 157.448C87.0789 169.078 82.1189 186.558 81.8489 191.718C81.8007 193.266 81.8508 194.816 81.9989 196.358C82.483 201.95 82.2004 207.582 81.1589 213.098C79.6589 222.098 76.1589 239.048 74.4189 247.568L73.6289 247.708Z" fill="#263238"/>
<path d="M77.2688 247.788C77.2688 247.788 74.2687 249.258 68.0587 248.548C61.8487 247.838 60.7188 245.878 60.7188 245.878V236.818C60.7188 236.818 62.9687 238.928 69.3587 239.628C76.0587 240.358 79.1588 239.078 79.1588 239.078L77.2688 247.788Z" fill="#455A64"/>
<path d="M117.978 209.338C117.978 209.338 117.928 213.088 112.688 216.468C110.338 218.048 107.502 218.74 104.688 218.418L99.3984 212.228C99.3984 212.228 102.398 213.338 107.638 209.588C110.833 207.376 113.051 204.015 113.828 200.208L117.978 209.338Z" fill="#455A64"/>
<path d="M67.188 51.0578C61.3181 51.7578 57.748 52.8178 53.968 58.5078C50.188 64.1978 43.3481 74.0778 37.5081 83.0278L19.6281 77.1278L13.498 87.7778C13.498 87.7778 33.878 98.3578 38.608 99.1478C43.338 99.9378 44.228 98.6878 47.608 95.1478C51.338 91.2478 64.0181 75.9478 64.0181 75.9478L67.188 51.0578Z" fill="url(#paint15_linear)"/>
<path d="M67.1882 50.8478C62.1882 51.4878 58.1882 52.0178 54.1882 57.6178C50.1882 63.2178 37.3182 82.6178 37.3182 82.6178L32.9982 81.5378C33.6256 84.2554 33.6256 87.0802 32.9982 89.7978C32.412 92.1135 30.9444 94.1087 28.9082 95.3578C28.9082 95.3578 31.5882 96.7378 35.2482 98.2478C38.9082 99.7578 42.2482 101.108 45.5582 97.6778C48.8682 94.2478 66.6082 73.9378 66.6082 73.9378L67.1882 50.8478Z" fill="url(#paint16_linear)"/>
<path d="M0.338176 58.5078L1.47818 57.4478C1.6511 57.3239 1.85104 57.243 2.06144 57.2117C2.27185 57.1804 2.48669 57.1996 2.68818 57.2678L15.5882 60.2678C16.2438 60.4517 16.8517 60.7759 17.3697 61.2179C17.8877 61.6599 18.3034 62.2092 18.5882 62.8278L28.8282 88.9578C28.9474 89.1697 29.0007 89.4123 28.9811 89.6546C28.9615 89.8969 28.8699 90.1279 28.7182 90.3178L27.5382 91.4078C27.3665 91.5341 27.1669 91.6173 26.9564 91.6504C26.7458 91.6835 26.5303 91.6654 26.3282 91.5978L13.4282 88.5978C12.7719 88.4122 12.1637 88.0862 11.6457 87.6425C11.1278 87.1988 10.7123 86.6479 10.4282 86.0278C8.42819 80.8978 2.19818 65.0278 0.188183 59.8978C-0.0818175 59.2678 0.00817639 58.7678 0.338176 58.5078Z" fill="#455A64"/>
<path d="M15.8379 61.9778C16.5199 62.4544 17.0592 63.1078 17.3979 63.8678L27.6479 89.9878C27.7599 90.1967 27.8118 90.4326 27.7977 90.6692C27.7835 90.9058 27.704 91.1338 27.5679 91.3278L28.6679 90.3278C28.8237 90.1402 28.9187 89.9095 28.9402 89.6665C28.9616 89.4236 28.9085 89.1798 28.7879 88.9678L18.5479 62.8378C18.2285 62.128 17.7328 61.5118 17.1079 61.0478L15.8379 61.9778Z" fill="#263238"/>
<path d="M27.6382 89.9978L17.3982 63.8678C17.1124 63.2489 16.6964 62.6989 16.1787 62.2554C15.661 61.8119 15.0537 61.4853 14.3982 61.2978L1.49823 58.2978C0.308228 58.0278 -0.301763 58.7278 0.148237 59.8678C2.14824 65.0078 8.37823 80.8678 10.3882 85.9978C10.6724 86.6179 11.0878 87.1688 11.6058 87.6125C12.1237 88.0563 12.7319 88.3822 13.3882 88.5678L26.2882 91.5678C27.4782 91.8378 28.0882 91.1378 27.6382 89.9978Z" fill="#37474F"/>
<path d="M17.5986 69.4278L15.6886 64.5378C15.635 64.4224 15.5572 64.3199 15.4606 64.2371C15.364 64.1543 15.2508 64.0931 15.1286 64.0578L12.7186 63.4978C12.4886 63.4978 12.3786 63.5778 12.4586 63.7978L14.3786 68.6878C14.4311 68.8039 14.5084 68.9072 14.6052 68.9901C14.702 69.073 14.8158 69.1337 14.9386 69.1678L17.3486 69.7178C17.5686 69.7678 17.6886 69.6378 17.5986 69.4278Z" fill="#455A64"/>
<path d="M15.6179 65.7078C15.4788 65.4204 15.2803 65.1657 15.0355 64.9606C14.7907 64.7555 14.5053 64.6046 14.1979 64.5178C13.6179 64.3878 13.3179 64.7078 13.5179 65.2278C13.6561 65.5149 13.8544 65.7688 14.0995 65.9724C14.3445 66.176 14.6304 66.3245 14.9379 66.4078C15.5179 66.5578 15.8179 66.2478 15.6179 65.7078Z" fill="#263238"/>
<path d="M16.5482 68.1978C16.4166 67.9159 16.2277 67.6645 15.9935 67.4596C15.7593 67.2547 15.4851 67.1008 15.1882 67.0078C14.6082 66.8778 14.3082 67.1978 14.5082 67.7178C14.6495 68.0026 14.8488 68.2548 15.0934 68.458C15.3379 68.6612 15.6223 68.811 15.9282 68.8978C16.4582 69.0278 16.7582 68.7078 16.5482 68.1978Z" fill="#263238"/>
<path d="M2.93806 74.2978C1.49806 72.6878 1.58806 72.4378 2.16806 71.4678C2.60284 70.7028 3.213 70.0518 3.94836 69.5685C4.68373 69.0852 5.52331 68.7834 6.39807 68.6878C7.70095 68.4535 9.03518 68.4535 10.3381 68.6878C11.1681 69.0078 10.6781 70.7478 8.72806 71.4178C5.63806 72.4178 5.72806 73.3278 5.72806 73.3278C7.03997 72.8708 8.37517 72.4836 9.72806 72.1678C11.3006 72.1102 12.8753 72.1737 14.4381 72.3578C15.7881 72.4278 16.2381 74.1178 14.0481 74.9578L16.5281 75.0778C18.2681 75.1678 18.9481 76.0078 17.7281 77.2178C17.3281 77.6259 16.8041 77.8897 16.2381 77.9678C16.2381 77.9678 18.0581 77.7678 18.1681 78.3678C18.4681 80.0878 17.3881 80.6678 13.8281 82.1378C10.4281 83.5378 9.91807 85.5078 10.7581 86.7378C10.7581 86.7378 9.24807 86.0678 7.89807 85.3378C6.89807 84.7978 6.04806 84.1678 6.30806 82.6878C6.30806 82.6878 4.30807 82.9378 4.04807 81.6878C3.91705 80.7813 3.98184 79.8572 4.23807 78.9778C3.85552 78.8135 3.52747 78.5439 3.29204 78.2005C3.05661 77.8571 2.92346 77.4539 2.90807 77.0378C2.81841 76.2511 2.99064 75.4568 3.39807 74.7778L2.93806 74.2978Z" fill="url(#paint17_linear)"/>
<path d="M14.0782 74.9578C13.3334 74.8828 12.5829 74.8828 11.8382 74.9578C11.1029 75.1544 10.4016 75.4612 9.75818 75.8678C8.47862 76.6004 7.2612 77.4365 6.11816 78.3678C7.50319 77.8376 8.84123 77.192 10.1182 76.4378C10.711 76.0503 11.3367 75.7157 11.9882 75.4378C12.6082 75.2678 13.3782 75.1678 14.0782 74.9578Z" fill="#9A4A4D"/>
<path d="M16.2685 77.9678C15.4654 77.8258 14.6393 77.8912 13.8685 78.1578C13.1028 78.4227 12.363 78.7575 11.6585 79.1578C10.2581 79.9147 8.94093 80.8163 7.72852 81.8478C9.17883 81.2177 10.5942 80.51 11.9685 79.7278C13.2798 78.8786 14.7381 78.2817 16.2685 77.9678Z" fill="#9A4A4D"/>
<path d="M73.8981 50.2678C73.8981 50.2678 89.018 50.6978 93.688 51.2678C94.538 51.3678 100.048 52.1178 100.048 52.1178C101.668 54.3578 104.438 61.8078 104.558 70.1178C104.628 74.1178 103.048 86.2778 102.148 91.3378C101.798 95.9278 106.268 112.338 106.268 112.338C95.558 121.558 59.2681 121.248 53.0381 109.638C53.0381 109.638 54.108 89.2178 54.238 83.2278C54.238 83.2278 52.068 78.6178 52.118 74.8578C52.178 69.3278 53.208 67.3078 57.868 60.8578C60.5594 57.1509 63.7001 53.7919 67.218 50.8578L73.8981 50.2678Z" fill="url(#paint18_linear)"/>
<path opacity="0.3" d="M73.8981 50.2678C73.8981 50.2678 89.018 50.6978 93.688 51.2678C94.538 51.3678 100.048 52.1178 100.048 52.1178C101.668 54.3578 104.438 61.8078 104.558 70.1178C104.628 74.1178 103.048 86.2778 102.148 91.3378C101.798 95.9278 106.268 112.338 106.268 112.338C95.558 121.558 59.2681 121.248 53.0381 109.638C53.0381 109.638 54.108 89.2178 54.238 83.2278C54.238 83.2278 52.068 78.6178 52.118 74.8578C52.178 69.3278 53.208 67.3078 57.868 60.8578C60.5594 57.1509 63.7001 53.7919 67.218 50.8578L73.8981 50.2678Z" fill="url(#paint19_linear)"/>
<path d="M77.8179 40.8878C75.1266 41.5559 72.2843 41.2255 69.8179 39.9578C67.3779 38.8378 65.3079 41.4078 62.6979 41.1078C62.2054 41.0611 61.7279 40.9126 61.2958 40.6716C60.8637 40.4305 60.4865 40.1024 60.1879 39.7078C59.7579 39.2278 59.4879 38.5778 58.8079 38.4178C58.1279 38.2578 57.6079 38.7278 57.0079 38.7578C56.4667 38.7628 55.9297 38.6609 55.4279 38.4578C54.942 38.2882 54.5109 37.9905 54.18 37.5963C53.8491 37.202 53.6307 36.7258 53.5479 36.2178C53.2879 34.7678 53.5479 34.0678 51.7379 33.7678C49.9279 33.4678 48.4679 32.5678 48.8079 30.5078C49.0179 29.2478 50.4679 27.8478 49.9679 26.6478C49.6179 25.8078 48.8179 25.2478 48.3879 24.4478C47.9976 23.8595 47.8514 23.1424 47.9802 22.4482C48.109 21.754 48.5026 21.1371 49.0779 20.7278C50.0779 19.8878 52.0779 19.5978 52.1579 18.0278C52.2479 16.7078 51.2979 15.5478 51.6479 14.2078C52.1279 12.3478 54.7179 11.3378 56.4379 11.7778L55.6779 11.5578C53.8379 10.9378 51.7879 9.68782 51.4979 7.64782C51.2579 5.97782 52.7979 2.99782 54.7279 3.03782C54.1479 3.22782 54.0779 3.67781 54.0979 4.22781C54.0979 5.49781 55.3679 6.12781 56.5179 6.22781C57.4279 6.29781 58.9879 6.08782 59.4379 5.10782C59.7379 4.46782 59.3179 3.56781 59.4879 2.88781C60.0479 0.577815 62.9479 0.467816 64.7679 1.03782C66.0679 1.43782 66.8779 2.19782 68.2879 2.03782C69.4318 1.81643 70.5506 1.48144 71.6279 1.03782C75.4579 -0.242184 80.1979 -0.502188 83.9279 1.19781C85.6058 1.89226 87.1673 2.83995 88.5579 4.00782C89.9266 5.16485 90.8233 6.78379 91.0779 8.55781C92.3256 8.3263 93.6139 8.46856 94.781 8.96671C95.9481 9.46486 96.942 10.2967 97.6379 11.3578C98.1845 12.5537 98.6359 13.7909 98.9879 15.0578C99.5279 16.4778 101.138 16.9478 102.258 17.8078C103.278 18.5421 103.968 19.6487 104.178 20.8878C104.268 21.7678 103.618 22.5878 103.998 23.4378C104.378 24.2878 105.548 24.8378 105.938 25.9078C106.328 26.9778 106.638 28.6678 106.048 29.6378C105.458 30.6078 104.418 30.7978 103.888 31.6378C103.228 32.6378 103.688 33.9678 103.148 35.0278C102.508 36.2778 101.588 36.2178 100.428 36.5578C98.9279 36.9878 98.9579 37.9278 98.6379 39.2478C98.0679 41.6578 95.7379 42.6178 93.4379 42.7278C92.2079 42.7878 90.8779 42.3478 89.7279 42.8178C86.9379 43.9678 84.8479 45.3678 82.8079 42.2678C82.3813 41.5067 81.7371 40.8904 80.9579 40.4978C79.8479 40.0378 78.9479 40.6478 77.8179 40.8878Z" fill="#263238"/>
<path d="M88.828 47.6078C88.828 45.9378 88.978 37.6778 88.978 37.6778C89.638 38.5578 93.1979 39.7778 95.6479 36.3478C98.4679 32.3478 98.028 29.5478 96.068 27.6478C93.828 25.4778 89.9079 26.0278 88.2679 29.4678C85.6479 30.0578 84.4879 26.0478 86.5179 22.2378C86.3779 17.3478 81.368 17.5678 78.898 11.2378C72.578 14.4978 66.7579 11.8478 62.7179 16.5678C61.8779 18.9278 61.218 22.6378 61.148 29.2678C61.048 40.0778 63.1479 42.6578 66.0579 43.9978C67.8079 44.7878 69.958 44.9978 73.288 44.7678L73.1079 47.5678C73.0379 48.9678 73.158 49.5678 71.788 50.0078C70.868 50.3078 69.048 50.6878 69.048 50.6878C69.048 50.6878 65.0479 54.3878 73.7279 55.6278C86.6579 57.4778 93.728 51.2578 93.728 51.2578L90.6479 50.6978C88.4079 50.2878 88.828 49.2778 88.828 47.6078Z" fill="url(#paint20_linear)"/>
<path d="M93.0282 35.8378C93.0231 36.0094 92.984 36.1783 92.9132 36.3347C92.8424 36.4912 92.7414 36.632 92.6159 36.7492C92.4903 36.8663 92.3429 36.9574 92.1819 37.0173C92.021 37.0771 91.8498 37.1045 91.6782 37.0978C91.4189 37.0897 91.1678 37.0048 90.9568 36.8538C90.7458 36.7028 90.5844 36.4926 90.4931 36.2497C90.4017 36.0069 90.3845 35.7424 90.4437 35.4898C90.5028 35.2372 90.6357 35.0078 90.8253 34.8308C91.015 34.6537 91.253 34.537 91.5091 34.4954C91.7652 34.4538 92.0278 34.4892 92.2638 34.597C92.4998 34.7049 92.6984 34.8804 92.8345 35.1013C92.9706 35.3222 93.038 35.5785 93.0282 35.8378Z" fill="#FAFAFA"/>
<path d="M76.6685 34.7078L71.9785 36.1578C72.0605 36.4684 72.2038 36.7596 72.3999 37.014C72.596 37.2685 72.8411 37.4811 73.1206 37.6395C73.4001 37.7979 73.7084 37.8988 74.0275 37.9363C74.3466 37.9738 74.6699 37.9471 74.9785 37.8578C75.6139 37.6548 76.1455 37.2126 76.4609 36.6248C76.7763 36.037 76.8507 35.3495 76.6685 34.7078Z" fill="#9A4A4D"/>
<path d="M76.3584 35.7878C75.7362 35.7689 75.1265 35.9657 74.6326 36.3447C74.1388 36.7238 73.7911 37.2618 73.6484 37.8678C74.0917 38.0031 74.5652 38.0031 75.0084 37.8678C75.4508 37.7239 75.8451 37.4613 76.1484 37.1086C76.4517 36.7559 76.6524 36.3267 76.7284 35.8678L76.3584 35.7878Z" fill="#F28F8F"/>
<path d="M63.1883 20.5578L66.9483 20.1778C66.9346 19.9323 66.8714 19.692 66.7623 19.4716C66.6533 19.2512 66.5007 19.0551 66.3138 18.8953C66.1269 18.7355 65.9095 18.6152 65.6748 18.5417C65.4401 18.4683 65.1929 18.4431 64.9483 18.4678C64.4445 18.528 63.9825 18.7774 63.6557 19.1654C63.329 19.5535 63.1618 20.0512 63.1883 20.5578Z" fill="#263238"/>
<path d="M80.9187 20.9378L77.1787 20.1678C77.2157 19.9219 77.3024 19.686 77.4336 19.4747C77.5648 19.2634 77.7377 19.0811 77.9417 18.9388C78.1457 18.7966 78.3766 18.6974 78.6202 18.6474C78.8639 18.5973 79.1151 18.5975 79.3587 18.6478C79.8641 18.7542 80.3087 19.052 80.5995 19.4789C80.8903 19.9057 81.0047 20.4285 80.9187 20.9378Z" fill="#263238"/>
<path d="M67.3379 25.3078C67.3606 25.7258 67.2217 26.1365 66.9499 26.4548C66.6781 26.7732 66.2943 26.9748 65.8779 27.0178C65.6734 27.0413 65.4663 27.023 65.2692 26.964C65.072 26.9051 64.8888 26.8067 64.7308 26.6749C64.5728 26.543 64.4432 26.3805 64.3499 26.197C64.2565 26.0136 64.2014 25.8132 64.1879 25.6078C64.1654 25.1893 64.306 24.7784 64.5801 24.4614C64.8543 24.1445 65.2405 23.946 65.6579 23.9078C65.8608 23.8858 66.066 23.9048 66.2614 23.9638C66.4568 24.0228 66.6382 24.1206 66.795 24.2512C66.9518 24.3819 67.0807 24.5428 67.1739 24.7243C67.2672 24.9058 67.3229 25.1043 67.3379 25.3078Z" fill="#263238"/>
<path d="M78.7286 25.7078C78.7537 26.1253 78.6154 26.5362 78.3429 26.8535C78.0704 27.1708 77.6851 27.3696 77.2686 27.4078C77.066 27.4313 76.8607 27.4132 76.6653 27.3547C76.47 27.2961 76.2886 27.1983 76.1322 27.0673C75.9759 26.9363 75.848 26.7747 75.7562 26.5926C75.6645 26.4104 75.6109 26.2114 75.5986 26.0078C75.5735 25.5903 75.7118 25.1794 75.9843 24.8621C76.2568 24.5448 76.6421 24.346 77.0586 24.3078C77.2612 24.2843 77.4665 24.3024 77.6619 24.361C77.8573 24.4195 78.0387 24.5173 78.195 24.6483C78.3513 24.7794 78.4792 24.9409 78.571 25.1231C78.6627 25.3053 78.7164 25.5042 78.7286 25.7078Z" fill="#263238"/>
<path d="M66.0381 31.3678L71.1081 33.5178L71.8081 22.5778L66.0381 31.3678Z" fill="#9A4A4D"/>
<path d="M73.2882 44.7778C79.2882 44.2278 85.0082 42.3278 86.3782 39.6078C86.3576 40.4811 86.1247 41.3363 85.6996 42.0994C85.2745 42.8626 84.6699 43.5107 83.9382 43.9878C80.5182 45.9878 73.1582 46.8978 73.1582 46.8978L73.2882 44.7778Z" fill="#9A4A4D"/>
<path d="M176.188 173.008L159.388 131.788C159.151 131.352 158.827 130.968 158.437 130.661C158.046 130.353 157.598 130.127 157.118 129.998L155.658 129.618C155.472 129.552 155.273 129.528 155.076 129.547C154.879 129.566 154.689 129.628 154.518 129.728L110.188 161.028L131.728 205.108L176.008 173.828C176.132 173.736 176.219 173.602 176.252 173.451C176.285 173.301 176.262 173.143 176.188 173.008Z" fill="#37474F"/>
<path d="M123.358 203.258L130.708 205.168C131.708 205.418 132.198 205.018 131.898 204.278L115.118 163.058C114.884 162.621 114.562 162.237 114.173 161.929C113.785 161.621 113.337 161.396 112.858 161.268L111.398 160.898C110.398 160.648 109.828 161.058 110.028 161.818L121.268 201.448C121.446 201.895 121.728 202.293 122.092 202.608C122.456 202.923 122.89 203.146 123.358 203.258Z" fill="#263238"/>
<path d="M143.188 193.098C143.047 193.127 142.901 193.11 142.771 193.049C142.641 192.987 142.535 192.885 142.468 192.758L134.308 173.228C134.208 172.978 134.378 172.728 134.698 172.658C134.842 172.625 134.992 172.64 135.127 172.699C135.262 172.759 135.375 172.86 135.448 172.988L143.608 192.528C143.708 192.778 143.538 193.028 143.218 193.098H143.188Z" fill="url(#paint21_linear)"/>
<path d="M163.398 179.098C163.26 179.126 163.116 179.109 162.989 179.049C162.861 178.99 162.756 178.891 162.688 178.768L154.518 159.228C154.418 158.978 154.598 158.728 154.908 158.668C155.053 158.631 155.207 158.644 155.344 158.704C155.481 158.763 155.595 158.867 155.668 158.998L163.828 178.538C163.928 178.778 163.748 179.028 163.438 179.098H163.398Z" fill="url(#paint22_linear)"/>
<path d="M127.428 181.848C125.728 183.048 122.888 182.378 122.178 180.608L115.128 163.058C114.889 162.622 114.563 162.239 114.171 161.933C113.779 161.627 113.329 161.404 112.848 161.278L111.398 160.898C111.048 160.777 110.665 160.795 110.328 160.948L154.518 129.708C154.686 129.605 154.875 129.541 155.07 129.522C155.266 129.503 155.464 129.529 155.648 129.598L157.108 129.978C157.588 130.108 158.036 130.333 158.426 130.641C158.816 130.948 159.14 131.332 159.378 131.768L166.378 149.158C166.854 150.37 166.889 151.71 166.478 152.946C166.067 154.181 165.235 155.233 164.128 155.918L127.428 181.848Z" fill="#455A64"/>
<path d="M142.928 169.078L148.188 165.368L149.318 167.988L144.048 171.708L142.928 169.078Z" fill="url(#paint23_linear)"/>
<path d="M139.418 140.398C137.218 136.688 133.858 130.738 132.508 130.838L133.068 128.968C133.068 128.968 134.378 128.608 136.638 131.808C138.498 134.438 141.298 139.058 141.298 139.058L139.418 140.398Z" fill="#37474F"/>
<path d="M125.538 142.528C123.698 142.528 121.658 140.688 121.258 139.988C120.782 138.614 120.782 137.121 121.258 135.748C121.808 134.878 124.258 131.248 125.258 131.348C126.258 131.448 128.258 136.448 127.708 138.568C127.274 140.027 126.534 141.377 125.538 142.528Z" fill="#9A4A4D"/>
<path d="M99.9185 52.4378C105.269 53.5778 108.839 53.0078 113.129 61.2278C117.704 70.2927 121.784 79.5998 125.349 89.1078C128.349 97.1878 132.999 114.368 134.409 119.708C135.067 121.84 135.578 124.015 135.939 126.218C136.229 128.733 136.343 131.266 136.279 133.798C136.299 134.38 136.176 134.959 135.92 135.482C135.663 136.005 135.282 136.457 134.809 136.798C134.525 136.941 134.257 137.111 134.009 137.308C133.569 137.718 133.469 138.368 133.139 138.878C132.726 139.437 132.12 139.822 131.439 139.958C131.131 140.015 130.828 140.088 130.529 140.178C129.449 140.578 128.839 141.728 127.849 142.308C127.14 142.807 126.264 143.008 125.409 142.868C124.953 142.756 124.51 142.595 124.089 142.388C123.859 142.288 123.199 141.858 122.989 141.728C124.529 141.548 125.359 140.098 125.689 138.818C126.048 137.324 126.099 135.772 125.839 134.258C125.796 133.901 125.673 133.559 125.479 133.258C125.435 133.179 125.369 133.114 125.289 133.071C125.209 133.029 125.119 133.01 125.029 133.018C124.839 133.018 124.749 133.268 124.689 133.458C124.338 134.761 123.744 135.985 122.939 137.068C122.61 137.525 122.133 137.854 121.589 137.998C121.316 138.057 121.031 138.01 120.792 137.867C120.552 137.724 120.376 137.496 120.299 137.228C120.282 137.005 120.306 136.782 120.369 136.568C120.786 134.832 121.04 133.061 121.129 131.278C121.141 129.626 121.367 127.982 121.799 126.388C122.329 124.728 123.849 122.298 123.279 120.608C122.329 117.768 112.279 96.1178 112.279 96.1178C112.279 96.1178 101.649 77.5378 98.9985 72.5878C95.6785 66.4978 95.9785 57.2178 99.9185 52.4378Z" fill="url(#paint24_linear)"/>
<path d="M123.538 136.418C123.716 137.045 123.79 137.697 123.758 138.348C123.373 138.36 122.999 138.489 122.688 138.718C123.065 138.538 123.49 138.486 123.898 138.568L125.068 139.428L124.068 138.328C124.068 138.328 124.038 136.708 123.538 136.418Z" fill="#B16668"/>
<path d="M100.038 52.1178C103.918 52.7878 108.858 53.5378 111.628 58.2078C114.628 63.2078 119.568 74.1178 121.858 79.0178C124.148 83.9178 129.318 100.948 129.318 100.948C129.318 100.948 128.108 102.808 123.698 104.888C119.288 106.968 117.388 106.888 117.388 106.888L111.388 95.1378C111.388 95.1378 99.1083 73.7078 97.9183 71.2178C96.7283 68.7278 94.4383 57.0078 100.038 52.1178Z" fill="url(#paint25_linear)"/>
<path d="M122.899 135.358C121.999 137.108 122.099 140.228 122.989 142.558C123.879 144.888 126.189 149.708 126.189 149.708L128.029 148.408L125.589 143.028C124.089 139.688 124.309 137.648 124.649 136.698C124.895 135.923 125.382 135.247 126.039 134.768C126.039 134.768 125.949 132.898 125.169 132.968C124.369 133.248 123.799 133.618 122.899 135.358Z" fill="#37474F"/>
<defs>
<linearGradient id="paint0_linear" x1="193.999" y1="240" x2="230.999" y2="245" gradientUnits="userSpaceOnUse">
<stop stop-color="#FFE8E1"/>
<stop offset="1" stop-color="#F3AC94"/>
</linearGradient>
<linearGradient id="paint1_linear" x1="219.041" y1="14.045" x2="222.957" y2="22.6773" gradientUnits="userSpaceOnUse">
<stop stop-color="#5FA8ED"/>
<stop offset="1" stop-color="#7ED5B7"/>
</linearGradient>
<linearGradient id="paint2_linear" x1="203.518" y1="64.2268" x2="221.238" y2="89.29" gradientUnits="userSpaceOnUse">
<stop stop-color="#5FA8ED"/>
<stop offset="1" stop-color="#7ED5B7"/>
</linearGradient>
<linearGradient id="paint3_linear" x1="193.002" y1="57" x2="228.002" y2="34" gradientUnits="userSpaceOnUse">
<stop stop-color="#FFEFE9"/>
<stop offset="1" stop-color="#FFBDA7"/>
</linearGradient>
<linearGradient id="paint4_linear" x1="180.566" y1="106.729" x2="180.566" y2="127.371" gradientUnits="userSpaceOnUse">
<stop stop-color="#FFE8E1"/>
<stop offset="1" stop-color="#FFBDA7"/>
</linearGradient>
<linearGradient id="paint5_linear" x1="163.844" y1="94.1017" x2="163.844" y2="116.618" gradientUnits="userSpaceOnUse">
<stop stop-color="#FFE8E1"/>
<stop offset="1" stop-color="#FFBDA7"/>
</linearGradient>
<linearGradient id="paint6_linear" x1="234.495" y1="129.169" x2="270.307" y2="167.447" gradientUnits="userSpaceOnUse">
<stop stop-color="#5FA8ED"/>
<stop offset="1" stop-color="#7ED5B7"/>
</linearGradient>
<linearGradient id="paint7_linear" x1="219.186" y1="144.964" x2="240.57" y2="156.492" gradientUnits="userSpaceOnUse">
<stop stop-color="#5FA8ED"/>
<stop offset="1" stop-color="#7ED5B7"/>
</linearGradient>
<linearGradient id="paint8_linear" x1="229.841" y1="123.723" x2="247.249" y2="155.005" gradientUnits="userSpaceOnUse">
<stop stop-color="#5FA8ED"/>
<stop offset="1" stop-color="#7ED5B7"/>
</linearGradient>
<linearGradient id="paint9_linear" x1="223.649" y1="74.153" x2="250.868" y2="83.2403" gradientUnits="userSpaceOnUse">
<stop stop-color="#5FA8ED"/>
<stop offset="1" stop-color="#7ED5B7"/>
</linearGradient>
<linearGradient id="paint10_linear" x1="246.879" y1="65.888" x2="246.879" y2="168.035" gradientUnits="userSpaceOnUse">
<stop stop-color="#FFBDA7"/>
<stop offset="1" stop-color="#FFD9CC"/>
</linearGradient>
<linearGradient id="paint11_linear" x1="115.817" y1="213.319" x2="115.817" y2="257.128" gradientUnits="userSpaceOnUse">
<stop stop-color="#CECECE"/>
<stop offset="1" stop-color="#929292"/>
</linearGradient>
<linearGradient id="paint12_linear" x1="60.0181" y1="251.378" x2="69.001" y2="290" gradientUnits="userSpaceOnUse">
<stop stop-color="white"/>
<stop offset="1" stop-color="#B4B4B4"/>
</linearGradient>
<linearGradient id="paint13_linear" x1="84.2672" y1="95.5278" x2="84.2672" y2="215.408" gradientUnits="userSpaceOnUse">
<stop stop-color="#37474F"/>
<stop offset="1" stop-color="#648292"/>
</linearGradient>
<linearGradient id="paint14_linear" x1="82.4714" y1="92.0678" x2="82.4714" y2="247.754" gradientUnits="userSpaceOnUse">
<stop stop-color="#37474F"/>
<stop offset="1" stop-color="#648292"/>
</linearGradient>
<linearGradient id="paint15_linear" x1="40.343" y1="51.0578" x2="40.343" y2="99.3755" gradientUnits="userSpaceOnUse">
<stop stop-color="#B16668"/>
<stop offset="1" stop-color="#F9A5A7"/>
</linearGradient>
<linearGradient id="paint16_linear" x1="41" y1="66.0002" x2="72.5" y2="69.5002" gradientUnits="userSpaceOnUse">
<stop stop-color="white"/>
<stop offset="1" stop-color="#B6B6B6"/>
</linearGradient>
<linearGradient id="paint17_linear" x1="10.0601" y1="68.5121" x2="10.0601" y2="86.7378" gradientUnits="userSpaceOnUse">
<stop stop-color="#B16668"/>
<stop offset="1" stop-color="#F9A5A7"/>
</linearGradient>
<linearGradient id="paint18_linear" x1="46.3662" y1="50.2678" x2="114.151" y2="83.9695" gradientUnits="userSpaceOnUse">
<stop stop-color="#F4F4F4"/>
<stop offset="1" stop-color="#799FF8"/>
</linearGradient>
<linearGradient id="paint19_linear" x1="46.3662" y1="50.2678" x2="114.151" y2="83.9695" gradientUnits="userSpaceOnUse">
<stop stop-color="#F4F4F4"/>
<stop offset="1" stop-color="#799FF8"/>
</linearGradient>
<linearGradient id="paint20_linear" x1="79.3975" y1="11.2378" x2="79.3975" y2="55.9716" gradientUnits="userSpaceOnUse">
<stop stop-color="#B16668"/>
<stop offset="1" stop-color="#F9A5A7"/>
</linearGradient>
<linearGradient id="paint21_linear" x1="136.933" y1="175.521" x2="148.205" y2="184.861" gradientUnits="userSpaceOnUse">
<stop stop-color="#73BCF9"/>
<stop offset="1" stop-color="#7A96F8"/>
</linearGradient>
<linearGradient id="paint22_linear" x1="157.146" y1="161.527" x2="168.416" y2="170.877" gradientUnits="userSpaceOnUse">
<stop stop-color="#73BCF9"/>
<stop offset="1" stop-color="#7A96F8"/>
</linearGradient>
<linearGradient id="paint23_linear" x1="144.74" y1="166.26" x2="147.732" y2="171.728" gradientUnits="userSpaceOnUse">
<stop stop-color="#73BCF9"/>
<stop offset="1" stop-color="#7A96F8"/>
</linearGradient>
<linearGradient id="paint24_linear" x1="146" y1="92.9998" x2="116.506" y2="142.911" gradientUnits="userSpaceOnUse">
<stop stop-color="#B16668"/>
<stop offset="1" stop-color="#F9A5A7"/>
</linearGradient>
<linearGradient id="paint25_linear" x1="96" y1="77.0002" x2="135.5" y2="83.5002" gradientUnits="userSpaceOnUse">
<stop stop-color="white"/>
<stop offset="0.9999" stop-color="#B6B6B6"/>
<stop offset="1" stop-color="#8E8E8E" stop-opacity="0"/>
</linearGradient>
</defs>
</svg>
