<svg width="365" height="307" viewBox="0 0 365 307" fill="none" xmlns="http://www.w3.org/2000/svg">
<path d="M99.1445 136.932C92.3043 142.465 82.0848 152.253 76.4203 156.334L61.1361 143.643L48.2659 129.714L43.3467 138.496C43.3467 138.496 57.7445 159.76 61.1361 163.62C65.1563 168.242 68.0035 172.257 72.1343 175.613C75.2634 178.136 79.759 176.152 84.5434 173.322C91.3503 169.328 110.366 155.922 110.366 155.922L124.332 129.714C115.295 127.106 106.132 131.298 99.1445 136.932Z" fill="url(#paint0_linear)"/>
<path d="M45.7649 126.143C45.0066 124.678 44.2094 124.577 43.5008 123.228C43.2024 122.53 42.7922 121.88 42.3821 121.23C41.9222 120.463 41.4003 119.86 40.8784 119.258C37.6598 115.129 35.3106 111.179 31.9803 107.098C31.7691 106.913 31.6696 106.68 31.3466 106.543C31.1354 106.358 30.7504 106.385 30.5767 106.597C30.4649 106.645 30.4526 106.925 30.3906 107.09C30.0062 108.355 30.2181 109.778 30.6534 111.106C31.0887 112.433 31.6978 113.549 32.3566 114.781C32.8165 115.548 33.2144 116.479 33.6743 117.245C34.4326 118.71 35.2406 120.291 35.6636 121.9C35.7011 122.296 35.7883 122.81 35.9872 123.275C36.0867 123.508 36.1861 123.74 36.3353 124.089C35.4905 123.35 34.4841 122.541 33.6392 121.802C33.2168 121.432 32.5211 121.041 32.1736 121.465C31.8881 121.724 31.9255 122.121 31.963 122.518C32.262 124.454 33.5048 126.125 34.7598 127.515C35.5924 128.535 36.3752 129.439 37.0961 130.507C37.6057 131.39 38.0533 132.438 38.5629 133.321C39.5201 135.251 40.8126 137.038 42.4526 138.401C44.2173 140.674 47.2228 140.903 50.9369 142.481L50.3107 131.739C48.7649 130.507 46.5232 127.608 45.7649 126.143Z" fill="#FFE8E5"/>
<path d="M125.078 129.855C118.864 126.621 108.562 128.667 99.1917 136.684C89.9932 144.475 85.0513 148.822 85.0513 148.822C85.0513 148.822 86.6536 159.426 96.3532 166.023L114.083 155.336L125.078 129.855Z" fill="url(#paint1_linear)"/>
<path d="M253.259 118.013C257.512 111.863 263.768 107.379 270.256 103.711C276.743 100.043 283.611 97.0908 290.122 93.2987C290.714 92.8953 291.429 92.5154 291.695 91.7929C292.272 90.0991 290.346 88.7051 288.807 88.6719C287.789 88.6083 286.848 88.8169 285.854 88.629C284.983 88.4645 284.207 87.8028 283.236 87.4905C281.589 86.6643 279.653 86.685 277.913 86.3561C276.024 86.1281 274.377 85.3019 272.418 85.4469C267.458 85.7977 263.76 90.3788 258.878 91.0017C255.309 91.4865 251.518 89.7402 248.057 91.018C244.721 92.3193 243.122 96.0094 242.317 99.5917C241.8 102.327 241.821 104.263 240.807 106.904C239.816 109.421 236.162 115.814 229.262 125.07C229.867 125.957 244.941 136.145 245.495 134.575C247.265 130.66 251.11 121.213 253.259 118.013Z" fill="url(#paint2_linear)"/>
<path d="M304.407 173.778C310.996 170.258 319.968 169.12 327.485 168.866C335.002 168.612 342.378 169.104 349.918 168.726C350.688 168.742 351.481 168.634 351.971 168.083C353.372 166.803 352.085 164.756 350.811 164.001C349.988 163.588 349.016 163.275 348.24 162.614C347.588 161.975 347.107 161.112 346.478 160.349C345.346 158.847 343.722 157.897 342.247 156.845C340.647 155.771 339.514 154.269 337.743 153.419C333.206 151.532 327.746 153.848 323.162 152.21C319.798 150.93 317.207 147.608 313.678 147.199C310.15 146.79 306.951 149.405 304.748 152.208C303.058 154.335 302.185 156.231 300.045 158.016C298.029 159.824 291.844 163.936 281.374 168.912C281.435 169.953 290.021 183.809 290.021 183.809C293.119 181.046 300.953 175.701 304.407 173.778Z" fill="url(#paint3_linear)"/>
<path d="M216.959 179.278C225.622 177.051 228.4 174.615 230.247 170.971C234.012 163.312 242.27 144.139 250.857 123.226C248.297 125.189 235.012 119.846 235.055 116.892C220.483 137.448 214.436 142.873 211.053 156.013C201.429 156.513 183.673 157.794 177.967 158.004C162.513 158.69 149.713 168.506 143.438 175.82L155.718 193.979C172.088 188.444 208.297 181.505 216.959 179.278Z" fill="url(#paint4_linear)"/>
<path opacity="0.15" d="M218.766 164.94C218.766 164.94 220.169 156.834 212.271 151.608C211.74 153.053 211.334 154.521 210.904 156.114C217.421 159.792 218.766 164.94 218.766 164.94Z" fill="black"/>
<path d="M241.463 189.316C241.463 189.316 217.089 182.007 203.468 177.759C190.289 163.68 169.643 163.9 167.829 166.004L174.601 209.908C201.71 212.969 229.921 217.011 244.326 215.74C258.389 214.92 296.697 179.146 296.697 179.146C297.517 176.854 290.837 167.222 286.035 166.057C270.385 173.918 248.302 179.018 241.463 189.316Z" fill="url(#paint5_linear)"/>
<path opacity="0.3" d="M241.463 189.316C241.463 189.316 217.089 182.007 203.468 177.759C190.289 163.68 169.643 163.9 167.829 166.004L174.601 209.908C201.71 212.969 229.921 217.011 244.326 215.74C258.389 214.92 296.697 179.146 296.697 179.146C297.517 176.854 290.837 167.222 286.035 166.057C270.385 173.918 248.302 179.018 241.463 189.316Z" fill="white"/>
<path opacity="0.15" d="M243.962 186.311C242.857 187.39 242.219 188.042 241.338 189.292C245.657 191.653 248.495 197.083 248.724 199.959C248.848 199.983 250.715 193.51 243.962 186.311Z" fill="black"/>
<path d="M134.632 134.493C142.43 139.572 145.848 141.248 149.451 143.989C153.605 147.221 154.385 150.588 156.5 155.752C158.897 159.424 161.623 161.355 163.434 161.311C166.465 161.626 176.911 168.364 180.54 180.511C184.3 193.326 180.949 204.927 175.726 210.765C169.22 210.438 157.257 210.367 139.752 204.871C129.193 201.459 119.97 193.021 114.39 186.429C106.296 176.787 102.509 166.156 102.449 153.525C102.239 136.229 113.19 120.527 134.632 134.493Z" fill="url(#paint6_linear)"/>
<path d="M93.7901 107.332C94.3482 108.468 95.7601 110.538 96.8087 111.122C98.4319 112.073 99.6781 110.248 101.382 109.41C102.517 108.852 103.475 107.874 103.958 106.678C104.442 105.481 104.428 104.191 104.686 102.823C104.851 101.953 104.642 101.012 104.41 100.196C103.97 98.4382 103.132 96.7348 101.852 95.3338C101.324 94.719 100.648 94.2051 99.825 93.792C99.2268 93.5502 98.8303 93.6041 98.239 94.0074C97.0094 95.0629 96.2302 96.461 95.8005 98.0539C95.3003 100.02 95.4218 102.103 95.839 103.985C95.2339 103.098 94.7297 102.359 94.1246 101.472C94.0237 101.324 94.0237 101.324 93.9229 101.176C93.6977 101.005 93.5499 101.106 93.3786 101.331C93.2072 101.556 93.1837 101.68 93.1368 101.929C92.8245 102.9 92.573 104.913 93.7901 107.332Z" fill="#263238"/>
<path d="M131.083 127.384L133.277 137.585C133.856 140.656 131.952 145.963 124.348 147.359C119.294 148.207 116.679 145.009 116.679 145.009L113.703 138.266L131.083 127.384Z" fill="url(#paint7_linear)"/>
<path d="M137.241 120.691C137.241 120.691 135.501 125.128 134.255 126.953C132.152 129.903 128.601 129.619 128.601 129.619L129.301 123.184L137.241 120.691Z" fill="#263238"/>
<path d="M136.13 102.71C136.13 102.71 138.983 102.605 140.97 105.041C142.832 107.453 140.794 114.151 137.264 120.567L132.251 120.521L136.13 102.71Z" fill="#263238"/>
<path d="M136.099 125.37C135.803 125.571 135.407 125.625 135.135 125.702C133.797 125.965 132.779 125.901 131.909 125.737C129.422 125.267 129.176 123.16 129.176 123.16L128.687 128.476L127.37 142.264C126.624 142.123 126.026 141.882 125.427 141.64C123.384 140.867 121.489 139.994 120.091 139.215C118.444 138.389 117.419 137.68 117.419 137.68C114.075 138.336 110.406 138.673 110.157 138.626C110.157 138.626 105.245 138.728 102.906 138.158C98.9972 137.033 96.382 133.835 95.7895 129.473C94.6955 122.312 95.1543 116.475 98.4372 103.188C102.103 88.556 119.248 90.5072 127.835 97.5382C136.423 104.569 130.841 116.392 130.841 116.392C131.838 114.52 132.446 113.347 133.824 112.191C135.201 111.035 139.842 111.01 141.328 115.412C142.737 119.541 139.163 124.146 136.099 125.37Z" fill="url(#paint8_linear)"/>
<path d="M122.275 104.472C121.389 109.842 125.251 111.215 126.766 111.373C125.977 114.185 125.766 115.304 126.035 117.287C126.227 118.997 127.196 121.369 129 120.68C129.568 120.401 129.786 119.927 129.904 119.305C130.169 118.583 130.404 117.34 130.817 116.516C133.131 112.446 134.539 111.811 136.226 111.743C136.235 110.328 136.269 108.789 136.255 107.499C136.338 103.651 137.012 99.4004 135.408 95.6205C133.727 91.5683 129.906 89.3011 125.92 87.9043C122.532 86.7492 118.927 86.068 115.492 85.1616C111.685 84.1848 107.917 82.3141 105.45 79.0149C104.946 78.2757 104.317 77.5131 103.4 77.5973C102.482 77.6816 102.046 78.6293 101.781 79.3519C100.672 82.4907 100.31 85.7705 101.215 89.1608C100.641 88.7947 100.291 88.5999 99.8641 88.1329C99.2355 87.3703 98.7078 86.7555 98.0792 85.9928C97.8775 85.6972 97.5515 85.378 97.2793 85.4554C96.7585 85.4858 96.5167 86.084 96.4227 86.5813C95.5771 91.0575 97.1644 95.607 99.5612 99.2792C103.02 104.826 110.736 106.928 122.275 104.472Z" fill="#263238"/>
<path d="M136.043 103.853L142.421 101.452C141.731 99.648 139.836 98.7748 138.055 99.3398C136.274 99.9048 135.354 102.049 136.043 103.853Z" fill="#263238"/>
<path d="M127.448 130.946C127.448 130.946 125.833 135.406 123.623 137.564C122.961 138.34 119.756 140.31 114.772 140.785L113.68 138.39L117.272 137.781C118.881 137.441 120.514 136.977 121.525 136.395C123.773 135.403 126.716 132.096 127.448 130.946Z" fill="#B16668"/>
<path d="M112.683 117.082C112.619 118.1 113.224 118.987 114.219 119.175C115.237 119.239 116.124 118.634 116.211 117.491C116.275 116.473 115.67 115.586 114.675 115.398C113.781 115.358 112.871 116.087 112.683 117.082Z" fill="#263238"/>
<path d="M114.727 111.03L118.642 112.8C119.125 111.603 118.591 110.344 117.519 109.883C116.447 109.423 115.187 109.958 114.727 111.03Z" fill="#263238"/>
<path d="M112.894 127.553L106.012 129.215C106.406 131.221 108.255 132.343 110.136 131.925C112.166 131.407 113.288 129.559 112.894 127.553Z" fill="#874C4C"/>
<path d="M112.239 128.974C110.499 128.646 108.872 129.755 108.544 131.496C108.52 131.62 108.497 131.744 108.473 131.869C108.971 131.963 109.592 132.08 110.137 131.925C111.474 131.663 112.455 130.56 112.713 129.193C112.737 129.068 112.488 129.021 112.239 128.974Z" fill="#B16668"/>
<path d="M98.3283 109.22L102.535 108.083C102.249 106.87 101.1 106.138 99.8633 106.548C98.7746 106.857 98.0424 108.007 98.3283 109.22Z" fill="#263238"/>
<path d="M98.6261 113.783C98.5625 114.801 99.1676 115.688 100.162 115.876C101.181 115.94 102.067 115.334 102.155 114.192C102.218 113.174 101.613 112.287 100.618 112.099C99.7245 112.059 98.814 112.788 98.6261 113.783Z" fill="#263238"/>
<path d="M107.51 113.787L104.61 125.73L98.7457 122.691L107.51 113.787Z" fill="#F8B6A9"/>
<path d="M167.132 203.089C167.027 200.236 164.952 182.588 163.343 171.338C160.701 153.969 160.42 148.636 149.233 144.462C139.472 148.413 142.096 173.376 142.096 173.376L148.553 203.957C145.434 216.374 139.996 236.981 137.94 239.684C133.226 242.141 130.475 247.159 126.998 249.206C123.396 251.23 123.44 253.041 125.181 253.37C127.917 253.887 130.383 252.421 132.802 251.204C133.074 251.127 133.222 251.026 133.47 251.073C133.82 251.268 133.975 251.812 133.32 253.234C131.261 257.996 127.898 261.481 124.529 264.322C124.062 264.749 123.47 265.152 123.104 265.727C122.738 266.301 122.597 267.047 122.876 267.615C123.434 268.751 124.973 268.784 126.163 268.622C132.85 267.31 139.434 261.085 143.422 255.657C148.141 249.08 160.067 224.805 165.652 210.922C167.126 207.208 167.237 205.942 167.132 203.089Z" fill="url(#paint9_linear)"/>
<path d="M148.651 143.452C159.752 148.768 161.248 151.755 162.473 159.584C163.597 167.266 165.278 182.908 165.278 182.908C165.278 182.908 160.148 188.248 152.709 188.775C145.269 189.301 144.362 187.97 144.362 187.97C144.362 187.97 140.476 170.367 140.219 164.91C139.687 150 148.651 143.452 148.651 143.452Z" fill="url(#paint10_linear)"/>
<path d="M84.9654 50.337C81.1531 70.5129 61.7069 83.7783 41.531 79.966C21.3551 76.1538 8.08978 56.7076 11.902 36.5317C15.7143 16.3558 35.1605 3.09043 55.3364 6.90267C75.5123 10.7149 88.7776 30.1611 84.9654 50.337Z" fill="url(#paint11_linear)"/>
<path d="M80.9417 80.8174C75.3111 79.7535 73.8418 73.6906 73.8109 70.7921C62.0296 70.0702 41.8623 70.8647 55.4438 79.8179C72.4207 91.0094 87.9799 82.1473 80.9417 80.8174Z" fill="url(#paint12_linear)"/>
<path d="M58.159 20.0583L47.9902 18.1369L42.7126 51.0784L51.0762 52.6587L58.159 20.0583ZM44.131 66.4935C47.056 67.0461 50.0545 65.0803 50.6516 62.0454C51.1944 59.0476 49.1199 56.1232 46.1949 55.5705C43.1785 55.0006 40.2257 56.975 39.6829 59.9729C39.0858 63.0078 41.1146 65.9235 44.131 66.4935Z" fill="white"/>
<defs>
<linearGradient id="paint0_linear" x1="91.74" y1="183.908" x2="59.0335" y2="160.235" gradientUnits="userSpaceOnUse">
<stop stop-color="#FBC7BC"/>
<stop offset="1" stop-color="#FFE8E5"/>
</linearGradient>
<linearGradient id="paint1_linear" x1="98.8828" y1="130.306" x2="113.424" y2="166.618" gradientUnits="userSpaceOnUse">
<stop stop-color="#BA3184"/>
<stop offset="1" stop-color="#FCE1C2"/>
</linearGradient>
<linearGradient id="paint2_linear" x1="266.799" y1="90.1496" x2="255.158" y2="136.648" gradientUnits="userSpaceOnUse">
<stop stop-color="#FCCBC1"/>
<stop offset="1" stop-color="#FFE8E5"/>
</linearGradient>
<linearGradient id="paint3_linear" x1="327.851" y1="152.136" x2="313.149" y2="188.178" gradientUnits="userSpaceOnUse">
<stop stop-color="#FCCBC1"/>
<stop offset="1" stop-color="#FFE8E5"/>
</linearGradient>
<linearGradient id="paint4_linear" x1="204.406" y1="111.102" x2="187.611" y2="200.004" gradientUnits="userSpaceOnUse">
<stop stop-color="#6A6A6A"/>
<stop offset="1" stop-color="#9F9F9F"/>
</linearGradient>
<linearGradient id="paint5_linear" x1="234.716" y1="183.285" x2="223.472" y2="219.141" gradientUnits="userSpaceOnUse">
<stop stop-color="#898989"/>
<stop offset="1" stop-color="white"/>
</linearGradient>
<linearGradient id="paint6_linear" x1="160.999" y1="158" x2="135.677" y2="203.966" gradientUnits="userSpaceOnUse">
<stop stop-color="#EB4BAC"/>
<stop offset="1" stop-color="#FCE1C2"/>
</linearGradient>
<linearGradient id="paint7_linear" x1="124.136" y1="142.48" x2="109.185" y2="144.66" gradientUnits="userSpaceOnUse">
<stop stop-color="#FDCFC6"/>
<stop offset="1" stop-color="#FFE8E5"/>
</linearGradient>
<linearGradient id="paint8_linear" x1="140.956" y1="120.053" x2="91.7407" y2="125.036" gradientUnits="userSpaceOnUse">
<stop stop-color="#FBC2B6"/>
<stop offset="1" stop-color="#FFE8E5"/>
</linearGradient>
<linearGradient id="paint9_linear" x1="184.565" y1="208.827" x2="116.66" y2="241.222" gradientUnits="userSpaceOnUse">
<stop stop-color="#FBC7BC"/>
<stop offset="1" stop-color="#FFE8E5"/>
</linearGradient>
<linearGradient id="paint10_linear" x1="164.5" y1="154.5" x2="151.504" y2="197.042" gradientUnits="userSpaceOnUse">
<stop stop-color="#C82889"/>
<stop offset="1" stop-color="#FCE1C2"/>
</linearGradient>
<linearGradient id="paint11_linear" x1="38.5947" y1="14.3858" x2="60.2078" y2="84.9094" gradientUnits="userSpaceOnUse">
<stop stop-color="#5FA8ED"/>
<stop offset="1" stop-color="#7ED5B7"/>
</linearGradient>
<linearGradient id="paint12_linear" x1="38.5947" y1="14.3858" x2="60.2078" y2="84.9094" gradientUnits="userSpaceOnUse">
<stop stop-color="#5FA8ED"/>
<stop offset="1" stop-color="#7ED5B7"/>
</linearGradient>
</defs>
</svg>
