<svg width="55" height="55" viewBox="0 0 55 55" fill="none" xmlns="http://www.w3.org/2000/svg">
<path d="M27.5002 0.114258C12.3124 0.114258 0 12.4267 0 27.6144C0 41.2361 9.91435 52.5171 22.9137 54.7016V33.3517H16.2798V25.6688H22.9137V20.0036C22.9137 13.4305 26.9284 9.84851 32.7929 9.84851C35.6017 9.84851 38.0155 10.0578 38.7162 10.15V17.0207L34.6487 17.0226C31.4601 17.0226 30.8453 18.5376 30.8453 20.7614V25.6648H38.4538L37.4614 33.3478H30.8453V54.8853C44.4515 53.2293 55 41.6609 55 27.6066C55 12.4267 42.6876 0.114258 27.5002 0.114258Z" fill="#F4F4F4"/>
</svg>
