<svg width="43" height="42" viewBox="0 0 43 42" fill="none" xmlns="http://www.w3.org/2000/svg">
<path d="M0.747244 20.7963C0.748273 15.5341 2.75543 10.4702 6.35993 6.63596C9.96442 2.80167 14.8952 0.485373 20.1479 0.158808C25.4007 -0.167754 30.5804 1.51997 34.6322 4.87828C38.684 8.23658 41.3031 13.0129 41.956 18.2344C42.4659 22.3199 41.7445 26.4646 39.8841 30.1376C37.7854 34.2888 34.3482 37.6111 30.1279 39.5679C25.9076 41.5248 21.1507 42.0017 16.6259 40.9217C12.101 39.8417 8.07249 37.2678 5.19125 33.616C2.31001 29.9642 0.744345 25.4477 0.747244 20.7963Z" fill="url(#paint0_linear)"/>
<defs>
<linearGradient id="paint0_linear" x1="30.3853" y1="35.6667" x2="10.7759" y2="0.118879" gradientUnits="userSpaceOnUse">
<stop stop-color="#8177F7"/>
<stop offset="1" stop-color="#799FF8"/>
</linearGradient>
</defs>
</svg>
