<svg width="197" height="197" viewBox="0 0 197 197" fill="none" xmlns="http://www.w3.org/2000/svg">
<path d="M112.571 15.2605V0H84.4286V15.2605C71.6025 17.4134 59.7684 22.4545 49.5983 29.6978L38.802 18.9014L18.9014 38.802L29.6978 49.5983C22.4545 59.7684 17.4134 71.6025 15.2605 84.4286H0V112.571H15.2605C16.4214 119.484 18.4441 126.094 21.174 132.324C21.7826 119.628 30.82 109.127 42.8194 106.306C42.4641 103.749 42.2143 101.156 42.2143 98.5C42.2143 67.4655 67.4655 42.2143 98.5 42.2143C111.808 42.2143 124.033 46.8825 133.679 54.6323V21.7861C127.054 18.7431 119.987 16.5058 112.571 15.2605Z" fill="url(#paint0_linear)"/>
<path d="M142.909 64.0426C150.321 73.576 154.785 85.5156 154.785 98.5C154.785 101.156 154.536 103.749 154.18 106.306C166.18 109.127 175.217 119.628 175.826 132.324C178.556 126.094 180.582 119.484 181.739 112.571H197V84.4286H181.739C179.586 71.6025 174.545 59.7684 167.302 49.5983L167.65 49.25H157.702L142.909 64.0426Z" fill="url(#paint1_linear)"/>
<path d="M29.3322 84.4285C31.4851 71.6024 36.5262 59.7683 43.7695 49.5982L32.9732 38.8019L45.838 25.9371L38.8022 18.9014L18.9017 38.8019L29.698 49.5982C22.4548 59.7683 17.4137 71.6024 15.2607 84.4285H29.3322Z" fill="url(#paint2_linear)"/>
<path d="M63.6698 29.6978C73.84 22.4545 85.674 17.4134 98.5001 15.2605V0H84.4287V15.2605C75.0958 16.8259 66.2977 19.9392 58.2734 24.3014L63.6698 29.6978Z" fill="url(#paint3_linear)"/>
<path d="M0 84.4285H14.0714V112.571H0V84.4285Z" fill="url(#paint4_linear)"/>
<path d="M98.4997 154.786C86.8415 154.786 77.3926 145.337 77.3926 133.679C77.3926 122.02 86.8415 112.572 98.4997 112.572C110.158 112.572 119.607 122.02 119.607 133.679C119.607 145.337 110.158 154.786 98.4997 154.786Z" fill="url(#paint5_linear)"/>
<path d="M77.3926 133.679C77.3926 122.02 86.8415 112.572 98.4997 112.572C110.158 112.572 119.607 122.02 119.607 133.679H77.3926Z" fill="#FAB400"/>
<path d="M105.535 113.799C103.333 113.018 100.969 112.572 98.4997 112.572C86.8415 112.572 77.3926 122.02 77.3926 133.679H91.464C91.464 124.494 97.3423 116.698 105.535 113.799Z" fill="#DC9600"/>
<path d="M119.607 197H77.3926V175.893C77.3926 164.235 86.8415 154.786 98.4997 154.786C110.158 154.786 119.607 164.235 119.607 175.893V197Z" fill="url(#paint6_linear)"/>
<path d="M49.2497 154.786C37.5915 154.786 28.1426 145.337 28.1426 133.679C28.1426 122.02 37.5915 112.572 49.2497 112.572C60.9079 112.572 70.3569 122.02 70.3569 133.679C70.3569 145.337 60.9079 154.786 49.2497 154.786Z" fill="url(#paint7_linear)"/>
<path d="M28.1426 133.679C28.1426 122.02 37.5915 112.572 49.2497 112.572C60.9079 112.572 70.3569 122.02 70.3569 133.679H28.1426Z" fill="#FAB400"/>
<path d="M56.2854 113.799C54.0833 113.018 51.7193 112.572 49.2497 112.572C37.5915 112.572 28.1426 122.02 28.1426 133.679H42.214C42.214 124.494 48.0923 116.698 56.2854 113.799Z" fill="#DC9600"/>
<path d="M70.3569 197H28.1426V175.893C28.1426 164.235 37.5915 154.786 49.2497 154.786C60.9079 154.786 70.3569 164.235 70.3569 175.893V197Z" fill="url(#paint8_linear)"/>
<path d="M147.75 154.786C136.092 154.786 126.643 145.337 126.643 133.679C126.643 122.02 136.092 112.572 147.75 112.572C159.408 112.572 168.857 122.02 168.857 133.679C168.857 145.337 159.408 154.786 147.75 154.786Z" fill="url(#paint9_linear)"/>
<path d="M126.643 133.679C126.643 122.02 136.092 112.572 147.75 112.572C159.408 112.572 168.857 122.02 168.857 133.679H126.643Z" fill="#FAB400"/>
<path d="M154.785 113.799C152.583 113.018 150.219 112.572 147.75 112.572C136.092 112.572 126.643 122.02 126.643 133.679H140.714C140.714 124.494 146.592 116.698 154.785 113.799Z" fill="#DC9600"/>
<path d="M29.5397 113.623C29.4764 113.272 29.392 112.927 29.3322 112.572H15.2607C16.4216 119.484 18.4444 126.094 21.1743 132.324C21.526 125.021 24.6464 118.436 29.5397 113.623Z" fill="url(#paint10_linear)"/>
<path d="M168.857 197H126.643V175.893C126.643 164.235 136.092 154.786 147.75 154.786C159.408 154.786 168.857 164.235 168.857 175.893V197Z" fill="url(#paint11_linear)"/>
<path d="M112.572 42.2144C110.183 42.2144 107.847 42.4114 105.536 42.7033C116.104 44.0296 125.76 48.3073 133.679 54.6605V46.3584C127.153 43.7059 120.037 42.2144 112.572 42.2144Z" fill="url(#paint12_linear)"/>
<path d="M154.786 98.5C154.786 101.156 154.543 103.749 154.184 106.306C159.011 107.442 163.356 109.82 166.873 113.089C168.126 108.427 168.857 103.552 168.857 98.5C168.857 81.9344 161.621 67.0644 150.195 56.7571L142.906 64.0461C150.329 73.5724 154.786 85.5085 154.786 98.5Z" fill="url(#paint13_linear)"/>
<path d="M140.714 7.03571V56.2857L152.724 44.2757C154.043 42.9566 155.834 42.2143 157.698 42.2143H189.964C193.851 42.2143 197 39.0658 197 35.1786V7.03571C197 3.14848 193.851 0 189.964 0H147.75C143.862 0 140.714 3.14848 140.714 7.03571Z" fill="#3CC8B4"/>
<path d="M147.75 7.03571C147.75 3.14848 150.898 0 154.785 0H147.75C143.862 0 140.714 3.14848 140.714 7.03571V56.2857L147.75 49.25V7.03571Z" fill="#1EAA96"/>
<path d="M182.929 24.6251C184.871 24.6251 186.447 23.0491 186.447 21.1072C186.447 19.1654 184.871 17.5894 182.929 17.5894C180.987 17.5894 179.411 19.1654 179.411 21.1072C179.411 23.0491 180.987 24.6251 182.929 24.6251Z" fill="#F0F0F0"/>
<path d="M168.857 24.6251C170.799 24.6251 172.375 23.0491 172.375 21.1072C172.375 19.1654 170.799 17.5894 168.857 17.5894C166.915 17.5894 165.339 19.1654 165.339 21.1072C165.339 23.0491 166.915 24.6251 168.857 24.6251Z" fill="#F0F0F0"/>
<path d="M154.785 24.6251C156.727 24.6251 158.303 23.0491 158.303 21.1072C158.303 19.1654 156.727 17.5894 154.785 17.5894C152.844 17.5894 151.268 19.1654 151.268 21.1072C151.268 23.0491 152.844 24.6251 154.785 24.6251Z" fill="#F0F0F0"/>
<defs>
<linearGradient id="paint0_linear" x1="37.9045" y1="18.617" x2="100.288" y2="132.862" gradientUnits="userSpaceOnUse">
<stop stop-color="#5FA8ED"/>
<stop offset="1" stop-color="#7ED5B7"/>
</linearGradient>
<linearGradient id="paint1_linear" x1="158.247" y1="60.9379" x2="204.169" y2="115.141" gradientUnits="userSpaceOnUse">
<stop stop-color="#5FA8ED"/>
<stop offset="1" stop-color="#7ED5B7"/>
</linearGradient>
<linearGradient id="paint2_linear" x1="23.9309" y1="28.1206" x2="60.144" y2="58.7535" gradientUnits="userSpaceOnUse">
<stop stop-color="#3A74AB"/>
<stop offset="1" stop-color="#6CAC96"/>
</linearGradient>
<linearGradient id="paint3_linear" x1="69.6797" y1="4.17826" x2="81.3068" y2="32.7283" gradientUnits="userSpaceOnUse">
<stop stop-color="#3A74AB"/>
<stop offset="1" stop-color="#6CAC96"/>
</linearGradient>
<linearGradient id="paint4_linear" x1="3.98995" y1="88.388" x2="19.6853" y2="102.614" gradientUnits="userSpaceOnUse">
<stop stop-color="#3A74AB"/>
<stop offset="1" stop-color="#6CAC96"/>
</linearGradient>
<linearGradient id="paint5_linear" x1="88.6057" y1="133.679" x2="119.607" y2="133.679" gradientUnits="userSpaceOnUse">
<stop stop-color="#F0C8A0"/>
<stop offset="1" stop-color="#FFF2E4"/>
</linearGradient>
<linearGradient id="paint6_linear" x1="89.3624" y1="160.725" x2="109.373" y2="197" gradientUnits="userSpaceOnUse">
<stop stop-color="#5FA8ED"/>
<stop offset="1" stop-color="#7ED5B7"/>
</linearGradient>
<linearGradient id="paint7_linear" x1="36.2776" y1="140.275" x2="70.3569" y2="140.275" gradientUnits="userSpaceOnUse">
<stop stop-color="#F0C8A0"/>
<stop offset="1" stop-color="#FEEFDE"/>
</linearGradient>
<linearGradient id="paint8_linear" x1="40.1124" y1="160.725" x2="60.1231" y2="197" gradientUnits="userSpaceOnUse">
<stop stop-color="#8177F7"/>
<stop offset="1" stop-color="#799FF8"/>
</linearGradient>
<linearGradient id="paint9_linear" x1="134.558" y1="141.814" x2="166.658" y2="142.913" gradientUnits="userSpaceOnUse">
<stop stop-color="#F0C8A0"/>
<stop offset="1" stop-color="#FFF1E4"/>
</linearGradient>
<linearGradient id="paint10_linear" x1="19.3095" y1="115.351" x2="29.9864" y2="129.342" gradientUnits="userSpaceOnUse">
<stop stop-color="#3A74AB"/>
<stop offset="1" stop-color="#6CAC96"/>
</linearGradient>
<linearGradient id="paint11_linear" x1="138.612" y1="160.725" x2="158.623" y2="197" gradientUnits="userSpaceOnUse">
<stop stop-color="#EF8197"/>
<stop offset="0.942708" stop-color="#F7C58F"/>
</linearGradient>
<linearGradient id="paint12_linear" x1="113.516" y1="43.9654" x2="116.728" y2="57.1315" gradientUnits="userSpaceOnUse">
<stop stop-color="#3A74AB"/>
<stop offset="1" stop-color="#6CAC96"/>
</linearGradient>
<linearGradient id="paint13_linear" x1="150.265" y1="64.6825" x2="181.327" y2="90.6237" gradientUnits="userSpaceOnUse">
<stop stop-color="#3A74AB"/>
<stop offset="1" stop-color="#6CAC96"/>
</linearGradient>
</defs>
</svg>
