<svg width="216" height="216" viewBox="0 0 216 216" fill="none" xmlns="http://www.w3.org/2000/svg">
<path d="M149.754 91.3853L146.117 106.062C145.505 108.534 148.35 110.396 150.37 108.845L178.693 87.0891H155.348L149.754 91.3853Z" fill="#5ABFE9"/>
<path d="M203.499 16.2061H121.731C114.93 16.2061 109.418 21.7201 109.418 28.5212V74.7725C109.418 81.5753 114.93 87.0876 121.731 87.0876H150.818L146.116 106.062C145.505 108.534 148.349 110.396 150.37 108.846L178.693 87.0893H203.499C210.3 87.0893 215.815 81.5753 215.815 74.7742V28.5212C215.815 21.7201 210.3 16.2061 203.499 16.2061Z" fill="url(#paint0_linear)"/>
<path d="M203.499 16.2061H180.155C186.956 16.2061 192.47 21.7201 192.47 28.5212V74.7725C192.47 81.5753 186.956 87.0876 180.155 87.0876H203.499C210.3 87.0876 215.815 81.5753 215.815 74.7725V28.5212C215.815 21.7201 210.3 16.2061 203.499 16.2061Z" fill="url(#paint1_linear)"/>
<path d="M144.181 51.5132L154.407 44.8719C154.608 44.7104 154.889 44.6709 155.171 44.6709C156.378 44.6709 157.909 45.9579 157.909 47.6092C157.909 48.2931 157.627 48.8962 157.183 49.178L150.099 53.7676L157.183 58.3555C157.627 58.6373 157.909 59.2421 157.909 59.926C157.909 61.5756 156.378 62.8643 155.171 62.8643C154.889 62.8643 154.608 62.8231 154.407 62.6632L144.181 56.022C143.257 55.4172 142.934 54.4515 142.934 53.7676C142.934 53.082 143.257 52.1163 144.181 51.5132Z" fill="#F2F2F2"/>
<path d="M180.532 35.9747C180.532 36.217 180.491 36.4988 180.37 36.7394L166.201 65.7631C165.919 66.3662 165.155 66.77 164.39 66.77C163.021 66.77 162.136 65.6428 162.136 64.6359C162.136 64.3953 162.216 64.1135 162.337 63.8712L176.466 34.8475C176.788 34.1636 177.432 33.8423 178.157 33.8423C179.284 33.8423 180.532 34.686 180.532 35.9747Z" fill="#F2F2F2"/>
<path d="M198.486 56.022L188.262 62.6632C188.061 62.8231 187.779 62.8643 187.498 62.8643C186.29 62.8643 184.759 61.5772 184.759 59.926C184.759 59.2421 185.041 58.6373 185.484 58.3555L192.568 53.7676L185.484 49.178C185.041 48.8962 184.759 48.2931 184.759 47.6092C184.759 45.9579 186.29 44.6709 187.498 44.6709C187.779 44.6709 188.061 44.7104 188.262 44.8719L198.486 51.5132C199.412 52.1163 199.734 53.082 199.734 53.7676C199.734 54.4515 199.412 55.4172 198.486 56.022Z" fill="#F2F2F2"/>
<path d="M171.743 162.082C171.13 151.633 164.496 143.116 154.623 138.492C142.537 132.835 109.622 124.272 109.622 124.272C106.442 123.682 104.136 120.907 104.136 117.672V98.8555H68.3526V117.672C68.3526 120.907 66.0455 123.68 62.865 124.272C62.865 124.272 29.9521 132.835 17.8661 138.492C7.99155 143.116 1.35691 151.633 0.743873 162.082L0.000647351 206.938C-0.0586788 211.925 3.96726 216 8.9556 216H163.532C168.52 216 172.546 211.925 172.487 206.938L171.743 162.082Z" fill="#FCC38F"/>
<path d="M171.744 162.082C171.131 151.633 164.496 143.116 154.623 138.492C142.537 132.835 109.623 124.272 109.623 124.272C106.442 123.682 104.137 120.907 104.137 117.672V98.8555H80.792V128.955C80.792 132.19 83.0975 134.964 86.278 135.555C86.278 135.555 119.193 144.118 131.279 149.775C141.151 154.4 147.786 162.916 148.399 173.366L149.104 216H163.532C168.521 216 172.547 211.925 172.487 206.938L171.744 162.082Z" fill="#EFBC8D"/>
<path d="M49.1494 51.2266H44.4511C42.7504 51.2266 41.1832 51.8017 39.9324 52.7674C37.7621 54.445 36.8112 57.2663 37.3006 59.9656L39.1464 70.1219C40.5768 77.6514 49.1609 74.2105 49.1609 74.2105L49.1494 51.2266Z" fill="#EAAB65"/>
<path d="M123.34 51.2266H128.036C129.739 51.2266 131.306 51.8017 132.555 52.7674C134.725 54.445 135.678 57.2663 135.187 59.9656L133.343 70.1219C131.911 77.6514 123.328 74.2105 123.328 74.2105L123.34 51.2266Z" fill="#FCC18B"/>
<path d="M112.281 12.6232C106.172 6.97571 97.586 2.04669 86.2448 1.90991C74.902 2.04669 66.3162 6.97571 60.2072 12.6232C52.4174 19.8281 48.1953 30.5249 48.1953 41.5662L48.2068 80.0606C48.2068 98.2589 71.8615 117.107 86.2448 117.107C100.628 117.107 124.283 98.2589 124.283 80.0606L124.293 41.5662C124.293 30.5266 120.072 19.8281 112.281 12.6232Z" fill="url(#paint2_linear)"/>
<path d="M109.781 0H62.7073C50.5948 0 40.7764 9.81848 40.7764 21.9309V52.1922C40.7764 52.1922 46.8161 52.0554 50.697 55.8968C51.5045 56.696 52.8773 56.1127 52.8773 54.9756V31.2567C52.8773 25.9041 57.218 21.5634 62.5721 21.5634H71.3804C73.6909 21.5634 75.9304 22.3627 77.7184 23.8244L78.582 24.5297C80.7441 26.298 83.4517 27.2637 86.2449 27.2637C89.0382 27.2637 91.7441 26.298 93.9062 24.5297L94.7714 23.8244C96.5594 22.3627 98.799 21.5634 101.109 21.5634H109.918C115.27 21.5634 119.611 25.9041 119.611 31.2567V54.9756C119.611 56.1127 120.985 56.696 121.793 55.8968C125.674 52.0554 131.712 52.1922 131.712 52.1922V21.9309C131.712 9.81848 121.893 0 109.781 0Z" fill="#2C4456"/>
<path d="M109.781 0H101.638C105.737 4.82355 108.306 12.0679 108.372 21.5634H109.918C115.27 21.5634 119.611 25.9041 119.611 31.2583V54.9756C119.611 56.1127 120.985 56.6977 121.793 55.8968C125.674 52.0571 131.712 52.1938 131.712 52.1938V21.9309C131.712 9.81848 121.893 0 109.781 0Z" fill="#2C4456"/>
<path d="M154.623 138.494C147.589 135.201 133.504 130.925 122.956 127.925L120.675 128.789C98.4903 137.192 73.9985 137.192 51.8138 128.789L49.5314 127.925C38.9829 130.925 24.8995 135.201 17.8661 138.494C7.99155 143.116 1.35691 151.633 0.743873 162.082L0.000647351 206.938C-0.0586788 211.925 3.96726 216 8.9556 216H163.532C168.52 216 172.546 211.925 172.487 206.938L171.743 162.082C171.13 151.633 164.496 143.116 154.623 138.494Z" fill="url(#paint3_linear)"/>
<path d="M141.123 204.759H29.7313C26.3431 204.759 23.5317 202.141 23.2894 198.761L18.7345 134.84C18.4675 131.103 21.4273 127.924 25.1747 127.924H145.679C149.425 127.924 152.386 131.103 152.12 134.84L147.565 198.763C147.322 202.141 144.511 204.759 141.123 204.759Z" fill="#F2F2F2"/>
<path d="M145.679 127.925H122.163C125.911 127.925 128.87 131.104 128.603 134.842L123.62 204.759H141.123C144.511 204.759 147.322 202.141 147.565 198.761L152.12 134.84C152.386 131.104 149.427 127.925 145.679 127.925Z" fill="#CDD6DF"/>
<path d="M149.113 216H23.3773C20.2742 216 17.7578 213.484 17.7578 210.38C17.7578 207.276 20.2742 204.761 23.3773 204.761H149.113C152.216 204.761 154.732 207.276 154.732 210.38C154.732 213.484 152.216 216 149.113 216Z" fill="#CDD6DF"/>
<path d="M95.239 168.92C95.239 173.888 91.2114 177.914 86.2445 177.914C81.2759 177.914 77.25 173.888 77.25 168.92C77.25 163.953 81.2759 159.927 86.2445 159.927C91.2114 159.927 95.239 163.953 95.239 168.92Z" fill="white"/>
<defs>
<linearGradient id="paint0_linear" x1="139.587" y1="29.3195" x2="180.512" y2="114.008" gradientUnits="userSpaceOnUse">
<stop stop-color="#5FA8ED"/>
<stop offset="1" stop-color="#7ED5B7"/>
</linearGradient>
<linearGradient id="paint1_linear" x1="139.587" y1="29.3195" x2="180.512" y2="114.008" gradientUnits="userSpaceOnUse">
<stop stop-color="#5FA8ED"/>
<stop offset="1" stop-color="#7ED5B7"/>
</linearGradient>
<linearGradient id="paint2_linear" x1="48.094" y1="65.3906" x2="124.453" y2="66.0234" gradientUnits="userSpaceOnUse">
<stop stop-color="#FCC18B"/>
<stop offset="1" stop-color="#FEEDDD"/>
</linearGradient>
<linearGradient id="paint3_linear" x1="48.9087" y1="140.317" x2="74.67" y2="231.774" gradientUnits="userSpaceOnUse">
<stop stop-color="#73BCF9"/>
<stop offset="1" stop-color="#7A96F8"/>
</linearGradient>
</defs>
</svg>
