<svg width="166" height="201" viewBox="0 0 166 201" fill="none" xmlns="http://www.w3.org/2000/svg">
<path d="M166 0H26.8071V188.61H140.223L166 163.14V0Z" fill="#F2F2F2"/>
<path d="M140.223 188.609L166 163.14H140.223V188.609Z" fill="#1490BD"/>
<path d="M82.8277 18.2411H43.9912V57.1332H82.8277V18.2411Z" fill="url(#paint0_linear)"/>
<path d="M63.5813 18.2411H43.9912V57.1332H63.5813V18.2411Z" fill="url(#paint1_linear)"/>
<path d="M63.582 42.6776C68.7373 42.6776 73.2052 38.5475 73.2052 33.0407C73.2052 27.878 69.081 23.4037 63.582 23.4037V42.6776Z" fill="#002541"/>
<path d="M63.5822 42.6776C58.4269 42.6776 53.959 38.5475 53.959 33.0407C53.959 27.878 58.0832 23.4037 63.5822 23.4037V42.6776Z" fill="#004592"/>
<path d="M63.5822 52.3149V42.6779C58.4269 42.6779 53.959 46.808 53.959 52.3149H63.5822Z" fill="#004592"/>
<path d="M73.2052 52.3149C73.2052 47.1522 68.7373 42.6779 63.582 42.6779V52.3149H73.2052Z" fill="#002541"/>
<path d="M150.877 20.9951H105.167V24.781H150.877V20.9951Z" fill="#1490BD"/>
<path d="M150.877 30.6317H105.167V34.4177H150.877V30.6317Z" fill="#1490BD"/>
<path d="M150.877 40.2692H105.167V44.0552H150.877V40.2692Z" fill="#1490BD"/>
<path d="M150.877 49.5614H105.167V53.3474H150.877V49.5614Z" fill="#1490BD"/>
<path d="M151.221 71.933H43.9912V75.7189H151.221V71.933Z" fill="#1490BD"/>
<path d="M151.221 81.2262H43.9912V85.0122H151.221V81.2262Z" fill="#1490BD"/>
<path d="M151.221 90.8628H43.9912V94.6487H151.221V90.8628Z" fill="#1490BD"/>
<path d="M151.221 100.5H43.9912V104.286H151.221V100.5Z" fill="#1490BD"/>
<path d="M151.565 115.644H43.9912V119.43H151.565V115.644Z" fill="#1490BD"/>
<path d="M151.565 125.281H43.9912V129.067H151.565V125.281Z" fill="#1490BD"/>
<path d="M151.565 134.574H43.9912V138.36H151.565V134.574Z" fill="#1490BD"/>
<path d="M151.565 144.21H43.9912V147.996H151.565V144.21Z" fill="#1490BD"/>
<path d="M99.6688 22.716C99.6688 23.7485 98.9814 24.4369 97.9504 24.4369C96.9193 24.4369 96.2319 23.7485 96.2319 22.716C96.2319 21.6834 96.9193 20.9951 97.9504 20.9951C98.6377 20.9951 99.6688 22.0276 99.6688 22.716Z" fill="#004592"/>
<path d="M99.6688 32.3526C99.6688 33.3851 98.9814 34.0735 97.9504 34.0735C96.9193 34.0735 96.2319 33.3851 96.2319 32.3526C96.2319 31.3201 96.9193 30.6317 97.9504 30.6317C98.6377 30.6317 99.6688 31.3201 99.6688 32.3526Z" fill="#004592"/>
<path d="M99.6688 41.9901C99.6688 43.0226 98.9814 43.711 97.9504 43.711C96.9193 43.711 96.2319 43.0226 96.2319 41.9901C96.2319 40.9576 96.9193 40.2692 97.9504 40.2692C98.6377 40.2692 99.6688 40.9576 99.6688 41.9901Z" fill="#004592"/>
<path d="M99.6688 51.2823C99.6688 52.3148 98.9814 53.0032 97.9504 53.0032C96.9193 53.0032 96.2319 52.3148 96.2319 51.2823C96.2319 50.2498 96.9193 49.5614 97.9504 49.5614C98.6377 49.5614 99.6688 50.594 99.6688 51.2823Z" fill="#004592"/>
<path d="M37.8054 128.722L49.4907 152.471L75.9545 156.257L56.7081 174.842L61.5197 201L37.8054 188.609L14.4348 201L18.9027 174.842L0 156.257L26.1201 152.471L37.8054 128.722Z" fill="#FAB400"/>
<path d="M75.9547 156.257L49.491 152.471L37.8057 128.722V188.609L61.5199 201L56.7084 174.842L75.9547 156.257Z" fill="#DC9600"/>
<defs>
<linearGradient id="paint0_linear" x1="55.0033" y1="23.713" x2="73.4532" y2="57.1109" gradientUnits="userSpaceOnUse">
<stop stop-color="#5FA8ED"/>
<stop offset="1" stop-color="#7ED5B7"/>
</linearGradient>
<linearGradient id="paint1_linear" x1="49.546" y1="23.713" x2="71.2513" y2="43.5322" gradientUnits="userSpaceOnUse">
<stop stop-color="#5FA8ED"/>
<stop offset="1" stop-color="#7ED5B7"/>
</linearGradient>
</defs>
</svg>
