<svg width="270" height="270" viewBox="0 0 270 270" fill="none" xmlns="http://www.w3.org/2000/svg">
<path d="M-0.000286435 134.663C0.00642444 100.4 13.0755 67.4278 36.5451 42.462C60.0147 17.4961 92.1197 2.41423 126.322 0.287915C160.524 -1.8384 194.25 9.15073 220.632 31.0174C247.014 52.884 264.067 83.9834 268.319 117.982C271.639 144.583 266.941 171.57 254.828 195.486C241.163 222.515 218.783 244.148 191.303 256.889C163.824 269.63 132.851 272.736 103.389 265.704C73.9265 258.671 47.696 241.912 28.9356 218.135C10.1752 194.357 -0.0191437 164.949 -0.000286435 134.663Z" fill="url(#paint0_linear)"/>
<path d="M11.5515 189.32C76.6457 222.724 98.9654 208.715 168.513 183.93C208.262 169.751 237.275 182.207 254.824 195.484C243.314 218.212 225.593 237.21 203.718 250.272C181.842 263.335 156.711 269.926 131.239 269.281C105.768 268.635 81.0026 260.78 59.8172 246.626C38.6318 232.473 21.8956 212.602 11.5515 189.32Z" fill="url(#paint1_linear)"/>
<path d="M5.17492 97.4684C13.752 67.6498 32.3617 41.7061 57.8593 24.0215C83.3568 6.33683 114.179 -2.00429 145.116 0.40757C176.054 2.81943 205.21 15.8363 227.658 37.2588C250.106 58.6812 264.469 87.1954 268.32 117.983C256.477 106.814 242.462 98.2013 227.148 92.6795C211.833 87.1576 195.546 84.8451 179.3 85.8855C108.511 90.0475 54.106 140.054 5.17492 97.4684Z" fill="url(#paint2_linear)"/>
<defs>
<linearGradient id="paint0_linear" x1="192.98" y1="231.487" x2="65.2985" y2="0.0279032" gradientUnits="userSpaceOnUse">
<stop stop-color="#5FA8ED"/>
<stop offset="1" stop-color="#7ED5B7"/>
</linearGradient>
<linearGradient id="paint1_linear" x1="185.844" y1="256.426" x2="165.371" y2="157.937" gradientUnits="userSpaceOnUse">
<stop stop-color="#5FA8ED"/>
<stop offset="1" stop-color="#7ED5B7"/>
</linearGradient>
<linearGradient id="paint2_linear" x1="193.705" y1="101.384" x2="162.885" y2="-23.2288" gradientUnits="userSpaceOnUse">
<stop stop-color="#5FA8ED"/>
<stop offset="1" stop-color="#7ED5B7"/>
</linearGradient>
</defs>
</svg>
