<svg width="171" height="171" viewBox="0 0 171 171" fill="none" xmlns="http://www.w3.org/2000/svg">
<path d="M128.115 30.3831H117.54C110.474 30.3831 104.746 36.1111 104.746 43.1773V55.518L107.843 57.3818H129.343V32.6333L128.115 30.3831Z" fill="#EFC984"/>
<path d="M151.398 116.343C151.398 109.349 146.789 103.193 140.079 101.223L121.364 95.7285L121.376 91.7197H113.006L94.7111 97.0894C88.1532 99.0143 83.6484 105.031 83.6484 111.865V141.091H151.399L151.398 116.343Z" fill="url(#paint0_linear)"/>
<path d="M159.925 97.0891L141.636 91.7201H119.988L119.972 96.9896L138.261 102.359C144.818 104.284 149.322 110.3 149.322 117.134V141.091H170.986V111.865C170.986 105.031 166.482 99.0144 159.925 97.0891Z" fill="url(#paint1_linear)"/>
<path d="M137.666 141.091L130.946 111.131H123.667L116.948 141.091H137.666Z" fill="#939598"/>
<path d="M137.361 95.4038V79.2529H117.266V95.4038C117.266 100.953 127.313 101.446 127.313 101.446C127.313 101.446 137.361 100.953 137.361 95.4038Z" fill="#FFDDCE"/>
<path d="M128.905 72.7144C129.219 71.3392 129.343 69.9279 129.343 68.5176V47.1153C125.47 47.3754 121.559 46.8895 117.827 45.6569L117.82 45.6545C115.178 44.7816 112.455 46.7493 112.455 49.5318V51.6498C112.455 53.7861 110.724 55.518 108.587 55.518H104.746V61.8435C104.746 63.4598 106.057 64.7703 107.673 64.7703C108.183 64.7703 108.598 65.1697 108.63 65.6786C109.154 73.9945 115.103 80.8376 122.98 82.7044C125.893 80.1153 128.009 76.6478 128.905 72.7144Z" fill="#FFDDCE"/>
<path d="M144.322 37.8196H144.134C143.097 37.8196 142.257 36.979 142.257 35.9421C142.257 32.872 139.768 30.3831 136.698 30.3831H128.115V57.3818H146.784L149.881 55.518V43.3787C149.881 40.3086 147.392 37.8196 144.322 37.8196Z" fill="#EABC6B"/>
<path d="M146.039 55.5181C143.903 55.5181 142.171 53.7862 142.171 51.6499V49.5329C142.171 46.75 139.448 44.7824 136.806 45.6557C133.981 46.5894 131.052 47.09 128.115 47.1675V67.8678C128.115 69.2541 127.993 70.6417 127.684 71.9932C126.753 76.0792 124.483 79.6538 121.364 82.2387C123.234 82.8652 125.233 83.2085 127.314 83.2085C137.254 83.2085 145.38 75.4627 145.997 65.6784C146.029 65.1694 146.444 64.77 146.954 64.77C148.57 64.77 149.881 63.4596 149.881 61.8432V55.5178H146.039V55.5181Z" fill="#FFCBBE"/>
<path d="M113.348 90.6489L110.487 91.9337C108.853 92.667 108.459 94.8084 109.724 96.0757L117.649 104.013C118.654 104.992 120.237 105.052 121.313 104.153L127.528 98.9618L116.933 91.0447C115.899 90.2712 114.526 90.1199 113.348 90.6489Z" fill="#365E7D"/>
<path d="M137.689 91.0937L127.528 98.9611L133.369 103.955C134.439 104.87 136.029 104.824 137.044 103.849L144.974 96.1268C146.27 94.8647 145.882 92.693 144.23 91.9566L141.313 90.6569C140.116 90.1242 138.724 90.2922 137.689 91.0937Z" fill="#365E7D"/>
<path d="M151.403 167.428L151.4 134.462H40.6543V170.821H149.242C150.458 170.171 151.308 168.895 151.403 167.428Z" fill="#DDB7A0"/>
<path d="M149.327 134.463V167.057C149.193 169.136 147.508 170.821 145.429 170.821H163.844C167.788 170.821 170.986 167.623 170.986 163.679V134.463H149.327Z" fill="#D6A889"/>
<path d="M52.2356 124.798V109.091H32.6924V124.798C32.6924 130.195 42.464 130.674 42.464 130.674C42.464 130.674 52.2356 130.195 52.2356 124.798Z" fill="#FFDDCE"/>
<path d="M42.9251 114.474C47.6833 112.821 50.8729 108.336 50.8712 103.299C50.8702 100.514 50.4635 97.744 49.664 95.076C48.3492 90.6898 47.6803 86.135 47.6789 81.5557V81.5444C47.6756 71.0197 41.5932 61.9221 32.755 57.5559C23.2042 61.4031 16.4619 70.7549 16.4586 81.6827V81.6937C16.4573 86.145 15.8074 90.5723 14.529 94.8359C13.7515 97.4294 13.3561 100.122 13.3555 102.829C13.3538 107.726 16.4539 112.085 21.0792 113.691C25.4427 115.206 29.9271 116.244 34.4559 116.804C37.3142 116.216 40.1435 115.439 42.9251 114.474Z" fill="#407093"/>
<path d="M70.4062 94.836C69.1281 90.5721 68.4779 86.1448 68.4766 81.6938V81.6828C68.4722 67.3216 56.8288 55.6819 42.4676 55.6819C38.581 55.6819 34.8968 56.5405 31.585 58.0687C40.51 62.1874 46.7082 71.2082 46.7112 81.6828V81.6938C46.7126 86.1451 47.3624 90.5724 48.6408 94.836C49.4183 97.4292 49.8137 100.122 49.8144 102.829C49.816 107.725 46.7159 112.085 42.0906 113.691C38.6515 114.885 35.1369 115.782 31.585 116.383C42.3404 118.203 53.4418 117.306 63.8559 113.691C68.4812 112.085 71.5814 107.725 71.5797 102.829C71.5787 100.122 71.1833 97.4295 70.4062 94.836Z" fill="#365E7D"/>
<path d="M74.247 36.1305V7.56948C74.247 0.609139 68.1887 0.00367353 64.0112 0H19.3869C15.2064 0 11.8174 3.389 11.8174 7.56948V36.1305C11.8174 40.311 15.2064 43.7 19.3869 43.7H65.2051L67.0546 43.6001C69.3125 43.4782 71.4565 42.4189 72.7913 40.5938C73.7067 39.3425 74.247 37.7996 74.247 36.1305Z" fill="url(#paint2_linear)"/>
<path d="M85.9566 0H64.0112C68.1917 0 71.5807 3.389 71.5807 7.56948V36.1305C71.5807 39.7723 69.0086 42.8127 65.5818 43.5357C65.4429 43.5651 65.317 43.6232 65.2051 43.7H72.2837C72.5762 43.7 72.8568 43.8162 73.0638 44.0233L84.3943 55.3538C85.2355 56.195 86.6742 55.5992 86.6742 54.4093V44.609C86.6742 44.0964 87.0256 43.6415 87.5272 43.5357C90.9539 42.8127 93.5264 39.7726 93.5264 36.1305V7.56948C93.526 3.389 90.137 0 85.9566 0Z" fill="url(#paint3_linear)"/>
<path d="M64.776 144.884C64.776 138.238 61.038 135.029 54.0186 133.522L50.0522 132.767C47.1999 132.224 45.0017 130.075 44.3091 127.366C39.7586 128.144 34.7526 125.996 32.7155 120.921L32.6924 120.864L10.7581 125.106C4.38085 126.978 0 132.829 0 139.476V163.836C0 167.786 3.20666 170.987 7.15704 170.979L63.1704 170.864L64.74 169.66L64.776 144.884Z" fill="url(#paint4_linear)"/>
<path d="M81.7127 170.847C83.497 170.833 84.936 169.382 84.936 167.598V139.475C84.936 132.828 80.5558 126.977 74.1786 125.105L52.2359 120.927C50.4763 125.302 46.5102 127.498 42.5338 127.519C42.9315 130.639 45.2879 133.209 48.4468 133.811L52.4133 134.566C59.4324 136.073 63.1707 139.282 63.1707 145.928V170.865L81.7127 170.847Z" fill="url(#paint5_linear)"/>
<path d="M133.37 103.956L127.529 98.9617L121.315 104.153C120.914 104.487 120.444 104.688 119.959 104.759L123.669 111.131H130.948L134.616 104.557C134.169 104.469 133.738 104.271 133.37 103.956Z" fill="#6E7074"/>
<defs>
<linearGradient id="paint0_linear" x1="127.317" y1="91.7197" x2="127.317" y2="141.091" gradientUnits="userSpaceOnUse">
<stop stop-color="#C9C9C9"/>
<stop offset="1" stop-color="#F4F4F4"/>
</linearGradient>
<linearGradient id="paint1_linear" x1="127.317" y1="91.7197" x2="127.317" y2="141.091" gradientUnits="userSpaceOnUse">
<stop stop-color="#C9C9C9"/>
<stop offset="1" stop-color="#F4F4F4"/>
</linearGradient>
<linearGradient id="paint2_linear" x1="34.986" y1="7.84327" x2="55.5841" y2="62.5726" gradientUnits="userSpaceOnUse">
<stop stop-color="#5FA8ED"/>
<stop offset="1" stop-color="#7ED5B7"/>
</linearGradient>
<linearGradient id="paint3_linear" x1="34.986" y1="7.84327" x2="55.5841" y2="62.5726" gradientUnits="userSpaceOnUse">
<stop stop-color="#5FA8ED"/>
<stop offset="1" stop-color="#7ED5B7"/>
</linearGradient>
<linearGradient id="paint4_linear" x1="24.0836" y1="127.915" x2="40.6143" y2="178.703" gradientUnits="userSpaceOnUse">
<stop stop-color="#5FA8ED"/>
<stop offset="1" stop-color="#7ED5B7"/>
</linearGradient>
<linearGradient id="paint5_linear" x1="24.0836" y1="127.915" x2="40.6143" y2="178.703" gradientUnits="userSpaceOnUse">
<stop stop-color="#5FA8ED"/>
<stop offset="1" stop-color="#7ED5B7"/>
</linearGradient>
</defs>
</svg>
