<svg width="181" height="179" viewBox="0 0 181 179" fill="none" xmlns="http://www.w3.org/2000/svg">
<path d="M130.594 115.454V115.968C130.594 118.89 128.223 121.262 125.3 121.262H55.6733C52.7511 121.262 50.3789 118.89 50.3789 115.968V115.454C50.3789 102.727 56.3029 91.3816 65.546 84.039C66.1705 83.5416 66.806 83.0647 67.457 82.6093C71.56 79.7241 76.2292 77.5903 81.2638 76.4049C84.2228 75.7111 87.3095 75.3406 90.4804 75.3406H90.4907C93.6881 75.3406 96.8014 75.7163 99.7819 76.4204C104.79 77.6117 109.427 79.7396 113.515 82.6093C114.166 83.0647 114.807 83.5408 115.426 84.039C116.622 84.9867 117.766 86.0083 118.846 87.0881C126.105 94.3465 130.594 104.374 130.594 115.454Z" fill="url(#paint0_linear)"/>
<path d="M62.1562 39.0675V46.9924C62.1562 62.5743 74.9054 75.3235 90.4873 75.3235C106.069 75.3235 118.818 62.5743 118.818 46.9924V39.0675C118.818 23.4907 106.242 10.8353 90.6652 10.7371C74.9497 10.6382 62.1562 23.3512 62.1562 39.0675Z" fill="url(#paint1_linear)"/>
<path d="M99.7835 76.4211L95.6959 85.7913H85.6438L81.2646 76.4049C84.2237 75.7111 87.3104 75.3406 90.4812 75.3406H90.4916C93.6897 75.3413 96.803 75.717 99.7835 76.4211Z" fill="#87828E"/>
<path d="M85.6424 85.791L78.4902 121.262H102.619L95.696 85.791H85.6424Z" fill="#939598"/>
<path d="M113.68 0H88.65C80.6144 0 73.9464 5.8376 72.6451 13.5027C72.4053 9.40112 69.0137 6.14686 64.8516 6.14686C60.5345 6.14686 57.0352 9.64617 57.0352 13.9633V30.6878C57.0352 32.057 58.1453 33.1671 59.5144 33.1671H121.458C122.828 33.1671 123.938 32.057 123.938 30.6878V10.2573C123.938 4.59243 119.345 0 113.68 0Z" fill="#B76C6C"/>
<path d="M47.8355 36.064H2.5415C1.13838 36.064 0.000976562 37.2014 0.000976562 38.6045V77.5626C0.000976562 78.9658 1.13838 80.1032 2.5415 80.1032H38.148L45.8803 89.4216C47.3993 91.2521 50.376 90.1782 50.376 87.7993V77.5626V72.8197V38.6045C50.3767 37.2014 49.2393 36.064 47.8355 36.064Z" fill="url(#paint2_linear)"/>
<path d="M133.139 36.064H178.433C179.836 36.064 180.974 37.2014 180.974 38.6045V77.5626C180.974 78.9658 179.836 80.1032 178.433 80.1032H142.827L135.094 89.4216C133.575 91.2521 130.599 90.1782 130.599 87.7993V77.5626V72.8197V38.6045C130.598 37.2014 131.735 36.064 133.139 36.064Z" fill="url(#paint3_linear)"/>
<path d="M68.1742 175.324V175.649C68.1742 177.499 66.673 179 64.8233 179H20.7494C18.8997 179 17.3984 177.499 17.3984 175.649V175.324C17.3984 167.268 21.148 160.087 26.9996 155.439C27.3952 155.123 27.7975 154.822 28.2093 154.534C30.8067 152.708 33.762 151.357 36.9491 150.606C38.8224 150.167 40.7761 149.932 42.783 149.932H42.7897C44.8135 149.932 46.7842 150.17 48.6708 150.616C51.8409 151.37 54.7763 152.717 57.3634 154.534C57.7752 154.822 58.1812 155.123 58.5731 155.439C59.3304 156.039 60.0545 156.685 60.7379 157.369C65.3326 161.964 68.1742 168.311 68.1742 175.324Z" fill="url(#paint4_linear)"/>
<path d="M24.8535 126.971V131.988C24.8535 141.851 32.9239 149.921 42.787 149.921C52.6502 149.921 60.7205 141.851 60.7205 131.988V126.971C60.7205 117.111 52.7602 109.101 42.9 109.039C32.9512 108.976 24.8535 117.023 24.8535 126.971Z" fill="url(#paint5_linear)"/>
<path d="M57.469 102.243H41.625C36.5388 102.243 32.3176 105.938 31.4939 110.79C31.3426 108.194 29.1948 106.133 26.5605 106.133C23.8281 106.133 21.6123 108.348 21.6123 111.081V121.668C21.6123 122.534 22.315 123.237 23.1815 123.237H62.3921C63.2586 123.237 63.9613 122.534 63.9613 121.668V108.736C63.962 105.149 61.0547 102.243 57.469 102.243Z" fill="#B76C6C"/>
<path d="M163.575 175.324V175.649C163.575 177.499 162.073 179 160.224 179H116.15C114.3 179 112.799 177.499 112.799 175.649V175.324C112.799 167.268 116.548 160.087 122.4 155.439C122.796 155.123 123.198 154.822 123.61 154.534C126.207 152.708 129.162 151.357 132.35 150.606C134.223 150.167 136.177 149.932 138.183 149.932H138.19C140.214 149.932 142.185 150.17 144.071 150.616C147.241 151.37 150.177 152.717 152.764 154.534C153.176 154.822 153.582 155.123 153.973 155.439C154.731 156.039 155.455 156.685 156.138 157.369C160.733 161.964 163.575 168.311 163.575 175.324Z" fill="url(#paint6_linear)"/>
<path d="M120.253 126.971V131.988C120.253 141.851 128.323 149.921 138.186 149.921C148.05 149.921 156.12 141.851 156.12 131.988V126.971C156.12 117.111 148.16 109.101 138.299 109.039C128.351 108.976 120.253 117.023 120.253 126.971Z" fill="url(#paint7_linear)"/>
<path d="M152.867 102.243H137.023C131.937 102.243 127.716 105.938 126.892 110.79C126.741 108.194 124.593 106.133 121.959 106.133C119.227 106.133 117.011 108.348 117.011 111.081V121.668C117.011 122.534 117.713 123.237 118.58 123.237H157.791C158.657 123.237 159.36 122.534 159.36 121.668V108.736C159.36 105.149 156.454 102.243 152.867 102.243Z" fill="#B76C6C"/>
<line x1="8.48926" y1="45.6311" x2="40.9655" y2="45.6311" stroke="black"/>
<line x1="139.501" y1="45.6311" x2="171.977" y2="45.6311" stroke="black"/>
<line x1="8.48926" y1="53.012" x2="40.9655" y2="53.012" stroke="black"/>
<line x1="139.501" y1="53.012" x2="171.977" y2="53.012" stroke="black"/>
<line x1="8.48926" y1="65.1907" x2="40.9655" y2="65.1907" stroke="black"/>
<line x1="139.501" y1="65.1907" x2="171.977" y2="65.1907" stroke="black"/>
<line x1="8.48926" y1="71.0952" x2="40.9655" y2="71.0952" stroke="black"/>
<line x1="139.501" y1="71.0952" x2="171.977" y2="71.0952" stroke="black"/>
<line x1="8.48926" y1="59.2856" x2="21.775" y2="59.2856" stroke="black"/>
<line x1="139.501" y1="59.2856" x2="152.787" y2="59.2856" stroke="black"/>
<line x1="23.9893" y1="59.2856" x2="40.9655" y2="59.2856" stroke="black"/>
<line x1="155.001" y1="59.2856" x2="171.977" y2="59.2856" stroke="black"/>
<defs>
<linearGradient id="paint0_linear" x1="90.4867" y1="75.3406" x2="90.4867" y2="121.262" gradientUnits="userSpaceOnUse">
<stop stop-color="#D7D7D7"/>
<stop offset="1" stop-color="#F4F4F4"/>
</linearGradient>
<linearGradient id="paint1_linear" x1="62.002" y1="46.8691" x2="121.05" y2="46.131" gradientUnits="userSpaceOnUse">
<stop stop-color="#FFCDB4"/>
<stop offset="1" stop-color="#FEEEDE"/>
</linearGradient>
<linearGradient id="paint2_linear" x1="14.2848" y1="43.7009" x2="41.0062" y2="88.6554" gradientUnits="userSpaceOnUse">
<stop stop-color="#5FA8ED"/>
<stop offset="1" stop-color="#7ED5B7"/>
</linearGradient>
<linearGradient id="paint3_linear" x1="144.882" y1="43.7009" x2="171.604" y2="88.6554" gradientUnits="userSpaceOnUse">
<stop stop-color="#5FA8ED"/>
<stop offset="1" stop-color="#7ED5B7"/>
</linearGradient>
<linearGradient id="paint4_linear" x1="31.7959" y1="154.022" x2="41.1513" y2="183.647" gradientUnits="userSpaceOnUse">
<stop stop-color="#8177F7"/>
<stop offset="1" stop-color="#799FF8"/>
</linearGradient>
<linearGradient id="paint5_linear" x1="24.7288" y1="131.381" x2="60.8955" y2="129.536" gradientUnits="userSpaceOnUse">
<stop stop-color="#FFCFB6"/>
<stop offset="1" stop-color="#FEECDB"/>
</linearGradient>
<linearGradient id="paint6_linear" x1="127.196" y1="154.022" x2="136.552" y2="183.647" gradientUnits="userSpaceOnUse">
<stop stop-color="#EF8197"/>
<stop offset="0.942708" stop-color="#F7C58F"/>
</linearGradient>
<linearGradient id="paint7_linear" x1="120.312" y1="129.536" x2="156.11" y2="129.536" gradientUnits="userSpaceOnUse">
<stop stop-color="#FFD0B7"/>
<stop offset="1" stop-color="#FEEBDA"/>
</linearGradient>
</defs>
</svg>
