<svg width="299" height="312" viewBox="0 0 299 312" fill="none" xmlns="http://www.w3.org/2000/svg">
<path d="M206.428 136.217C205.258 139.307 204.158 141.597 204.368 142.427C204.98 144.474 205.049 146.645 204.568 148.727C204.268 150.307 197.188 152.817 197.188 152.817L195.398 132.247L206.428 136.217Z" fill="#DBBCB8"/>
<path d="M167.628 170.917L164.018 208.017C163.838 209.817 165.018 211.017 166.478 212.017L170.158 214.647C170.565 215.004 171.043 215.268 171.56 215.424C172.078 215.579 172.623 215.621 173.158 215.547C173.907 215.428 174.637 215.209 175.328 214.897H175.408L175.638 214.797L217.758 195.647C219.269 194.961 220.572 193.888 221.538 192.539C222.503 191.189 223.096 189.609 223.258 187.957L226.548 154.167C226.565 153.746 226.484 153.327 226.31 152.944C226.137 152.56 225.876 152.222 225.548 151.957L219.258 147.467C218.904 147.24 218.501 147.1 218.082 147.058C217.663 147.017 217.24 147.074 216.848 147.227L169.048 168.917C168.648 169.093 168.303 169.372 168.048 169.727C167.813 170.084 167.669 170.492 167.628 170.917Z" fill="#37474F"/>
<path d="M167.628 170.917L164.018 208.017C163.838 209.817 165.018 211.017 166.478 212.017L170.158 214.647C170.565 215.004 171.043 215.268 171.56 215.424C172.078 215.579 172.623 215.621 173.158 215.547C173.907 215.428 174.637 215.209 175.328 214.897C173.698 215.477 172.558 214.547 172.738 212.707L176.138 177.757C176.22 177.119 176.465 176.513 176.848 175.997L168.108 169.747C167.855 170.092 167.69 170.494 167.628 170.917Z" fill="#263238"/>
<path d="M176.128 177.717C176.226 177.085 176.47 176.484 176.841 175.963C177.213 175.442 177.702 175.015 178.268 174.717L223.428 154.197C225.208 153.387 226.518 154.317 226.328 156.267L223.248 187.917C223.088 189.571 222.496 191.153 221.53 192.504C220.565 193.856 219.26 194.93 217.748 195.617L175.628 214.747C173.838 215.557 172.538 214.617 172.728 212.667L176.128 177.717Z" fill="#455A64"/>
<path d="M221.278 148.917L173.388 170.917C172.713 171.229 172.131 171.711 171.7 172.316C171.268 172.921 171.002 173.628 170.928 174.367L167.208 212.517L167.868 212.987L171.618 174.407C171.679 173.785 171.904 173.19 172.269 172.683C172.635 172.175 173.128 171.773 173.698 171.517L221.948 149.337L221.278 148.917Z" fill="#BA68C8"/>
<path opacity="0.2" d="M171.698 172.287C171.27 172.894 171.005 173.599 170.928 174.337L167.208 212.517L167.868 212.987L171.618 174.407C171.678 173.786 171.902 173.193 172.268 172.687L171.698 172.287Z" fill="black"/>
<path opacity="0.2" d="M172.268 172.687C172.632 172.176 173.125 171.772 173.698 171.517L221.948 149.337L221.298 148.867L173.388 170.917C172.713 171.229 172.13 171.711 171.698 172.317" fill="black"/>
<path d="M204.699 152.047L204.139 157.787L206.259 159.307L207.009 151.677C207.009 151.287 206.789 151.097 206.429 151.267L204.699 152.047Z" fill="#BA68C8"/>
<path opacity="0.4" d="M204.699 152.047L204.139 157.787L206.259 159.307L207.009 151.677C207.009 151.287 206.789 151.097 206.429 151.267L204.699 152.047Z" fill="black"/>
<path d="M188.378 156.187L187.468 165.487L189.468 166.937L190.988 166.237L191.738 158.607C191.768 158.395 191.85 158.193 191.975 158.019C192.1 157.845 192.266 157.704 192.458 157.607L204.008 152.357L206.418 151.267C206.778 151.097 207.028 151.267 206.998 151.677L206.248 159.307L207.778 158.617L208.688 149.317V149.197C208.676 149.003 208.624 148.814 208.535 148.642C208.445 148.469 208.32 148.318 208.168 148.197L207.308 147.577C207.126 147.462 206.921 147.392 206.707 147.371C206.493 147.35 206.278 147.38 206.078 147.457L189.078 155.187C188.893 155.29 188.733 155.433 188.612 155.606C188.491 155.78 188.411 155.978 188.378 156.187Z" fill="#BA68C8"/>
<path opacity="0.2" d="M190.398 157.637L189.498 166.937L191.018 166.237L191.768 158.607C191.798 158.395 191.88 158.193 192.005 158.019C192.131 157.845 192.296 157.704 192.488 157.607L204.038 152.357L206.448 151.267C206.808 151.097 207.058 151.267 207.028 151.677L206.278 159.307L207.808 158.617L208.718 149.317V149.197C208.718 148.887 208.448 148.757 208.128 148.897L191.128 156.627C190.938 156.729 190.773 156.873 190.646 157.048C190.52 157.223 190.435 157.425 190.398 157.637Z" fill="black"/>
<path d="M204.359 150.917C205.529 149.747 206.599 150.167 206.549 151.027C206.499 151.887 206.759 154.397 206.629 155.727C206.499 157.057 204.419 157.777 203.629 156.987C203.699 157.717 201.629 159.187 200.339 158.497C200.053 159.101 199.581 159.596 198.992 159.909C198.403 160.223 197.728 160.338 197.069 160.237C197.069 160.237 196.689 161.347 194.659 161.107C192.629 160.867 191.729 158.627 191.729 158.627C191.839 158.007 192.059 157.757 192.729 157.487L195.889 156.047L200.069 153.047C200.069 153.047 200.899 151.047 201.899 150.837C202.899 150.627 203.529 152.217 203.529 152.217C203.679 151.715 203.967 151.265 204.359 150.917Z" fill="#DBBCB8"/>
<path d="M201.088 135.067C200.088 138.067 199.088 139.917 200.088 143.357C200.746 145.738 200.947 148.222 200.678 150.677C200.538 151.821 200.266 152.945 199.868 154.027C199.698 154.517 199.518 155.027 199.358 155.507C199.214 156.02 198.995 156.509 198.708 156.957C198.34 157.478 197.895 157.94 197.388 158.327C196.968 158.667 196.508 158.957 196.108 159.327C195.795 159.64 195.504 159.974 195.238 160.327C194.958 160.657 194.658 160.817 194.238 160.567C194.055 160.458 193.896 160.313 193.769 160.141C193.642 159.97 193.55 159.775 193.498 159.567C193.428 159.31 193.391 159.044 193.388 158.777C193.411 158.349 193.488 157.926 193.618 157.517C193.888 156.517 194.618 155.747 194.788 154.747C194.865 154.385 194.912 154.017 194.928 153.647C194.928 153.547 194.928 153.027 194.928 152.517L189.858 154.817C189.858 154.817 189.858 150.237 189.858 148.257C189.858 146.277 191.358 144.377 192.538 142.067C193.718 139.757 194.208 138.227 195.408 132.237L201.088 135.067Z" fill="#FFD5C8"/>
<path d="M222.518 59.4473C214.698 62.7873 212.168 65.5673 209.698 74.9173C206.698 86.2373 202.468 106.037 202.468 106.037L192.858 138.387C192.858 138.387 196.218 142.897 206.448 141.217C206.448 141.217 215.338 122.697 218.868 115.657C220.688 112.027 222.128 109.307 222.708 104.057C223.288 98.8073 222.518 59.4473 222.518 59.4473Z" fill="#263238"/>
<path d="M281.467 250.467L276.087 252.107L275.277 248.237L279.687 248.647L281.467 250.467Z" fill="black"/>
<path d="M279.987 239.617C279.987 239.617 282.247 242.207 282.987 243.037C283.727 243.867 282.087 249.337 281.517 250.467L279.697 248.647C279.629 250.274 279.763 251.903 280.097 253.497C280.337 255.257 281.217 258.257 280.497 261.317C279.427 265.867 275.877 270.487 271.497 274.157C267.117 277.827 263.597 278.727 261.497 278.737C259.397 278.747 258.137 277.897 257.577 276.497C257.017 275.097 279.987 239.617 279.987 239.617Z" fill="#263238"/>
<path d="M260.697 239.737L259.427 238.197C258.567 238.817 260.227 241.197 260.547 244.127C261.071 248.494 261.034 252.91 260.437 257.267C259.057 265.037 256.977 270.857 256.367 274.337C255.567 278.997 263.517 279.337 270.637 273.157C274.167 270.107 279.297 263.207 279.457 259.597C279.617 255.987 278.137 251.727 278.397 249.007C278.657 246.287 280.587 242.247 280.027 239.617C279.717 238.177 277.547 235.907 275.637 234.047C273.877 232.337 272.397 228.637 271.497 229.707L272.147 230.987C272.347 232.167 271.577 234.917 268.987 237.707C267.697 239.107 263.327 242.657 260.697 239.737Z" fill="#455A64"/>
<path opacity="0.15" d="M266.618 239.627C265.108 240.627 263.218 241.307 261.618 240.487H261.558C262.059 240.967 262.443 241.556 262.68 242.208C262.918 242.86 263.002 243.557 262.928 244.247C262.798 246.827 262.838 264.247 262.838 264.247C262.838 264.247 263.698 249.167 263.838 246.317C264.118 242.087 264.598 241.247 266.568 239.617L266.618 239.627Z" fill="black"/>
<path d="M256.327 274.337C256.837 271.397 258.407 266.777 259.717 260.737C259.887 262.607 259.487 264.467 259.717 264.977C260.217 266.227 264.377 265.317 266.627 264.377C268.877 263.437 268.917 259.137 269.807 254.607C270.697 250.077 275.287 251.037 278.807 253.707C279.215 255.644 279.419 257.618 279.417 259.597C279.257 263.197 274.127 270.107 270.597 273.157C263.477 279.297 255.527 278.997 256.327 274.337Z" fill="#37474F"/>
<path opacity="0.15" d="M267.007 243.967C267.06 244.021 267.123 244.063 267.193 244.092C267.262 244.121 267.337 244.136 267.412 244.136C267.488 244.136 267.562 244.121 267.632 244.092C267.701 244.063 267.764 244.021 267.817 243.967C267.908 243.857 267.956 243.718 267.95 243.575C267.945 243.433 267.887 243.297 267.788 243.195C267.689 243.092 267.556 243.029 267.414 243.019C267.272 243.008 267.13 243.05 267.017 243.137C266.96 243.19 266.914 243.254 266.883 243.325C266.851 243.396 266.834 243.472 266.833 243.55C266.832 243.628 266.847 243.705 266.877 243.777C266.907 243.848 266.951 243.913 267.007 243.967Z" fill="black"/>
<path opacity="0.15" d="M266.697 248.087C266.806 248.193 266.951 248.252 267.102 248.252C267.254 248.252 267.399 248.193 267.507 248.087C267.561 248.034 267.603 247.971 267.632 247.902C267.661 247.832 267.676 247.758 267.676 247.682C267.676 247.607 267.661 247.532 267.632 247.463C267.603 247.393 267.561 247.33 267.507 247.277C267.399 247.169 267.251 247.107 267.097 247.107C266.943 247.107 266.796 247.169 266.687 247.277C266.585 247.388 266.529 247.534 266.531 247.684C266.533 247.835 266.593 247.979 266.697 248.087Z" fill="black"/>
<path opacity="0.15" d="M266.348 252.197C266.428 252.276 266.529 252.33 266.64 252.352C266.75 252.373 266.864 252.362 266.968 252.318C267.072 252.275 267.161 252.202 267.223 252.108C267.285 252.015 267.319 251.905 267.319 251.792C267.319 251.68 267.285 251.57 267.223 251.476C267.161 251.383 267.072 251.309 266.968 251.266C266.864 251.223 266.75 251.211 266.64 251.233C266.529 251.254 266.428 251.308 266.348 251.387C266.294 251.44 266.252 251.503 266.223 251.573C266.194 251.642 266.179 251.717 266.179 251.792C266.179 251.868 266.194 251.942 266.223 252.012C266.252 252.081 266.294 252.144 266.348 252.197Z" fill="black"/>
<path opacity="0.15" d="M266.018 256.317C266.127 256.408 266.267 256.456 266.409 256.45C266.552 256.445 266.688 256.387 266.79 256.288C266.893 256.189 266.956 256.056 266.966 255.914C266.977 255.771 266.935 255.63 266.848 255.517C266.738 255.426 266.598 255.379 266.456 255.384C266.313 255.389 266.178 255.447 266.075 255.546C265.972 255.645 265.91 255.778 265.899 255.921C265.888 256.063 265.931 256.204 266.018 256.317Z" fill="black"/>
<path opacity="0.15" d="M265.698 260.437C265.807 260.543 265.952 260.602 266.103 260.602C266.255 260.602 266.4 260.543 266.508 260.437C266.599 260.327 266.647 260.188 266.641 260.045C266.636 259.903 266.578 259.767 266.479 259.665C266.38 259.562 266.247 259.499 266.105 259.489C265.962 259.478 265.821 259.52 265.708 259.607C265.652 259.661 265.607 259.725 265.577 259.795C265.546 259.866 265.529 259.943 265.528 260.02C265.527 260.097 265.542 260.174 265.571 260.246C265.6 260.317 265.644 260.383 265.698 260.437Z" fill="black"/>
<path d="M267.568 243.737C267.611 243.702 267.64 243.652 267.648 243.597C267.654 243.537 267.636 243.476 267.599 243.428C267.562 243.379 267.508 243.347 267.448 243.337C265.047 243.101 262.647 243.792 260.738 245.267C260.716 245.288 260.699 245.313 260.687 245.34C260.675 245.368 260.669 245.397 260.669 245.427C260.669 245.457 260.675 245.487 260.687 245.514C260.699 245.542 260.716 245.567 260.738 245.587C260.759 245.609 260.783 245.626 260.811 245.638C260.838 245.65 260.868 245.656 260.898 245.656C260.928 245.656 260.958 245.65 260.985 245.638C261.013 245.626 261.037 245.609 261.058 245.587C262.877 244.217 265.14 243.572 267.408 243.777C267.436 243.783 267.465 243.782 267.493 243.776C267.52 243.769 267.546 243.756 267.568 243.737Z" fill="#263238"/>
<path d="M267.238 247.847C267.26 247.831 267.278 247.81 267.29 247.786C267.302 247.761 267.308 247.734 267.308 247.707C267.312 247.677 267.31 247.646 267.302 247.617C267.295 247.587 267.281 247.56 267.262 247.535C267.244 247.511 267.22 247.491 267.194 247.476C267.167 247.461 267.138 247.451 267.108 247.447C264.707 247.211 262.307 247.902 260.398 249.377C260.356 249.42 260.333 249.478 260.333 249.537C260.333 249.597 260.356 249.654 260.398 249.697C260.419 249.719 260.445 249.737 260.473 249.749C260.502 249.761 260.532 249.767 260.563 249.767C260.594 249.767 260.624 249.761 260.652 249.749C260.681 249.737 260.706 249.719 260.728 249.697C263.298 247.467 267.038 247.887 267.078 247.887C267.106 247.892 267.135 247.891 267.162 247.884C267.19 247.878 267.215 247.865 267.238 247.847Z" fill="#263238"/>
<path d="M266.917 251.977C266.939 251.958 266.956 251.935 266.968 251.909C266.98 251.884 266.987 251.856 266.987 251.827C266.992 251.798 266.99 251.767 266.982 251.738C266.974 251.709 266.96 251.682 266.941 251.659C266.923 251.636 266.899 251.616 266.873 251.602C266.846 251.588 266.817 251.58 266.787 251.577C264.388 251.336 261.986 252.023 260.077 253.497C260.036 253.54 260.013 253.597 260.013 253.657C260.013 253.717 260.036 253.774 260.077 253.817C260.122 253.859 260.181 253.883 260.242 253.883C260.304 253.883 260.363 253.859 260.407 253.817C262.977 251.577 266.717 251.997 266.757 251.997C266.811 252.01 266.868 252.003 266.917 251.977Z" fill="#263238"/>
<path d="M266.587 256.087C266.618 256.07 266.644 256.045 266.663 256.016C266.682 255.986 266.694 255.952 266.697 255.917C266.703 255.857 266.686 255.796 266.649 255.748C266.612 255.699 266.558 255.667 266.497 255.657C264.097 255.414 261.696 256.102 259.787 257.577C259.746 257.62 259.723 257.678 259.723 257.737C259.723 257.797 259.746 257.854 259.787 257.897C259.809 257.919 259.835 257.937 259.863 257.949C259.891 257.961 259.922 257.967 259.952 257.967C259.983 257.967 260.014 257.961 260.042 257.949C260.07 257.937 260.096 257.919 260.117 257.897C261.936 256.526 264.199 255.881 266.467 256.087C266.506 256.1 266.548 256.1 266.587 256.087Z" fill="#263238"/>
<path d="M266.258 260.207C266.3 260.167 266.328 260.114 266.338 260.057C266.344 259.998 266.326 259.938 266.289 259.892C266.251 259.845 266.197 259.815 266.138 259.807C263.738 259.564 261.336 260.252 259.428 261.727C259.386 261.772 259.362 261.831 259.362 261.892C259.362 261.954 259.386 262.013 259.428 262.057C259.471 262.099 259.528 262.122 259.588 262.122C259.648 262.122 259.705 262.099 259.748 262.057C261.564 260.682 263.83 260.036 266.098 260.247C266.154 260.252 266.21 260.238 266.258 260.207Z" fill="#263238"/>
<path d="M213.138 125.997C213.138 125.997 212.548 136.197 213.058 157.407C213.488 175.147 211.518 184.357 218.648 195.657C224.998 205.737 257.648 240.657 260.508 244.127C260.508 244.127 272.718 243.567 274.558 232.807C274.558 232.807 267.098 215.967 261.558 204.117C258.403 197.175 253.712 191.04 247.838 186.177L260.758 134.087L213.138 125.997Z" fill="url(#paint0_linear)"/>
<path d="M260.778 134.087L256.698 150.407L247.828 186.177C252.496 190.005 256.415 194.663 259.388 199.917C258.168 203.517 255.628 210.917 255.628 210.917C255.308 212.137 258.818 217.117 256.818 232.107C256.608 233.667 256.148 236.257 255.678 238.737C248.678 230.977 235.678 216.807 226.858 206.277C226.498 204.217 225.198 196.177 225.858 190.087C226.548 184.177 229.218 155.267 229.218 155.267C226.663 153.671 224.428 151.612 222.628 149.197C221.096 147.24 220.042 144.953 219.548 142.517C218.17 138.648 217.031 134.697 216.138 130.687L260.778 134.087Z" fill="black"/>
<path d="M240.728 298.147L235.378 296.397L236.948 292.757L240.308 295.627L240.728 298.147Z" fill="black"/>
<path d="M245.758 288.417C245.758 288.417 246.108 291.837 246.208 292.917C246.308 293.997 241.838 297.547 240.728 298.147L240.318 295.627C239.324 296.922 238.498 298.336 237.858 299.837C237.038 301.407 236.028 304.367 233.678 306.457C230.198 309.557 224.678 311.297 218.888 311.747C213.098 312.197 209.798 310.937 208.118 309.747C206.438 308.557 205.848 307.137 206.188 305.667C206.528 304.197 245.758 288.417 245.758 288.417Z" fill="#263238"/>
<path d="M229.878 277.387L229.728 275.387C228.668 275.387 228.668 278.287 227.228 280.877C225.146 284.751 222.578 288.343 219.588 291.567C213.988 297.127 208.928 300.687 206.438 303.187C203.088 306.537 209.438 311.357 218.778 310.427C223.418 309.967 231.588 307.267 233.778 304.427C235.968 301.587 237.228 297.227 238.998 295.147C240.768 293.067 244.678 290.887 245.738 288.407C246.318 287.047 245.848 283.957 245.348 281.327C244.898 278.917 245.818 275.037 244.458 275.397L244.258 276.817C243.748 277.897 241.538 279.707 237.808 280.497C235.968 280.917 230.388 281.317 229.878 277.387Z" fill="#455A64"/>
<path opacity="0.15" d="M234.818 280.737C233.018 280.657 231.068 280.147 230.248 278.567C230.386 279.246 230.368 279.947 230.195 280.618C230.022 281.288 229.698 281.91 229.248 282.437C227.658 284.437 217.658 298.767 217.658 298.767C217.658 298.767 227.028 286.927 228.828 284.697C231.488 281.397 232.358 280.987 234.908 280.787L234.818 280.737Z" fill="black"/>
<path d="M206.438 303.207C208.538 301.087 212.438 298.207 217.028 294.027C216.088 295.657 214.698 296.957 214.568 297.487C214.258 298.797 218.198 300.487 220.568 300.967C222.938 301.447 225.458 297.967 228.788 294.817C232.118 291.667 235.328 295.047 236.688 299.257C235.901 301.077 234.933 302.812 233.798 304.437C231.588 307.287 223.418 309.987 218.798 310.437C209.428 311.377 203.088 306.557 206.438 303.207Z" fill="#37474F"/>
<path opacity="0.15" d="M232.638 284.507C232.65 284.581 232.676 284.653 232.715 284.717C232.755 284.781 232.806 284.836 232.867 284.88C232.928 284.924 232.997 284.956 233.07 284.974C233.143 284.991 233.219 284.994 233.293 284.982C233.367 284.97 233.438 284.944 233.502 284.905C233.566 284.865 233.622 284.814 233.666 284.753C233.71 284.692 233.742 284.623 233.759 284.55C233.777 284.477 233.78 284.401 233.768 284.327C233.756 284.253 233.73 284.182 233.691 284.118C233.651 284.054 233.6 283.998 233.539 283.954C233.478 283.91 233.409 283.878 233.336 283.861C233.263 283.843 233.187 283.84 233.113 283.852C233.039 283.864 232.968 283.89 232.904 283.93C232.84 283.969 232.784 284.021 232.74 284.081C232.696 284.142 232.664 284.211 232.647 284.284C232.629 284.357 232.626 284.433 232.638 284.507Z" fill="black"/>
<path opacity="0.15" d="M229.998 287.687C230.022 287.838 230.106 287.973 230.229 288.063C230.353 288.153 230.507 288.19 230.658 288.167C230.739 288.163 230.818 288.141 230.89 288.104C230.962 288.067 231.026 288.016 231.077 287.952C231.128 287.889 231.165 287.816 231.186 287.738C231.207 287.66 231.211 287.578 231.198 287.498C231.186 287.418 231.156 287.341 231.112 287.273C231.068 287.205 231.01 287.147 230.943 287.102C230.875 287.058 230.798 287.029 230.718 287.016C230.638 287.003 230.556 287.007 230.478 287.027C230.327 287.052 230.192 287.135 230.102 287.259C230.012 287.382 229.975 287.536 229.998 287.687Z" fill="black"/>
<path opacity="0.15" d="M227.367 290.917C227.392 291.066 227.474 291.199 227.595 291.289C227.716 291.379 227.868 291.417 228.017 291.397C228.168 291.373 228.303 291.289 228.393 291.166C228.483 291.042 228.521 290.888 228.497 290.737C228.474 290.587 228.391 290.453 228.268 290.364C228.146 290.275 227.992 290.238 227.842 290.262C227.693 290.286 227.558 290.368 227.469 290.491C227.38 290.614 227.344 290.767 227.367 290.917Z" fill="black"/>
<path opacity="0.15" d="M224.698 294.037C224.715 294.149 224.765 294.252 224.841 294.336C224.916 294.419 225.015 294.477 225.125 294.504C225.234 294.531 225.349 294.526 225.455 294.487C225.561 294.449 225.653 294.38 225.72 294.29C225.787 294.199 225.825 294.091 225.831 293.978C225.836 293.866 225.808 293.754 225.75 293.658C225.692 293.561 225.607 293.484 225.505 293.436C225.403 293.388 225.289 293.371 225.178 293.387C225.104 293.398 225.032 293.424 224.968 293.462C224.904 293.501 224.847 293.552 224.803 293.612C224.758 293.673 224.726 293.742 224.708 293.814C224.69 293.887 224.687 293.963 224.698 294.037Z" fill="black"/>
<path opacity="0.15" d="M222.087 297.217C222.103 297.332 222.152 297.439 222.229 297.525C222.306 297.611 222.406 297.673 222.518 297.701C222.63 297.73 222.748 297.725 222.857 297.686C222.965 297.647 223.06 297.577 223.129 297.484C223.197 297.391 223.236 297.28 223.241 297.165C223.246 297.049 223.217 296.935 223.157 296.837C223.096 296.738 223.008 296.66 222.903 296.612C222.798 296.564 222.681 296.548 222.567 296.567C222.418 296.592 222.285 296.674 222.195 296.795C222.106 296.916 222.067 297.068 222.087 297.217Z" fill="black"/>
<path d="M233.228 284.647C233.284 284.641 233.337 284.616 233.378 284.577C233.418 284.532 233.44 284.473 233.44 284.412C233.44 284.351 233.418 284.293 233.378 284.247C231.554 282.67 229.197 281.851 226.788 281.957C226.728 281.967 226.674 281.999 226.637 282.048C226.6 282.096 226.582 282.157 226.588 282.217C226.596 282.276 226.626 282.331 226.673 282.368C226.719 282.405 226.779 282.423 226.838 282.417C229.115 282.341 231.339 283.115 233.078 284.587C233.098 284.607 233.121 284.622 233.147 284.632C233.173 284.643 233.2 284.648 233.228 284.647Z" fill="#263238"/>
<path d="M230.598 287.817C230.642 287.811 230.682 287.793 230.716 287.764C230.749 287.735 230.773 287.698 230.786 287.656C230.799 287.614 230.799 287.569 230.787 287.526C230.775 287.484 230.751 287.446 230.718 287.417C228.894 285.84 226.537 285.021 224.128 285.127C224.07 285.137 224.017 285.168 223.98 285.214C223.943 285.26 223.925 285.318 223.928 285.377C223.936 285.439 223.967 285.496 224.016 285.535C224.064 285.574 224.126 285.593 224.188 285.587C226.462 285.51 228.684 286.284 230.418 287.757C230.442 287.779 230.471 287.796 230.502 287.807C230.533 287.817 230.566 287.821 230.598 287.817Z" fill="#263238"/>
<path d="M227.958 291.007C227.986 291.004 228.012 290.996 228.036 290.982C228.061 290.968 228.082 290.95 228.098 290.927C228.12 290.907 228.137 290.882 228.149 290.854C228.161 290.827 228.167 290.797 228.167 290.767C228.167 290.737 228.161 290.708 228.149 290.68C228.137 290.653 228.12 290.628 228.098 290.607C226.273 289.026 223.91 288.206 221.498 288.317C221.468 288.32 221.439 288.328 221.413 288.342C221.386 288.356 221.363 288.376 221.344 288.399C221.325 288.423 221.312 288.449 221.304 288.478C221.296 288.507 221.294 288.538 221.298 288.567C221.301 288.597 221.309 288.627 221.323 288.654C221.337 288.681 221.356 288.705 221.379 288.724C221.403 288.744 221.429 288.759 221.458 288.768C221.487 288.777 221.518 288.78 221.548 288.777C223.826 288.698 226.051 289.472 227.788 290.947C227.835 290.988 227.896 291.009 227.958 291.007Z" fill="#263238"/>
<path d="M225.328 294.187C225.381 294.174 225.43 294.147 225.468 294.107C225.51 294.063 225.534 294.004 225.534 293.942C225.534 293.881 225.51 293.822 225.468 293.777C223.642 292.205 221.285 291.389 218.878 291.497C218.819 291.505 218.764 291.535 218.727 291.582C218.69 291.628 218.672 291.688 218.678 291.747C218.68 291.777 218.689 291.807 218.703 291.834C218.717 291.861 218.736 291.885 218.759 291.904C218.782 291.924 218.809 291.939 218.838 291.948C218.867 291.957 218.898 291.96 218.928 291.957C221.207 291.868 223.436 292.643 225.168 294.127C225.214 294.162 225.27 294.183 225.328 294.187Z" fill="#263238"/>
<path d="M222.697 297.357C222.751 297.353 222.801 297.328 222.837 297.287C222.88 297.243 222.903 297.184 222.903 297.122C222.903 297.061 222.88 297.002 222.837 296.957C221.009 295.383 218.648 294.568 216.237 294.677C216.207 294.68 216.178 294.688 216.151 294.702C216.124 294.716 216.1 294.735 216.08 294.758C216.061 294.782 216.046 294.809 216.037 294.838C216.028 294.867 216.025 294.897 216.027 294.927C216.035 294.989 216.066 295.046 216.115 295.085C216.163 295.124 216.225 295.143 216.287 295.137C218.566 295.053 220.793 295.828 222.527 297.307C222.576 297.345 222.636 297.363 222.697 297.357Z" fill="#263238"/>
<path d="M267.788 121.657C268.098 129.747 268.218 135.317 268.128 141.207C268.008 148.547 266.338 155.927 264.368 164.267C262.398 172.607 252.808 207.097 252.058 210.047C253.058 216.417 254.208 222.047 252.058 235.957C248.978 256.027 245.488 279.867 245.488 279.867C243.648 282.417 231.118 283.337 227.488 279.647C227.488 279.647 226.408 215.427 226.798 202.307C227.138 190.897 232.458 153.497 232.458 153.497C232.458 153.497 215.398 146.317 213.928 126.237L267.788 121.657Z" fill="url(#paint1_linear)"/>
<path d="M251.698 52.2872C249.348 51.6172 243.698 51.6172 233.298 55.2372C233.298 55.2372 227.068 57.5372 222.478 59.4472C220.568 60.3272 216.078 62.6772 214.408 75.2672C212.738 87.8572 212.408 131.817 212.408 131.817C222.688 142.767 259.068 142.817 269.478 131.417C269.138 120.807 268.648 112.657 268.558 104.857C268.458 96.1372 271.258 82.2072 271.898 70.7372C272.228 64.9572 271.158 60.4172 267.298 59.0072C262.758 57.3272 255.068 55.6072 251.698 52.2872Z" fill="url(#paint2_linear)"/>
<path d="M232.918 58.1672C231.666 61.4477 230.881 64.8881 230.588 68.3872C229.928 74.7972 230.528 92.2272 230.528 92.2272L253.238 54.0772L252.438 51.8872L232.918 58.1672Z" fill="#E0E0E0"/>
<path d="M254.489 15.8572C259.489 21.4972 257.859 28.1172 256.069 34.7772C253.969 42.3572 254.269 46.0772 249.919 47.9772C250.919 24.1772 242.919 52.0672 223.789 33.5672C220.339 30.2172 220.119 19.8672 224.309 15.1772C230.219 8.53724 244.699 5.21724 254.489 15.8572Z" fill="#37474F"/>
<path d="M256.199 42.6772C252.719 44.1272 251.149 41.7372 251.149 41.7372L251.849 50.3272C251.849 50.3272 248.699 56.7872 244.129 59.3272C240.699 61.2072 236.989 62.2372 235.059 64.5872C234.548 62.6966 234.173 60.7717 233.939 58.8272L233.339 52.5072C231.928 52.4925 230.519 52.3957 229.119 52.2172C225.809 51.7472 223.699 49.1572 222.659 45.5972C220.989 39.8772 221.239 31.2472 223.289 20.0672C226.949 17.1472 239.079 16.5272 246.909 21.3272C246.629 27.9072 247.989 28.8372 248.179 33.2472C248.643 33.9549 249.254 34.555 249.969 35.0072C250.659 35.5872 251.439 35.0772 251.829 34.1372C252.489 32.5672 253.059 31.5572 254.609 31.1372C255.504 30.8796 256.461 30.9377 257.319 31.3018C258.176 31.666 258.883 32.314 259.319 33.1372C261.519 36.3272 258.699 41.6272 256.199 42.6772Z" fill="#FFD5C8"/>
<path d="M238.559 26.3873L241.809 28.3873C242.059 27.9399 242.128 27.4134 242.002 26.9165C241.875 26.4196 241.563 25.9903 241.129 25.7173C240.917 25.5873 240.682 25.5015 240.436 25.4648C240.191 25.4282 239.941 25.4416 239.701 25.5042C239.461 25.5668 239.236 25.6773 239.039 25.829C238.843 25.9808 238.68 26.1707 238.559 26.3873Z" fill="#37474F"/>
<path d="M223.968 27.1472L227.618 26.0272C227.558 25.7858 227.448 25.5593 227.297 25.3617C227.145 25.164 226.955 24.9993 226.738 24.8776C226.521 24.7559 226.281 24.6798 226.034 24.6539C225.786 24.6281 225.536 24.653 225.298 24.7272C224.808 24.8823 224.396 25.2202 224.149 25.6708C223.901 26.1215 223.836 26.6502 223.968 27.1472Z" fill="#37474F"/>
<path d="M240.019 31.1473C240.013 31.4561 239.915 31.7563 239.739 32.0096C239.562 32.2629 239.314 32.4581 239.026 32.5703C238.738 32.6824 238.423 32.7067 238.122 32.6398C237.82 32.573 237.545 32.4181 237.332 32.1947C237.118 31.9714 236.976 31.6898 236.923 31.3855C236.87 31.0811 236.908 30.7679 237.033 30.4854C237.158 30.2029 237.364 29.9639 237.625 29.7986C237.886 29.6334 238.19 29.5494 238.499 29.5573C238.704 29.5612 238.905 29.6055 239.092 29.6876C239.28 29.7697 239.449 29.8881 239.59 30.0359C239.731 30.1837 239.842 30.358 239.916 30.5487C239.989 30.7395 240.024 30.9429 240.019 31.1473Z" fill="#263238"/>
<path d="M228.019 30.6173C228.013 30.9257 227.916 31.2255 227.739 31.4786C227.563 31.7318 227.316 31.927 227.028 32.0395C226.741 32.152 226.427 32.1769 226.126 32.1108C225.824 32.0448 225.549 31.891 225.335 31.6686C225.121 31.4463 224.978 31.1656 224.924 30.8619C224.869 30.5582 224.906 30.2452 225.03 29.9625C225.153 29.6798 225.358 29.44 225.618 29.2736C225.877 29.1071 226.181 29.0214 226.489 29.0273C226.694 29.0312 226.896 29.0754 227.084 29.1574C227.272 29.2394 227.441 29.3577 227.584 29.5053C227.726 29.653 227.837 29.8272 227.912 30.0179C227.987 30.2087 228.023 30.4124 228.019 30.6173Z" fill="#263238"/>
<path d="M233.939 25.9172L232.869 36.5572L227.869 35.3572C228.609 32.1672 231.699 27.3372 233.939 25.9172Z" fill="#F28F8F"/>
<path d="M248.089 31.9972C248.429 39.1772 245.689 41.0872 243.169 41.3872C239.499 41.8272 237.099 38.1772 232.499 37.8572C229.869 37.6772 227.969 38.4972 225.559 39.9572C224.982 40.294 224.368 40.5625 223.729 40.7572C222.799 40.9372 221.729 40.5472 221.729 39.5972C221.566 36.9084 221.6 34.2112 221.829 31.5272L221.889 30.0872C221.889 30.0872 220.959 38.5772 221.209 41.9272C221.459 45.2772 222.349 48.5572 224.209 50.1372C226.729 52.3072 232.209 53.5372 238.869 52.3072C245.529 51.0772 248.159 48.9872 248.979 46.6472C250.829 41.3872 251.289 35.2972 251.869 34.0972C250.802 33.0947 249.503 32.3731 248.089 31.9972Z" fill="#455A64"/>
<path d="M231.109 39.4772C227.989 39.7572 226.249 41.3572 226.209 43.3772C226.169 45.3972 226.799 47.8872 228.629 48.6472C230.459 49.4072 230.269 47.4272 229.989 46.3672C229.709 45.3072 230.349 45.5472 231.369 45.5672C232.389 45.5872 232.789 45.4472 232.459 46.5172C232.129 47.5872 231.629 49.0872 233.729 48.8972C235.829 48.7072 237.339 46.6972 237.729 44.1472C238.119 41.5972 235.819 39.0472 231.109 39.4772Z" fill="#FFD5C8"/>
<path d="M235.548 41.0072L230.698 41.9172C230.745 42.2424 230.857 42.5548 231.028 42.8356C231.199 43.1164 231.425 43.3599 231.692 43.5513C231.959 43.7428 232.262 43.8783 232.583 43.9498C232.903 44.0212 233.235 44.0272 233.558 43.9672C234.206 43.8228 234.774 43.4351 235.144 42.8843C235.514 42.3335 235.659 41.6616 235.548 41.0072Z" fill="#B16668"/>
<path d="M235.129 42.0572C234.498 41.9579 233.853 42.0825 233.305 42.4095C232.757 42.7365 232.341 43.2452 232.129 43.8472C232.56 44.033 233.038 44.0853 233.499 43.9972C233.971 43.9051 234.409 43.6832 234.762 43.3564C235.115 43.0297 235.37 42.6109 235.499 42.1472C235.38 42.1024 235.255 42.0722 235.129 42.0572Z" fill="#F28F8F"/>
<path d="M235.698 69.2073C235.905 73.2746 235.905 77.3499 235.698 81.4173C235.508 83.1773 230.138 94.0373 230.138 94.0373C230.138 94.0373 229.778 84.0373 229.838 80.9473C229.898 77.8573 232.838 69.1173 232.838 69.1173C232.838 69.1173 232.478 68.1173 233.838 68.1173C234.22 68.1023 234.598 68.197 234.927 68.3902C235.257 68.5834 235.524 68.8669 235.698 69.2073Z" fill="url(#paint3_linear)"/>
<path d="M235.019 63.2572C234.445 61.611 234.069 59.9023 233.899 58.1673L233.809 57.4272C232.809 58.7972 230.549 64.2172 231.389 67.4272L235.019 63.2572Z" fill="#F0F0F0"/>
<path d="M236.698 63.7572C235.818 63.2495 234.778 63.0958 233.788 63.3272C233.788 63.3272 232.468 64.0272 232.398 64.9772C232.477 66.3692 232.66 67.7532 232.948 69.1172C232.948 68.0472 234.948 68.3172 235.748 69.2072L238.748 65.2072C238.624 64.7678 238.352 64.3842 237.979 64.1204C237.606 63.8566 237.154 63.7285 236.698 63.7572Z" fill="url(#paint4_linear)"/>
<path d="M253.378 52.0773C253.132 50.6032 252.546 49.2065 251.668 47.9973L251.788 49.4473C251.678 50.2873 250.998 51.5373 249.188 53.7173C248.18 54.8435 247.046 55.8501 245.808 56.7173C243.268 58.5873 235.958 63.0273 235.588 63.3073C236.877 64.0795 238.021 65.0711 238.968 66.2373C239.968 67.3073 242.258 70.4873 242.258 70.4873C242.258 70.4873 254.048 56.3273 253.378 52.0773Z" fill="#F0F0F0"/>
<path d="M253.038 50.6873C253.038 51.8273 251.098 55.5373 249.348 57.8073C247.3 60.16 245.45 62.6787 243.818 65.3372C241.418 69.3372 234.018 82.5072 232.108 87.3372C230.198 92.1673 228.028 99.9973 228.028 99.9973C228.028 99.9973 232.278 91.2272 236.098 86.0872C239.918 80.9473 245.568 75.1973 246.428 73.6673L245.768 70.4772L251.658 68.8073C254.118 64.6842 256.104 60.2963 257.578 55.7272C254.948 54.3472 253.038 50.6873 253.038 50.6873Z" fill="#263238"/>
<path d="M233.418 53.3472C232.348 55.2072 231.028 56.8672 230.168 58.6272C229.168 60.6272 225.648 67.0072 225.988 68.1672C227.048 68.8349 228.166 69.4072 229.328 69.8772C229.328 69.8772 226.978 73.1972 226.938 74.2472C226.898 75.2972 229.128 88.9272 230.168 94.0372C230.168 94.0372 230.388 76.4672 231.018 70.1572C231.532 65.8333 232.466 61.5698 233.808 57.4272L233.418 53.3472Z" fill="#263238"/>
<path d="M245.849 137.777C245.979 137.407 246.349 137.367 246.699 137.337C247.459 137.277 248.199 137.227 248.959 137.137C250.133 136.937 251.292 136.656 252.429 136.297C254.001 135.951 255.595 135.704 257.199 135.557C257.979 135.457 259.119 135.447 259.889 135.427C261.399 135.427 262.409 135.567 264.209 133.667C265.542 132.142 266.762 130.521 267.859 128.817C272.029 129.207 277.419 133.587 277.279 138.307L274.089 140.917C272.318 142.345 270.916 144.176 269.999 146.257C268.592 149.216 266.542 151.822 263.999 153.887C260.095 152.748 256.786 150.138 254.769 146.607C254.163 145.473 253.712 144.262 253.429 143.007C253.839 142.607 254.779 141.587 253.539 141.347C253.182 141.275 252.821 141.229 252.459 141.207C251.619 141.207 250.789 141.117 249.959 141.007C248.883 140.97 247.841 140.623 246.959 140.007C246.309 139.487 245.509 138.717 245.849 137.777Z" fill="#FFD5C8"/>
<path d="M264.008 153.917C260.104 152.778 256.795 150.168 254.778 146.637C254.201 145.555 253.767 144.402 253.488 143.207C254.166 145.025 255.204 146.689 256.538 148.097C259.268 151.287 262.028 151.757 263.738 151.547C265.731 151.075 267.514 149.966 268.818 148.387C267.572 150.513 265.94 152.388 264.008 153.917Z" fill="#F28F8F"/>
<path d="M267.369 59.0072C274.539 61.2372 276.209 63.5472 278.259 66.9372C280.509 70.6572 281.209 72.3772 285.389 81.8772C287.669 87.0372 293.389 100.757 296.489 109.007C298.659 114.787 299.819 118.797 293.629 124.557C285.749 131.917 272.969 141.917 272.969 141.917C272.329 138.917 267.459 134.197 264.209 133.647L277.849 113.107L266.249 91.0272C263.869 87.218 262.35 82.9347 261.799 78.4772C260.979 72.6672 262.899 61.4372 267.369 59.0072Z" fill="#263238"/>
<path d="M70.3739 258.516C70.2139 254.516 67.9439 214.516 67.9439 214.516L87.7939 228.816C84.6239 251.946 83.2939 259.016 83.0739 262.866C83.1402 263.195 83.1638 263.531 83.1439 263.866C82.9439 268.436 77.4139 270.716 73.0539 273.626C69.3326 276.188 65.402 278.433 61.3039 280.336C58.1739 281.696 51.9139 281.616 51.2139 279.706C56.5139 276.136 62.6539 272.256 66.9239 268.126C68.9639 266.126 70.5739 263.336 70.3739 258.516Z" fill="#FFA8A7"/>
<path d="M45.034 284.346C44.784 284.346 44.3041 287.096 45.6041 288.346C47.1041 289.756 51.6041 292.156 57.6041 291.576C63.6041 290.996 66.9641 289.226 69.4441 287.266C71.9241 285.306 75.444 282.536 78.154 282.026C80.704 281.546 83.484 280.486 84.324 279.716C85.164 278.946 85.184 275.416 85.184 275.416L45.034 284.346Z" fill="#263238"/>
<path d="M83.1436 261.726C83.1436 261.726 83.8036 261.726 83.9236 262.546C84.0736 263.546 84.2536 266.376 84.5836 267.986C85.0536 270.226 85.4236 274.816 85.0236 276.616C84.6236 278.416 80.4636 279.516 77.7936 280.446C74.6364 281.713 71.6921 283.456 69.0636 285.616C66.1436 287.876 60.0636 290.046 56.1936 289.956C50.1936 289.836 46.4036 288.046 45.2936 285.816C43.9236 283.066 44.4436 281.156 51.4436 278.166C54.1177 276.871 56.7214 275.436 59.2436 273.866C63.2413 271.393 66.383 267.752 68.2436 263.436C68.4202 262.856 68.7909 262.354 69.2936 262.016C69.7207 261.847 70.1912 261.823 70.6336 261.946C72.4901 262.198 74.3184 262.627 76.0936 263.226C76.9936 263.706 78.2836 264.276 78.2136 265.476C78.1789 265.892 78.0777 266.301 77.9136 266.686C77.8236 266.926 77.7436 267.256 77.9136 267.406C78.0836 267.556 78.3836 267.406 78.5636 267.246C79.2724 266.57 79.9215 265.834 80.5036 265.046C80.8401 264.646 81.2189 264.284 81.6336 263.966C82.0543 263.749 82.4587 263.501 82.8436 263.226C82.8436 263.226 83.1036 262.286 83.1436 261.726Z" fill="#455A64"/>
<path d="M51.2137 278.156C59.8437 279.076 63.4637 284.756 62.3637 288.866C60.3678 289.555 58.2751 289.923 56.1637 289.956C50.1637 289.836 46.1637 288.046 45.0237 285.816C43.7537 283.216 45.0137 280.306 51.2137 278.156Z" fill="#FAFAFA"/>
<path d="M62.9939 279.416C63.0943 279.415 63.192 279.384 63.2739 279.326C63.3622 279.253 63.4196 279.15 63.4345 279.037C63.4493 278.923 63.4206 278.809 63.354 278.716C62.3912 277.624 61.2035 276.755 59.8725 276.166C58.5416 275.577 57.0991 275.284 55.6439 275.306C55.5878 275.309 55.533 275.324 55.4828 275.35C55.4326 275.375 55.388 275.41 55.3516 275.453C55.3152 275.496 55.2878 275.546 55.271 275.6C55.2543 275.653 55.2485 275.71 55.254 275.766C55.2564 275.821 55.2702 275.876 55.2944 275.926C55.3187 275.976 55.3529 276.021 55.395 276.058C55.4372 276.094 55.4863 276.122 55.5394 276.138C55.5925 276.155 55.6485 276.161 55.7039 276.156C57.023 276.145 58.3293 276.416 59.5361 276.948C60.7429 277.481 61.8227 278.264 62.7039 279.246C62.7757 279.337 62.8793 279.398 62.9939 279.416Z" fill="#F0F0F0"/>
<path d="M66.4942 277.306C66.5914 277.305 66.686 277.273 66.7642 277.216C66.8518 277.145 66.9089 277.043 66.9238 276.932C66.9386 276.82 66.9102 276.707 66.8442 276.616C65.8858 275.518 64.6992 274.644 63.3674 274.053C62.0356 273.462 60.5909 273.17 59.1342 273.196C59.0781 273.199 59.0233 273.214 58.973 273.24C58.9228 273.265 58.8782 273.3 58.8418 273.343C58.8055 273.386 58.7781 273.436 58.7613 273.49C58.7445 273.543 58.7387 273.6 58.7442 273.656C58.7519 273.768 58.8034 273.873 58.8875 273.948C58.9716 274.022 59.0818 274.061 59.1942 274.056C60.5129 274.042 61.8195 274.309 63.0266 274.84C64.2337 275.371 65.3136 276.154 66.1942 277.136C66.2298 277.183 66.2748 277.223 66.3264 277.252C66.378 277.281 66.4352 277.3 66.4942 277.306Z" fill="#F0F0F0"/>
<path d="M69.9335 274.606C70.0346 274.61 70.1337 274.578 70.2135 274.516C70.3011 274.445 70.3582 274.343 70.3731 274.232C70.388 274.12 70.3595 274.007 70.2935 273.916C69.3325 272.822 68.1454 271.949 66.8143 271.359C65.4831 270.768 64.0396 270.474 62.5835 270.496C62.4712 270.506 62.3673 270.56 62.2944 270.646C62.2214 270.732 62.1852 270.843 62.1936 270.956C62.1961 271.012 62.2098 271.067 62.234 271.117C62.2581 271.168 62.2921 271.213 62.3341 271.251C62.376 271.288 62.425 271.317 62.4782 271.335C62.5313 271.353 62.5876 271.36 62.6435 271.356C63.9614 271.347 65.2662 271.617 66.4725 272.148C67.6787 272.679 68.7593 273.458 69.6435 274.436C69.6766 274.483 69.7197 274.523 69.7698 274.553C69.8199 274.582 69.8758 274.6 69.9335 274.606Z" fill="#F0F0F0"/>
<path d="M73.3438 271.896C73.4407 271.904 73.5369 271.875 73.6138 271.816C73.7051 271.748 73.7658 271.647 73.7827 271.534C73.7995 271.422 73.7712 271.307 73.7038 271.216C72.1238 269.026 68.4338 267.486 65.2738 267.726C65.2177 267.729 65.1629 267.744 65.1127 267.77C65.0625 267.795 65.0178 267.83 64.9815 267.873C64.9451 267.916 64.9177 267.966 64.9009 268.02C64.8842 268.073 64.8784 268.13 64.8838 268.186C64.8916 268.298 64.943 268.403 65.0271 268.478C65.1113 268.552 65.2214 268.591 65.3338 268.586C68.1738 268.366 71.6238 269.786 73.0238 271.726C73.06 271.777 73.1079 271.819 73.1635 271.849C73.2191 271.879 73.2809 271.895 73.3438 271.896Z" fill="#F0F0F0"/>
<path d="M108.054 226.726L127.524 223.876C127.804 236.566 127.524 252.746 127.084 264.446C127.004 266.686 127.974 281.836 127.234 286.446C126.124 293.446 116.774 292.766 116.084 288.636C115.394 284.506 115.084 266.936 114.964 265.116C114.684 257.486 111.594 244.586 108.824 230.966C108.684 230.316 108.214 227.386 108.054 226.726Z" fill="#FFA8A7"/>
<path d="M112.714 291.646C112.714 295.716 113.244 298.446 114.714 300.926C116.184 303.406 119.214 304.316 122.374 303.806C125.534 303.296 129.664 301.656 130.784 298.206C131.904 294.756 131.894 292.346 131.434 288.546L112.714 291.646Z" fill="#263238"/>
<path d="M127.134 263.156C128.414 263.316 128.374 268.616 128.744 274.156C129.154 280.046 130.974 282.576 131.364 287.416C131.814 292.936 131.364 295.366 128.924 298.546C126.484 301.726 118.614 304.546 115.124 299.546C112.294 295.546 112.444 291.206 113.124 285.756C113.793 281.149 114.197 276.508 114.334 271.856C114.334 267.736 113.724 263.856 114.874 263.506C114.874 264.116 114.954 264.876 115.004 265.506C115.054 266.136 115.004 268.196 115.744 268.256C115.834 267.744 115.875 267.225 115.864 266.706C115.84 266.47 115.867 266.232 115.943 266.008C116.019 265.783 116.142 265.578 116.304 265.406C116.92 265.06 117.601 264.849 118.304 264.786C119.585 264.621 120.873 264.521 122.164 264.486C122.804 264.486 123.454 264.486 124.094 264.486C124.642 264.509 125.184 264.61 125.704 264.786C125.85 264.834 125.984 264.912 126.098 265.016C126.211 265.119 126.302 265.245 126.364 265.386C126.404 265.594 126.404 265.808 126.364 266.016C126.336 266.394 126.363 266.775 126.444 267.146C126.444 267.316 126.594 267.516 126.784 267.486C126.974 267.456 127.004 267.306 127.014 267.166C127.064 266.506 127.014 266.026 127.014 265.256C127.014 264.896 127.014 264.556 127.064 264.206C127.114 263.856 127.134 263.506 127.134 263.156Z" fill="#455A64"/>
<path d="M131.504 290.566C131.504 293.976 131.124 296.296 129.254 298.786C126.854 301.976 118.314 304.786 114.834 299.786C113.104 297.316 112.784 294.496 112.714 291.636C115.214 288.116 128.124 287.246 131.504 290.566Z" fill="#FAFAFA"/>
<path d="M116.403 285.876H116.563C120.179 284.752 124.031 284.624 127.713 285.506C127.832 285.54 127.958 285.529 128.069 285.475C128.179 285.422 128.266 285.329 128.313 285.216C128.328 285.16 128.331 285.101 128.322 285.044C128.313 284.987 128.293 284.932 128.262 284.884C128.231 284.835 128.19 284.793 128.142 284.761C128.094 284.728 128.04 284.706 127.983 284.696C124.102 283.735 120.031 283.856 116.213 285.046C116.158 285.062 116.108 285.09 116.064 285.128C116.021 285.165 115.986 285.211 115.961 285.263C115.937 285.315 115.923 285.371 115.922 285.428C115.921 285.486 115.931 285.543 115.953 285.596C115.993 285.681 116.056 285.754 116.136 285.803C116.216 285.853 116.309 285.878 116.403 285.876Z" fill="#F0F0F0"/>
<path d="M127.674 281.386C127.762 281.382 127.847 281.357 127.922 281.311C127.998 281.266 128.06 281.202 128.104 281.126C128.126 281.072 128.136 281.014 128.134 280.957C128.132 280.899 128.118 280.842 128.092 280.79C128.067 280.738 128.031 280.692 127.986 280.655C127.942 280.618 127.89 280.591 127.834 280.576C122.194 278.516 116.324 280.776 116.074 280.866C116.019 280.884 115.97 280.914 115.928 280.953C115.886 280.992 115.853 281.04 115.831 281.093C115.809 281.146 115.799 281.203 115.801 281.261C115.803 281.318 115.818 281.374 115.844 281.426C115.907 281.53 116.004 281.609 116.12 281.647C116.236 281.686 116.361 281.682 116.474 281.636C116.524 281.636 122.224 279.436 127.474 281.346C127.537 281.373 127.605 281.387 127.674 281.386Z" fill="#F0F0F0"/>
<path d="M127.603 277.516C127.689 277.513 127.772 277.489 127.846 277.445C127.92 277.402 127.981 277.34 128.023 277.266C128.047 277.213 128.06 277.156 128.06 277.098C128.06 277.04 128.048 276.982 128.024 276.929C128.001 276.877 127.966 276.829 127.923 276.791C127.88 276.752 127.829 276.723 127.773 276.706C123.881 275.292 119.601 275.384 115.773 276.966C115.72 276.985 115.672 277.016 115.632 277.057C115.593 277.098 115.563 277.147 115.545 277.2C115.526 277.254 115.52 277.311 115.527 277.367C115.534 277.424 115.553 277.478 115.583 277.526C115.649 277.629 115.751 277.704 115.869 277.737C115.987 277.771 116.113 277.759 116.223 277.706C119.794 276.271 123.766 276.189 127.393 277.476C127.46 277.503 127.531 277.517 127.603 277.516Z" fill="#F0F0F0"/>
<path d="M127.494 273.166C127.579 273.167 127.663 273.146 127.737 273.104C127.811 273.062 127.872 273 127.914 272.926C127.94 272.874 127.954 272.817 127.955 272.759C127.957 272.701 127.946 272.643 127.923 272.59C127.9 272.537 127.866 272.489 127.823 272.45C127.78 272.412 127.729 272.383 127.674 272.366C121.864 270.066 115.844 272.616 115.584 272.726C115.531 272.747 115.483 272.779 115.443 272.82C115.403 272.861 115.372 272.91 115.352 272.964C115.333 273.018 115.324 273.075 115.328 273.132C115.332 273.189 115.347 273.245 115.374 273.296C115.438 273.401 115.539 273.478 115.657 273.513C115.775 273.548 115.902 273.538 116.014 273.486C116.074 273.486 121.894 270.996 127.284 273.136C127.352 273.155 127.423 273.166 127.494 273.166Z" fill="#EBEBEB"/>
<path d="M121.294 121.906C122.624 146.296 124.984 191.146 124.984 191.146C125.274 193.986 127.864 212.916 128.134 223.146C128.564 239.586 128.134 261.146 128.134 261.146C128.134 261.146 120.134 264.356 113.564 261.756C113.564 261.756 103.944 212.346 101.764 201.636C99.164 188.876 92.974 163.866 92.974 163.866L88.614 197.566C88.614 197.566 90.554 215.936 89.194 225.856C88.264 232.606 84.064 259.986 84.064 259.986C79.377 260.886 74.5426 260.653 69.964 259.306C69.964 259.306 66.484 200.456 66.054 194.236C65.624 188.016 64.214 156.046 65.754 116.746L121.294 121.906Z" fill="#455A64"/>
<path d="M92.9736 163.836L89.8736 144.686C85.3125 144.419 80.9874 142.569 77.6436 139.456C77.6436 139.456 78.2136 144.456 87.9436 147.706L90.7536 163.146L88.6136 197.536L92.9736 163.836Z" fill="#37474F"/>
<path d="M73.9039 50.5156C66.9039 51.3356 63.2239 56.4356 59.3039 64.4156C56.2139 70.7556 50.0739 85.0456 50.0739 85.0456C50.0739 85.0456 30.9839 80.2356 27.5839 78.0456C25.2539 76.5756 25.6839 75.6356 21.8339 73.1356C19.1139 71.3856 16.2339 70.5556 14.5439 68.8256C13.1939 67.4456 11.0639 69.6356 13.2139 72.5756C13.8909 73.4077 14.6479 74.1713 15.4739 74.8556C14.0642 74.5684 12.7123 74.0479 11.4739 73.3156C8.41389 71.1256 7.06387 68.3156 3.29387 67.8956C1.69387 67.7056 1.38389 68.8056 1.97389 70.0356C1.72728 70.1437 1.50599 70.3021 1.32427 70.5007C1.14254 70.6994 1.00439 70.9339 0.918687 71.1891C0.832983 71.4443 0.801608 71.7146 0.826615 71.9827C0.851622 72.2508 0.932457 72.5106 1.06389 72.7456C0.143889 73.0056 0.0638746 74.8356 0.423875 75.3656C-0.0461254 76.0456 -0.836124 78.0356 2.64388 81.8856C4.42764 83.7685 6.4167 85.4456 8.57387 86.8856C11.348 87.7363 14.1695 88.4241 17.0239 88.9456C20.2014 89.4729 23.2929 90.4283 26.2139 91.7856C30.4239 93.5456 41.0839 99.0456 50.5239 102.556C58.3739 105.476 60.5939 100.986 64.3139 94.0056C66.7739 89.3856 72.5239 74.1156 72.5239 74.1156C75.5039 64.9656 76.6439 56.1556 73.9039 50.5156Z" fill="#FFD5C8"/>
<path d="M12.9141 80.8656C17.5641 79.1356 22.6841 81.1856 24.2241 84.9556C24.2149 83.8606 23.8878 82.7918 23.2824 81.8792C22.677 80.9667 21.8194 80.2498 20.8141 79.8156C18.9041 78.8856 15.3441 79.1356 12.9141 80.8656Z" fill="#F28F8F"/>
<path d="M73.8934 50.0457C67.2634 51.4257 64.4434 53.3857 59.6234 63.1257C54.8934 72.6857 49.7334 84.5856 49.7334 84.5856L37.3734 81.5856C37.3734 81.5856 38.0835 83.9156 36.6635 88.9156C35.2435 93.9156 32.2734 95.4257 32.2734 95.4257C32.2734 95.4257 41.8034 100.276 49.3334 103.016C56.8634 105.756 58.5234 104.436 60.9234 100.956C63.3234 97.4757 74.0034 72.7757 74.0034 72.7757C74.0034 72.7757 79.5434 57.3957 73.8934 50.0457Z" fill="url(#paint5_linear)"/>
<path d="M38.054 81.7856L33.054 80.2856C33.4916 82.5532 33.3958 84.8915 32.774 87.1156C31.304 92.2156 28.9141 93.4456 28.9141 93.4456L33.744 96.3056C33.744 96.3056 39.264 89.9256 38.054 81.7856Z" fill="#FFD5C8"/>
<path d="M119.014 52.7356L103.704 47.2256C97.846 46.7609 91.9663 46.634 86.0939 46.8456C75.8639 49.5056 73.8939 50.0456 73.8939 50.0456C70.1039 54.9356 67.2639 60.6456 66.5239 79.2856C66.1039 89.6156 65.4639 125.116 65.4639 125.116C71.9539 129.986 78.6439 131.476 92.9739 132.696C99.6539 133.266 117.924 130.976 121.684 126.326L121.014 95.9456L125.444 64.8556C126.494 57.7856 123.214 54.6656 119.014 52.7356Z" fill="url(#paint6_linear)"/>
<path d="M74.3434 19.5457L74.2234 19.3957C73.6002 18.497 73.0802 17.5309 72.6734 16.5157C71.7934 14.5157 69.8834 8.56565 73.6734 8.21565C72.8434 7.35565 71.6234 5.59566 72.9834 4.61566C74.1034 3.80566 75.8334 4.49565 77.1134 4.44565C76.5422 3.95291 76.0704 3.35553 75.7234 2.68565C75.4063 2.0659 75.2352 1.38175 75.2234 0.685654C75.9034 0.805654 76.5534 1.08565 77.2234 1.22565C78.947 1.48567 80.6998 1.48567 82.4234 1.22565C84.3734 1.05565 86.2234 0.355657 88.1634 0.165657C90.0745 -0.0193531 91.9975 -0.0494553 93.9134 0.075653C100.263 0.435653 106.533 3.07565 107.753 9.54565C112.873 11.0357 112.343 19.4257 111.093 23.1357C108.553 30.6557 103.533 37.2156 103.463 41.0556L101.843 39.8757L93.7334 33.9657L83.2134 26.2957L78.6634 22.9756C77.2134 21.9156 75.4734 20.9557 74.3434 19.5457Z" fill="#263238"/>
<path d="M74.2743 37.3356C75.2743 40.9556 77.4143 43.5956 80.7743 44.1056C82.5338 44.2707 84.3049 44.2707 86.0643 44.1056V48.9756C83.7843 52.2256 84.8443 58.8456 85.9643 60.3256C86.5191 60.4896 87.1095 60.4896 87.6643 60.3256C91.7643 54.3256 100.984 53.0356 103.844 48.8456L103.694 33.9456C103.694 33.9456 105.764 36.2656 109.134 34.0456C110.48 33.0277 111.437 31.5792 111.845 29.9415C112.252 28.3037 112.086 26.5758 111.374 25.0456C109.674 21.5156 106.374 23.0456 105.304 24.0456C104.234 25.0456 103.084 27.1556 102.224 26.8756C101.728 26.7245 101.278 26.4526 100.913 26.0843C100.548 25.716 100.281 25.2629 100.134 24.7656C99.3381 22.5714 98.9517 20.2495 98.9943 17.9156C98.0854 17.4555 97.2765 16.8199 96.6143 16.0456C95.1643 14.4556 95.0343 12.5356 94.9543 10.7956C87.7043 8.56564 78.4743 9.54564 75.4843 11.8856C73.7643 14.9456 73.7443 22.0456 73.4843 26.1356C73.1149 29.8868 73.382 33.6734 74.2743 37.3356Z" fill="#FFD5C8"/>
<path d="M86.0637 44.0957C89.7637 43.8657 97.2137 42.0957 99.1837 40.0057C101.154 37.9157 101.974 33.6957 101.974 33.6957C101.974 33.6957 101.714 39.0457 100.194 41.4057C98.6737 43.7657 94.7937 44.8257 92.4437 45.4057C90.3347 45.8617 88.2012 46.1956 86.0537 46.4057L86.0637 44.0957Z" fill="#F28F8F"/>
<path d="M88.3235 24.5556C88.3353 24.8554 88.435 25.1451 88.6101 25.3887C88.7852 25.6323 89.028 25.819 89.3084 25.9257C89.5888 26.0323 89.8944 26.0542 90.1871 25.9886C90.4799 25.9229 90.7468 25.7727 90.9549 25.5565C91.1629 25.3403 91.3027 25.0678 91.3571 24.7728C91.4114 24.4777 91.3778 24.1732 91.2605 23.8971C91.1431 23.621 90.9472 23.3855 90.697 23.2199C90.4469 23.0543 90.1536 22.9659 89.8536 22.9656C89.6487 22.9695 89.4466 23.0138 89.2588 23.0958C89.071 23.1778 88.9013 23.296 88.7592 23.4437C88.6171 23.5913 88.5055 23.7655 88.4307 23.9563C88.356 24.1471 88.3196 24.3508 88.3235 24.5556Z" fill="#263238"/>
<path d="M76.054 20.9157L79.774 20.2957C79.7449 20.0509 79.6664 19.8146 79.5433 19.601C79.4201 19.3875 79.2549 19.2012 79.0576 19.0535C78.8603 18.9057 78.635 18.7996 78.3954 18.7415C78.1559 18.6835 77.9071 18.6747 77.664 18.7157C77.1672 18.8108 76.7248 19.0906 76.4261 19.4988C76.1273 19.9071 75.9944 20.4133 76.054 20.9157Z" fill="#263238"/>
<path d="M88.9238 20.2857L92.5138 21.4257C92.5996 21.1957 92.6374 20.9506 92.6249 20.7054C92.6124 20.4603 92.5499 20.2203 92.4413 20.0002C92.3326 19.7801 92.1801 19.5845 91.9931 19.4255C91.8061 19.2666 91.5886 19.1475 91.3539 19.0757C90.8709 18.9347 90.3525 18.981 89.9021 19.2053C89.4518 19.4295 89.1024 19.8153 88.9238 20.2857Z" fill="#263238"/>
<path d="M76.6343 24.3356C76.648 24.6353 76.7496 24.9243 76.9262 25.1667C77.1029 25.4092 77.347 25.5943 77.628 25.6991C77.9091 25.804 78.2148 25.8239 78.5071 25.7563C78.7993 25.6888 79.0653 25.5369 79.2719 25.3194C79.4786 25.1019 79.6167 24.8285 79.6691 24.5331C79.7216 24.2377 79.6861 23.9335 79.567 23.6582C79.4479 23.3828 79.2504 23.1486 78.9993 22.9846C78.7481 22.8205 78.4543 22.734 78.1543 22.7356C77.9494 22.7408 77.7476 22.7863 77.5603 22.8695C77.373 22.9528 77.2039 23.0721 77.0628 23.2207C76.9216 23.3693 76.8111 23.5442 76.7376 23.7355C76.6641 23.9268 76.629 24.1307 76.6343 24.3356Z" fill="#263238"/>
<path d="M84.4239 21.0956L83.3739 32.1056L77.4639 30.3556L84.4239 21.0956Z" fill="#F28F8F"/>
<path d="M89.0436 33.2656C89.2062 33.6024 89.2985 33.9688 89.3146 34.3424C89.3308 34.716 89.2706 35.089 89.1377 35.4386C89.0048 35.7882 88.802 36.107 88.5417 36.3755C88.2814 36.644 87.9691 36.8566 87.6238 37.0003C87.2786 37.144 86.9076 37.2158 86.5337 37.2112C86.1597 37.2066 85.7906 37.1258 85.449 36.9738C85.1073 36.8217 84.8002 36.6015 84.5466 36.3268C84.2929 36.052 84.098 35.7283 83.9736 35.3756L89.0436 33.2656Z" fill="#B16668"/>
<path d="M88.6034 34.7357C87.966 34.7387 87.3508 34.9706 86.8699 35.389C86.3891 35.8075 86.0745 36.3847 85.9834 37.0157C86.5144 37.1165 87.0634 37.0609 87.5634 36.8557C87.9803 36.6831 88.3481 36.4102 88.6342 36.0613C88.9203 35.7124 89.1158 35.2983 89.2034 34.8557C89.0095 34.7897 88.8078 34.7493 88.6034 34.7357Z" fill="#F28F8F"/>
<path d="M125.574 110.636C125.574 110.636 124.864 125.836 124.154 127.706C123.444 129.576 125.894 131.976 130.224 132.156C133.484 132.286 135.534 131.306 136.464 129.936C138.254 127.306 140.554 111.356 140.554 111.356L125.574 110.636Z" fill="#263238"/>
<path d="M135.924 131.656C135.924 131.656 134.214 133.046 130.554 133.046C128.478 133.126 126.441 132.459 124.814 131.166C123.634 130.166 123.504 129.296 122.814 129.426C121.544 129.878 120.337 130.493 119.224 131.256C118.564 131.786 118.674 133.766 118.714 134.386C118.754 135.006 119.114 136.336 119.404 136.466C119.694 136.596 120.324 135.826 120.474 136.206V136.366C120.034 139.366 118.544 141.606 118.104 143.166C117.664 144.726 122.464 146.246 126.104 145.996C129.744 145.746 132.314 144.216 133.254 142.606C134.494 140.476 135.924 131.656 135.924 131.656Z" fill="#263238"/>
<path d="M118.414 132.596C117.246 133.408 116.208 134.393 115.334 135.516C114.954 135.976 115.504 138.166 116.054 138.316C116.604 138.466 118.284 137.516 118.794 136.626C118.273 135.349 118.141 133.947 118.414 132.596Z" fill="#F5C2B2"/>
<path d="M114.784 136.256C114.842 137.077 115.126 137.866 115.604 138.536C115.884 138.886 114.004 140.256 113.004 140.536C111.474 140.926 110.914 139.806 111.864 139.236C113.054 138.506 113.744 136.726 114.784 136.256Z" fill="#F5C2B2"/>
<path d="M118.034 144.436C119.049 145.297 120.274 145.874 121.584 146.106C121.099 147.71 120.25 149.182 119.104 150.406C118.384 151.066 116.174 149.796 115.944 149.016C116.81 147.572 117.512 146.036 118.034 144.436Z" fill="#F5C2B2"/>
<path d="M115.724 149.476C116.09 149.922 116.547 150.287 117.064 150.546C117.581 150.804 118.146 150.951 118.724 150.976C118.127 152.176 117.169 153.159 115.984 153.786C115.414 153.886 113.734 153.266 113.824 152.676C114.377 151.564 115.012 150.494 115.724 149.476Z" fill="#F5C2B2"/>
<path d="M115.724 154.186C115.312 154.198 114.903 154.114 114.53 153.941C114.157 153.767 113.829 153.508 113.574 153.186C112.808 153.812 112.285 154.685 112.094 155.656C112.204 156.346 112.854 156.466 113.654 156.046C114.414 155.509 115.109 154.884 115.724 154.186Z" fill="#F5C2B2"/>
<path d="M125.924 146.556C127.076 146.589 128.221 146.378 129.284 145.936C129.284 147.046 128.464 150.886 127.834 151.626C127.204 152.366 124.774 152.116 124.444 151.366C125.115 149.822 125.612 148.209 125.924 146.556Z" fill="#F5C2B2"/>
<path d="M124.284 151.856C124.769 152.149 125.312 152.332 125.875 152.393C126.439 152.453 127.008 152.389 127.544 152.206C127.144 153.496 125.314 156.426 124.754 156.596C124.194 156.766 122.474 156.156 122.494 155.596C123.156 154.381 123.754 153.133 124.284 151.856Z" fill="#F5C2B2"/>
<path d="M124.454 157.046C124.041 157.061 123.63 156.978 123.255 156.804C122.879 156.63 122.55 156.37 122.294 156.046C121.524 156.671 121.003 157.55 120.824 158.526C120.944 159.216 121.594 159.336 122.384 158.906C123.145 158.369 123.84 157.745 124.454 157.046Z" fill="#F5C2B2"/>
<path d="M129.854 145.836C130.913 145.46 131.878 144.859 132.684 144.076C132.653 145.789 132.314 147.482 131.684 149.076C131.214 149.736 129.294 150.456 128.964 149.866C129.41 148.56 129.708 147.208 129.854 145.836Z" fill="#F5C2B2"/>
<path d="M128.904 150.286C128.904 150.286 129.754 150.926 131.554 149.736C131.314 150.816 130.074 153.936 129.624 154.116C129.174 154.296 127.734 153.926 127.704 153.436C128.157 152.407 128.558 151.355 128.904 150.286Z" fill="#F5C2B2"/>
<path d="M129.404 154.476C129.068 154.515 128.727 154.475 128.409 154.359C128.092 154.242 127.805 154.053 127.574 153.806C126.999 154.379 126.645 155.137 126.574 155.946C126.724 156.496 127.264 156.546 127.874 156.136C128.449 155.646 128.963 155.088 129.404 154.476Z" fill="#F5C2B2"/>
<path d="M121.934 146.166C123.128 146.51 124.376 146.632 125.614 146.526C125.08 148.733 124.181 150.835 122.954 152.746C122.334 152.893 121.682 152.823 121.108 152.548C120.533 152.274 120.069 151.81 119.794 151.236C120.679 149.623 121.396 147.925 121.934 146.166Z" fill="#F5C2B2"/>
<path d="M119.554 151.966C119.87 152.46 120.319 152.854 120.85 153.104C121.381 153.353 121.972 153.447 122.554 153.376C121.974 154.726 119.954 156.996 119.384 157.116C118.814 157.236 117.134 156.566 117.234 155.906C118.102 154.65 118.877 153.334 119.554 151.966Z" fill="#F5C2B2"/>
<path d="M119.124 157.556C118.703 157.563 118.287 157.466 117.914 157.272C117.54 157.078 117.22 156.794 116.984 156.446C116.394 157.276 114.884 158.786 114.984 159.546C115.084 160.306 115.714 160.396 116.534 159.956C117.545 159.331 118.424 158.516 119.124 157.556Z" fill="#F5C2B2"/>
<path d="M119.014 52.7357C125.354 54.3957 128.564 54.7357 131.284 58.1857C134.004 61.6357 137.404 74.7757 138.944 80.5157C140.484 86.2557 142.554 96.1056 142.874 97.9156C143.194 99.7257 143.114 101.916 142.164 107.626C141.074 114.176 138.834 125.046 138.834 125.046C138.834 125.046 137.234 125.546 131.834 124.456C129.276 123.986 126.748 123.365 124.264 122.596L125.324 102.946L116.324 75.1557C116.324 75.1557 111.944 58.8157 119.014 52.7357Z" fill="url(#paint7_linear)"/>
<path d="M124.425 119.046L124.145 124.366C124.145 124.366 125.885 126.626 131.145 127.616C133.656 128.213 136.301 127.857 138.565 126.616L139.635 121.416C137.119 122.383 134.383 122.629 131.735 122.126C126.335 121.156 124.425 119.046 124.425 119.046Z" fill="white"/>
<path d="M83.9742 62.4557C83.9742 62.4557 81.3141 57.8257 81.2441 55.9557L84.1841 52.6957L85.3542 60.3557L83.9742 62.4557Z" fill="#263238"/>
<path d="M87.8643 60.3756L92.9343 56.6556L97.3643 59.4156L89.5343 63.7756L87.8643 60.3756Z" fill="#263238"/>
<path d="M89.2148 110.126C90.2148 99.3957 87.5848 70.1957 87.7348 66.3957L85.0748 66.2256C83.3748 70.8456 79.2148 101.046 79.2148 108.376C79.2148 111.926 82.7949 118.146 83.9449 118.376C85.0949 118.606 88.9848 112.406 89.2148 110.126Z" fill="#37474F"/>
<path d="M84.8447 66.8957C84.9029 66.6721 84.973 66.4517 85.0547 66.2357L87.7147 66.4057C87.7147 66.7257 87.7147 67.1257 87.7147 67.5957C86.7074 67.6805 85.6999 67.4348 84.8447 66.8957Z" fill="#263238"/>
<path d="M87.8646 60.3756C87.0304 60.2843 86.1888 60.2843 85.3546 60.3756C84.7515 60.9704 84.2812 61.6861 83.9746 62.4756C84.0551 63.7961 84.4237 65.0829 85.0546 66.2456C85.4597 66.4635 85.907 66.5914 86.3661 66.6208C86.8251 66.6501 87.2851 66.5801 87.7146 66.4156C88.5637 65.7384 89.1964 64.8277 89.5346 63.7956C89.4453 62.4815 88.846 61.2542 87.8646 60.3756Z" fill="#37474F"/>
<path d="M87.4248 60.3257L87.8648 60.3757C88.7797 59.3539 89.8215 58.4532 90.9648 57.6957C91.6948 57.3357 94.5948 62.5557 95.1248 63.9157C95.6548 65.2757 95.5648 65.2457 97.4348 64.0957C100.681 61.998 103.568 59.3913 105.985 56.3757C107.707 54.3244 109.061 51.9897 109.985 49.4757C108.876 48.3565 107.872 47.1381 106.985 45.8357C105.875 43.6757 105.055 41.9957 103.845 42.1357V44.1357C103.575 45.9857 101.675 47.8557 99.0148 50.0057C96.3548 52.1557 92.0948 54.1457 91.0748 55.0657C89.7089 56.7106 88.4877 58.4705 87.4248 60.3257Z" fill="white"/>
<path d="M78.7744 60.2156C79.0444 60.9756 81.6344 55.1456 82.7744 55.3056C83.3344 55.3756 84.7744 58.5956 85.7744 60.3056H85.9544C85.4292 58.5353 85.0644 56.7213 84.8644 54.8856C84.6444 53.4456 86.0544 48.9556 86.0544 48.9556V44.0856L84.8644 44.1756C84.5222 44.4844 84.2229 44.8375 83.9744 45.2256C82.7644 47.0756 79.6144 51.3456 79.1644 53.5856C78.6591 55.7575 78.5272 57.9995 78.7744 60.2156Z" fill="white"/>
<defs>
<linearGradient id="paint0_linear" x1="243.704" y1="125.997" x2="243.704" y2="244.127" gradientUnits="userSpaceOnUse">
<stop stop-color="#263238"/>
<stop offset="1" stop-color="#263238"/>
</linearGradient>
<linearGradient id="paint1_linear" x1="241.042" y1="121.657" x2="241.042" y2="282.105" gradientUnits="userSpaceOnUse">
<stop stop-color="#263238"/>
<stop offset="1" stop-color="#4B5B64"/>
</linearGradient>
<linearGradient id="paint2_linear" x1="242.181" y1="51.9448" x2="242.181" y2="139.999" gradientUnits="userSpaceOnUse">
<stop stop-color="#37474F"/>
<stop offset="1" stop-color="#546E7A"/>
</linearGradient>
<linearGradient id="paint3_linear" x1="231.539" y1="71.7627" x2="241.931" y2="76.1392" gradientUnits="userSpaceOnUse">
<stop stop-color="#5FA8ED"/>
<stop offset="1" stop-color="#7ED5B7"/>
</linearGradient>
<linearGradient id="paint4_linear" x1="234.199" y1="64.0641" x2="236.945" y2="69.3447" gradientUnits="userSpaceOnUse">
<stop stop-color="#5FA8ED"/>
<stop offset="1" stop-color="#7ED5B7"/>
</linearGradient>
<linearGradient id="paint5_linear" x1="54.3534" y1="50.0457" x2="54.3534" y2="104.486" gradientUnits="userSpaceOnUse">
<stop stop-color="#C5C5C5"/>
<stop offset="1" stop-color="white"/>
</linearGradient>
<linearGradient id="paint6_linear" x1="82.5272" y1="58.8509" x2="129.414" y2="118.301" gradientUnits="userSpaceOnUse">
<stop stop-color="#EF8197"/>
<stop offset="0.942708" stop-color="#F7C58F"/>
</linearGradient>
<linearGradient id="paint7_linear" x1="106" y1="112" x2="135" y2="52.9998" gradientUnits="userSpaceOnUse">
<stop stop-color="white"/>
<stop offset="1" stop-color="#ADADAD"/>
</linearGradient>
</defs>
</svg>
