<svg width="473" height="526" viewBox="0 0 473 526" fill="none" xmlns="http://www.w3.org/2000/svg">
<path d="M4.93181e-05 267.985C0.00672969 233.895 13.01 201.088 36.3615 176.248C59.713 151.408 91.6564 136.402 125.686 134.286C159.716 132.171 193.272 143.105 219.522 164.861C245.771 186.618 262.738 217.561 266.969 251.388C270.272 277.856 265.598 304.707 253.546 328.502C239.949 355.395 217.682 376.919 190.341 389.596C163 402.273 132.183 405.363 102.869 398.366C73.5547 391.369 47.4562 374.695 28.7903 351.037C10.1244 327.378 -0.0187164 298.119 4.93181e-05 267.985Z" fill="url(#paint0_linear)"/>
<path d="M11.4908 322.367C76.2573 355.603 98.4647 341.664 167.663 317.004C207.211 302.896 236.078 315.29 253.539 328.5C242.087 351.113 224.455 370.016 202.69 383.012C180.925 396.009 155.919 402.567 130.576 401.925C105.233 401.283 80.5923 393.467 59.5136 379.385C38.4348 365.302 21.7829 345.532 11.4908 322.367Z" fill="url(#paint1_linear)"/>
<path d="M5.14795 230.978C13.6819 201.309 32.1979 175.496 57.5671 157.901C82.9363 140.305 113.603 132.006 144.385 134.406C175.167 136.805 204.176 149.757 226.511 171.071C248.846 192.386 263.137 220.757 266.969 251.389C255.185 240.277 241.241 231.707 226.003 226.213C210.766 220.719 194.561 218.418 178.396 219.453C107.964 223.594 53.8327 273.349 5.14795 230.978Z" fill="url(#paint2_linear)"/>
<path d="M275.001 394.791C275.004 379.32 280.905 364.433 291.502 353.16C302.099 341.887 316.595 335.077 332.038 334.117C347.481 333.157 362.709 338.119 374.621 347.992C386.533 357.866 394.233 371.908 396.153 387.259C397.652 399.27 395.531 411.455 390.062 422.254C383.892 434.458 373.786 444.226 361.379 449.979C348.971 455.732 334.986 457.134 321.683 453.959C308.38 450.784 296.537 443.216 288.066 432.48C279.595 421.744 274.992 408.466 275.001 394.791Z" fill="url(#paint3_linear)"/>
<path d="M215.456 56.1349C210.714 61.4166 211.468 71.2254 218.367 74.5669C229.9 64.9736 219.444 57.3206 215.456 56.1349Z" fill="#BA68C8"/>
<path opacity="0.3" d="M215.456 56.1349C210.714 61.4166 211.468 71.2254 218.367 74.5669C229.9 64.9736 219.444 57.3206 215.456 56.1349Z" fill="black"/>
<path d="M256.739 52.4701C245.961 48.0508 226.882 54.3026 210.067 57.8596C180.964 57.2129 150.567 71.441 150.567 71.441C150.567 71.441 141.405 69.6086 136.878 71.441C132.351 73.2734 134.076 81.8965 135.908 83.7289C137.74 85.4536 144.208 86.6392 144.208 86.6392C144.208 87.6093 144.962 88.4716 145.932 88.4716H146.364C148.95 88.6872 151.537 87.9327 153.478 86.2081C154.448 85.4535 155.202 84.4834 155.849 83.4056L158.436 78.8784C186.245 75.6448 208.127 73.7045 208.127 73.7045L255.662 69.8241L256.739 52.4701Z" fill="url(#paint4_linear)"/>
<path d="M218.365 74.5669C218.365 74.5669 224.941 66.3749 215.455 56.135C225.695 53.2247 248.546 46.3262 256.738 52.5779L255.445 70.0398L218.365 74.5669Z" fill="url(#paint5_linear)"/>
<path opacity="0.3" d="M144.1 86.747L146.579 86.9626C147.225 87.0704 147.764 86.8548 148.303 86.5314L150.136 85.3458C150.783 84.9146 151.106 84.1601 150.998 83.4056L150.459 80.0641L151.537 81.2498C152.184 82.0043 152.399 83.0822 152.184 84.0523C151.968 84.9146 151.321 85.5613 150.567 85.9925L148.411 87.0704C147.872 87.2859 147.333 87.3937 146.794 87.286L144.1 86.747Z" fill="black"/>
<path d="M444.723 38.6732C446.339 38.1342 448.819 38.781 450.867 40.1822C452.915 41.6913 454.316 43.8471 455.825 45.7873C458.089 48.8053 460.675 51.5001 463.478 53.8714C465.31 55.3805 467.143 56.7817 468.76 58.3986C470.376 60.1232 471.67 62.1712 471.885 64.4347C472.101 66.0516 471.67 67.7762 470.7 69.0697C472.424 67.7762 473.179 65.5126 472.963 63.3568C472.748 61.0933 471.347 58.9375 469.838 57.3207C468.221 55.5961 466.388 54.3026 464.556 52.7935C461.646 50.4222 459.059 47.6197 456.903 44.7094C455.394 42.6614 453.993 40.29 451.945 38.781C449.897 37.2719 447.31 36.733 445.801 37.2719L444.723 38.6732Z" fill="#263238"/>
<path d="M460.786 60.9855C459.277 59.4765 457.66 62.279 454.857 62.279C455.504 62.8179 456.043 63.3569 456.582 64.0036C459.6 63.3569 461.756 61.9556 460.786 60.9855Z" fill="white"/>
<path d="M457.55 57.9674C456.041 56.4583 453.885 59.4764 450.867 59.5842C451.298 59.7998 451.73 60.0154 452.161 60.3388C452.484 60.5543 452.807 60.7699 453.239 61.0933C456.364 60.4466 458.628 59.0453 457.55 57.9674Z" fill="white"/>
<path d="M438.042 48.3742C437.611 48.9131 437.503 49.6677 437.611 50.3144L445.372 58.5063C447.312 58.183 449.252 58.7219 450.977 59.5842C453.995 59.4764 456.151 56.5661 457.66 57.9674C458.63 58.9375 456.474 60.4466 453.348 60.9855C453.887 61.4167 454.426 61.8478 454.857 62.2789C457.768 62.1712 459.385 59.4765 460.786 60.9855C461.756 61.9556 459.6 63.4646 456.582 64.0036C456.905 64.3269 457.336 64.7581 457.66 65.0815C457.983 65.4048 458.307 65.836 458.63 66.1594C463.912 66.8061 466.606 64.5425 470.163 60.231C469.732 59.5842 469.301 59.0453 468.762 58.5063C467.145 56.7817 465.313 55.4883 463.48 53.9792C460.57 51.6079 457.983 48.8053 455.827 45.895C454.318 43.8471 452.917 41.6913 450.869 40.29C448.821 38.781 446.234 38.242 444.725 38.781L438.042 48.3742Z" fill="#455A64"/>
<path d="M458.629 66.1593C459.815 67.5606 461 69.1775 462.617 70.1476C464.665 71.3332 467.252 71.7644 469.3 70.5787C469.839 70.2553 470.378 69.8242 470.809 69.2852C471.779 67.9918 472.21 66.2671 471.995 64.6503C471.779 63.0335 471.132 61.5244 470.162 60.231C466.605 64.4347 463.803 66.6983 458.629 66.1593Z" fill="white"/>
<path d="M434.699 70.2554L447.202 57.2129C448.065 56.3506 448.065 54.9493 447.202 54.087L443.214 50.0988C441.813 48.6976 439.549 48.6976 438.148 49.991L424.459 62.279L434.699 70.2554Z" fill="url(#paint6_linear)"/>
<path d="M395.031 10.2169C396.433 9.3546 399.127 9.46241 401.391 10.4325C403.654 11.4026 405.487 13.235 407.427 14.9596C410.229 17.4388 413.355 19.5945 416.589 21.3192C418.637 22.3971 420.793 23.3672 422.733 24.6606C424.673 25.9541 426.29 27.7865 427.045 29.9423C427.583 31.5591 427.476 33.2837 426.829 34.7928C428.23 33.176 428.554 30.8046 427.799 28.7566C427.045 26.6009 425.32 24.7684 423.488 23.4749C421.547 22.1815 419.392 21.2114 417.344 20.1335C414.002 18.4089 410.984 16.2531 408.181 13.7739C406.241 12.1571 404.409 10.0013 402.145 9.03123C399.882 8.06113 397.187 7.95336 395.786 8.81567L395.031 10.2169Z" fill="#263238"/>
<path d="M415.402 28.7566C413.677 27.5709 412.599 30.589 409.797 31.2358C410.551 31.6669 411.198 32.0981 411.845 32.5292C414.755 31.3436 416.588 29.5111 415.402 28.7566Z" fill="white"/>
<path d="M411.631 26.493C409.906 25.3074 408.289 28.7566 405.379 29.4033C405.81 29.5111 406.349 29.6189 406.78 29.8345C407.211 29.9423 407.535 30.1579 407.966 30.3735C410.984 29.1878 412.816 27.2476 411.631 26.493Z" fill="white"/>
<path d="M390.503 21.1036C390.288 21.7503 390.288 22.5048 390.503 23.1516L399.773 29.5111C401.606 28.8644 403.546 28.8644 405.486 29.4033C408.396 28.7566 409.906 25.3074 411.738 26.493C412.924 27.2476 411.091 29.1878 408.073 30.3735C408.72 30.6968 409.259 30.9124 409.798 31.2358C412.6 30.589 413.678 27.5709 415.403 28.7566C416.588 29.5111 414.756 31.3436 411.846 32.5292C412.277 32.8526 412.708 33.0682 413.139 33.3915C413.57 33.6071 413.894 33.9305 414.325 34.2538C419.607 33.8227 421.87 31.0202 424.457 26.0619C423.918 25.5229 423.379 25.0918 422.732 24.6606C420.792 23.3671 418.636 22.397 416.588 21.3192C413.247 19.5945 410.229 17.4388 407.426 14.9596C405.486 13.3428 403.762 11.5104 401.39 10.4325C399.127 9.46239 396.432 9.35459 395.031 10.2169L390.503 21.1036Z" fill="#455A64"/>
<path d="M414.324 34.2538C415.833 35.4394 417.235 36.7329 419.067 37.3797C421.33 38.1342 424.025 38.0264 425.75 36.4095C426.289 35.9784 426.612 35.4394 426.936 34.7927C427.582 33.2837 427.69 31.559 427.151 29.9422C426.612 28.4332 425.642 27.1397 424.456 25.954C421.869 31.0201 419.606 33.7148 414.324 34.2538Z" fill="white"/>
<path d="M391.798 43.2004L401.283 27.8943C401.93 26.8164 401.714 25.523 400.637 24.7685L395.894 21.6426C394.277 20.5647 392.013 20.9958 390.936 22.6127L380.049 37.4875L391.798 43.2004Z" fill="url(#paint7_linear)"/>
<path d="M327.556 117.79C354.287 117.898 374.552 115.635 387.055 113.802C396.002 112.509 404.086 107.981 410.122 101.299L440.087 67.6684C436.315 58.0752 423.596 54.1948 423.596 54.1948C415.404 64.1114 389.642 74.5669 386.516 85.9925C374.121 83.729 357.306 83.4056 357.306 83.4056L364.204 80.6031C369.701 78.3395 374.336 74.4591 377.462 69.5008L397.942 36.9486C390.289 28.0021 377.354 27.3553 377.354 27.3553C371.749 38.781 355.581 50.8533 352.132 60.4466C326.909 62.6023 317.316 67.3451 307.723 73.2734L327.556 117.79Z" fill="url(#paint8_linear)"/>
<g opacity="0.2">
<path opacity="0.5" d="M396.432 98.496C398.911 87.0704 392.983 82.1121 389.749 80.4953C388.132 82.3277 386.947 84.1601 386.516 86.1003C394.384 89.4418 396.324 96.5558 396.432 98.496Z" fill="black"/>
<path opacity="0.5" d="M330.896 70.9021C330.896 70.9021 339.735 73.1657 347.819 83.4056C347.819 83.4056 351.484 83.2978 357.305 83.4056L364.203 80.6031C364.634 80.3875 364.958 80.2797 365.389 80.0642L350.298 80.7109C350.298 80.7109 342.861 72.0878 330.896 70.9021Z" fill="black"/>
<path opacity="0.5" d="M361.94 69.393C362.371 60.7699 356.874 57.3207 354.394 56.135C353.424 57.6441 352.67 59.0453 352.131 60.5544C358.059 61.9556 361.401 67.345 361.94 69.393Z" fill="black"/>
</g>
<path d="M247.47 58.7219C243.697 86.9626 255.123 109.383 282.717 117.467C297.484 121.671 328.743 119.515 328.743 119.515C338.552 95.1546 330.36 83.6212 307.724 73.1656C293.712 77.6928 290.37 61.5244 289.723 59.5842C279.591 54.3026 254.261 46.6495 254.261 46.6495C248.656 49.3443 247.47 58.7219 247.47 58.7219Z" fill="url(#paint9_linear)"/>
<path d="M273.661 54.8415L269.565 47.5119L253.289 58.5064C255.445 61.4167 257.601 64.2192 259.756 67.1295C262.559 68.3152 265.685 68.7463 268.487 67.4529C271.29 66.1594 273.446 63.788 274.416 60.8777C275.062 58.8297 274.739 56.8895 273.661 54.8415Z" fill="url(#paint10_linear)"/>
<path opacity="0.3" d="M268.164 48.5898C268.164 57.4285 261.157 61.5245 256.846 63.1413L253.396 58.5063L268.164 48.5898Z" fill="black"/>
<path d="M272.585 41.6913C271.183 43.4159 269.459 44.9249 267.303 45.1405C264.5 45.4639 261.914 43.3081 260.297 41.0445C258.68 38.6732 257.602 35.9784 255.554 33.9304C252.967 31.2357 249.087 30.05 245.422 30.1578C241.649 30.2656 237.984 31.5591 234.643 33.1759C231.948 31.6669 229.792 29.0799 228.822 26.1696C228.176 24.1216 228.068 21.8581 228.499 19.7023C228.715 18.7322 229.9 18.5166 230.439 19.2711C230.762 19.7023 231.194 20.1335 231.517 20.4568C231.301 17.0076 232.056 13.5583 233.888 10.5402C235.397 8.06109 237.553 6.0131 240.032 4.61184C240.787 4.18069 241.757 4.50406 242.188 5.25858C242.619 6.22868 243.266 6.98322 244.128 7.62995C246.607 4.18071 250.057 1.48598 254.045 0.084726C254.907 -0.238641 255.77 0.408099 255.77 1.27041C256.201 7.09101 266.117 10.8636 269.351 13.4505C269.782 11.8337 270.752 10.4325 272.261 9.57014C273.662 8.60004 275.495 8.27667 277.112 8.49225C275.279 10.3247 273.555 12.2649 271.722 14.0973C273.662 13.9895 275.603 13.6661 277.327 12.9116C278.297 12.4804 279.375 13.1272 279.483 14.2051C279.806 16.5764 279.16 19.1634 277.758 21.1036C278.405 20.7802 278.944 20.5646 279.483 20.2412C280.13 19.9179 280.884 20.4568 280.777 21.2114C280.238 24.445 278.729 27.5709 276.249 29.7267C276.681 29.7267 277.112 29.6189 277.543 29.5111C278.405 29.2955 279.16 29.8345 279.052 30.6968C278.729 32.4214 277.866 34.0382 276.896 35.5473C275.71 37.4875 274.094 39.8589 272.585 41.6913Z" fill="#263238"/>
<path d="M233.782 23.4749C232.057 33.9304 233.243 44.8171 237.123 54.6259C237.986 56.8895 239.171 59.2609 241.327 60.4465C243.591 61.74 246.285 61.4166 248.872 61.0933C252.968 60.4465 257.064 59.5842 260.837 57.7518C264.502 55.8116 267.735 52.7935 269.137 48.9131C271.831 49.5598 274.634 48.2664 276.359 46.1106C278.083 43.847 278.622 41.0445 278.73 38.242C278.73 36.4096 278.407 34.3616 276.79 33.6071C275.281 32.8526 273.556 33.7149 272.263 34.7927C270.107 36.5174 268.598 38.8887 267.843 41.4757C266.658 37.1641 264.825 32.9603 263.639 28.541C263.208 26.8164 262.562 24.9839 261.16 24.0138C259.328 22.8282 256.957 23.4749 254.801 24.0138C248.226 25.4151 240.034 25.4151 233.782 23.4749Z" fill="url(#paint11_linear)"/>
<path d="M246.5 36.6252L241.326 45.2483L247.47 46.3262L246.5 36.6252Z" fill="#FCDDCD"/>
<path d="M253.291 49.3442C251.782 50.0988 250.165 50.8533 248.656 51.6078C249.303 52.6857 251.028 53.1169 252.106 52.5779C253.291 52.039 253.615 50.5299 253.291 49.3442Z" fill="#F28F8F"/>
<path opacity="0.3" d="M253.291 49.3442C251.782 50.0988 250.165 50.8533 248.656 51.6078C249.303 52.6857 251.028 53.1169 252.106 52.5779C253.291 52.039 253.615 50.5299 253.291 49.3442Z" fill="black"/>
<path d="M250.596 52.6857C251.135 52.7935 251.674 52.7935 252.213 52.5779C253.075 52.1468 253.506 51.1767 253.398 50.0988C252.751 50.0988 252.105 50.3144 251.566 50.7456C251.027 51.1767 250.596 51.9312 250.596 52.6857Z" fill="#F28F8F"/>
<path d="M255.231 36.9485C255.339 37.9186 254.584 38.781 253.722 38.8888C252.752 38.9966 251.89 38.242 251.782 37.3797C251.674 36.4096 252.429 35.5473 253.291 35.4395C254.261 35.3317 255.123 35.9784 255.231 36.9485Z" fill="#263238"/>
<path d="M240.68 37.9186C240.788 38.8887 240.034 39.751 239.171 39.8588C238.201 39.9666 237.339 39.2121 237.231 38.3498C237.123 37.3797 237.878 36.5173 238.74 36.4095C239.71 36.194 240.572 36.9485 240.68 37.9186Z" fill="#263238"/>
<path d="M238.199 31.1279C237.014 32.098 235.828 33.1759 234.642 34.146C234.211 33.2837 234.427 32.098 235.073 31.3435C235.828 30.6967 237.337 30.6967 238.199 31.1279Z" fill="#263238"/>
<path d="M253.074 29.4033C254.475 30.1578 255.769 30.9123 257.17 31.6669C257.494 30.6968 256.955 29.6189 256.092 28.9721C255.338 28.541 253.829 28.8643 253.074 29.4033Z" fill="#263238"/>
<path d="M339.737 91.9209L316.886 73.5968C308.909 67.2372 299.747 62.4945 289.831 59.7998C288.645 72.9501 295.328 85.5614 306.861 92.1365L328.311 104.317L329.281 141.935L328.958 149.049L324.97 151.636L318.071 159.828C317.748 160.259 317.64 160.906 317.964 161.337C318.395 161.876 319.149 162.092 319.688 161.768L325.832 157.996L324.646 164.032C324.431 164.894 324.108 165.649 323.676 166.403L319.041 173.086C318.61 173.733 318.718 174.487 319.257 175.026C319.688 175.457 320.335 175.457 320.874 175.242L325.078 173.409C330.575 170.93 334.671 166.188 336.395 160.475L339.414 150.343C339.845 148.833 340.168 147.324 340.276 145.815L344.48 103.131C344.911 98.9272 343.078 94.6156 339.737 91.9209Z" fill="url(#paint12_linear)"/>
<path d="M289.831 59.692L297.808 62.1712C303.736 64.0036 309.341 66.8061 314.515 70.3631L327.989 79.9564C327.881 91.2742 315.808 99.7895 315.808 99.7895L298.886 89.7651C290.909 85.0224 286.705 75.8604 288.43 66.6983L289.831 59.692Z" fill="url(#paint13_linear)"/>
<path d="M166 502.993C166.001 497.141 168.233 491.51 172.241 487.247C176.249 482.983 181.732 480.407 187.573 480.044C193.414 479.681 199.174 481.558 203.679 485.292C208.185 489.027 211.097 494.338 211.823 500.144C212.39 504.687 211.588 509.296 209.519 513.38C207.185 517.996 203.363 521.69 198.67 523.866C193.978 526.042 188.688 526.572 183.657 525.371C178.625 524.171 174.145 521.308 170.942 517.248C167.738 513.187 165.997 508.165 166 502.993Z" fill="url(#paint14_linear)"/>
<defs>
<linearGradient id="paint0_linear" x1="192.009" y1="364.322" x2="64.9702" y2="134.028" gradientUnits="userSpaceOnUse">
<stop stop-color="#5FA8ED"/>
<stop offset="1" stop-color="#7ED5B7"/>
</linearGradient>
<linearGradient id="paint1_linear" x1="184.906" y1="389.135" x2="164.536" y2="291.142" gradientUnits="userSpaceOnUse">
<stop stop-color="#5FA8ED"/>
<stop offset="1" stop-color="#7ED5B7"/>
</linearGradient>
<linearGradient id="paint2_linear" x1="192.73" y1="234.873" x2="162.064" y2="110.888" gradientUnits="userSpaceOnUse">
<stop stop-color="#5FA8ED"/>
<stop offset="1" stop-color="#7ED5B7"/>
</linearGradient>
<linearGradient id="paint3_linear" x1="362.136" y1="438.509" x2="304.485" y2="334" gradientUnits="userSpaceOnUse">
<stop stop-color="#73BCF9"/>
<stop offset="1" stop-color="#7A96F8"/>
</linearGradient>
<linearGradient id="paint4_linear" x1="195.37" y1="50.947" x2="195.37" y2="88.5076" gradientUnits="userSpaceOnUse">
<stop stop-color="#F7BC9C"/>
<stop offset="1" stop-color="#FCDDCD"/>
</linearGradient>
<linearGradient id="paint5_linear" x1="236.097" y1="50.0383" x2="236.097" y2="74.5669" gradientUnits="userSpaceOnUse">
<stop stop-color="#DE6069"/>
<stop offset="1" stop-color="#F4A494"/>
</linearGradient>
<linearGradient id="paint6_linear" x1="436.154" y1="49.034" x2="436.154" y2="70.2554" gradientUnits="userSpaceOnUse">
<stop stop-color="#F7BB9B"/>
<stop offset="1" stop-color="#FCDDCD"/>
</linearGradient>
<linearGradient id="paint7_linear" x1="390.848" y1="21.0495" x2="390.848" y2="43.2004" gradientUnits="userSpaceOnUse">
<stop stop-color="#F7BC9C"/>
<stop offset="1" stop-color="#F6C6AE"/>
</linearGradient>
<linearGradient id="paint8_linear" x1="345.255" y1="40.0794" x2="362.993" y2="138.235" gradientUnits="userSpaceOnUse">
<stop stop-color="#4E46A4"/>
<stop offset="1" stop-color="#799FF8"/>
</linearGradient>
<linearGradient id="paint9_linear" x1="318.32" y1="46.3493" x2="289.798" y2="120.068" gradientUnits="userSpaceOnUse">
<stop stop-color="#CD3641"/>
<stop offset="0.639986" stop-color="#F18F96"/>
<stop offset="1" stop-color="#F4A693"/>
</linearGradient>
<linearGradient id="paint10_linear" x1="270.352" y1="51.1998" x2="264.423" y2="67.9071" gradientUnits="userSpaceOnUse">
<stop stop-color="#F7BB9B"/>
<stop offset="1" stop-color="#F6C6AE"/>
</linearGradient>
<linearGradient id="paint11_linear" x1="278.439" y1="42.0377" x2="205.142" y2="42.0377" gradientUnits="userSpaceOnUse">
<stop stop-color="#F7B998"/>
<stop offset="1" stop-color="#F5CEBC"/>
</linearGradient>
<linearGradient id="paint12_linear" x1="374.908" y1="99.1658" x2="314.547" y2="117.49" gradientUnits="userSpaceOnUse">
<stop stop-color="#F7BE9F"/>
<stop offset="1" stop-color="#FCDDCD"/>
</linearGradient>
<linearGradient id="paint13_linear" x1="317.781" y1="64.6734" x2="308.018" y2="99.7895" gradientUnits="userSpaceOnUse">
<stop stop-color="#DF636C"/>
<stop offset="1" stop-color="#F4A394"/>
</linearGradient>
<linearGradient id="paint14_linear" x1="181.623" y1="547.954" x2="181.623" y2="480" gradientUnits="userSpaceOnUse">
<stop offset="0.169841" stop-color="#EA5AB1"/>
<stop offset="0.942708" stop-color="#F9E1C5"/>
</linearGradient>
</defs>
</svg>
