<svg width="90" height="91" viewBox="0 0 90 91" fill="none" xmlns="http://www.w3.org/2000/svg">
<path d="M89.9103 45.771C89.908 34.351 85.5521 23.3612 77.7295 15.04C69.907 6.71875 59.2063 1.69189 47.8066 0.983181C36.407 0.274471 25.1658 3.9372 16.3726 11.2254C7.57937 18.5137 1.8954 28.8793 0.478291 40.2111C-0.62829 49.0775 0.937407 58.0724 4.97486 66.0437C9.52947 75.0525 16.9889 82.2628 26.1479 86.5095C35.3068 90.7562 45.6303 91.7912 55.4502 89.4474C65.2702 87.1035 74.0129 81.5177 80.2658 73.5924C86.5187 65.6672 89.9166 55.8654 89.9103 45.771Z" fill="url(#paint0_linear)"/>
<defs>
<linearGradient id="paint0_linear" x1="25.5892" y1="78.0428" x2="68.1459" y2="0.896515" gradientUnits="userSpaceOnUse">
<stop stop-color="#73BCF9"/>
<stop offset="1" stop-color="#7A96F8"/>
</linearGradient>
</defs>
</svg>
