<svg width="71" height="71" viewBox="0 0 71 71" fill="none" xmlns="http://www.w3.org/2000/svg">
<path d="M70.3512 35.0019C70.3494 26.0997 66.9538 17.5328 60.856 11.0462C54.7581 4.55959 46.4166 0.641018 37.5302 0.0885653C28.6439 -0.463895 19.8811 2.39131 13.0265 8.07269C6.17198 13.7541 1.74117 21.8343 0.636498 30.6678C-0.226113 37.5794 0.994391 44.5912 4.14169 50.805C7.69214 57.8276 13.507 63.4482 20.6466 66.7587C27.7863 70.0691 35.8337 70.8759 43.4886 69.0488C51.1435 67.2217 57.9587 62.8674 62.8331 56.6895C67.7074 50.5115 70.3561 42.8708 70.3512 35.0019Z" fill="url(#paint0_linear)"/>
<defs>
<linearGradient id="paint0_linear" x1="46.583" y1="103.406" x2="46.583" y2="0.0210432" gradientUnits="userSpaceOnUse">
<stop offset="0.169841" stop-color="#EA5AB1"/>
<stop offset="0.942708" stop-color="#F9E1C5"/>
</linearGradient>
</defs>
</svg>
