<svg width="367" height="303" viewBox="0 0 367 303" fill="none" xmlns="http://www.w3.org/2000/svg">
<path d="M13.1099 132.168C13.3028 128.693 13.8816 125.026 15.0393 121.745C16.1969 118.464 14.0746 115.375 14.4605 111.515C14.6534 110.357 14.8463 109.585 15.0393 108.813C15.6181 106.497 15.811 104.18 15.6181 101.864C15.6181 100.513 15.6181 99.162 15.4252 98.004C15.4252 96.0738 15.2322 94.1437 15.6181 92.2135C16.004 90.2834 16.5828 88.3532 17.9334 87.0021C18.1263 86.8091 18.3192 86.6161 18.5122 86.6161C18.898 86.4231 19.2839 86.8091 19.4769 87.0021C19.6698 87.3881 19.8628 87.7742 19.8628 88.1602C21.5992 95.4948 21.9851 102.057 23.7215 109.392C23.9145 110.55 24.3003 111.708 24.3003 112.866C24.4933 114.024 24.4933 114.989 24.4933 116.147C24.4933 118.464 24.6862 120.78 24.6862 123.096C24.6862 125.412 25.0721 127.728 28.3521 130.817C42.2437 140.66 73.4999 158.032 73.4999 158.032C79.0951 149.925 87.3915 139.695 97.6173 125.991C105.335 115.761 115.175 108.041 129.066 109.199L110.158 153.592C110.158 153.592 85.4621 179.842 82.568 181.579C78.9022 183.703 76.201 184.282 73.6928 183.51C68.2905 181.579 66.1682 179.649 60.7659 176.175C54.5918 172.315 20.8275 143.942 20.8275 143.942C16.3899 139.695 12.724 138.151 13.1099 132.168Z" fill="url(#paint0_linear)"/>
<path d="M132.154 108.813C122.121 108.427 116.719 109.199 109.387 114.218C102.056 119.236 97.6181 125.798 93.7594 130.238C93.7594 130.238 94.917 145.1 109.966 156.102L112.089 153.207L132.154 108.813Z" fill="#14528C"/>
<path d="M268.369 119.044C268.369 111.902 272.421 103.795 278.595 91.8284C285.541 78.5104 291.136 70.2108 296.152 55.7347C298.082 50.3302 299.432 45.1188 299.239 39.3284C299.239 36.2402 298.275 33.1519 298.854 30.0637C299.239 27.5545 300.397 25.2383 302.327 23.6942C305.606 20.992 309.465 22.7291 313.131 21.378C315.832 20.2199 317.762 17.7107 319.498 15.3945C321.042 13.2714 322.585 10.9552 324.515 9.21807C326.444 7.48093 329.338 6.51586 331.846 5.7438C335.705 4.58571 339.757 5.16475 343.616 4.00667C344.966 3.62064 346.51 2.84858 347.86 2.46255C349.211 2.07652 350.947 2.26953 352.105 3.04159C353.648 4.19968 354.034 6.51586 353.455 8.25299C353.07 9.6041 352.298 10.7622 351.333 11.9203C350.754 12.8854 350.368 14.0434 349.597 15.0085C347.86 17.5177 345.931 19.8339 344.001 22.1501C337.827 29.2916 333.583 33.3449 328.952 39.1354C326.058 42.6096 321.428 48.9791 319.884 53.2255C318.726 56.3137 315.639 73.685 313.324 84.3009C304.256 127.343 302.134 145.294 294.416 150.312C289.593 153.786 288.435 154.365 282.84 157.454C270.877 164.209 233.447 182.352 205.857 190.266L187.335 174.632C193.123 162.665 194.088 143.363 216.468 133.134C219.17 131.976 224.765 130.238 232.29 129.659C239.235 127.922 268.369 119.044 268.369 119.044Z" fill="url(#paint1_linear)"/>
<path d="M319.884 53.2255C319.305 54.5766 318.533 58.0508 317.762 62.4902C317.183 53.6115 311.202 44.5398 318.919 37.2052C320.463 35.6611 322.392 34.503 324.322 33.3449C326.058 32.3799 328.566 31.8008 330.303 30.6427C337.249 25.4313 336.284 15.2015 343.423 9.99013C344.58 9.21807 346.317 8.05998 347.474 7.28792C348.246 6.51586 348.632 4.97174 349.211 3.62064C349.404 3.04159 349.597 2.65556 349.983 2.26953C350.754 2.46255 351.526 2.65556 352.105 3.04159C353.648 4.19968 354.034 6.51586 353.455 8.25299C353.07 9.6041 352.298 10.7622 351.333 11.9203C350.754 12.8854 350.368 14.0434 349.597 15.0085C347.86 17.5177 345.931 19.8339 344.001 22.1501C337.827 29.2916 333.583 33.3449 328.952 39.1354C325.865 42.8027 321.428 48.9791 319.884 53.2255Z" fill="#F28F8F"/>
<path d="M225.152 176.177L219.557 145.874C219.557 145.874 239.237 139.504 258.145 150.506C271.072 149.927 284.578 150.313 294.225 150.699C289.594 153.981 288.436 154.56 283.034 157.648C273.966 162.859 249.656 174.633 226.503 183.512L225.152 176.177Z" fill="#F28F8F"/>
<path d="M206.629 139.311C211.453 134.678 214.926 132.941 220.907 131.397C226.888 129.853 229.203 129.853 233.834 128.502C238.464 127.151 245.796 125.028 245.796 125.028C245.796 125.028 249.848 124.449 256.6 127.73C263.546 131.011 273.965 140.276 276.473 152.822C278.789 165.561 273.579 171.93 273.579 171.93L235.184 186.985L206.629 139.311Z" fill="url(#paint2_linear)"/>
<path opacity="0.1" d="M219.942 146.065C232.097 135.642 251.777 137.765 260.073 143.17L272.229 142.012C274.158 145.293 275.701 148.767 276.473 152.821C278.789 165.56 273.579 171.929 273.579 171.929L235.184 186.984L215.311 153.593C216.662 150.311 218.206 147.609 219.942 146.065Z" fill="black"/>
<path d="M223.994 145.873L229.589 176.176L235.377 208.024C276.087 203.777 334.548 191.617 345.352 182.353C350.948 177.527 350.948 164.209 348.825 116.728C348.247 103.796 345.545 83.529 346.51 68.6669C346.51 64.6136 347.282 60.3673 348.632 56.507C351.527 46.2772 358.279 37.9775 363.489 29.0988C364.453 27.3617 365.418 25.6246 365.804 23.8874C366.19 22.3433 365.997 20.7992 366.19 19.2551C366.576 17.711 367.155 16.3599 366.962 15.0087C366.769 13.8507 365.997 12.6926 365.611 11.5345C365.225 10.1834 365.611 8.83227 365.418 7.48117C365.225 6.70911 365.032 5.74403 364.261 5.16499C363.682 4.58594 362.717 4.58594 362.331 3.81388C362.331 3.62087 362.138 3.42785 362.138 3.23484C361.752 0.725645 359.437 -0.432445 356.929 0.1466C355.385 0.725645 354.228 1.88373 353.649 3.62087C353.07 4.97197 352.491 6.51609 351.527 7.48117C350.562 8.44624 348.632 9.41132 347.475 10.1834C340.529 15.2018 341.301 25.6246 334.355 30.836C332.811 31.9941 330.303 32.5731 328.374 33.5382C326.444 34.5033 324.515 35.8544 322.972 37.3985C314.675 45.3121 322.586 55.1559 321.814 64.9996C320.849 74.2643 317.376 87.7754 315.254 100.128C311.781 120.395 308.308 141.434 310.816 151.47C310.816 151.47 285.348 149.733 262.196 150.698C243.673 139.503 223.994 145.873 223.994 145.873Z" fill="url(#paint3_linear)"/>
<path d="M328.373 158.033C316.604 156.295 311.009 151.47 311.009 151.47C310.044 147.61 310.044 143.363 310.237 137.959C311.394 148.961 328.373 158.033 328.373 158.033Z" fill="#F28F8F"/>
<path d="M220.906 146.838C230.36 140.662 240.2 142.592 247.918 143.943C255.442 145.487 259.687 148.575 262.774 149.54C265.668 150.505 270.299 148.768 280.91 149.54C280.91 149.54 283.997 149.347 288.821 154.173C293.452 158.998 296.731 169.614 296.153 174.439C296.153 174.439 280.525 179.651 281.103 180.616C281.682 181.581 296.731 180.23 296.731 180.23C296.731 180.23 297.696 185.441 295.767 191.231C294.416 195.671 289.979 200.496 289.979 200.496C289.979 200.496 252.548 207.252 234.798 209.954C220.713 212.077 220.906 146.838 220.906 146.838Z" fill="url(#paint4_linear)"/>
<path d="M268.37 119.044C268.37 115.183 269.721 110.744 271.843 105.726C271.843 107.849 271.843 110.358 272.229 113.446C273.387 122.325 281.49 127.729 281.49 127.729C281.49 127.729 271.843 125.413 268.37 119.044Z" fill="#F28F8F"/>
<path d="M148.361 109.2C150.87 109.586 167.462 112.867 171.707 114.218C179.425 116.535 188.879 144.522 193.702 151.47C196.982 147.224 201.806 142.399 206.629 139.117C211.26 138.731 226.888 145.873 235.763 163.051C245.217 181.388 243.288 199.917 237.114 209.954C223.029 214.393 207.208 216.323 179.039 214.2C166.112 213.235 146.818 206.479 137.943 199.917C132.155 195.671 129.646 193.547 125.016 189.687C105.143 185.634 104.371 168.263 108.037 153.593C112.282 136.029 113.439 125.606 120.385 114.025C123.472 109.007 134.856 107.077 148.361 109.2Z" fill="url(#paint5_linear)"/>
<path d="M133.697 189.301C139.099 192.582 147.396 192.775 154.92 190.073C162.445 187.371 166.69 178.685 166.497 171.93C166.497 171.93 170.741 187.371 157.236 193.161C142.765 199.531 134.083 191.231 133.697 189.301Z" fill="#5AA6BB"/>
<path d="M97.2313 51.1022C87.1985 49.7511 83.5327 52.4534 80.6386 58.2438C77.3586 64.8063 78.3233 87.7751 105.914 90.0913C129.259 92.0214 138.713 96.0747 147.781 100.321C166.69 109.007 198.139 105.146 212.609 93.1795C230.552 78.3173 229.588 60.1739 221.484 51.1022C213.381 42.0305 198.139 49.9442 198.139 49.9442C198.139 49.9442 203.348 33.3449 188.685 30.4497C177.301 28.3265 174.214 41.8375 160.708 45.3118C149.132 48.4 144.116 41.2585 132.346 37.3982C120.577 33.5379 101.283 38.7493 97.2313 51.1022Z" fill="#455A64"/>
<path opacity="0.2" d="M97.2313 51.1022C87.1985 49.7511 83.5327 52.4534 80.6386 58.2438C77.3586 64.8063 78.3233 87.7751 105.914 90.0913C129.259 92.0214 138.713 96.0747 147.781 100.321C166.69 109.007 198.139 105.146 212.609 93.1795C230.552 78.3173 229.588 60.1739 221.484 51.1022C213.381 42.0305 198.139 49.9442 198.139 49.9442C198.139 49.9442 203.348 33.3449 188.685 30.4497C177.301 28.3265 174.214 41.8375 160.708 45.3118C149.132 48.4 144.116 41.2585 132.346 37.3982C120.577 33.5379 101.283 38.7493 97.2313 51.1022Z" fill="black"/>
<path d="M148.361 90.2852L151.641 111.903L161.48 114.605C159.937 118.079 150.483 145.294 144.116 147.225C138.714 148.769 124.243 148.19 121.928 141.048C121.156 138.346 126.751 117.307 126.751 117.307L126.366 115.763L148.361 90.2852Z" fill="#FFBEB5"/>
<path d="M100.511 59.0156C100.511 59.0156 99.7392 69.0524 112.473 75.0359C124.628 81.0193 133.696 78.5101 141.607 87.1958C145.08 91.8282 148.167 84.1076 149.132 76.966C149.903 74.8429 150.675 73.8778 152.412 72.3337C154.534 70.5965 161.48 69.6314 164.374 76.0009C167.075 81.9844 162.637 89.512 158.2 92.0212C155.113 93.7583 153.183 93.5653 151.64 93.1793C148.939 92.4072 148.36 90.284 148.36 90.284L144.308 97.8116C143.343 101.865 141.607 105.532 139.485 109.2C136.976 111.516 130.224 114.99 128.873 114.99L126.751 115.569C120.191 117.306 111.123 117.499 107.457 116.148C103.791 114.99 97.2309 111.516 96.6521 89.898C95.8803 64.034 99.9321 59.9807 100.511 59.0156Z" fill="url(#paint6_linear)"/>
<path d="M145.079 95.1094C145.079 95.1094 145.658 104.953 140.642 110.744C139.677 111.902 135.046 117.113 127.522 118.85L126.171 115.762C126.171 115.762 129.258 114.797 131.574 113.832C133.889 112.867 136.011 111.516 137.555 110.358C143.343 106.111 144.308 97.0395 145.079 95.1094Z" fill="#F28F8F"/>
<path d="M127.907 115.376C127.907 115.376 130.801 131.396 132.345 134.291C133.309 136.029 136.203 136.029 138.133 135.45C138.133 135.45 133.888 137.959 131.573 135.063C129.258 132.168 126.171 115.762 126.171 115.762L127.907 115.376Z" fill="#F28F8F"/>
<path d="M119.033 85.073C119.033 86.6171 120.191 87.9682 121.734 87.9682C123.278 87.9682 124.436 86.8101 124.436 85.073C124.436 83.5288 123.278 82.1777 121.734 82.1777C120.384 82.1777 119.033 83.5288 119.033 85.073Z" fill="#263238"/>
<path d="M119.805 75.4231L126.172 77.5463C126.75 75.8092 125.786 73.879 124.049 73.107C122.313 72.7209 120.383 73.686 119.805 75.4231Z" fill="#455A64"/>
<path d="M121.928 100.129L110.352 103.989C111.317 107.27 114.789 109.008 118.069 108.043C121.349 107.077 123.086 103.41 121.928 100.129Z" fill="#B16668"/>
<path d="M114.404 108.236C114.789 105.148 117.491 102.832 120.578 103.025C121.156 103.025 121.542 103.218 122.121 103.411C121.735 105.534 120.192 107.464 118.069 108.236C116.912 108.622 115.561 108.622 114.404 108.236Z" fill="#F28F8F"/>
<path d="M95.8798 77.7389L101.668 74.4576C100.896 72.7205 98.7739 72.1414 97.2304 73.1065C95.6868 73.8786 95.108 76.0017 95.8798 77.7389Z" fill="#455A64"/>
<path d="M98.7754 83.529C98.7754 85.0731 99.933 86.4242 101.477 86.4242C103.02 86.4242 104.178 85.2661 104.178 83.529C104.178 81.9849 103.02 80.6338 101.477 80.6338C99.933 80.6338 98.7754 81.9849 98.7754 83.529Z" fill="#263238"/>
<path d="M112.086 83.1426L110.157 98.5838L101.474 95.4955L112.086 83.1426Z" fill="#E7A49A"/>
<path d="M172.479 218.446C164.376 235.432 152.414 263.805 148.748 267.086C141.223 269.209 135.821 275.772 130.033 277.702C124.244 279.632 123.666 282.141 126.174 283.106C130.033 284.651 134.084 283.299 137.943 282.334C138.329 282.334 138.715 282.141 138.908 282.334C139.487 282.72 138.908 283.492 138.522 284.072C134.084 288.704 128.875 292.757 123.28 295.845C122.508 296.231 121.543 296.811 120.964 297.39C120.386 298.162 119.807 299.127 120 300.092C120.386 301.829 122.701 302.408 124.63 302.408C134.663 302.408 144.889 296.618 152.028 290.055C160.903 281.948 191.001 241.994 196.597 232.344C198.333 229.448 200.07 226.939 200.263 224.43C200.841 220.377 200.648 216.13 200.455 209.568C200.455 203.005 198.912 169.228 197.947 155.138C195.632 126.378 189.651 118.272 171.708 114.025C162.061 123.29 168.042 160.735 168.042 160.735L172.479 218.446Z" fill="url(#paint7_linear)"/>
<path d="M171.707 114.218C181.739 115.183 190.808 121.552 194.28 130.817C197.753 140.082 199.297 162.858 199.297 162.858C199.297 162.858 183.862 166.332 167.076 165.367C167.076 165.367 164.375 142.205 165.34 130.431C166.304 118.657 169.584 115.762 171.707 114.218Z" fill="#367DC0"/>
<path d="M16.4521 122.406C16.0095 121.744 15.6321 121.265 14.9426 120.487C11.3788 116.845 7.74975 113.022 4.18597 109.38C3.56175 108.784 2.69068 108.071 1.84808 108.579C1.36863 108.957 1.38287 109.567 1.3971 110.177C1.46828 113.228 3.05731 115.939 4.76265 118.402C5.96006 120.023 6.9759 121.709 7.99175 123.395C8.69548 124.783 9.10133 126.483 9.62348 127.936C10.9799 131.14 11.349 133.879 14.5354 137.041C15.7838 138.233 18.9928 139.747 21.2654 140.366C23.0443 140.752 18.3366 129.933 18.3366 129.933C18.4244 128.465 17.4086 126.779 17.4964 125.312C17.2864 124.157 16.96 123.249 16.4521 122.406Z" fill="url(#paint8_linear)"/>
<defs>
<linearGradient id="paint0_linear" x1="63.9991" y1="93.8229" x2="71.0742" y2="183.836" gradientUnits="userSpaceOnUse">
<stop stop-color="#FFA8A7"/>
<stop offset="1" stop-color="#FFD4C2"/>
</linearGradient>
<linearGradient id="paint1_linear" x1="270.523" y1="2.26953" x2="270.523" y2="190.266" gradientUnits="userSpaceOnUse">
<stop stop-color="#FFA8A7"/>
<stop offset="1" stop-color="#FFDAC6"/>
</linearGradient>
<linearGradient id="paint2_linear" x1="257.094" y1="133.711" x2="229.792" y2="189.941" gradientUnits="userSpaceOnUse">
<stop stop-color="#8177F7"/>
<stop offset="1" stop-color="#799FF8"/>
</linearGradient>
<linearGradient id="paint3_linear" x1="283.451" y1="107.638" x2="381.717" y2="147.824" gradientUnits="userSpaceOnUse">
<stop stop-color="#FFA8A7"/>
<stop offset="1" stop-color="#FFE5CC"/>
</linearGradient>
<linearGradient id="paint4_linear" x1="274.032" y1="134.639" x2="247.308" y2="212.729" gradientUnits="userSpaceOnUse">
<stop stop-color="#8177F7"/>
<stop offset="1" stop-color="#799FF8"/>
</linearGradient>
<linearGradient id="paint5_linear" x1="203.08" y1="144.998" x2="149.061" y2="217.713" gradientUnits="userSpaceOnUse">
<stop stop-color="#4F8EC9"/>
<stop offset="1" stop-color="#7ED5B7"/>
</linearGradient>
<linearGradient id="paint6_linear" x1="130.876" y1="59.0156" x2="130.876" y2="117.035" gradientUnits="userSpaceOnUse">
<stop stop-color="#FFA8A7"/>
<stop offset="1" stop-color="#FFD3C2"/>
</linearGradient>
<linearGradient id="paint7_linear" x1="120.198" y1="187.696" x2="195.546" y2="261.16" gradientUnits="userSpaceOnUse">
<stop stop-color="#FFA8A7"/>
<stop offset="1" stop-color="#FFD9C5"/>
</linearGradient>
<linearGradient id="paint8_linear" x1="5.48298" y1="107.247" x2="17.8464" y2="141.654" gradientUnits="userSpaceOnUse">
<stop stop-color="#FFA8A7"/>
<stop offset="1" stop-color="#FFBCB4"/>
</linearGradient>
</defs>
</svg>
