<svg width="47" height="47" viewBox="0 0 47 47" fill="none" xmlns="http://www.w3.org/2000/svg">
<path d="M46.2088 23.943C46.2077 18.0981 43.9783 12.4735 39.9746 8.21456C35.971 3.95566 30.4942 1.38286 24.6597 1.02014C18.8253 0.657415 13.0719 2.53204 8.57147 6.26224C4.07099 9.99244 1.16188 15.2977 0.436585 21.0974C-0.129775 25.6354 0.671566 30.239 2.73798 34.3188C5.06908 38.9296 8.8869 42.6199 13.5746 44.7934C18.2622 46.9669 23.5459 47.4967 28.5718 46.2971C33.5978 45.0975 38.0724 42.2386 41.2727 38.1824C44.473 34.1261 46.2121 29.1095 46.2088 23.943Z" fill="url(#paint0_linear)"/>
<defs>
<linearGradient id="paint0_linear" x1="13.2886" y1="40.4601" x2="35.0696" y2="0.975785" gradientUnits="userSpaceOnUse">
<stop stop-color="#8177F7"/>
<stop offset="1" stop-color="#799FF8"/>
</linearGradient>
</defs>
</svg>
