<svg width="300" height="300" viewBox="0 0 300 300" fill="none" xmlns="http://www.w3.org/2000/svg">
<path d="M299.184 149.925C299.177 111.868 284.66 75.2444 258.592 47.5138C232.523 19.7833 196.863 3.03121 158.873 0.669447C120.884 -1.69234 83.4228 10.5137 54.1192 34.8019C24.8157 59.09 5.87383 93.6334 1.15131 131.397C-2.53638 160.944 2.68132 190.92 16.1362 217.484C31.3144 247.506 56.1731 271.535 86.6954 285.687C117.218 299.839 151.621 303.288 184.346 295.477C217.071 287.666 246.206 269.051 267.044 242.64C287.882 216.23 299.205 183.565 299.184 149.925Z" fill="url(#paint0_linear)"/>
<path d="M286.355 210.635C214.053 247.738 189.261 232.178 112.011 204.648C67.8613 188.898 35.6354 202.734 16.1426 217.481C28.9275 242.726 48.6112 263.828 72.9088 278.337C97.2064 292.846 125.121 300.167 153.413 299.45C181.705 298.733 209.213 290.008 232.745 274.287C256.276 258.567 274.866 236.495 286.355 210.635Z" fill="url(#paint1_linear)"/>
<path d="M293.436 108.611C283.91 75.4905 263.239 46.6738 234.918 27.0307C206.597 7.3877 172.362 -1.87711 137.998 0.801843C103.634 3.4808 71.2493 17.9392 46.3155 41.7339C21.3816 65.5287 5.4279 97.2006 1.15039 131.397C14.3053 118.992 29.8719 109.425 46.8825 103.292C63.893 97.1586 81.9836 94.5899 100.029 95.7456C178.657 100.368 239.087 155.913 293.436 108.611Z" fill="url(#paint2_linear)"/>
<defs>
<linearGradient id="paint0_linear" x1="84.8336" y1="257.472" x2="226.654" y2="0.380663" gradientUnits="userSpaceOnUse">
<stop stop-color="#5FA8ED"/>
<stop offset="1" stop-color="#7ED5B7"/>
</linearGradient>
<linearGradient id="paint1_linear" x1="92.7613" y1="285.172" x2="115.502" y2="175.777" gradientUnits="userSpaceOnUse">
<stop stop-color="#5FA8ED"/>
<stop offset="1" stop-color="#7ED5B7"/>
</linearGradient>
<linearGradient id="paint2_linear" x1="84.028" y1="112.96" x2="118.262" y2="-25.452" gradientUnits="userSpaceOnUse">
<stop stop-color="#5FA8ED"/>
<stop offset="1" stop-color="#7ED5B7"/>
</linearGradient>
</defs>
</svg>
