<svg width="26" height="30" viewBox="0 0 26 30" fill="none" xmlns="http://www.w3.org/2000/svg">
<g filter="url(#filter0_b)">
<path fill-rule="evenodd" clip-rule="evenodd" d="M12.5649 21.25C11.3711 21.2637 10.6395 22.37 10.0741 23.26C8.85889 25.1787 7.54296 27.2112 6.41089 28.9212C6.018 29.515 5.59237 29.995 4.87585 30C4.15807 30.005 3.55111 29.1437 3.89741 28.4187C4.81793 26.495 8.81481 19.5725 8.81481 13.75C8.81481 11.7337 7.73437 11.25 6.2963 11.25H1.25926C0.564148 11.25 0 10.69 0 9.99999C0 9.30999 0.564148 8.74999 1.25926 8.74999H23.9259C24.6223 8.74999 25.1852 9.31124 25.1852 9.99999C25.1852 10.6887 24.6223 11.25 23.9259 11.25H18.8889C17.4521 11.25 16.3704 11.7337 16.3704 13.75C16.3704 19.5725 20.3685 26.495 21.289 28.4187C21.6353 29.1437 21.0284 30.005 20.3106 30C19.5941 29.995 19.1672 29.515 18.7756 28.9212C17.6435 27.2112 16.3276 25.1787 15.1111 23.26C14.5432 22.3637 13.804 21.2462 12.5926 21.25H12.5649ZM12.5926 0C14.6792 0 16.3704 1.68 16.3704 3.75C16.3704 5.82 14.6792 7.5 12.5926 7.5C10.5085 7.5 8.81481 5.82 8.81481 3.75C8.81481 1.68 10.5085 0 12.5926 0Z" fill="url(#paint0_radial)"/>
<path d="M12.5649 20.75V20.75L12.591 20.75C12.5913 20.75 12.5915 20.75 12.5917 20.75H12.5926V21.25C13.804 21.2462 14.5432 22.3637 15.1111 23.26L12.5649 20.75ZM12.5649 20.75L12.5591 20.75C11.7927 20.7588 11.1956 21.1228 10.7363 21.567C10.2848 22.0036 9.93158 22.5518 9.65204 22.9919L9.65166 22.9925C8.43817 24.9085 7.12408 26.9382 5.99397 28.6452L5.99391 28.6453C5.60836 29.228 5.31242 29.4969 4.87236 29.5C4.7175 29.5011 4.5321 29.4036 4.407 29.2109C4.28594 29.0244 4.26341 28.8126 4.34858 28.6342C4.46119 28.3989 4.62659 28.0765 4.8291 27.6818C5.42075 26.5286 6.32917 24.7579 7.16347 22.7372C8.28537 20.0198 9.31481 16.7605 9.31481 13.75C9.31481 12.6564 9.01957 11.8611 8.41395 11.359C7.82821 10.8734 7.053 10.75 6.2963 10.75H1.25926C0.836805 10.75 0.5 10.4104 0.5 9.99999C0.5 9.58961 0.836805 9.24999 1.25926 9.24999H23.9259C24.349 9.24999 24.6852 9.59021 24.6852 9.99999C24.6852 10.4098 24.349 10.75 23.9259 10.75H18.8889C18.1327 10.75 17.3576 10.8734 16.7718 11.3589C16.166 11.8609 15.8704 12.6562 15.8704 13.75C15.8704 16.7606 16.9001 20.0199 18.0224 22.7372C18.8566 24.7572 19.7649 26.5274 20.3567 27.6806C20.5596 28.0761 20.7253 28.399 20.838 28.6345C20.923 28.8128 20.9004 29.0245 20.7794 29.2109C20.6543 29.4036 20.4689 29.5011 20.3141 29.5C19.8738 29.4969 19.5765 29.2275 19.1929 28.6459L19.1925 28.6452C18.0624 26.9382 16.7483 24.9085 15.5335 22.9924L12.5649 20.75ZM12.5926 0.5C14.4064 0.5 15.8704 1.95951 15.8704 3.75C15.8704 5.54049 14.4064 7 12.5926 7C10.7811 7 9.31481 5.54027 9.31481 3.75C9.31481 1.95972 10.7811 0.5 12.5926 0.5Z" stroke="url(#paint1_linear)"/>
</g>
<defs>
<filter id="filter0_b" x="-40" y="-40" width="105.185" height="110" filterUnits="userSpaceOnUse" color-interpolation-filters="sRGB">
<feFlood flood-opacity="0" result="BackgroundImageFix"/>
<feGaussianBlur in="BackgroundImage" stdDeviation="20"/>
<feComposite in2="SourceAlpha" operator="in" result="effect1_backgroundBlur"/>
<feBlend mode="normal" in="SourceGraphic" in2="effect1_backgroundBlur" result="shape"/>
</filter>
<radialGradient id="paint0_radial" cx="0" cy="0" r="1" gradientUnits="userSpaceOnUse" gradientTransform="translate(6.40065 2.73305) rotate(63.7222) scale(29.7007 24.1256)">
<stop stop-color="white" stop-opacity="0.4"/>
<stop offset="1" stop-color="white" stop-opacity="0"/>
</radialGradient>
<linearGradient id="paint1_linear" x1="19.5498" y1="0" x2="19.5498" y2="30" gradientUnits="userSpaceOnUse">
<stop stop-color="white" stop-opacity="0.4"/>
<stop offset="1" stop-color="white" stop-opacity="0.1"/>
</linearGradient>
</defs>
</svg>
