<svg width="25" height="25" viewBox="0 0 25 25" fill="none" xmlns="http://www.w3.org/2000/svg">
<g filter="url(#filter0_b)">
<path d="M12.9698 18.0594L10.4167 20.8333H8.33333V22.9167H6.25V25H0V19.7917L7.15104 12.5531C8.27604 15.0781 10.375 17.0698 12.9698 18.0594ZM25 8.33333C25 12.9354 21.2687 16.6667 16.6667 16.6667C12.0646 16.6667 8.33333 12.9354 8.33333 8.33333C8.33333 3.73125 12.0646 0 16.6667 0C21.2687 0 25 3.73125 25 8.33333ZM21.875 5.20833C21.875 4.05833 20.9417 3.125 19.7917 3.125C18.6417 3.125 17.7083 4.05833 17.7083 5.20833C17.7083 6.35833 18.6417 7.29167 19.7917 7.29167C20.9417 7.29167 21.875 6.35833 21.875 5.20833Z" fill="url(#paint0_radial)"/>
<path d="M7.83333 20.8333V22.4167H6.25H5.75V22.9167V24.5H0.5V19.997L7.01041 13.4069C8.13125 15.5303 9.93075 17.2372 12.12 18.2444L10.1973 20.3333H8.33333H7.83333V20.8333ZM24.5 8.33333C24.5 12.6593 20.9926 16.1667 16.6667 16.1667C12.3407 16.1667 8.83333 12.6593 8.83333 8.33333C8.83333 4.00739 12.3407 0.5 16.6667 0.5C20.9926 0.5 24.5 4.00739 24.5 8.33333ZM22.375 5.20833C22.375 3.78219 21.2178 2.625 19.7917 2.625C18.3655 2.625 17.2083 3.78219 17.2083 5.20833C17.2083 6.63448 18.3655 7.79167 19.7917 7.79167C21.2178 7.79167 22.375 6.63448 22.375 5.20833Z" stroke="url(#paint1_linear)"/>
</g>
<defs>
<filter id="filter0_b" x="-40" y="-40" width="105" height="105" filterUnits="userSpaceOnUse" color-interpolation-filters="sRGB">
<feFlood flood-opacity="0" result="BackgroundImageFix"/>
<feGaussianBlur in="BackgroundImage" stdDeviation="20"/>
<feComposite in2="SourceAlpha" operator="in" result="effect1_backgroundBlur"/>
<feBlend mode="normal" in="SourceGraphic" in2="effect1_backgroundBlur" result="shape"/>
</filter>
<radialGradient id="paint0_radial" cx="0" cy="0" r="1" gradientUnits="userSpaceOnUse" gradientTransform="translate(6.35359 2.27754) rotate(59.5385) scale(25.7466 23.0218)">
<stop stop-color="white" stop-opacity="0.4"/>
<stop offset="1" stop-color="white" stop-opacity="0"/>
</radialGradient>
<linearGradient id="paint1_linear" x1="19.4061" y1="0" x2="19.4061" y2="25" gradientUnits="userSpaceOnUse">
<stop stop-color="white" stop-opacity="0.4"/>
<stop offset="1" stop-color="white" stop-opacity="0.1"/>
</linearGradient>
</defs>
</svg>
