<svg width="35" height="35" viewBox="0 0 35 35" fill="none" xmlns="http://www.w3.org/2000/svg">
<path d="M8.20312 24.5057V28.7793H5.12695C4.56019 28.7793 4.10156 29.2379 4.10156 29.8047C4.10156 30.3715 4.56019 30.8301 5.12695 30.8301H8.20312V33.9746C8.20312 34.5414 8.66175 35 9.22852 35C9.79528 35 10.2539 34.5414 10.2539 33.9746V30.8301H13.3301C13.8968 30.8301 14.3555 30.3715 14.3555 29.8047C14.3555 29.2379 13.8968 28.7793 13.3301 28.7793H10.2539V24.5098C10.9514 24.4204 11.6325 24.2788 12.2783 24.0507C11.6897 23.5608 11.1558 23.0094 10.6771 22.4113C10.209 22.5077 9.72467 22.5586 9.22852 22.5586C5.27112 22.5586 2.05078 19.3383 2.05078 15.3809C2.05078 11.4235 5.27112 8.20312 9.22852 8.20312C13.3183 8.20312 16.4062 11.6916 16.4062 15.3809C16.4062 16.5686 16.0884 17.6731 15.5753 18.6609C16.0236 19.194 16.5717 19.6315 17.1996 19.9471C17.9775 18.5948 18.457 17.0497 18.457 15.3809C18.457 10.6247 14.5455 6.15234 9.22852 6.15234C4.13964 6.15234 0 10.292 0 15.3809C0 20.1186 3.60151 23.9881 8.20312 24.5057Z" fill="url(#paint0_linear)"/>
<path d="M33.9746 0H27.8223C27.2555 0 26.7969 0.458623 26.7969 1.02539C26.7969 1.59216 27.2555 2.05078 27.8223 2.05078H31.4992L25.2107 8.20265C23.6318 6.93964 21.6571 6.15234 19.4824 6.15234C18.4084 6.15234 17.3922 6.37212 16.4326 6.71098C17.0212 7.20091 17.5552 7.7523 18.0338 8.35044C18.5019 8.25405 18.9863 8.20312 19.4824 8.20312C23.4398 8.20312 26.6602 11.4235 26.6602 15.3809C26.6602 19.3383 23.4398 22.5586 19.4824 22.5586C15.4203 22.5586 12.3047 19.1084 12.3047 15.3809C12.3047 14.1931 12.6225 13.0886 13.1356 12.1008C12.6874 11.5677 12.1393 11.1302 11.5114 10.8147C10.7334 12.1669 10.2539 13.712 10.2539 15.3809C10.2539 20.1834 14.2705 24.6094 19.4824 24.6094C24.5713 24.6094 28.7109 20.4697 28.7109 15.3809C28.7109 13.2061 27.9236 11.2315 26.6606 9.65262L32.9492 3.50075V7.17773C32.9492 7.7445 33.4078 8.20312 33.9746 8.20312C34.5414 8.20312 35 7.7445 35 7.17773V1.02539C35 0.464365 34.5401 0 33.9746 0V0Z" fill="url(#paint1_linear)"/>
<defs>
<linearGradient id="paint0_linear" x1="14.3271" y1="6.15234" x2="14.3271" y2="35" gradientUnits="userSpaceOnUse">
<stop stop-color="white" stop-opacity="0.4"/>
<stop offset="1" stop-color="white" stop-opacity="0.1"/>
</linearGradient>
<linearGradient id="paint1_linear" x1="29.4629" y1="0" x2="29.4629" y2="24.6094" gradientUnits="userSpaceOnUse">
<stop stop-color="white" stop-opacity="0.4"/>
<stop offset="1" stop-color="white" stop-opacity="0.1"/>
</linearGradient>
</defs>
</svg>
