<?xml version="1.0" encoding="UTF-8" standalone="no"?>
<svg
   xmlns:dc="http://purl.org/dc/elements/1.1/"
   xmlns:cc="http://creativecommons.org/ns#"
   xmlns:rdf="http://www.w3.org/1999/02/22-rdf-syntax-ns#"
   xmlns:svg="http://www.w3.org/2000/svg"
   xmlns="http://www.w3.org/2000/svg"
   xmlns:sodipodi="http://sodipodi.sourceforge.net/DTD/sodipodi-0.dtd"
   xmlns:inkscape="http://www.inkscape.org/namespaces/inkscape"
   version="1.1"
   id="svg2"
   xml:space="preserve"
   width="3254.6667"
   height="2443.1733"
   viewBox="0 0 3254.6667 2443.1733"
   sodipodi:docname="110.eps"><metadata
     id="metadata8"><rdf:RDF><cc:Work
         rdf:about=""><dc:format>image/svg+xml</dc:format><dc:type
           rdf:resource="http://purl.org/dc/dcmitype/StillImage" /></cc:Work></rdf:RDF></metadata><defs
     id="defs6" /><sodipodi:namedview
     pagecolor="#ffffff"
     bordercolor="#666666"
     borderopacity="1"
     objecttolerance="10"
     gridtolerance="10"
     guidetolerance="10"
     inkscape:pageopacity="0"
     inkscape:pageshadow="2"
     inkscape:window-width="640"
     inkscape:window-height="480"
     id="namedview4" /><g
     id="g10"
     inkscape:groupmode="layer"
     inkscape:label="ink_ext_XXXXXX"
     transform="matrix(1.3333333,0,0,-1.3333333,0,2443.1733)"><g
       id="g12"
       transform="scale(0.1)"><path
         d="M 0,3.80078 H 24410 V 18323.801 H 0 Z"
         style="fill:#ffffff;fill-opacity:1;fill-rule:nonzero;stroke:none"
         id="path14" /><path
         d="m 4355.14,10518 c -21.01,13.1 -40.4,29.9 -57.07,50.1 l -272.43,330.3 c -2.98,3.6 -5.8,7.3 -8.55,11 -353.91,484.5 -99.91,823.3 68.16,1047.4 164.28,219.1 225.25,317 83.79,542.9 -164.85,263.4 -385.38,401.2 -620.94,388.2 -208.75,-11.6 -397.78,-141.9 -493.24,-340.2 -169.43,-351.9 192.95,-615.1 234.87,-644 107.29,-73.9 135.28,-221 61.96,-328.8 -73.21,-107.8 -217.96,-137.9 -327.39,-63.8 -259.92,174.6 -677.25,659 -396.43,1242.2 170.32,353.8 512.92,586.7 894.01,607.8 409.78,22.7 792.02,-199.6 1048.87,-609.9 319.6,-510.6 63.32,-852.4 -106.32,-1078.7 -156.92,-209.3 -210.71,-281 -68.58,-478.2 l 267.85,-324.7 c 83.26,-100.9 68.92,-250.2 -32.03,-333.5 -80.73,-66.6 -192.43,-70.8 -276.53,-18.1"
         style="fill:#606575;fill-opacity:1;fill-rule:nonzero;stroke:none"
         id="path16" /><path
         d="m 5472.67,10239.8 c 0,-187 -161.63,-338.52 -361.11,-338.52 -199.41,0 -361.04,151.52 -361.04,338.52 0,186.9 161.63,338.5 361.04,338.5 199.48,0 361.11,-151.6 361.11,-338.5"
         style="fill:#606575;fill-opacity:1;fill-rule:nonzero;stroke:none"
         id="path18" /><path
         d="m 5695.24,12455.9 c -9.58,16.9 -16.64,35.8 -20.51,56 l -63.8,330 c -0.68,3.6 -1.26,7.1 -1.78,10.8 -62.07,466.9 240.26,605 440.28,696.5 195.5,89.3 274.26,133.9 261.62,342.8 -14.81,243.4 -115.06,421.3 -282.34,500.7 -148.29,70.4 -327.53,51.5 -467.78,-49.3 -248.93,-179 -97.95,-496.5 -79.89,-532.1 46.21,-91.3 10.31,-203.3 -80.7,-250 -90.98,-46.8 -202.06,-13.2 -249.71,78.9 -113.61,218 -219.48,708.6 193.09,1005.2 250.28,180 573.89,211.9 844.58,83.4 291,-138.2 471.06,-435 494.05,-814.3 28.63,-472 -276.39,-611.4 -478.27,-703.7 -186.76,-85.4 -250.78,-114.6 -226.81,-303.9 l 62.72,-324.4 c 19.52,-100.9 -46.45,-198.4 -147.29,-217.9 -80.7,-15.6 -159.26,23.4 -197.46,91.3"
         style="fill:#606575;fill-opacity:1;fill-rule:nonzero;stroke:none"
         id="path20" /><path
         d="m 6361.21,11844.5 c -70.2,-128.9 -238.51,-172.7 -376.04,-97.8 -137.48,74.9 -191.99,240.1 -121.81,369 70.2,128.8 238.54,172.6 375.99,97.8 137.53,-74.9 192.07,-240.1 121.86,-369"
         style="fill:#606575;fill-opacity:1;fill-rule:nonzero;stroke:none"
         id="path22" /><path
         d="m 7525.23,13122.3 c -1.59,13.1 -1.14,26.8 1.68,40.5 l 45.87,223.8 c 0.5,2.4 1.07,4.9 1.73,7.3 82.56,309.3 308.37,317.3 457.78,322.7 146.04,5.2 207.11,12.7 253.56,147.1 54.12,156.8 37.47,294.5 -46.89,388 -74.79,82.8 -192.25,117.6 -306.6,90.8 -202.92,-47.6 -190.78,-286.3 -188.74,-313.3 5.26,-69.4 -46.42,-130.3 -115.73,-136 -69.32,-5.7 -130.34,44.3 -136.25,114.6 -14.6,166.5 46.68,502.1 383,580.9 204,47.9 415.53,-16.3 552.02,-167.6 146.76,-162.5 182.56,-395.7 98.25,-639.9 -104.95,-303.9 -332.82,-312 -483.59,-317.4 -139.49,-4.9 -187.3,-6.6 -221.58,-131.7 l -45.06,-220.1 c -14,-68.4 -80.82,-112.5 -149.23,-98.5 -54.74,11.2 -93.91,56.2 -100.22,108.8"
         style="fill:#606575;fill-opacity:1;fill-rule:nonzero;stroke:none"
         id="path24" /><path
         d="m 7784.21,12565 c -77.64,-62.7 -194.71,-46.4 -261.59,36.5 -66.83,82.8 -58.04,200.7 19.57,263.4 77.66,62.6 194.73,46.3 261.59,-36.5 66.85,-82.9 58.07,-200.8 -19.57,-263.4"
         style="fill:#606575;fill-opacity:1;fill-rule:nonzero;stroke:none"
         id="path26" /><path
         d="m 5764.22,8685.58 c 0,0 289.66,-1170.98 27.79,-1416.48 -184.38,-172.8 -41.17,-521 158.59,-576.3 0,0 187.17,132.5 299.45,60.9 166.14,-106 371.88,-18.3 505.86,51.1 134,69.5 722.07,113.2 876.56,39 154.49,-74.2 602.56,29.7 803.84,184.6 l -169.3,1880.07 -2502.79,-222.89"
         style="fill:#663021;fill-opacity:1;fill-rule:nonzero;stroke:none"
         id="path28" /><path
         d="m 7920.09,7263.8 c 0,0 -36.63,-842 0,-982.5 36.69,-140.5 380.2,-358.9 732.15,-523.8 0,0 -452.85,-613.1 -1337.7,-594.8 -884.91,18.3 -1106.43,387.6 -1246.95,589.2 0,0 671.76,215.9 687.93,503 16.22,287.1 0,1008.9 0,1008.9 h 1164.57"
         style="fill:#ef7159;fill-opacity:1;fill-rule:nonzero;stroke:none"
         id="path30" /><path
         d="m 7345.94,6490 c -279.93,0 -474.56,165.3 -583.72,316 -1.68,254.8 -6.7,457.8 -6.7,457.8 h 1164.57 c 0,0 -9.68,-202.8 -14.07,-446.1 C 7812.29,6665.5 7633.1,6490 7345.94,6490"
         style="fill:#d35948;fill-opacity:1;fill-rule:nonzero;stroke:none"
         id="path32" /><path
         d="m 8103.44,8414.15 c 0,0 41.5,170.5 264.78,171.03 215.8,0.52 192.74,-556.18 12.38,-663.78 -180.32,-107.6 -267.24,160.2 -267.24,160.2 l -9.92,332.55"
         style="fill:#ef7159;fill-opacity:1;fill-rule:nonzero;stroke:none"
         id="path34" /><path
         d="m 6227.86,8245.2 c 0,0 -71.3,160.42 -291.05,121.04 -212.44,-38.08 -90.3,-581.64 106.39,-655.34 196.65,-73.7 234.25,205.3 234.25,205.3 l -49.59,329"
         style="fill:#ef7159;fill-opacity:1;fill-rule:nonzero;stroke:none"
         id="path36" /><path
         d="M 6030.96,8388.48 C 6231.42,7220.2 6732.8,6695.8 7308.13,6747.6 c 573.28,51.6 988.35,559.3 963.46,1842.66 C 8253.25,9537.9 7707.31,10075.9 7014.04,10013.4 6320.76,9951 5864.43,9358.97 6030.96,8388.48"
         style="fill:#ef7159;fill-opacity:1;fill-rule:nonzero;stroke:none"
         id="path38" /><path
         d="m 6287.34,7507.2 c -34.56,43.2 -61.25,93.8 -77.32,150.3 -7.34,25.8 -12.14,51.8 -14.54,77.7 0.03,0 0.07,0 0.11,0.1 28.59,-81.2 59.21,-157.1 91.75,-228.1"
         style="fill:#663021;fill-opacity:1;fill-rule:nonzero;stroke:none"
         id="path40" /><path
         d="m 6195.48,7735.2 c -0.02,0.1 -0.04,0.3 -0.05,0.5 0.04,-0.1 0.12,-0.3 0.16,-0.4 -0.04,-0.1 -0.08,-0.1 -0.11,-0.1"
         style="fill:#ef7159;fill-opacity:1;fill-rule:nonzero;stroke:none"
         id="path42" /><path
         d="m 6621.05,7346.7 c -130.28,0 -253.27,60.1 -333.71,160.5 -32.54,71 -63.16,146.9 -91.75,228.1 -0.04,0.1 -0.12,0.3 -0.16,0.4 -18.42,200.8 107.91,392.7 308.99,449.9 39.07,11.1 78.4,16.4 117.1,16.4 186.23,0 357.52,-122.8 410.95,-310.8 64.54,-227.1 -67.23,-463.5 -294.3,-528.1 -39.07,-11.1 -78.42,-16.4 -117.12,-16.4 m 0.43,817.7 c -35.3,0 -71.16,-4.8 -106.79,-15 -207.18,-58.8 -327.36,-274.5 -268.54,-481.7 48.76,-171.5 205.04,-283.4 374.91,-283.4 35.31,0 71.18,4.8 106.83,15 207.13,58.8 327.33,274.5 268.45,481.7 -48.73,171.4 -204.99,283.4 -374.86,283.4"
         style="fill:#ef7159;fill-opacity:1;fill-rule:nonzero;stroke:none"
         id="path44" /><path
         d="m 6621.06,7384.3 c -169.87,0 -326.15,111.9 -374.91,283.4 -58.82,207.2 61.36,422.9 268.54,481.7 35.63,10.2 71.49,15 106.79,15 169.87,0 326.13,-112 374.86,-283.4 58.88,-207.2 -61.32,-422.9 -268.45,-481.7 -35.65,-10.2 -71.52,-15 -106.83,-15 m 0.39,742.5 c -31.89,0 -64.3,-4.3 -96.5,-13.5 -187.21,-53.2 -295.82,-248.1 -242.66,-435.3 44.05,-155 185.29,-256.1 338.79,-256.1 31.92,0 64.33,4.3 96.55,13.5 187.16,53.2 295.79,248.1 242.58,435.3 -44.03,155 -185.24,256.1 -338.76,256.1"
         style="fill:#ee7159;fill-opacity:1;fill-rule:nonzero;stroke:none"
         id="path46" /><path
         d="m 6621.08,7421.9 c -153.5,0 -294.74,101.1 -338.79,256.1 -53.16,187.2 55.45,382.1 242.66,435.3 32.2,9.2 64.61,13.5 96.5,13.5 153.52,0 294.73,-101.1 338.76,-256.1 53.21,-187.2 -55.42,-382.1 -242.58,-435.3 -32.22,-9.2 -64.63,-13.5 -96.55,-13.5 m 0.36,667.4 c -28.5,0 -57.46,-3.9 -86.22,-12.1 -167.27,-47.6 -264.3,-221.7 -216.8,-388.9 39.35,-138.5 165.53,-228.9 302.69,-228.9 28.5,0 57.47,3.9 86.24,12.1 167.22,47.6 264.26,221.7 216.73,388.9 -39.34,138.5 -165.49,228.9 -302.64,228.9"
         style="fill:#ee6f58;fill-opacity:1;fill-rule:nonzero;stroke:none"
         id="path48" /><path
         d="m 6621.11,7459.4 c -137.16,0 -263.34,90.4 -302.69,228.9 -47.5,167.2 49.53,341.3 216.8,388.9 28.76,8.2 57.72,12.1 86.22,12.1 137.15,0 263.3,-90.4 302.64,-228.9 47.53,-167.2 -49.51,-341.3 -216.73,-388.9 -28.77,-8.2 -57.74,-12.1 -86.24,-12.1 m 0.3,592.3 c -25.09,0 -50.6,-3.4 -75.92,-10.6 -147.32,-41.9 -232.78,-195.3 -190.94,-342.6 34.64,-121.9 145.79,-201.5 266.57,-201.5 25.11,0 50.62,3.4 75.96,10.7 147.27,41.8 232.73,195.2 190.87,342.5 -34.63,121.9 -145.75,201.5 -266.54,201.5"
         style="fill:#ed6d57;fill-opacity:1;fill-rule:nonzero;stroke:none"
         id="path50" /><path
         d="m 6621.12,7497 c -120.78,0 -231.93,79.6 -266.57,201.5 -41.84,147.3 43.62,300.7 190.94,342.6 25.32,7.2 50.83,10.6 75.92,10.6 120.79,0 231.91,-79.6 266.54,-201.5 41.86,-147.3 -43.6,-300.7 -190.87,-342.5 -25.34,-7.3 -50.85,-10.7 -75.96,-10.7 m 0.26,517.1 c -21.7,0 -43.73,-2.9 -65.63,-9.2 -127.36,-36.2 -201.24,-168.7 -165.06,-296.1 29.93,-105.4 126.03,-174.2 230.45,-174.2 21.71,0 43.76,3 65.67,9.2 127.31,36.2 201.21,168.8 165.01,296.1 -29.93,105.4 -126.01,174.2 -230.44,174.2"
         style="fill:#eb6a54;fill-opacity:1;fill-rule:nonzero;stroke:none"
         id="path52" /><path
         d="m 6621.14,7534.6 c -104.42,0 -200.52,68.8 -230.45,174.2 -36.18,127.4 37.7,259.9 165.06,296.1 21.9,6.3 43.93,9.2 65.63,9.2 104.43,0 200.51,-68.8 230.44,-174.2 36.2,-127.3 -37.7,-259.9 -165.01,-296.1 -21.91,-6.2 -43.96,-9.2 -65.67,-9.2 m 0.2,442 c -18.29,0 -36.86,-2.5 -55.32,-7.8 -107.4,-30.5 -169.72,-142.3 -139.2,-249.7 25.22,-88.9 106.28,-146.9 194.34,-146.9 18.3,0 36.9,2.5 55.38,7.7 107.35,30.5 169.68,142.3 139.15,249.7 -25.23,88.9 -106.27,147 -194.35,147"
         style="fill:#ea6652;fill-opacity:1;fill-rule:nonzero;stroke:none"
         id="path54" /><path
         d="m 6621.16,7572.2 c -88.06,0 -169.12,58 -194.34,146.9 -30.52,107.4 31.8,219.2 139.2,249.7 18.46,5.3 37.03,7.8 55.32,7.8 88.08,0 169.12,-58.1 194.35,-147 30.53,-107.4 -31.8,-219.2 -139.15,-249.7 -18.48,-5.2 -37.08,-7.7 -55.38,-7.7 m 0.15,366.8 c -14.88,0 -30,-2 -45.03,-6.3 -87.44,-24.9 -138.19,-115.9 -113.33,-203.4 20.52,-72.3 86.53,-119.6 158.23,-119.6 14.9,0 30.05,2.1 45.09,6.4 87.4,24.8 138.15,115.8 113.29,203.2 -20.53,72.4 -86.53,119.7 -158.25,119.7"
         style="fill:#e9614e;fill-opacity:1;fill-rule:nonzero;stroke:none"
         id="path56" /><path
         d="m 6621.18,7609.7 c -71.7,0 -137.71,47.3 -158.23,119.6 -24.86,87.5 25.89,178.5 113.33,203.4 15.03,4.3 30.15,6.3 45.03,6.3 71.72,0 137.72,-47.3 158.25,-119.7 24.86,-87.4 -25.89,-178.4 -113.29,-203.2 -15.04,-4.3 -30.19,-6.4 -45.09,-6.4 m 0.1,291.7 c -11.48,0 -23.15,-1.5 -34.73,-4.8 -67.49,-19.2 -106.66,-89.5 -87.46,-157 15.81,-55.9 66.77,-92.3 122.1,-92.3 11.51,0 23.19,1.6 34.8,4.9 67.45,19.2 106.62,89.4 87.44,156.9 -15.83,55.9 -66.79,92.3 -122.15,92.3"
         style="fill:#e85b4a;fill-opacity:1;fill-rule:nonzero;stroke:none"
         id="path58" /><path
         d="m 6621.19,7647.3 c -55.33,0 -106.29,36.4 -122.1,92.3 -19.2,67.5 19.97,137.8 87.46,157 11.58,3.3 23.25,4.8 34.73,4.8 55.36,0 106.32,-36.4 122.15,-92.3 19.18,-67.5 -19.99,-137.7 -87.44,-156.9 -11.61,-3.3 -23.29,-4.9 -34.8,-4.9 m 0.08,216.5 c -8.08,0 -16.29,-1.1 -24.45,-3.4 -47.55,-13.5 -75.14,-63 -61.59,-110.5 11.09,-39.4 47.01,-65 85.98,-65 8.1,0 16.34,1.1 24.51,3.4 47.5,13.5 75.1,63 61.59,110.5 -11.15,39.4 -47.05,65 -86.04,65"
         style="fill:#e65444;fill-opacity:1;fill-rule:nonzero;stroke:none"
         id="path60" /><path
         d="m 6621.21,7684.9 c -38.97,0 -74.89,25.6 -85.98,65 -13.55,47.5 14.04,97 61.59,110.5 8.16,2.3 16.37,3.4 24.45,3.4 38.99,0 74.89,-25.6 86.04,-65 13.51,-47.5 -14.09,-97 -61.59,-110.5 -8.17,-2.3 -16.41,-3.4 -24.51,-3.4 m 0.02,141.4 c -4.68,0 -9.43,-0.7 -14.15,-2 -27.58,-7.9 -43.54,-36.5 -35.72,-64.2 6.44,-22.8 27.28,-37.6 49.88,-37.6 4.7,0 9.47,0.6 14.21,1.9 27.54,7.9 43.57,36.6 35.72,64.1 -6.43,22.9 -27.3,37.8 -49.94,37.8"
         style="fill:#e34b3e;fill-opacity:1;fill-rule:nonzero;stroke:none"
         id="path62" /><path
         d="m 6621.24,7722.5 c -22.6,0 -43.44,14.8 -49.88,37.6 -7.82,27.7 8.14,56.3 35.72,64.2 4.72,1.3 9.47,2 14.15,2 22.64,0 43.51,-14.9 49.94,-37.8 7.85,-27.5 -8.18,-56.2 -35.72,-64.1 -4.74,-1.3 -9.51,-1.9 -14.21,-1.9 m -0.03,66.2 c -1.28,0 -2.57,-0.2 -3.86,-0.5 -7.63,-2.2 -12.08,-10.1 -9.86,-17.8 1.69,-6.3 7.52,-10.4 13.76,-10.4 1.31,0 2.63,0.2 3.93,0.6 7.59,2.2 12.03,10.1 9.87,17.7 -1.75,6.3 -7.57,10.4 -13.84,10.4"
         style="fill:#e14237;fill-opacity:1;fill-rule:nonzero;stroke:none"
         id="path64" /><path
         d="m 6621.25,7760 c -6.24,0 -12.07,4.1 -13.76,10.4 -2.22,7.7 2.23,15.6 9.86,17.8 1.29,0.3 2.58,0.5 3.86,0.5 6.27,0 12.09,-4.1 13.84,-10.4 2.16,-7.6 -2.28,-15.5 -9.87,-17.7 -1.3,-0.4 -2.62,-0.6 -3.93,-0.6"
         style="fill:#df392f;fill-opacity:1;fill-rule:nonzero;stroke:none"
         id="path66" /><path
         d="m 7783.98,7451.4 c -186.23,0.1 -357.53,122.7 -411.06,310.8 -64.47,227.1 67.3,463.5 294.4,528.1 39.07,11.1 78.39,16.4 117.09,16.4 186.23,0 357.53,-122.7 410.96,-310.7 64.55,-227.2 -67.17,-463.6 -294.25,-528.1 -39.09,-11.2 -78.42,-16.5 -117.14,-16.5 m 0.41,817.7 c -35.3,0 -71.16,-4.8 -106.8,-15 -207.15,-58.8 -327.34,-274.5 -268.54,-481.7 48.82,-171.5 205.08,-283.4 374.95,-283.4 35.32,0 71.19,4.9 106.85,15 207.12,58.8 327.27,274.5 268.39,481.7 -48.73,171.5 -204.98,283.4 -374.85,283.4"
         style="fill:#ef7159;fill-opacity:1;fill-rule:nonzero;stroke:none"
         id="path68" /><path
         d="m 7784,7489 c -169.87,0 -326.13,111.9 -374.95,283.4 -58.8,207.2 61.39,422.9 268.54,481.7 35.64,10.2 71.5,15 106.8,15 169.87,0 326.12,-111.9 374.85,-283.4 58.88,-207.2 -61.27,-422.9 -268.39,-481.7 -35.66,-10.1 -71.53,-15 -106.85,-15 m 0.35,742.5 c -31.89,0 -64.3,-4.3 -96.5,-13.5 -187.19,-53.2 -295.81,-248.1 -242.67,-435.3 44.12,-155 185.34,-256.1 338.84,-256.1 31.92,0 64.34,4.4 96.56,13.5 187.16,53.2 295.75,248.1 242.53,435.3 -44.03,155 -185.24,256.1 -338.76,256.1"
         style="fill:#ee7159;fill-opacity:1;fill-rule:nonzero;stroke:none"
         id="path70" /><path
         d="m 7784.02,7526.6 c -153.5,0 -294.72,101.1 -338.84,256.1 -53.14,187.2 55.48,382.1 242.67,435.3 32.2,9.2 64.61,13.5 96.5,13.5 153.52,0 294.73,-101.1 338.76,-256.1 53.22,-187.2 -55.37,-382.1 -242.53,-435.3 -32.22,-9.1 -64.64,-13.5 -96.56,-13.5 m 0.31,667.4 c -28.49,0 -57.44,-3.9 -86.2,-12.1 -167.26,-47.5 -264.29,-221.7 -216.81,-388.9 39.41,-138.5 165.56,-228.8 302.71,-228.8 28.51,0 57.48,3.9 86.27,12 167.21,47.6 264.23,221.7 216.69,388.9 -39.34,138.5 -165.51,228.9 -302.66,228.9"
         style="fill:#ee6f58;fill-opacity:1;fill-rule:nonzero;stroke:none"
         id="path72" /><path
         d="m 7784.03,7564.2 c -137.15,0 -263.3,90.3 -302.71,228.8 -47.48,167.2 49.55,341.4 216.81,388.9 28.76,8.2 57.71,12.1 86.2,12.1 137.15,0 263.32,-90.4 302.66,-228.9 47.54,-167.2 -49.48,-341.3 -216.69,-388.9 -28.79,-8.1 -57.76,-12 -86.27,-12 m 0.27,592.2 c -25.09,0 -50.58,-3.4 -75.91,-10.6 -147.3,-41.9 -232.76,-195.2 -190.93,-342.6 34.7,-121.9 145.8,-201.5 266.59,-201.5 25.11,0 50.63,3.5 75.98,10.7 147.25,41.8 232.71,195.2 190.84,342.5 -34.65,121.9 -145.78,201.5 -266.57,201.5"
         style="fill:#ed6d57;fill-opacity:1;fill-rule:nonzero;stroke:none"
         id="path74" /><path
         d="m 7784.05,7601.7 c -120.79,0 -231.89,79.6 -266.59,201.5 -41.83,147.4 43.63,300.7 190.93,342.6 25.33,7.2 50.82,10.6 75.91,10.6 120.79,0 231.92,-79.6 266.57,-201.5 41.87,-147.3 -43.59,-300.7 -190.84,-342.5 -25.35,-7.2 -50.87,-10.7 -75.98,-10.7 m 0.21,517.1 c -21.68,0 -43.71,-2.9 -65.6,-9.1 -127.35,-36.3 -201.24,-168.8 -165.07,-296.2 29.99,-105.4 126.05,-174.2 230.47,-174.2 21.71,0 43.77,3 65.69,9.2 127.3,36.2 201.19,168.8 165,296.1 -29.96,105.4 -126.05,174.2 -230.49,174.2"
         style="fill:#eb6a54;fill-opacity:1;fill-rule:nonzero;stroke:none"
         id="path76" /><path
         d="m 7784.06,7639.3 c -104.42,0 -200.48,68.8 -230.47,174.2 -36.17,127.4 37.72,259.9 165.07,296.2 21.89,6.2 43.92,9.1 65.6,9.1 104.44,0 200.53,-68.8 230.49,-174.2 36.19,-127.3 -37.7,-259.9 -165,-296.1 -21.92,-6.2 -43.98,-9.2 -65.69,-9.2 m 0.19,442 c -18.29,0 -36.87,-2.5 -55.32,-7.8 -107.4,-30.5 -169.71,-142.3 -139.21,-249.7 25.29,-88.9 106.31,-146.9 194.36,-146.9 18.31,0 36.92,2.5 55.4,7.7 107.34,30.6 169.67,142.4 139.14,249.7 -25.26,88.9 -106.3,147 -194.37,147"
         style="fill:#ea6652;fill-opacity:1;fill-rule:nonzero;stroke:none"
         id="path78" /><path
         d="m 7784.08,7676.9 c -88.05,0 -169.07,58 -194.36,146.9 -30.5,107.4 31.81,219.2 139.21,249.7 18.45,5.3 37.03,7.8 55.32,7.8 88.07,0 169.11,-58.1 194.37,-147 30.53,-107.3 -31.8,-219.1 -139.14,-249.7 -18.48,-5.2 -37.09,-7.7 -55.4,-7.7 m 0.13,366.8 c -14.88,0 -30,-2 -45.02,-6.3 -87.45,-24.9 -138.18,-115.9 -113.34,-203.3 20.59,-72.4 86.56,-119.6 158.25,-119.6 14.91,0 30.06,2 45.1,6.3 87.39,24.8 138.16,115.9 113.3,203.3 -20.57,72.4 -86.57,119.6 -158.29,119.6"
         style="fill:#e9614e;fill-opacity:1;fill-rule:nonzero;stroke:none"
         id="path80" /><path
         d="m 7784.1,7714.5 c -71.69,0 -137.66,47.2 -158.25,119.6 -24.84,87.4 25.89,178.4 113.34,203.3 15.02,4.3 30.14,6.3 45.02,6.3 71.72,0 137.72,-47.2 158.29,-119.6 24.86,-87.4 -25.91,-178.5 -113.3,-203.3 -15.04,-4.3 -30.19,-6.3 -45.1,-6.3 m 0.09,291.6 c -11.48,0 -23.15,-1.5 -34.73,-4.8 -67.5,-19.2 -106.65,-89.5 -87.47,-157 15.88,-55.8 66.8,-92.3 122.13,-92.3 11.51,0 23.2,1.6 34.81,4.9 67.43,19.2 106.63,89.4 87.44,156.9 -15.87,55.9 -66.83,92.3 -122.18,92.3"
         style="fill:#e85b4a;fill-opacity:1;fill-rule:nonzero;stroke:none"
         id="path82" /><path
         d="m 7784.12,7752 c -55.33,0 -106.25,36.5 -122.13,92.3 -19.18,67.5 19.97,137.8 87.47,157 11.58,3.3 23.25,4.8 34.73,4.8 55.35,0 106.31,-36.4 122.18,-92.3 19.19,-67.5 -20.01,-137.7 -87.44,-156.9 -11.61,-3.3 -23.3,-4.9 -34.81,-4.9 m 0.04,216.6 c -8.08,0 -16.29,-1.1 -24.44,-3.4 -47.54,-13.6 -75.12,-63.1 -61.59,-110.6 11.16,-39.3 47.03,-65 85.99,-65 8.11,0 16.35,1.1 24.53,3.4 47.48,13.5 75.11,63 61.6,110.5 -11.17,39.4 -47.09,65.1 -86.09,65.1"
         style="fill:#e65444;fill-opacity:1;fill-rule:nonzero;stroke:none"
         id="path84" /><path
         d="m 7784.12,7789.6 c -38.96,0 -74.83,25.7 -85.99,65 -13.53,47.5 14.05,97 61.59,110.6 8.15,2.3 16.36,3.4 24.44,3.4 39,0 74.92,-25.7 86.09,-65.1 13.51,-47.5 -14.12,-97 -61.6,-110.5 -8.18,-2.3 -16.42,-3.4 -24.53,-3.4 m 0.01,141.4 c -4.68,0 -9.43,-0.6 -14.14,-2 -27.59,-7.8 -43.59,-36.5 -35.73,-64.1 6.45,-22.8 27.28,-37.7 49.88,-37.7 4.71,0 9.49,0.6 14.24,2 27.52,7.8 43.59,36.5 35.74,64.1 -6.48,22.8 -27.35,37.7 -49.99,37.7"
         style="fill:#e34b3e;fill-opacity:1;fill-rule:nonzero;stroke:none"
         id="path86" /><path
         d="m 7784.14,7827.2 c -22.6,0 -43.43,14.9 -49.88,37.7 -7.86,27.6 8.14,56.3 35.73,64.1 4.71,1.4 9.46,2 14.14,2 22.64,0 43.51,-14.9 49.99,-37.7 7.85,-27.6 -8.22,-56.3 -35.74,-64.1 -4.75,-1.4 -9.53,-2 -14.24,-2 m -0.05,66.2 c -1.27,0 -2.56,-0.1 -3.83,-0.5 -7.64,-2.2 -12.07,-10.1 -9.87,-17.8 1.75,-6.3 7.53,-10.4 13.77,-10.4 1.31,0 2.63,0.2 3.94,0.6 7.57,2.2 12.07,10.1 9.9,17.7 -1.78,6.3 -7.62,10.4 -13.91,10.4"
         style="fill:#e14237;fill-opacity:1;fill-rule:nonzero;stroke:none"
         id="path88" /><path
         d="m 7784.16,7864.7 c -6.24,0 -12.02,4.1 -13.77,10.4 -2.2,7.7 2.23,15.6 9.87,17.8 1.27,0.4 2.56,0.5 3.83,0.5 6.29,0 12.13,-4.1 13.91,-10.4 2.17,-7.6 -2.33,-15.5 -9.9,-17.7 -1.31,-0.4 -2.63,-0.6 -3.94,-0.6"
         style="fill:#df392f;fill-opacity:1;fill-rule:nonzero;stroke:none"
         id="path90" /><path
         d="m 7717.2,8271.1 c 4,-44.6 38.64,-77.9 77.27,-74.4 38.67,3.5 66.75,42.4 62.72,87 -4.01,44.54 -38.6,77.85 -77.27,74.35 -38.63,-3.46 -66.76,-42.45 -62.72,-86.95"
         style="fill:#23242b;fill-opacity:1;fill-rule:nonzero;stroke:none"
         id="path92" /><path
         d="m 6519.52,8163.2 c 4,-44.5 38.54,-77.8 77.22,-74.4 38.67,3.5 66.75,42.5 62.72,87.1 -4.01,44.5 -38.57,77.8 -77.25,74.3 -38.67,-3.5 -66.7,-42.4 -62.69,-87"
         style="fill:#23242b;fill-opacity:1;fill-rule:nonzero;stroke:none"
         id="path94" /><path
         d="m 8007.8,8561.39 c 9.92,1.1 19.55,5.73 26.69,13.79 15.44,17.32 13.87,43.81 -3.43,59.24 -73.13,65.07 -250.49,199.55 -465.55,20.98 -17.85,-14.8 -24.78,-38.77 -12.01,-58.08 12.74,-19.37 38.75,-24.76 58.11,-12.02 198.06,130.32 362.02,-12.11 363.67,-13.57 9.21,-8.22 21.12,-11.62 32.52,-10.34"
         style="fill:#663021;fill-opacity:1;fill-rule:nonzero;stroke:none"
         id="path96" /><path
         d="m 6287.68,8407.22 c -9.97,-0.69 -20.22,2.17 -28.71,8.84 -18.21,14.31 -21.4,40.69 -7.09,58.9 60.5,77 211.27,240.69 454.55,102.94 20.17,-11.4 31.16,-33.76 22.06,-55.06 -9.09,-21.3 -33.79,-31.19 -55.03,-22.05 -218.05,93.22 -354.25,-75.92 -355.58,-77.63 -7.69,-9.77 -18.76,-15.19 -30.2,-15.94"
         style="fill:#663021;fill-opacity:1;fill-rule:nonzero;stroke:none"
         id="path98" /><path
         d="m 7246.51,7622 c 58.61,7.2 103.83,27.3 121.83,72.7 56.05,141.4 -93.08,348 -107.6,373.7 -10.05,17.8 -23.55,27.6 -41.34,17.6 -17.87,-10.1 -8.66,-34 1.39,-51.8 47.49,-84.4 86.79,-244.8 55.89,-310.1 -5.18,-10.9 -14.71,-24.1 -43.1,-29.1 -20.12,-3.6 -32.76,-22.7 -30.04,-42.9 4.82,-35.3 41.92,-30.2 42.97,-30.1"
         style="fill:#d35948;fill-opacity:1;fill-rule:nonzero;stroke:none"
         id="path100" /><path
         d="m 9094.56,7304.3 c 0,0 -96.69,-404.6 -391.87,-261.7 -62.26,30.2 -133.82,-45.6 -237.07,-79.9 -118.59,-39.4 -405.41,50.1 -376.02,1138.5 21.35,793.22 -544.19,835.11 -609.14,1122.34 0,0 -0.39,-180.77 209.23,-381.72 0,0 -206.27,-57.83 -325.35,-9.74 -122.05,49.25 -226.95,241.6 -285.72,405.69 0,0 44.25,-267.16 226.27,-430.6 0,0 -200.12,-91.29 -309.87,103.99 0,0 34.72,-109.22 51.99,-136.98 0,0 -431.17,-113.91 -588.8,681.29 0,0 -165.35,-821.6 -362.62,-1044.96 0,0 10.57,-373.51 -111.84,-38.72 0,0 -60.02,19.28 -123.79,-57.99 0,0 -251.78,609.03 -175.71,1089.98 50.61,319.81 290.42,522.49 684.65,530.68 0,0 149.75,612.94 932.98,513.94 291.78,-37 571.09,-101.4 843.79,-313.2 212.14,-164.73 555.92,-320.24 589.54,-1011.13 60.86,-1249.47 -44.56,-1240.67 359.35,-1819.77"
         style="fill:#7f4833;fill-opacity:1;fill-rule:nonzero;stroke:none"
         id="path102" /><path
         d="m 7483.42,7303 c -1.83,-0.2 -3.61,-0.3 -5.44,-0.2 -157.92,7.1 -296.05,-20.4 -341.42,-29.4 -10.55,-2.1 -17.33,-3.2 -19.87,-3.5 -22.11,-2 -41.65,14.4 -43.64,36.5 -1.96,21.8 13.89,41.1 35.59,43.5 2.3,0.4 6.41,1.2 12.24,2.4 47.76,9.5 193.24,38.4 360.68,30.8 22.17,-1 39.36,-19.7 38.36,-41.9 -0.91,-20.3 -16.79,-36.5 -36.5,-38.2"
         style="fill:#bf4545;fill-opacity:1;fill-rule:nonzero;stroke:none"
         id="path104" /><path
         d="m 9230.64,0 c 23.22,2285.5 651.9,4918.3 651.9,4918.3 -516.92,487.3 -1296.82,948 -1296.82,948 -1592.66,-1277.7 -2377.14,45.4 -2377.14,45.4 -830.22,-386 -1278.53,-993.4 -1278.53,-993.4 -19.01,-228 279.8,-3677.4 388.56,-4918.3 h 3912.03"
         style="fill:#db5252;fill-opacity:1;fill-rule:nonzero;stroke:none"
         id="path106" /><path
         d="m 5567.86,1862 c 0,0 -696.82,-375 -883.36,-604.5 -77.01,-94.6 -115.71,-560.5 -58.87,-597.398 56.85,-37 350.47,-234.5 400.87,-189.801 50.37,44.699 258.81,236.801 251.83,318.699 -6.96,81.801 -41.04,161.699 -41.04,161.699 0,0 287.94,79.101 458.24,306.001 0,0 278.49,369.6 -127.67,605.3"
         style="fill:#ef7159;fill-opacity:1;fill-rule:nonzero;stroke:none"
         id="path108" /><path
         d="m 5208.62,954.402 c 0,0 -201.56,-9 -245.31,0 0,0 19.78,-85.601 -65.6,-202.699 0,0 86.03,2.199 122.48,-69.801 0,0 1.86,85.598 96.29,101.399 0,0 -45.63,133.801 92.14,171.101"
         style="fill:#d35948;fill-opacity:1;fill-rule:nonzero;stroke:none"
         id="path110" /><path
         d="m 4545.53,2427.8 c 0,0 710.53,-503.2 1025.39,430.2 l 92.61,845.5 c 0,0 -557.85,525.4 -942.69,162.8 -384.8,-362.5 -461.34,-1103.8 -175.31,-1438.5"
         style="fill:#b23838;fill-opacity:1;fill-rule:nonzero;stroke:none"
         id="path112" /><path
         d="m 10163.6,4100.2 c 0,0 -182.43,-3164.2 -903.35,-3321.2 -720.95,-157 -3663.5,559.1 -3663.5,559.1 l -38.47,523.9 c 0,0 2227.21,-21.7 3225.91,-50.5 l 403.94,2415.1 c 0,0 362.67,61.1 975.47,-126.4"
         style="fill:#ef7159;fill-opacity:1;fill-rule:nonzero;stroke:none"
         id="path114" /><path
         d="m 9882.54,4918.3 c 0,0 501.16,-701.3 549.26,-2527.6 0,0 -961.28,-326.9 -1778.3,-17.3 0,0 -41.09,2361.8 1229.04,2544.9"
         style="fill:#db5252;fill-opacity:1;fill-rule:nonzero;stroke:none"
         id="path116" /><path
         d="m 8797.26,2454.9 c -0.95,-0.1 -1.94,-0.1 -2.94,-0.1 -15.91,0.1 -28.73,13 -28.68,29 0.08,10.7 9.06,1083 227.89,1809.1 4.6,15.2 20.64,23.9 35.93,19.3 15.23,-4.6 23.89,-20.7 19.26,-35.9 -216.35,-718.1 -225.3,-1782.2 -225.38,-1792.9 -0.08,-14.9 -11.48,-27.1 -26.08,-28.5"
         style="fill:#ba2f2f;fill-opacity:1;fill-rule:nonzero;stroke:none"
         id="path118" /><path
         d="M 6885.17,5508.3 5718.48,3613.9 5597.59,4706.4 4594.56,4066.9 c 0,0 282.24,-2378 1235.23,-2175.5 719.38,152.8 1552.45,3510.2 1552.45,3510.2 0,0 -223.55,72.2 -497.07,106.7"
         style="fill:#ef7159;fill-opacity:1;fill-rule:nonzero;stroke:none"
         id="path120" /><path
         d="m 5281.12,5291.4 c 0,0 -546.31,-332.8 -791.98,-992.6 -131.25,-352.6 -206.62,-1001.7 -184.32,-1485.5 0,0 46,-242.1 240.71,-385.5 0,0 -182.88,322.8 -74.92,666.8 162.52,517.9 786.15,887.2 1264.61,599.2 0,0 405.69,1402 -454.1,1597.6"
         style="fill:#db5252;fill-opacity:1;fill-rule:nonzero;stroke:none"
         id="path122" /><path
         d="m 6885.17,5508.3 c 0,0 47.54,719.2 116.31,1094.7 0,0 127.44,382.7 295.84,412.9 33.26,5.9 85.31,-12.9 123.91,-62.5 70.72,-90.9 113.06,-161.4 158.7,-238 0,0 146.76,6 130.26,-202.3 0,0 95.84,-27.8 42.31,-261.7 0,0 85.32,-87.3 6.95,-269.8 0,0 -81.03,-86 -186.8,-56.2 0,0 -2.64,-91.8 -13.22,-128.9 -10.59,-37 -15.33,-333.6 -220.55,-417.7 0,0 -260.68,-185.1 -453.71,129.5"
         style="fill:#ef7159;fill-opacity:1;fill-rule:nonzero;stroke:none"
         id="path124" /><path
         d="m 7591.83,6705.5 c 0,8.7 -7.06,15.9 -15.88,15.9 -87.82,0 -174.56,-8.2 -245.78,-17.6 9.46,16.1 21.42,38.1 24.2,50.5 1.88,8.6 -3.54,17 -12.12,18.9 -8.61,2 -16.98,-3.5 -18.89,-12.1 -2.17,-9.9 -19.55,-40.3 -31.19,-58.7 -0.81,-1.3 -1.15,-2.8 -1.57,-4.2 -75.49,-11.3 -125.68,-22.6 -126.67,-22.8 -8.56,-2 -13.9,-10.5 -11.96,-19 1.7,-7.4 8.22,-12.4 15.46,-12.4 1.13,0 2.31,0.2 3.56,0.4 1.96,0.5 201.09,45.2 404.96,45.2 8.82,0 15.88,7.1 15.88,15.9"
         style="fill:#d35948;fill-opacity:1;fill-rule:nonzero;stroke:none"
         id="path126" /><path
         d="m 7659.03,6495.5 c 8.45,-1.3 16.69,4.7 17.92,13.4 1.26,8.7 -4.81,16.7 -13.47,18 -98.91,14.1 -371.18,-51.1 -382.75,-53.9 -8.53,-2 -13.76,-10.6 -11.72,-19.1 1.78,-7.3 8.25,-12.2 15.44,-12.2 1.2,0 2.48,0.2 3.69,0.5 2.8,0.7 277.66,66.6 370.89,53.3"
         style="fill:#d35948;fill-opacity:1;fill-rule:nonzero;stroke:none"
         id="path128" /><path
         d="m 7726.95,6277.1 c -131.43,1.8 -290.26,-30.6 -296.99,-32 -8.58,-1.8 -14.1,-10.2 -12.27,-18.8 1.52,-7.5 8.11,-12.6 15.46,-12.6 1.1,0 164.96,31.8 292.21,31.8 0.13,0 19.68,3.9 19.68,16.3 0,8.7 -9.37,15.2 -18.09,15.3"
         style="fill:#d35948;fill-opacity:1;fill-rule:nonzero;stroke:none"
         id="path130" /><path
         d="m 7709.56,6072.6 c -59.87,10.4 -168.36,-15 -172.97,-16 -4.47,-1.1 -8.26,-4.1 -10.36,-8.1 -2.14,-4.1 -2.41,-9 -0.68,-13.2 7.46,-18.8 23.05,-77 23.19,-77.6 1.88,-7.1 8.29,-11.8 15.33,-11.8 1.31,0 2.75,0.2 4.1,0.6 8.43,2.2 13.48,10.9 11.23,19.4 -0.49,1.9 -10.18,38.1 -18.26,63.5 32.29,6.6 102.49,19 143.05,12 8.37,-1.5 16.83,4.3 18.32,12.9 1.49,8.7 -4.29,16.9 -12.95,18.3"
         style="fill:#d35948;fill-opacity:1;fill-rule:nonzero;stroke:none"
         id="path132" /><path
         d="m 7371.01,5343.8 c -5.26,0 -10.28,3.1 -12.4,8.3 -2.8,6.9 0.47,14.7 7.32,17.5 161.72,66.3 172.16,290.1 176.63,385.6 1.07,23.2 1.73,37.1 4,45 9.97,35 12.67,124.7 12.69,125.6 l 0.5,17.2 16.54,-4.7 c 88.75,-25 160.45,39.9 171.86,51 71.78,169.4 -2.09,249.4 -5.28,252.8 l -5,5.2 1.57,7 c 49.43,216.1 -32.37,245.7 -33.21,246 l -9.99,3.3 0.6,10.6 c 5.54,70.2 -7.25,122.1 -38.08,154.1 -33.75,35.1 -77.84,33.7 -78.29,33.7 l -7.97,-0.3 -4.09,6.9 c -42.2,70.8 -85.83,144.1 -157.76,236.6 -34.67,44.5 -81.95,62.6 -110.97,57.5 -158.65,-28.4 -284.23,-400.1 -285.48,-403.9 -67.4,-368.8 -135.46,-1117.4 -136.14,-1124.9 -0.69,-7.4 -7.25,-12.7 -14.55,-12.1 -7.38,0.6 -12.8,7.1 -12.14,14.5 0.68,7.5 68.84,757.4 136.93,1129.2 5.78,17.7 132.42,392.4 306.67,423.6 35.61,6.4 93.68,-12 136.83,-67.5 70.8,-91 114.4,-163.4 155.87,-233 17.16,-1.1 57.54,-7.6 90.41,-41.7 34.93,-36.3 50.42,-92 46.1,-165.6 25.46,-14.8 85.83,-71.5 42.86,-266.3 18.19,-23.1 75.39,-114.1 4.71,-278.7 l -2.54,-3.8 c -3.37,-3.6 -79.81,-83.2 -183.79,-63.8 -1.31,-28.6 -4.87,-87 -13.11,-115.8 -1.41,-4.9 -2.17,-21.5 -2.98,-38.9 -4.71,-100.7 -15.7,-336.4 -193.25,-409.2 -1.64,-0.7 -3.37,-1 -5.07,-1"
         style="fill:#d35948;fill-opacity:1;fill-rule:nonzero;stroke:none"
         id="path134" /><path
         d="m 5424.88,2786.7 c -0.28,0 -0.57,0 -0.86,26.7 -7.4,0 -13,0.2 -12.53,7.6 22.26,352.1 276.26,764.4 278.83,768.6 3.9,6.3 12.14,6.6 18.45,2.7 6.28,-3.9 8.24,-13 4.37,-19.3 -2.54,-4.1 -253.06,-421.3 -274.91,-766.7 -0.45,-7.1 -6.33,-19.6 -13.35,-19.6"
         style="fill:#db5252;fill-opacity:1;fill-rule:nonzero;stroke:none"
         id="path136" /><path
         d="m 5715.1,3871.8 c -12.43,0 -23.58,8.7 -26.22,21.4 -1.46,7.1 -150.28,715.9 -338,1010.7 -7.95,12.5 -4.26,29 8.22,37 12.43,7.9 29.05,4.3 37,-8.2 192.98,-303.1 339.12,-999.1 345.27,-1028.6 3.01,-14.5 -6.31,-28.7 -20.8,-31.7 -1.83,-0.4 -3.67,-0.6 -5.47,-0.6"
         style="fill:#ba2f2f;fill-opacity:1;fill-rule:nonzero;stroke:none"
         id="path138" /><path
         d="m 14245.4,3426.9 c 0,0 63.2,-1241.5 601.5,-1354.8 456.3,-96 493.1,79 493.1,79 l 324.9,805.2 -709.7,964.7 -709.8,-494.1"
         style="fill:#ba2f2f;fill-opacity:1;fill-rule:nonzero;stroke:none"
         id="path140" /><path
         d="m 14649.5,2240.1 c 0,0 425.9,135.7 1069,930.6 l -501.5,812.8 c 0,0 -1466.9,-869.7 -567.5,-1743.4"
         style="fill:#d35948;fill-opacity:1;fill-rule:nonzero;stroke:none"
         id="path142" /><path
         d="m 16878.9,8886.85 c 0,0 104.7,-1201.35 -191.8,-1403.85 -208.6,-142.4 -121.5,-508.4 67.4,-593.7 0,0 204.8,102.2 304.8,14.2 147.9,-130.2 364.4,-75.2 507.5,-27 143.1,48.1 734.5,0.7 875.7,-96.3 141.3,-97 603.6,-63.3 826.2,58.9 l 121.2,1883.74 -2511,164.01"
         style="fill:#663021;fill-opacity:1;fill-rule:nonzero;stroke:none"
         id="path144" /><path
         d="m 18791.4,7203.8 c 0,0 -36.7,-838.8 0,-979.3 36.7,-140.5 380.2,-357.3 732.1,-522.3 0,0 -452.8,-612.2 -1337.7,-593.9 -884.9,18.3 -1106.4,388.1 -1246.9,589.6 0,0 671.7,212.9 687.9,500 16.2,287.1 0,1005.9 0,1005.9 h 1164.6"
         style="fill:#ef7159;fill-opacity:1;fill-rule:nonzero;stroke:none"
         id="path146" /><path
         d="m 18217.2,6436.4 c -279.9,0 -474.5,162.1 -583.7,312.8 -1.7,254.8 -6.7,454.6 -6.7,454.6 h 1164.6 c 0,0 -9.7,-199.5 -14.1,-442.8 -93.8,-152.3 -272.9,-324.6 -560.1,-324.6"
         style="fill:#d35948;fill-opacity:1;fill-rule:nonzero;stroke:none"
         id="path148" /><path
         d="m 19145.1,8259.9 c 0,0 67.1,162.15 287.9,128.42 213.3,-32.63 105.1,-579.12 -89.7,-657.82 -194.6,-78.7 -239.4,199.2 -239.4,199.2 l 41.2,330.2"
         style="fill:#ef7159;fill-opacity:1;fill-rule:nonzero;stroke:none"
         id="path150" /><path
         d="m 17265.8,8380.84 c 0,0 -45.8,169.41 -269,164.22 -215.8,-5 -178.5,-560.86 4.5,-663.86 183,-103 263,166.9 263,166.9 l 1.5,332.74"
         style="fill:#ef7159;fill-opacity:1;fill-rule:nonzero;stroke:none"
         id="path152" /><path
         d="m 17093.2,8552.6 c 18.8,-1185.2 433.8,-1780.4 1010.2,-1817.5 574.5,-36.9 1062.5,401.1 1234.9,1673.05 127.3,939.26 -329.7,1501.02 -1024.3,1545.72 -694.7,44.68 -1236.4,-416.72 -1220.8,-1401.27"
         style="fill:#ef7159;fill-opacity:1;fill-rule:nonzero;stroke:none"
         id="path154" /><path
         d="m 17211.3,7642.4 c -27.5,48 -46.1,102.1 -53.3,160.4 -3.3,26.6 -4.1,53.1 -2.5,79 0.1,0 0.1,0 0.2,0 15.8,-84.5 34.4,-164.2 55.6,-239.4"
         style="fill:#663021;fill-opacity:1;fill-rule:nonzero;stroke:none"
         id="path156" /><path
         d="m 17155.5,7881.8 c 0,0.1 0,0.4 0.1,0.5 0,-0.1 0,-0.3 0.1,-0.5 -0.1,0 -0.1,0 -0.2,0"
         style="fill:#ef7159;fill-opacity:1;fill-rule:nonzero;stroke:none"
         id="path158" /><path
         d="m 17581.7,7427.6 c -155.4,0 -295.7,84.7 -370.4,214.8 -21.2,75.2 -39.8,154.9 -55.6,239.4 -0.1,0.2 -0.1,0.4 -0.1,0.5 12.6,201.3 166.9,371.5 374.3,397.1 17.8,2.2 35.5,3.3 53,3.3 212.7,0 396.9,-158.6 423.7,-375.1 28.9,-234.4 -137.6,-447.8 -371.9,-476.7 -17.8,-2.2 -35.5,-3.3 -53,-3.3 m 1.1,817.5 c -15.9,0 -32,-1 -48.3,-3 -213.7,-26.3 -365.6,-221 -339.2,-434.7 24.4,-197.6 192.5,-342.2 386.5,-342.2 15.9,0 32.1,0.9 48.3,3 213.7,26.3 365.6,221 339.2,434.8 -24.4,197.4 -192.5,342.1 -386.5,342.1"
         style="fill:#ef7159;fill-opacity:1;fill-rule:nonzero;stroke:none"
         id="path160" /><path
         d="m 17581.8,7465.2 c -194,0 -362.1,144.6 -386.5,342.2 -26.4,213.7 125.5,408.4 339.2,434.7 16.3,2 32.4,3 48.3,3 194,0 362.1,-144.7 386.5,-342.1 26.4,-213.8 -125.5,-408.5 -339.2,-434.8 -16.2,-2.1 -32.4,-3 -48.3,-3 m 1,742.4 c -14.4,0 -29,-0.9 -43.7,-2.7 -193.1,-23.9 -330.4,-199.8 -306.6,-392.9 22.1,-178.5 174,-309.2 349.3,-309.3 14.4,0 29,0.9 43.7,2.7 193.1,23.9 330.3,199.8 306.5,392.9 -22,178.5 -173.9,309.3 -349.2,309.3"
         style="fill:#ee7159;fill-opacity:1;fill-rule:nonzero;stroke:none"
         id="path162" /><path
         d="m 17581.8,7502.7 c -175.3,0.1 -327.2,130.8 -349.3,309.3 -23.8,193.1 113.5,369 306.6,392.9 14.7,1.8 29.3,2.7 43.7,2.7 175.3,0 327.2,-130.8 349.2,-309.3 23.8,-193.1 -113.4,-369 -306.5,-392.9 -14.7,-1.8 -29.3,-2.7 -43.7,-2.7 m 0.9,667.3 c -12.9,0 -25.9,-0.8 -39,-2.4 -172.5,-21.3 -295.2,-178.5 -273.9,-351 19.7,-159.5 155.4,-276.3 312.1,-276.3 12.9,0 25.9,0.8 39,2.4 172.5,21.3 295.1,178.5 273.8,351 -19.6,159.5 -155.4,276.3 -312,276.3"
         style="fill:#ee6f58;fill-opacity:1;fill-rule:nonzero;stroke:none"
         id="path164" /><path
         d="m 17581.9,7540.3 c -156.7,0 -292.4,116.8 -312.1,276.3 -21.3,172.5 101.4,329.7 273.9,351 13.1,1.6 26.1,2.4 39,2.4 156.6,0 292.4,-116.8 312,-276.3 21.3,-172.5 -101.3,-329.7 -273.8,-351 -13.1,-1.6 -26.1,-2.4 -39,-2.4 m 0.7,592.1 c -11.3,0 -22.7,-0.6 -34.3,-2.1 -152,-18.7 -260,-157.2 -241.2,-309.1 17.3,-140.5 136.9,-243.3 274.8,-243.3 11.4,0 22.8,0.7 34.4,2.1 151.9,18.7 259.9,157.2 241.2,309.1 -17.4,140.5 -136.9,243.3 -274.9,243.3"
         style="fill:#ed6d57;fill-opacity:1;fill-rule:nonzero;stroke:none"
         id="path166" /><path
         d="m 17581.9,7577.9 c -137.9,0 -257.5,102.8 -274.8,243.3 -18.8,151.9 89.2,290.4 241.2,309.1 11.6,1.5 23,2.1 34.3,2.1 138,0 257.5,-102.8 274.9,-243.3 18.7,-151.9 -89.3,-290.4 -241.2,-309.1 -11.6,-1.4 -23,-2.1 -34.4,-2.1 m 0.7,517 c -9.8,0 -19.7,-0.6 -29.7,-1.8 -131.4,-16.3 -224.7,-135.9 -208.5,-267.3 15,-121.4 118.3,-210.4 237.6,-210.4 9.8,0 19.7,0.6 29.7,1.9 131.3,16.2 224.7,135.9 208.5,267.2 -15,121.4 -118.4,210.4 -237.6,210.4"
         style="fill:#eb6a54;fill-opacity:1;fill-rule:nonzero;stroke:none"
         id="path168" /><path
         d="m 17582,7615.4 c -119.3,0 -222.6,89 -237.6,210.4 -16.2,131.4 77.1,251 208.5,267.3 10,1.2 19.9,1.8 29.7,1.8 119.2,0 222.6,-89 237.6,-210.4 16.2,-131.3 -77.2,-251 -208.5,-267.2 -10,-1.3 -19.9,-1.9 -29.7,-1.9 m 0.5,441.9 c -8.2,0 -16.6,-0.5 -25,-1.5 -110.8,-13.7 -189.5,-114.6 -175.8,-225.4 12.6,-102.4 99.7,-177.4 200.3,-177.4 8.3,0 16.6,0.5 25.1,1.6 110.8,13.6 189.5,114.5 175.8,225.3 -12.6,102.4 -99.8,177.4 -200.4,177.4"
         style="fill:#ea6652;fill-opacity:1;fill-rule:nonzero;stroke:none"
         id="path170" /><path
         d="m 17582,7653 c -100.6,0 -187.7,75 -200.3,177.4 -13.7,110.8 65,211.7 175.8,225.4 8.4,1 16.8,1.5 25,1.5 100.6,0 187.8,-75 200.4,-177.4 13.7,-110.8 -65,-211.7 -175.8,-225.3 -8.5,-1.1 -16.8,-1.6 -25.1,-1.6 m 0.5,366.8 c -6.7,0 -13.5,-0.5 -20.4,-1.3 -90.2,-11.1 -154.3,-93.3 -143.2,-183.5 10.3,-83.4 81.3,-144.4 163.1,-144.4 6.8,0 13.6,0.4 20.5,1.2 90.2,11.2 154.3,93.3 143.1,183.5 -10.2,83.4 -81.3,144.5 -163.1,144.5"
         style="fill:#e9614e;fill-opacity:1;fill-rule:nonzero;stroke:none"
         id="path172" /><path
         d="m 17582,7690.6 c -81.8,0 -152.8,61 -163.1,144.4 -11.1,90.2 53,172.4 143.2,183.5 6.9,0.8 13.7,1.3 20.4,1.3 81.8,0 152.9,-61.1 163.1,-144.5 11.2,-90.2 -52.9,-172.3 -143.1,-183.5 -6.9,-0.8 -13.7,-1.2 -20.5,-1.2 m 0.4,291.6 c -5.2,0 -10.4,-0.3 -15.7,-1 -69.6,-8.6 -119.1,-72 -110.5,-141.6 7.9,-64.3 62.7,-111.5 125.9,-111.5 5.2,0 10.5,0.3 15.8,1 69.6,8.6 119,72 110.5,141.6 -8,64.4 -62.8,111.5 -126,111.5"
         style="fill:#e85b4a;fill-opacity:1;fill-rule:nonzero;stroke:none"
         id="path174" /><path
         d="m 17582.1,7728.1 c -63.2,0 -118,47.2 -125.9,111.5 -8.6,69.6 40.9,133 110.5,141.6 5.3,0.7 10.5,1 15.7,1 63.2,0 118,-47.1 126,-111.5 8.5,-69.6 -40.9,-133 -110.5,-141.6 -5.3,-0.7 -10.6,-1 -15.8,-1 m 0.2,216.5 c -3.6,0 -7.3,-0.2 -11,-0.6 -49,-6.1 -83.9,-50.8 -77.8,-99.8 5.5,-45.3 44.1,-78.5 88.7,-78.5 3.6,0 7.3,0.2 11.1,0.7 49,6 83.8,50.7 77.8,99.7 -5.6,45.4 -44.3,78.5 -88.8,78.5"
         style="fill:#e65444;fill-opacity:1;fill-rule:nonzero;stroke:none"
         id="path176" /><path
         d="m 17582.2,7765.7 c -44.6,0 -83.2,33.2 -88.7,78.5 -6.1,49 28.8,93.7 77.8,99.8 3.7,0.4 7.4,0.6 11,0.6 44.5,0 83.2,-33.1 88.8,-78.5 6,-49 -28.8,-93.7 -77.8,-99.7 -3.8,-0.5 -7.5,-0.7 -11.1,-0.7 m 0.1,141.4 c -2.1,0 -4.2,-0.2 -6.4,-0.4 -28.4,-3.5 -48.6,-29.4 -45.1,-57.9 3.2,-26.3 25.6,-45.5 51.4,-45.5 2.1,0 4.3,0.1 6.5,0.4 28.4,3.5 48.6,29.4 45.1,57.8 -3.2,26.3 -25.7,45.6 -51.5,45.6"
         style="fill:#e34b3e;fill-opacity:1;fill-rule:nonzero;stroke:none"
         id="path178" /><path
         d="m 17582.2,7803.3 c -25.8,0 -48.2,19.2 -51.4,45.5 -3.5,28.5 16.7,54.4 45.1,57.9 2.2,0.2 4.3,0.4 6.4,0.4 25.8,0 48.3,-19.3 51.5,-45.6 3.5,-28.4 -16.7,-54.3 -45.1,-57.8 -2.2,-0.3 -4.4,-0.4 -6.5,-0.4 m 0,66.2 c -0.5,0 -1.1,0 -1.7,-0.1 -7.8,-1 -13.5,-8.1 -12.4,-16 0.8,-7.2 7,-12.6 14.1,-12.6 0.6,0 1.3,0.1 1.9,0.1 7.8,1 13.4,8.2 12.4,16 -0.8,7.3 -7.1,12.6 -14.3,12.6"
         style="fill:#e14237;fill-opacity:1;fill-rule:nonzero;stroke:none"
         id="path180" /><path
         d="m 17582.2,7840.8 c -7.1,0 -13.3,5.4 -14.1,12.6 -1.1,7.9 4.6,15 12.4,16 0.6,0.1 1.2,0.1 1.7,0.1 7.2,0 13.5,-5.3 14.3,-12.6 1,-7.8 -4.6,-15 -12.4,-16 -0.6,0 -1.3,-0.1 -1.9,-0.1"
         style="fill:#df392f;fill-opacity:1;fill-rule:nonzero;stroke:none"
         id="path182" /><path
         d="m 18747,7352.6 c -212.7,0 -397,158.7 -423.8,375.2 -28.9,234.3 137.6,447.7 371.9,476.6 17.9,2.2 35.5,3.3 53,3.3 212.7,0 396.9,-158.6 423.7,-375.1 28.9,-234.3 -137.5,-447.8 -371.9,-476.7 -17.8,-2.2 -35.4,-3.3 -52.9,-3.3 m 1.1,817.6 c -16,0 -32.1,-1 -48.4,-3 -213.7,-26.4 -365.6,-221.1 -339.2,-434.8 24.4,-197.5 192.5,-342.2 386.5,-342.2 16,0 32.1,1 48.3,3 213.8,26.4 365.6,221.1 339.2,434.8 -24.4,197.4 -192.5,342.2 -386.4,342.2"
         style="fill:#ef7159;fill-opacity:1;fill-rule:nonzero;stroke:none"
         id="path184" /><path
         d="m 18747,7390.2 c -194,0 -362.1,144.7 -386.5,342.2 -26.4,213.7 125.5,408.4 339.2,434.8 16.3,2 32.4,3 48.4,3 193.9,0 362,-144.8 386.4,-342.2 26.4,-213.7 -125.4,-408.4 -339.2,-434.8 -16.2,-2 -32.3,-3 -48.3,-3 m 1,742.4 c -14.4,0 -29,-0.9 -43.7,-2.7 -193.1,-23.8 -330.4,-199.8 -306.6,-392.9 22.1,-178.5 174,-309.2 349.4,-309.2 14.4,0 28.9,0.9 43.6,2.7 193.2,23.8 330.4,199.7 306.5,392.9 -22,178.4 -173.9,309.2 -349.2,309.2"
         style="fill:#ee7159;fill-opacity:1;fill-rule:nonzero;stroke:none"
         id="path186" /><path
         d="m 18747.1,7427.8 c -175.4,0 -327.3,130.7 -349.4,309.2 -23.8,193.1 113.5,369.1 306.6,392.9 14.7,1.8 29.3,2.7 43.7,2.7 175.3,0 327.2,-130.8 349.2,-309.2 23.9,-193.2 -113.3,-369.1 -306.5,-392.9 -14.7,-1.8 -29.2,-2.7 -43.6,-2.7 m 0.8,667.2 c -12.9,0 -25.9,-0.8 -39,-2.4 -172.5,-21.3 -295.1,-178.4 -273.9,-351 19.7,-159.5 155.5,-276.3 312.1,-276.3 12.9,0 25.9,0.8 39,2.4 172.6,21.3 295.2,178.5 273.8,351.1 -19.6,159.4 -155.4,276.2 -312,276.2"
         style="fill:#ee6f58;fill-opacity:1;fill-rule:nonzero;stroke:none"
         id="path188" /><path
         d="m 18747.1,7465.3 c -156.6,0 -292.4,116.8 -312.1,276.3 -21.2,172.6 101.4,329.7 273.9,351 13.1,1.6 26.1,2.4 39,2.4 156.6,0 292.4,-116.8 312,-276.2 21.4,-172.6 -101.2,-329.8 -273.8,-351.1 -13.1,-1.6 -26.1,-2.4 -39,-2.4 m 0.7,592.2 c -11.3,0 -22.7,-0.7 -34.3,-2.1 -151.9,-18.8 -259.9,-157.2 -241.2,-309.2 17.4,-140.4 136.9,-243.3 274.9,-243.3 11.3,0 22.8,0.7 34.3,2.1 152,18.8 259.9,157.2 241.2,309.2 -17.4,140.4 -136.9,243.3 -274.9,243.3"
         style="fill:#ed6d57;fill-opacity:1;fill-rule:nonzero;stroke:none"
         id="path190" /><path
         d="m 18747.2,7502.9 c -138,0 -257.5,102.9 -274.9,243.3 -18.7,152 89.3,290.4 241.2,309.2 11.6,1.4 23,2.1 34.3,2.1 138,0 257.5,-102.9 274.9,-243.3 18.7,-152 -89.2,-290.4 -241.2,-309.2 -11.5,-1.4 -23,-2.1 -34.3,-2.1 m 0.6,517 c -9.8,0 -19.7,-0.6 -29.7,-1.8 -131.4,-16.2 -224.7,-135.9 -208.5,-267.3 15,-121.4 118.4,-210.3 237.6,-210.3 9.8,0 19.7,0.6 29.7,1.8 131.4,16.2 224.7,135.9 208.5,267.3 -15,121.4 -118.3,210.3 -237.6,210.3"
         style="fill:#eb6a54;fill-opacity:1;fill-rule:nonzero;stroke:none"
         id="path192" /><path
         d="m 18747.2,7540.5 c -119.2,0 -222.6,88.9 -237.6,210.3 -16.2,131.4 77.1,251.1 208.5,267.3 10,1.2 19.9,1.8 29.7,1.8 119.3,0 222.6,-88.9 237.6,-210.3 16.2,-131.4 -77.1,-251.1 -208.5,-267.3 -10,-1.2 -19.9,-1.8 -29.7,-1.8 m 0.5,441.9 c -8.2,0 -16.6,-0.5 -25,-1.6 -110.8,-13.7 -189.5,-114.6 -175.8,-225.4 12.6,-102.4 99.8,-177.4 200.3,-177.4 8.3,0 16.7,0.5 25.1,1.6 110.8,13.7 189.5,114.6 175.8,225.4 -12.6,102.3 -99.8,177.4 -200.4,177.4"
         style="fill:#ea6652;fill-opacity:1;fill-rule:nonzero;stroke:none"
         id="path194" /><path
         d="m 18747.2,7578 c -100.5,0 -187.7,75 -200.3,177.4 -13.7,110.8 65,211.7 175.8,225.4 8.4,1.1 16.8,1.6 25,1.6 100.6,0 187.8,-75.1 200.4,-177.4 13.7,-110.8 -65,-211.7 -175.8,-225.4 -8.4,-1.1 -16.8,-1.6 -25.1,-1.6 m 0.5,366.8 c -6.7,0 -13.5,-0.4 -20.4,-1.3 -90.2,-11.1 -154.3,-93.3 -143.2,-183.5 10.3,-83.3 81.3,-144.4 163.2,-144.4 6.7,0 13.5,0.4 20.4,1.3 90.2,11.1 154.3,93.3 143.2,183.5 -10.3,83.3 -81.3,144.4 -163.2,144.4"
         style="fill:#e9614e;fill-opacity:1;fill-rule:nonzero;stroke:none"
         id="path196" /><path
         d="m 18747.3,7615.6 c -81.9,0 -152.9,61.1 -163.2,144.4 -11.1,90.2 53,172.4 143.2,183.5 6.9,0.9 13.7,1.3 20.4,1.3 81.9,0 152.9,-61.1 163.2,-144.4 11.1,-90.2 -53,-172.4 -143.2,-183.5 -6.9,-0.9 -13.7,-1.3 -20.4,-1.3 m 0.3,291.6 c -5.2,0 -10.4,-0.3 -15.7,-0.9 -69.6,-8.6 -119.1,-72.1 -110.5,-141.7 7.9,-64.3 62.8,-111.4 125.9,-111.4 5.2,0 10.5,0.3 15.8,0.9 69.6,8.6 119.1,72.1 110.5,141.7 -7.9,64.3 -62.8,111.4 -126,111.4"
         style="fill:#e85b4a;fill-opacity:1;fill-rule:nonzero;stroke:none"
         id="path198" /><path
         d="m 18747.3,7653.2 c -63.1,0 -118,47.1 -125.9,111.4 -8.6,69.6 40.9,133.1 110.5,141.7 5.3,0.6 10.5,0.9 15.7,0.9 63.2,0 118.1,-47.1 126,-111.4 8.6,-69.6 -40.9,-133.1 -110.5,-141.7 -5.3,-0.6 -10.6,-0.9 -15.8,-0.9 m 0.2,216.5 c -3.6,0 -7.3,-0.2 -11,-0.7 -49,-6.1 -83.9,-50.7 -77.8,-99.8 5.6,-45.3 44.2,-78.5 88.7,-78.5 3.7,0 7.3,0.2 11.1,0.7 49,6.1 83.9,50.7 77.8,99.7 -5.6,45.4 -44.2,78.6 -88.8,78.6"
         style="fill:#e65444;fill-opacity:1;fill-rule:nonzero;stroke:none"
         id="path200" /><path
         d="m 18747.4,7690.7 c -44.5,0 -83.1,33.2 -88.7,78.5 -6.1,49.1 28.8,93.7 77.8,99.8 3.7,0.5 7.4,0.7 11,0.7 44.6,0 83.2,-33.2 88.8,-78.6 6.1,-49 -28.8,-93.6 -77.8,-99.7 -3.8,-0.5 -7.4,-0.7 -11.1,-0.7 m 0.1,141.4 c -2.1,0 -4.2,-0.1 -6.4,-0.4 -28.4,-3.5 -48.7,-29.4 -45.1,-57.9 3.2,-26.3 25.6,-45.5 51.4,-45.5 2.2,0 4.3,0.1 6.5,0.4 28.4,3.5 48.7,29.4 45.2,57.8 -3.3,26.4 -25.8,45.6 -51.6,45.6"
         style="fill:#e34b3e;fill-opacity:1;fill-rule:nonzero;stroke:none"
         id="path202" /><path
         d="m 18747.4,7728.3 c -25.8,0 -48.2,19.2 -51.4,45.5 -3.6,28.5 16.7,54.4 45.1,57.9 2.2,0.3 4.3,0.4 6.4,0.4 25.8,0 48.3,-19.2 51.6,-45.6 3.5,-28.4 -16.8,-54.3 -45.2,-57.8 -2.2,-0.3 -4.3,-0.4 -6.5,-0.4 m 0,66.3 c -0.5,0 -1.1,-0.1 -1.7,-0.1 -7.8,-1 -13.4,-8.2 -12.4,-16.1 0.8,-7.2 7.1,-12.5 14.2,-12.5 0.6,0 1.2,0 1.7,0.1 7.9,0.9 13.5,8.1 12.6,15.9 -0.9,7.4 -7.2,12.7 -14.4,12.7"
         style="fill:#e14237;fill-opacity:1;fill-rule:nonzero;stroke:none"
         id="path204" /><path
         d="m 18747.5,7765.9 c -7.1,0 -13.4,5.3 -14.2,12.5 -1,7.9 4.6,15.1 12.4,16.1 0.6,0 1.2,0.1 1.7,0.1 7.2,0 13.5,-5.3 14.4,-12.7 0.9,-7.8 -4.7,-15 -12.6,-15.9 -0.5,-0.1 -1.1,-0.1 -1.7,-0.1"
         style="fill:#df392f;fill-opacity:1;fill-rule:nonzero;stroke:none"
         id="path206" /><path
         d="m 18741.4,8177.8 c -2.8,-44.6 26.3,-82.8 65,-85.3 38.7,-2.5 72.4,31.7 75.3,76.3 2.9,44.6 -26.1,82.9 -64.9,85.4 -38.7,2.5 -72.5,-31.7 -75.4,-76.4"
         style="fill:#23242b;fill-opacity:1;fill-rule:nonzero;stroke:none"
         id="path208" /><path
         d="m 17541.4,8255 c -2.9,-44.6 26.2,-82.8 64.9,-85.3 38.7,-2.5 72.5,31.7 75.3,76.3 2.9,44.7 -26.2,82.87 -64.9,85.36 -38.7,2.51 -72.4,-31.66 -75.3,-76.36"
         style="fill:#23242b;fill-opacity:1;fill-rule:nonzero;stroke:none"
         id="path210" /><path
         d="m 19055.6,8392.48 c 9.8,-1.93 20.4,-0.39 29.6,5.16 19.9,11.9 26.4,37.65 14.5,57.54 -50.2,84.02 -179.1,265.49 -437.9,159.65 -21.4,-8.77 -35.2,-29.55 -28.8,-51.84 6.3,-22.28 29.5,-35.2 51.8,-28.87 228.1,64.92 341.7,-120.12 342.9,-122.01 6.3,-10.6 16.6,-17.43 27.9,-19.63"
         style="fill:#663021;fill-opacity:1;fill-rule:nonzero;stroke:none"
         id="path212" /><path
         d="m 17369.9,8489.17 c -9.9,-1.34 -20.3,0.86 -29.2,6.98 -19.1,13.12 -24,39.23 -10.8,58.33 55.4,80.73 195.3,253.74 447,131.91 20.8,-10.08 33.2,-31.69 25.5,-53.54 -7.7,-21.82 -31.7,-33.29 -53.5,-25.53 -223.6,79.04 -348.6,-98.5 -349.9,-100.31 -7,-10.25 -17.7,-16.35 -29.1,-17.84"
         style="fill:#663021;fill-opacity:1;fill-rule:nonzero;stroke:none"
         id="path214" /><path
         d="m 18176.8,7608.7 c 59,-1.8 106.7,11.1 131.5,53.1 77.1,131.2 -38.6,358.1 -49,385.7 -7.2,19.2 -19,31 -38.2,23.8 -19.1,-7.2 -13.7,-32.2 -6.5,-51.4 34,-90.6 48.2,-255.2 7.6,-315 -6.8,-9.9 -18.2,-21.5 -47,-22.1 -20.5,-0.4 -35.8,-17.4 -36.3,-37.8 -0.7,-35.6 36.8,-36.3 37.9,-36.3"
         style="fill:#d35948;fill-opacity:1;fill-rule:nonzero;stroke:none"
         id="path216" /><path
         d="m 19927.6,7015.2 c 0,0 -131,-389 -400.8,-202.5 -56.9,39.3 -139.2,-24.6 -246.6,-42.6 -123.2,-20.7 -392.8,111.8 -196.9,1182.7 142.9,780.58 -409.5,908.74 -429.6,1202.54 0,0 -28.1,-178.55 148.2,-409.29 0,0 -212.8,-25.51 -323,40.29 -113.1,67.38 -187.2,273.55 -220.1,444.74 0,0 2.7,-270.81 157.5,-460.23 0,0 -211.8,-59.5 -290.2,150.3 0,0 17.5,-113.25 30.3,-143.34 0,0 -443.5,-46.41 -477.3,763.58 0,0 -289.5,-786.5 -518.7,-976.94 0,0 -46.8,-370.65 -116.4,-21.12 0,0 -56.4,28.29 -131.2,-38.28 0,0 -155.4,640.43 -6.4,1104 99.1,308.28 375.4,471.15 766.2,418.75 0,0 242,582.7 1000.7,364.6 282.7,-81.2 548.8,-187.7 785.8,-438.9 184.4,-195.33 465.5,-477.39 392.7,-1165.27 -131.6,-1243.93 -234.4,-1138.73 75.8,-1773.03"
         style="fill:#7f4833;fill-opacity:1;fill-rule:nonzero;stroke:none"
         id="path218" /><path
         d="m 18056.3,7417.7 c 0,0 179.2,-42.4 278.3,0 99.1,42.4 179.5,-2.3 125.9,-118.4 -53.6,-116.1 -183.3,-145 -251.4,-149.6 -133.2,-8.9 -230.6,50.8 -294,123.4 -84.9,97.1 1.7,214.4 141.2,144.6"
         style="fill:#bf4545;fill-opacity:1;fill-rule:nonzero;stroke:none"
         id="path220" /><path
         d="m 20092.3,0 c -208,1924.8 695.7,4918.3 695.7,4918.3 -516.9,487.3 -1296.8,948 -1296.8,948 C 17898.5,4588.6 17154.7,5877 17154.7,5877 16455.9,5431.3 15834.6,4992.7 15834.6,4992.7 15970.3,2685.5 16198.9,814.5 16308.2,0 h 3784.1"
         style="fill:#db5252;fill-opacity:1;fill-rule:nonzero;stroke:none"
         id="path222" /><path
         d="m 21892.8,0 c -87,361.902 -216.9,954.402 -216.9,954.402 -160.8,355.898 -482.3,1751.898 -482.3,1751.898 l -1018.2,-413.9 c 41.3,-364.2 411.7,-1700.298 579,-2292.4 h 1138.4"
         style="fill:#ef7159;fill-opacity:1;fill-rule:nonzero;stroke:none"
         id="path224" /><path
         d="m 20788,4918.3 c 0,0 441.3,-536 727.1,-2490.5 0,0 -589.5,-500.6 -1464.8,-254 0,0 -60.9,1937.6 737.7,2744.5"
         style="fill:#db5252;fill-opacity:1;fill-rule:nonzero;stroke:none"
         id="path226" /><path
         d="m 15834.6,4992.7 c 0,0 -477.8,-254.5 -1625.5,-1608.6 0,0 656.4,469.3 995.2,-373.8 0,0 118.9,-294.7 135.2,-402.8 45.2,-299.8 31.3,-389.7 -9.4,-464 l 736.7,562.8 c 0,0 197.4,1702.9 -232.2,2286.4"
         style="fill:#db5252;fill-opacity:1;fill-rule:nonzero;stroke:none"
         id="path228" /><path
         d="m 15185.8,5921.6 c 181.4,144.3 262.5,495.7 262.5,616.3 0,120.6 -29.8,341.7 -71.6,408.6 -41.8,67 -137.2,93.8 -137.2,93.8 7.9,165.3 -65.7,726.8 -104.5,977 -35,225.7 -126.3,231 -176,226.6 -49.8,-4.5 -33.8,-125.1 -33.8,-125.1 19.8,-227.8 33.8,-810.5 33.8,-810.5 0,0 -20.9,30.1 -92.5,23.4 -71.6,-6.7 -140.3,-113.9 -140.3,-113.9 0,0 -23.8,36.9 -113.3,26.8 -89.6,-10 -151.2,-130.6 -151.2,-130.6 -39.8,4.5 -93.5,0 -93.5,0 -77.6,-10 -110.4,-174.2 -122.4,-334.9 -11.9,-160.8 259.6,-857.5 259.6,-857.5 0,0 281.6,-317 680.4,0"
         style="fill:#ef7159;fill-opacity:1;fill-rule:nonzero;stroke:none"
         id="path230" /><path
         d="m 15299.7,6798.9 c -1.6,-0.3 -162.7,-29.2 -277.8,-0.1 -64.9,16.3 -95.1,75.6 -101.7,125.7 -4.5,33.5 2.7,56.8 9.5,60.6 24,13.5 173.7,22.5 262.4,25.1 7.4,0.2 13.2,6.4 13,13.8 -0.2,7.3 -6.8,13.4 -13.8,13 -11.1,-0.4 -62,-2 -117.5,-5.6 2,3.3 2.6,7.4 1.2,11.3 l -75.6,207.6 c -2.5,7 -10.1,10.6 -17.1,8 -7,-2.5 -10.6,-10.2 -8.1,-17.1 l 75.6,-207.7 c 0.6,-1.5 1.8,-2.4 2.8,-3.6 -58.8,-4.4 -117.8,-11.2 -136,-21.4 -19.5,-11 -28.6,-45.4 -23,-87.6 5.4,-40.6 24.8,-86.2 61.8,-117.2 -46.4,-9.1 -63.8,4.3 -64.7,5.1 -5.1,5 -13.4,5 -18.6,0 -1.4,-1.3 -2.4,-2.8 -3,-4.4 4.2,24 -0.6,42.8 -0.8,43.3 l -102.3,335 c -2.2,7 -9.6,11.1 -16.7,8.9 -7.1,-2.2 -11.1,-9.7 -8.9,-16.8 l 102.2,-334.5 c 0.8,-2.8 17.7,-69 -65.4,-100 -84.1,-31.5 -118.5,-3.5 -119.5,-2.7 -2.3,2.1 -5.2,3.1 -8.2,3.3 -0.6,5.2 -1.6,10 -2.7,14.2 -29,132.5 -75.5,253 -130.9,339.3 l -1.9,3 c -3.8,6.4 -12,8.4 -18.4,4.7 -6.4,-3.8 -8.4,-12 -4.7,-18.4 l 2.4,-3.8 c 53.8,-83.7 99,-201.1 127.5,-331.1 0.8,-3.1 19.7,-77.8 -56.6,-100.8 -77.1,-23.2 -105.8,25.3 -128.8,64.3 l -2,3.3 c -23.2,39.1 -91.2,185.2 -91.9,186.7 -3.1,6.7 -11.1,9.5 -17.7,6.5 -6.7,-3.2 -9.7,-25.4 -6.5,-32.1 2,-4.4 37.9,-72.9 66.5,-152.9 h -67.6 c -7.4,0 -13.4,-7.6 -13.4,-15 0,-7.4 6,-15 13.4,-15 h 80.4 l 0.8,16 c 5,-9.6 9.5,-9.9 13,-15.8 l 1.9,0.7 c 19.3,-32.7 49.4,-81.6 114.3,-81.6 13.6,0 28.6,3.2 45.4,8.3 54,16.2 73.3,55.1 77.4,89.2 10.2,-5.6 28.3,-12.3 55.8,-12.3 21.3,0 48.3,4.3 81.4,16.7 55.1,20.7 75,55.5 81.4,84.3 0,-3.4 1.2,-6.8 3.8,-9.5 2.2,-2.3 17.2,-16.3 53.6,-16.3 15.8,0 35.7,2.9 60.3,10.3 9.1,-4.5 18.9,-8.3 29.7,-11 39.8,-10.1 83.9,-13.6 125.5,-13.8 -6.3,-26.8 -29.2,-131.7 -11.6,-174.6 2.2,-5.2 7.2,-8.4 12.4,-8.4 1.7,0 3.5,0.4 5.1,1 6.9,2.9 10.1,10.7 7.4,17.5 -13.4,32.7 5.5,129 14,163.3 v 1.4 c 72.9,2 132.3,12.6 136.3,13.4 7.3,1.3 12.1,8.3 10.8,15.6 -1.4,7.3 -8.5,12.1 -15.6,10.7"
         style="fill:#d35948;fill-opacity:1;fill-rule:nonzero;stroke:none"
         id="path232" /><path
         d="m 14702.9,6633.4 c -2.7,6.9 -10.5,10.3 -17.4,7.5 -6.9,-2.7 -10.2,-10.4 -7.5,-17.3 3.8,-9.7 15.7,-22.7 40.1,-48.8 56.3,-60.4 161.2,-172.6 174,-292.8 0.7,-6.9 6.5,-12 13.3,-12 h 1.4 c 7.4,0.8 12.7,7.4 11.9,14.8 -13.7,129.1 -122.5,245.7 -181,308.3 -15.3,16.4 -32.7,34.9 -34.8,40.3"
         style="fill:#d35948;fill-opacity:1;fill-rule:nonzero;stroke:none"
         id="path234" /><path
         d="m 14505.4,5921.6 c 0,0 -1167.2,-3570.6 0,-3697.6 957.5,-104.3 671.6,3721.1 671.6,3721.1 l -671.6,-23.5"
         style="fill:#ef7159;fill-opacity:1;fill-rule:nonzero;stroke:none"
         id="path236" /><path
         d="m 16044.5,2763.8 c -14.2,0 -26,15.8 -26.8,30.1 -0.7,14.1 -74.5,1417.4 -209.5,1844.5 -4.4,14.2 3.4,30.4 17.5,34.9 14.2,4.4 29.2,-2.8 33.6,-16.9 137.1,-433.7 209,-1802.2 212,-1860 0.7,-14.8 -10.6,-32.6 -25.4,-32.6 h -1.4"
         style="fill:#ba2f2f;fill-opacity:1;fill-rule:nonzero;stroke:none"
         id="path238" /><path
         d="m 20125,2127.6 c -2.6,0 -5.3,0.4 -8,1.2 l -232.2,72.8 -1.8,17.5 c -7.1,66.8 -168.5,1646.4 218.3,2375.4 7,13 23.2,18 36.3,11.1 13.1,-7 18,-23.2 11.1,-36.3 -357.9,-674.4 -231,-2149.6 -214.1,-2327.2 L 20133,2180 c 14.1,-4.4 22,-19.4 17.6,-33.6 -3.6,-11.4 -14.2,-18.8 -25.6,-18.8"
         style="fill:#ba2f2f;fill-opacity:1;fill-rule:nonzero;stroke:none"
         id="path240" /><path
         d="m 17593.1,11876.3 c 0,0 -74.4,-110.7 8.3,-181.9 0,0 -67.6,-119.3 27.7,-188.4 0,0 -81.5,-106.3 34.2,-172.9 0,0 63.7,-17.2 168.4,-15.7 0,0 11.1,-110.6 133.6,-93.9 0,0 119.7,10.6 100.1,131.8 0,0 140.6,32.8 194.7,74.5 54.1,41.8 32,178.8 -47.8,190.3 0,0 118.1,104.6 -16.2,204.6 0,0 66.4,91.9 -36.3,171.7 l -566.7,-120.1"
         style="fill:#6c84a8;fill-opacity:1;fill-rule:nonzero;stroke:none"
         id="path242" /><path
         d="m 18617.2,13389.3 c 54.8,-556.2 -411.9,-991.9 -439.9,-1353.9 -6.8,-87.3 -215,-159.5 -305.1,-174.1 -117.1,-19 -301.8,-36.8 -326.7,73.9 -59.4,264.3 -655.1,599.6 -768.3,1155.7 -113.4,557.3 132.6,1069.2 755.1,1165.8 614,95.2 1029.1,-301.3 1084.9,-867.4"
         style="fill:#f9d8a7;fill-opacity:1;fill-rule:nonzero;stroke:none"
         id="path244" /><path
         d="m 17988.4,13200.3 c -1.3,-17.8 -9.9,-59.1 -60.1,-58.7 -21,0.1 -29.8,16.8 -33.4,30.8 -9.5,36.8 5.2,101.7 48.2,140 33,-33 48,-77.9 45.3,-112.1 z m -172,-35.2 c -2.7,-22.1 -24.6,-40.8 -60.2,-51.1 -7.4,-2.2 -12.9,-0.3 -17.8,6 -17.8,22.8 -18.1,87.8 2.5,144.2 69.2,-48 77.5,-81.9 75.5,-99.1 z m -168.5,16.9 c 1.5,-38.6 -20.4,-69.7 -41.5,-82.3 -8.2,-5 -24.5,-11.9 -40.5,-2.6 -30.2,17.6 -36.5,103.4 -1.3,163.8 3.3,5.8 7.6,12.1 12.9,18.3 44,-24.7 68.9,-58.9 70.4,-97.2 z m -244,43.1 c 37,-39.3 49.6,-84.2 34.6,-123.1 -10.4,-27.1 -33,-46.5 -56.1,-48.4 -17.5,-1.4 -32.3,7.4 -43,25.7 -23.9,40.8 -5.7,112.5 41.4,164.5 8.1,-4.7 15.8,-11 23.1,-18.7 z m 808.1,30.7 c -30.4,31 -58.5,53.6 -84.2,69.9 7.6,38.6 15.8,75.1 24.6,108.9 1.4,5.3 -1.8,10.8 -7.2,12.2 -5.4,1.4 -10.8,-1.8 -12.2,-7.2 -8.4,-32.1 -16.2,-66.7 -23.5,-103.3 -73.7,39.5 -126,25.2 -154.9,8.9 -3.8,-2.1 -7.4,-4.4 -10.9,-6.8 -22.8,18.4 -50.9,31.8 -83.4,36.6 -48.8,7.2 -91.8,-16.4 -121,-66.6 -2.6,-4.6 -5.2,-9.4 -7.5,-14.3 -6.1,3.8 -12.5,7.7 -19.3,11.6 -67.1,38.9 -111.8,22 -138.8,-2 -68.1,32.4 -140.9,19.1 -197.3,-35.6 -14.1,5.5 -29.3,7.9 -45.4,7 -52.5,-2.7 -106.9,-39.4 -149.9,-77.5 -19.6,45.4 -38.8,86.3 -57,121.5 -2.6,4.9 -8.7,6.8 -13.6,4.2 -4.9,-2.5 -6.8,-8.6 -4.2,-13.5 18.9,-36.4 38.7,-79.1 59.3,-126.6 -38.4,-36.5 -64.6,-70.7 -66.9,-73.7 -3.4,-4.4 -2.5,-10.7 1.9,-14 4.4,-3.3 10.7,-2.5 14.1,1.9 0.5,0.7 24.2,31.6 59.3,65.9 210.7,-499.8 503.4,-1256.6 506.4,-1267.6 1.4,-5 6.3,-8.1 11.3,-7.3 l 1,0.2 c 5.3,1.4 8.5,6.9 7.1,12.3 -3,11.1 -298.4,777.5 -510.2,1277.1 41.1,37.5 93.6,74.6 142.5,77.1 10.3,0.6 20.1,-0.4 29.3,-3 -50,-58.5 -67,-135.6 -39.3,-183 14.6,-24.9 36.6,-37.6 62,-35.5 30.6,2.5 60,27.1 73.1,61.2 17.9,46.4 3.7,98.9 -38.7,144 -7.3,7.7 -15,14.2 -23.1,19.5 29.9,27 88.2,62.8 163.7,30 -5,-6.2 -8.9,-12.3 -11.9,-17.4 -38.5,-66.2 -34.1,-166.3 8.6,-191.1 18.2,-10.6 40.4,-9.6 61,2.7 32.1,19.3 52.7,59.6 51.1,100.3 -1,26.1 -12.4,73.4 -75.1,110.6 23.3,17.1 58.6,24.6 109.6,-5 7.6,-4.4 14.7,-8.7 21.4,-12.9 -23.6,-61.4 -25.6,-136.7 -1.2,-167.8 10,-12.8 23.9,-17.4 39.2,-13 43.6,12.8 70.7,37.5 74.4,67.9 3.3,26.7 -10.5,68 -87.5,120.4 2.4,5.3 5.1,10.4 8,15.3 17.5,30.2 49.2,64.5 100.7,56.9 28,-4.2 51.6,-14.9 70.6,-29.5 -45.5,-42.1 -64.6,-111.6 -52.5,-158.3 7.5,-29 26.7,-45.7 52.7,-45.9 5.6,0 11,0.4 16.1,1.2 36.8,6 60.8,34 64.1,76.1 3.3,42.7 -14.9,90.4 -49.4,125.7 1.8,1.1 3.6,2.2 5.5,3.2 39.7,22.5 88,17.9 140.9,-12.1 -107.2,-562.8 -72.9,-1327.4 -72.7,-1338.3 0.1,-5.5 4.6,-9.9 10.2,-9.9 l 1.4,0.2 c 4.8,0.7 8.5,4.9 8.5,10 -0.2,10.7 -34.5,765.2 70.9,1326.8 23.9,-16 48.7,-36.8 74,-62.6 3.8,-3.9 10.2,-4 14.1,-0.2 4,3.9 4,10.3 0.2,14.2"
         style="fill:#f29e64;fill-opacity:1;fill-rule:nonzero;stroke:none"
         id="path246" /><path
         d="m 17865.8,11692.5 c -100.6,-16.3 -180.1,-8.2 -222.5,-0.8 -1.8,0.3 -3,0.5 -3.6,0.6 -1.9,0.2 -3.2,1.8 -3,3.7 0.3,1.8 2,3.1 3.8,2.9 0.6,-0.1 2,-0.3 3.9,-0.7 78.8,-13.6 287.1,-29.8 519.9,116 1.6,1 3.6,0.5 4.6,-1.1 1,-1.5 0.5,-3.6 -1,-4.6 -109.6,-68.6 -214,-101.7 -302.1,-116"
         style="fill:#485f82;fill-opacity:1;fill-rule:nonzero;stroke:none"
         id="path248" /><path
         d="m 17893.7,11504 c -136.7,-22.1 -230,-4.6 -231.5,-4.3 -1.8,0.4 -3,2.2 -2.6,3.9 0.4,1.9 2.1,3 3.9,2.7 2.4,-0.5 241.6,-45.4 515.8,102.3 1.6,0.8 3.6,0.2 4.5,-1.4 0.9,-1.6 0.3,-3.6 -1.4,-4.5 -105,-56.6 -205,-85.1 -288.7,-98.7"
         style="fill:#485f82;fill-opacity:1;fill-rule:nonzero;stroke:none"
         id="path250" /><path
         d="m 17931.4,11319 c -56.9,-9.3 -80.7,-1.6 -81,-1.5 -1.8,0.6 -2.7,2.5 -2.1,4.2 0.6,1.8 2.5,2.7 4.3,2.1 0.5,-0.1 53.5,-15.8 187.3,30.7 1.8,0.7 3.7,-0.3 4.3,-2 0.6,-1.7 -0.3,-3.7 -2,-4.2 -45.9,-16 -82.5,-24.8 -110.8,-29.3"
         style="fill:#485f82;fill-opacity:1;fill-rule:nonzero;stroke:none"
         id="path252" /><path
         d="m 16325.8,13963.8 h -750.2 c -29.6,0 -53.6,20.4 -53.6,50 0,29.6 24,50 53.6,50 h 750.2 c 29.6,0 53.6,-20.4 53.6,-50 0,-29.6 -24,-50 -53.6,-50"
         style="fill:#f29e64;fill-opacity:1;fill-rule:nonzero;stroke:none"
         id="path254" /><path
         d="m 16620.6,14522.8 c -13,0 -26,4.6 -36.3,14.1 l -509.1,468.9 c -21.8,20.1 -23.2,54 -3.1,75.8 20,21.7 53.9,23.1 75.7,3.1 l 509.1,-468.9 c 21.7,-20.1 23.2,-54 3.1,-75.8 -10.6,-11.4 -25,-17.2 -39.4,-17.2"
         style="fill:#f29e64;fill-opacity:1;fill-rule:nonzero;stroke:none"
         id="path256" /><path
         d="m 17242,14804.1 c -24.4,0 -46.5,16.8 -52.2,41.7 l -167.7,736.8 c -6.6,28.9 11.5,57.6 40.3,64.2 28.8,6.5 57.6,-11.5 64.2,-40.4 l 167.7,-736.8 c 6.6,-28.9 -11.5,-57.6 -40.3,-64.2 -4,-0.9 -8,-1.3 -12,-1.3"
         style="fill:#f29e64;fill-opacity:1;fill-rule:nonzero;stroke:none"
         id="path258" /><path
         d="m 18102.5,14810.8 c -8.7,0 -17.5,2.1 -25.7,6.5 -25.9,14.2 -35.5,46.8 -21.3,72.7 l 390.8,716.8 c 14.2,26 46.7,35.5 72.8,21.4 25.9,-14.2 35.5,-46.7 21.3,-72.7 l -390.8,-716.8 c -9.8,-17.8 -28.2,-27.9 -47.1,-27.9"
         style="fill:#f29e64;fill-opacity:1;fill-rule:nonzero;stroke:none"
         id="path260" /><path
         d="m 18681,14321.8 c -18.3,0 -36.1,9.4 -46.1,26.2 -15.1,25.5 -6.8,58.4 18.7,73.5 l 655,388.5 c 25.5,15.1 58.4,6.7 73.4,-18.8 15.1,-25.4 6.8,-58.3 -18.7,-73.4 l -655,-388.5 c -8.6,-5.1 -18,-7.5 -27.3,-7.5"
         style="fill:#f29e64;fill-opacity:1;fill-rule:nonzero;stroke:none"
         id="path262" /></g></g></svg>
