<svg width="359" height="387" viewBox="0 0 359 387" fill="none" xmlns="http://www.w3.org/2000/svg">
<path d="M117 268.975C117.006 238.958 128.457 210.072 149.02 188.2C169.583 166.328 197.712 153.115 227.679 151.252C257.645 149.39 287.195 159.017 310.31 178.174C333.425 197.33 348.367 224.576 352.092 254.361C355.001 277.666 350.885 301.308 340.272 322.26C328.299 345.939 308.69 364.891 284.614 376.053C260.537 387.216 233.4 389.936 207.586 383.776C181.772 377.615 158.79 362.933 142.353 342.102C125.915 321.271 116.984 295.507 117 268.975Z" fill="url(#paint0_linear)"/>
<path d="M127.126 316.86C184.159 346.125 203.715 333.851 264.65 312.138C299.476 299.716 324.897 310.629 340.273 322.26C330.188 342.172 314.661 358.815 295.495 370.259C276.329 381.702 254.309 387.476 231.992 386.911C209.675 386.346 187.976 379.464 169.414 367.065C150.852 354.665 136.189 337.257 127.126 316.86Z" fill="url(#paint1_linear)"/>
<path d="M121.535 236.388C129.05 210.265 145.356 187.537 167.696 172.044C190.036 156.551 217.041 149.243 244.147 151.356C271.253 153.469 296.799 164.873 316.467 183.641C336.135 202.408 348.72 227.388 352.094 254.36C341.717 244.576 329.438 237.03 316.02 232.193C302.602 227.355 288.332 225.329 274.097 226.241C212.075 229.887 164.407 273.696 121.535 236.388Z" fill="url(#paint2_linear)"/>
<path d="M47.7377 123.314L48.9506 115.752L59.6834 116.197L69.53 116.622L69.5514 125.836L58.0025 124.507L47.7377 123.314Z" fill="url(#paint3_linear)"/>
<path d="M49.6937 114.207C50.5253 114.36 48.2295 124.502 48.2295 124.502C48.2295 124.502 40.8072 129.778 38.385 135.672C35.9628 141.566 32.8367 137.554 33.9328 130.709C35.0289 123.864 35.8676 118.642 36.6507 113.779C37.4338 108.916 41.0811 112.618 49.6937 114.207Z" fill="#43446C"/>
<path d="M44.7372 129.472C44.6628 129.789 44.6985 130.122 44.8384 130.416C44.9499 130.585 45.1105 130.716 45.2986 130.792C45.4868 130.867 45.6935 130.884 45.8911 130.839C46.0443 130.824 46.1928 130.778 46.3272 130.703C46.4616 130.628 46.5789 130.526 46.6719 130.403C47.0844 129.723 47.2991 128.941 47.2919 128.146C47.6031 129.05 48.0262 129.866 48.5593 129.984C48.9078 130.059 49.2329 129.879 49.53 129.448C49.6644 129.259 49.7562 129.043 49.799 128.815C49.8419 128.587 49.8348 128.353 49.7783 128.128C49.4242 126.653 47.1892 125.412 47.0739 125.349C47.0396 125.33 47.0015 125.319 46.9624 125.316C46.9334 125.313 46.9041 125.315 46.8758 125.322C46.8468 125.33 46.819 125.342 46.7931 125.357C46.7624 125.376 46.7361 125.402 46.716 125.432C45.8271 126.654 45.1575 128.021 44.7372 129.472ZM46.6642 128.886C46.6222 129.305 46.4789 129.708 46.2466 130.059C46.1991 130.124 46.1384 130.179 46.0686 130.219C45.9987 130.26 45.9212 130.285 45.8409 130.294C45.4233 130.332 45.339 130.187 45.31 130.14C44.991 129.593 45.8563 127.806 46.7374 126.399C46.7996 127.23 46.7765 128.065 46.6684 128.891L46.6642 128.886ZM49.266 128.685C49.2385 128.848 49.1741 129.003 49.0777 129.138C48.9893 129.268 48.8188 129.48 48.6766 129.449C48.2207 129.349 47.6581 127.756 47.3245 126.146C47.9795 126.579 49.0413 127.399 49.2407 128.256C49.2801 128.395 49.2902 128.542 49.2705 128.685L49.266 128.685Z" fill="url(#paint4_linear)"/>
<path opacity="0.2" d="M57.7665 124.469L59.4747 116.162L69.4246 116.603L69.4987 125.827L57.7665 124.469Z" fill="black"/>
<path d="M175.723 67.049C175.723 67.049 149.946 67.2373 113.326 109.514L64.3703 114.292L61.0873 126.098C61.0873 126.098 108.096 131.016 122.629 126.987C137.162 122.958 167.285 97.5881 167.285 97.5881L192.436 79.7664L175.723 67.049Z" fill="url(#paint5_linear)"/>
<path opacity="0.6" d="M61.0893 126.09C61.0893 126.09 108.1 131.009 122.628 126.979C137.155 122.949 167.283 97.5805 167.283 97.5805L192.431 79.7653L175.719 67.0524C175.719 67.0524 155.774 67.1947 126.039 96.0249C123.208 98.7712 120.283 101.761 117.282 105.054C115.982 106.489 114.664 107.975 113.327 109.514L64.3729 114.293L61.0893 126.09Z" fill="url(#paint6_linear)"/>
<path opacity="0.2" d="M117.282 105.055C124.668 106.769 134.903 106.77 147.639 101.033L131.863 95.4109L126.039 96.026C123.207 98.7724 120.282 101.763 117.282 105.055Z" fill="black"/>
<path d="M65.5952 113.579L62.0835 127.319L59.38 126.87L62.877 113.98L65.5952 113.579Z" fill="url(#paint7_linear)"/>
<path d="M21.4559 70.1578L25.6772 63.7638L35.2744 68.5915L44.071 73.0341L40.2952 81.4394L30.3194 75.4702L21.4559 70.1578Z" fill="url(#paint8_linear)"/>
<path d="M26.991 62.6637C27.6849 63.1456 21.4147 71.441 21.4147 71.441C21.4147 71.441 12.4781 73.1913 7.84367 77.5633C3.20922 81.9354 2.01288 76.9865 5.83185 71.2084C9.65081 65.4303 12.5646 61.0083 15.2781 56.8989C17.9915 52.7894 19.7969 57.6681 26.991 62.6637Z" fill="#43446C"/>
<path d="M16.1882 74.5349C15.9899 74.793 15.8856 75.111 15.8925 75.4364C15.919 75.6945 16.0771 76.0467 16.6763 76.2551C16.822 76.3052 16.9766 76.3244 17.1301 76.3115C17.2837 76.2987 17.4329 76.254 17.5682 76.1804C18.2243 75.7303 18.742 75.1063 19.0631 74.3783C18.9743 75.3297 19.0235 76.2496 19.4613 76.5754C19.6312 76.6784 19.8293 76.7253 20.0274 76.7095C20.2255 76.6937 20.4136 76.616 20.5651 76.4873C20.7655 76.3706 20.9382 76.2119 21.0712 76.022C21.2043 75.8321 21.2945 75.6155 21.3358 75.3874C21.6205 73.8962 20.0957 71.846 20.0158 71.7402C19.9934 71.7102 19.9652 71.685 19.9329 71.666C19.9073 71.6514 19.8796 71.6409 19.8508 71.635C19.8219 71.6281 19.792 71.6264 19.7626 71.6297C19.7268 71.6345 19.6924 71.6468 19.6617 71.6657C18.3463 72.4135 17.171 73.3844 16.1882 74.5349ZM18.1859 74.7944C17.9752 75.1589 17.6791 75.4667 17.3229 75.6913C17.2527 75.7312 17.1749 75.7561 17.0945 75.7644C17.0141 75.7726 16.9328 75.7641 16.8559 75.7393C16.459 75.602 16.4418 75.4342 16.436 75.3794C16.3705 74.7501 17.8949 73.4786 19.2779 72.5584C18.9905 73.3387 18.6246 74.0879 18.1859 74.7944ZM20.6406 75.6827C20.5473 75.8205 20.4241 75.9353 20.28 76.0185C20.1457 76.1001 19.9035 76.2229 19.7872 76.1365C19.4124 75.8575 19.5565 74.1742 19.9149 72.5706C20.4943 73.3562 20.8035 74.3085 20.7961 75.2846C20.7713 75.4264 20.7184 75.5617 20.6406 75.6827Z" fill="url(#paint9_linear)"/>
<path opacity="0.2" d="M30.119 75.3413L35.0965 68.4756L43.9809 72.9807L40.2485 81.4156L30.119 75.3413Z" fill="black"/>
<path d="M210.147 65.5524C210.147 65.5524 210.301 86.1667 211.666 87.3708C213.03 88.5749 236.151 107.239 236.151 107.239C236.151 107.239 244.414 109.082 246.983 110.583C249.551 112.084 246.818 120.225 245.409 121.261C244 122.298 232.721 115.788 232.721 115.788L231.314 113.043C231.314 113.043 206.019 96.4534 203.654 94.9646C201.289 93.4759 197.05 69.7184 197.05 69.7184L210.147 65.5524Z" fill="url(#paint10_linear)"/>
<path d="M206.931 54.1001C214.685 57.2523 212.232 76.6328 212.232 76.6328L197.728 80.2515L194.976 74.0258L206.931 54.1001Z" fill="url(#paint11_linear)"/>
<path opacity="0.2" d="M206.931 54.1001C214.685 57.2523 212.232 76.6328 212.232 76.6328L197.728 80.2515L194.976 74.0258L206.931 54.1001Z" fill="url(#paint12_linear)"/>
<path d="M161.256 71.6085C161.256 71.6085 137.69 61.1611 86.9056 84.5992L40.3239 68.7858L32.4705 78.1865C32.4705 78.1865 73.2791 102.032 88.1818 104.348C103.084 106.664 140.985 95.9549 140.985 95.9549L171.24 90.0792L161.256 71.6085Z" fill="url(#paint13_linear)"/>
<path opacity="0.6" d="M161.256 71.6085C161.256 71.6085 137.69 61.1611 86.9055 84.5992L40.3239 68.7858L32.4705 78.1865C32.4705 78.1865 73.2791 102.032 88.1818 104.348C103.084 106.664 140.985 95.9549 140.985 95.9549L171.24 90.0792L161.256 71.6085Z" fill="url(#paint14_linear)"/>
<path d="M42.5439 68.3208L39.7114 68.1508L31.0239 78.2551L33.758 80.0658L42.5439 68.3208Z" fill="url(#paint15_linear)"/>
<path d="M201.764 13.0134C201.764 13.0134 189.765 7.50042 180.3 15.0944C174.329 19.8866 160.342 31.5313 153.663 26.8732C146.985 22.2151 136.032 17.7181 130.576 22.6762C130.576 22.6762 139.108 22.6208 143.155 26.2427C143.155 26.2427 135.238 23.5165 132.197 25.5852C129.155 27.654 124.742 26.3997 124.742 26.3997C124.742 26.3997 120.292 38.1605 139.965 40.7786C139.965 40.7786 129.627 42.2224 125.172 37.9405C125.172 37.9405 123.317 46.3951 146.192 50.4546C169.067 54.5141 189.38 51.783 194.513 45.1999C199.647 38.6169 201.764 13.0134 201.764 13.0134Z" fill="#43446C"/>
<path d="M138.36 67.4904C138.36 67.4904 141.442 90.8234 158.823 95.4065C161.566 96.1677 164.427 96.4049 167.257 96.1055C172.714 95.4028 177.668 92.5613 181.03 88.2059C182.042 86.9931 182.917 85.6717 183.638 84.2662L158.884 69.7999L156.846 68.5996C153.585 67.721 150.262 67.0893 146.906 66.7097C143.635 66.3772 140.33 66.4286 138.36 67.4904Z" fill="url(#paint16_linear)"/>
<path opacity="0.2" d="M153.113 83.3314C157.853 89.0625 162.339 93.3373 167.257 96.1061C172.714 95.4035 177.668 92.5618 181.03 88.2064C173.99 81.6707 166.597 75.526 158.884 69.7999L156.845 68.5996C153.584 67.721 150.261 67.0892 146.905 66.7096C145.531 69.9406 146.511 75.3553 153.113 83.3314Z" fill="black"/>
<path d="M206.932 54.0988C191.82 48.034 175.379 46.0481 159.258 48.3403C159.258 48.3403 149.749 62.1806 146.385 73.3541C146.385 73.3541 158.782 94.1482 177.366 94.6641C195.95 95.18 206.932 54.0988 206.932 54.0988Z" fill="url(#paint17_linear)"/>
<path d="M166.652 52.2747C166.652 52.2747 184.416 41.2329 196.827 53.4929" stroke="#43446C" stroke-width="0.5" stroke-linecap="round" stroke-linejoin="round"/>
<path d="M210.088 32.6405C210.088 32.6405 212.989 7.86073 190.824 12.5585C163.002 18.4555 177.272 52.2689 190.999 48.7238C204.727 45.1787 210.088 32.6405 210.088 32.6405Z" fill="#43446C"/>
<path d="M173.621 50.3724C173.621 50.3724 177.746 64.4636 186.37 64.0846C188.655 63.9762 190.872 63.2649 192.793 62.023C194.715 60.7812 196.275 59.0529 197.313 57.0137C197.529 56.6215 197.72 56.2161 197.885 55.7998C197.885 55.7998 193.599 54.2377 196.598 50.5823L186.368 41.6055C186.31 42.758 186.184 43.9061 185.991 45.0438C185.621 47.0641 184.942 49.3042 183.641 49.8048C181.178 50.7577 173.621 50.3724 173.621 50.3724Z" fill="url(#paint18_linear)"/>
<path opacity="0.2" d="M185.991 45.0439C186.568 49.9921 188.82 57.6507 197.313 57.0142C197.529 56.622 197.72 56.2165 197.885 55.8002C197.885 55.8002 193.598 54.2381 196.598 50.5825L186.368 41.6055C186.309 42.758 186.184 43.9061 185.991 45.0439Z" fill="black"/>
<path d="M196.508 19.0448C206.163 18.8843 209.356 24.0017 210.228 33.9387C211.319 46.3568 208.708 55.2349 196.594 52.7798C180.144 49.4462 180.477 19.3107 196.508 19.0448Z" fill="url(#paint19_linear)"/>
<path d="M203.979 33.5019C204.776 34.9315 205.741 36.2601 206.855 37.4591C206.579 37.8626 206.197 38.1821 205.751 38.3822C205.305 38.5823 204.813 38.6554 204.328 38.5933L203.979 33.5019Z" fill="#D4827D"/>
<path d="M198.056 32.8108C198.088 33.607 197.686 34.2638 197.157 34.2843C196.628 34.3047 196.172 33.6793 196.143 32.8877C196.115 32.0962 196.514 31.4347 197.042 31.413C197.57 31.3914 198.025 32.0179 198.056 32.8108Z" fill="#43446C"/>
<path d="M196.823 31.4657L198.52 30.7209C198.52 30.7209 197.719 32.2004 196.823 31.4657Z" fill="#43446C"/>
<path d="M207.905 32.2522C207.936 33.0484 207.533 33.7051 207.005 33.7257C206.477 33.7462 206.02 33.1218 205.99 32.3291C205.961 31.5363 206.361 30.876 206.89 30.8556C207.419 30.8351 207.873 31.4593 207.905 32.2522Z" fill="#43446C"/>
<path d="M206.674 30.9024L208.371 30.1565C208.371 30.1565 207.568 31.6415 206.674 30.9024Z" fill="#43446C"/>
<path d="M197.849 26.1464C197.084 26.0661 196.311 26.1622 195.59 26.4274C194.868 26.6926 194.216 27.1197 193.685 27.676" stroke="#43446C" stroke-width="0.725" stroke-linecap="round" stroke-linejoin="round"/>
<path d="M204.859 25.6216C205.516 25.4437 206.205 25.4171 206.873 25.5435C207.542 25.6699 208.174 25.9461 208.72 26.3514" stroke="#43446C" stroke-width="0.725" stroke-linecap="round" stroke-linejoin="round"/>
<path d="M186.228 35.4908C186.228 35.4908 190.61 27.4838 189.825 21.3716C189.825 21.3716 208.826 13.2386 210.092 32.6414C210.092 32.6414 211.676 15.3682 195.073 15.2594C178.498 15.1499 177.012 39.2623 185.702 46.3561C185.702 46.3538 183.518 40.498 186.228 35.4908Z" fill="#43446C"/>
<path d="M187.839 37.507C187.727 36.3914 187.177 35.3658 186.311 34.6545C185.444 33.9432 184.331 33.6041 183.215 33.7115C180.229 34.0884 178.905 40.254 186.372 41.6077C187.443 41.7956 188.028 40.7436 187.839 37.507Z" fill="url(#paint20_linear)"/>
<path d="M205.266 42.4396C204.792 43.5209 204.398 44.6351 204.086 45.7734C203.879 45.7541 203.672 45.7361 203.466 45.7055C200.66 45.3783 199.465 44.2989 198.995 43.2017C198.776 42.6614 198.69 42.0763 198.744 41.4956C198.763 41.1656 198.829 40.8399 198.939 40.528C200.581 41.5008 202.413 42.1089 204.311 42.3108C204.894 42.4082 205.266 42.4396 205.266 42.4396Z" fill="#43446C"/>
<path d="M204.311 42.312L203.937 43.2871C201.296 42.972 199.477 42.3942 198.744 41.5002C198.763 41.1701 198.829 40.8445 198.939 40.5325C200.581 41.5042 202.414 42.1111 204.311 42.312Z" fill="white"/>
<path d="M203.466 45.7064C200.66 45.3791 199.465 44.2997 198.995 43.2025C200.059 43.3461 201.089 43.6769 202.038 44.1794C202.662 44.5263 203.162 45.0604 203.466 45.7064Z" fill="#EC7774"/>
<path d="M196.321 19.7765C196.321 19.7765 192.695 35.7266 182.689 35.689C172.683 35.6515 187.785 15.2814 187.785 15.2814C187.785 15.2814 204.006 8.85173 212.203 17.3865C220.4 25.9213 210.092 32.6411 210.092 32.6411C210.092 32.6411 210.504 20.3291 196.321 19.7765Z" fill="#43446C"/>
<path d="M196.205 18.6499C196.205 18.6499 197.566 29.4767 189.715 33.4153" stroke="#43446C" stroke-width="0.5" stroke-linecap="round" stroke-linejoin="round"/>
<path d="M196.827 53.4927C200.784 57.4032 178.365 64.05 166.652 52.2745" stroke="#43446C" stroke-width="0.5" stroke-linecap="round" stroke-linejoin="round"/>
<path d="M167.198 52.3077L163.103 50.3404L161.646 51.3822L162.653 52.8577L167.198 52.3077Z" fill="url(#paint21_linear)"/>
<path opacity="0.6" d="M167.198 52.3077L163.103 50.3404L161.646 51.3822L162.653 52.8577L167.198 52.3077Z" fill="white"/>
<path d="M146.123 51.0175C146.123 51.0175 124.14 54.6821 120.129 55.4865C116.118 56.2909 87.407 66.6358 87.407 66.6358C87.407 66.6358 77.622 62.2361 76.4174 63.2883C75.2128 64.3405 72.3682 69.8797 72.5135 71.2591C72.6588 72.6385 86.6041 76.2156 87.3144 75.8009C88.3682 74.8739 89.3453 73.8632 90.236 72.7786C90.236 72.7786 118.581 64.7209 123.885 63.8647C129.189 63.0085 147.031 62.5302 147.031 62.5302L146.123 51.0175Z" fill="url(#paint22_linear)"/>
<path d="M159.258 48.3403C159.258 48.3403 158.412 62.4487 149.69 66.8422L134.767 64.5964L131.53 51.5889C131.53 51.5889 145.75 47.7795 159.258 48.3403Z" fill="url(#paint23_linear)"/>
<path opacity="0.2" d="M159.258 48.3403C159.258 48.3403 158.412 62.4487 149.69 66.8422L134.767 64.5964L131.53 51.5889C131.53 51.5889 145.75 47.7795 159.258 48.3403Z" fill="url(#paint24_linear)"/>
<circle cx="67" cy="296.999" r="6" fill="#9EA1EB"/>
<path d="M342.5 137C351.613 137 359 129.613 359 120.5C359 111.387 351.613 104 342.5 104C333.387 104 326 111.387 326 120.5C326 129.613 333.387 137 342.5 137Z" fill="url(#paint25_linear)"/>
<defs>
<linearGradient id="paint0_linear" x1="286.082" y1="353.799" x2="174.231" y2="151.015" gradientUnits="userSpaceOnUse">
<stop stop-color="#5FA8ED"/>
<stop offset="1" stop-color="#7ED5B7"/>
</linearGradient>
<linearGradient id="paint1_linear" x1="279.835" y1="375.65" x2="261.901" y2="289.366" gradientUnits="userSpaceOnUse">
<stop stop-color="#5FA8ED"/>
<stop offset="1" stop-color="#7ED5B7"/>
</linearGradient>
<linearGradient id="paint2_linear" x1="286.719" y1="239.818" x2="259.721" y2="130.648" gradientUnits="userSpaceOnUse">
<stop stop-color="#5FA8ED"/>
<stop offset="1" stop-color="#7ED5B7"/>
</linearGradient>
<linearGradient id="paint3_linear" x1="59.3412" y1="116.085" x2="58.6083" y2="125.18" gradientUnits="userSpaceOnUse">
<stop offset="0.0625" stop-color="#FFC19E"/>
<stop offset="1" stop-color="white"/>
</linearGradient>
<linearGradient id="paint4_linear" x1="48.5349" y1="126.202" x2="45.4592" y2="130.598" gradientUnits="userSpaceOnUse">
<stop stop-color="#EF8197"/>
<stop offset="0.942708" stop-color="#F7C58F"/>
</linearGradient>
<linearGradient id="paint5_linear" x1="156.253" y1="75.219" x2="132.614" y2="142.611" gradientUnits="userSpaceOnUse">
<stop stop-color="#73BCF9"/>
<stop offset="1" stop-color="#7A96F8"/>
</linearGradient>
<linearGradient id="paint6_linear" x1="156.25" y1="75.2209" x2="132.616" y2="142.603" gradientUnits="userSpaceOnUse">
<stop stop-color="#73BCF9"/>
<stop offset="1" stop-color="#7A96F8"/>
</linearGradient>
<linearGradient id="paint7_linear" x1="63.9472" y1="115.443" x2="56.3039" y2="120.166" gradientUnits="userSpaceOnUse">
<stop stop-color="#EF8197"/>
<stop offset="0.942708" stop-color="#F7C58F"/>
</linearGradient>
<linearGradient id="paint8_linear" x1="33.2062" y1="64.2155" x2="32.2019" y2="80.9538" gradientUnits="userSpaceOnUse">
<stop offset="0.0625" stop-color="#FFC19E"/>
<stop offset="1" stop-color="white"/>
</linearGradient>
<linearGradient id="paint9_linear" x1="19.9854" y1="72.3535" x2="17.4138" y2="76.7046" gradientUnits="userSpaceOnUse">
<stop stop-color="#EF8197"/>
<stop offset="0.942708" stop-color="#F7C58F"/>
</linearGradient>
<linearGradient id="paint10_linear" x1="212.707" y1="109.545" x2="229.245" y2="89.5487" gradientUnits="userSpaceOnUse">
<stop offset="0.0625" stop-color="#FFC19E"/>
<stop offset="1" stop-color="white"/>
</linearGradient>
<linearGradient id="paint11_linear" x1="208.471" y1="57.9495" x2="192.73" y2="74.5141" gradientUnits="userSpaceOnUse">
<stop stop-color="#EF8197"/>
<stop offset="0.942708" stop-color="#F7C58F"/>
</linearGradient>
<linearGradient id="paint12_linear" x1="208.471" y1="57.9495" x2="192.73" y2="74.5141" gradientUnits="userSpaceOnUse">
<stop stop-color="#EF8197"/>
<stop offset="0.942708" stop-color="#F7C58F"/>
</linearGradient>
<linearGradient id="paint13_linear" x1="132.663" y1="73.8548" x2="123.659" y2="115.716" gradientUnits="userSpaceOnUse">
<stop stop-color="#73BCF9"/>
<stop offset="1" stop-color="#7A96F8"/>
</linearGradient>
<linearGradient id="paint14_linear" x1="132.663" y1="73.8548" x2="123.659" y2="115.716" gradientUnits="userSpaceOnUse">
<stop stop-color="#73BCF9"/>
<stop offset="1" stop-color="#7A96F8"/>
</linearGradient>
<linearGradient id="paint15_linear" x1="39.3543" y1="69.856" x2="32.6235" y2="79.3901" gradientUnits="userSpaceOnUse">
<stop stop-color="#EF8197"/>
<stop offset="0.942708" stop-color="#F7C58F"/>
</linearGradient>
<linearGradient id="paint16_linear" x1="171.241" y1="72.1485" x2="159.825" y2="100.116" gradientUnits="userSpaceOnUse">
<stop stop-color="#EF8197"/>
<stop offset="0.942708" stop-color="#F7C58F"/>
</linearGradient>
<linearGradient id="paint17_linear" x1="190.041" y1="54.9411" x2="168.058" y2="97.9489" gradientUnits="userSpaceOnUse">
<stop stop-color="#EF8197"/>
<stop offset="0.942708" stop-color="#F7C58F"/>
</linearGradient>
<linearGradient id="paint18_linear" x1="190.989" y1="47.6986" x2="185.095" y2="64.0499" gradientUnits="userSpaceOnUse">
<stop stop-color="#FFC19E"/>
<stop offset="1" stop-color="white"/>
</linearGradient>
<linearGradient id="paint19_linear" x1="177.435" y1="44.8683" x2="209.714" y2="38.3287" gradientUnits="userSpaceOnUse">
<stop offset="0.0625" stop-color="#FFC19E"/>
<stop offset="1" stop-color="white"/>
</linearGradient>
<linearGradient id="paint20_linear" x1="187.836" y1="32.9786" x2="184.141" y2="41.4832" gradientUnits="userSpaceOnUse">
<stop offset="0.0625" stop-color="#FFC19E"/>
<stop offset="1" stop-color="white"/>
</linearGradient>
<linearGradient id="paint21_linear" x1="165.695" y1="50.8539" x2="164.865" y2="53.4877" gradientUnits="userSpaceOnUse">
<stop stop-color="#4A7AF9"/>
<stop offset="1" stop-color="#B4E1EF"/>
</linearGradient>
<linearGradient id="paint22_linear" x1="113.9" y1="74.5554" x2="106.235" y2="54.3178" gradientUnits="userSpaceOnUse">
<stop offset="0.0625" stop-color="#FFC19E"/>
<stop offset="1" stop-color="white"/>
</linearGradient>
<linearGradient id="paint23_linear" x1="151.319" y1="50.5478" x2="143.099" y2="68.7099" gradientUnits="userSpaceOnUse">
<stop stop-color="#EF8197"/>
<stop offset="0.942708" stop-color="#F7C58F"/>
</linearGradient>
<linearGradient id="paint24_linear" x1="151.319" y1="50.5478" x2="143.099" y2="68.7099" gradientUnits="userSpaceOnUse">
<stop stop-color="#EF8197"/>
<stop offset="0.942708" stop-color="#F7C58F"/>
</linearGradient>
<linearGradient id="paint25_linear" x1="326" y1="120.5" x2="359" y2="120.5" gradientUnits="userSpaceOnUse">
<stop offset="0.005" stop-color="#FEA7AF"/>
<stop offset="0.973" stop-color="#EA47AC"/>
</linearGradient>
</defs>
</svg>
