<svg width="309" height="370" viewBox="0 0 309 370" fill="none" xmlns="http://www.w3.org/2000/svg">
<path d="M74 277.492C74.0037 258.538 81.2332 240.299 94.2159 226.489C107.199 212.678 124.958 204.335 143.878 203.159C162.797 201.983 181.454 208.062 196.047 220.158C210.641 232.254 220.075 249.457 222.427 268.264C224.263 282.98 221.665 297.908 214.964 311.138C207.405 326.089 195.025 338.056 179.824 345.104C164.623 352.152 147.49 353.87 131.192 349.98C114.894 346.09 100.384 336.819 90.0065 323.666C79.6288 310.513 73.9896 294.245 74 277.492Z" fill="url(#paint0_linear)"/>
<path d="M80.3886 307.728C116.397 326.207 128.744 318.457 167.216 304.747C189.203 296.903 205.253 303.794 214.96 311.138C208.593 323.711 198.79 334.22 186.69 341.446C174.589 348.671 160.687 352.317 146.597 351.96C132.507 351.603 118.807 347.258 107.088 339.429C95.3687 331.599 86.1107 320.607 80.3886 307.728Z" fill="url(#paint1_linear)"/>
<path d="M76.8608 256.917C81.6054 240.422 91.8998 226.071 106.004 216.288C120.109 206.505 137.159 201.891 154.272 203.226C171.386 204.56 187.515 211.76 199.932 223.611C212.35 235.461 220.295 251.234 222.425 268.265C215.874 262.087 208.121 257.322 199.65 254.268C191.178 251.213 182.169 249.934 173.182 250.509C134.023 252.812 103.928 280.474 76.8608 256.917Z" fill="url(#paint2_linear)"/>
<path d="M256.444 51.2314L257.493 46.3166C257.655 45.5519 257.994 44.836 258.483 44.2267C258.973 43.6174 259.599 43.1317 260.31 42.809C261.022 42.4864 261.8 42.3356 262.581 42.3691C263.361 42.4026 264.123 42.6193 264.805 43.0017L264.838 43.0203C268.657 45.2084 270.65 84.7473 270.65 84.7473C270.65 84.7473 275.868 93.7424 275.533 95.2456C275.199 96.7488 267.647 100.086 266.93 98.4681C266.212 96.8498 261 91.7833 261.207 89.1848C261.415 86.5863 264.422 84.4521 264.422 84.4521C264.422 84.4521 258.14 57.8347 256.444 51.2314Z" fill="url(#paint3_linear)"/>
<path opacity="0.1" d="M256.444 51.2314L257.493 46.3166C257.655 45.5519 257.994 44.836 258.483 44.2267C258.973 43.6174 259.599 43.1317 260.31 42.809C261.022 42.4864 261.8 42.3356 262.581 42.3691C263.361 42.4026 264.123 42.6193 264.805 43.0017L264.838 43.0203C268.657 45.2084 270.65 84.7473 270.65 84.7473C270.65 84.7473 275.868 93.7424 275.533 95.2456C275.199 96.7488 267.647 100.086 266.93 98.4681C266.212 96.8498 261 91.7833 261.207 89.1848C261.415 86.5863 264.422 84.4521 264.422 84.4521C264.422 84.4521 258.14 57.8347 256.444 51.2314Z" fill="url(#paint4_linear)"/>
<path d="M253.017 73.412L260.092 64.4437C260.092 64.4437 263.086 55.8608 255.524 52.9886L249.371 53.7852L253.017 73.412Z" fill="url(#paint5_linear)"/>
<path opacity="0.5" d="M253.017 73.412L260.092 64.4437C260.092 64.4437 263.086 55.8608 255.524 52.9886L249.371 53.7852L253.017 73.412Z" fill="url(#paint6_linear)"/>
<path d="M104.7 155.938L106.016 164.202L125.27 161.839L123.953 153.565L104.7 155.938Z" fill="url(#paint7_linear)"/>
<path d="M106.479 164.665L110.81 155.468C110.88 155.317 110.897 155.147 110.858 154.985C110.819 154.823 110.725 154.679 110.594 154.577L104.554 149.91C104.293 149.713 103.964 149.628 103.64 149.672C103.316 149.717 103.023 149.888 102.824 150.148C102.769 150.221 102.722 150.299 102.684 150.382C101.331 153.381 100.494 155.635 98.7346 159.372C97.6509 161.674 94.14 168.505 92.6426 171.686C91.1452 174.867 94.0923 176.758 94.9924 175.593C99.0115 170.355 102.843 166.793 105.398 165.714C105.88 165.516 106.267 165.141 106.479 164.665Z" fill="#484D58"/>
<path d="M103.971 166.544C103.688 167.039 103.582 167.616 103.672 168.18C103.721 168.374 103.819 168.552 103.956 168.697C104.094 168.842 104.266 168.95 104.457 169.009C104.561 169.061 104.677 169.082 104.792 169.069C104.908 169.056 105.017 169.01 105.106 168.937C105.934 168.303 105.584 165.149 105.536 164.797C105.535 164.759 105.522 164.722 105.498 164.692C105.474 164.662 105.441 164.64 105.404 164.63C105.366 164.618 105.325 164.617 105.287 164.627C105.248 164.638 105.214 164.659 105.187 164.689C104.714 165.261 104.306 165.883 103.971 166.544ZM105.011 168.41C104.979 168.493 104.925 168.566 104.853 168.619C104.831 168.667 104.732 168.692 104.587 168.635C104.461 168.594 104.346 168.523 104.254 168.428C104.161 168.333 104.093 168.217 104.055 168.089C104.07 167.059 104.476 166.072 105.191 165.329C105.326 166.358 105.263 167.403 105.006 168.409L105.011 168.41Z" fill="#407BFF"/>
<path d="M105.156 164.738L105.115 164.825C105.172 165.805 106.126 168.101 106.998 168.323C107.144 168.36 107.298 168.344 107.434 168.279C107.57 168.215 107.679 168.105 107.742 167.968C107.824 167.841 107.878 167.697 107.9 167.547C107.922 167.397 107.912 167.244 107.87 167.098C107.569 165.886 105.479 164.678 105.378 164.619C105.346 164.603 105.31 164.596 105.274 164.597C105.239 164.599 105.204 164.609 105.173 164.628C105.156 164.662 105.15 164.701 105.156 164.738ZM107.512 167.706L107.471 167.793C107.363 168.024 107.22 167.98 107.166 167.968C106.629 167.832 105.822 166.275 105.601 165.219C106.44 165.675 107.119 166.376 107.548 167.229C107.593 167.387 107.578 167.555 107.507 167.703L107.512 167.706Z" fill="#407BFF"/>
<path opacity="0.2" d="M123.945 153.566L125.262 161.84L115.332 163.054L114.016 154.78L123.945 153.566Z" fill="black"/>
<path d="M115.216 153.071L119.21 164.415C119.21 164.415 163.586 163.698 175.63 149.606C184.591 139.129 191.311 117.798 194.168 107.538C195.157 103.992 195.684 101.772 195.684 101.772L205.713 80.958L166.573 77.1256C166.573 77.1256 168.812 101.531 166.506 119.392C165.592 126.437 163.979 132.457 161.236 135.565C151.541 146.561 115.216 153.071 115.216 153.071Z" fill="url(#paint8_linear)"/>
<path opacity="0.2" d="M166.573 77.1256C166.573 77.1256 168.812 101.531 166.506 119.392C170.61 115.514 173.873 110.833 176.092 105.64C180.979 107.37 188.575 107.631 194.168 107.538C195.157 103.992 195.684 101.772 195.684 101.772L205.713 80.958L166.573 77.1256Z" fill="black"/>
<path d="M55.9161 148.205L60.2138 155.385L77.2012 146.021L72.8979 138.832L55.9161 148.205Z" fill="url(#paint9_linear)"/>
<path d="M60.8191 155.64L61.4134 145.49C61.4225 145.324 61.3749 145.159 61.2783 145.023C61.1816 144.888 61.0418 144.789 60.8816 144.743L53.5384 142.661C53.2226 142.575 52.886 142.618 52.6019 142.78C52.3177 142.942 52.1092 143.21 52.0218 143.525C51.9978 143.613 51.9833 143.704 51.9787 143.796C51.8403 147.082 51.9021 149.486 51.6601 153.609C51.5112 156.149 50.7971 163.796 50.5914 167.304C50.3858 170.811 53.8239 171.471 54.2258 170.054C56.0059 163.696 58.2348 158.963 60.2044 157.01C60.5776 156.649 60.7977 156.159 60.8191 155.64Z" fill="#484D58"/>
<path d="M59.1909 158.316C59.1126 158.881 59.2292 159.456 59.5215 159.946C59.6395 160.108 59.797 160.236 59.9789 160.32C60.1607 160.403 60.3609 160.439 60.5605 160.423C60.6755 160.433 60.7907 160.408 60.8923 160.354C60.9939 160.299 61.0775 160.216 61.1329 160.115C61.6653 159.219 60.1648 156.425 59.992 156.113C59.9763 156.077 59.9495 156.047 59.9155 156.028C59.8816 156.009 59.8424 156.001 59.8036 156.006C59.7637 156.009 59.7256 156.024 59.6939 156.049C59.6623 156.073 59.6384 156.106 59.6253 156.144C59.4005 156.85 59.2548 157.579 59.1909 158.316ZM60.85 159.661C60.8524 159.75 60.8288 159.838 60.7823 159.913C60.7794 159.967 60.7013 160.026 60.5407 160.026C60.4084 160.036 60.2759 160.013 60.1545 159.959C60.0332 159.906 59.9267 159.823 59.8443 159.719C59.4747 158.757 59.4837 157.691 59.8697 156.735C60.3803 157.638 60.7131 158.632 60.85 159.661Z" fill="#407BFF"/>
<path d="M59.6129 156.197L59.6072 156.293C60.0244 157.181 61.7655 158.957 62.6571 158.845C62.8061 158.823 62.9431 158.751 63.0449 158.64C63.1467 158.529 63.2069 158.387 63.2154 158.237C63.2434 158.088 63.2396 157.935 63.2041 157.787C63.1686 157.64 63.1023 157.502 63.0096 157.382C62.2762 156.368 59.889 156.026 59.7735 156.009C59.7376 156.007 59.7018 156.013 59.6691 156.028C59.6364 156.043 59.608 156.066 59.5863 156.095C59.5849 156.131 59.5942 156.166 59.6129 156.197ZM62.9058 158.075L62.9011 158.172C62.8858 158.426 62.7385 158.439 62.683 158.442C62.1342 158.515 60.8009 157.37 60.2065 156.472C61.1551 156.584 62.0471 156.982 62.7638 157.613C62.8657 157.745 62.9158 157.909 62.9048 158.075L62.9058 158.075Z" fill="#407BFF"/>
<path opacity="0.2" d="M72.8943 138.834L77.1976 146.023L68.4341 150.847L64.1308 143.658L72.8943 138.834Z" fill="url(#paint10_linear)"/>
<path d="M66.9299 139.581L74.4278 151.42C74.4278 151.42 116.784 136.044 133.158 123.869C140.096 118.712 166.839 94.6605 173.23 88.9014C174.119 88.0992 174.614 87.6562 174.614 87.6562L204.041 74.3105L191.719 41.4721C191.719 41.4721 183.112 42.0927 172.328 48.254C170.732 49.1583 169.086 50.1896 167.411 51.3621C160.948 55.9355 155.309 61.5721 150.731 68.0321C149.534 69.6866 148.366 71.4495 147.227 73.3207C122.272 114.356 66.9299 139.581 66.9299 139.581Z" fill="url(#paint11_linear)"/>
<path d="M255.7 68.2698C255.7 68.2698 250.083 51.2331 222.254 42.8666C194.424 34.5001 168.882 46.4645 168.882 46.4645C168.882 46.4645 155.699 80.6627 182.23 96.5886C191.804 102.336 204.65 99.0786 204.65 99.0786L209.735 87.7591C209.735 87.7591 249.871 78.6905 255.7 68.2698Z" fill="#407BFF"/>
<path opacity="0.8" d="M165.632 66.9092C165.842 74.1309 167.699 82.1373 173.231 88.9021C175.757 91.97 178.803 94.5709 182.228 96.5865C191.807 102.337 204.652 99.0754 204.652 99.0754L209.739 87.7606C209.739 87.7606 249.874 78.6862 255.698 68.2677C255.698 68.2677 250.08 51.2361 222.252 42.8648C194.425 34.4935 168.881 46.4626 168.881 46.4626C168.881 46.4626 168.803 46.6782 168.664 47.0813C168.391 47.8672 167.904 49.3569 167.412 51.3628C166.113 56.4395 165.514 61.6701 165.632 66.9092Z" fill="url(#paint12_linear)"/>
<path d="M194.281 33.7638C194.281 33.7638 174.636 19.6066 169.923 17.0367C165.209 14.4668 122.858 37.6569 122.858 37.6569C122.858 37.6569 110.179 37.9811 108.832 39.2891C107.484 40.5971 108.84 50.5766 110.978 50.286C113.116 49.9955 121.712 52.1787 124.273 50.3005C126.835 48.4223 127.138 43.9349 127.138 43.9349C127.138 43.9349 166.233 31.0037 168.454 30.5039C170.055 30.1429 187.639 44.8393 187.639 44.8393L194.281 33.7638Z" fill="url(#paint13_linear)"/>
<path opacity="0.2" d="M150.731 68.0323C155.714 67.9247 160.688 67.5497 165.631 66.9087C188.647 63.8564 196.08 55.8395 196.08 55.8395L172.328 48.2542L168.663 47.0808C168.389 47.8668 167.902 49.3564 167.411 51.3623C160.948 55.9356 155.308 61.5723 150.731 68.0323Z" fill="black"/>
<path d="M232.725 67.8423C234.513 68.5611 236.46 68.785 238.364 68.4905C244.297 67.6162 248.705 62.3222 248.705 62.3222C248.884 54.414 241.922 49.9149 235.522 48.0634C232.828 47.1894 229.983 46.877 227.164 47.1457C221.428 48.0873 224.176 64.4436 232.725 67.8423Z" fill="url(#paint14_linear)"/>
<path opacity="0.2" d="M238.365 68.4893C244.297 67.615 248.705 62.3209 248.705 62.3209C248.884 54.4128 241.923 49.9137 235.522 48.0621C233.626 52.2925 231.229 60.9386 238.365 68.4893Z" fill="black"/>
<path d="M249.543 67.0163C248.063 72.1283 236.252 80.7255 221.604 84.6671C221.604 84.6671 238.831 85.1879 249.276 76.7716C259.721 68.3554 257.341 64.6681 251.041 60.2616L249.543 67.0163Z" fill="url(#paint15_linear)"/>
<path opacity="0.4" d="M249.543 67.0163C248.063 72.1283 236.252 80.7255 221.604 84.6671C221.604 84.6671 238.831 85.1879 249.276 76.7716C259.721 68.3554 257.341 64.6681 251.041 60.2616L249.543 67.0163Z" fill="url(#paint16_linear)"/>
<path d="M236.222 47.0835C224.743 43.6563 224.936 48.3984 217.399 54.4184C202.045 66.6822 137.096 50.6405 137.096 50.6405C137.096 50.6405 154.455 35.362 177.333 33.8116C200.212 32.2612 236.222 47.0835 236.222 47.0835Z" fill="url(#paint17_linear)"/>
<path opacity="0.4" d="M236.222 47.0835C224.743 43.6563 224.936 48.3984 217.399 54.4184C202.045 66.6822 137.096 50.6405 137.096 50.6405C137.096 50.6405 154.455 35.362 177.333 33.8116C200.212 32.2612 236.222 47.0835 236.222 47.0835Z" fill="url(#paint18_linear)"/>
<path d="M256.529 68.5075C256.529 68.5075 259.117 56.9554 244.461 47.3785C229.806 37.8015 212.416 49.5978 212.416 49.5978L218.483 50.3217L217.397 54.417C217.397 54.417 229.207 48.6015 238.45 51.4539C247.693 54.3064 249.541 67.0159 249.541 67.0159L254.423 63.8835L256.529 68.5075Z" fill="url(#paint19_linear)"/>
<path opacity="0.5" d="M256.529 68.5075C256.529 68.5075 259.117 56.9554 244.461 47.3785C229.806 37.8015 212.416 49.5978 212.416 49.5978L218.483 50.3217L217.397 54.417C217.397 54.417 229.207 48.6015 238.45 51.4539C247.693 54.3064 249.541 67.0159 249.541 67.0159L254.423 63.8835L256.529 68.5075Z" fill="url(#paint20_linear)"/>
<path d="M262.746 38.0908C262.746 38.0908 262.356 49.7502 255.526 52.9891C248.696 56.2279 252.629 35.1225 252.629 35.1225L262.746 38.0908Z" fill="#484D58"/>
<path d="M236.374 58.7434C237.288 60.8447 238.866 62.5882 240.866 63.7063C242.867 64.8245 245.178 65.2556 247.447 64.9335C250.389 64.5713 253.083 63.1025 254.981 60.8254C255.247 60.5094 255.497 60.1797 255.728 59.8378C259.981 53.4635 263.182 41.518 256.702 35.6104C255.277 34.2987 253.541 33.3734 251.657 32.9224C249.774 32.4714 247.806 32.5097 245.941 33.0337C244.077 33.5577 242.377 34.55 241.005 35.9162C239.632 37.2823 238.631 38.977 238.098 40.8389C235.688 48.7719 233.897 53.3214 236.374 58.7434Z" fill="url(#paint21_linear)"/>
<path d="M249.1 47.368C248.825 47.9794 249.009 48.6341 249.43 48.7884C249.851 48.9426 250.368 48.5455 250.605 47.9164C250.842 47.2872 250.687 46.6463 250.275 46.496C249.863 46.3457 249.341 46.7282 249.1 47.368Z" fill="#484D58"/>
<path d="M256.259 50.009C255.983 50.6202 256.177 51.2791 256.589 51.4294C257.002 51.5797 257.528 51.1866 257.765 50.5574C258.001 49.9283 257.846 49.2872 257.435 49.1371C257.023 48.9869 256.483 49.4056 256.259 50.009Z" fill="#484D58"/>
<path d="M253.87 49.4804C253.91 51.696 254.258 53.8952 254.901 56.0155C254.351 56.1667 253.773 56.1953 253.21 56.0993C252.647 56.0033 252.112 55.785 251.643 55.4598L253.87 49.4804Z" fill="#FFBCB0"/>
<path d="M247.734 44.2303C247.798 44.2645 247.871 44.2809 247.944 44.278C248.017 44.275 248.088 44.2528 248.149 44.2135C248.561 43.9359 249.033 43.7581 249.526 43.6943C250.018 43.6305 250.519 43.6824 250.989 43.8458C251.036 43.8672 251.087 43.8791 251.138 43.8808C251.19 43.8825 251.241 43.874 251.29 43.8558C251.338 43.8376 251.383 43.8101 251.42 43.7748C251.458 43.7395 251.488 43.6971 251.51 43.65C251.531 43.6029 251.543 43.5521 251.545 43.5005C251.546 43.4488 251.538 43.3973 251.52 43.3489C251.502 43.3005 251.474 43.2562 251.439 43.2185C251.403 43.1807 251.361 43.1503 251.314 43.129C250.726 42.9069 250.094 42.8288 249.47 42.9014C248.846 42.974 248.249 43.1952 247.728 43.5462C247.684 43.5728 247.645 43.6079 247.614 43.6495C247.584 43.691 247.561 43.7383 247.549 43.7884C247.536 43.8386 247.534 43.8908 247.542 43.9419C247.549 43.993 247.567 44.0421 247.594 44.0864L247.598 44.0948C247.636 44.1466 247.682 44.1923 247.734 44.2303Z" fill="#484D58"/>
<path d="M260.247 48.6749C260.306 48.7288 260.381 48.7625 260.461 48.7712C260.512 48.767 260.563 48.7527 260.608 48.729C260.654 48.7054 260.695 48.6729 260.729 48.6334C260.762 48.594 260.787 48.5483 260.803 48.4991C260.818 48.4498 260.824 48.398 260.82 48.3465L260.821 48.3385C260.774 47.7102 260.576 47.1027 260.244 46.5671C259.912 46.0315 259.456 45.5835 258.915 45.261C258.869 45.2371 258.819 45.2225 258.767 45.2181C258.716 45.2136 258.664 45.2194 258.615 45.235C258.565 45.2506 258.52 45.2759 258.48 45.3092C258.44 45.3426 258.408 45.3834 258.384 45.4294C258.339 45.5228 258.331 45.63 258.363 45.7288C258.394 45.8277 258.463 45.9107 258.554 45.9606C258.973 46.228 259.325 46.5898 259.581 47.017C259.836 47.4443 259.989 47.9253 260.026 48.4218C260.042 48.4774 260.071 48.5288 260.109 48.5725C260.147 48.6162 260.194 48.6511 260.247 48.6749Z" fill="#484D58"/>
<path d="M247.383 33.2422L246.708 36.8607C246.031 36.9568 245.414 37.3042 244.981 37.8339C244.548 38.3636 244.33 39.0368 244.371 39.7198C244.57 43.0058 241.473 47.0261 238.653 48.1293C238.653 48.1293 238.984 46.8374 237.817 46.8003C236.65 46.7632 234.153 52.5858 234.153 52.5858C234.153 52.5858 231.585 51.0978 231.991 43.5928C232.367 36.6514 235.963 33.5702 238.065 31.5052L247.383 33.2422Z" fill="#484D58"/>
<path d="M251.56 57.5766C250.923 58.3719 250.345 59.2124 249.83 60.0916C249.662 60.0293 249.492 59.9667 249.328 59.8958C247.065 58.9901 246.312 57.8266 246.164 56.8072C246.103 56.3079 246.162 55.8013 246.337 55.3296C246.427 55.0588 246.555 54.8018 246.717 54.5663C247.867 55.744 249.257 56.661 250.792 57.2554C251.258 57.4668 251.56 57.5766 251.56 57.5766Z" fill="#484D58"/>
<path d="M250.793 57.2564L250.263 57.9876C248.134 57.1327 246.748 56.2445 246.338 55.3326C246.428 55.0618 246.556 54.8049 246.717 54.5694C247.868 55.7463 249.258 56.6626 250.793 57.2564Z" fill="white"/>
<path d="M249.329 59.8961C247.065 58.9904 246.312 57.8269 246.165 56.8075C247.02 57.1668 247.805 57.675 248.483 58.3085C248.924 58.7363 249.219 59.2915 249.329 59.8961Z" fill="#ED827E"/>
<path d="M246.708 36.8605C249.506 36.8154 255.951 38.594 260.108 42.0065C260.108 42.0065 262.284 42.2802 264.38 37.815C266.477 33.3498 263.838 30.2056 262.756 30.5951C261.674 30.9847 263.628 32.2875 263.439 33.6234C263.439 33.6234 258.379 30.0971 258.305 26.8432C258.23 23.5892 256.232 22.1649 255.036 23.1633C253.84 24.1617 256.711 28.1387 256.711 28.1387C256.711 28.1387 252.663 27.4281 251.189 23.9195C249.714 20.4108 246.488 18.2018 245.328 19.2386C244.168 20.2753 248.455 22.2495 249.356 24.059C249.356 24.059 243.067 20.0138 239.709 21.365C236.35 22.7162 236.767 23.7173 238.929 23.6884C240.529 23.8358 242.047 24.4572 243.291 25.4729C243.291 25.4729 238.057 24.3643 235.633 26.1358C233.209 27.9073 231.201 26.1908 230.413 27.2563C229.625 28.3218 233.723 29.5876 233.723 29.5876C233.723 29.5876 230.977 31.0359 228.623 29.7088C226.269 28.3816 224.6 32.0718 230.806 32.1877C230.806 32.1877 229.8 36.1526 227.514 36.2341C225.227 36.3156 225.771 38.2228 227.385 38.2256C228.999 38.2285 230.869 36.5032 230.869 36.5032C230.869 36.5032 227.282 40.4495 228.072 42.2765C228.863 44.1035 230.577 40.5876 230.577 40.5876C230.577 40.5876 228.082 46.1035 228.888 46.5892C229.694 47.0748 231.205 45.1314 231.205 45.1314C231.205 45.1314 229.107 48.9156 230.623 49.9676C231.839 50.6768 233.187 51.1286 234.585 51.2953C234.585 51.2953 241.76 36.9403 246.708 36.8605Z" fill="#484D58"/>
<path d="M232.348 45.962C232.562 48.0399 233.59 49.9482 235.209 51.2688C237.365 53.0011 239.528 51.3332 239.845 48.7297C240.105 46.4136 239.335 42.6544 236.719 41.9595C234.103 41.2646 232.118 43.4073 232.348 45.962Z" fill="url(#paint22_linear)"/>
<path d="M208.758 38.185C208.758 38.185 207.001 51.2962 190.423 51.6983L172.45 37.1256L180.494 23.2538L208.758 38.185Z" fill="url(#paint23_linear)"/>
<path opacity="0.5" d="M208.758 38.185C208.758 38.185 207.001 51.2962 190.423 51.6983L172.45 37.1256L180.494 23.2538L208.758 38.185Z" fill="url(#paint24_linear)"/>
<circle cx="305" cy="259" r="4" fill="#9EA1EB"/>
<circle cx="228" cy="364" r="6" fill="#9EA1EB"/>
<path d="M9 286C13.9706 286 18 281.971 18 277C18 272.029 13.9706 268 9 268C4.02944 268 0 272.029 0 277C0 281.971 4.02944 286 9 286Z" fill="url(#paint25_linear)"/>
<defs>
<linearGradient id="paint0_linear" x1="180.751" y1="331.052" x2="110.121" y2="203.016" gradientUnits="userSpaceOnUse">
<stop stop-color="#EF8197"/>
<stop offset="0.942708" stop-color="#F7C58F"/>
</linearGradient>
<linearGradient id="paint1_linear" x1="176.803" y1="344.85" x2="165.478" y2="290.368" gradientUnits="userSpaceOnUse">
<stop stop-color="#EF8197"/>
<stop offset="0.942708" stop-color="#F7C58F"/>
</linearGradient>
<linearGradient id="paint2_linear" x1="181.151" y1="259.082" x2="164.102" y2="190.151" gradientUnits="userSpaceOnUse">
<stop stop-color="#EF8197"/>
<stop offset="0.942708" stop-color="#F7C58F"/>
</linearGradient>
<linearGradient id="paint3_linear" x1="272.158" y1="44.3442" x2="260.815" y2="97.4292" gradientUnits="userSpaceOnUse">
<stop offset="0.0625" stop-color="#FFC19E"/>
<stop offset="1" stop-color="white"/>
</linearGradient>
<linearGradient id="paint4_linear" x1="260.089" y1="28.5667" x2="281.272" y2="130.637" gradientUnits="userSpaceOnUse">
<stop offset="0.0625" stop-color="#FFC19E"/>
<stop offset="1" stop-color="white"/>
</linearGradient>
<linearGradient id="paint5_linear" x1="258.144" y1="56.4971" x2="244.305" y2="66.7056" gradientUnits="userSpaceOnUse">
<stop stop-color="#8177F7"/>
<stop offset="1" stop-color="#799FF8"/>
</linearGradient>
<linearGradient id="paint6_linear" x1="258.144" y1="56.4971" x2="244.305" y2="66.7056" gradientUnits="userSpaceOnUse">
<stop stop-color="#8177F7"/>
<stop offset="1" stop-color="#799FF8"/>
</linearGradient>
<linearGradient id="paint7_linear" x1="115.278" y1="155.86" x2="113.508" y2="165.803" gradientUnits="userSpaceOnUse">
<stop offset="0.0625" stop-color="#FFC19E"/>
<stop offset="1" stop-color="white"/>
</linearGradient>
<linearGradient id="paint8_linear" x1="187.071" y1="139.83" x2="125.509" y2="97.5069" gradientUnits="userSpaceOnUse">
<stop stop-color="#EB4BAC"/>
<stop offset="1" stop-color="#FCE1C2"/>
</linearGradient>
<linearGradient id="paint9_linear" x1="68.5267" y1="137.899" x2="64.592" y2="156.32" gradientUnits="userSpaceOnUse">
<stop offset="0.0625" stop-color="#FFC19E"/>
<stop offset="1" stop-color="white"/>
</linearGradient>
<linearGradient id="paint10_linear" x1="66.6918" y1="144.234" x2="68.796" y2="151.578" gradientUnits="userSpaceOnUse">
<stop offset="0.0625" stop-color="#FFC19E"/>
<stop offset="1" stop-color="white"/>
</linearGradient>
<linearGradient id="paint11_linear" x1="130.274" y1="135.392" x2="100.656" y2="86.3116" gradientUnits="userSpaceOnUse">
<stop stop-color="#EB4BAC"/>
<stop offset="1" stop-color="#FCE1C2"/>
</linearGradient>
<linearGradient id="paint12_linear" x1="215.509" y1="41.1925" x2="202.495" y2="102.122" gradientUnits="userSpaceOnUse">
<stop stop-color="#3B3E89"/>
<stop offset="1" stop-color="#262859"/>
</linearGradient>
<linearGradient id="paint13_linear" x1="154.212" y1="35.1029" x2="151.035" y2="26.4676" gradientUnits="userSpaceOnUse">
<stop offset="0.0625" stop-color="#FFC19E"/>
<stop offset="1" stop-color="white"/>
</linearGradient>
<linearGradient id="paint14_linear" x1="240.642" y1="58.5589" x2="227.098" y2="63.2702" gradientUnits="userSpaceOnUse">
<stop offset="0.0625" stop-color="#FFC19E"/>
<stop offset="1" stop-color="white"/>
</linearGradient>
<linearGradient id="paint15_linear" x1="248.371" y1="64.0098" x2="229.151" y2="86.4804" gradientUnits="userSpaceOnUse">
<stop stop-color="#8177F7"/>
<stop offset="1" stop-color="#799FF8"/>
</linearGradient>
<linearGradient id="paint16_linear" x1="248.371" y1="64.0098" x2="229.151" y2="86.4804" gradientUnits="userSpaceOnUse">
<stop stop-color="#8177F7"/>
<stop offset="1" stop-color="#799FF8"/>
</linearGradient>
<linearGradient id="paint17_linear" x1="209.428" y1="41.9454" x2="198.456" y2="70.456" gradientUnits="userSpaceOnUse">
<stop stop-color="#8177F7"/>
<stop offset="1" stop-color="#799FF8"/>
</linearGradient>
<linearGradient id="paint18_linear" x1="209.428" y1="41.9454" x2="198.456" y2="70.456" gradientUnits="userSpaceOnUse">
<stop stop-color="#8177F7"/>
<stop offset="1" stop-color="#799FF8"/>
</linearGradient>
<linearGradient id="paint19_linear" x1="247.003" y1="49.1839" x2="237.908" y2="68.6548" gradientUnits="userSpaceOnUse">
<stop stop-color="#8177F7"/>
<stop offset="1" stop-color="#799FF8"/>
</linearGradient>
<linearGradient id="paint20_linear" x1="247.003" y1="49.1839" x2="237.908" y2="68.6548" gradientUnits="userSpaceOnUse">
<stop stop-color="#8177F7"/>
<stop offset="1" stop-color="#799FF8"/>
</linearGradient>
<linearGradient id="paint21_linear" x1="225.46" y1="55.1736" x2="257.228" y2="55.3195" gradientUnits="userSpaceOnUse">
<stop offset="0.0625" stop-color="#FFC19E"/>
<stop offset="1" stop-color="white"/>
</linearGradient>
<linearGradient id="paint22_linear" x1="238.372" y1="40.0751" x2="235.093" y2="51.622" gradientUnits="userSpaceOnUse">
<stop offset="0.0625" stop-color="#FFC19E"/>
<stop offset="1" stop-color="white"/>
</linearGradient>
<linearGradient id="paint23_linear" x1="195.978" y1="30.2109" x2="186.572" y2="46.2828" gradientUnits="userSpaceOnUse">
<stop stop-color="#8177F7"/>
<stop offset="1" stop-color="#799FF8"/>
</linearGradient>
<linearGradient id="paint24_linear" x1="199.92" y1="31.1067" x2="185.032" y2="53.4077" gradientUnits="userSpaceOnUse">
<stop stop-color="#8177F7"/>
<stop offset="1" stop-color="#799FF8"/>
</linearGradient>
<linearGradient id="paint25_linear" x1="5.1039" y1="270.532" x2="13.6364" y2="286" gradientUnits="userSpaceOnUse">
<stop stop-color="#F29C96"/>
<stop offset="0.942708" stop-color="#F8D2BF"/>
</linearGradient>
</defs>
</svg>
