<svg width="305" height="369" viewBox="0 0 305 369" fill="none" xmlns="http://www.w3.org/2000/svg">
<path d="M214.939 27.5543C220.269 23.7129 225.565 19.8853 225.565 19.8853C225.565 19.8853 228.864 13.6289 230.634 11.8886C232.403 10.1482 238.368 14.1367 238.896 15.4986C239.423 16.8605 231.7 24.5247 231.7 24.5247L229.18 25.0564C229.18 25.0564 222.977 30.5489 217.35 35.5338L214.939 27.5543Z" fill="url(#paint0_linear)"/>
<path d="M169.064 46.8433C169.064 46.8433 183.879 44.0284 190.466 40.9687C197.052 37.909 222.555 21.292 222.555 21.292L225.36 29.6716C225.36 29.6716 202.301 50.2153 196.406 52.8948C190.511 55.5742 169.775 61.537 169.775 61.537L169.064 46.8433Z" fill="url(#paint1_linear)"/>
<path opacity="0.1" d="M169.78 61.5347C169.78 61.5347 177.464 59.3214 184.806 56.9824C189.514 55.4773 194.089 53.926 196.4 52.8828C202.3 50.2141 225.355 29.671 225.355 29.671L222.553 21.2842C222.553 21.2842 197.049 37.9082 190.47 40.9665C183.892 44.0249 169.065 46.8359 169.065 46.8359L169.499 55.6567L169.78 61.5347Z" fill="url(#paint2_linear)"/>
<path opacity="0.2" d="M169.78 61.5345C169.78 61.5345 177.464 59.3211 184.806 56.9821C181.161 55.6257 175.144 54.0622 169.499 55.6565L169.78 61.5345Z" fill="black"/>
<path d="M57.3536 61.9115L62.5852 58.2266L68.5763 64.9062L74.0612 71.0375L68.563 76.4225L62.625 68.7401L57.3536 61.9115Z" fill="url(#paint3_linear)"/>
<path d="M63.941 57.7721C64.3344 58.3579 56.9297 62.8978 56.9297 62.8978C56.9297 62.8978 49.4471 61.5356 44.51 63.5216C39.5729 65.5076 40.149 61.3004 44.8828 57.9665L56.5902 49.7184C59.9488 47.3501 59.8703 51.6945 63.941 57.7721Z" fill="#585979"/>
<path d="M51.9236 63.7112C51.6902 63.8508 51.5117 64.0662 51.4179 64.3215C51.3819 64.4868 51.3972 64.6592 51.4616 64.8156C51.5261 64.972 51.6368 65.1051 51.7788 65.197C51.8768 65.2802 51.991 65.3421 52.1142 65.3787C52.2374 65.4154 52.3669 65.4259 52.4944 65.4098C53.1418 65.2606 53.7345 64.9331 54.2054 64.4644C53.8467 65.1782 53.6053 65.9077 53.846 66.2946C54.0031 66.5466 54.3013 66.6361 54.7324 66.5622C54.9234 66.5333 55.1059 66.4631 55.2672 66.3568C55.4286 66.2504 55.5649 66.1103 55.6668 65.9461C56.3432 64.8739 55.7815 62.815 55.7521 62.7088C55.7441 62.6783 55.7296 62.6498 55.7094 62.6255C55.6945 62.6063 55.6762 62.5899 55.6554 62.5773C55.6342 62.564 55.6109 62.5544 55.5864 62.5488C55.557 62.5415 55.5264 62.5404 55.4965 62.5457C54.2469 62.7238 53.0379 63.1183 51.9236 63.7112ZM53.3978 64.5215C53.1229 64.7407 52.7986 64.8895 52.4532 64.9548C52.3864 64.965 52.3182 64.9609 52.2532 64.9428C52.1881 64.9247 52.1276 64.8931 52.0756 64.8501C51.808 64.6224 51.846 64.4877 51.8578 64.4421C52.0011 63.9331 53.5723 63.409 54.9278 63.115C54.4667 63.6343 53.9541 64.1056 53.3978 64.5215ZM55.035 65.9645C54.9215 66.0433 54.7914 66.095 54.6548 66.1157C54.5255 66.1376 54.299 66.1609 54.2347 66.0582C54.0286 65.7263 54.6531 64.4622 55.4215 63.3239C55.633 64.1111 55.5832 64.9456 55.2795 65.702C55.2158 65.8036 55.1324 65.8913 55.0342 65.96L55.035 65.9645Z" fill="url(#paint4_linear)"/>
<path opacity="0.2" d="M62.5111 68.5828L68.4739 64.7619L74.0108 70.9704L68.5369 76.3913L62.5111 68.5828Z" fill="black"/>
<path d="M63.475 71.5164C63.475 71.5164 68.2845 77.6046 74.5883 84.9421C80.0078 91.3933 85.7747 97.5445 91.8634 103.368C91.9843 103.474 92.0942 103.581 92.2021 103.678C94.2312 105.613 96.4465 107.343 98.8157 108.843C104.178 111.961 112.06 111.193 119.634 108.734C127.455 106.177 134.935 101.809 138.952 98.0365C142.269 94.9983 145.164 91.5301 147.562 87.7243L139.349 73.3508C139.349 73.3508 125.956 79.4959 104.398 92.7491C104.224 92.8702 104.036 92.9821 103.849 93.0939L90.8324 82.1097L72.4447 66.599L63.475 71.5164Z" fill="url(#paint5_linear)"/>
<path d="M73.5854 66.917L63.3206 72.8265L62.0135 70.9485L71.757 65.5223L73.5854 66.917Z" fill="url(#paint6_linear)"/>
<path opacity="0.2" d="M92.2022 103.678C94.2313 105.613 96.4466 107.343 98.8158 108.843C104.179 111.961 112.06 111.193 119.634 108.734C122.933 105 125.676 100.811 127.78 96.2941L137.018 93.2617L127.299 92.553L92.2022 103.678Z" fill="black"/>
<path opacity="0.2" d="M73.5854 66.917L63.3206 72.8265L62.0135 70.9485L71.757 65.5223L73.5854 66.917Z" fill="url(#paint7_linear)"/>
<path opacity="0.2" d="M74.5885 84.9424C80.008 91.3936 85.7749 97.5448 91.8635 103.369L105.553 94.2966L104.398 92.7494C104.224 92.8705 104.037 92.9824 103.849 93.0942L90.8326 82.1099C86.7945 82.6996 80.8138 83.6628 74.5885 84.9424Z" fill="black"/>
<path d="M24.7688 95.3099L27.0024 89.3171L35.7207 91.4415L43.7146 93.4027L42.2218 100.953L32.9806 97.9714L24.7688 95.3099Z" fill="url(#paint8_linear)"/>
<path d="M27.8678 88.1709C28.524 88.4326 24.9808 96.3634 24.9808 96.3634C24.9808 96.3634 18.0374 99.4672 15.0875 103.897C12.1375 108.327 10.2359 104.529 12.2557 99.1029C14.2754 93.6768 15.8176 89.537 17.2518 85.6812C18.6861 81.8255 21.07 85.4599 27.8678 88.1709Z" fill="#585979"/>
<path d="M21.3065 99.8632C21.1933 100.11 21.1679 100.389 21.2345 100.652C21.3045 100.857 21.5003 101.114 22.0268 101.171C22.1549 101.183 22.2843 101.169 22.4065 101.129C22.5288 101.088 22.6413 101.023 22.7368 100.937C23.1869 100.446 23.4907 99.8386 23.6136 99.184C23.7207 99.9751 23.9335 100.713 24.3502 100.894C24.508 100.945 24.6781 100.946 24.8365 100.896C24.9949 100.846 25.1334 100.747 25.2325 100.614C25.3737 100.481 25.4843 100.32 25.5567 100.14C25.6291 99.9603 25.6615 99.7671 25.6518 99.5736C25.6043 98.3072 23.9775 96.9255 23.8934 96.8549C23.8696 96.8343 23.8416 96.8191 23.8114 96.8103C23.788 96.8027 23.7634 96.7999 23.7389 96.8019C23.7139 96.8021 23.6891 96.8062 23.6654 96.8143C23.6372 96.8255 23.6116 96.8423 23.59 96.8637C22.66 97.7229 21.8872 98.738 21.3065 99.8632ZM22.9801 99.6955C22.8763 100.032 22.692 100.339 22.4431 100.588C22.3934 100.634 22.3346 100.669 22.2706 100.691C22.2066 100.713 22.1388 100.721 22.0714 100.715C21.7213 100.678 21.6783 100.545 21.663 100.502C21.4903 100.002 22.4926 98.6809 23.4445 97.6721C23.3586 98.3616 23.2032 99.0406 22.9807 99.6988L22.9801 99.6955ZM25.1445 99.9561C25.0948 100.085 25.0164 100.202 24.9153 100.296C24.8165 100.39 24.6473 100.535 24.5359 100.486C24.1781 100.329 23.9793 98.9332 23.9699 97.5594C24.5889 98.0899 25.0194 98.8066 25.1971 99.6022C25.2034 99.7236 25.1858 99.845 25.145 99.9594L25.1445 99.9561Z" fill="url(#paint9_linear)"/>
<path opacity="0.2" d="M32.7942 97.8983L35.5537 91.3754L43.6289 93.3631L42.1775 100.928L32.7942 97.8983Z" fill="black"/>
<path d="M138.811 70.198C138.811 70.198 117.668 66.1263 80.7467 94.75L39.8686 90.6443L35.2452 99.775C35.2452 99.775 72.9404 111.508 85.5042 110.59C98.0679 109.673 126.897 93.8298 126.897 93.8298L150.415 83.3587L138.811 70.198Z" fill="url(#paint10_linear)"/>
<path d="M41.5833 89.8511L39.243 90.2459L34.0738 100.101L36.6423 101.059L41.5833 89.8511Z" fill="url(#paint11_linear)"/>
<path opacity="0.2" d="M41.5833 89.8511L39.243 90.2459L34.0738 100.101L36.6423 101.059L41.5833 89.8511Z" fill="url(#paint12_linear)"/>
<path d="M119.406 71.1574C119.406 71.1574 126.303 89.5662 141.31 90.0278C143.685 90.132 146.058 89.7868 148.305 89.0103C150.438 88.2192 152.395 87.0157 154.063 85.4683C155.732 83.921 157.079 82.0602 158.028 79.9922C158.624 78.8147 159.087 77.5749 159.41 76.2954L136.547 69.1765L134.663 68.5833C131.843 68.4812 129.02 68.5917 126.217 68.9136C123.491 69.2591 120.811 69.9222 119.406 71.1574Z" fill="url(#paint13_linear)"/>
<path opacity="0.2" d="M119.406 71.1574C119.406 71.1574 126.303 89.5662 141.31 90.0278C143.685 90.132 146.058 89.7868 148.305 89.0103C150.438 88.2192 152.395 87.0157 154.063 85.4683C155.732 83.921 157.079 82.0602 158.028 79.9922C158.624 78.8147 159.087 77.5749 159.41 76.2954L136.547 69.1765L134.663 68.5833C131.843 68.4812 129.02 68.5917 126.217 68.9136C123.491 69.2591 120.811 69.9222 119.406 71.1574Z" fill="url(#paint14_linear)"/>
<path opacity="0.2" d="M134.392 81.274C139.328 85.0464 143.783 87.6816 148.305 89.0125C150.439 88.2214 152.395 87.0178 154.064 85.4705C155.732 83.9231 157.079 82.0623 158.028 79.9943C151.07 75.9988 143.898 72.388 136.544 69.1781L134.659 68.5849C131.84 68.4828 129.017 68.5932 126.214 68.9152C125.704 71.8024 127.519 76.0245 134.392 81.274Z" fill="black"/>
<path d="M172.242 46.3342C158.864 44.9319 145.344 46.7536 132.813 51.6469C132.813 51.6469 127.681 64.7008 127.041 74.4248C127.041 74.4248 141.041 89.0162 156.262 85.9415C171.483 82.8668 172.242 46.3342 172.242 46.3342Z" fill="url(#paint15_linear)"/>
<path opacity="0.2" d="M127.037 74.4196C127.037 74.4196 141.04 89.0082 156.258 85.9363C171.476 82.8644 172.244 46.3338 172.244 46.3338C158.864 44.9321 145.343 46.7537 132.811 51.6461C130.416 57.8694 128.616 64.3055 127.435 70.8682C127.25 72.08 127.107 73.2731 127.037 74.4196Z" fill="url(#paint16_linear)"/>
<path opacity="0.2" d="M127.435 70.8684C133.513 66.4733 134.754 55.2152 132.811 51.6463C130.416 57.8696 128.616 64.3057 127.435 70.8684Z" fill="black"/>
<path d="M171.231 29.3133C171.231 29.3133 168.932 8.60102 151.778 16.5921C130.246 26.6239 148.218 51.462 158.721 45.9912C169.225 40.5204 171.231 29.3133 171.231 29.3133Z" fill="#585979"/>
<path d="M144.883 50.5969C144.883 50.5969 150.89 61.2877 157.836 59.3581C159.676 58.8404 161.346 57.8451 162.677 56.4732C164.007 55.1013 164.951 53.4016 165.412 51.5469C165.515 51.187 165.594 50.821 165.65 50.4511C165.65 50.4511 161.869 49.9866 163.621 46.4474L153.608 41.0663C153.778 42.015 153.892 42.9729 153.949 43.9349C154.027 45.6489 153.896 47.5989 152.931 48.2511C151.105 49.4886 144.883 50.5969 144.883 50.5969Z" fill="url(#paint17_linear)"/>
<path opacity="0.2" d="M153.949 43.9334C155.348 47.852 158.622 53.6607 165.412 51.5454C165.515 51.1855 165.594 50.8196 165.65 50.4497C165.65 50.4497 161.869 49.9851 163.621 46.4459L153.608 41.0648C153.778 42.0136 153.892 42.9714 153.949 43.9334Z" fill="black"/>
<path d="M157.619 20.7962C165.445 18.8511 169.009 22.4137 171.585 30.3378C174.807 40.2376 174.352 47.9544 164.031 48.2311C150.018 48.6149 144.621 24.0276 157.619 20.7962Z" fill="url(#paint18_linear)"/>
<path d="M166.417 31.1573C167.335 32.1714 168.372 33.0712 169.505 33.8374C169.356 34.2175 169.106 34.5491 168.78 34.7957C168.455 35.0423 168.068 35.1943 167.662 35.2349L166.417 31.1573Z" fill="#D4827D"/>
<path d="M161.467 31.7092C161.643 32.3478 161.439 32.961 161.01 33.0779C160.582 33.1949 160.097 32.7736 159.922 32.1315C159.748 31.4893 159.951 30.8797 160.379 30.7627C160.808 30.6457 161.293 31.0693 161.467 31.7092Z" fill="#585979"/>
<path d="M160.21 30.8415L161.451 29.9158C161.451 29.9158 161.075 31.2754 160.21 30.8415Z" fill="#585979"/>
<path d="M169.375 29.3971C169.55 30.037 169.346 30.6491 168.919 30.7659C168.491 30.8826 168.005 30.4615 167.829 29.8196C167.653 29.1776 167.859 28.5676 168.286 28.4508C168.713 28.334 169.201 28.763 169.375 29.3971Z" fill="#585979"/>
<path d="M168.119 28.5351L169.36 27.6094C169.36 27.6094 168.989 28.9683 168.119 28.5351Z" fill="#585979"/>
<path d="M160.045 26.3239C159.408 26.4025 158.798 26.626 158.261 26.9773C157.725 27.3285 157.276 27.7981 156.949 28.35" stroke="#585979" stroke-width="0.725" stroke-linecap="round" stroke-linejoin="round"/>
<path d="M165.652 24.579C166.153 24.3106 166.708 24.1593 167.276 24.1363C167.843 24.1134 168.409 24.2194 168.93 24.4464" stroke="#585979" stroke-width="0.725" stroke-linecap="round" stroke-linejoin="round"/>
<path d="M152.345 36.1133C152.345 36.1133 154.406 28.7744 152.617 23.9472C152.617 23.9472 166.551 13.7556 171.23 29.3076C171.23 29.3076 169.267 14.9524 155.739 17.9855C142.23 21.0144 145.553 40.9166 153.96 45.0534C153.96 45.0534 151.081 40.698 152.345 36.1133Z" fill="#585979"/>
<path d="M154.035 37.448C153.734 36.5614 153.094 35.8301 152.255 35.4144C151.416 34.9987 150.446 34.9324 149.558 35.2302C147.199 36.097 147.281 41.3635 153.612 41.061C154.52 41.0177 154.797 40.0506 154.035 37.448Z" fill="#FFE3DF"/>
<path d="M169.143 38.1897C168.962 39.1591 168.851 40.1404 168.811 41.1259C168.639 41.1493 168.467 41.1736 168.295 41.1879C165.949 41.4484 164.775 40.7938 164.185 39.9901C163.905 39.5918 163.725 39.132 163.66 38.6495C163.613 38.3775 163.605 38.1004 163.636 37.8261C165.155 38.3083 166.759 38.4584 168.341 38.2665C168.836 38.2347 169.143 38.1897 169.143 38.1897Z" fill="#585979"/>
<path d="M168.342 38.2659L168.222 39.1286C166.013 39.3695 164.426 39.2419 163.66 38.6491C163.613 38.3771 163.605 38.0999 163.635 37.8257C165.155 38.3079 166.76 38.458 168.342 38.2659Z" fill="white"/>
<path d="M168.295 41.1877C165.949 41.4482 164.775 40.7935 164.185 39.9899C165.079 39.9081 165.98 39.9851 166.846 40.2172C167.419 40.3811 167.925 40.7206 168.295 41.1877Z" fill="#DE5753"/>
<path d="M144.284 24.8183C144.284 24.8183 142.116 18.6856 134.695 19.9377C127.274 21.1897 127.006 25.4275 120.838 26.9415C114.671 28.4554 110.412 24.7144 109.842 21.3344C109.842 21.3344 108.131 23.2861 109.73 26.4925C108.824 25.6544 108.255 24.5141 108.131 23.2861C108.131 23.2861 105.899 27.9778 111.276 33.8672C116.652 39.7566 126.541 38.3839 130.147 35.8602C139.321 29.4425 144.112 32.3029 144.112 32.3029L144.284 24.8183Z" fill="#585979"/>
<path d="M143.282 31.4099C143.282 31.4099 139.329 29.0363 132.428 34.7061C125.527 40.3759 116.567 41.9173 113.217 37.7445" stroke="#585979" stroke-width="0.5" stroke-linecap="round" stroke-linejoin="round"/>
<path d="M113.281 47.9261C119.474 45.735 125.635 43.5495 125.635 43.5495C125.635 43.5495 130.557 38.4726 132.75 37.3061C134.943 36.1395 139.54 41.6366 139.663 43.0932C139.786 44.5497 130.22 49.7294 130.22 49.7294L127.653 49.5311C127.653 49.5311 120.155 53.0585 113.354 56.2667L113.281 47.9261Z" fill="url(#paint19_linear)"/>
<path d="M118.742 45.4L121.112 54.0751L132.813 51.6425C132.813 51.6425 134.537 64.2936 127.827 68.6142C127.827 68.6142 97.298 68.8174 94.7146 63.573C92.1312 58.3287 97.3551 51.6777 118.742 45.4Z" fill="url(#paint20_linear)"/>
<path opacity="0.1" d="M94.7208 63.574C97.3008 68.8121 127.823 68.6135 127.823 68.6135C134.533 64.2952 132.811 51.6459 132.811 51.6459L125.559 53.1561L121.107 54.0791L118.738 45.4016C97.3557 51.6797 92.1277 58.3268 94.7208 63.574Z" fill="url(#paint21_linear)"/>
<path opacity="0.2" d="M109.4 59.3442C109.4 59.3442 117.65 59.0639 121.647 57.2779C122.56 56.9171 123.383 56.3614 124.058 55.6495C124.734 54.9377 125.246 54.0868 125.559 53.1565L121.107 54.0795L109.4 59.3442Z" fill="black"/>
<path d="M58 243.489C58.0051 217.666 67.8546 192.817 85.5425 174.001C103.23 155.186 127.426 143.819 153.203 142.217C178.979 140.614 204.397 148.896 224.279 165.376C244.162 181.856 257.015 205.294 260.219 230.917C262.721 250.965 259.181 271.304 250.051 289.328C239.753 309.699 222.886 326.002 202.176 335.605C181.466 345.207 158.123 347.547 135.919 342.248C113.715 336.948 93.9463 324.317 79.8076 306.397C65.6688 288.477 57.9858 266.314 58 243.489Z" fill="url(#paint22_linear)"/>
<path d="M66.7053 284.68C115.764 309.855 132.585 299.297 185 280.618C214.956 269.932 236.822 279.32 250.048 289.326C241.373 306.455 228.018 320.772 211.531 330.617C195.045 340.461 176.104 345.429 156.908 344.942C137.712 344.456 119.047 338.536 103.081 327.869C87.1144 317.202 74.5012 302.227 66.7053 284.68Z" fill="url(#paint23_linear)"/>
<path d="M61.9001 215.457C68.3642 192.984 82.3894 173.432 101.606 160.104C120.822 146.776 144.051 140.489 167.367 142.307C190.683 144.125 212.657 153.935 229.575 170.08C246.492 186.225 257.317 207.715 260.22 230.918C251.294 222.501 240.732 216.01 229.19 211.848C217.648 207.686 205.373 205.944 193.129 206.728C139.779 209.864 98.777 247.552 61.9001 215.457Z" fill="url(#paint24_linear)"/>
<circle cx="301" cy="147" r="4" fill="#9EA1EB"/>
<circle cx="211" cy="363" r="6" fill="#9EA1EB"/>
<defs>
<linearGradient id="paint0_linear" x1="216.495" y1="26.9339" x2="232.173" y2="32.16" gradientUnits="userSpaceOnUse">
<stop offset="0.0625" stop-color="#FFC19E"/>
<stop offset="1" stop-color="white"/>
</linearGradient>
<linearGradient id="paint1_linear" x1="207.823" y1="28.1869" x2="204.192" y2="61.3104" gradientUnits="userSpaceOnUse">
<stop stop-color="#5FA8ED"/>
<stop offset="1" stop-color="#7ED5B7"/>
</linearGradient>
<linearGradient id="paint2_linear" x1="207.821" y1="28.1801" x2="204.186" y2="61.3094" gradientUnits="userSpaceOnUse">
<stop stop-color="#5FA8ED"/>
<stop offset="1" stop-color="#7ED5B7"/>
</linearGradient>
<linearGradient id="paint3_linear" x1="72.5774" y1="69.949" x2="56.8992" y2="64.7229" gradientUnits="userSpaceOnUse">
<stop offset="0.0625" stop-color="#FFC19E"/>
<stop offset="1" stop-color="white"/>
</linearGradient>
<linearGradient id="paint4_linear" x1="54.5431" y1="63.2504" x2="53.5322" y2="67.0294" gradientUnits="userSpaceOnUse">
<stop stop-color="#5FA8ED"/>
<stop offset="1" stop-color="#7ED5B7"/>
</linearGradient>
<linearGradient id="paint5_linear" x1="120.757" y1="65.5727" x2="112.133" y2="117.801" gradientUnits="userSpaceOnUse">
<stop stop-color="#8177F7"/>
<stop offset="1" stop-color="#799FF8"/>
</linearGradient>
<linearGradient id="paint6_linear" x1="70.0638" y1="66.6354" x2="69.4885" y2="72.8918" gradientUnits="userSpaceOnUse">
<stop stop-color="#5FA8ED"/>
<stop offset="1" stop-color="#7ED5B7"/>
</linearGradient>
<linearGradient id="paint7_linear" x1="70.0638" y1="66.6354" x2="69.4885" y2="72.8918" gradientUnits="userSpaceOnUse">
<stop stop-color="#5FA8ED"/>
<stop offset="1" stop-color="#7ED5B7"/>
</linearGradient>
<linearGradient id="paint8_linear" x1="41.221" y1="92.0584" x2="35.5448" y2="102.08" gradientUnits="userSpaceOnUse">
<stop offset="0.0625" stop-color="#FFC19E"/>
<stop offset="1" stop-color="white"/>
</linearGradient>
<linearGradient id="paint9_linear" x1="23.9831" y1="97.3613" x2="22.7098" y2="101.384" gradientUnits="userSpaceOnUse">
<stop stop-color="#5FA8ED"/>
<stop offset="1" stop-color="#7ED5B7"/>
</linearGradient>
<linearGradient id="paint10_linear" x1="115.969" y1="77.4029" x2="116.511" y2="113.172" gradientUnits="userSpaceOnUse">
<stop stop-color="#8177F7"/>
<stop offset="1" stop-color="#799FF8"/>
</linearGradient>
<linearGradient id="paint11_linear" x1="39.2755" y1="91.7001" x2="35.5927" y2="100.725" gradientUnits="userSpaceOnUse">
<stop stop-color="#5FA8ED"/>
<stop offset="1" stop-color="#7ED5B7"/>
</linearGradient>
<linearGradient id="paint12_linear" x1="39.2755" y1="91.7001" x2="35.5927" y2="100.725" gradientUnits="userSpaceOnUse">
<stop stop-color="#5FA8ED"/>
<stop offset="1" stop-color="#7ED5B7"/>
</linearGradient>
<linearGradient id="paint13_linear" x1="147.042" y1="68.7645" x2="143.01" y2="93.6722" gradientUnits="userSpaceOnUse">
<stop stop-color="#5FA8ED"/>
<stop offset="1" stop-color="#7ED5B7"/>
</linearGradient>
<linearGradient id="paint14_linear" x1="147.042" y1="68.7645" x2="143.01" y2="93.6722" gradientUnits="userSpaceOnUse">
<stop stop-color="#5FA8ED"/>
<stop offset="1" stop-color="#7ED5B7"/>
</linearGradient>
<linearGradient id="paint15_linear" x1="158.884" y1="51.0917" x2="148.893" y2="90.3209" gradientUnits="userSpaceOnUse">
<stop stop-color="#5FA8ED"/>
<stop offset="1" stop-color="#7ED5B7"/>
</linearGradient>
<linearGradient id="paint16_linear" x1="158.885" y1="51.0906" x2="148.898" y2="90.3166" gradientUnits="userSpaceOnUse">
<stop stop-color="#5FA8ED"/>
<stop offset="1" stop-color="#7ED5B7"/>
</linearGradient>
<linearGradient id="paint17_linear" x1="159.812" y1="42.2108" x2="156.793" y2="59.5694" gradientUnits="userSpaceOnUse">
<stop offset="0.0625" stop-color="#FFC19E"/>
<stop offset="1" stop-color="white"/>
</linearGradient>
<linearGradient id="paint18_linear" x1="144.938" y1="50.6525" x2="173.078" y2="28.1402" gradientUnits="userSpaceOnUse">
<stop offset="0.0625" stop-color="#FFC19E"/>
<stop offset="1" stop-color="white"/>
</linearGradient>
<linearGradient id="paint19_linear" x1="114.386" y1="46.6324" x2="127.227" y2="53.9261" gradientUnits="userSpaceOnUse">
<stop offset="0.0625" stop-color="#FFC19E"/>
<stop offset="1" stop-color="white"/>
</linearGradient>
<linearGradient id="paint20_linear" x1="120.84" y1="48.5277" x2="116.739" y2="74.11" gradientUnits="userSpaceOnUse">
<stop stop-color="#5FA8ED"/>
<stop offset="1" stop-color="#7ED5B7"/>
</linearGradient>
<linearGradient id="paint21_linear" x1="120.84" y1="48.5284" x2="116.739" y2="74.1081" gradientUnits="userSpaceOnUse">
<stop stop-color="#5FA8ED"/>
<stop offset="1" stop-color="#7ED5B7"/>
</linearGradient>
<linearGradient id="paint22_linear" x1="203.439" y1="316.46" x2="107.212" y2="142.021" gradientUnits="userSpaceOnUse">
<stop stop-color="#8177F7"/>
<stop offset="1" stop-color="#799FF8"/>
</linearGradient>
<linearGradient id="paint23_linear" x1="198.061" y1="335.255" x2="182.632" y2="261.028" gradientUnits="userSpaceOnUse">
<stop stop-color="#8177F7"/>
<stop offset="1" stop-color="#799FF8"/>
</linearGradient>
<linearGradient id="paint24_linear" x1="203.986" y1="218.408" x2="180.758" y2="124.494" gradientUnits="userSpaceOnUse">
<stop stop-color="#8177F7"/>
<stop offset="1" stop-color="#799FF8"/>
</linearGradient>
</defs>
</svg>
