<svg width="471" height="724" viewBox="0 0 471 724" fill="none" xmlns="http://www.w3.org/2000/svg">
<path d="M276.444 51.2334L277.494 46.3187C277.655 45.554 277.995 44.8381 278.484 44.2288C278.973 43.6194 279.599 43.1338 280.311 42.811C281.023 42.4883 281.801 42.3376 282.581 42.371C283.362 42.4044 284.124 42.621 284.806 43.0033L284.839 43.022C288.658 45.2097 290.648 84.7472 290.648 84.7472C290.648 84.7472 295.866 93.7416 295.531 95.2448C295.196 96.748 287.644 100.086 286.927 98.4678C286.209 96.8496 280.997 91.7837 281.205 89.1852C281.412 86.5868 284.42 84.4524 284.42 84.4524C284.42 84.4524 278.14 57.8364 276.444 51.2334Z" fill="url(#paint0_linear)"/>
<path opacity="0.1" d="M276.444 51.2334L277.494 46.3187C277.655 45.554 277.995 44.8381 278.484 44.2288C278.973 43.6194 279.599 43.1338 280.311 42.811C281.023 42.4883 281.801 42.3376 282.581 42.371C283.362 42.4044 284.124 42.621 284.806 43.0033L284.839 43.022C288.658 45.2097 290.648 84.7472 290.648 84.7472C290.648 84.7472 295.866 93.7416 295.531 95.2448C295.196 96.748 287.644 100.086 286.927 98.4678C286.209 96.8496 280.997 91.7837 281.205 89.1852C281.412 86.5868 284.42 84.4524 284.42 84.4524C284.42 84.4524 278.14 57.8364 276.444 51.2334Z" fill="url(#paint1_linear)"/>
<path d="M273.018 73.4115L280.092 64.4432C280.092 64.4432 283.086 55.8604 275.524 52.9881L269.371 53.7847L273.018 73.4115Z" fill="url(#paint2_linear)"/>
<path opacity="0.5" d="M273.018 73.4115L280.092 64.4432C280.092 64.4432 283.086 55.8604 275.524 52.9881L269.371 53.7847L273.018 73.4115Z" fill="url(#paint3_linear)"/>
<path d="M124.7 155.938L126.016 164.202L145.27 161.838L143.953 153.564L124.7 155.938Z" fill="url(#paint4_linear)"/>
<path d="M126.479 164.665L130.81 155.468C130.88 155.317 130.897 155.147 130.858 154.985C130.819 154.823 130.726 154.679 130.594 154.577L124.554 149.91C124.293 149.713 123.964 149.628 123.64 149.672C123.316 149.717 123.023 149.888 122.824 150.148C122.77 150.221 122.723 150.299 122.685 150.382C121.332 153.381 120.495 155.635 118.735 159.372C117.651 161.674 114.14 168.505 112.643 171.686C111.145 174.867 114.093 176.758 114.993 175.593C119.012 170.355 122.843 166.793 125.398 165.714C125.88 165.516 126.267 165.141 126.479 164.665Z" fill="#484D58"/>
<path d="M123.97 166.544C123.687 167.04 123.582 167.617 123.671 168.18C123.72 168.374 123.818 168.552 123.956 168.697C124.093 168.842 124.266 168.95 124.457 169.009C124.56 169.062 124.677 169.082 124.792 169.07C124.907 169.057 125.016 169.011 125.106 168.937C125.933 168.303 125.583 165.15 125.536 164.798C125.535 164.759 125.521 164.722 125.497 164.692C125.474 164.662 125.441 164.64 125.404 164.63C125.366 164.618 125.325 164.617 125.286 164.627C125.248 164.638 125.213 164.659 125.186 164.689C124.714 165.261 124.306 165.883 123.97 166.544ZM125.01 168.41C124.979 168.493 124.924 168.566 124.853 168.619C124.831 168.667 124.731 168.692 124.586 168.635C124.46 168.594 124.346 168.523 124.253 168.428C124.161 168.333 124.093 168.217 124.055 168.09C124.069 167.059 124.475 166.072 125.19 165.33C125.325 166.358 125.263 167.404 125.005 168.409L125.01 168.41Z" fill="#407BFF"/>
<path d="M125.157 164.738L125.116 164.824C125.173 165.804 126.127 168.101 126.999 168.323C127.145 168.359 127.299 168.344 127.435 168.279C127.571 168.214 127.68 168.104 127.743 167.968C127.825 167.841 127.879 167.697 127.901 167.547C127.923 167.397 127.913 167.244 127.871 167.098C127.57 165.886 125.48 164.678 125.379 164.619C125.347 164.603 125.311 164.595 125.275 164.597C125.24 164.599 125.205 164.609 125.174 164.628C125.157 164.662 125.151 164.7 125.157 164.738ZM127.513 167.706L127.472 167.793C127.364 168.024 127.221 167.98 127.167 167.967C126.63 167.832 125.823 166.275 125.602 165.218C126.441 165.675 127.12 166.376 127.549 167.229C127.594 167.387 127.579 167.555 127.508 167.703L127.513 167.706Z" fill="#407BFF"/>
<path opacity="0.2" d="M143.943 153.565L145.26 161.839L135.331 163.054L134.014 154.78L143.943 153.565Z" fill="black"/>
<path d="M135.216 153.071L139.21 164.415C139.21 164.415 183.585 163.698 195.63 149.606C204.591 139.129 211.311 117.798 214.167 107.538C215.157 103.992 215.684 101.772 215.684 101.772L225.713 80.958L186.573 77.1256C186.573 77.1256 188.811 101.531 186.505 119.392C185.592 126.437 183.979 132.457 181.236 135.565C171.541 146.561 135.216 153.071 135.216 153.071Z" fill="url(#paint5_linear)"/>
<path opacity="0.2" d="M186.573 77.1256C186.573 77.1256 188.811 101.531 186.505 119.392C190.61 115.514 193.873 110.833 196.092 105.64C200.979 107.37 208.575 107.631 214.167 107.538C215.157 103.992 215.684 101.772 215.684 101.772L225.713 80.958L186.573 77.1256Z" fill="black"/>
<path d="M75.9167 148.205L80.2144 155.385L97.2018 146.021L92.8985 138.833L75.9167 148.205Z" fill="url(#paint6_linear)"/>
<path d="M80.8193 155.64L81.4137 145.49C81.4228 145.324 81.3751 145.159 81.2785 145.024C81.1819 144.888 81.042 144.789 80.8819 144.743L73.5386 142.661C73.2229 142.576 72.8862 142.619 72.6021 142.781C72.318 142.942 72.1095 143.21 72.022 143.525C71.998 143.614 71.9836 143.704 71.979 143.796C71.8406 147.082 71.9024 149.486 71.6604 153.609C71.5114 156.149 70.7973 163.796 70.5917 167.304C70.386 170.811 73.8241 171.471 74.226 170.054C76.0062 163.696 78.235 158.964 80.2047 157.011C80.5779 156.65 80.798 156.159 80.8193 155.64Z" fill="#484D58"/>
<path d="M79.1919 158.317C79.1136 158.882 79.2302 159.457 79.5225 159.946C79.6405 160.108 79.798 160.237 79.9798 160.32C80.1617 160.404 80.3619 160.439 80.5614 160.424C80.6764 160.433 80.7917 160.409 80.8933 160.354C80.9949 160.3 81.0785 160.217 81.1339 160.115C81.6663 159.219 80.1658 156.426 79.9929 156.113C79.9773 156.078 79.9505 156.048 79.9165 156.029C79.8826 156.009 79.8433 156.002 79.8046 156.007C79.7647 156.01 79.7266 156.025 79.6949 156.049C79.6633 156.074 79.6394 156.107 79.6263 156.145C79.4015 156.85 79.2558 157.579 79.1919 158.317ZM80.851 159.661C80.8533 159.75 80.8298 159.838 80.7833 159.914C80.7804 159.967 80.7023 160.026 80.5417 160.027C80.4094 160.036 80.2769 160.013 80.1555 159.959C80.0342 159.906 79.9277 159.824 79.8453 159.72C79.4757 158.758 79.4847 157.691 79.8706 156.735C80.3813 157.639 80.7141 158.632 80.851 159.661Z" fill="#407BFF"/>
<path d="M79.6127 156.198L79.607 156.294C80.0242 157.182 81.7653 158.957 82.6569 158.845C82.8058 158.824 82.9428 158.751 83.0446 158.641C83.1464 158.53 83.2067 158.387 83.2152 158.237C83.2432 158.088 83.2393 157.935 83.2038 157.787C83.1684 157.64 83.1021 157.502 83.0093 157.382C82.276 156.369 79.8888 156.027 79.7732 156.009C79.7374 156.007 79.7015 156.013 79.6688 156.028C79.6362 156.043 79.6077 156.066 79.5861 156.095C79.5847 156.131 79.5939 156.167 79.6127 156.198ZM82.9056 158.076L82.9008 158.172C82.8856 158.426 82.7383 158.439 82.6828 158.442C82.134 158.516 80.8007 157.371 80.2063 156.472C81.1549 156.584 82.0469 156.982 82.7636 157.614C82.8655 157.745 82.9156 157.909 82.9045 158.075L82.9056 158.076Z" fill="#407BFF"/>
<path opacity="0.2" d="M92.8946 138.835L97.1979 146.023L88.4343 150.847L84.1311 143.658L92.8946 138.835Z" fill="url(#paint7_linear)"/>
<path d="M86.9315 139.581L94.4294 151.42C94.4294 151.42 136.786 136.044 153.16 123.869C160.098 118.712 186.84 94.6605 193.231 88.9014C194.12 88.0992 194.616 87.6562 194.616 87.6562L224.042 74.3105L211.721 41.4721C211.721 41.4721 203.113 42.0927 192.33 48.254C190.733 49.1584 189.088 50.1896 187.413 51.3621C180.95 55.9355 175.31 61.5721 170.733 68.0321C169.535 69.6866 168.367 71.4495 167.229 73.3207C142.273 114.356 86.9315 139.581 86.9315 139.581Z" fill="url(#paint8_linear)"/>
<path d="M275.701 68.2703C275.701 68.2703 270.084 51.2336 242.255 42.8671C214.425 34.5006 188.883 46.465 188.883 46.465C188.883 46.465 175.7 80.6632 202.231 96.5891C211.805 102.336 224.651 99.0791 224.651 99.0791L229.736 87.7596C229.736 87.7596 269.872 78.6909 275.701 68.2703Z" fill="#407BFF"/>
<path opacity="0.8" d="M185.632 66.9087C185.841 74.1304 187.698 82.1368 193.23 88.9016C195.757 91.9695 198.802 94.5704 202.227 96.586C211.807 102.337 224.651 99.0749 224.651 99.0749L229.738 87.7601C229.738 87.7601 269.873 78.6857 275.697 68.2672C275.697 68.2672 270.079 51.2356 242.252 42.8643C214.424 34.493 188.88 46.4622 188.88 46.4622C188.88 46.4622 188.802 46.6777 188.664 47.0808C188.39 47.8668 187.903 49.3564 187.411 51.3623C186.112 56.439 185.513 61.6697 185.632 66.9087Z" fill="url(#paint9_linear)"/>
<path d="M214.281 33.7636C214.281 33.7636 194.636 19.6064 189.923 17.0365C185.209 14.4666 142.858 37.6567 142.858 37.6567C142.858 37.6567 130.179 37.9809 128.832 39.2889C127.484 40.5969 128.84 50.5764 130.978 50.2858C133.116 49.9952 141.712 52.1785 144.273 50.3003C146.835 48.422 147.138 43.9347 147.138 43.9347C147.138 43.9347 186.234 31.0034 188.454 30.5036C190.055 30.1427 207.639 44.8391 207.639 44.8391L214.281 33.7636Z" fill="url(#paint10_linear)"/>
<path opacity="0.2" d="M170.731 68.032C175.715 67.9245 180.688 67.5494 185.631 66.9084C208.648 63.8562 216.081 55.8393 216.081 55.8393L192.328 48.2539L188.663 47.0806C188.39 47.8665 187.903 49.3562 187.411 51.362C180.948 55.9354 175.309 61.572 170.731 68.032Z" fill="black"/>
<path d="M252.724 67.8423C254.512 68.5611 256.46 68.785 258.363 68.4905C264.296 67.6162 268.704 62.3222 268.704 62.3222C268.883 54.414 261.922 49.9149 255.521 48.0634C252.827 47.1894 249.982 46.877 247.163 47.1457C241.427 48.0873 244.175 64.4436 252.724 67.8423Z" fill="url(#paint11_linear)"/>
<path opacity="0.2" d="M258.365 68.489C264.298 67.6147 268.705 62.3207 268.705 62.3207C268.884 54.4125 261.923 49.9134 255.523 48.0619C253.626 52.2922 251.229 60.9383 258.365 68.489Z" fill="black"/>
<path d="M269.543 67.0156C268.063 72.1275 256.251 80.7248 241.603 84.6664C241.603 84.6664 258.831 85.1872 269.276 76.7709C279.72 68.3546 277.341 64.6674 271.04 60.2609L269.543 67.0156Z" fill="url(#paint12_linear)"/>
<path opacity="0.4" d="M269.543 67.0156C268.063 72.1275 256.251 80.7248 241.603 84.6664C241.603 84.6664 258.831 85.1872 269.276 76.7709C279.72 68.3546 277.341 64.6674 271.04 60.2609L269.543 67.0156Z" fill="url(#paint13_linear)"/>
<path d="M256.223 47.083C244.743 43.6559 244.936 48.3979 237.399 54.4179C222.045 66.6817 157.096 50.64 157.096 50.64C157.096 50.64 174.455 35.3615 197.333 33.8111C220.212 32.2608 256.223 47.083 256.223 47.083Z" fill="url(#paint14_linear)"/>
<path d="M256.223 47.083C244.743 43.6559 244.936 48.3979 237.399 54.4179C222.045 66.6817 157.096 50.64 157.096 50.64C157.096 50.64 174.455 35.3615 197.333 33.8111C220.212 32.2608 256.223 47.083 256.223 47.083Z" fill="url(#paint15_linear)"/>
<path d="M276.529 68.5075C276.529 68.5075 279.116 56.9554 264.461 47.3785C249.805 37.8015 232.416 49.5978 232.416 49.5978L238.483 50.3217L237.397 54.417C237.397 54.417 249.206 48.6015 258.449 51.4539C267.693 54.3064 269.54 67.0159 269.54 67.0159L274.423 63.8835L276.529 68.5075Z" fill="url(#paint16_linear)"/>
<path opacity="0.5" d="M276.529 68.5075C276.529 68.5075 279.116 56.9554 264.461 47.3785C249.805 37.8015 232.416 49.5978 232.416 49.5978L238.483 50.3217L237.397 54.417C237.397 54.417 249.206 48.6015 258.449 51.4539C267.693 54.3064 269.54 67.0159 269.54 67.0159L274.423 63.8835L276.529 68.5075Z" fill="url(#paint17_linear)"/>
<path d="M282.746 38.091C282.746 38.091 282.356 49.7505 275.525 52.9893C268.695 56.2282 272.629 35.1227 272.629 35.1227L282.746 38.091Z" fill="#484D58"/>
<path d="M256.375 58.7434C257.289 60.8448 258.867 62.5882 260.867 63.7063C262.867 64.8245 265.179 65.2556 267.448 64.9335C270.39 64.5713 273.084 63.1025 274.982 60.8254C275.248 60.5094 275.497 60.1797 275.729 59.8378C279.981 53.4635 283.183 41.518 276.703 35.6104C275.278 34.2987 273.541 33.3734 271.658 32.9224C269.774 32.4714 267.807 32.5097 265.942 33.0337C264.078 33.5577 262.378 34.55 261.005 35.9162C259.633 37.2823 258.632 38.977 258.099 40.8389C255.689 48.7719 253.898 53.3214 256.375 58.7434Z" fill="url(#paint18_linear)"/>
<path d="M269.101 47.3685C268.826 47.9799 269.01 48.6346 269.431 48.7888C269.852 48.9431 270.369 48.546 270.606 47.9169C270.843 47.2877 270.688 46.6468 270.276 46.4965C269.864 46.3462 269.342 46.7287 269.101 47.3685Z" fill="#484D58"/>
<path d="M276.261 50.0098C275.985 50.621 276.179 51.2798 276.591 51.4301C277.003 51.5804 277.529 51.1873 277.766 50.5582C278.003 49.929 277.847 49.2879 277.436 49.1378C277.025 48.9877 276.485 49.4064 276.261 50.0098Z" fill="#484D58"/>
<path d="M273.87 49.4807C273.91 51.6962 274.258 53.8954 274.901 56.0157C274.351 56.1669 273.773 56.1955 273.21 56.0995C272.647 56.0035 272.112 55.7853 271.643 55.4601L273.87 49.4807Z" fill="#FFBCB0"/>
<path d="M267.735 44.2299C267.8 44.264 267.872 44.2804 267.945 44.2775C268.018 44.2745 268.089 44.2523 268.15 44.213C268.563 43.9354 269.034 43.7576 269.527 43.6938C270.02 43.63 270.52 43.6819 270.99 43.8453C271.037 43.8667 271.088 43.8786 271.139 43.8803C271.191 43.882 271.242 43.8735 271.291 43.8553C271.339 43.8371 271.384 43.8096 271.421 43.7743C271.459 43.739 271.489 43.6966 271.511 43.6495C271.532 43.6024 271.544 43.5516 271.546 43.5C271.547 43.4483 271.539 43.3968 271.521 43.3484C271.503 43.3001 271.475 43.2557 271.44 43.218C271.404 43.1803 271.362 43.1498 271.315 43.1285C270.727 42.9064 270.095 42.8284 269.471 42.901C268.847 42.9735 268.25 43.1947 267.729 43.5457C267.685 43.5724 267.646 43.6074 267.615 43.649C267.585 43.6906 267.562 43.7378 267.55 43.788C267.537 43.8381 267.535 43.8903 267.543 43.9414C267.55 43.9925 267.568 44.0416 267.595 44.0859L267.599 44.0943C267.637 44.1461 267.683 44.1918 267.735 44.2299Z" fill="#484D58"/>
<path d="M280.247 48.6749C280.307 48.7288 280.381 48.7625 280.461 48.7712C280.513 48.767 280.563 48.7527 280.609 48.729C280.655 48.7054 280.695 48.6729 280.729 48.6334C280.762 48.594 280.787 48.5483 280.803 48.4991C280.818 48.4498 280.824 48.398 280.82 48.3465L280.822 48.3385C280.774 47.7102 280.576 47.1027 280.244 46.5671C279.912 46.0315 279.456 45.5835 278.915 45.261C278.869 45.2371 278.819 45.2225 278.768 45.2181C278.716 45.2136 278.664 45.2194 278.615 45.235C278.565 45.2506 278.52 45.2759 278.48 45.3092C278.441 45.3426 278.408 45.3834 278.384 45.4294C278.339 45.5228 278.331 45.63 278.363 45.7288C278.394 45.8277 278.463 45.9107 278.554 45.9606C278.974 46.228 279.325 46.5898 279.581 47.017C279.837 47.4443 279.989 47.9253 280.026 48.4218C280.042 48.4774 280.071 48.5288 280.109 48.5725C280.147 48.6162 280.194 48.6511 280.247 48.6749Z" fill="#484D58"/>
<path d="M267.383 33.2417L266.708 36.8602C266.031 36.9563 265.414 37.3037 264.981 37.8334C264.548 38.3631 264.33 39.0363 264.371 39.7193C264.57 43.0053 261.473 47.0256 258.652 48.1288C258.652 48.1288 258.983 46.8369 257.816 46.7998C256.65 46.7627 254.153 52.5853 254.153 52.5853C254.153 52.5853 251.584 51.0973 251.99 43.5923C252.367 36.6509 255.962 33.5697 258.065 31.5047L267.383 33.2417Z" fill="#484D58"/>
<path d="M271.561 57.5761C270.924 58.3714 270.346 59.2119 269.831 60.0911C269.663 60.0288 269.494 59.9663 269.33 59.8953C267.066 58.9896 266.313 57.8261 266.166 56.8067C266.104 56.3074 266.164 55.8008 266.339 55.3291C266.429 55.0583 266.557 54.8014 266.718 54.5658C267.869 55.7435 269.259 56.6605 270.794 57.2549C271.26 57.4663 271.561 57.5761 271.561 57.5761Z" fill="#484D58"/>
<path d="M270.795 57.2557L270.265 57.9869C268.135 57.132 266.749 56.2438 266.339 55.3319C266.43 55.061 266.557 54.8041 266.719 54.5686C267.87 55.7456 269.26 56.6619 270.795 57.2557Z" fill="white"/>
<path d="M269.329 59.8953C267.066 58.9897 266.313 57.8262 266.165 56.8068C267.021 57.1661 267.805 57.6743 268.483 58.3077C268.924 58.7355 269.22 59.2907 269.329 59.8953Z" fill="#ED827E"/>
<path d="M266.709 36.8607C269.507 36.8156 275.952 38.5943 280.108 42.0068C280.108 42.0068 282.284 42.2805 284.381 37.8153C286.478 33.3501 283.838 30.2058 282.757 30.5954C281.675 30.9849 283.629 32.2878 283.44 33.6236C283.44 33.6236 278.38 30.0974 278.305 26.8434C278.231 23.5894 276.232 22.1651 275.036 23.1636C273.84 24.162 276.711 28.1389 276.711 28.1389C276.711 28.1389 272.664 27.4284 271.189 23.9197C269.715 20.4111 266.488 18.2021 265.329 19.2388C264.169 20.2756 268.456 22.2498 269.357 24.0592C269.357 24.0592 263.068 20.014 259.709 21.3653C256.35 22.7165 256.768 23.7175 258.93 23.6886C260.529 23.8361 262.048 24.4574 263.292 25.4731C263.292 25.4731 258.057 24.3645 255.634 26.1361C253.21 27.9076 251.202 26.191 250.414 27.2565C249.626 28.322 253.724 29.5878 253.724 29.5878C253.724 29.5878 250.977 31.0361 248.623 29.709C246.269 28.3819 244.601 32.0721 250.806 32.188C250.806 32.188 249.801 36.1528 247.514 36.2343C245.228 36.3159 245.771 38.223 247.386 38.2259C249 38.2287 250.869 36.5034 250.869 36.5034C250.869 36.5034 247.282 40.4497 248.073 42.2767C248.864 44.1037 250.577 40.5879 250.577 40.5879C250.577 40.5879 248.083 46.1038 248.889 46.5894C249.695 47.0751 251.206 45.1317 251.206 45.1317C251.206 45.1317 249.108 48.9159 250.623 49.9679C251.839 50.677 253.188 51.1289 254.586 51.2955C254.586 51.2955 261.761 36.9406 266.709 36.8607Z" fill="#484D58"/>
<path d="M252.348 45.9618C252.562 48.0396 253.591 49.948 255.209 51.2686C257.365 53.0008 259.528 51.333 259.845 48.7295C260.105 46.4133 259.335 42.6541 256.719 41.9592C254.104 41.2644 252.118 43.407 252.348 45.9618Z" fill="url(#paint19_linear)"/>
<path d="M228.758 38.185C228.758 38.185 227.002 51.2962 210.424 51.6983L192.451 37.1256L200.495 23.2538L228.758 38.185Z" fill="url(#paint20_linear)"/>
<path opacity="0.5" d="M228.758 38.185C228.758 38.185 227.002 51.2962 210.424 51.6983L192.451 37.1256L200.495 23.2538L228.758 38.185Z" fill="url(#paint21_linear)"/>
<path d="M282.524 544.474C289.216 548.3 299.429 555.332 304.901 558.067L316.34 544.945L325.517 531.092L331.004 537.998C331.004 537.998 321.534 558.409 319.143 562.224C316.314 566.786 314.415 570.658 311.313 574.14C308.96 576.762 304.794 575.676 300.258 573.899C293.81 571.4 275.482 562.473 275.482 562.473L259.726 541.765C267.176 538.241 275.689 540.582 282.524 544.474Z" fill="url(#paint22_linear)"/>
<path d="M327.179 527.653C327.629 526.28 328.305 526.08 328.728 524.815C328.889 524.169 329.152 523.549 329.416 522.929C329.706 522.201 330.073 521.607 330.439 521.012C332.644 516.99 334.122 513.244 336.43 509.247C336.586 509.057 336.64 508.842 336.9 508.678C337.057 508.488 337.393 508.457 337.573 508.616C337.677 508.642 337.727 508.883 337.803 509.016C338.313 510.056 338.33 511.317 338.14 512.527C337.949 513.736 337.579 514.786 337.182 515.945C336.892 516.672 336.678 517.533 336.388 518.261C335.938 519.634 335.461 521.115 335.321 522.565C335.344 522.914 335.34 523.37 335.234 523.801C335.18 524.016 335.127 524.231 335.047 524.554C335.674 523.795 336.431 522.955 337.058 522.197C337.371 521.818 337.918 521.382 338.278 521.7C338.562 521.884 338.585 522.233 338.608 522.581C338.621 524.298 337.781 525.917 336.89 527.296C336.313 528.295 335.763 529.187 335.289 530.212C334.972 531.047 334.732 532.015 334.415 532.851C333.858 534.654 332.991 536.381 331.764 537.791C330.556 540.004 327.989 540.624 324.998 542.51L324.032 533.131C325.197 531.849 326.729 529.026 327.179 527.653Z" fill="#FFE8E5"/>
<path d="M259.102 541.991C264.023 538.322 273.22 538.646 282.449 544.265C291.499 549.714 296.383 552.78 296.383 552.78C296.383 552.78 296.485 562.177 289.021 569.244L272.187 562.488L259.102 541.991Z" fill="url(#paint23_linear)"/>
<path d="M146.573 549.734C142.031 545.011 135.991 542.01 129.865 539.748C123.739 537.485 117.385 535.896 111.221 533.529C110.653 533.263 109.981 533.035 109.65 532.447C108.913 531.063 110.383 529.588 111.709 529.343C112.581 529.145 113.424 529.193 114.258 528.891C114.988 528.627 115.567 527.946 116.363 527.539C117.671 526.594 119.348 526.34 120.808 525.811C122.409 525.349 123.718 524.403 125.432 524.254C129.771 523.862 133.613 527.305 137.923 527.159C141.078 527.077 144.112 525.035 147.284 525.655C150.353 526.312 152.253 529.279 153.453 532.265C154.283 534.558 154.537 536.235 155.785 538.378C156.995 540.416 161.052 545.432 168.319 552.47C167.92 553.322 156.312 564.249 155.612 562.969C153.532 559.831 148.881 552.199 146.573 549.734Z" fill="url(#paint24_linear)"/>
<path d="M110.157 605.142C103.964 603.021 96.0446 603.296 89.5073 604.131C82.97 604.966 76.6593 606.426 70.0843 607.157C69.421 607.279 68.72 607.297 68.2185 606.889C66.8271 605.978 67.6536 604.028 68.6493 603.195C69.3035 602.723 70.0997 602.316 70.6784 601.635C71.1529 600.991 71.4475 600.177 71.8842 599.429C72.6533 597.971 73.924 596.922 75.0526 595.805C76.2855 594.651 77.0546 593.193 78.4673 592.21C82.1266 589.941 87.1741 591.179 90.9089 589.118C93.6391 587.539 95.4145 584.302 98.4089 583.453C101.403 582.604 104.537 584.418 106.836 586.533C108.596 588.136 109.617 589.653 111.718 590.896C113.716 592.178 119.642 594.866 129.396 597.701C129.489 598.61 124.007 611.799 124.007 611.799C120.94 609.844 113.414 606.32 110.157 605.142Z" fill="url(#paint25_linear)"/>
<path d="M186.564 597.63C178.759 596.919 176.014 595.201 173.906 592.309C169.575 586.213 159.742 570.789 149.381 553.905C151.87 555.243 162.611 548.758 162.16 546.21C177.647 561.944 183.639 565.788 188.409 576.678C196.803 575.76 212.34 574.378 217.305 573.759C230.767 572.184 243.216 578.878 249.67 584.323L241.596 601.753C226.66 599.262 194.369 598.341 186.564 597.63Z" fill="url(#paint26_linear)"/>
<path opacity="0.15" d="M182.99 585.481C182.99 585.481 180.639 578.667 186.737 573.039C187.399 574.214 187.956 575.427 188.551 576.745C183.431 580.84 182.99 585.481 182.99 585.481Z" fill="black"/>
<path d="M166.779 609.749C166.779 609.749 186.836 600.008 198.021 594.423C207.445 580.396 225.333 577.69 227.197 579.256L227.499 618.18C204.482 624.631 180.648 632.085 168.01 633.007C155.732 634.27 117.579 608.703 117.579 608.703C116.549 606.836 120.975 597.567 124.965 595.886C139.604 600.489 159.419 601.802 166.779 609.749Z" fill="url(#paint27_linear)"/>
<path opacity="0.3" d="M166.779 609.749C166.779 609.749 186.836 600.008 198.021 594.423C207.445 580.396 225.333 577.69 227.197 579.256L227.499 618.18C204.482 624.631 180.648 632.085 168.01 633.007C155.732 634.27 117.579 608.703 117.579 608.703C116.549 606.836 120.975 597.567 124.965 595.886C139.604 600.489 159.419 601.802 166.779 609.749Z" fill="white"/>
<path opacity="0.15" d="M164.195 607.502C165.303 608.28 165.946 608.754 166.883 609.712C163.479 612.36 161.786 617.455 161.992 619.975C161.887 620.012 159.365 614.676 164.195 607.502Z" fill="black"/>
<path d="M251.488 547.344C245.456 552.83 242.735 554.76 240.003 557.636C236.863 561.014 236.661 564.035 235.556 568.799C233.998 572.311 231.912 574.364 230.339 574.58C227.761 575.278 219.672 582.572 218.237 593.587C216.783 605.199 221.309 614.762 226.646 619.079C232.227 617.883 242.564 616.143 256.934 608.933C265.588 604.501 272.381 595.908 276.282 589.424C281.931 579.949 283.714 570.223 281.994 559.289C279.749 544.3 268.074 532.255 251.488 547.344Z" fill="url(#paint28_linear)"/>
<path d="M283.002 518.121C282.678 519.181 281.747 521.17 280.923 521.822C279.652 522.872 278.318 521.468 276.727 520.983C275.667 520.66 274.701 519.948 274.115 518.981C273.529 518.014 273.36 516.896 272.944 515.75C272.68 515.02 272.729 514.177 272.815 513.438C272.949 511.856 273.434 510.266 274.345 508.874C274.716 508.268 275.228 507.729 275.882 507.256C276.366 506.963 276.716 506.954 277.284 507.22C278.496 507.96 279.366 509.06 279.961 510.378C280.669 512.008 280.857 513.827 280.76 515.513C281.159 514.661 281.491 513.951 281.89 513.099C281.957 512.957 281.957 512.957 282.023 512.815C282.194 512.635 282.336 512.702 282.516 512.872C282.695 513.043 282.733 513.147 282.809 513.356C283.215 514.152 283.715 515.858 283.002 518.121Z" fill="#263238"/>
<path d="M253.559 540.696L253.093 549.827C253.024 552.565 255.415 556.887 262.188 557.028C266.678 557.053 268.491 553.919 268.491 553.919L270.119 547.669L253.559 540.696Z" fill="url(#paint29_linear)"/>
<path d="M247.295 535.771C247.295 535.771 249.422 539.364 250.756 540.768C252.989 543.025 256.021 542.28 256.021 542.28L254.512 536.813L247.295 535.771Z" fill="#263238"/>
<path d="M245.732 520.064C245.732 520.064 243.25 520.374 241.873 522.759C240.601 525.107 243.303 530.614 247.257 535.668L251.587 534.925L245.732 520.064Z" fill="#263238"/>
<path d="M248.939 539.658C249.223 539.791 249.573 539.782 249.82 539.811C251.013 539.85 251.885 539.652 252.615 539.388C254.7 538.633 254.617 536.776 254.617 536.776L255.786 541.305L258.859 553.046C259.485 552.819 259.968 552.526 260.452 552.233C262.111 551.278 263.628 550.257 264.727 549.387C266.036 548.441 266.823 547.685 266.823 547.685C269.807 547.783 273.028 547.56 273.236 547.484C273.236 547.484 277.5 546.883 279.443 546.062C282.665 544.54 284.479 541.407 284.379 537.552C284.321 531.205 283.105 526.22 278.401 515.188C273.178 503.047 258.623 507.14 252.181 514.426C245.74 521.712 252.227 531.155 252.227 531.155C251.102 529.676 250.411 528.747 249.058 527.94C247.704 527.133 243.687 527.763 243.019 531.779C242.379 535.548 246.117 539.029 248.939 539.658Z" fill="url(#paint30_linear)"/>
<path d="M257.961 519.643C259.481 524.164 256.334 525.893 255.045 526.242C256.122 528.564 256.462 529.502 256.507 531.255C256.581 532.761 256.076 534.949 254.419 534.606C253.888 534.444 253.633 534.065 253.444 533.544C253.114 532.956 252.736 531.913 252.263 531.259C249.69 528.064 248.384 527.712 246.915 527.89C246.708 526.667 246.464 525.341 246.294 524.223C245.683 520.907 244.503 517.325 245.36 513.83C246.246 510.09 249.233 507.592 252.484 505.825C255.252 504.351 258.275 503.256 261.119 501.99C264.275 500.611 267.271 498.464 268.942 495.264C269.274 494.554 269.711 493.806 270.516 493.751C271.322 493.695 271.832 494.453 272.163 495.041C273.562 497.6 274.335 500.386 274.028 503.446C274.474 503.048 274.749 502.831 275.053 502.367C275.489 501.619 275.859 501.013 276.296 500.266C276.429 499.982 276.666 499.66 276.913 499.688C277.367 499.642 277.66 500.125 277.811 500.542C279.171 504.295 278.436 508.453 276.878 511.965C274.665 517.248 268.286 520.149 257.961 519.643Z" fill="#263238"/>
<path d="M245.968 521.04L240.116 519.858C240.459 518.2 241.976 517.179 243.595 517.418C245.215 517.657 246.311 519.382 245.968 521.04Z" fill="#263238"/>
<path d="M257.203 543.268C257.203 543.268 259.226 546.898 261.441 548.455C262.122 549.033 265.171 550.287 269.547 549.999L270.156 547.774L266.964 547.751C265.524 547.683 264.047 547.511 263.09 547.149C261.007 546.607 257.998 544.159 257.203 543.268Z" fill="#B16668"/>
<path d="M268.03 529.204C268.228 530.076 267.829 530.928 266.995 531.23C266.123 531.428 265.271 531.029 265.036 530.053C264.838 529.181 265.237 528.329 266.071 528.027C266.838 527.867 267.728 528.37 268.03 529.204Z" fill="#263238"/>
<path d="M265.412 524.257L262.274 526.337C261.688 525.37 261.973 524.205 262.836 523.657C263.699 523.108 264.863 523.394 265.412 524.257Z" fill="#263238"/>
<path d="M269.316 538.291L275.501 538.763C275.442 540.553 274.001 541.783 272.315 541.686C270.487 541.523 269.257 540.081 269.316 538.291Z" fill="#874C4C"/>
<path d="M270.081 539.428C271.541 538.9 273.103 539.631 273.632 541.091C273.669 541.195 273.707 541.299 273.745 541.403C273.328 541.554 272.807 541.743 272.314 541.686C271.121 541.646 270.117 540.83 269.702 539.684C269.664 539.579 269.873 539.504 270.081 539.428Z" fill="#B16668"/>
<path d="M279.342 520.39L275.544 519.997C275.621 518.908 276.512 518.113 277.639 518.294C278.624 518.409 279.419 519.301 279.342 520.39Z" fill="#263238"/>
<path d="M279.725 524.379C279.923 525.251 279.524 526.103 278.69 526.405C277.818 526.603 276.966 526.204 276.731 525.228C276.533 524.356 276.932 523.504 277.766 523.202C278.533 523.042 279.423 523.545 279.725 524.379Z" fill="#263238"/>
<path d="M272.042 525.629L276.226 535.552L280.872 532.1L272.042 525.629Z" fill="#F8B6A9"/>
<path d="M233.001 611.235C232.692 608.752 232.01 593.197 231.823 583.241C231.672 567.847 231.166 563.196 240.257 558.016C249.254 560.064 250.486 582.023 250.486 582.023L249.192 609.379C253.632 619.681 261.227 636.742 263.384 638.791C267.806 640.255 270.889 644.209 274.184 645.492C277.583 646.737 277.799 648.31 276.34 648.839C274.046 649.669 271.708 648.748 269.445 648.034C269.198 648.006 269.056 647.939 268.848 648.015C268.573 648.232 268.515 648.725 269.281 649.862C271.73 653.692 275.128 656.235 278.441 658.219C278.904 658.523 279.473 658.789 279.87 659.235C280.267 659.68 280.494 660.306 280.332 660.836C280.009 661.897 278.682 662.141 277.631 662.168C271.663 661.972 265.094 657.511 260.884 653.376C255.879 648.349 242.158 629.026 235.38 617.802C233.584 614.797 233.311 613.717 233.001 611.235Z" fill="url(#paint31_linear)"/>
<path d="M240.618 557.059C231.763 563.215 230.888 566.008 230.927 572.952C231.032 579.753 231.773 593.518 231.773 593.518C231.773 593.518 236.959 597.418 243.468 596.829C249.976 596.241 250.575 594.963 250.575 594.963C250.575 594.963 251.466 579.191 250.922 574.435C249.29 561.465 240.618 557.059 240.618 557.059Z" fill="url(#paint32_linear)"/>
<path d="M182.456 329.036C182.462 298.094 194.264 268.319 215.459 245.774C236.653 223.228 265.645 209.609 296.531 207.689C327.417 205.768 357.873 215.692 381.698 235.439C405.522 255.185 420.922 283.27 424.761 313.972C427.759 337.994 423.517 362.365 412.578 383.962C400.238 408.37 380.028 427.906 355.213 439.412C330.398 450.917 302.427 453.722 275.822 447.371C249.216 441.021 225.528 425.887 208.587 404.414C191.645 382.942 182.439 356.385 182.456 329.036Z" fill="url(#paint33_linear)"/>
<path d="M192.887 378.393C251.671 408.558 271.826 395.907 334.632 373.525C370.526 360.72 396.726 371.969 412.574 383.959C402.18 404.484 386.177 421.64 366.422 433.435C346.668 445.231 323.973 451.183 300.971 450.601C277.97 450.018 255.605 442.924 236.474 430.143C217.342 417.362 202.229 399.417 192.887 378.393Z" fill="url(#paint34_linear)"/>
<path d="M187.129 295.446C194.875 268.519 211.68 245.09 234.705 229.12C257.731 213.15 285.565 205.618 313.503 207.796C341.441 209.974 367.77 221.729 388.042 241.074C408.313 260.419 421.284 286.169 424.762 313.972C414.067 303.886 401.411 296.108 387.581 291.121C373.751 286.135 359.043 284.047 344.372 284.986C280.446 288.745 231.316 333.903 187.129 295.446Z" fill="url(#paint35_linear)"/>
<path d="M5.42075 273.598C5.42122 271.169 6.34761 268.832 8.01122 267.062C9.67483 265.293 11.9506 264.224 14.3749 264.073C16.7993 263.922 19.1899 264.701 21.06 266.251C22.93 267.801 24.1388 270.006 24.4402 272.416C24.6755 274.301 24.3426 276.214 23.4839 277.909C22.5153 279.825 20.9289 281.359 18.9811 282.262C17.0332 283.165 14.8377 283.385 12.7493 282.887C10.6609 282.388 8.80163 281.2 7.47183 279.515C6.14203 277.829 5.41941 275.745 5.42075 273.598Z" fill="url(#paint36_linear)"/>
<path d="M393.919 643.031C393.92 638.335 395.711 633.817 398.927 630.395C402.144 626.974 406.543 624.907 411.23 624.616C415.918 624.324 420.539 625.83 424.155 628.827C427.77 631.824 430.107 636.086 430.69 640.745C431.145 644.39 430.501 648.089 428.841 651.366C426.968 655.07 423.901 658.035 420.136 659.781C416.37 661.527 412.125 661.953 408.088 660.989C404.05 660.025 400.455 657.729 397.884 654.47C395.314 651.211 393.916 647.181 393.919 643.031Z" fill="url(#paint37_linear)"/>
<path d="M382.001 122.008C382.003 110.808 386.275 100.031 393.946 91.8702C401.618 83.7096 412.112 78.7798 423.291 78.0848C434.471 77.3898 445.495 80.9818 454.119 88.1293C462.742 95.2769 468.316 105.442 469.706 116.555C470.791 125.251 469.256 134.072 465.296 141.889C460.83 150.724 453.514 157.795 444.532 161.96C435.55 166.125 425.426 167.14 415.795 164.841C406.165 162.543 397.591 157.065 391.459 149.292C385.327 141.52 381.995 131.908 382.001 122.008Z" fill="url(#paint38_linear)"/>
<path d="M160.856 451.476C160.857 447.509 162.37 443.692 165.087 440.801C167.804 437.911 171.521 436.164 175.481 435.918C179.441 435.672 183.346 436.944 186.4 439.476C189.454 442.008 191.429 445.608 191.921 449.544C192.305 452.624 191.762 455.749 190.359 458.518C188.777 461.647 186.186 464.152 183.004 465.627C179.823 467.102 176.237 467.461 172.826 466.647C169.415 465.833 166.378 463.893 164.206 461.14C162.034 458.387 160.854 454.982 160.856 451.476Z" fill="url(#paint39_linear)"/>
<defs>
<linearGradient id="paint0_linear" x1="292.159" y1="44.3452" x2="280.82" y2="97.4312" gradientUnits="userSpaceOnUse">
<stop offset="0.0625" stop-color="#FFC19E"/>
<stop offset="1" stop-color="white"/>
</linearGradient>
<linearGradient id="paint1_linear" x1="280.091" y1="28.5691" x2="301.278" y2="130.632" gradientUnits="userSpaceOnUse">
<stop offset="0.0625" stop-color="#FFC19E"/>
<stop offset="1" stop-color="white"/>
</linearGradient>
<linearGradient id="paint2_linear" x1="278.145" y1="56.4966" x2="264.305" y2="66.7051" gradientUnits="userSpaceOnUse">
<stop stop-color="#5FA8ED"/>
<stop offset="1" stop-color="#7ED5B7"/>
</linearGradient>
<linearGradient id="paint3_linear" x1="278.145" y1="56.4966" x2="264.305" y2="66.7051" gradientUnits="userSpaceOnUse">
<stop stop-color="#1F4970"/>
<stop offset="1" stop-color="#7ED5B7"/>
</linearGradient>
<linearGradient id="paint4_linear" x1="135.278" y1="155.86" x2="133.508" y2="165.802" gradientUnits="userSpaceOnUse">
<stop offset="0.0625" stop-color="#FFC19E"/>
<stop offset="1" stop-color="white"/>
</linearGradient>
<linearGradient id="paint5_linear" x1="202.419" y1="90.324" x2="135.043" y2="149.135" gradientUnits="userSpaceOnUse">
<stop stop-color="#403997"/>
<stop offset="1" stop-color="#799FF8"/>
</linearGradient>
<linearGradient id="paint6_linear" x1="88.5274" y1="137.899" x2="84.5927" y2="156.32" gradientUnits="userSpaceOnUse">
<stop offset="0.0625" stop-color="#FFC19E"/>
<stop offset="1" stop-color="white"/>
</linearGradient>
<linearGradient id="paint7_linear" x1="86.6921" y1="144.234" x2="88.7963" y2="151.578" gradientUnits="userSpaceOnUse">
<stop offset="0.0625" stop-color="#FFC19E"/>
<stop offset="1" stop-color="white"/>
</linearGradient>
<linearGradient id="paint8_linear" x1="192.932" y1="56.4525" x2="106.227" y2="148.735" gradientUnits="userSpaceOnUse">
<stop stop-color="#403A89"/>
<stop offset="1" stop-color="#799FF8"/>
</linearGradient>
<linearGradient id="paint9_linear" x1="223.501" y1="99.4998" x2="215.001" y2="57.4998" gradientUnits="userSpaceOnUse">
<stop stop-color="#F4F4F4"/>
<stop offset="1" stop-color="#BCBCBC"/>
</linearGradient>
<linearGradient id="paint10_linear" x1="174.212" y1="35.1027" x2="171.035" y2="26.4674" gradientUnits="userSpaceOnUse">
<stop offset="0.0625" stop-color="#FFC19E"/>
<stop offset="1" stop-color="white"/>
</linearGradient>
<linearGradient id="paint11_linear" x1="260.641" y1="58.5589" x2="247.097" y2="63.2701" gradientUnits="userSpaceOnUse">
<stop offset="0.0625" stop-color="#FFC19E"/>
<stop offset="1" stop-color="white"/>
</linearGradient>
<linearGradient id="paint12_linear" x1="268.371" y1="64.009" x2="249.151" y2="86.4796" gradientUnits="userSpaceOnUse">
<stop stop-color="#3876B1"/>
<stop offset="1" stop-color="#7ED5B7"/>
</linearGradient>
<linearGradient id="paint13_linear" x1="268.371" y1="64.009" x2="249.151" y2="86.4796" gradientUnits="userSpaceOnUse">
<stop stop-color="#5FA8ED"/>
<stop offset="1" stop-color="#7ED5B7"/>
</linearGradient>
<linearGradient id="paint14_linear" x1="210.001" y1="87.4995" x2="184.117" y2="90.6304" gradientUnits="userSpaceOnUse">
<stop stop-color="#5FA8ED"/>
<stop offset="1" stop-color="#7ED5B7"/>
</linearGradient>
<linearGradient id="paint15_linear" x1="225.501" y1="44.9995" x2="214.456" y2="70.5537" gradientUnits="userSpaceOnUse">
<stop stop-color="#4583BE"/>
<stop offset="1" stop-color="#7ED5B7"/>
</linearGradient>
<linearGradient id="paint16_linear" x1="267.003" y1="49.1839" x2="257.908" y2="68.6548" gradientUnits="userSpaceOnUse">
<stop stop-color="#5FA8ED"/>
<stop offset="1" stop-color="#7ED5B7"/>
</linearGradient>
<linearGradient id="paint17_linear" x1="267.003" y1="49.1839" x2="257.908" y2="68.6548" gradientUnits="userSpaceOnUse">
<stop stop-color="#5FA8ED"/>
<stop offset="1" stop-color="#7ED5B7"/>
</linearGradient>
<linearGradient id="paint18_linear" x1="245.461" y1="55.1736" x2="277.229" y2="55.3195" gradientUnits="userSpaceOnUse">
<stop offset="0.0625" stop-color="#FFC19E"/>
<stop offset="1" stop-color="white"/>
</linearGradient>
<linearGradient id="paint19_linear" x1="258.372" y1="40.0749" x2="255.093" y2="51.6217" gradientUnits="userSpaceOnUse">
<stop offset="0.0625" stop-color="#FFC19E"/>
<stop offset="1" stop-color="white"/>
</linearGradient>
<linearGradient id="paint20_linear" x1="215.979" y1="30.2109" x2="206.572" y2="46.2828" gradientUnits="userSpaceOnUse">
<stop stop-color="#8177F7"/>
<stop offset="1" stop-color="#799FF8"/>
</linearGradient>
<linearGradient id="paint21_linear" x1="219.921" y1="31.1067" x2="205.033" y2="53.4077" gradientUnits="userSpaceOnUse">
<stop stop-color="#5FA8ED"/>
<stop offset="1" stop-color="#7ED5B7"/>
</linearGradient>
<linearGradient id="paint22_linear" x1="295.519" y1="584.066" x2="320.486" y2="559.002" gradientUnits="userSpaceOnUse">
<stop stop-color="#FBC7BC"/>
<stop offset="1" stop-color="#FFE8E5"/>
</linearGradient>
<linearGradient id="paint23_linear" x1="281.822" y1="538.706" x2="274.34" y2="572.153" gradientUnits="userSpaceOnUse">
<stop stop-color="#4080BD"/>
<stop offset="1" stop-color="#7ED5B7"/>
</linearGradient>
<linearGradient id="paint24_linear" x1="130.952" y1="527.533" x2="147.545" y2="566.118" gradientUnits="userSpaceOnUse">
<stop stop-color="#FCCBC1"/>
<stop offset="1" stop-color="#FFE8E5"/>
</linearGradient>
<linearGradient id="paint25_linear" x1="86.8437" y1="589.712" x2="104.617" y2="618.823" gradientUnits="userSpaceOnUse">
<stop stop-color="#FCCBC1"/>
<stop offset="1" stop-color="#FFE8E5"/>
</linearGradient>
<linearGradient id="paint26_linear" x1="187.857" y1="536.901" x2="214.856" y2="611.438" gradientUnits="userSpaceOnUse">
<stop stop-color="#6A6A6A"/>
<stop offset="1" stop-color="#9F9F9F"/>
</linearGradient>
<linearGradient id="paint27_linear" x1="171.769" y1="603.587" x2="186.525" y2="633.022" gradientUnits="userSpaceOnUse">
<stop stop-color="#898989"/>
<stop offset="1" stop-color="white"/>
</linearGradient>
<linearGradient id="paint28_linear" x1="257.178" y1="552.102" x2="251.949" y2="616.13" gradientUnits="userSpaceOnUse">
<stop stop-color="#5FA8ED"/>
<stop offset="1" stop-color="#7ED5B7"/>
</linearGradient>
<linearGradient id="paint29_linear" x1="261.686" y1="552.778" x2="274.924" y2="552.566" gradientUnits="userSpaceOnUse">
<stop stop-color="#FDCFC6"/>
<stop offset="1" stop-color="#FFE8E5"/>
</linearGradient>
<linearGradient id="paint30_linear" x1="243.992" y1="535.741" x2="287.259" y2="533.146" gradientUnits="userSpaceOnUse">
<stop stop-color="#FBC2B6"/>
<stop offset="1" stop-color="#FFE8E5"/>
</linearGradient>
<linearGradient id="paint31_linear" x1="218.728" y1="618.644" x2="282.006" y2="637.136" gradientUnits="userSpaceOnUse">
<stop stop-color="#FBC7BC"/>
<stop offset="1" stop-color="#FFE8E5"/>
</linearGradient>
<linearGradient id="paint32_linear" x1="240.002" y1="563.167" x2="228.146" y2="594.412" gradientUnits="userSpaceOnUse">
<stop stop-color="#478CCD"/>
<stop offset="1" stop-color="#7ED5B7"/>
</linearGradient>
<linearGradient id="paint33_linear" x1="356.726" y1="416.472" x2="241.424" y2="207.454" gradientUnits="userSpaceOnUse">
<stop stop-color="#5FA8ED"/>
<stop offset="1" stop-color="#7ED5B7"/>
</linearGradient>
<linearGradient id="paint34_linear" x1="350.282" y1="438.993" x2="331.794" y2="350.052" gradientUnits="userSpaceOnUse">
<stop stop-color="#5FA8ED"/>
<stop offset="1" stop-color="#7ED5B7"/>
</linearGradient>
<linearGradient id="paint35_linear" x1="357.381" y1="298.982" x2="329.549" y2="186.451" gradientUnits="userSpaceOnUse">
<stop stop-color="#5FA8ED"/>
<stop offset="1" stop-color="#7ED5B7"/>
</linearGradient>
<linearGradient id="paint36_linear" x1="19.0999" y1="280.461" x2="10.0494" y2="264.055" gradientUnits="userSpaceOnUse">
<stop stop-color="#8177F7"/>
<stop offset="1" stop-color="#799FF8"/>
</linearGradient>
<linearGradient id="paint37_linear" x1="406.456" y1="679.111" x2="406.456" y2="624.58" gradientUnits="userSpaceOnUse">
<stop offset="0.169841" stop-color="#EA5AB1"/>
<stop offset="0.942708" stop-color="#F9E1C5"/>
</linearGradient>
<linearGradient id="paint38_linear" x1="445.08" y1="153.657" x2="403.345" y2="77.9998" gradientUnits="userSpaceOnUse">
<stop stop-color="#73BCF9"/>
<stop offset="1" stop-color="#7A96F8"/>
</linearGradient>
<linearGradient id="paint39_linear" x1="183.198" y1="462.686" x2="168.416" y2="435.888" gradientUnits="userSpaceOnUse">
<stop stop-color="#EF8197"/>
<stop offset="0.942708" stop-color="#F7C58F"/>
</linearGradient>
</defs>
</svg>
