<svg width="55" height="55" viewBox="0 0 55 55" fill="none" xmlns="http://www.w3.org/2000/svg">
<path d="M27.5 0C12.3145 0 0 12.3145 0 27.5C0 42.6855 12.3145 55 27.5 55C42.6855 55 55 42.6855 55 27.5C55 12.3145 42.6855 0 27.5 0ZM19.5088 41.5723H12.8113V21.4227H19.5088V41.5723ZM16.1603 18.6713H16.1166C13.8692 18.6713 12.4156 17.1241 12.4156 15.1905C12.4156 13.2133 13.9137 11.709 16.2048 11.709C18.4959 11.709 19.9058 13.2133 19.9494 15.1905C19.9494 17.1241 18.4959 18.6713 16.1603 18.6713ZM43.6586 41.5723H36.9619V30.7927C36.9619 28.0837 35.9922 26.2361 33.5689 26.2361C31.7188 26.2361 30.6169 27.4824 30.1327 28.6854C29.9556 29.1159 29.9124 29.7177 29.9124 30.3198V41.5723H23.2153C23.2153 41.5723 23.303 23.3131 23.2153 21.4227H29.9124V24.2757C30.8024 22.9027 32.3948 20.9498 35.9481 20.9498C40.3545 20.9498 43.6586 23.8296 43.6586 30.0185V41.5723Z" fill="#F4F4F4"/>
</svg>
