<svg width="150" height="150" viewBox="0 0 150 150" fill="none" xmlns="http://www.w3.org/2000/svg">
<g clip-path="url(#clip0)">
<path d="M149.824 11.1978C149.499 5.23942 144.761 0.501234 138.802 0.176038C126.779 -0.480798 103.253 0.158168 80.7563 11.794C69.2881 17.726 57.1592 27.7834 47.4798 39.3873C47.3605 39.5302 47.2445 39.6741 47.1261 39.8173L25.1594 41.5142C21.5435 41.7937 18.3229 43.6889 16.3231 46.7135L1.3366 69.3811C-0.180103 71.6751 -0.421216 74.5459 0.691186 77.0604C1.80388 79.5753 4.09021 81.3278 6.8075 81.7488L25.3146 84.6152C25.2493 84.975 25.1837 85.3344 25.1236 85.6942C24.5075 89.3797 25.7286 93.169 28.3905 95.8306L54.1694 121.61C56.3763 123.817 59.3585 125.033 62.4141 125.033C63.0434 125.033 63.6762 124.982 64.3061 124.876C64.6659 124.816 65.0254 124.751 65.3851 124.685L68.2515 143.193C68.6725 145.91 70.4251 148.197 72.9393 149.309C73.9855 149.772 75.0927 150.001 76.1948 150.001C77.7426 150 79.2795 149.55 80.6189 148.664L103.286 133.677C106.311 131.677 108.206 128.457 108.485 124.841L110.182 102.874C110.325 102.756 110.47 102.64 110.612 102.521C122.217 92.8415 132.274 80.7126 138.206 69.244C149.842 46.7466 150.48 23.2198 149.824 11.1978ZM98.4393 126.345L76.7564 140.681L73.9627 122.645C83.1267 119.95 92.1921 115.635 100.828 109.854L99.7231 124.164C99.6543 125.056 99.1861 125.852 98.4393 126.345ZM60.3842 115.395L34.605 89.6159C33.9472 88.9579 33.6431 88.0336 33.7923 87.1432C34.5587 82.5603 35.7496 78.1977 37.2238 74.088L75.9039 112.768C70.9679 114.536 66.5468 115.591 62.8568 116.208C61.965 116.356 61.0419 116.053 60.3842 115.395ZM25.8364 50.2772L40.1462 49.1718C34.3647 57.8083 30.0493 66.8736 27.3549 76.0377L9.31853 73.2442L23.6547 51.561C24.1486 50.8139 24.944 50.3461 25.8364 50.2772ZM104.983 95.7711C97.8839 101.693 90.9924 105.976 84.6402 109.075L40.9231 65.3584C44.9831 57.0662 49.9381 50.1612 54.2289 45.0173C63.1864 34.2785 74.3271 25.0145 84.7946 19.6005C105.441 8.92086 127.195 8.34576 138.324 8.95162C139.797 9.0319 140.968 10.2035 141.049 11.6768C141.655 22.8061 141.079 44.559 130.4 65.206C124.986 75.6732 115.722 86.8136 104.983 95.7711Z" fill="#F4F4F4"/>
<path d="M102.749 69.2123C108.375 69.2117 114.003 67.0701 118.286 62.7872C122.436 58.6373 124.721 53.1195 124.721 47.2507C124.721 41.382 122.436 35.8642 118.286 31.7143C109.719 23.147 95.7794 23.1476 87.213 31.7143C83.0628 35.8642 80.7773 41.382 80.7773 47.2507C80.7773 53.1195 83.0631 58.6373 87.213 62.7872C91.4968 67.0709 97.1218 69.2128 102.749 69.2123ZM93.4272 37.9288C95.9971 35.3585 99.3729 34.0736 102.749 34.0736C106.125 34.0736 109.501 35.3585 112.071 37.9288C114.561 40.4187 115.932 43.7292 115.932 47.2504C115.932 50.7716 114.561 54.0825 112.071 56.5724C106.931 61.7126 98.567 61.7123 93.4269 56.5724C90.9369 54.0825 89.5655 50.7719 89.5655 47.2507C89.5655 43.7295 90.9372 40.4187 93.4272 37.9288Z" fill="#F4F4F4"/>
<path d="M4.48227 123.615C5.60698 123.615 6.73169 123.186 7.5895 122.328L21.9371 107.98C23.6533 106.264 23.6533 103.482 21.9371 101.766C20.2211 100.049 17.4385 100.049 15.7223 101.766L1.37505 116.113C-0.341162 117.829 -0.341162 120.612 1.37505 122.328C2.23286 123.186 3.35757 123.615 4.48227 123.615Z" fill="#F4F4F4"/>
<path d="M35.0861 114.913C33.3702 113.197 30.5875 113.197 28.8713 114.913L1.28716 142.498C-0.429053 144.214 -0.429053 146.996 1.28716 148.712C2.14526 149.57 3.26968 149.999 4.39438 149.999C5.51909 149.999 6.6438 149.57 7.50161 148.712L35.0858 121.128C36.8023 119.412 36.8023 116.629 35.0861 114.913Z" fill="#F4F4F4"/>
<path d="M42.0195 128.063L27.6719 142.41C25.9557 144.126 25.9557 146.909 27.6719 148.625C28.53 149.483 29.6547 149.912 30.7791 149.912C31.9036 149.912 33.0286 149.483 33.8864 148.625L48.2339 134.277C49.9501 132.561 49.9501 129.779 48.2339 128.063C46.518 126.346 43.7354 126.346 42.0195 128.063Z" fill="#F4F4F4"/>
</g>
<defs>
<clipPath id="clip0">
<rect width="150" height="150" fill="white"/>
</clipPath>
</defs>
</svg>
