<svg width="134" height="139" viewBox="0 0 134 139" fill="none" xmlns="http://www.w3.org/2000/svg">
<path d="M98.4584 69.4998C96.8591 69.4998 95.5625 68.2032 95.5625 66.6039C95.5625 65.0046 96.8591 63.708 98.4584 63.708C114.444 63.689 127.398 50.7351 127.417 34.7499V11.5833H101.354C99.755 11.5833 98.4584 10.2867 98.4584 8.68742C98.4584 7.08811 99.755 5.7915 101.354 5.7915H130.313C131.912 5.7915 133.209 7.08811 133.209 8.68742V34.7499C133.186 53.9324 117.641 69.4776 98.4584 69.4998Z" fill="url(#paint0_linear)"/>
<path d="M34.7499 69.4998C15.5674 69.4776 0.0222617 53.9324 0 34.7499V8.68742C0 7.08811 1.29661 5.7915 2.89592 5.7915H31.854C33.4533 5.7915 34.7499 7.08811 34.7499 8.68742C34.7499 10.2867 33.4533 11.5833 31.854 11.5833H5.79157V34.7499C5.81084 50.7351 18.7647 63.689 34.7499 63.7083C36.3493 63.7083 37.6459 65.0049 37.6459 66.6042C37.6456 68.2032 36.3493 69.4998 34.7499 69.4998Z" fill="url(#paint1_linear)"/>
<path d="M84.715 115.416L83.1569 113.818C77.0874 107.574 75.4194 90.1182 75.2921 83.9211C75.2606 82.3443 73.9732 81.083 72.3961 81.0833H60.8127C59.2379 81.083 57.9516 82.341 57.9168 83.9154C57.7952 90.1125 56.1272 107.557 50.0517 113.812L48.4936 115.41C40.5416 123.594 34.75 129.507 34.75 136.104C34.75 137.703 36.0466 139 37.6459 139H95.5624C97.1617 139 98.4583 137.703 98.4583 136.104C98.4586 129.507 92.667 123.594 84.715 115.416Z" fill="url(#paint2_linear)"/>
<path d="M101.355 0H31.8549C30.2556 0 28.959 1.29661 28.959 2.89592V49.2293C29.2305 69.9068 45.927 86.6034 66.6048 86.8749C87.2827 86.6034 103.979 69.9068 104.251 49.229V2.89592C104.251 1.29661 102.954 0 101.355 0Z" fill="#5FA8ED"/>
<path d="M71.2805 22.0909V57H63.8998V29.0966H63.6953L55.701 34.108V27.5625L64.343 22.0909H71.2805Z" fill="white"/>
<defs>
<linearGradient id="paint0_linear" x1="106.237" y1="14.7548" x2="141.855" y2="52.9086" gradientUnits="userSpaceOnUse">
<stop stop-color="#5FA8ED"/>
<stop offset="1" stop-color="#7ED5B7"/>
</linearGradient>
<linearGradient id="paint1_linear" x1="10.6745" y1="14.7548" x2="46.2923" y2="52.9083" gradientUnits="userSpaceOnUse">
<stop stop-color="#5FA8ED"/>
<stop offset="1" stop-color="#7ED5B7"/>
</linearGradient>
<linearGradient id="paint2_linear" x1="66.7203" y1="85.7827" x2="62.4514" y2="138.655" gradientUnits="userSpaceOnUse">
<stop stop-color="#4075A7"/>
<stop offset="1" stop-color="#68E7BB"/>
</linearGradient>
</defs>
</svg>
