<svg width="134" height="139" viewBox="0 0 134 139" fill="none" xmlns="http://www.w3.org/2000/svg">
<path d="M98.4584 69.5C96.8591 69.5 95.5625 68.2033 95.5625 66.604C95.5625 65.0047 96.8591 63.7081 98.4584 63.7081C114.444 63.6891 127.398 50.7352 127.417 34.7499V11.5834H101.354C99.755 11.5834 98.4584 10.2867 98.4584 8.68743C98.4584 7.08811 99.755 5.7915 101.354 5.7915H130.313C131.912 5.7915 133.209 7.08811 133.209 8.68743V34.7499C133.186 53.9325 117.641 69.4777 98.4584 69.5Z" fill="url(#paint0_linear)"/>
<path d="M34.75 69.5C15.5675 69.4777 0.0222617 53.9325 0 34.7499V8.68743C0 7.08811 1.29661 5.7915 2.89592 5.7915H31.8541C33.4534 5.7915 34.75 7.08811 34.75 8.68743C34.75 10.2867 33.4534 11.5834 31.8541 11.5834H5.79158V34.7499C5.81085 50.7352 18.7647 63.6891 34.75 63.7084C36.3493 63.7084 37.6459 65.005 37.6459 66.6043C37.6457 68.2033 36.3493 69.5 34.75 69.5Z" fill="url(#paint1_linear)"/>
<path d="M84.7151 115.416L83.1571 113.818C77.0875 107.574 75.4195 90.1184 75.2921 83.9212C75.2607 82.3444 73.9733 81.0831 72.3962 81.0834H60.8128C59.2379 81.0831 57.9516 82.3412 57.9169 83.9155C57.7952 90.1127 56.1272 107.557 50.0517 113.812L48.4936 115.411C40.5416 123.594 34.75 129.508 34.75 136.104C34.75 137.704 36.0466 139 37.6459 139H95.5625C97.1619 139 98.4585 137.704 98.4585 136.104C98.4587 129.508 92.6672 123.594 84.7151 115.416Z" fill="url(#paint2_linear)"/>
<path d="M101.355 0H31.8549C30.2556 0 28.959 1.29661 28.959 2.89593V49.2294C29.2305 69.907 45.927 86.6036 66.6049 86.875C87.2828 86.6036 103.979 69.907 104.251 49.2291V2.89593C104.251 1.29661 102.954 0 101.355 0Z" fill="#F4AC92"/>
<path d="M54.7181 57V51.6818L67.1442 40.1761C68.201 39.1534 69.0874 38.233 69.8033 37.4148C70.5306 36.5966 71.0817 35.7955 71.4567 35.0114C71.8317 34.2159 72.0192 33.358 72.0192 32.4375C72.0192 31.4148 71.7863 30.5341 71.3204 29.7955C70.8544 29.0455 70.2181 28.4716 69.4113 28.0739C68.6044 27.6648 67.6897 27.4602 66.6669 27.4602C65.5988 27.4602 64.6669 27.6761 63.8715 28.108C63.076 28.5398 62.4624 29.1591 62.0306 29.9659C61.5988 30.7727 61.3829 31.733 61.3829 32.8466H54.3772C54.3772 30.5625 54.8942 28.5795 55.9283 26.8977C56.9624 25.2159 58.4113 23.9148 60.2749 22.9943C62.1385 22.0739 64.2863 21.6136 66.7181 21.6136C69.2181 21.6136 71.3942 22.0568 73.2465 22.9432C75.1101 23.8182 76.559 25.0341 77.5931 26.5909C78.6272 28.1477 79.1442 29.9318 79.1442 31.9432C79.1442 33.2614 78.8829 34.5625 78.3601 35.8466C77.8488 37.1307 76.934 38.5568 75.6158 40.125C74.2976 41.6818 72.4397 43.5511 70.0419 45.733L64.9454 50.7273V50.9659H79.6044V57H54.7181Z" fill="white"/>
<defs>
<linearGradient id="paint0_linear" x1="106.237" y1="14.7548" x2="141.855" y2="52.9087" gradientUnits="userSpaceOnUse">
<stop stop-color="#EF8197"/>
<stop offset="0.942708" stop-color="#F7C58F"/>
</linearGradient>
<linearGradient id="paint1_linear" x1="10.6745" y1="14.7548" x2="46.2924" y2="52.9084" gradientUnits="userSpaceOnUse">
<stop stop-color="#EF8197"/>
<stop offset="0.942708" stop-color="#F7C58F"/>
</linearGradient>
<linearGradient id="paint2_linear" x1="66.7208" y1="81.0172" x2="62.4837" y2="133.495" gradientUnits="userSpaceOnUse">
<stop stop-color="#CD667B"/>
<stop offset="0.942708" stop-color="#F7C58F"/>
</linearGradient>
</defs>
</svg>
