<svg width="135" height="141" viewBox="0 0 135 141" fill="none" xmlns="http://www.w3.org/2000/svg">
<path d="M99.7825 70.4345C98.1617 70.4345 96.8477 69.1205 96.8477 67.4996C96.8477 65.8788 98.1617 64.5648 99.7825 64.5648C115.983 64.5455 129.111 51.4174 129.13 35.2172V11.7391H102.717C101.097 11.7391 99.7825 10.4251 99.7825 8.80425C99.7825 7.18343 101.097 5.86938 102.717 5.86938H132.065C133.686 5.86938 135 7.18343 135 8.80425V35.2172C134.977 54.6577 119.223 70.4119 99.7825 70.4345Z" fill="url(#paint0_linear)"/>
<path d="M35.2173 70.4345C15.7768 70.4119 0.0225611 54.6577 0 35.2172V8.80425C0 7.18343 1.31404 5.86938 2.93487 5.86938H32.2824C33.9032 5.86938 35.2173 7.18343 35.2173 8.80425C35.2173 10.4251 33.9032 11.7391 32.2824 11.7391H5.86946V35.2172C5.88899 51.4174 19.0171 64.5455 35.2173 64.5651C36.8381 64.5651 38.1521 65.8791 38.1521 67.4999C38.1519 69.1205 36.8381 70.4345 35.2173 70.4345Z" fill="url(#paint1_linear)"/>
<path d="M85.8538 116.968L84.2748 115.348C78.1236 109.021 76.4331 91.3302 76.3041 85.0497C76.2722 83.4517 74.9675 82.1734 73.3692 82.1737H61.63C60.034 82.1734 58.7304 83.4484 58.6952 85.0439C58.5719 91.3244 56.8815 109.004 50.7242 115.343L49.1452 116.963C41.0863 125.256 35.2168 131.249 35.2168 137.935C35.2168 139.555 36.5308 140.869 38.1517 140.869H96.8471C98.4679 140.869 99.7819 139.555 99.7819 137.935C99.7822 131.249 93.9128 125.256 85.8538 116.968Z" fill="url(#paint2_linear)"/>
<path d="M102.717 0H32.2825C30.6617 0 29.3477 1.31405 29.3477 2.93487V49.8913C29.6228 70.847 46.5439 87.7681 67.4998 88.0432C88.4557 87.7681 105.377 70.847 105.652 49.8911V2.93487C105.652 1.31405 104.338 0 102.717 0Z" fill="#7B97F8"/>
<path d="M67.5296 57.5517C64.9841 57.5517 62.7171 57.1142 60.7284 56.2392C58.7511 55.3529 57.1886 54.137 56.0409 52.5915C54.9046 51.0347 54.3193 49.2392 54.2852 47.2051H61.7171C61.7625 48.0574 62.0409 48.8074 62.5523 49.4551C63.075 50.0915 63.7682 50.5858 64.6318 50.9381C65.4955 51.2904 66.4671 51.4665 67.5466 51.4665C68.6716 51.4665 69.6659 51.2676 70.5296 50.8699C71.3932 50.4722 72.0693 49.9211 72.558 49.2165C73.0466 48.512 73.2909 47.6995 73.2909 46.779C73.2909 45.8472 73.0296 45.0233 72.5068 44.3074C71.9955 43.5801 71.2568 43.012 70.2909 42.6029C69.3364 42.1938 68.2 41.9892 66.8818 41.9892H63.6261V36.5688H66.8818C67.9955 36.5688 68.9784 36.3756 69.8307 35.9892C70.6943 35.6029 71.3648 35.0688 71.8421 34.387C72.3193 33.6938 72.558 32.887 72.558 31.9665C72.558 31.0915 72.3477 30.3245 71.9273 29.6654C71.5182 28.9949 70.9386 28.4722 70.1886 28.0972C69.45 27.7222 68.5864 27.5347 67.5977 27.5347C66.5977 27.5347 65.683 27.7165 64.8534 28.0801C64.0239 28.4324 63.3591 28.9381 62.8591 29.5972C62.3591 30.2563 62.0921 31.029 62.058 31.9154H54.9841C55.0182 29.904 55.5921 28.1313 56.7057 26.5972C57.8193 25.0631 59.3193 23.8642 61.2057 23.0006C63.1034 22.1256 65.2455 21.6881 67.6318 21.6881C70.0409 21.6881 72.1489 22.1256 73.9557 23.0006C75.7625 23.8756 77.1659 25.0574 78.1659 26.5461C79.1773 28.0233 79.6773 29.6824 79.6659 31.5233C79.6773 33.4779 79.0693 35.1086 77.8421 36.4154C76.6261 37.7222 75.0409 38.5517 73.0864 38.904V39.1767C75.6546 39.5063 77.6091 40.3983 78.95 41.8529C80.3023 43.2961 80.9727 45.1029 80.9614 47.2733C80.9727 49.262 80.3989 51.029 79.2398 52.5745C78.0921 54.1199 76.5068 55.3358 74.4841 56.2222C72.4614 57.1086 70.1432 57.5517 67.5296 57.5517Z" fill="white"/>
<defs>
<linearGradient id="paint0_linear" x1="107.666" y1="14.9532" x2="143.763" y2="53.6201" gradientUnits="userSpaceOnUse">
<stop stop-color="#8177F7"/>
<stop offset="1" stop-color="#799FF8"/>
</linearGradient>
<linearGradient id="paint1_linear" x1="10.818" y1="14.9532" x2="46.9149" y2="53.6199" gradientUnits="userSpaceOnUse">
<stop stop-color="#8177F7"/>
<stop offset="1" stop-color="#799FF8"/>
</linearGradient>
<linearGradient id="paint2_linear" x1="67.6175" y1="89.3513" x2="63.4848" y2="140.535" gradientUnits="userSpaceOnUse">
<stop stop-color="#5F55CE"/>
<stop offset="1" stop-color="#799FF8"/>
</linearGradient>
</defs>
</svg>
