<svg width="518" height="584" viewBox="0 0 518 584" fill="none" xmlns="http://www.w3.org/2000/svg">
<path d="M164.11 132.168C164.303 128.693 164.882 125.026 166.039 121.745C167.197 118.464 165.075 115.375 165.46 111.515C165.653 110.357 165.846 109.585 166.039 108.813C166.618 106.497 166.811 104.18 166.618 101.864C166.618 100.513 166.618 99.162 166.425 98.004C166.425 96.0738 166.232 94.1437 166.618 92.2135C167.004 90.2834 167.583 88.3532 168.933 87.0021C169.126 86.8091 169.319 86.6161 169.512 86.6161C169.898 86.4231 170.284 86.8091 170.477 87.0021C170.67 87.3881 170.863 87.7742 170.863 88.1602C172.599 95.4948 172.985 102.057 174.722 109.392C174.914 110.55 175.3 111.708 175.3 112.866C175.493 114.024 175.493 114.989 175.493 116.147C175.493 118.464 175.686 120.78 175.686 123.096C175.686 125.412 176.072 127.728 179.352 130.817C193.244 140.66 224.5 158.032 224.5 158.032C230.095 149.925 238.392 139.695 248.617 125.991C256.335 115.761 266.175 108.041 280.066 109.199L261.158 153.592C261.158 153.592 236.462 179.842 233.568 181.579C229.902 183.703 227.201 184.282 224.693 183.51C219.291 181.579 217.168 179.649 211.766 176.175C205.592 172.315 171.827 143.942 171.827 143.942C167.39 139.695 163.724 138.151 164.11 132.168Z" fill="url(#paint0_linear)"/>
<path d="M283.154 108.813C273.121 108.427 267.719 109.199 260.387 114.218C253.056 119.236 248.618 125.798 244.759 130.238C244.759 130.238 245.917 145.1 260.966 156.102L263.089 153.207L283.154 108.813Z" fill="#14528C"/>
<path d="M419.369 119.044C419.369 111.902 423.421 103.795 429.595 91.8284C436.541 78.5104 442.136 70.2108 447.152 55.7347C449.082 50.3302 450.432 45.1188 450.239 39.3284C450.239 36.2402 449.275 33.1519 449.854 30.0637C450.239 27.5545 451.397 25.2383 453.327 23.6942C456.606 20.992 460.465 22.7291 464.131 21.378C466.832 20.2199 468.762 17.7107 470.498 15.3945C472.042 13.2714 473.585 10.9552 475.515 9.21807C477.444 7.48093 480.338 6.51586 482.846 5.7438C486.705 4.58571 490.757 5.16475 494.616 4.00667C495.966 3.62064 497.51 2.84858 498.86 2.46255C500.211 2.07652 501.947 2.26953 503.105 3.04159C504.648 4.19968 505.034 6.51586 504.455 8.25299C504.07 9.6041 503.298 10.7622 502.333 11.9203C501.754 12.8854 501.368 14.0434 500.597 15.0085C498.86 17.5177 496.931 19.8339 495.001 22.1501C488.827 29.2916 484.583 33.3449 479.952 39.1354C477.058 42.6096 472.428 48.9791 470.884 53.2255C469.726 56.3137 466.639 73.685 464.324 84.3009C455.256 127.343 453.134 145.294 445.416 150.312C440.593 153.786 439.435 154.365 433.84 157.454C421.877 164.209 384.447 182.352 356.857 190.266L338.335 174.632C344.123 162.665 345.088 143.363 367.468 133.134C370.17 131.976 375.765 130.238 383.29 129.659C390.235 127.922 419.369 119.044 419.369 119.044Z" fill="url(#paint1_linear)"/>
<path d="M470.884 53.2255C470.305 54.5766 469.533 58.0508 468.762 62.4902C468.183 53.6115 462.202 44.5398 469.919 37.2052C471.463 35.6611 473.392 34.503 475.322 33.3449C477.058 32.3799 479.566 31.8008 481.303 30.6427C488.249 25.4313 487.284 15.2015 494.423 9.99013C495.58 9.21807 497.317 8.05998 498.474 7.28792C499.246 6.51586 499.632 4.97174 500.211 3.62064C500.404 3.04159 500.597 2.65556 500.983 2.26953C501.754 2.46255 502.526 2.65556 503.105 3.04159C504.648 4.19968 505.034 6.51586 504.455 8.25299C504.07 9.6041 503.298 10.7622 502.333 11.9203C501.754 12.8854 501.368 14.0434 500.597 15.0085C498.86 17.5177 496.931 19.8339 495.001 22.1501C488.827 29.2916 484.583 33.3449 479.952 39.1354C476.865 42.8027 472.428 48.9791 470.884 53.2255Z" fill="#F28F8F"/>
<path d="M376.152 176.177L370.557 145.874C370.557 145.874 390.237 139.504 409.145 150.506C422.072 149.927 435.578 150.313 445.225 150.699C440.594 153.981 439.436 154.56 434.034 157.648C424.966 162.859 400.656 174.633 377.503 183.512L376.152 176.177Z" fill="#F28F8F"/>
<path d="M357.629 139.311C362.453 134.678 365.926 132.941 371.907 131.397C377.888 129.853 380.203 129.853 384.834 128.502C389.464 127.151 396.796 125.028 396.796 125.028C396.796 125.028 400.848 124.449 407.6 127.73C414.546 131.011 424.965 140.276 427.473 152.822C429.789 165.561 424.579 171.93 424.579 171.93L386.184 186.985L357.629 139.311Z" fill="url(#paint2_linear)"/>
<path opacity="0.1" d="M370.942 146.065C383.097 135.642 402.777 137.765 411.073 143.17L423.229 142.012C425.158 145.293 426.701 148.767 427.473 152.821C429.789 165.56 424.579 171.929 424.579 171.929L386.184 186.984L366.311 153.593C367.662 150.311 369.206 147.609 370.942 146.065Z" fill="black"/>
<path d="M374.994 145.873L380.589 176.176L386.377 208.024C427.087 203.777 485.548 191.617 496.352 182.353C501.948 177.527 501.948 164.209 499.825 116.728C499.247 103.796 496.545 83.529 497.51 68.6669C497.51 64.6136 498.282 60.3673 499.632 56.507C502.527 46.2772 509.279 37.9775 514.489 29.0988C515.453 27.3617 516.418 25.6246 516.804 23.8874C517.19 22.3433 516.997 20.7992 517.19 19.2551C517.576 17.711 518.155 16.3599 517.962 15.0087C517.769 13.8507 516.997 12.6926 516.611 11.5345C516.225 10.1834 516.611 8.83227 516.418 7.48117C516.225 6.70911 516.032 5.74403 515.261 5.16499C514.682 4.58594 513.717 4.58594 513.331 3.81388C513.331 3.62087 513.138 3.42785 513.138 3.23484C512.752 0.725645 510.437 -0.432445 507.929 0.1466C506.385 0.725645 505.228 1.88373 504.649 3.62087C504.07 4.97197 503.491 6.51609 502.527 7.48117C501.562 8.44624 499.632 9.41132 498.475 10.1834C491.529 15.2018 492.301 25.6246 485.355 30.836C483.811 31.9941 481.303 32.5731 479.374 33.5382C477.444 34.5033 475.515 35.8544 473.972 37.3985C465.675 45.3121 473.586 55.1559 472.814 64.9996C471.849 74.2643 468.376 87.7754 466.254 100.128C462.781 120.395 459.308 141.434 461.816 151.47C461.816 151.47 436.348 149.733 413.196 150.698C394.673 139.503 374.994 145.873 374.994 145.873Z" fill="url(#paint3_linear)"/>
<path d="M479.373 158.033C467.604 156.295 462.009 151.47 462.009 151.47C461.044 147.61 461.044 143.363 461.237 137.959C462.394 148.961 479.373 158.033 479.373 158.033Z" fill="#F28F8F"/>
<path d="M371.906 146.838C381.36 140.662 391.2 142.592 398.918 143.943C406.442 145.487 410.687 148.575 413.774 149.54C416.668 150.505 421.299 148.768 431.91 149.54C431.91 149.54 434.997 149.347 439.821 154.173C444.452 158.998 447.731 169.614 447.153 174.439C447.153 174.439 431.525 179.651 432.103 180.616C432.682 181.581 447.731 180.23 447.731 180.23C447.731 180.23 448.696 185.441 446.767 191.231C445.416 195.671 440.979 200.496 440.979 200.496C440.979 200.496 403.548 207.252 385.798 209.954C371.713 212.077 371.906 146.838 371.906 146.838Z" fill="url(#paint4_linear)"/>
<path d="M419.37 119.044C419.37 115.183 420.721 110.744 422.843 105.726C422.843 107.849 422.843 110.358 423.229 113.446C424.387 122.325 432.49 127.729 432.49 127.729C432.49 127.729 422.843 125.413 419.37 119.044Z" fill="#F28F8F"/>
<path d="M299.361 109.2C301.87 109.586 318.462 112.867 322.707 114.218C330.425 116.535 339.879 144.522 344.702 151.47C347.982 147.224 352.806 142.399 357.629 139.117C362.26 138.731 377.888 145.873 386.763 163.051C396.217 181.388 394.288 199.917 388.114 209.954C374.029 214.393 358.208 216.323 330.039 214.2C317.112 213.235 297.818 206.479 288.943 199.917C283.155 195.671 280.646 193.547 276.016 189.687C256.143 185.634 255.371 168.263 259.037 153.593C263.282 136.029 264.439 125.606 271.385 114.025C274.472 109.007 285.856 107.077 299.361 109.2Z" fill="url(#paint5_linear)"/>
<path d="M284.697 189.301C290.099 192.582 298.396 192.775 305.92 190.073C313.445 187.371 317.69 178.685 317.497 171.93C317.497 171.93 321.741 187.371 308.236 193.161C293.765 199.531 285.083 191.231 284.697 189.301Z" fill="#5AA6BB"/>
<path d="M248.231 51.1022C238.198 49.7511 234.533 52.4534 231.639 58.2438C228.359 64.8063 229.323 87.7751 256.914 90.0913C280.259 92.0214 289.713 96.0747 298.781 100.321C317.69 109.007 349.139 105.146 363.609 93.1795C381.552 78.3173 380.588 60.1739 372.484 51.1022C364.381 42.0305 349.139 49.9442 349.139 49.9442C349.139 49.9442 354.348 33.3449 339.685 30.4497C328.301 28.3265 325.214 41.8375 311.708 45.3118C300.132 48.4 295.116 41.2585 283.346 37.3982C271.577 33.5379 252.283 38.7493 248.231 51.1022Z" fill="#455A64"/>
<path opacity="0.2" d="M248.231 51.1022C238.198 49.7511 234.533 52.4534 231.639 58.2438C228.359 64.8063 229.323 87.7751 256.914 90.0913C280.259 92.0214 289.713 96.0747 298.781 100.321C317.69 109.007 349.139 105.146 363.609 93.1795C381.552 78.3173 380.588 60.1739 372.484 51.1022C364.381 42.0305 349.139 49.9442 349.139 49.9442C349.139 49.9442 354.348 33.3449 339.685 30.4497C328.301 28.3265 325.214 41.8375 311.708 45.3118C300.132 48.4 295.116 41.2585 283.346 37.3982C271.577 33.5379 252.283 38.7493 248.231 51.1022Z" fill="black"/>
<path d="M299.361 90.2852L302.641 111.903L312.48 114.605C310.937 118.079 301.483 145.294 295.116 147.225C289.714 148.769 275.243 148.19 272.928 141.048C272.156 138.346 277.751 117.307 277.751 117.307L277.366 115.763L299.361 90.2852Z" fill="#FFBEB5"/>
<path d="M251.511 59.0156C251.511 59.0156 250.739 69.0524 263.473 75.0359C275.628 81.0193 284.696 78.5101 292.607 87.1958C296.08 91.8282 299.167 84.1076 300.132 76.966C300.903 74.8429 301.675 73.8778 303.412 72.3337C305.534 70.5965 312.48 69.6314 315.374 76.0009C318.075 81.9844 313.637 89.512 309.2 92.0212C306.113 93.7583 304.183 93.5653 302.64 93.1793C299.939 92.4072 299.36 90.284 299.36 90.284L295.308 97.8116C294.343 101.865 292.607 105.532 290.485 109.2C287.976 111.516 281.224 114.99 279.873 114.99L277.751 115.569C271.191 117.306 262.123 117.499 258.457 116.148C254.791 114.99 248.231 111.516 247.652 89.898C246.88 64.034 250.932 59.9807 251.511 59.0156Z" fill="url(#paint6_linear)"/>
<path d="M296.079 95.1094C296.079 95.1094 296.658 104.953 291.642 110.744C290.677 111.902 286.046 117.113 278.522 118.85L277.171 115.762C277.171 115.762 280.258 114.797 282.574 113.832C284.889 112.867 287.011 111.516 288.555 110.358C294.343 106.111 295.308 97.0395 296.079 95.1094Z" fill="#F28F8F"/>
<path d="M278.907 115.376C278.907 115.376 281.801 131.396 283.345 134.291C284.309 136.029 287.203 136.029 289.133 135.45C289.133 135.45 284.888 137.959 282.573 135.063C280.258 132.168 277.171 115.762 277.171 115.762L278.907 115.376Z" fill="#F28F8F"/>
<path d="M270.033 85.073C270.033 86.6171 271.191 87.9682 272.734 87.9682C274.278 87.9682 275.436 86.8101 275.436 85.073C275.436 83.5288 274.278 82.1777 272.734 82.1777C271.384 82.1777 270.033 83.5288 270.033 85.073Z" fill="#263238"/>
<path d="M270.805 75.4231L277.172 77.5463C277.75 75.8092 276.786 73.879 275.049 73.107C273.313 72.7209 271.383 73.686 270.805 75.4231Z" fill="#455A64"/>
<path d="M272.928 100.129L261.352 103.989C262.317 107.27 265.789 109.008 269.069 108.043C272.349 107.077 274.086 103.41 272.928 100.129Z" fill="#B16668"/>
<path d="M265.404 108.236C265.789 105.148 268.491 102.832 271.578 103.025C272.156 103.025 272.542 103.218 273.121 103.411C272.735 105.534 271.192 107.464 269.069 108.236C267.912 108.622 266.561 108.622 265.404 108.236Z" fill="#F28F8F"/>
<path d="M246.88 77.7389L252.668 74.4576C251.896 72.7205 249.774 72.1414 248.23 73.1065C246.687 73.8786 246.108 76.0017 246.88 77.7389Z" fill="#455A64"/>
<path d="M249.775 83.529C249.775 85.0731 250.933 86.4242 252.477 86.4242C254.02 86.4242 255.178 85.2661 255.178 83.529C255.178 81.9849 254.02 80.6338 252.477 80.6338C250.933 80.6338 249.775 81.9849 249.775 83.529Z" fill="#263238"/>
<path d="M263.086 83.1426L261.157 98.5838L252.474 95.4955L263.086 83.1426Z" fill="#E7A49A"/>
<path d="M323.479 218.446C315.376 235.432 303.414 263.805 299.748 267.086C292.223 269.209 286.821 275.772 281.033 277.702C275.244 279.632 274.666 282.141 277.174 283.106C281.033 284.651 285.084 283.299 288.943 282.334C289.329 282.334 289.715 282.141 289.908 282.334C290.487 282.72 289.908 283.492 289.522 284.072C285.084 288.704 279.875 292.757 274.28 295.845C273.508 296.231 272.543 296.811 271.964 297.39C271.386 298.162 270.807 299.127 271 300.092C271.386 301.829 273.701 302.408 275.63 302.408C285.663 302.408 295.889 296.618 303.028 290.055C311.903 281.948 342.001 241.994 347.597 232.344C349.333 229.448 351.07 226.939 351.263 224.43C351.841 220.377 351.648 216.13 351.455 209.568C351.455 203.005 349.912 169.228 348.947 155.138C346.632 126.378 340.651 118.272 322.708 114.025C313.061 123.29 319.042 160.735 319.042 160.735L323.479 218.446Z" fill="url(#paint7_linear)"/>
<path d="M322.707 114.218C332.739 115.183 341.808 121.552 345.28 130.817C348.753 140.082 350.297 162.858 350.297 162.858C350.297 162.858 334.862 166.332 318.076 165.367C318.076 165.367 315.375 142.205 316.34 130.431C317.304 118.657 320.584 115.762 322.707 114.218Z" fill="#367DC0"/>
<path d="M167.452 122.406C167.009 121.744 166.632 121.265 165.943 120.487C162.379 116.845 158.75 113.022 155.186 109.38C154.562 108.784 153.691 108.071 152.848 108.579C152.369 108.957 152.383 109.567 152.397 110.177C152.468 113.228 154.057 115.939 155.763 118.402C156.96 120.023 157.976 121.709 158.992 123.395C159.695 124.783 160.101 126.483 160.623 127.936C161.98 131.14 162.349 133.879 165.535 137.041C166.784 138.233 169.993 139.747 172.265 140.366C174.044 140.752 169.337 129.933 169.337 129.933C169.424 128.465 168.409 126.779 168.496 125.312C168.286 124.157 167.96 123.249 167.452 122.406Z" fill="url(#paint8_linear)"/>
<path d="M456.91 354.771C456.908 343.351 452.552 332.361 444.73 324.04C436.907 315.719 426.206 310.692 414.807 309.983C403.407 309.274 392.166 312.937 383.373 320.225C374.579 327.514 368.895 337.879 367.478 349.211C366.372 358.078 367.937 367.072 371.975 375.044C376.529 384.053 383.989 391.263 393.148 395.509C402.307 399.756 412.63 400.791 422.45 398.447C432.27 396.104 441.013 390.518 447.266 382.592C453.519 374.667 456.917 364.865 456.91 354.771Z" fill="url(#paint9_linear)"/>
<path d="M130.351 225.002C130.349 216.1 126.954 207.533 120.856 201.046C114.758 194.56 106.417 190.641 97.5302 190.089C88.6439 189.536 79.8811 192.391 73.0265 198.073C66.172 203.754 61.7412 211.834 60.6365 220.668C59.7739 227.579 60.9944 234.591 64.1417 240.805C67.6921 247.828 73.507 253.448 80.6466 256.759C87.7863 260.069 95.8337 260.876 103.489 259.049C111.144 257.222 117.959 252.867 122.833 246.689C127.707 240.512 130.356 232.871 130.351 225.002Z" fill="url(#paint10_linear)"/>
<path d="M397.209 492.943C397.208 487.098 394.978 481.473 390.975 477.215C386.971 472.956 381.494 470.383 375.66 470.02C369.825 469.657 364.072 471.532 359.571 475.262C355.071 478.992 352.162 484.298 351.437 490.097C350.87 494.635 351.672 499.239 353.738 503.319C356.069 507.93 359.887 511.62 364.575 513.793C369.262 515.967 374.546 516.497 379.572 515.297C384.598 514.097 389.072 511.239 392.273 507.182C395.473 503.126 397.212 498.109 397.209 492.943Z" fill="url(#paint11_linear)"/>
<path d="M299.184 433.925C299.177 395.868 284.66 359.244 258.592 331.514C232.523 303.783 196.863 287.031 158.873 284.669C120.884 282.308 83.4228 294.514 54.1192 318.802C24.8157 343.09 5.87383 377.633 1.15131 415.397C-2.53638 444.944 2.68132 474.92 16.1362 501.484C31.3144 531.506 56.1731 555.535 86.6954 569.687C117.218 583.839 151.621 587.288 184.346 579.477C217.071 571.666 246.206 553.051 267.044 526.64C287.882 500.23 299.205 467.565 299.184 433.925Z" fill="url(#paint12_linear)"/>
<path d="M286.355 494.635C214.053 531.738 189.261 516.178 112.011 488.648C67.8613 472.898 35.6354 486.734 16.1426 501.481C28.9275 526.726 48.6112 547.828 72.9088 562.337C97.2064 576.846 125.121 584.167 153.413 583.45C181.705 582.733 209.213 574.008 232.745 558.287C256.276 542.567 274.866 520.495 286.355 494.635Z" fill="url(#paint13_linear)"/>
<path d="M293.436 392.611C283.91 359.49 263.239 330.674 234.918 311.031C206.597 291.388 172.362 282.123 137.998 284.802C103.634 287.481 71.2493 301.939 46.3155 325.734C21.3816 349.529 5.4279 381.201 1.15039 415.397C14.3053 402.992 29.8719 393.425 46.8825 387.292C63.893 381.159 81.9836 378.59 100.029 379.746C178.657 384.368 239.087 439.913 293.436 392.611Z" fill="url(#paint14_linear)"/>
<defs>
<linearGradient id="paint0_linear" x1="214.999" y1="93.8229" x2="222.074" y2="183.836" gradientUnits="userSpaceOnUse">
<stop stop-color="#FFA8A7"/>
<stop offset="1" stop-color="#FFD4C2"/>
</linearGradient>
<linearGradient id="paint1_linear" x1="421.523" y1="2.26953" x2="421.523" y2="190.266" gradientUnits="userSpaceOnUse">
<stop stop-color="#FFA8A7"/>
<stop offset="1" stop-color="#FFDAC6"/>
</linearGradient>
<linearGradient id="paint2_linear" x1="408.094" y1="133.711" x2="380.792" y2="189.941" gradientUnits="userSpaceOnUse">
<stop stop-color="#8177F7"/>
<stop offset="1" stop-color="#799FF8"/>
</linearGradient>
<linearGradient id="paint3_linear" x1="434.451" y1="107.638" x2="532.717" y2="147.824" gradientUnits="userSpaceOnUse">
<stop stop-color="#FFA8A7"/>
<stop offset="1" stop-color="#FFE5CC"/>
</linearGradient>
<linearGradient id="paint4_linear" x1="425.032" y1="134.639" x2="398.308" y2="212.729" gradientUnits="userSpaceOnUse">
<stop stop-color="#8177F7"/>
<stop offset="1" stop-color="#799FF8"/>
</linearGradient>
<linearGradient id="paint5_linear" x1="354.08" y1="144.998" x2="300.061" y2="217.713" gradientUnits="userSpaceOnUse">
<stop stop-color="#4F8EC9"/>
<stop offset="1" stop-color="#7ED5B7"/>
</linearGradient>
<linearGradient id="paint6_linear" x1="281.876" y1="59.0156" x2="281.876" y2="117.035" gradientUnits="userSpaceOnUse">
<stop stop-color="#FFA8A7"/>
<stop offset="1" stop-color="#FFD3C2"/>
</linearGradient>
<linearGradient id="paint7_linear" x1="271.198" y1="187.696" x2="346.546" y2="261.16" gradientUnits="userSpaceOnUse">
<stop stop-color="#FFA8A7"/>
<stop offset="1" stop-color="#FFD9C5"/>
</linearGradient>
<linearGradient id="paint8_linear" x1="156.483" y1="107.247" x2="168.846" y2="141.654" gradientUnits="userSpaceOnUse">
<stop stop-color="#FFA8A7"/>
<stop offset="1" stop-color="#FFBCB4"/>
</linearGradient>
<linearGradient id="paint9_linear" x1="392.589" y1="387.043" x2="435.146" y2="309.897" gradientUnits="userSpaceOnUse">
<stop stop-color="#73BCF9"/>
<stop offset="1" stop-color="#7A96F8"/>
</linearGradient>
<linearGradient id="paint10_linear" x1="106.583" y1="293.406" x2="106.583" y2="190.021" gradientUnits="userSpaceOnUse">
<stop offset="0.169841" stop-color="#EA5AB1"/>
<stop offset="0.942708" stop-color="#F9E1C5"/>
</linearGradient>
<linearGradient id="paint11_linear" x1="364.289" y1="509.46" x2="386.07" y2="469.976" gradientUnits="userSpaceOnUse">
<stop stop-color="#8177F7"/>
<stop offset="1" stop-color="#799FF8"/>
</linearGradient>
<linearGradient id="paint12_linear" x1="84.8336" y1="541.472" x2="226.654" y2="284.381" gradientUnits="userSpaceOnUse">
<stop stop-color="#5FA8ED"/>
<stop offset="1" stop-color="#7ED5B7"/>
</linearGradient>
<linearGradient id="paint13_linear" x1="92.7613" y1="569.172" x2="115.502" y2="459.777" gradientUnits="userSpaceOnUse">
<stop stop-color="#5FA8ED"/>
<stop offset="1" stop-color="#7ED5B7"/>
</linearGradient>
<linearGradient id="paint14_linear" x1="84.028" y1="396.96" x2="118.262" y2="258.548" gradientUnits="userSpaceOnUse">
<stop stop-color="#5FA8ED"/>
<stop offset="1" stop-color="#7ED5B7"/>
</linearGradient>
</defs>
</svg>
