<svg width="106" height="106" viewBox="0 0 106 106" fill="none" xmlns="http://www.w3.org/2000/svg">
<g opacity="0.15">
<path opacity="0.7" d="M1.74868e-05 52.9832C0.00265588 39.4996 5.14574 26.524 14.3818 16.6991C23.6178 6.8742 36.2522 0.938993 49.7117 0.102223C63.1712 -0.734555 76.4436 3.59004 86.8257 12.1953C97.2079 20.8005 103.919 33.0391 105.592 46.4186C106.899 56.8872 105.05 67.5075 100.283 76.9192C94.9054 87.5559 86.098 96.0691 75.2841 101.083C64.4701 106.097 52.2812 107.319 40.6869 104.552C29.0925 101.785 18.77 95.1893 11.3872 85.832C4.00441 76.4746 -0.0074047 64.9017 1.74868e-05 52.9832Z" fill="url(#paint0_linear)"/>
</g>
<path d="M13.7451 53.77C13.7471 43.5947 17.6287 33.8027 24.5993 26.3884C31.5699 18.9742 41.1052 14.4952 51.2634 13.8637C61.4215 13.2323 71.4384 16.4958 79.274 22.9897C87.1095 29.4835 92.1745 38.7194 93.4373 48.8161C94.4233 56.7162 93.0281 64.7307 89.4304 71.8332C85.3718 79.8601 78.7248 86.2845 70.5633 90.0683C62.4018 93.8522 53.2026 94.7744 44.4522 92.686C35.7017 90.5976 27.9111 85.6206 22.3392 78.5591C16.7673 71.4977 13.7395 62.7643 13.7451 53.77Z" fill="url(#paint1_linear)"/>
<path d="M17.1759 70.0033C36.5092 79.9237 43.1383 75.7632 63.7944 68.4027C75.5999 64.1916 84.2169 67.891 89.4292 71.8339C86.0106 78.5837 80.7473 84.2256 74.2502 88.1049C67.7532 91.9841 60.2889 93.9415 52.7238 93.7499C45.1588 93.5582 37.8032 91.2253 31.511 87.0221C25.2189 82.8188 20.2481 76.9176 17.1759 70.0033Z" fill="url(#paint2_linear)"/>
<path d="M15.2821 42.7246C17.8295 33.8692 23.3567 26.1645 30.9296 20.9126C38.5025 15.6607 47.6567 13.1836 56.8453 13.8999C66.0339 14.6162 74.6935 18.4819 81.3606 24.8438C88.0278 31.2057 92.2937 39.6738 93.4375 48.8169C89.92 45.5001 85.7575 42.9422 81.209 41.3024C76.6605 39.6625 71.8232 38.9758 66.9979 39.2847C45.9733 40.5208 29.8148 55.3715 15.2821 42.7246Z" fill="url(#paint3_linear)"/>
<defs>
<linearGradient id="paint0_linear" x1="75.9437" y1="91.0866" x2="25.697" y2="5.54381e-06" gradientUnits="userSpaceOnUse">
<stop stop-color="#73BCF9"/>
<stop offset="1" stop-color="#7A96F8"/>
</linearGradient>
<linearGradient id="paint1_linear" x1="71.0611" y1="82.5245" x2="33.1447" y2="13.7835" gradientUnits="userSpaceOnUse">
<stop stop-color="#73BCF9"/>
<stop offset="1" stop-color="#7A96F8"/>
</linearGradient>
<linearGradient id="paint2_linear" x1="68.9418" y1="89.9324" x2="62.8622" y2="60.683" gradientUnits="userSpaceOnUse">
<stop stop-color="#73BCF9"/>
<stop offset="1" stop-color="#7A96F8"/>
</linearGradient>
<linearGradient id="paint3_linear" x1="71.2765" y1="43.8873" x2="62.1244" y2="6.88005" gradientUnits="userSpaceOnUse">
<stop stop-color="#73BCF9"/>
<stop offset="1" stop-color="#7A96F8"/>
</linearGradient>
</defs>
</svg>
