<svg width="183" height="183" viewBox="0 0 183 183" fill="none" xmlns="http://www.w3.org/2000/svg">
<g opacity="0.2">
<path d="M2.25167e-05 91.4711C0.00458286 68.1927 8.88367 45.7914 24.8289 28.8296C40.7741 11.8677 62.5863 1.62112 85.823 0.176492C109.06 -1.26812 131.973 6.19791 149.897 21.0541C167.821 35.9103 179.407 57.0393 182.296 80.1378C184.551 98.211 181.36 116.546 173.13 132.794C163.846 151.158 148.641 165.855 129.972 174.511C111.302 183.168 90.2591 185.278 70.2424 180.5C50.2258 175.722 32.4048 164.336 19.659 148.182C6.91326 132.027 -0.0127931 112.047 2.25167e-05 91.4711Z" fill="url(#paint0_linear)"/>
</g>
<path d="M19.4307 91.475C19.4343 73.1399 26.4279 55.4957 38.9871 42.1358C51.5463 28.7759 68.7265 20.7052 87.0288 19.5674C105.331 18.4295 123.379 24.3101 137.497 36.0115C151.614 47.7129 160.74 64.355 163.015 82.5484C164.792 96.7837 162.278 111.225 155.796 124.023C148.483 138.487 136.507 150.063 121.802 156.881C107.097 163.699 90.5229 165.361 74.7569 161.598C58.9908 157.835 44.9542 148.867 34.9151 136.143C24.8759 123.419 19.4207 107.682 19.4307 91.475Z" fill="url(#paint1_linear)"/>
<path d="M25.612 120.723C60.4456 138.598 72.3894 131.101 109.606 117.839C130.877 110.251 146.402 116.917 155.793 124.021C149.634 136.184 140.151 146.35 128.445 153.34C116.739 160.33 103.29 163.857 89.6601 163.512C76.0299 163.166 62.7771 158.963 51.4402 151.389C40.1034 143.815 31.1475 133.181 25.612 120.723Z" fill="url(#paint2_linear)"/>
<path d="M22.1999 71.5715C26.7897 55.6148 36.7482 41.7316 50.3926 32.2681C64.037 22.8046 80.5305 18.341 97.086 19.6317C113.642 20.9223 129.244 27.888 141.256 39.3517C153.269 50.8154 160.955 66.0741 163.016 82.5493C156.678 76.5727 149.178 71.9637 140.983 69.0088C132.788 66.0539 124.072 64.8164 115.378 65.3731C77.4975 67.6003 48.3841 94.3602 22.1999 71.5715Z" fill="url(#paint3_linear)"/>
<defs>
<linearGradient id="paint0_linear" x1="131.11" y1="157.253" x2="44.3636" y2="2.25134e-05" gradientUnits="userSpaceOnUse">
<stop stop-color="#EF8197"/>
<stop offset="0.942708" stop-color="#F7C58F"/>
</linearGradient>
<linearGradient id="paint1_linear" x1="122.699" y1="143.288" x2="54.3737" y2="19.4283" gradientUnits="userSpaceOnUse">
<stop stop-color="#EF8197"/>
<stop offset="0.942708" stop-color="#F7C58F"/>
</linearGradient>
<linearGradient id="paint2_linear" x1="118.881" y1="156.633" x2="107.925" y2="103.929" gradientUnits="userSpaceOnUse">
<stop stop-color="#EF8197"/>
<stop offset="0.942708" stop-color="#F7C58F"/>
</linearGradient>
<linearGradient id="paint3_linear" x1="123.087" y1="73.6666" x2="106.595" y2="6.98327" gradientUnits="userSpaceOnUse">
<stop stop-color="#EF8197"/>
<stop offset="0.942708" stop-color="#F7C58F"/>
</linearGradient>
</defs>
</svg>
