<svg width="46" height="46" viewBox="0 0 46 46" fill="none" xmlns="http://www.w3.org/2000/svg">
<g opacity="0.1">
<path d="M5.61825e-06 22.9927C0.00115333 17.1413 2.23306 11.5104 6.24115 7.24678C10.2492 2.98315 15.7321 0.407492 21.573 0.0443633C27.4139 -0.318762 33.1736 1.55794 37.6791 5.29229C42.1845 9.02663 45.0969 14.3377 45.823 20.1439C46.39 24.6869 45.5877 29.2957 43.519 33.38C41.1854 37.996 37.3633 41.6904 32.6705 43.8663C27.9776 46.0422 22.6881 46.5725 17.6566 45.3716C12.6251 44.1706 8.14547 41.3086 4.94161 37.2478C1.73776 33.1871 -0.00321735 28.1649 5.61825e-06 22.9927Z" fill="url(#paint0_linear)"/>
</g>
<path d="M4.88395 22.5973C4.88486 17.9885 6.64281 13.5533 9.79977 10.1951C12.9567 6.83686 17.2753 4.80816 21.8759 4.52214C26.4764 4.23612 31.0131 5.71431 34.5618 8.65565C38.1105 11.597 40.4044 15.7803 40.9763 20.3535C41.4229 23.9318 40.791 27.5619 39.1616 30.7789C37.3235 34.4146 34.3131 37.3245 30.6167 39.0383C26.9204 40.7522 22.7542 41.1699 18.7911 40.224C14.828 39.278 11.2997 37.0237 8.77619 33.8253C6.25269 30.6269 4.88142 26.6712 4.88395 22.5973Z" fill="url(#paint1_linear)"/>
<path d="M6.43776 29.9508C15.1938 34.4441 18.1961 32.5597 27.5512 29.2258C32.8979 27.3185 36.8005 28.9941 39.1611 30.78C37.6129 33.8372 35.2291 36.3926 32.2866 38.1497C29.3441 39.9068 25.9636 40.7933 22.5374 40.7065C19.1112 40.6197 15.7798 39.5631 12.9301 37.6593C10.0804 35.7554 7.82919 33.0825 6.43776 29.9508Z" fill="url(#paint2_linear)"/>
<path d="M5.58039 17.5942C6.73411 13.5832 9.23734 10.0935 12.6671 7.71467C16.0968 5.33586 20.2427 4.21387 24.4042 4.5383C28.5656 4.86272 32.4875 6.61367 35.507 9.49526C38.5265 12.3769 40.4586 16.2124 40.9766 20.3537C39.3835 18.8514 37.4984 17.6928 35.4384 16.9501C33.3784 16.2073 31.1876 15.8962 29.0022 16.0362C19.4803 16.596 12.1622 23.3226 5.58039 17.5942Z" fill="url(#paint3_linear)"/>
<defs>
<linearGradient id="paint0_linear" x1="32.9567" y1="39.5281" x2="11.1515" y2="5.63827e-06" gradientUnits="userSpaceOnUse">
<stop stop-color="#5FA8ED"/>
<stop offset="1" stop-color="#7ED5B7"/>
</linearGradient>
<linearGradient id="paint1_linear" x1="30.8422" y1="35.6214" x2="13.6674" y2="4.48719" gradientUnits="userSpaceOnUse">
<stop stop-color="#5FA8ED"/>
<stop offset="1" stop-color="#7ED5B7"/>
</linearGradient>
<linearGradient id="paint2_linear" x1="29.8824" y1="38.9775" x2="27.1285" y2="25.7294" gradientUnits="userSpaceOnUse">
<stop stop-color="#5FA8ED"/>
<stop offset="1" stop-color="#7ED5B7"/>
</linearGradient>
<linearGradient id="paint3_linear" x1="30.94" y1="18.1209" x2="26.7942" y2="1.35892" gradientUnits="userSpaceOnUse">
<stop stop-color="#5FA8ED"/>
<stop offset="1" stop-color="#7ED5B7"/>
</linearGradient>
</defs>
</svg>
