<svg width="102" height="102" viewBox="0 0 102 102" fill="none" xmlns="http://www.w3.org/2000/svg">
<g opacity="0.15">
<path d="M-0.000218076 50.9059C0.00232138 37.9509 4.94375 25.484 13.8177 16.0444C22.6916 6.60469 34.8306 0.902189 47.7624 0.0982256C60.6942 -0.705746 73.4462 3.44929 83.4213 11.7171C93.3963 19.985 99.8443 31.7438 101.452 44.5987C102.707 54.6568 100.931 64.8607 96.3509 73.9034C91.1841 84.123 82.7221 92.3024 72.3321 97.1199C61.9422 101.937 50.2312 103.112 39.0914 100.453C27.9516 97.7938 18.0338 91.4572 10.9405 82.4667C3.84717 73.4762 -0.00735056 62.3571 -0.000218076 50.9059Z" fill="url(#paint0_linear)"/>
</g>
<path d="M10.8143 50.9081C10.8163 40.7041 14.7084 30.8847 21.6979 23.4496C28.6874 16.0145 38.2486 11.5229 48.4343 10.8897C58.62 10.2564 68.664 13.5291 76.5209 20.0412C84.3777 26.5534 89.4564 35.8151 90.7226 45.9402C91.7113 53.8625 90.3123 61.8995 86.7048 69.0219C82.6353 77.0714 75.9702 83.5138 67.7866 87.3083C59.6029 91.1027 50.3788 92.0276 41.6046 89.9333C32.8305 87.8391 25.0188 82.8481 19.4317 75.7668C13.8447 68.6855 10.8087 59.9275 10.8143 50.9081Z" fill="url(#paint1_linear)"/>
<path d="M14.2538 67.1864C33.6396 77.1345 40.2866 72.9624 60.9988 65.5813C72.8363 61.3584 81.4767 65.0681 86.7031 69.0221C83.2752 75.7908 77.9977 81.4486 71.483 85.3387C64.9683 89.2288 57.4838 91.1917 49.8982 90.9995C42.3126 90.8073 34.9371 88.4679 28.6279 84.2528C22.3186 80.0378 17.3344 74.12 14.2538 67.1864Z" fill="url(#paint2_linear)"/>
<path d="M12.3543 39.8311C14.9087 30.9508 20.4508 23.2246 28.0442 17.9579C35.6377 12.6913 44.8167 10.2072 54.0303 10.9255C63.2438 11.6438 71.9268 15.5203 78.6121 21.9001C85.2973 28.2799 89.5748 36.7717 90.7217 45.9405C87.1946 42.6144 83.0209 40.0494 78.4601 38.4049C73.8992 36.7604 69.0488 36.0717 64.2104 36.3816C43.1288 37.6211 26.9265 52.5135 12.3543 39.8311Z" fill="url(#paint3_linear)"/>
<defs>
<linearGradient id="paint0_linear" x1="72.9659" y1="87.5153" x2="24.6892" y2="1.47259e-05" gradientUnits="userSpaceOnUse">
<stop stop-color="#8177F7"/>
<stop offset="1" stop-color="#799FF8"/>
</linearGradient>
<linearGradient id="paint1_linear" x1="68.2858" y1="79.7433" x2="30.2609" y2="10.8123" gradientUnits="userSpaceOnUse">
<stop stop-color="#8177F7"/>
<stop offset="1" stop-color="#799FF8"/>
</linearGradient>
<linearGradient id="paint2_linear" x1="66.1601" y1="87.1713" x2="60.0631" y2="57.8402" gradientUnits="userSpaceOnUse">
<stop stop-color="#8177F7"/>
<stop offset="1" stop-color="#799FF8"/>
</linearGradient>
<linearGradient id="paint3_linear" x1="68.5006" y1="40.9971" x2="59.322" y2="3.88634" gradientUnits="userSpaceOnUse">
<stop stop-color="#8177F7"/>
<stop offset="1" stop-color="#799FF8"/>
</linearGradient>
</defs>
</svg>
