<svg width="302" height="372" viewBox="0 0 302 372" fill="none" xmlns="http://www.w3.org/2000/svg">
<path d="M55 246.489C55.0051 220.666 64.8546 195.817 82.5425 177.001C100.23 158.186 124.426 146.819 150.203 145.217C175.979 143.614 201.397 151.896 221.279 168.376C241.162 184.856 254.015 208.294 257.219 233.917C259.721 253.965 256.181 274.304 247.051 292.328C236.753 312.698 219.886 329.002 199.176 338.604C178.466 348.207 155.123 350.547 132.919 345.247C110.715 339.947 90.9463 327.317 76.8076 309.397C62.6688 291.477 54.9858 269.314 55 246.489Z" fill="url(#paint0_linear)"/>
<path d="M63.7043 287.68C112.763 312.855 129.584 302.297 181.999 283.618C211.955 272.931 233.821 282.319 247.047 292.325C238.372 309.454 225.017 323.772 208.53 333.617C192.044 343.461 173.103 348.428 153.907 347.942C134.711 347.456 116.046 341.535 100.08 330.869C84.1134 320.202 71.5002 305.226 63.7043 287.68Z" fill="url(#paint1_linear)"/>
<path d="M58.8992 218.457C65.3634 195.984 79.3886 176.432 98.6048 163.104C117.821 149.776 141.05 143.489 164.366 145.307C187.682 147.125 209.656 156.935 226.574 173.08C243.492 189.225 254.316 210.715 257.219 233.918C248.293 225.501 237.731 219.01 226.189 214.848C214.647 210.686 202.372 208.944 190.128 209.728C136.778 212.864 95.7761 250.552 58.8992 218.457Z" fill="url(#paint2_linear)"/>
<circle cx="298" cy="150" r="4" fill="#9EA1EB"/>
<circle cx="208" cy="366" r="6" fill="#9EA1EB"/>
<path d="M46.9893 121.075L47.8047 113.459L58.5461 113.342L68.4015 113.252L68.905 122.452L57.3023 121.729L46.9893 121.075Z" fill="url(#paint3_linear)"/>
<path d="M48.4657 111.878C49.3043 111.987 47.5424 122.235 47.5424 122.235C47.5424 122.235 40.4064 127.893 38.2959 133.905C36.1855 139.917 32.8537 136.075 33.5901 129.182C34.3264 122.289 34.8907 117.03 35.4182 112.133C35.9458 107.235 39.7818 110.742 48.4657 111.878Z" fill="#43446C"/>
<path d="M44.3147 127.382C44.257 127.702 44.31 128.032 44.4651 128.319C44.5854 128.482 44.7526 128.604 44.9444 128.67C45.1362 128.736 45.3435 128.741 45.5385 128.686C45.6907 128.663 45.8366 128.609 45.9669 128.527C46.0972 128.445 46.209 128.337 46.2954 128.21C46.6717 127.509 46.8453 126.717 46.7965 125.923C47.1545 126.81 47.6198 127.603 48.1584 127.693C48.5103 127.75 48.8255 127.553 49.0997 127.106C49.224 126.911 49.3043 126.69 49.3352 126.461C49.3661 126.231 49.3467 125.997 49.2785 125.775C48.8477 124.321 46.5509 123.199 46.4324 123.142C46.3971 123.124 46.3585 123.115 46.3193 123.115C46.2902 123.114 46.2611 123.117 46.2331 123.125C46.2046 123.135 46.1774 123.148 46.1524 123.164C46.1228 123.185 46.0978 123.212 46.0793 123.243C45.2555 124.51 44.6585 125.91 44.3147 127.382ZM46.2084 126.696C46.1884 127.116 46.0663 127.526 45.8527 127.888C45.8087 127.956 45.751 128.014 45.6833 128.058C45.6157 128.102 45.5396 128.132 45.4599 128.145C45.0449 128.204 44.953 128.064 44.9216 128.018C44.5745 127.489 45.3451 125.66 46.1513 124.208C46.2569 125.034 46.2775 125.87 46.2129 126.7L46.2084 126.696ZM48.7961 126.359C48.7772 126.523 48.721 126.681 48.6317 126.821C48.5502 126.955 48.3911 127.176 48.2474 127.152C47.7869 127.076 47.1417 125.515 46.7244 123.924C47.4011 124.323 48.5044 125.087 48.7483 125.931C48.795 126.069 48.8128 126.214 48.8006 126.359L48.7961 126.359Z" fill="url(#paint4_linear)"/>
<path opacity="0.2" d="M57.065 121.703L58.3361 113.318L68.2954 113.238L68.8522 122.446L57.065 121.703Z" fill="black"/>
<path d="M171.855 58.1888C171.855 58.1888 146.123 59.7259 111.765 103.861L63.1271 111.195L60.4664 123.157C60.4664 123.157 107.668 125.607 121.97 120.823C136.273 116.039 165.026 89.1277 165.026 89.1277L189.21 70.0141L171.855 58.1888Z" fill="url(#paint5_linear)"/>
<path opacity="0.6" d="M60.4674 123.148C60.4674 123.148 107.671 125.601 121.968 120.816C136.265 116.031 165.024 89.1204 165.024 89.1204L189.204 70.0135L171.85 58.1927C171.85 58.1927 151.94 59.3786 123.755 89.7255C121.071 92.6162 118.307 95.7555 115.483 99.2002C114.259 100.701 113.02 102.255 111.766 103.861L63.1291 111.196L60.4674 123.148Z" fill="url(#paint6_linear)"/>
<path opacity="0.2" d="M115.483 99.2014C122.949 100.527 133.17 99.9923 145.588 93.5958L129.539 88.8075L123.755 89.7265C121.072 92.6173 118.307 95.7567 115.483 99.2014Z" fill="black"/>
<path d="M64.3125 110.419L61.5247 124.324L58.8014 124.017L61.619 110.962L64.3125 110.419Z" fill="url(#paint7_linear)"/>
<path d="M17.9615 69.3668L21.8424 62.7606L31.6791 67.0794L40.6961 71.0556L37.3654 79.647L27.0909 74.208L17.9615 69.3668Z" fill="url(#paint8_linear)"/>
<path d="M23.0976 61.5936C23.8158 62.0385 17.9884 70.6507 17.9884 70.6507C17.9884 70.6507 9.1556 72.8663 4.75633 77.4749C0.357051 82.0835 -1.09666 77.2041 2.41467 71.234C5.926 65.2639 8.60435 60.6955 11.099 56.4497C13.5937 52.2039 15.652 56.9814 23.0976 61.5936Z" fill="#43446C"/>
<path d="M12.9313 74.014C12.7467 74.282 12.6592 74.6051 12.6831 74.9297C12.7231 75.186 12.8994 75.5295 13.5087 75.7063C13.6568 75.7487 13.8122 75.7597 13.9649 75.7388C14.1175 75.718 14.2642 75.6656 14.3955 75.585C15.0271 75.1012 15.5114 74.4509 15.794 73.7071C15.7551 74.6618 15.8524 75.5779 16.3066 75.8804C16.4818 75.9743 16.682 76.0108 16.879 75.9847C17.076 75.9585 17.2598 75.871 17.4043 75.7346C17.5983 75.6076 17.7625 75.44 17.8854 75.2434C18.0084 75.0468 18.0872 74.8259 18.1164 74.5958C18.3227 73.0919 16.6927 71.1243 16.6074 71.0228C16.5834 70.994 16.5539 70.9702 16.5207 70.953C16.4944 70.9398 16.4661 70.9307 16.437 70.9263C16.4078 70.921 16.3779 70.9208 16.3487 70.9257C16.3132 70.9324 16.2795 70.9464 16.2498 70.9668C14.9754 71.7825 13.8525 72.8136 12.9313 74.014ZM14.9398 74.1685C14.7485 74.5436 14.4688 74.8665 14.125 75.1094C14.0569 75.1529 13.9805 75.1818 13.9006 75.1943C13.8208 75.2068 13.7392 75.2025 13.6611 75.1818C13.2575 75.0654 13.2316 74.8987 13.223 74.8443C13.1246 74.2194 14.5803 72.8698 15.9133 71.8785C15.6671 72.6728 15.3409 73.4401 14.9398 74.1685ZM17.4376 74.9272C17.3517 75.0696 17.2346 75.1907 17.0951 75.2814C16.9653 75.3699 16.7298 75.5052 16.6092 75.425C16.2203 75.166 16.2761 73.4774 16.55 71.8573C17.1698 72.6115 17.5284 73.5463 17.5721 74.5215C17.5547 74.6643 17.509 74.8022 17.4376 74.9272Z" fill="url(#paint9_linear)"/>
<path opacity="0.2" d="M26.8854 74.09L31.4967 66.9733L40.6048 71.0072L37.3189 79.6259L26.8854 74.09Z" fill="black"/>
<path d="M206.153 54.8926C206.153 54.8926 207.386 75.4706 208.811 76.6017C210.237 77.7327 234.303 95.1613 234.303 95.1613C234.303 95.1613 242.651 96.569 245.295 97.9336C247.938 99.2981 245.635 107.571 244.282 108.68C242.929 109.789 231.324 103.878 231.324 103.878L229.776 101.211C229.776 101.211 203.648 85.9674 201.208 84.6044C198.768 83.2414 193.292 59.7384 193.292 59.7384L206.153 54.8926Z" fill="url(#paint10_linear)"/>
<path d="M202.342 43.6244C210.251 46.3666 208.815 65.8488 208.815 65.8488L194.521 70.2217L191.446 64.1485L202.342 43.6244Z" fill="url(#paint11_linear)"/>
<path opacity="0.2" d="M202.342 43.6244C210.251 46.3666 208.815 65.8488 208.815 65.8488L194.521 70.2217L191.446 64.1485L202.342 43.6244Z" fill="url(#paint12_linear)"/>
<path d="M157.647 63.4991C157.647 63.4991 133.566 54.2994 84.0781 80.3632L36.7327 67.0094L29.382 76.8082C29.382 76.8082 71.3827 98.4854 86.3862 100.018C101.39 101.551 138.678 88.873 138.678 88.873L168.584 81.4219L157.647 63.4991Z" fill="url(#paint13_linear)"/>
<path opacity="0.6" d="M157.647 63.4991C157.647 63.4991 133.566 54.2994 84.0781 80.3632L36.7327 67.0094L29.382 76.8082C29.382 76.8082 71.3827 98.4854 86.3862 100.018C101.39 101.551 138.678 88.873 138.678 88.873L168.584 81.4219L157.647 63.4991Z" fill="url(#paint14_linear)"/>
<path d="M38.9258 66.4287L36.0882 66.4072L27.9414 76.9524L30.7666 78.6175L38.9258 66.4287Z" fill="url(#paint15_linear)"/>
<path d="M195.032 2.86397C195.032 2.86397 182.761 -2.01344 173.707 6.06553C167.994 11.1636 154.636 23.5245 147.723 19.2222C140.809 14.92 129.637 11.0024 124.448 16.2393C124.448 16.2393 132.965 15.7374 137.196 19.1426C137.196 19.1426 129.147 16.8344 126.218 19.0595C123.289 21.2846 118.816 20.263 118.816 20.263C118.816 20.263 114.988 32.2406 134.771 33.8255C134.771 33.8255 124.523 35.8083 119.849 31.7655C119.849 31.7655 118.44 40.3055 141.496 43.1623C164.552 46.019 184.694 42.2286 189.476 35.3859C194.258 28.5432 195.032 2.86397 195.032 2.86397Z" fill="#43446C"/>
<path d="M134.565 60.5848C134.565 60.5848 138.864 83.7244 156.461 87.3916C159.24 88.0083 162.11 88.0953 164.921 87.6482C170.333 86.661 175.132 83.5641 178.261 79.0387C179.208 77.7745 180.013 76.4093 180.659 74.9679L155.182 61.8169L153.084 60.725C149.781 60.0183 146.43 59.5613 143.058 59.3578C139.775 59.197 136.477 59.4213 134.565 60.5848Z" fill="url(#paint16_linear)"/>
<path opacity="0.2" d="M150.127 75.6321C155.161 81.1073 159.865 85.1414 164.921 87.649C170.333 86.6617 175.132 83.5647 178.261 79.0393C170.889 72.881 163.184 67.1317 155.182 61.8171L153.083 60.7251C149.781 60.0184 146.429 59.5614 143.058 59.3579C141.855 62.6564 143.117 68.0124 150.127 75.6321Z" fill="black"/>
<path d="M202.343 43.6229C186.934 38.3572 170.412 37.2345 154.433 40.3673C154.433 40.3673 145.661 54.6862 142.887 66.0206C142.887 66.0206 156.355 86.1373 174.941 85.6799C193.526 85.2225 202.343 43.6229 202.343 43.6229Z" fill="url(#paint17_linear)"/>
<path d="M162.022 43.9093C162.022 43.9093 179.184 31.953 192.22 43.5466" stroke="#43446C" stroke-width="0.5" stroke-linecap="round" stroke-linejoin="round"/>
<path d="M204.372 22.0288C204.372 22.0288 205.972 -2.86883 184.083 2.98253C156.608 10.3276 172.628 43.3477 186.151 39.0891C199.674 34.8305 204.372 22.0288 204.372 22.0288Z" fill="#43446C"/>
<path d="M168.883 41.645C168.883 41.645 173.74 55.501 182.332 54.6712C184.609 54.4432 186.785 53.617 188.639 52.2762C190.494 50.9355 191.96 49.128 192.89 47.0372C193.085 46.6343 193.255 46.2194 193.398 45.7951C193.398 45.7951 189.036 44.4594 191.84 40.652L181.154 32.223C181.156 33.3769 181.091 34.53 180.958 35.6763C180.693 37.7132 180.132 39.9857 178.859 40.5538C176.45 41.6343 168.883 41.645 168.883 41.645Z" fill="url(#paint18_linear)"/>
<path opacity="0.2" d="M180.958 35.6764C181.793 40.5876 184.443 48.1178 192.89 47.0377C193.085 46.6347 193.255 46.2198 193.398 45.7955C193.398 45.7955 189.036 44.4598 191.84 40.6523L181.154 32.223C181.156 33.3769 181.09 34.5301 180.958 35.6764Z" fill="black"/>
<path d="M190.1 9.16231C199.733 8.49669 203.189 13.44 204.58 23.3177C206.319 35.6617 204.177 44.6643 191.951 42.8466C175.349 40.3785 174.104 10.2668 190.1 9.16231Z" fill="url(#paint19_linear)"/>
<path d="M198.317 23.2089C199.187 24.5949 200.22 25.8712 201.395 27.0102C201.141 27.4276 200.776 27.7666 200.341 27.9898C199.906 28.213 199.418 28.3117 198.931 28.2751L198.317 23.2089Z" fill="#D4827D"/>
<path d="M192.366 22.8283C192.439 23.6219 192.071 24.2988 191.544 24.3469C191.017 24.3951 190.529 23.7943 190.459 23.0054C190.389 22.2164 190.753 21.5349 191.279 21.4856C191.805 21.4364 192.292 22.0382 192.366 22.8283Z" fill="#43446C"/>
<path d="M191.063 21.5498L192.719 20.7173C192.719 20.7173 191.997 22.2366 191.063 21.5498Z" fill="#43446C"/>
<path d="M202.171 21.7553C202.243 22.5488 201.875 23.2258 201.349 23.2739C200.823 23.322 200.334 22.7224 200.263 21.9323C200.192 21.1422 200.557 20.4619 201.084 20.4137C201.611 20.3656 202.097 20.9652 202.171 21.7553Z" fill="#43446C"/>
<path d="M200.872 20.4719L202.527 19.6382C202.527 19.6382 201.803 21.1632 200.872 20.4719Z" fill="#43446C"/>
<path d="M191.811 16.1842C191.043 16.1441 190.276 16.2805 189.569 16.5831C188.862 16.8857 188.234 17.3463 187.733 17.9296" stroke="#43446C" stroke-width="0.725" stroke-linecap="round" stroke-linejoin="round"/>
<path d="M198.784 15.2932C199.431 15.0813 200.117 15.0186 200.791 15.1098C201.466 15.201 202.111 15.4439 202.678 15.82" stroke="#43446C" stroke-width="0.725" stroke-linecap="round" stroke-linejoin="round"/>
<path d="M180.695 26.124C180.695 26.124 184.651 17.8986 183.547 11.8359C183.547 11.8359 202.097 2.71963 204.377 22.0295C204.377 22.0295 205.054 4.69709 188.469 5.45735C171.91 6.21554 171.688 30.3726 180.738 37.0019C180.738 36.9996 178.25 31.2662 180.695 26.124Z" fill="#43446C"/>
<path d="M182.409 28.0533C182.238 26.9451 181.636 25.9496 180.733 25.2846C179.83 24.6197 178.701 24.3394 177.592 24.505C174.63 25.0377 173.63 31.2641 181.159 32.2251C182.237 32.3568 182.766 31.2755 182.409 28.0533Z" fill="url(#paint20_linear)"/>
<path d="M200.069 32.0669C199.652 33.1714 199.317 34.3047 199.065 35.4578C198.857 35.4494 198.65 35.4422 198.442 35.4225C195.623 35.2425 194.373 34.2271 193.847 33.156C193.599 32.6279 193.482 32.0481 193.506 31.4655C193.509 31.1348 193.557 30.8062 193.65 30.4889C195.341 31.3745 197.203 31.8858 199.108 31.9882C199.696 32.0549 200.069 32.0669 200.069 32.0669Z" fill="#43446C"/>
<path d="M199.108 31.9896L198.786 32.983C196.132 32.8065 194.285 32.3247 193.506 31.4703C193.508 31.1397 193.557 30.811 193.65 30.4938C195.341 31.3782 197.203 31.8883 199.108 31.9896Z" fill="white"/>
<path d="M198.442 35.4235C195.623 35.2435 194.373 34.2281 193.846 33.157C194.916 33.2447 195.962 33.5211 196.936 33.9733C197.578 34.2871 198.104 34.7943 198.442 35.4235Z" fill="#EC7774"/>
<path d="M189.951 9.90319C189.951 9.90319 187.165 26.0212 177.17 26.5073C167.176 26.9935 181.191 5.86101 181.191 5.86101C181.191 5.86101 197.054 -1.40884 205.686 6.68526C214.318 14.7794 204.376 22.0295 204.376 22.0295C204.376 22.0295 204.143 9.7127 189.951 9.90319Z" fill="#43446C"/>
<path d="M189.776 8.78383C189.776 8.78383 191.702 19.5245 184.067 23.8686" stroke="#43446C" stroke-width="0.5" stroke-linecap="round" stroke-linejoin="round"/>
<path d="M192.22 43.5463C196.377 47.2444 174.336 55.0554 162.023 43.9091" stroke="#43446C" stroke-width="0.5" stroke-linecap="round" stroke-linejoin="round"/>
<path d="M162.571 43.9137L158.379 42.1635L156.978 43.2801L158.061 44.7009L162.571 43.9137Z" fill="url(#paint21_linear)"/>
<path opacity="0.6" d="M162.571 43.9137L158.379 42.1635L156.978 43.2801L158.061 44.7009L162.571 43.9137Z" fill="white"/>
<path d="M141.457 43.7286C141.457 43.7286 119.695 48.5388 115.732 49.552C111.769 50.5652 83.6385 62.3985 83.6385 62.3985C83.6385 62.3985 73.6367 58.5169 72.4887 59.6308C71.3408 60.7446 68.79 66.425 69.0073 67.795C69.2246 69.1649 83.3381 72.0072 84.0256 71.556C85.0295 70.5751 85.9523 69.5146 86.7851 68.3849C86.7851 68.3849 114.67 58.8547 119.921 57.7221C125.173 56.5895 142.966 55.1781 142.966 55.1781L141.457 43.7286Z" fill="url(#paint22_linear)"/>
<path d="M154.434 40.3672C154.434 40.3672 154.327 54.5005 145.847 59.3444L130.826 57.8828L126.914 45.0625C126.914 45.0625 140.915 40.5141 154.434 40.3672Z" fill="url(#paint23_linear)"/>
<path opacity="0.2" d="M154.434 40.3672C154.434 40.3672 154.327 54.5005 145.847 59.3444L130.826 57.8828L126.914 45.0625C126.914 45.0625 140.915 40.5141 154.434 40.3672Z" fill="url(#paint24_linear)"/>
<defs>
<linearGradient id="paint0_linear" x1="200.439" y1="319.46" x2="104.212" y2="145.021" gradientUnits="userSpaceOnUse">
<stop stop-color="#8177F7"/>
<stop offset="1" stop-color="#799FF8"/>
</linearGradient>
<linearGradient id="paint1_linear" x1="195.06" y1="338.254" x2="179.631" y2="264.028" gradientUnits="userSpaceOnUse">
<stop stop-color="#8177F7"/>
<stop offset="1" stop-color="#799FF8"/>
</linearGradient>
<linearGradient id="paint2_linear" x1="200.985" y1="221.408" x2="177.757" y2="127.494" gradientUnits="userSpaceOnUse">
<stop stop-color="#8177F7"/>
<stop offset="1" stop-color="#799FF8"/>
</linearGradient>
<linearGradient id="paint3_linear" x1="58.1985" y1="113.248" x2="57.9425" y2="122.369" gradientUnits="userSpaceOnUse">
<stop offset="0.0625" stop-color="#FFC19E"/>
<stop offset="1" stop-color="white"/>
</linearGradient>
<linearGradient id="paint4_linear" x1="47.9361" y1="123.917" x2="45.0946" y2="128.468" gradientUnits="userSpaceOnUse">
<stop stop-color="#EF8197"/>
<stop offset="0.942708" stop-color="#F7C58F"/>
</linearGradient>
<linearGradient id="paint5_linear" x1="152.839" y1="67.3666" x2="132.759" y2="135.904" gradientUnits="userSpaceOnUse">
<stop stop-color="#73BCF9"/>
<stop offset="1" stop-color="#7A96F8"/>
</linearGradient>
<linearGradient id="paint6_linear" x1="152.835" y1="67.3689" x2="132.761" y2="135.895" gradientUnits="userSpaceOnUse">
<stop stop-color="#73BCF9"/>
<stop offset="1" stop-color="#7A96F8"/>
</linearGradient>
<linearGradient id="paint7_linear" x1="62.7643" y1="112.367" x2="55.3786" y2="117.483" gradientUnits="userSpaceOnUse">
<stop stop-color="#EF8197"/>
<stop offset="0.942708" stop-color="#F7C58F"/>
</linearGradient>
<linearGradient id="paint8_linear" x1="29.3848" y1="62.8177" x2="29.2578" y2="79.5856" gradientUnits="userSpaceOnUse">
<stop offset="0.0625" stop-color="#FFC19E"/>
<stop offset="1" stop-color="white"/>
</linearGradient>
<linearGradient id="paint9_linear" x1="16.6091" y1="71.6368" x2="14.2688" y2="76.1165" gradientUnits="userSpaceOnUse">
<stop stop-color="#EF8197"/>
<stop offset="0.942708" stop-color="#F7C58F"/>
</linearGradient>
<linearGradient id="paint10_linear" x1="211.012" y1="98.6909" x2="226.48" y2="77.8566" gradientUnits="userSpaceOnUse">
<stop offset="0.0625" stop-color="#FFC19E"/>
<stop offset="1" stop-color="white"/>
</linearGradient>
<linearGradient id="paint11_linear" x1="204.082" y1="47.388" x2="189.23" y2="64.7537" gradientUnits="userSpaceOnUse">
<stop stop-color="#EF8197"/>
<stop offset="0.942708" stop-color="#F7C58F"/>
</linearGradient>
<linearGradient id="paint12_linear" x1="204.082" y1="47.388" x2="189.23" y2="64.7537" gradientUnits="userSpaceOnUse">
<stop stop-color="#EF8197"/>
<stop offset="0.942708" stop-color="#F7C58F"/>
</linearGradient>
<linearGradient id="paint13_linear" x1="129.211" y1="67.2387" x2="122.41" y2="109.514" gradientUnits="userSpaceOnUse">
<stop stop-color="#73BCF9"/>
<stop offset="1" stop-color="#7A96F8"/>
</linearGradient>
<linearGradient id="paint14_linear" x1="129.211" y1="67.2387" x2="122.41" y2="109.514" gradientUnits="userSpaceOnUse">
<stop stop-color="#73BCF9"/>
<stop offset="1" stop-color="#7A96F8"/>
</linearGradient>
<linearGradient id="paint15_linear" x1="35.8209" y1="68.1288" x2="29.5983" y2="78.0021" gradientUnits="userSpaceOnUse">
<stop stop-color="#EF8197"/>
<stop offset="0.942708" stop-color="#F7C58F"/>
</linearGradient>
<linearGradient id="paint16_linear" x1="167.645" y1="63.5156" x2="157.708" y2="92.042" gradientUnits="userSpaceOnUse">
<stop stop-color="#EF8197"/>
<stop offset="0.942708" stop-color="#F7C58F"/>
</linearGradient>
<linearGradient id="paint17_linear" x1="185.519" y1="45.348" x2="165.817" y2="89.4474" gradientUnits="userSpaceOnUse">
<stop stop-color="#EF8197"/>
<stop offset="0.942708" stop-color="#F7C58F"/>
</linearGradient>
<linearGradient id="paint18_linear" x1="186.088" y1="38.0659" x2="181.057" y2="54.7032" gradientUnits="userSpaceOnUse">
<stop stop-color="#FFC19E"/>
<stop offset="1" stop-color="white"/>
</linearGradient>
<linearGradient id="paint19_linear" x1="172.404" y1="35.9486" x2="204.297" y2="27.7287" gradientUnits="userSpaceOnUse">
<stop offset="0.0625" stop-color="#FFC19E"/>
<stop offset="1" stop-color="white"/>
</linearGradient>
<linearGradient id="paint20_linear" x1="182.169" y1="23.5312" x2="178.924" y2="32.2175" gradientUnits="userSpaceOnUse">
<stop offset="0.0625" stop-color="#FFC19E"/>
<stop offset="1" stop-color="white"/>
</linearGradient>
<linearGradient id="paint21_linear" x1="160.994" y1="42.5406" x2="160.303" y2="45.2142" gradientUnits="userSpaceOnUse">
<stop stop-color="#4A7AF9"/>
<stop offset="1" stop-color="#B4E1EF"/>
</linearGradient>
<linearGradient id="paint22_linear" x1="110.51" y1="68.9207" x2="101.796" y2="49.1121" gradientUnits="userSpaceOnUse">
<stop offset="0.0625" stop-color="#FFC19E"/>
<stop offset="1" stop-color="white"/>
</linearGradient>
<linearGradient id="paint23_linear" x1="146.621" y1="42.9872" x2="139.363" y2="61.5545" gradientUnits="userSpaceOnUse">
<stop stop-color="#EF8197"/>
<stop offset="0.942708" stop-color="#F7C58F"/>
</linearGradient>
<linearGradient id="paint24_linear" x1="146.621" y1="42.9872" x2="139.363" y2="61.5545" gradientUnits="userSpaceOnUse">
<stop stop-color="#EF8197"/>
<stop offset="0.942708" stop-color="#F7C58F"/>
</linearGradient>
</defs>
</svg>
