<svg width="327" height="308" viewBox="0 0 327 308" fill="none" xmlns="http://www.w3.org/2000/svg">
<path d="M92 215.492C92.0037 196.538 99.2332 178.299 112.216 164.489C125.199 150.678 142.958 142.335 161.878 141.159C180.797 139.983 199.454 146.062 214.047 158.158C228.641 170.254 238.075 187.457 240.427 206.264C242.263 220.979 239.665 235.908 232.964 249.137C225.405 264.089 213.025 276.056 197.824 283.104C182.623 290.152 165.49 291.87 149.192 287.98C132.894 284.09 118.384 274.819 108.007 261.666C97.6288 248.513 91.9896 232.245 92 215.492Z" fill="url(#paint0_linear)"/>
<path d="M98.3891 245.728C134.397 264.206 146.744 256.457 185.216 242.747C207.204 234.903 223.253 241.794 232.961 249.138C226.594 261.71 216.791 272.22 204.69 279.445C192.589 286.671 178.687 290.317 164.597 289.96C150.507 289.603 136.808 285.258 125.088 277.428C113.369 269.599 104.111 258.607 98.3891 245.728Z" fill="url(#paint1_linear)"/>
<path d="M94.8613 194.917C99.6059 178.422 109.9 164.071 124.005 154.288C138.109 144.505 155.159 139.891 172.273 141.226C189.387 142.56 205.515 149.76 217.933 161.611C230.35 173.461 238.295 189.234 240.426 206.265C233.874 200.087 226.122 195.322 217.65 192.268C209.179 189.213 200.169 187.934 191.182 188.509C152.024 190.812 121.929 218.474 94.8613 194.917Z" fill="url(#paint2_linear)"/>
<circle cx="323" cy="197" r="4" fill="#9EA1EB"/>
<circle cx="246" cy="302" r="6" fill="#9EA1EB"/>
<path d="M27 224C31.9706 224 36 219.971 36 215C36 210.029 31.9706 206 27 206C22.0294 206 18 210.029 18 215C18 219.971 22.0294 224 27 224Z" fill="url(#paint3_linear)"/>
<path d="M214.322 27.5541C219.652 23.7127 224.947 19.8851 224.947 19.8851C224.947 19.8851 228.247 13.6287 230.016 11.8883C231.786 10.148 237.75 14.1364 238.278 15.4984C238.806 16.8603 231.082 24.5244 231.082 24.5244L228.562 25.0562C228.562 25.0562 222.359 30.5487 216.733 35.5335L214.322 27.5541Z" fill="url(#paint4_linear)"/>
<path d="M168.446 46.8428C168.446 46.8428 183.261 44.0279 189.848 40.9682C196.434 37.9085 221.937 21.2916 221.937 21.2916L224.741 29.6711C224.741 29.6711 201.683 50.2148 195.788 52.8943C189.892 55.5737 169.156 61.5365 169.156 61.5365L168.446 46.8428Z" fill="url(#paint5_linear)"/>
<path opacity="0.1" d="M169.162 61.5342C169.162 61.5342 176.846 59.3209 184.187 56.9819C188.896 55.4768 193.471 53.9255 195.782 52.8823C201.681 50.2136 224.737 29.6705 224.737 29.6705L221.935 21.2837C221.935 21.2837 196.43 37.9077 189.852 40.9661C183.273 44.0244 168.447 46.8354 168.447 46.8354L168.881 55.6562L169.162 61.5342Z" fill="url(#paint6_linear)"/>
<path opacity="0.2" d="M169.161 61.5342C169.161 61.5342 176.845 59.3209 184.187 56.9819C180.543 55.6254 174.525 54.0619 168.88 55.6562L169.161 61.5342Z" fill="black"/>
<path d="M56.7352 61.9113L61.9667 58.2263L67.9579 64.906L73.4428 71.0373L67.9445 76.4222L62.0065 68.7399L56.7352 61.9113Z" fill="url(#paint7_linear)"/>
<path d="M63.3226 57.7721C63.716 58.3579 56.3112 62.8978 56.3112 62.8978C56.3112 62.8978 48.8287 61.5356 43.8916 63.5216C38.9545 65.5076 39.5306 61.3004 44.2644 57.9665L55.9718 49.7184C59.3304 47.3501 59.2519 51.6945 63.3226 57.7721Z" fill="#585979"/>
<path d="M51.3057 63.7112C51.0723 63.8508 50.8938 64.0662 50.8 64.3215C50.764 64.4868 50.7792 64.6592 50.8437 64.8156C50.9082 64.972 51.0189 65.1051 51.1609 65.197C51.2589 65.2802 51.3731 65.3421 51.4963 65.3787C51.6195 65.4154 51.749 65.4259 51.8765 65.4098C52.5239 65.2606 53.1166 64.9331 53.5874 64.4644C53.2288 65.1782 52.9874 65.9077 53.2281 66.2946C53.3852 66.5466 53.6834 66.6361 54.1145 66.5622C54.3055 66.5333 54.488 66.4631 54.6493 66.3568C54.8107 66.2504 54.947 66.1103 55.0489 65.9461C55.7253 64.8739 55.1636 62.815 55.1342 62.7088C55.1262 62.6783 55.1116 62.6498 55.0915 62.6255C55.0766 62.6063 55.0583 62.5899 55.0375 62.5773C55.0163 62.564 54.9929 62.5544 54.9685 62.5488C54.9391 62.5415 54.9085 62.5404 54.8786 62.5457C53.629 62.7238 52.42 63.1183 51.3057 63.7112ZM52.7799 64.5215C52.505 64.7407 52.1807 64.8895 51.8352 64.9548C51.7685 64.965 51.7003 64.9609 51.6353 64.9428C51.5702 64.9247 51.5097 64.8931 51.4577 64.8501C51.1901 64.6224 51.2281 64.4877 51.2399 64.4421C51.3832 63.9331 52.9544 63.409 54.3099 63.115C53.8488 63.6343 53.3361 64.1056 52.7799 64.5215ZM54.417 65.9645C54.3035 66.0433 54.1735 66.095 54.0368 66.1157C53.9076 66.1376 53.6811 66.1609 53.6168 66.0582C53.4107 65.7263 54.0352 64.4622 54.8036 63.3239C55.0151 64.1111 54.9653 64.9456 54.6616 65.702C54.5979 65.8036 54.5145 65.8913 54.4163 65.96L54.417 65.9645Z" fill="url(#paint8_linear)"/>
<path opacity="0.2" d="M61.8928 68.5823L67.8556 64.7614L73.3925 70.9699L67.9186 76.3908L61.8928 68.5823Z" fill="black"/>
<path d="M62.8566 71.5161C62.8566 71.5161 67.666 77.6044 73.9699 84.9419C79.3894 91.3931 85.1563 97.5442 91.245 103.368C91.3659 103.474 91.4758 103.581 91.5837 103.678C93.6128 105.613 95.8281 107.343 98.1973 108.843C103.56 111.961 111.442 111.192 119.016 108.734C126.836 106.177 134.317 101.809 138.334 98.0363C141.65 94.998 144.546 91.5299 146.943 87.7241L138.73 73.3506C138.73 73.3506 125.337 79.4956 103.78 92.7489C103.605 92.87 103.418 92.9818 103.231 93.0937L90.214 82.1094L71.8263 66.5987L62.8566 71.5161Z" fill="url(#paint9_linear)"/>
<path d="M72.9669 66.9168L62.7021 72.8263L61.395 70.9483L71.1385 65.5221L72.9669 66.9168Z" fill="url(#paint10_linear)"/>
<path opacity="0.2" d="M91.5836 103.678C93.6127 105.613 95.8279 107.343 98.1971 108.843C103.56 111.961 111.442 111.193 119.015 108.734C122.314 105 125.058 100.81 127.162 96.2939L136.399 93.2614L126.681 92.5527L91.5836 103.678Z" fill="black"/>
<path opacity="0.2" d="M72.9669 66.9168L62.7021 72.8263L61.395 70.9483L71.1385 65.5221L72.9669 66.9168Z" fill="url(#paint11_linear)"/>
<path opacity="0.2" d="M73.9697 84.9421C79.3892 91.3933 85.1561 97.5445 91.2448 103.368L104.935 94.2964L103.78 92.7491C103.605 92.8703 103.418 92.9821 103.23 93.094L90.2138 82.1097C86.1758 82.6993 80.1951 83.6626 73.9697 84.9421Z" fill="black"/>
<path d="M24.152 95.3099L26.3855 89.3171L35.1038 91.4415L43.0977 93.4027L41.6049 100.953L32.3637 97.9714L24.152 95.3099Z" fill="url(#paint12_linear)"/>
<path d="M27.2509 88.1709C27.9071 88.4326 24.3638 96.3634 24.3638 96.3634C24.3638 96.3634 17.4205 99.4672 14.4705 103.897C11.5206 108.327 9.619 104.529 11.6387 99.1029C13.6584 93.6768 15.2006 89.537 16.6349 85.6812C18.0691 81.8255 20.4531 85.4599 27.2509 88.1709Z" fill="#585979"/>
<path d="M20.6885 99.8632C20.5753 100.11 20.5499 100.389 20.6165 100.652C20.6866 100.857 20.8823 101.114 21.4088 101.171C21.537 101.183 21.6663 101.169 21.7886 101.129C21.9108 101.088 22.0233 101.023 22.1188 100.937C22.569 100.446 22.8727 99.8386 22.9956 99.184C23.1028 99.9751 23.3155 100.713 23.7322 100.894C23.89 100.945 24.0602 100.946 24.2185 100.896C24.3769 100.846 24.5155 100.747 24.6146 100.614C24.7557 100.481 24.8663 100.32 24.9387 100.14C25.0111 99.9603 25.0436 99.7671 25.0339 99.5736C24.9864 98.3072 23.3596 96.9255 23.2754 96.8549C23.2516 96.8343 23.2236 96.8191 23.1934 96.8103C23.17 96.8027 23.1454 96.7999 23.1209 96.8019C23.0959 96.8021 23.0711 96.8062 23.0474 96.8143C23.0192 96.8255 22.9936 96.8423 22.972 96.8637C22.042 97.7229 21.2692 98.738 20.6885 99.8632ZM22.3622 99.6955C22.2583 100.032 22.074 100.339 21.8251 100.588C21.7754 100.634 21.7166 100.669 21.6527 100.691C21.5887 100.713 21.5208 100.721 21.4534 100.715C21.1033 100.678 21.0603 100.545 21.045 100.502C20.8723 100.002 21.8746 98.6809 22.8265 97.6721C22.7406 98.3616 22.5852 99.0406 22.3627 99.6988L22.3622 99.6955ZM24.5265 99.9561C24.4768 100.085 24.3984 100.202 24.2973 100.296C24.1985 100.39 24.0293 100.535 23.9179 100.486C23.5601 100.329 23.3613 98.9332 23.3519 97.5594C23.9709 98.0899 24.4014 98.8066 24.5791 99.6022C24.5855 99.7236 24.5678 99.845 24.527 99.9594L24.5265 99.9561Z" fill="url(#paint13_linear)"/>
<path opacity="0.2" d="M32.1778 97.8986L34.9373 91.3757L43.0125 93.3634L41.5611 100.929L32.1778 97.8986Z" fill="black"/>
<path d="M138.194 70.198C138.194 70.198 117.051 66.1263 80.1292 94.75L39.251 90.6443L34.6277 99.775C34.6277 99.775 72.3228 111.508 84.8866 110.59C97.4504 109.673 126.28 93.8298 126.28 93.8298L149.798 83.3587L138.194 70.198Z" fill="url(#paint14_linear)"/>
<path d="M40.9648 89.8511L38.6246 90.2459L33.4554 100.101L36.0239 101.059L40.9648 89.8511Z" fill="url(#paint15_linear)"/>
<path opacity="0.2" d="M40.9648 89.8511L38.6246 90.2459L33.4554 100.101L36.0239 101.059L40.9648 89.8511Z" fill="url(#paint16_linear)"/>
<path d="M118.789 71.1571C118.789 71.1571 125.685 89.5659 140.692 90.0276C143.067 90.1317 145.441 89.7865 147.688 89.0101C149.821 88.219 151.778 87.0154 153.446 85.4681C155.114 83.9208 156.461 82.06 157.411 79.992C158.006 78.8145 158.47 77.5747 158.793 76.2952L135.93 69.1762L134.045 68.583C131.226 68.481 128.403 68.5914 125.6 68.9134C122.873 69.2588 120.193 69.9219 118.789 71.1571Z" fill="url(#paint17_linear)"/>
<path opacity="0.2" d="M118.789 71.1571C118.789 71.1571 125.685 89.5659 140.692 90.0276C143.067 90.1317 145.441 89.7865 147.688 89.0101C149.821 88.219 151.778 87.0154 153.446 85.4681C155.114 83.9208 156.461 82.06 157.411 79.992C158.006 78.8145 158.47 77.5747 158.793 76.2952L135.93 69.1762L134.045 68.583C131.226 68.481 128.403 68.5914 125.6 68.9134C122.873 69.2588 120.193 69.9219 118.789 71.1571Z" fill="url(#paint18_linear)"/>
<path opacity="0.2" d="M133.775 81.2738C138.711 85.0461 143.165 87.6813 147.688 89.0122C149.821 88.2211 151.778 87.0176 153.446 85.4702C155.115 83.9229 156.462 82.0621 157.411 79.9941C150.453 75.9986 143.28 72.3878 135.927 69.1778L134.042 68.5846C131.223 68.4826 128.4 68.593 125.597 68.915C125.087 71.8021 126.902 76.0243 133.775 81.2738Z" fill="black"/>
<path d="M171.625 46.3339C158.246 44.9316 144.727 46.7534 132.196 51.6467C132.196 51.6467 127.063 64.7006 126.423 74.4246C126.423 74.4246 140.423 89.016 155.644 85.9413C170.865 82.8666 171.625 46.3339 171.625 46.3339Z" fill="url(#paint19_linear)"/>
<path opacity="0.2" d="M126.42 74.4193C126.42 74.4193 140.423 89.0079 155.641 85.936C170.859 82.8641 171.627 46.3335 171.627 46.3335C158.247 44.9319 144.726 46.7534 132.193 51.6459C129.799 57.8692 127.999 64.3053 126.818 70.868C126.633 72.0797 126.49 73.2728 126.42 74.4193Z" fill="url(#paint20_linear)"/>
<path opacity="0.2" d="M126.817 70.8681C132.895 66.473 134.136 55.215 132.193 51.646C129.798 57.8693 127.998 64.3054 126.817 70.8681Z" fill="black"/>
<path d="M170.614 29.3133C170.614 29.3133 168.314 8.60102 151.161 16.5921C129.628 26.6239 147.6 51.462 158.104 45.9912C168.608 40.5204 170.614 29.3133 170.614 29.3133Z" fill="#585979"/>
<path d="M144.266 50.5964C144.266 50.5964 150.272 61.2872 157.219 59.3576C159.059 58.8399 160.729 57.8446 162.059 56.4727C163.39 55.1008 164.334 53.4011 164.795 51.5464C164.897 51.1865 164.977 50.8206 165.033 50.4507C165.033 50.4507 161.252 49.9861 163.004 46.4469L152.991 41.0658C153.161 42.0146 153.274 42.9724 153.332 43.9344C153.41 45.6484 153.279 47.5984 152.314 48.2506C150.488 49.4882 144.266 50.5964 144.266 50.5964Z" fill="url(#paint21_linear)"/>
<path opacity="0.2" d="M153.332 43.9334C154.731 47.852 158.005 53.6607 164.795 51.5454C164.897 51.1855 164.977 50.8196 165.033 50.4497C165.033 50.4497 161.252 49.9851 163.004 46.4459L152.991 41.0648C153.161 42.0136 153.274 42.9714 153.332 43.9334Z" fill="black"/>
<path d="M157.002 20.7962C164.828 18.8511 168.392 22.4137 170.968 30.3378C174.19 40.2376 173.735 47.9544 163.414 48.2311C149.401 48.6149 144.005 24.0276 157.002 20.7962Z" fill="url(#paint22_linear)"/>
<path d="M165.8 31.1571C166.718 32.1711 167.755 33.071 168.888 33.8371C168.74 34.2172 168.489 34.5489 168.164 34.7955C167.838 35.0421 167.451 35.194 167.045 35.2347L165.8 31.1571Z" fill="#D4827D"/>
<path d="M160.851 31.709C161.026 32.3476 160.822 32.9607 160.394 33.0777C159.965 33.1947 159.481 32.7733 159.306 32.1312C159.131 31.4891 159.334 30.8794 159.763 30.7625C160.191 30.6455 160.676 31.069 160.851 31.709Z" fill="#585979"/>
<path d="M159.593 30.8412L160.834 29.9155C160.834 29.9155 160.458 31.2752 159.593 30.8412Z" fill="#585979"/>
<path d="M168.757 29.3974C168.932 30.0373 168.728 30.6493 168.3 30.7661C167.873 30.8829 167.387 30.4617 167.211 29.8198C167.035 29.1779 167.241 28.5678 167.668 28.4511C168.095 28.3343 168.583 28.7632 168.757 29.3974Z" fill="#585979"/>
<path d="M167.501 28.5351L168.742 27.6094C168.742 27.6094 168.371 28.9683 167.501 28.5351Z" fill="#585979"/>
<path d="M159.428 26.3234C158.792 26.402 158.182 26.6256 157.645 26.9768C157.108 27.328 156.659 27.7977 156.332 28.3496" stroke="#585979" stroke-width="0.725" stroke-linecap="round" stroke-linejoin="round"/>
<path d="M165.034 24.579C165.535 24.3106 166.09 24.1593 166.658 24.1363C167.226 24.1134 167.792 24.2194 168.313 24.4464" stroke="#585979" stroke-width="0.725" stroke-linecap="round" stroke-linejoin="round"/>
<path d="M151.728 36.1131C151.728 36.1131 153.789 28.7741 152 23.947C152 23.947 165.934 13.7553 170.613 29.3073C170.613 29.3073 168.65 14.9522 155.123 17.9852C141.613 21.0142 144.937 40.9163 153.343 45.0532C153.343 45.0532 150.464 40.6977 151.728 36.1131Z" fill="#585979"/>
<path d="M153.418 37.4478C153.117 36.5611 152.477 35.8298 151.638 35.4141C150.799 34.9984 149.829 34.9322 148.942 35.23C146.582 36.0968 146.664 41.3632 152.995 41.0607C153.903 41.0175 154.18 40.0504 153.418 37.4478Z" fill="#FFE3DF"/>
<path d="M168.527 38.1892C168.345 39.1586 168.234 40.1399 168.194 41.1254C168.022 41.1488 167.851 41.1731 167.678 41.1874C165.332 41.4479 164.158 40.7933 163.568 39.9896C163.288 39.5914 163.108 39.1316 163.043 38.649C162.997 38.377 162.988 38.0999 163.019 37.8256C164.538 38.3078 166.143 38.458 167.725 38.266C168.219 38.2342 168.527 38.1892 168.527 38.1892Z" fill="#585979"/>
<path d="M167.726 38.2651L167.606 39.1279C165.396 39.3688 163.809 39.2412 163.043 38.6483C162.997 38.3764 162.989 38.0992 163.019 37.8249C164.538 38.3072 166.144 38.4573 167.726 38.2651Z" fill="white"/>
<path d="M167.677 41.1869C165.332 41.4475 164.158 40.7928 163.568 39.9891C164.462 39.9074 165.362 39.9843 166.229 40.2164C166.801 40.3804 167.308 40.7198 167.677 41.1869Z" fill="#DE5753"/>
<path d="M143.667 24.8181C143.667 24.8181 141.499 18.6854 134.078 19.9374C126.658 21.1895 126.389 25.4273 120.222 26.9412C114.054 28.4552 109.796 24.7141 109.225 21.3342C109.225 21.3342 107.515 23.2858 109.113 26.4923C108.207 25.6542 107.639 24.5139 107.515 23.2858C107.515 23.2858 105.283 27.9776 110.659 33.867C116.036 39.7564 125.924 38.3836 129.531 35.86C138.704 29.4422 143.495 32.3027 143.495 32.3027L143.667 24.8181Z" fill="#585979"/>
<path d="M142.665 31.4096C142.665 31.4096 138.711 29.036 131.81 34.7058C124.909 40.3756 115.949 41.9171 112.599 37.7443" stroke="#585979" stroke-width="0.5" stroke-linecap="round" stroke-linejoin="round"/>
<path d="M112.664 47.9258C118.857 45.7348 125.017 43.5492 125.017 43.5492C125.017 43.5492 129.94 38.4724 132.132 37.3058C134.325 36.1393 138.923 41.6363 139.046 43.0929C139.169 44.5495 129.603 49.7291 129.603 49.7291L127.035 49.5308C127.035 49.5308 119.538 53.0583 112.737 56.2665L112.664 47.9258Z" fill="url(#paint23_linear)"/>
<path d="M118.124 45.4002L120.494 54.0753L132.195 51.6427C132.195 51.6427 133.919 64.2939 127.21 68.6144C127.21 68.6144 96.6802 68.8176 94.0968 63.5733C91.5134 58.329 96.7373 51.678 118.124 45.4002Z" fill="url(#paint24_linear)"/>
<path opacity="0.1" d="M94.1028 63.5745C96.6829 68.8125 127.205 68.614 127.205 68.614C133.915 64.2957 132.193 51.6464 132.193 51.6464L124.941 53.1566L120.489 54.0796L118.12 45.4021C96.7378 51.6802 91.5098 58.3273 94.1028 63.5745Z" fill="url(#paint25_linear)"/>
<path opacity="0.2" d="M108.782 59.3445C108.782 59.3445 117.033 59.0642 121.029 57.2781C121.942 56.9173 122.765 56.3616 123.441 55.6498C124.117 54.9379 124.629 54.0871 124.941 53.1567L120.49 54.0798L108.782 59.3445Z" fill="black"/>
<defs>
<linearGradient id="paint0_linear" x1="198.751" y1="269.052" x2="128.121" y2="141.015" gradientUnits="userSpaceOnUse">
<stop stop-color="#5FA8ED"/>
<stop offset="1" stop-color="#7ED5B7"/>
</linearGradient>
<linearGradient id="paint1_linear" x1="194.803" y1="282.849" x2="183.478" y2="228.368" gradientUnits="userSpaceOnUse">
<stop stop-color="#5FA8ED"/>
<stop offset="1" stop-color="#7ED5B7"/>
</linearGradient>
<linearGradient id="paint2_linear" x1="199.151" y1="197.082" x2="182.102" y2="128.151" gradientUnits="userSpaceOnUse">
<stop stop-color="#5FA8ED"/>
<stop offset="1" stop-color="#7ED5B7"/>
</linearGradient>
<linearGradient id="paint3_linear" x1="23.1039" y1="208.532" x2="31.6364" y2="224" gradientUnits="userSpaceOnUse">
<stop stop-color="#F29C96"/>
<stop offset="0.942708" stop-color="#F8D2BF"/>
</linearGradient>
<linearGradient id="paint4_linear" x1="215.878" y1="26.9337" x2="231.556" y2="32.1597" gradientUnits="userSpaceOnUse">
<stop offset="0.0625" stop-color="#FFC19E"/>
<stop offset="1" stop-color="white"/>
</linearGradient>
<linearGradient id="paint5_linear" x1="207.205" y1="28.1864" x2="203.574" y2="61.3099" gradientUnits="userSpaceOnUse">
<stop stop-color="#5FA8ED"/>
<stop offset="1" stop-color="#7ED5B7"/>
</linearGradient>
<linearGradient id="paint6_linear" x1="207.202" y1="28.1796" x2="203.567" y2="61.3089" gradientUnits="userSpaceOnUse">
<stop stop-color="#5FA8ED"/>
<stop offset="1" stop-color="#7ED5B7"/>
</linearGradient>
<linearGradient id="paint7_linear" x1="71.959" y1="69.9487" x2="56.2807" y2="64.7227" gradientUnits="userSpaceOnUse">
<stop offset="0.0625" stop-color="#FFC19E"/>
<stop offset="1" stop-color="white"/>
</linearGradient>
<linearGradient id="paint8_linear" x1="53.9252" y1="63.2504" x2="52.9143" y2="67.0294" gradientUnits="userSpaceOnUse">
<stop stop-color="#5FA8ED"/>
<stop offset="1" stop-color="#7ED5B7"/>
</linearGradient>
<linearGradient id="paint9_linear" x1="120.138" y1="65.5725" x2="111.515" y2="117.801" gradientUnits="userSpaceOnUse">
<stop stop-color="#8177F7"/>
<stop offset="1" stop-color="#799FF8"/>
</linearGradient>
<linearGradient id="paint10_linear" x1="69.4453" y1="66.6352" x2="68.8701" y2="72.8916" gradientUnits="userSpaceOnUse">
<stop stop-color="#5FA8ED"/>
<stop offset="1" stop-color="#7ED5B7"/>
</linearGradient>
<linearGradient id="paint11_linear" x1="69.4453" y1="66.6352" x2="68.8701" y2="72.8916" gradientUnits="userSpaceOnUse">
<stop stop-color="#5FA8ED"/>
<stop offset="1" stop-color="#7ED5B7"/>
</linearGradient>
<linearGradient id="paint12_linear" x1="40.6041" y1="92.0584" x2="34.9279" y2="102.08" gradientUnits="userSpaceOnUse">
<stop offset="0.0625" stop-color="#FFC19E"/>
<stop offset="1" stop-color="white"/>
</linearGradient>
<linearGradient id="paint13_linear" x1="23.3652" y1="97.3613" x2="22.0919" y2="101.384" gradientUnits="userSpaceOnUse">
<stop stop-color="#5FA8ED"/>
<stop offset="1" stop-color="#7ED5B7"/>
</linearGradient>
<linearGradient id="paint14_linear" x1="115.351" y1="77.4029" x2="115.893" y2="113.172" gradientUnits="userSpaceOnUse">
<stop stop-color="#8177F7"/>
<stop offset="1" stop-color="#799FF8"/>
</linearGradient>
<linearGradient id="paint15_linear" x1="38.6571" y1="91.7001" x2="34.9743" y2="100.725" gradientUnits="userSpaceOnUse">
<stop stop-color="#5FA8ED"/>
<stop offset="1" stop-color="#7ED5B7"/>
</linearGradient>
<linearGradient id="paint16_linear" x1="38.6571" y1="91.7001" x2="34.9743" y2="100.725" gradientUnits="userSpaceOnUse">
<stop stop-color="#5FA8ED"/>
<stop offset="1" stop-color="#7ED5B7"/>
</linearGradient>
<linearGradient id="paint17_linear" x1="146.425" y1="68.7642" x2="142.393" y2="93.672" gradientUnits="userSpaceOnUse">
<stop stop-color="#5FA8ED"/>
<stop offset="1" stop-color="#7ED5B7"/>
</linearGradient>
<linearGradient id="paint18_linear" x1="146.425" y1="68.7642" x2="142.393" y2="93.672" gradientUnits="userSpaceOnUse">
<stop stop-color="#5FA8ED"/>
<stop offset="1" stop-color="#7ED5B7"/>
</linearGradient>
<linearGradient id="paint19_linear" x1="158.267" y1="51.0915" x2="148.276" y2="90.3206" gradientUnits="userSpaceOnUse">
<stop stop-color="#5FA8ED"/>
<stop offset="1" stop-color="#7ED5B7"/>
</linearGradient>
<linearGradient id="paint20_linear" x1="158.267" y1="51.0904" x2="148.281" y2="90.3163" gradientUnits="userSpaceOnUse">
<stop stop-color="#5FA8ED"/>
<stop offset="1" stop-color="#7ED5B7"/>
</linearGradient>
<linearGradient id="paint21_linear" x1="159.195" y1="42.2103" x2="156.176" y2="59.5689" gradientUnits="userSpaceOnUse">
<stop offset="0.0625" stop-color="#FFC19E"/>
<stop offset="1" stop-color="white"/>
</linearGradient>
<linearGradient id="paint22_linear" x1="144.321" y1="50.6525" x2="172.462" y2="28.1402" gradientUnits="userSpaceOnUse">
<stop offset="0.0625" stop-color="#FFC19E"/>
<stop offset="1" stop-color="white"/>
</linearGradient>
<linearGradient id="paint23_linear" x1="113.768" y1="46.6322" x2="126.609" y2="53.9259" gradientUnits="userSpaceOnUse">
<stop offset="0.0625" stop-color="#FFC19E"/>
<stop offset="1" stop-color="white"/>
</linearGradient>
<linearGradient id="paint24_linear" x1="120.222" y1="48.528" x2="116.122" y2="74.1103" gradientUnits="userSpaceOnUse">
<stop stop-color="#5FA8ED"/>
<stop offset="1" stop-color="#7ED5B7"/>
</linearGradient>
<linearGradient id="paint25_linear" x1="120.222" y1="48.5289" x2="116.121" y2="74.1086" gradientUnits="userSpaceOnUse">
<stop stop-color="#5FA8ED"/>
<stop offset="1" stop-color="#7ED5B7"/>
</linearGradient>
</defs>
</svg>
