<svg width="495" height="445" viewBox="0 0 495 445" fill="none" xmlns="http://www.w3.org/2000/svg">
<path d="M221.282 72.1555C226.232 77.9845 233.38 87.9927 237.56 92.392L252.661 84.019L265.9 74.2001L268.684 82.4937C268.684 82.4937 252.957 98.3309 249.437 101.08C245.258 104.38 242.179 107.349 238.109 109.549C235.03 111.199 231.511 108.779 227.881 105.59C222.712 101.08 208.635 86.563 208.635 86.563L200.936 61.9274C209.075 61.1575 216.223 66.2166 221.282 72.1555Z" fill="url(#paint0_linear)"/>
<path d="M268.611 71.5538C269.495 70.4251 270.192 70.4672 271.015 69.4299C271.382 68.8818 271.838 68.3925 272.293 67.9033C272.809 67.3227 273.352 66.8922 273.895 66.4618C277.31 63.455 279.954 60.4606 283.457 57.5126C283.667 57.3887 283.789 57.206 284.087 57.141C284.298 57.0171 284.622 57.1022 284.736 57.3112C284.824 57.37 284.789 57.6115 284.816 57.7617C284.94 58.9043 284.529 60.0856 283.943 61.1492C283.357 62.2129 282.657 63.0675 281.896 64.0135C281.379 64.5941 280.889 65.3249 280.373 65.9055C279.489 67.0342 278.543 68.2542 277.923 69.5594C277.827 69.8923 277.669 70.3165 277.424 70.6819C277.302 70.8646 277.179 71.0473 276.996 71.3213C277.837 70.8258 278.827 70.2978 279.667 69.8023C280.088 69.5546 280.745 69.3332 280.974 69.7511C281.175 70.019 281.079 70.3518 280.983 70.6847C280.416 72.2902 279.085 73.5165 277.789 74.5012C276.913 75.2382 276.099 75.8839 275.311 76.6797C274.733 77.3517 274.182 78.1738 273.604 78.8457C272.475 80.3398 271.083 81.6574 269.462 82.5571C267.588 84.2138 264.985 83.9244 261.558 84.6725L263.826 75.6C265.345 74.797 267.727 72.6825 268.611 71.5538Z" fill="url(#paint1_linear)"/>
<path d="M200.276 61.9279C206.105 60.1682 214.574 63.5776 221.283 71.9361C227.881 80.0747 231.401 84.5839 231.401 84.5839C231.401 84.5839 228.321 93.3823 218.973 97.4516L205.555 85.4637L200.276 61.9279Z" fill="#B34444"/>
<path d="M92.7147 31.1333C90.0752 25.1943 85.456 20.3552 80.5069 16.1759C75.5578 11.9967 70.1687 8.36732 65.2196 4.07808C64.7797 3.63815 64.2298 3.19823 64.1198 2.53835C63.8998 0.998623 65.7695 0.118779 67.0893 0.33874C67.9691 0.44872 68.739 0.778662 69.6188 0.778662C70.3887 0.778662 71.1585 0.33874 72.0384 0.228759C73.5781 -0.211163 75.2278 0.118779 76.7675 0.118779C78.4173 0.228759 79.957 -0.211163 81.6067 0.228759C85.7859 1.32856 88.2055 5.83776 92.2748 7.15753C95.2443 8.14736 98.7637 7.26751 101.513 8.91722C104.153 10.5669 104.923 13.9763 105.033 17.1658C105.033 19.5853 104.703 21.235 105.143 23.6546C105.582 25.9642 107.672 32.0131 112.071 41.0315C111.411 41.6914 96.894 47.9603 96.674 46.5305C95.7942 42.9012 94.0345 34.2127 92.7147 31.1333Z" fill="url(#paint2_linear)"/>
<path d="M40.0341 70.5062C34.975 66.4369 27.4963 64.0173 21.1174 62.5876C14.7386 61.1579 8.35971 60.388 1.98084 58.8483C1.32096 58.7383 0.661076 58.5183 0.331135 57.9684C-0.658688 56.6486 0.771057 55.1089 1.98084 54.669C2.75071 54.449 3.63055 54.3391 4.40041 53.8991C5.0603 53.4592 5.6102 52.7993 6.27008 52.2494C7.47986 51.1496 9.01959 50.5997 10.4493 49.9398C11.9891 49.28 13.1989 48.1802 14.8486 47.7402C19.0278 46.8604 23.3171 49.7199 27.4963 49.06C30.5758 48.5101 33.3253 46.0905 36.4047 46.3105C39.4842 46.5304 41.7938 49.28 43.2235 52.0295C44.3233 54.1191 44.7633 55.8788 46.303 57.7485C47.7327 59.6181 52.3519 64.1273 60.4905 70.0663C60.2705 70.9461 50.7022 81.3943 50.7022 81.3943C48.5026 78.5348 42.6736 72.7058 40.0341 70.5062Z" fill="url(#paint3_linear)"/>
<path d="M113.831 89.3133C106.793 86.0139 104.813 83.4844 103.823 80.075C101.844 72.9262 97.8842 55.2194 93.9249 35.9728C95.7946 38.0624 108.002 35.6428 108.442 33.1133C117.571 53.0198 121.86 58.6288 122.63 70.3967C130.768 72.3763 145.726 76.3356 150.565 77.4354C163.653 80.5149 173.001 90.963 177.18 98.2218L163.763 111.749C150.675 104.381 120.87 92.6127 113.831 89.3133Z" fill="url(#paint4_linear)"/>
<path opacity="0.4" d="M113.831 89.3133C106.793 86.0139 104.813 83.4844 103.823 80.075C101.844 72.9262 97.8842 55.2194 93.9249 35.9728C95.7946 38.0624 108.002 35.6428 108.442 33.1133C117.571 53.0198 121.86 58.6288 122.63 70.3967C130.768 72.3763 145.726 76.3356 150.565 77.4354C163.653 80.5149 173.001 90.963 177.18 98.2218L163.763 111.749C150.675 104.381 120.87 92.6127 113.831 89.3133Z" fill="#4D6BA0"/>
<path opacity="0.15" d="M114.602 76.7757C114.602 76.7757 114.712 69.6269 122.3 66.4375C122.52 67.7573 122.63 69.077 122.74 70.5068C116.581 72.5964 114.602 76.7757 114.602 76.7757Z" fill="black"/>
<path d="M91.2855 93.9322C91.2855 93.9322 113.282 91.6226 125.599 90.1928C139.127 80.2946 156.724 83.8139 157.934 85.9036L145.066 122.307C121.42 120.547 96.6746 119.448 84.5767 116.038C72.6988 113.069 45.7536 76.3353 45.7536 76.3353C45.4237 74.2456 52.6824 67.0969 56.9716 66.877C69.0695 76.1153 87.1063 84.0339 91.2855 93.9322Z" fill="#4D6BA0"/>
<path opacity="0.3" d="M91.2855 93.9322C91.2855 93.9322 113.282 91.6226 125.599 90.1928C139.127 80.2946 156.724 83.8139 157.934 85.9036L145.066 122.307C121.42 120.547 96.6746 119.448 84.5767 116.038C72.6988 113.069 45.7536 76.3353 45.7536 76.3353C45.4237 74.2456 52.6824 67.0969 56.9716 66.877C69.0695 76.1153 87.1063 84.0339 91.2855 93.9322Z" fill="#4D6BA0"/>
<path opacity="0.15" d="M89.6361 90.9624C90.4059 92.0622 90.8458 92.7221 91.3958 93.9319C87.3265 95.2516 84.0271 99.4309 83.3672 101.85C83.2572 101.85 82.7073 96.0215 89.6361 90.9624Z" fill="black"/>
<path d="M191.368 64.3474C183.889 67.4269 180.7 68.3067 177.18 70.0664C173.111 72.1561 171.901 74.9056 169.262 78.9749C166.622 81.7244 163.983 82.9342 162.443 82.6042C159.803 82.3843 149.795 86.4535 144.736 96.2418C139.457 106.58 140.447 117.028 143.966 122.857C149.575 123.627 159.803 125.497 175.64 123.627C185.209 122.417 194.447 116.698 200.276 111.969C208.745 105.04 213.694 96.5717 215.783 85.7937C218.753 71.0563 211.934 55.8789 191.368 64.3474Z" fill="url(#paint5_linear)"/>
<path d="M230.631 47.7405C229.971 48.6204 228.432 50.1601 227.442 50.4901C225.902 51.04 225.132 49.2803 223.812 48.2904C222.933 47.6306 222.273 46.6407 222.053 45.5409C221.833 44.4411 222.053 43.3413 222.053 42.1315C222.053 41.3617 222.383 40.5918 222.713 39.9319C223.372 38.5022 224.362 37.1824 225.682 36.1926C226.232 35.7527 226.892 35.4227 227.662 35.2028C228.212 35.0928 228.542 35.2028 228.981 35.6427C229.861 36.7425 230.301 38.0622 230.411 39.492C230.521 41.2517 230.081 43.0114 229.421 44.5511C230.081 43.8912 230.631 43.3413 231.291 42.6814C231.401 42.5715 231.401 42.5714 231.511 42.4615C231.731 42.3515 231.841 42.4615 231.951 42.6814C232.061 42.9014 232.061 43.0114 232.061 43.2313C232.171 44.1112 232.061 45.8709 230.631 47.7405Z" fill="#263238"/>
<path d="M195.547 58.8481L192.028 67.2067C191.038 69.7362 191.808 74.5754 198.077 76.9949C202.256 78.5346 205.005 76.2251 205.005 76.2251L208.635 70.946L195.547 58.8481Z" fill="url(#paint6_linear)"/>
<path d="M191.368 52.1392C191.368 52.1392 192.138 56.2084 192.908 57.9681C194.228 60.8276 197.307 61.1576 197.307 61.1576L197.747 55.5486L191.368 52.1392Z" fill="#263238"/>
<path d="M195.217 36.9617C195.217 36.9617 192.798 36.4118 190.708 38.1715C188.728 39.9312 189.388 45.9801 191.368 52.029L195.657 52.7989L195.217 36.9617Z" fill="#263238"/>
<path d="M191.588 56.3187C191.808 56.5387 192.138 56.6487 192.358 56.7587C193.458 57.1986 194.337 57.3086 195.107 57.3086C197.307 57.3086 197.857 55.5489 197.857 55.5489L197.417 60.1681L199.309 65.4113C199.969 65.4113 200.397 67.1575 200.947 67.0475C202.575 67.7972 202.041 67.6457 203.081 69.8013C204.62 69.3613 205.555 69.8464 205.555 69.8464C208.305 70.9462 211.384 71.826 211.604 71.826C211.604 71.826 215.784 72.7058 217.873 72.5959C221.393 72.2659 224.142 69.9563 225.352 66.327C227.442 60.388 227.991 55.3289 227.332 43.451C226.562 30.3633 211.604 29.2635 203.136 33.8827C194.667 38.5019 197.527 49.4999 197.527 49.4999C196.977 47.7403 196.647 46.6405 195.657 45.4307C194.667 44.2209 190.708 43.451 188.728 46.9704C186.859 50.2698 189.168 54.779 191.588 56.3187Z" fill="url(#paint7_linear)"/>
<path d="M206.765 40.7013C206.655 45.4304 203.136 45.9803 201.816 45.8703C202.036 48.3999 202.036 49.3897 201.486 51.0394C201.046 52.4692 199.837 54.3388 198.407 53.459C197.967 53.1291 197.857 52.6891 197.857 52.1392C197.747 51.4793 197.747 50.3795 197.527 49.6097C196.207 45.7604 195.107 44.9905 193.678 44.6606C193.898 43.4508 194.118 42.131 194.338 41.0312C194.887 37.7318 194.997 33.9924 196.977 31.023C199.067 27.8335 202.696 26.5138 206.325 25.9639C209.405 25.5239 212.594 25.5239 215.674 25.304C219.083 25.084 222.603 24.0942 225.242 21.6746C225.792 21.1247 226.452 20.5748 227.222 20.7948C227.992 21.0147 228.212 21.8946 228.322 22.5545C228.761 25.414 228.542 28.2735 227.222 31.023C227.772 30.803 228.102 30.693 228.542 30.3631C229.201 29.8132 229.751 29.3733 230.411 28.8234C230.631 28.6034 230.961 28.3834 231.181 28.4934C231.621 28.6034 231.731 29.1533 231.731 29.5932C231.731 33.5525 229.641 37.1819 227.002 39.9314C223.152 44.1106 216.224 44.6606 206.765 40.7013Z" fill="#263238"/>
<path d="M195.107 37.9521L190.048 34.8726C190.928 33.4429 192.688 33.0029 194.118 33.7728C195.547 34.5427 195.987 36.5223 195.107 37.9521Z" fill="#263238"/>
<path d="M198.077 62.4775C198.077 62.4775 198.737 66.5468 200.276 68.7464C200.716 69.5163 203.136 71.7159 207.315 72.9257L208.635 71.056L205.666 69.9562C204.346 69.4063 203.026 68.7464 202.256 68.0865C200.496 66.8768 198.517 63.5773 198.077 62.4775Z" fill="#B16668"/>
<path d="M212.924 53.0185C212.814 53.8983 212.155 54.5582 211.275 54.5582C210.395 54.4482 209.735 53.7883 209.845 52.7985C209.955 51.9187 210.615 51.2588 211.495 51.2588C212.265 51.3688 212.924 52.1386 212.924 53.0185Z" fill="#263238"/>
<path d="M212.154 47.52L208.525 48.3998C208.305 47.3 208.965 46.3102 209.955 46.0902C210.945 45.8703 211.934 46.5302 212.154 47.52Z" fill="#263238"/>
<path d="M211.054 61.9272L216.663 64.4568C216.004 66.1065 214.244 66.7664 212.704 66.1065C211.054 65.3366 210.395 63.577 211.054 61.9272Z" fill="#874C4C"/>
<path d="M211.385 63.2471C212.924 63.2471 214.134 64.4569 214.134 65.9966C214.134 66.1066 214.134 66.2165 214.134 66.3265C213.694 66.3265 213.144 66.3265 212.704 66.1066C211.604 65.6666 210.945 64.5668 210.945 63.357C210.945 63.2471 211.165 63.2471 211.385 63.2471Z" fill="#B16668"/>
<path d="M226.452 48.6197L223.042 46.97C223.482 45.9802 224.582 45.5402 225.572 46.0901C226.452 46.5301 226.892 47.6299 226.452 48.6197Z" fill="#263238"/>
<path d="M225.462 52.4692C225.352 53.349 224.692 54.0089 223.812 54.0089C222.932 53.8989 222.272 53.239 222.382 52.2492C222.492 51.3694 223.152 50.7095 224.032 50.7095C224.802 50.8195 225.462 51.5893 225.462 52.4692Z" fill="#263238"/>
<path d="M217.873 51.0391L218.423 61.7072L223.922 60.0575L217.873 51.0391Z" fill="#F8B6A9"/>
<path d="M152.545 117.687C153.095 115.267 157.714 100.53 160.903 91.1817C165.962 76.7743 167.062 72.2651 177.29 70.5054C184.989 75.4545 178.72 96.3508 178.72 96.3508L168.272 121.426C168.932 132.534 170.252 151.011 171.572 153.651C175.201 156.51 176.741 161.239 179.38 163.549C182.13 165.858 181.8 167.398 180.26 167.398C177.84 167.398 175.971 165.748 174.101 164.319C173.881 164.209 173.771 164.099 173.551 164.099C173.221 164.209 173.001 164.649 173.331 165.968C174.321 170.368 176.631 173.887 179.05 176.857C179.38 177.296 179.82 177.736 180.04 178.286C180.26 178.836 180.26 179.496 179.93 179.936C179.27 180.816 177.95 180.596 176.961 180.266C171.462 178.066 166.842 171.687 164.313 166.408C161.343 160.03 155.074 137.374 152.545 124.616C151.885 121.206 151.995 120.107 152.545 117.687Z" fill="url(#paint8_linear)"/>
<path d="M177.95 69.7363C167.612 72.4858 165.852 74.7954 163.543 81.2843C161.343 87.6631 157.384 100.751 157.384 100.751C157.384 100.751 160.903 106.14 167.172 107.79C173.441 109.439 174.431 108.449 174.431 108.449C174.431 108.449 180.59 94.042 181.689 89.4228C184.549 76.7751 177.95 69.7363 177.95 69.7363Z" fill="#B34444"/>
<path d="M222 275.472C222.007 240.749 235.253 207.334 259.04 182.033C282.827 156.732 315.366 141.448 350.031 139.293C384.696 137.138 418.878 148.275 445.617 170.435C472.356 192.595 489.64 224.112 493.949 258.566C497.314 285.525 492.553 312.874 480.276 337.111C466.426 364.503 443.743 386.426 415.892 399.338C388.041 412.25 356.649 415.397 326.788 408.271C296.927 401.144 270.342 384.16 251.327 360.063C232.313 335.966 221.981 306.164 222 275.472Z" fill="url(#paint9_linear)"/>
<path d="M233.713 330.865C299.688 364.717 322.31 350.52 392.799 325.403C433.085 311.032 462.491 323.656 480.278 337.111C468.612 360.144 450.651 379.397 428.479 392.635C406.308 405.873 380.836 412.552 355.021 411.898C329.205 411.244 304.104 403.283 282.632 388.94C261.16 374.597 244.197 354.459 233.713 330.865Z" fill="url(#paint10_linear)"/>
<path d="M227.246 237.777C235.939 207.558 254.801 181.266 280.643 163.344C306.486 145.422 337.725 136.969 369.081 139.414C400.437 141.858 429.988 155.049 452.739 176.759C475.491 198.469 490.049 227.366 493.952 258.566C481.948 247.248 467.744 238.519 452.222 232.923C436.7 227.328 420.193 224.984 403.727 226.038C331.98 230.256 276.839 280.934 227.246 237.777Z" fill="url(#paint11_linear)"/>
<path d="M355 74.9924C355.001 68.8866 357.33 63.0109 361.513 58.5619C365.695 54.1128 371.416 51.4252 377.511 51.0463C383.606 50.6674 389.616 52.6257 394.317 56.5224C399.019 60.4191 402.058 65.9611 402.815 72.0198C403.407 76.7603 402.57 81.5694 400.411 85.8313C397.976 90.648 393.988 94.503 389.091 96.7735C384.194 99.044 378.675 99.5974 373.424 98.3443C368.174 97.0911 363.5 94.1046 360.156 89.8673C356.813 85.63 354.997 80.3895 355 74.9924Z" fill="url(#paint12_linear)"/>
<path d="M100 344.986C100.002 333.792 104.272 323.02 111.94 314.863C119.607 306.707 130.096 301.78 141.27 301.085C152.444 300.39 163.463 303.98 172.082 311.124C180.701 318.268 186.273 328.429 187.662 339.536C188.746 348.227 187.212 357.044 183.254 364.857C178.79 373.688 171.478 380.755 162.5 384.918C153.523 389.081 143.404 390.095 133.778 387.798C124.152 385.5 115.583 380.025 109.454 372.257C103.325 364.488 99.994 354.881 100 344.986Z" fill="url(#paint13_linear)"/>
<path d="M466 430.495C466.001 426.807 467.408 423.257 469.935 420.569C472.461 417.881 475.918 416.257 479.6 416.028C483.283 415.799 486.914 416.982 489.754 419.337C492.595 421.691 494.431 425.039 494.888 428.699C495.246 431.564 494.74 434.469 493.436 437.044C491.965 439.954 489.555 442.283 486.597 443.655C483.638 445.027 480.303 445.361 477.131 444.604C473.959 443.847 471.135 442.042 469.115 439.482C467.096 436.922 465.998 433.756 466 430.495Z" fill="url(#paint14_linear)"/>
<defs>
<linearGradient id="paint0_linear" x1="239.539" y1="113.257" x2="245.428" y2="82.0843" gradientUnits="userSpaceOnUse">
<stop offset="0.0625" stop-color="#FFC19E"/>
<stop offset="1" stop-color="white"/>
</linearGradient>
<linearGradient id="paint1_linear" x1="283.647" y1="56.5293" x2="263.779" y2="86.1617" gradientUnits="userSpaceOnUse">
<stop offset="0.0625" stop-color="#FFC19E"/>
<stop offset="1" stop-color="white"/>
</linearGradient>
<linearGradient id="paint2_linear" x1="106.295" y1="38.9941" x2="69.7615" y2="9.97908" gradientUnits="userSpaceOnUse">
<stop offset="0.0625" stop-color="#FFC19E"/>
<stop offset="1" stop-color="white"/>
</linearGradient>
<linearGradient id="paint3_linear" x1="49.2342" y1="67.1335" x2="12.5672" y2="57.5529" gradientUnits="userSpaceOnUse">
<stop offset="0.0625" stop-color="#FFC19E"/>
<stop offset="1" stop-color="white"/>
</linearGradient>
<linearGradient id="paint4_linear" x1="153.573" y1="44.1768" x2="117.457" y2="113.494" gradientUnits="userSpaceOnUse">
<stop stop-color="#73BCF9"/>
<stop offset="1" stop-color="#7A96F8"/>
</linearGradient>
<linearGradient id="paint5_linear" x1="166.657" y1="32.0717" x2="166.657" y2="124.432" gradientUnits="userSpaceOnUse">
<stop offset="0.169841" stop-color="#EBAF8D"/>
<stop offset="0.942708" stop-color="#D1534B"/>
</linearGradient>
<linearGradient id="paint6_linear" x1="198.233" y1="60.3431" x2="200.152" y2="77.5242" gradientUnits="userSpaceOnUse">
<stop offset="0.0625" stop-color="#FFC19E"/>
<stop offset="1" stop-color="white"/>
</linearGradient>
<linearGradient id="paint7_linear" x1="186.286" y1="51.0099" x2="214.608" y2="53.2645" gradientUnits="userSpaceOnUse">
<stop offset="0.0625" stop-color="#FFC19E"/>
<stop offset="1" stop-color="white"/>
</linearGradient>
<linearGradient id="paint8_linear" x1="146.528" y1="135.047" x2="180.121" y2="128.125" gradientUnits="userSpaceOnUse">
<stop offset="0.0625" stop-color="#FFC19E"/>
<stop offset="1" stop-color="white"/>
</linearGradient>
<linearGradient id="paint9_linear" x1="417.591" y1="373.595" x2="288.203" y2="139.018" gradientUnits="userSpaceOnUse">
<stop stop-color="#EF8197"/>
<stop offset="0.942708" stop-color="#F7C58F"/>
</linearGradient>
<linearGradient id="paint10_linear" x1="410.364" y1="398.871" x2="389.619" y2="299.059" gradientUnits="userSpaceOnUse">
<stop stop-color="#EF8197"/>
<stop offset="0.942708" stop-color="#F7C58F"/>
</linearGradient>
<linearGradient id="paint11_linear" x1="418.327" y1="241.744" x2="387.096" y2="115.458" gradientUnits="userSpaceOnUse">
<stop stop-color="#EF8197"/>
<stop offset="0.942708" stop-color="#F7C58F"/>
</linearGradient>
<linearGradient id="paint12_linear" x1="389.39" y1="92.2468" x2="366.636" y2="51" gradientUnits="userSpaceOnUse">
<stop stop-color="#EB4BAC"/>
<stop offset="1" stop-color="#FCE1C2"/>
</linearGradient>
<linearGradient id="paint13_linear" x1="163.048" y1="376.619" x2="121.334" y2="301" gradientUnits="userSpaceOnUse">
<stop stop-color="#73BCF9"/>
<stop offset="1" stop-color="#7A96F8"/>
</linearGradient>
<linearGradient id="paint14_linear" x1="474.956" y1="416" x2="479.944" y2="444.167" gradientUnits="userSpaceOnUse">
<stop stop-color="#675AFF"/>
<stop offset="0.586458" stop-color="#C9D9FF"/>
</linearGradient>
</defs>
</svg>
