<svg width="150" height="150" viewBox="0 0 150 150" fill="none" xmlns="http://www.w3.org/2000/svg">
<g clip-path="url(#clip0)">
<path d="M149.824 11.1978C149.499 5.23942 144.76 0.501234 138.802 0.176038C126.779 -0.480798 103.253 0.158168 80.7561 11.794C69.2878 17.726 57.1589 27.7834 47.4795 39.3873C47.3603 39.5302 47.2443 39.6741 47.1259 39.8173L25.1591 41.5142C21.5433 41.7937 18.3227 43.6889 16.3229 46.7135L1.33635 69.3811C-0.180347 71.6751 -0.42146 74.5459 0.690942 77.0604C1.80364 79.5753 4.08997 81.3278 6.80725 81.7488L25.3144 84.6152C25.249 84.975 25.1834 85.3344 25.1234 85.6942C24.5072 89.3797 25.7283 93.169 28.3903 95.8306L54.1692 121.61C56.3761 123.817 59.3582 125.033 62.4139 125.033C63.0432 125.033 63.676 124.982 64.3059 124.876C64.6656 124.816 65.0251 124.751 65.3849 124.685L68.2513 143.193C68.6723 145.91 70.4248 148.197 72.9391 149.309C73.9853 149.772 75.0924 150.001 76.1946 150.001C77.7423 150 79.2792 149.55 80.6187 148.664L103.286 133.677C106.311 131.677 108.206 128.457 108.485 124.841L110.182 102.874C110.325 102.756 110.469 102.64 110.612 102.521C122.216 92.8415 132.274 80.7126 138.206 69.244C149.842 46.7466 150.48 23.2198 149.824 11.1978ZM98.4391 126.345L76.7562 140.681L73.9624 122.645C83.1265 119.95 92.1918 115.635 100.828 109.854L99.7229 124.164C99.654 125.056 99.1859 125.852 98.4391 126.345ZM60.3839 115.395L34.6047 89.6159C33.947 88.9579 33.6429 88.0336 33.792 87.1432C34.5584 82.5603 35.7493 78.1977 37.2236 74.088L75.9036 112.768C70.9677 114.536 66.5465 115.591 62.8566 116.208C61.9648 116.356 61.0416 116.053 60.3839 115.395ZM25.8362 50.2772L40.1459 49.1718C34.3645 57.8083 30.049 66.8736 27.3546 76.0377L9.31829 73.2442L23.6544 51.561C24.1484 50.8139 24.9438 50.3461 25.8362 50.2772ZM104.983 95.7711C97.8836 101.693 90.9921 105.976 84.64 109.075L40.9229 65.3584C44.9828 57.0662 49.9378 50.1612 54.2286 45.0173C63.1862 34.2785 74.3269 25.0145 84.7944 19.6005C105.441 8.92086 127.194 8.34576 138.324 8.95162C139.797 9.0319 140.968 10.2035 141.048 11.6768C141.655 22.8061 141.079 44.559 130.399 65.206C124.986 75.6732 115.722 86.8136 104.983 95.7711Z" fill="#F4F4F4"/>
<path d="M102.75 69.2118C108.376 69.2112 114.004 67.0696 118.287 62.7867C122.437 58.6368 124.722 53.119 124.722 47.2502C124.722 41.3815 122.437 35.8637 118.287 31.7138C109.72 23.1465 95.7803 23.1471 87.2138 31.7138C83.0637 35.8637 80.7782 41.3815 80.7782 47.2502C80.7782 53.119 83.0639 58.6368 87.2138 62.7867C91.4976 67.0705 97.1226 69.2124 102.75 69.2118ZM93.428 37.9283C95.9979 35.3581 99.3738 34.0731 102.75 34.0731C106.126 34.0731 109.502 35.3581 112.072 37.9283C114.562 40.4182 115.933 43.7288 115.933 47.25C115.933 50.7711 114.562 54.082 112.072 56.5719C106.932 61.7121 98.5678 61.7118 93.4277 56.5719C90.9378 54.082 89.5664 50.7714 89.5664 47.2502C89.5664 43.7291 90.9381 40.4182 93.428 37.9283Z" fill="#F4F4F4"/>
<path d="M4.4827 123.615C5.60741 123.615 6.73212 123.186 7.58993 122.327L21.9375 107.98C23.6537 106.264 23.6537 103.481 21.9375 101.765C20.2216 100.049 17.439 100.049 15.7227 101.765L1.37548 116.113C-0.340735 117.829 -0.340735 120.611 1.37548 122.327C2.23329 123.186 3.358 123.615 4.4827 123.615Z" fill="#F4F4F4"/>
<path d="M35.0862 114.914C33.3703 113.197 30.5877 113.197 28.8715 114.914L1.28731 142.498C-0.4289 144.214 -0.4289 146.997 1.28731 148.713C2.14542 149.571 3.26983 150 4.39454 150C5.51924 150 6.64395 149.571 7.50176 148.713L35.0859 121.128C36.8024 119.412 36.8024 116.63 35.0862 114.914Z" fill="#F4F4F4"/>
<path d="M42.0202 128.063L27.6727 142.41C25.9564 144.126 25.9564 146.909 27.6727 148.625C28.5308 149.483 29.6555 149.912 30.7799 149.912C31.9043 149.912 33.0293 149.483 33.8871 148.625L48.2347 134.277C49.9509 132.561 49.9509 129.779 48.2347 128.063C46.5187 126.346 43.7361 126.346 42.0202 128.063Z" fill="#F4F4F4"/>
</g>
<defs>
<clipPath id="clip0">
<rect width="150" height="150" fill="white"/>
</clipPath>
</defs>
</svg>
