<svg width="195" height="328" viewBox="0 0 195 328" fill="none" xmlns="http://www.w3.org/2000/svg">
<path d="M46.5416 55.8609C46.5416 55.8609 55.7546 92.5028 47.4255 100.185C41.5611 105.592 46.116 116.488 52.4696 118.218C52.4696 118.218 58.4228 114.072 61.994 116.313C67.2783 119.63 73.8221 116.885 78.0835 114.714C82.3456 112.539 101.05 111.171 105.964 113.493C110.877 115.815 125.129 112.564 131.531 107.717L126.146 48.8863L46.5416 55.8609Z" fill="url(#paint0_linear)"/>
<path d="M115.111 100.351C115.111 100.351 113.946 126.699 115.111 131.095C116.278 135.491 127.204 142.326 138.398 147.486C138.398 147.486 123.995 166.67 95.851 166.098C67.7053 165.525 60.6596 153.969 56.1902 147.661C56.1902 147.661 77.5563 140.905 78.0706 131.921C78.5865 122.937 78.0706 100.351 78.0706 100.351H115.111Z" fill="url(#paint1_linear)"/>
<path d="M96.8493 124.564C87.9458 124.564 81.7554 119.392 78.2834 114.676C78.23 106.703 78.0703 100.351 78.0703 100.351H115.111C115.111 100.351 114.803 106.697 114.663 114.31C111.682 119.073 105.983 124.564 96.8493 124.564Z" fill="#D35948"/>
<path d="M120.943 64.3546C120.943 64.3546 122.263 59.0194 129.365 59.0028C136.229 58.9865 135.495 76.4065 129.759 79.7735C124.023 83.1405 121.259 74.7606 121.259 74.7606L120.943 64.3546Z" fill="#EF7159"/>
<path d="M61.2882 69.6415C61.2882 69.6415 59.0204 64.6217 52.031 65.854C45.2741 67.0455 49.1589 84.0544 55.4148 86.3606C61.6695 88.6668 62.8654 79.9365 62.8654 79.9365L61.2882 69.6415Z" fill="#EC9494"/>
<path d="M55.0253 65.1578C61.4012 101.715 77.3482 118.125 95.6472 116.504C113.881 114.889 127.083 99.0023 126.291 58.8438C125.708 29.1906 108.344 12.3557 86.2934 14.3114C64.2427 16.264 49.7286 34.7896 55.0253 65.1578Z" fill="url(#paint2_linear)"/>
<path d="M63.1795 92.7339C62.0803 91.3821 61.2314 89.7987 60.7203 88.0308C60.4868 87.2234 60.3341 86.4099 60.2578 85.5994C60.2588 85.5994 60.26 85.5994 60.2613 85.5963C61.1706 88.1372 62.1445 90.5122 63.1795 92.7339Z" fill="#663021"/>
<path d="M60.2576 85.5996C60.257 85.5966 60.2564 85.5904 60.2561 85.5843C60.2573 85.5874 60.2598 85.5935 60.261 85.5966C60.2598 85.5996 60.2586 85.5996 60.2576 85.5996Z" fill="#EF7159"/>
<path d="M108.658 68.8305C108.785 70.2261 109.887 71.2681 111.116 71.1586C112.346 71.0491 113.239 69.8318 113.111 68.4362C112.983 67.0425 111.883 66.0002 110.653 66.1097C109.424 66.218 108.53 67.4381 108.658 68.8305Z" fill="#23242B"/>
<path d="M70.5646 72.2069C70.6919 73.5994 71.7905 74.6414 73.0207 74.535C74.2507 74.4255 75.1438 73.2051 75.0156 71.8095C74.8881 70.417 73.7888 69.375 72.5586 69.4845C71.3286 69.5941 70.4371 70.8113 70.5646 72.2069Z" fill="#23242B"/>
<path d="M117.901 59.7472C118.217 59.7127 118.523 59.5679 118.75 59.3157C119.241 58.7737 119.191 57.9448 118.641 57.4619C116.315 55.4258 110.674 51.2177 103.834 56.8054C103.266 57.2685 103.046 58.0186 103.452 58.6228C103.857 59.229 104.684 59.3976 105.3 58.999C111.6 54.921 116.815 59.3779 116.867 59.4236C117.16 59.6808 117.539 59.7872 117.901 59.7472Z" fill="#663021"/>
<path d="M63.1903 64.5711C62.8732 64.5927 62.5472 64.5032 62.2771 64.2945C61.6979 63.8467 61.5965 63.0212 62.0516 62.4514C63.9759 60.0419 68.7713 54.9198 76.5091 59.2302C77.1507 59.5869 77.5002 60.2866 77.2108 60.9531C76.9217 61.6196 76.136 61.9291 75.4605 61.6431C68.5251 58.7261 64.1931 64.0188 64.1508 64.0723C63.9062 64.378 63.5542 64.5476 63.1903 64.5711Z" fill="#663021"/>
<path d="M93.6879 89.1422C95.5521 88.9169 96.9904 88.2879 97.5629 86.8672C99.3456 82.4426 94.6024 75.9778 94.1406 75.1736C93.8209 74.6166 93.3915 74.3099 92.8257 74.6228C92.2573 74.9389 92.5502 75.6868 92.8699 76.2437C94.3804 78.8848 95.6304 83.9039 94.6476 85.9473C94.4828 86.2884 94.1797 86.7014 93.2767 86.8579C92.6368 86.9705 92.2347 87.5682 92.3212 88.2003C92.4745 89.3049 93.6546 89.1453 93.6879 89.1422Z" fill="#D35948"/>
<path d="M152.468 99.0836C152.468 99.0836 149.392 111.744 140.004 107.273C138.024 106.328 135.747 108.7 132.463 109.773C128.692 111.006 119.569 108.205 120.504 74.1473C121.183 49.3261 103.195 48.0153 101.129 39.0274C101.129 39.0274 101.117 44.684 107.784 50.9721C107.784 50.9721 101.223 52.7817 97.436 51.2769C93.554 49.7358 90.2175 43.7168 88.3483 38.5822C88.3483 38.5822 89.7557 46.942 95.5451 52.0563C95.5451 52.0563 89.18 54.913 85.6893 48.8023C85.6893 48.8023 86.7936 52.22 87.3429 53.0887C87.3429 53.0887 73.629 56.6531 68.6154 31.77C68.6154 31.77 63.3562 57.4792 57.0818 64.4685C57.0818 64.4685 57.418 76.1562 53.5246 65.6801C53.5246 65.6801 51.6156 65.0768 49.5873 67.4947C49.5873 67.4947 41.5792 48.4371 43.9987 33.3874C45.6084 23.38 53.2358 17.0379 65.7748 16.7816C65.7748 16.7816 70.5378 -2.39832 95.4493 0.699547C104.73 1.85734 113.614 3.87252 122.287 10.5001C129.034 15.6548 139.969 20.5209 141.038 42.14C142.974 81.238 139.621 80.9626 152.468 99.0836Z" fill="url(#paint3_linear)"/>
<path d="M101.223 99.1246C101.164 99.1309 101.108 99.134 101.05 99.1309C96.0267 98.9087 91.6333 99.7692 90.1903 100.051C89.8547 100.117 89.6391 100.151 89.5583 100.16C88.855 100.223 88.2335 99.7098 88.1702 99.0182C88.1079 98.3361 88.612 97.7321 89.3022 97.657C89.3754 97.6445 89.5061 97.6195 89.6915 97.5819C91.2106 97.2847 95.8378 96.3803 101.163 96.6182C101.869 96.6495 102.415 97.2346 102.383 97.9293C102.355 98.5645 101.849 99.0714 101.223 99.1246Z" fill="#BF4545"/>
<path d="M156.795 327.647C157.534 256.13 177.529 173.745 177.529 173.745C161.088 158.497 136.283 144.081 136.283 144.081C85.626 184.062 60.6747 142.66 60.6747 142.66C34.2686 154.739 20.0095 173.745 20.0095 173.745C19.4049 180.88 28.9089 288.817 32.3681 327.647H156.795Z" fill="url(#paint4_linear)"/>
<path d="M40.2958 269.382C40.2958 269.382 18.1326 281.116 12.1995 288.298C9.75007 291.258 8.51917 305.837 10.327 306.991C12.1352 308.149 21.4742 314.329 23.0772 312.93C24.6793 311.532 31.309 305.521 31.087 302.958C30.8656 300.398 29.7816 297.898 29.7816 297.898C29.7816 297.898 38.9399 295.423 44.3565 288.323C44.3565 288.323 53.2142 276.757 40.2958 269.382Z" fill="url(#paint5_linear)"/>
<path d="M28.8698 297.782C28.8698 297.782 22.459 298.064 21.0674 297.782C21.0674 297.782 21.6966 300.461 18.981 304.125C18.981 304.125 21.7172 304.056 22.8766 306.309C22.8766 306.309 22.9357 303.631 25.9392 303.136C25.9392 303.136 24.4879 298.949 28.8698 297.782Z" fill="#D35948"/>
<path d="M7.77916 251.677C7.77916 251.677 30.3784 267.423 40.3929 238.216L43.3385 211.758C43.3385 211.758 25.5954 195.318 13.3551 206.664C1.11608 218.007 -1.31837 241.204 7.77916 251.677Z" fill="#292C25"/>
<path d="M186.469 199.345C186.469 199.345 180.667 298.358 157.737 303.271C134.806 308.183 41.215 285.775 41.215 285.775L39.9915 269.382C39.9915 269.382 110.831 270.061 142.595 270.962L155.443 195.39C155.443 195.39 166.978 193.478 186.469 199.345Z" fill="url(#paint6_linear)"/>
<path d="M177.53 173.745C177.53 173.745 193.47 195.69 195 252.838C195 252.838 164.425 263.067 138.439 253.379C138.439 253.379 137.132 179.474 177.53 173.745Z" fill="url(#paint7_linear)"/>
<path d="M82.1947 155.284L45.0867 214.562L41.2417 180.376L9.33911 200.387C9.33911 200.387 18.3161 274.799 48.6271 268.462C71.5078 263.681 98.0046 158.622 98.0046 158.622C98.0046 158.622 90.8943 156.363 82.1947 155.284Z" fill="url(#paint8_linear)"/>
<path d="M31.1759 162.07C31.1759 162.07 13.7999 172.484 5.98604 193.131C1.81148 204.164 -0.585768 224.475 0.12351 239.614C0.12351 239.614 1.58659 247.19 7.77958 251.677C7.77958 251.677 1.96286 241.576 5.39666 230.812C10.5658 214.606 30.4011 203.05 45.6191 212.062C45.6191 212.062 58.5226 168.191 31.1759 162.07Z" fill="url(#paint9_linear)"/>
<path d="M82.1948 155.283C82.1948 155.283 83.7069 132.778 85.8942 121.028C85.8942 121.028 89.9476 109.053 95.3038 108.108C96.3616 107.924 98.0172 108.512 99.2449 110.064C101.494 112.908 102.841 115.114 104.293 117.511C104.293 117.511 108.96 117.324 108.436 123.842C108.436 123.842 111.484 124.711 109.781 132.031C109.781 132.031 112.495 134.762 110.002 140.473C110.002 140.473 107.425 143.164 104.061 142.232C104.061 142.232 103.977 145.104 103.641 146.265C103.304 147.423 103.153 156.704 96.6256 159.336C96.6256 159.336 88.3344 165.128 82.1948 155.283Z" fill="url(#paint10_linear)"/>
<path d="M104.67 117.821C104.67 117.549 104.446 117.324 104.165 117.324C101.372 117.324 98.613 117.58 96.3478 117.874C96.6486 117.371 97.0291 116.682 97.1175 116.294C97.1773 116.025 97.0049 115.762 96.732 115.703C96.4581 115.64 96.1919 115.812 96.1312 116.081C96.0621 116.391 95.5093 117.342 95.1391 117.918C95.1134 117.959 95.1026 118.006 95.0892 118.05C92.6881 118.403 91.0918 118.757 91.0603 118.763C90.788 118.826 90.6182 119.092 90.6799 119.358C90.734 119.589 90.9413 119.746 91.1716 119.746C91.2076 119.746 91.2451 119.739 91.2848 119.733C91.3472 119.717 97.6808 118.319 104.165 118.319C104.446 118.319 104.67 118.097 104.67 117.821Z" fill="#D35948"/>
<path d="M106.809 124.392C107.078 124.432 107.34 124.245 107.379 123.972C107.419 123.7 107.226 123.45 106.95 123.409C103.804 122.968 95.1444 125.008 94.7764 125.096C94.5051 125.158 94.3388 125.427 94.4037 125.693C94.4603 125.922 94.6661 126.075 94.8948 126.075C94.9329 126.075 94.9737 126.069 95.0121 126.06C95.1012 126.038 103.843 123.976 106.809 124.392Z" fill="#D35948"/>
<path d="M108.969 131.226C104.789 131.17 99.7368 132.184 99.5227 132.227C99.2499 132.284 99.0743 132.547 99.1325 132.816C99.1808 133.05 99.3904 133.21 99.6242 133.21C99.6592 133.21 104.871 132.215 108.918 132.215C108.922 132.215 109.544 132.093 109.544 131.705C109.544 131.433 109.246 131.229 108.969 131.226Z" fill="#D35948"/>
<path d="M108.416 137.625C106.511 137.3 103.061 138.095 102.914 138.126C102.772 138.16 102.651 138.254 102.585 138.379C102.516 138.508 102.508 138.661 102.563 138.792C102.8 139.381 103.296 141.202 103.3 141.221C103.36 141.443 103.564 141.59 103.788 141.59C103.83 141.59 103.876 141.584 103.918 141.571C104.187 141.502 104.347 141.23 104.276 140.964C104.26 140.905 103.952 139.772 103.695 138.977C104.722 138.77 106.955 138.382 108.245 138.602C108.511 138.648 108.78 138.467 108.827 138.198C108.875 137.926 108.691 137.669 108.416 137.625Z" fill="#D35948"/>
<path d="M97.6474 160.431C97.4801 160.431 97.3204 160.334 97.253 160.171C97.1639 159.955 97.268 159.711 97.4858 159.623C102.63 157.549 102.962 150.546 103.104 147.557C103.138 146.831 103.159 146.396 103.231 146.149C103.548 145.054 103.634 142.247 103.635 142.219L103.651 141.681L104.177 141.828C106.999 142.61 109.28 140.579 109.643 140.232C111.926 134.931 109.576 132.428 109.475 132.321L109.316 132.159L109.366 131.94C110.938 125.177 108.336 124.251 108.309 124.242L107.992 124.139L108.011 123.807C108.187 121.61 107.78 119.986 106.8 118.985C105.726 117.887 104.324 117.93 104.31 117.93L104.056 117.94L103.926 117.724C102.584 115.508 101.196 113.215 98.9082 110.32C97.8055 108.928 96.3017 108.361 95.3787 108.521C90.3326 109.41 86.3384 121.041 86.2987 121.16C84.1549 132.7 81.9902 156.125 81.9686 156.36C81.9466 156.591 81.738 156.757 81.5058 156.738C81.271 156.719 81.0987 156.516 81.1197 156.285C81.1413 156.05 83.3092 132.584 85.4749 120.95C85.6587 120.396 89.6866 108.671 95.2289 107.695C96.3615 107.495 98.2085 108.07 99.5809 109.807C101.833 112.655 103.22 114.92 104.539 117.098C105.084 117.132 106.369 117.336 107.414 118.403C108.525 119.539 109.018 121.282 108.88 123.585C109.69 124.048 111.61 125.822 110.244 131.918C110.822 132.641 112.641 135.488 110.393 140.639L110.313 140.758C110.205 140.87 107.774 143.361 104.467 142.754C104.425 143.649 104.312 145.476 104.05 146.378C104.005 146.531 103.981 147.05 103.955 147.595C103.805 150.746 103.456 158.121 97.8087 160.399C97.7565 160.421 97.7015 160.431 97.6474 160.431Z" fill="url(#paint11_linear)"/>
<path d="M35.7483 240.446C35.7394 240.446 35.7302 240.446 35.7209 239.611C35.4856 239.611 35.3075 239.605 35.3224 239.373C36.0304 228.355 44.1092 215.454 44.1909 215.322C44.3149 215.125 44.577 215.116 44.7777 215.238C44.9775 215.36 45.0398 215.645 44.9167 215.842C44.8359 215.97 36.8679 229.025 36.1729 239.833C36.1586 240.055 35.9716 240.446 35.7483 240.446Z" fill="#DB5252"/>
<defs>
<linearGradient id="paint0_linear" x1="44.7134" y1="140.056" x2="44.7134" y2="7.75184" gradientUnits="userSpaceOnUse">
<stop offset="0.005" stop-color="#BF5C5C"/>
<stop offset="0.973" stop-color="#420F0F"/>
</linearGradient>
<linearGradient id="paint1_linear" x1="97.4289" y1="203.972" x2="97.4289" y2="66.9731" gradientUnits="userSpaceOnUse">
<stop offset="0.265625" stop-color="#FFCCC0"/>
<stop offset="0.96875" stop-color="#EC9494"/>
</linearGradient>
<linearGradient id="paint2_linear" x1="90.2471" y1="143.488" x2="90.2471" y2="14.2337" gradientUnits="userSpaceOnUse">
<stop stop-color="#FFCCC0"/>
<stop offset="1" stop-color="#EC9494"/>
</linearGradient>
<linearGradient id="paint3_linear" x1="107.14" y1="116.036" x2="107.14" y2="-40.2894" gradientUnits="userSpaceOnUse">
<stop offset="0.005" stop-color="#D66767"/>
<stop offset="1" stop-color="#5B1515"/>
</linearGradient>
<linearGradient id="paint4_linear" x1="98.7557" y1="327.647" x2="98.7557" y2="142.344" gradientUnits="userSpaceOnUse">
<stop stop-color="#3E417B"/>
<stop offset="1" stop-color="#77A7F9"/>
</linearGradient>
<linearGradient id="paint5_linear" x1="33.1714" y1="204.874" x2="33.1714" y2="411.529" gradientUnits="userSpaceOnUse">
<stop stop-color="#FFCCC0"/>
<stop offset="0.0001" stop-color="#FFCCC0"/>
<stop offset="0.770833" stop-color="#EC9494"/>
</linearGradient>
<linearGradient id="paint6_linear" x1="113.47" y1="366.665" x2="113.47" y2="244.146" gradientUnits="userSpaceOnUse">
<stop offset="0.375" stop-color="#EC9494"/>
<stop offset="1" stop-color="#FFCCC0"/>
</linearGradient>
<linearGradient id="paint7_linear" x1="166.717" y1="257.549" x2="146.201" y2="167.145" gradientUnits="userSpaceOnUse">
<stop stop-color="#3E417B"/>
<stop offset="1" stop-color="#77A7F9"/>
</linearGradient>
<linearGradient id="paint8_linear" x1="53.8172" y1="334.229" x2="53.8172" y2="97.6425" gradientUnits="userSpaceOnUse">
<stop stop-color="#EC9494"/>
<stop offset="0.942708" stop-color="#FFCCC0"/>
</linearGradient>
<linearGradient id="paint9_linear" x1="48.804" y1="152.639" x2="-13.5393" y2="221.731" gradientUnits="userSpaceOnUse">
<stop stop-color="#77A7F9"/>
<stop offset="1" stop-color="#3E417B"/>
</linearGradient>
<linearGradient id="paint10_linear" x1="100.658" y1="79.8142" x2="87.3131" y2="181.998" gradientUnits="userSpaceOnUse">
<stop stop-color="#EC9494"/>
<stop offset="0.885417" stop-color="#FFCCC0"/>
</linearGradient>
<linearGradient id="paint11_linear" x1="96.3028" y1="160.431" x2="96.3028" y2="107.657" gradientUnits="userSpaceOnUse">
<stop stop-color="#D35948"/>
<stop offset="1" stop-color="#D35948" stop-opacity="0"/>
</linearGradient>
</defs>
</svg>
