<svg width="28" height="26" viewBox="0 0 28 26" fill="none" xmlns="http://www.w3.org/2000/svg">
<path d="M7.03486 18.3922L6.98521 18.3892C6.5954 18.3656 6.21947 18.294 5.86247 18.1816L3.36741 22.5018C3.13882 22.8976 3.27789 23.4037 3.67656 23.6274L6.13258 25.0048C6.52436 25.2245 7.0201 25.0884 7.2447 24.6995L10.8874 18.3922H7.03486Z" fill="#F4F4F4"/>
<path d="M20.8901 0.122053L13.4785 4.65958V17.7266L20.8995 22.1352C21.4465 22.4602 22.1393 22.0661 22.1393 21.43V0.821615C22.1393 0.180623 21.4369 -0.212689 20.8901 0.122053Z" fill="#F4F4F4"/>
<path d="M2.65398 13.8697V8.35938C2.65398 8.04361 2.68816 7.736 2.75144 7.43921H1.55838C0.697703 7.43921 0 8.13669 0 8.99709V13.232C0 14.0924 0.697703 14.7899 1.55838 14.7899H2.751C2.68795 14.4923 2.65398 14.1847 2.65398 13.8697Z" fill="#F4F4F4"/>
<path d="M11.8371 16.7516H7.08431C5.54377 16.6582 4.29492 15.4097 4.29492 13.8697V8.35935C4.29492 6.8193 5.54377 5.57089 7.08431 5.66435H11.8371V16.7516Z" fill="#F4F4F4"/>
<path d="M25.7425 17.8208C25.5325 17.8208 25.3225 17.7407 25.1623 17.5805L23.507 15.9257C23.1865 15.6054 23.1865 15.086 23.507 14.7656C23.8274 14.4453 24.347 14.4453 24.6674 14.7656L26.3228 16.4204C26.6432 16.7407 26.6432 17.2601 26.3228 17.5805C26.1625 17.7407 25.9525 17.8208 25.7425 17.8208Z" fill="#F4F4F4"/>
<path d="M24.0872 7.97709C23.8771 7.97709 23.6672 7.89702 23.507 7.73679C23.1865 7.41648 23.1865 6.89706 23.507 6.5767L25.1623 4.92191C25.4828 4.60155 26.0023 4.60155 26.3228 4.92191C26.6432 5.24222 26.6432 5.76164 26.3228 6.082L24.6674 7.73679C24.5072 7.89697 24.2972 7.97709 24.0872 7.97709Z" fill="#F4F4F4"/>
<path d="M27.1797 12.0715H24.8387C24.3855 12.0715 24.0181 11.7043 24.0181 11.2512C24.0181 10.7982 24.3855 10.4309 24.8387 10.4309H27.1797C27.6329 10.4309 28.0002 10.7982 28.0002 11.2512C28.0002 11.7043 27.6329 12.0715 27.1797 12.0715Z" fill="#F4F4F4"/>
</svg>
