<svg width="23" height="30" viewBox="0 0 23 30" fill="none" xmlns="http://www.w3.org/2000/svg">
<path d="M16.174 2.27341H13.979C13.7051 2.26493 13.4697 2.07661 13.4013 1.81133C13.1933 0.730684 12.2291 -0.0374352 11.1293 0.00140936C10.0229 -0.0179761 9.06339 0.7626 8.8573 1.84988C8.7861 2.10786 8.54706 2.28314 8.27964 2.27348H6.16162V6.1244H16.174V2.27341Z" fill="url(#paint0_linear)"/>
<path d="M22.3357 28.2285V6.1628C22.338 5.29082 21.633 4.58204 20.761 4.57968C20.7211 4.57961 20.6811 4.58101 20.6413 4.58388H17.3295V6.54786C17.3295 6.85596 17.1369 7.27956 16.8288 7.27956H5.46868C5.16058 7.27956 5.0066 6.85596 5.0066 6.54786V4.58396H1.69479C0.825175 4.52013 0.0684065 5.17341 0.00464844 6.0431C0.00170009 6.08297 0.000299677 6.12292 0.000447095 6.16287V28.2286C-0.0210759 29.1854 0.737166 29.9785 1.69398 29.9999C1.69427 29.9999 1.69457 29.9999 1.69486 29.9999H20.6413C21.5981 29.9789 22.3568 29.1862 22.3358 28.2294C22.3357 28.2291 22.3357 28.2288 22.3357 28.2285ZM8.04878 23.1453L5.04508 25.9565C4.94903 26.0714 4.8095 26.1411 4.66002 26.149C4.49911 26.1427 4.34705 26.0735 4.23642 25.9565L2.65757 24.3391C2.44773 24.1041 2.4649 23.7443 2.69605 23.5304C2.92064 23.3103 3.28012 23.3103 3.50471 23.5304L4.65995 24.7627L7.2786 22.2981C7.54115 22.1169 7.90092 22.1828 8.0821 22.4454C8.22996 22.6596 8.21625 22.9462 8.04878 23.1453ZM8.04878 16.9838L5.04508 19.795C4.94903 19.9099 4.8095 19.9797 4.66002 19.9876C4.49911 19.9812 4.34705 19.9121 4.23642 19.795L2.65757 18.1776C2.44773 17.9427 2.4649 17.5829 2.69605 17.369C2.92064 17.1488 3.28012 17.1488 3.50471 17.369L4.65995 18.6012L7.2786 16.1366C7.54115 15.9555 7.90092 16.0214 8.0821 16.2839C8.22996 16.4981 8.21625 16.7847 8.04878 16.9838ZM8.04878 10.8224L5.04508 13.6336C4.94903 13.7485 4.8095 13.8182 4.66002 13.8261C4.49911 13.8197 4.34705 13.7506 4.23642 13.6336L2.65757 12.0162C2.44773 11.7812 2.4649 11.4214 2.69605 11.2075C2.92064 10.9873 3.28012 10.9873 3.50471 11.2075L4.65995 12.4398L7.2786 9.97517C7.54115 9.79399 7.90092 9.85989 8.0821 10.1224C8.22996 10.3366 8.21625 10.6232 8.04878 10.8224ZM19.2549 25.3788H10.3978C10.0788 25.3788 9.82015 25.1202 9.82015 24.8012C9.82015 24.4822 10.0788 24.2235 10.3978 24.2235H19.2549C19.5739 24.2235 19.8325 24.4822 19.8325 24.8012C19.8325 25.1202 19.574 25.3788 19.2549 25.3788ZM19.2549 19.2174H10.3978C10.0788 19.2174 9.82015 18.9587 9.82015 18.6397C9.82015 18.3207 10.0788 18.0621 10.3978 18.0621H19.2549C19.5739 18.0621 19.8325 18.3207 19.8325 18.6397C19.8325 18.9587 19.574 19.2174 19.2549 19.2174ZM19.2549 13.0559H10.3978C10.0788 13.0559 9.82015 12.7973 9.82015 12.4782C9.82015 12.1592 10.0788 11.9006 10.3978 11.9006H19.2549C19.5739 11.9006 19.8325 12.1592 19.8325 12.4782C19.8325 12.7973 19.574 13.0559 19.2549 13.0559Z" fill="url(#paint1_linear)"/>
<defs>
<linearGradient id="paint0_linear" x1="9.00063" y1="0.861658" x2="11.08" y2="7.02422" gradientUnits="userSpaceOnUse">
<stop stop-color="#73BCF9"/>
<stop offset="1" stop-color="#7A96F8"/>
</linearGradient>
<linearGradient id="paint1_linear" x1="6.33342" y1="8.1561" x2="19.1634" y2="28.5924" gradientUnits="userSpaceOnUse">
<stop stop-color="#73BCF9"/>
<stop offset="1" stop-color="#7A96F8"/>
</linearGradient>
</defs>
</svg>
