<svg width="23" height="30" viewBox="0 0 23 30" fill="none" xmlns="http://www.w3.org/2000/svg">
<path d="M16.174 2.27341H13.979C13.7051 2.26493 13.4697 2.07661 13.4013 1.81133C13.1933 0.730684 12.2291 -0.0374352 11.1293 0.00140936C10.0229 -0.0179761 9.06339 0.7626 8.8573 1.84988C8.7861 2.10786 8.54706 2.28314 8.27964 2.27348H6.16162V6.1244H16.174V2.27341Z" fill="#F4F4F4"/>
<path d="M22.3357 28.2284V6.16274C22.338 5.29076 21.633 4.58198 20.761 4.57962C20.7211 4.57955 20.6811 4.58095 20.6413 4.58382H17.3295V6.54779C17.3295 6.8559 17.1369 7.2795 16.8288 7.2795H5.46868C5.16058 7.2795 5.0066 6.8559 5.0066 6.54779V4.5839H1.69479C0.825175 4.52006 0.0684065 5.17335 0.00464844 6.04304C0.00170009 6.08291 0.000299677 6.12286 0.000447095 6.16281V28.2285C-0.0210759 29.1853 0.737166 29.9784 1.69398 29.9999C1.69427 29.9999 1.69457 29.9999 1.69486 29.9999H20.6413C21.5981 29.9789 22.3568 29.1861 22.3358 28.2293C22.3357 28.229 22.3357 28.2287 22.3357 28.2284ZM8.04878 23.1453L5.04508 25.9564C4.94903 26.0713 4.8095 26.1411 4.66002 26.149C4.49911 26.1426 4.34705 26.0735 4.23642 25.9564L2.65757 24.339C2.44773 24.1041 2.4649 23.7443 2.69605 23.5304C2.92064 23.3102 3.28012 23.3102 3.50471 23.5304L4.65995 24.7626L7.2786 22.298C7.54115 22.1169 7.90092 22.1828 8.0821 22.4453C8.22996 22.6595 8.21625 22.9461 8.04878 23.1453ZM8.04878 16.9838L5.04508 19.795C4.94903 19.9099 4.8095 19.9796 4.66002 19.9875C4.49911 19.9812 4.34705 19.912 4.23642 19.795L2.65757 18.1776C2.44773 17.9426 2.4649 17.5828 2.69605 17.3689C2.92064 17.1487 3.28012 17.1487 3.50471 17.3689L4.65995 18.6012L7.2786 16.1366C7.54115 15.9554 7.90092 16.0213 8.0821 16.2838C8.22996 16.498 8.21625 16.7846 8.04878 16.9838ZM8.04878 10.8223L5.04508 13.6335C4.94903 13.7484 4.8095 13.8181 4.66002 13.826C4.49911 13.8197 4.34705 13.7505 4.23642 13.6335L2.65757 12.0161C2.44773 11.7811 2.4649 11.4213 2.69605 11.2074C2.92064 10.9873 3.28012 10.9873 3.50471 11.2074L4.65995 12.4397L7.2786 9.97511C7.54115 9.79393 7.90092 9.85983 8.0821 10.1224C8.22996 10.3366 8.21625 10.6232 8.04878 10.8223ZM19.2549 25.3788H10.3978C10.0788 25.3788 9.82015 25.1201 9.82015 24.8011C9.82015 24.4821 10.0788 24.2235 10.3978 24.2235H19.2549C19.5739 24.2235 19.8325 24.4821 19.8325 24.8011C19.8325 25.1201 19.574 25.3788 19.2549 25.3788ZM19.2549 19.2173H10.3978C10.0788 19.2173 9.82015 18.9587 9.82015 18.6397C9.82015 18.3206 10.0788 18.062 10.3978 18.062H19.2549C19.5739 18.062 19.8325 18.3206 19.8325 18.6397C19.8325 18.9587 19.574 19.2173 19.2549 19.2173ZM19.2549 13.0558H10.3978C10.0788 13.0558 9.82015 12.7972 9.82015 12.4782C9.82015 12.1592 10.0788 11.9005 10.3978 11.9005H19.2549C19.5739 11.9005 19.8325 12.1592 19.8325 12.4782C19.8325 12.7973 19.574 13.0558 19.2549 13.0558Z" fill="#F4F4F4"/>
</svg>
