<svg width="29" height="29" viewBox="0 0 29 29" fill="none" xmlns="http://www.w3.org/2000/svg">
<g clip-path="url(#clip0)">
<path d="M14.5001 0C10.7501 0 7.71436 3.03571 7.71436 6.78571C7.71436 10.5357 10.7501 13.5714 14.5001 13.5714C18.2501 13.5714 21.2858 10.5357 21.2858 6.78571C21.2858 3.03571 18.2501 0 14.5001 0Z" fill="#F4F4F4"/>
<path d="M17.1429 14.3574H11.8572C6.53578 14.3574 2.21436 18.6789 2.21436 24.0003V27.9289C2.21436 28.536 2.67864 29.0003 3.28578 29.0003H25.7144C26.3215 29.0003 26.7858 28.536 26.7858 27.9289V24.0003C26.7858 18.6789 22.4644 14.3574 17.1429 14.3574Z" fill="#F4F4F4"/>
</g>
<defs>
<clipPath id="clip0">
<rect width="29" height="29" fill="white"/>
</clipPath>
</defs>
</svg>
