<svg width="29" height="29" viewBox="0 0 29 29" fill="none" xmlns="http://www.w3.org/2000/svg">
<g clip-path="url(#clip0)">
<path d="M18.1248 15.7086C17.4566 15.7086 16.9166 16.25 16.9166 16.9168V21.7503C16.9166 22.416 16.3752 22.9585 15.7081 22.9585H12.0831V4.8337C12.0831 3.80179 11.4258 2.87984 10.4375 2.53668L10.0797 2.41698H15.7081C16.3752 2.41698 16.9166 2.95949 16.9166 3.62545V7.25041C16.9166 7.91726 17.4566 8.45866 18.1248 8.45866C18.793 8.45866 19.3331 7.91726 19.3331 7.25041V3.62545C19.3331 1.6269 17.7066 0.000488281 15.7081 0.000488281H2.71872C2.6727 0.000488281 2.6342 0.0210646 2.58951 0.0270383C2.53132 0.0221708 2.47579 0.000488281 2.41672 0.000488281C1.0839 0.000488281 0 1.08417 0 2.41698V24.1668C0 25.1987 0.657334 26.1206 1.64566 26.4638L8.91749 28.8878C9.16396 28.9639 9.4091 29.0002 9.66664 29.0002C10.9994 29.0002 12.0831 27.9163 12.0831 26.5835V25.3752H15.7081C17.7066 25.3752 19.3331 23.7488 19.3331 21.7503V16.9168C19.3331 16.25 18.793 15.7086 18.1248 15.7086Z" fill="#F4F4F4"/>
<path d="M28.6456 11.2291L23.8122 6.39587C23.4668 6.05028 22.9471 5.94629 22.4953 6.13347C22.0446 6.32087 21.7497 6.76182 21.7497 7.25012V10.8751H16.9165C16.2494 10.8751 15.708 11.4163 15.708 12.0833C15.708 12.7504 16.2494 13.2916 16.9165 13.2916H21.7497V16.9165C21.7497 17.4048 22.0446 17.8458 22.4953 18.0332C22.9471 18.2204 23.4668 18.1164 23.8122 17.771L28.6456 12.9376C29.118 12.4652 29.118 11.7014 28.6456 11.2291Z" fill="#F4F4F4"/>
</g>
<defs>
<clipPath id="clip0">
<rect width="29" height="29" fill="white"/>
</clipPath>
</defs>
</svg>
