<svg width="79" height="79" viewBox="0 0 79 79" fill="none" xmlns="http://www.w3.org/2000/svg">
<g clip-path="url(#clip0)">
<path d="M39.4999 0C29.2843 0 21.0146 8.2697 21.0146 18.4852C21.0146 28.7007 29.2843 36.9704 39.4999 36.9704C49.7154 36.9704 57.9851 28.7007 57.9851 18.4852C57.9851 8.2697 49.7154 0 39.4999 0Z" fill="url(#paint0_radial)"/>
<path d="M46.6997 39.1108H32.3007C17.8044 39.1108 6.03223 50.883 6.03223 65.3793V76.0813C6.03223 77.7352 7.29701 79 8.95095 79H70.0495C71.7034 79 72.9682 77.7352 72.9682 76.0813V65.3793C72.9682 50.883 61.196 39.1108 46.6997 39.1108Z" fill="url(#paint1_radial)"/>
</g>
<defs>
<radialGradient id="paint0_radial" cx="0" cy="0" r="1" gradientUnits="userSpaceOnUse" gradientTransform="translate(30.4104 3.36807) rotate(59.5385) scale(38.0745 34.045)">
<stop stop-color="white" stop-opacity="0.56"/>
<stop offset="1" stop-color="white" stop-opacity="0.21"/>
</radialGradient>
<radialGradient id="paint1_radial" cx="0" cy="0" r="1" gradientUnits="userSpaceOnUse" gradientTransform="translate(23.0436 42.7448) rotate(45.3769) scale(49.7512 50.8967)">
<stop stop-color="white" stop-opacity="0.56"/>
<stop offset="1" stop-color="white" stop-opacity="0.21"/>
</radialGradient>
<clipPath id="clip0">
<rect width="79" height="79" fill="white"/>
</clipPath>
</defs>
</svg>
