<svg width="32" height="32" viewBox="0 0 32 32" fill="none" xmlns="http://www.w3.org/2000/svg">
<path d="M14 9.99951V7.99951H2C0.898 7.99951 0 8.89751 0 9.99951V13.9995H14.422C14.144 12.7775 14 11.4615 14 9.99951Z" fill="url(#paint0_radial)"/>
<path d="M31.918 17.9995C30.554 20.1015 28.474 21.8895 25.494 23.6015C25.036 23.8635 24.52 23.9995 24 23.9995C23.48 23.9995 22.964 23.8635 22.512 23.6055C19.532 21.8895 17.452 20.0995 16.086 17.9995H0V27.9995C0 29.1035 0.898 29.9995 2 29.9995H30C31.104 29.9995 32 29.1035 32 27.9995V17.9995H31.918ZM9 23.9995H5C4.448 23.9995 4 23.5515 4 22.9995C4 22.4475 4.448 21.9995 5 21.9995H9C9.552 21.9995 10 22.4475 10 22.9995C10 23.5515 9.552 23.9995 9 23.9995Z" fill="url(#paint1_radial)"/>
<path d="M31.394 5.08149L24.394 2.08149C24.14 1.97349 23.858 1.97349 23.604 2.08149L16.604 5.08149C16.238 5.23749 16 5.59949 16 5.99949V9.99949C16 15.5015 18.034 18.7175 23.502 21.8675C23.656 21.9555 23.828 21.9995 24 21.9995C24.172 21.9995 24.344 21.9555 24.498 21.8675C29.966 18.7255 32 15.5095 32 9.99949V5.99949C32 5.59949 31.762 5.23749 31.394 5.08149ZM27.782 9.62549L23.782 14.6255C23.59 14.8615 23.302 14.9995 23 14.9995C22.986 14.9995 22.97 14.9995 22.958 14.9995C22.64 14.9855 22.346 14.8215 22.168 14.5555L20.168 11.5555C19.862 11.0955 19.986 10.4755 20.446 10.1695C20.902 9.86549 21.524 9.98549 21.832 10.4475L23.074 12.3095L26.218 8.37749C26.564 7.94749 27.194 7.87949 27.624 8.22149C28.056 8.56349 28.124 9.19349 27.782 9.62549Z" fill="url(#paint2_radial)"/>
<defs>
<radialGradient id="paint0_radial" cx="0" cy="0" r="1" gradientUnits="userSpaceOnUse" gradientTransform="translate(3.66526 8.54612) rotate(35.2743) scale(9.22311 8.8977)">
<stop stop-color="white" stop-opacity="0.54"/>
<stop offset="1" stop-color="white" stop-opacity="0.18"/>
</radialGradient>
<radialGradient id="paint1_radial" cx="0" cy="0" r="1" gradientUnits="userSpaceOnUse" gradientTransform="translate(8.1326 19.0927) rotate(32.5217) scale(19.8143 18.3794)">
<stop stop-color="white" stop-opacity="0.54"/>
<stop offset="1" stop-color="white" stop-opacity="0.18"/>
</radialGradient>
<radialGradient id="paint2_radial" cx="0" cy="0" r="1" gradientUnits="userSpaceOnUse" gradientTransform="translate(20.0663 3.82243) rotate(64.8013) scale(19.6205 15.4667)">
<stop stop-color="white" stop-opacity="0.54"/>
<stop offset="1" stop-color="white" stop-opacity="0.18"/>
</radialGradient>
</defs>
</svg>
