<svg width="25" height="33" viewBox="0 0 25 33" fill="none" xmlns="http://www.w3.org/2000/svg">
<g filter="url(#filter0_b)">
<path d="M16.6667 0V2.75H20.2583L15.5375 7.42362C13.9139 6.2205 11.9056 5.5 9.72222 5.5C4.35278 5.5 0 9.80925 0 15.125C0 19.9732 3.62361 23.9718 8.33333 24.64V27.5H4.16667V30.25H8.33333V33H11.1111V30.25H15.2778V27.5H11.1111V24.64C15.8208 23.9718 19.4444 19.9719 19.4444 15.125C19.4444 12.9635 18.7167 10.9753 17.5014 9.36788L22.2222 4.69425V8.25H25V0H16.6667V0ZM9.72222 22C5.89306 22 2.77778 18.9159 2.77778 15.125C2.77778 11.3341 5.89306 8.25 9.72222 8.25C13.5514 8.25 16.6667 11.3341 16.6667 15.125C16.6667 18.9159 13.5514 22 9.72222 22Z" fill="url(#paint0_radial)"/>
<path d="M17.1667 2.25V0.5H24.5V7.75H22.7222V4.69425V3.49567L21.8704 4.33892L17.1496 9.01255L16.8387 9.32039L17.1026 9.66942C18.2558 11.1947 18.9444 13.0782 18.9444 15.125C18.9444 19.7146 15.5123 23.5105 11.0409 24.145L10.6111 24.2059V24.64V27.5V28H11.1111H14.7778V29.75H11.1111H10.6111V30.25V32.5H8.83333V30.25V29.75H8.33333H4.66667V28H8.33333H8.83333V27.5V24.64V24.2059L8.40357 24.145C3.93209 23.5105 0.5 19.716 0.5 15.125C0.5 10.0901 4.62417 6 9.72222 6C11.7935 6 13.6983 6.68307 15.2398 7.82535L15.5844 8.08073L15.8893 7.77895L20.6101 3.10533L21.4741 2.25H20.2583H17.1667ZM2.27778 15.125C2.27778 19.1967 5.62166 22.5 9.72222 22.5C13.8228 22.5 17.1667 19.1967 17.1667 15.125C17.1667 11.0533 13.8228 7.75 9.72222 7.75C5.62166 7.75 2.27778 11.0533 2.27778 15.125Z" stroke="url(#paint1_linear)"/>
</g>
<defs>
<filter id="filter0_b" x="-40" y="-40" width="105" height="113" filterUnits="userSpaceOnUse" color-interpolation-filters="sRGB">
<feFlood flood-opacity="0" result="BackgroundImageFix"/>
<feGaussianBlur in="BackgroundImage" stdDeviation="20"/>
<feComposite in2="SourceAlpha" operator="in" result="effect1_backgroundBlur"/>
<feBlend mode="normal" in="SourceGraphic" in2="effect1_backgroundBlur" result="shape"/>
</filter>
<radialGradient id="paint0_radial" cx="0" cy="0" r="1" gradientUnits="userSpaceOnUse" gradientTransform="translate(6.35359 3.00636) rotate(65.9841) scale(32.0708 24.3962)">
<stop stop-color="white" stop-opacity="0.4"/>
<stop offset="1" stop-color="white" stop-opacity="0"/>
</radialGradient>
<linearGradient id="paint1_linear" x1="19.4061" y1="0" x2="19.4061" y2="33" gradientUnits="userSpaceOnUse">
<stop stop-color="white" stop-opacity="0.4"/>
<stop offset="1" stop-color="white" stop-opacity="0.1"/>
</linearGradient>
</defs>
</svg>
