<svg width="22" height="22" viewBox="0 0 22 22" fill="none" xmlns="http://www.w3.org/2000/svg">
<g clip-path="url(#clip0)">
<path d="M11.0003 0C8.15549 0 5.85254 2.30296 5.85254 5.14778C5.85254 7.99261 8.15549 10.2956 11.0003 10.2956C13.8451 10.2956 16.1481 7.99261 16.1481 5.14778C16.1481 2.30296 13.8451 0 11.0003 0Z" fill="url(#paint0_radial)"/>
<path d="M13.0048 10.8917H8.99496C4.95801 10.8917 1.67969 14.17 1.67969 18.2069V21.1872C1.67969 21.6478 2.0319 22 2.4925 22H19.5073C19.9679 22 20.3201 21.6478 20.3201 21.1872V18.2069C20.3201 14.17 17.0418 10.8917 13.0048 10.8917Z" fill="url(#paint1_radial)"/>
</g>
<defs>
<radialGradient id="paint0_radial" cx="0" cy="0" r="1" gradientUnits="userSpaceOnUse" gradientTransform="translate(8.46909 0.937944) rotate(59.5385) scale(10.603 9.48088)">
<stop stop-color="white" stop-opacity="0.56"/>
<stop offset="1" stop-color="white" stop-opacity="0.21"/>
</radialGradient>
<radialGradient id="paint1_radial" cx="0" cy="0" r="1" gradientUnits="userSpaceOnUse" gradientTransform="translate(6.41703 11.9037) rotate(45.3769) scale(13.8548 14.1738)">
<stop stop-color="white" stop-opacity="0.56"/>
<stop offset="1" stop-color="white" stop-opacity="0.21"/>
</radialGradient>
<clipPath id="clip0">
<rect width="22" height="22" fill="white"/>
</clipPath>
</defs>
</svg>
