<svg width="292" height="285" viewBox="0 0 292 285" fill="none" xmlns="http://www.w3.org/2000/svg">
<path d="M129.005 39.7693L128.192 35.9543C128.066 35.3608 127.804 34.805 127.425 34.332C127.046 33.859 126.561 33.4821 126.01 33.2315C125.458 32.981 124.856 32.864 124.251 32.8899C123.646 32.9159 123.056 33.084 122.528 33.3808L122.503 33.3953C119.545 35.0935 118.003 65.7838 118.003 65.7838C118.003 65.7838 113.962 72.7656 114.221 73.9324C114.481 75.0992 120.33 77.6903 120.886 76.4342C121.441 75.1782 125.478 71.2458 125.317 69.2288C125.157 67.2118 122.827 65.555 122.827 65.555C122.827 65.555 127.691 44.8947 129.005 39.7693Z" fill="url(#paint0_linear)"/>
<path opacity="0.1" d="M129.005 39.7693L128.192 35.9543C128.066 35.3608 127.804 34.805 127.425 34.332C127.046 33.859 126.561 33.4821 126.01 33.2315C125.458 32.981 124.856 32.864 124.251 32.8899C123.646 32.9159 123.056 33.084 122.528 33.3808L122.503 33.3953C119.545 35.0935 118.003 65.7838 118.003 65.7838C118.003 65.7838 113.962 72.7656 114.221 73.9324C114.481 75.0992 120.33 77.6903 120.886 76.4342C121.441 75.1782 125.478 71.2458 125.317 69.2288C125.157 67.2118 122.827 65.555 122.827 65.555C122.827 65.555 127.691 44.8947 129.005 39.7693Z" fill="url(#paint1_linear)"/>
<path d="M131.658 56.985L126.178 50.0235C126.178 50.0235 123.859 43.3612 129.716 41.1317L134.482 41.75L131.658 56.985Z" fill="url(#paint2_linear)"/>
<path opacity="0.5" d="M131.658 56.985L126.178 50.0235C126.178 50.0235 123.859 43.3612 129.716 41.1317L134.482 41.75L131.658 56.985Z" fill="url(#paint3_linear)"/>
<path d="M246.535 121.044L245.516 127.459L230.603 125.625L231.623 119.202L246.535 121.044Z" fill="url(#paint4_linear)"/>
<path d="M245.157 127.819L241.802 120.679C241.748 120.562 241.735 120.43 241.765 120.304C241.796 120.179 241.868 120.067 241.97 119.988L246.648 116.365C246.85 116.212 247.105 116.146 247.356 116.181C247.607 116.215 247.834 116.348 247.988 116.55C248.03 116.607 248.067 116.667 248.096 116.732C249.144 119.059 249.792 120.809 251.155 123.71C251.995 125.497 254.714 130.799 255.874 133.268C257.034 135.738 254.751 137.205 254.054 136.301C250.941 132.235 247.974 129.471 245.994 128.633C245.621 128.479 245.321 128.188 245.157 127.819Z" fill="#484D58"/>
<path d="M247.1 129.277C247.319 129.662 247.401 130.11 247.331 130.547C247.293 130.697 247.217 130.836 247.111 130.948C247.004 131.061 246.871 131.144 246.723 131.191C246.643 131.231 246.552 131.247 246.463 131.237C246.374 131.227 246.29 131.192 246.22 131.134C245.579 130.642 245.85 128.195 245.887 127.921C245.888 127.892 245.898 127.863 245.917 127.839C245.935 127.816 245.961 127.799 245.989 127.791C246.019 127.782 246.05 127.781 246.08 127.789C246.11 127.797 246.137 127.814 246.158 127.837C246.524 128.281 246.84 128.764 247.1 129.277ZM246.294 130.725C246.318 130.79 246.361 130.846 246.416 130.888C246.433 130.925 246.51 130.945 246.622 130.9C246.72 130.868 246.809 130.813 246.88 130.739C246.952 130.666 247.005 130.575 247.034 130.477C247.023 129.677 246.709 128.911 246.155 128.334C246.05 129.133 246.099 129.944 246.298 130.725L246.294 130.725Z" fill="url(#paint5_linear)"/>
<path d="M246.182 127.875L246.213 127.942C246.169 128.703 245.43 130.486 244.755 130.658C244.642 130.687 244.522 130.674 244.417 130.624C244.312 130.574 244.228 130.489 244.179 130.383C244.115 130.284 244.073 130.172 244.056 130.056C244.039 129.939 244.047 129.821 244.08 129.708C244.312 128.766 245.931 127.829 246.01 127.783C246.035 127.771 246.062 127.765 246.09 127.766C246.118 127.767 246.145 127.775 246.168 127.79C246.181 127.816 246.186 127.846 246.182 127.875ZM244.357 130.179L244.388 130.247C244.472 130.426 244.583 130.392 244.625 130.382C245.041 130.277 245.666 129.068 245.837 128.248C245.187 128.603 244.661 129.147 244.329 129.809C244.294 129.931 244.306 130.062 244.36 130.177L244.357 130.179Z" fill="url(#paint6_linear)"/>
<path opacity="0.2" d="M231.63 119.203L230.61 125.625L238.301 126.568L239.321 120.145L231.63 119.203Z" fill="black"/>
<path d="M238.39 118.819L235.296 127.625C235.296 127.625 200.926 127.069 191.597 116.129C184.656 107.997 179.451 91.4394 177.239 83.4746C176.472 80.7221 176.064 78.9989 176.064 78.9989L168.296 62.8427L198.612 59.8678C198.612 59.8678 196.878 78.8118 198.664 92.6765C199.372 98.1452 200.621 102.818 202.746 105.231C210.254 113.766 238.39 118.819 238.39 118.819Z" fill="#4D6BA0"/>
<path opacity="0.2" d="M198.612 59.8678C198.612 59.8678 196.878 78.8118 198.664 92.6765C195.485 89.6659 192.958 86.0323 191.239 82.0016C187.454 83.3443 181.57 83.5469 177.239 83.4746C176.472 80.7221 176.064 78.9989 176.064 78.9989L168.296 62.8427L198.612 59.8678Z" fill="black"/>
<path d="M284.32 115.042L280.991 120.615L267.834 113.347L271.167 107.767L284.32 115.042Z" fill="url(#paint7_linear)"/>
<path d="M280.522 120.813L280.062 112.934C280.055 112.805 280.092 112.677 280.166 112.572C280.241 112.467 280.35 112.39 280.474 112.355L286.161 110.738C286.406 110.672 286.667 110.705 286.887 110.831C287.107 110.957 287.268 111.164 287.336 111.409C287.354 111.478 287.366 111.548 287.369 111.619C287.476 114.17 287.429 116.036 287.616 119.236C287.731 121.208 288.284 127.144 288.444 129.867C288.603 132.589 285.94 133.101 285.629 132.001C284.25 127.066 282.524 123.393 280.998 121.877C280.709 121.597 280.539 121.216 280.522 120.813Z" fill="#484D58"/>
<path d="M281.783 122.891C281.844 123.329 281.754 123.776 281.527 124.156C281.436 124.281 281.314 124.381 281.173 124.446C281.032 124.511 280.877 124.538 280.722 124.526C280.633 124.534 280.544 124.515 280.465 124.472C280.387 124.43 280.322 124.365 280.279 124.287C279.867 123.591 281.029 121.423 281.163 121.18C281.175 121.153 281.196 121.13 281.222 121.115C281.248 121.1 281.279 121.094 281.309 121.098C281.34 121.1 281.369 121.112 281.394 121.131C281.418 121.15 281.437 121.175 281.447 121.205C281.621 121.753 281.734 122.318 281.783 122.891ZM280.498 123.934C280.496 124.003 280.515 124.072 280.551 124.13C280.553 124.172 280.613 124.218 280.738 124.218C280.84 124.225 280.943 124.207 281.037 124.166C281.131 124.124 281.213 124.061 281.277 123.98C281.563 123.233 281.556 122.405 281.257 121.663C280.862 122.365 280.604 123.136 280.498 123.934Z" fill="url(#paint8_linear)"/>
<path d="M281.456 121.246L281.461 121.321C281.138 122.01 279.789 123.388 279.099 123.301C278.983 123.284 278.877 123.228 278.798 123.142C278.719 123.056 278.673 122.946 278.666 122.829C278.645 122.713 278.647 122.595 278.675 122.48C278.702 122.366 278.754 122.259 278.826 122.166C279.394 121.379 281.243 121.113 281.332 121.1C281.36 121.098 281.388 121.103 281.413 121.115C281.438 121.126 281.46 121.144 281.477 121.166C281.478 121.194 281.471 121.222 281.456 121.246ZM278.906 122.704L278.91 122.779C278.921 122.976 279.036 122.986 279.079 122.988C279.504 123.045 280.536 122.157 280.997 121.459C280.262 121.546 279.571 121.855 279.016 122.345C278.937 122.447 278.898 122.575 278.907 122.704L278.906 122.704Z" fill="url(#paint9_linear)"/>
<path opacity="0.2" d="M271.17 107.768L267.837 113.348L274.625 117.092L277.958 111.512L271.17 107.768Z" fill="url(#paint10_linear)"/>
<path d="M275.789 108.348L269.982 117.538C269.982 117.538 237.175 105.603 224.493 96.1513C219.119 92.1484 198.406 73.479 193.456 69.0086C192.768 68.3859 192.384 68.042 192.384 68.042L169.592 57.6826L179.135 32.1923C179.135 32.1923 185.802 32.674 194.154 37.4567C195.391 38.1586 196.665 38.9591 197.963 39.8693C202.968 43.4193 207.337 47.7946 210.882 52.8091C211.81 54.0934 212.714 55.4618 213.596 56.9143C232.925 88.7671 275.789 108.348 275.789 108.348Z" fill="#4D6BA0"/>
<path d="M129.58 52.9933C129.58 52.9933 133.931 39.7689 155.486 33.2745C177.041 26.7802 196.824 36.0673 196.824 36.0673C196.824 36.0673 207.035 62.6132 186.485 74.9754C179.07 79.4367 169.12 76.9082 169.12 76.9082L165.182 68.1216C165.182 68.1216 134.095 61.0822 129.58 52.9933Z" fill="#407BFF"/>
<path opacity="0.8" d="M199.341 51.9371C199.179 57.5429 197.741 63.7577 193.456 69.0088C191.499 71.3902 189.14 73.4091 186.487 74.9737C179.068 79.4376 169.119 76.9057 169.119 76.9057L165.179 68.1227C165.179 68.1227 134.093 61.0789 129.582 52.9917C129.582 52.9917 133.934 39.7712 155.487 33.2731C177.04 26.775 196.825 36.0658 196.825 36.0658C196.825 36.0658 196.885 36.2332 196.993 36.5461C197.205 37.1561 197.582 38.3125 197.963 39.8695C198.969 43.8102 199.433 47.8704 199.341 51.9371Z" fill="url(#paint11_linear)"/>
<path d="M177.151 26.2087C177.151 26.2087 192.367 15.2194 196.017 13.2246C199.668 11.2297 232.471 29.2307 232.471 29.2307C232.471 29.2307 242.291 29.4823 243.335 30.4976C244.378 31.513 243.329 39.2594 241.672 39.0339C240.016 38.8083 233.359 40.503 231.375 39.0451C229.391 37.5871 229.156 34.1039 229.156 34.1039C229.156 34.1039 198.875 24.0662 197.155 23.6782C195.915 23.3981 182.296 34.8059 182.296 34.8059L177.151 26.2087Z" fill="url(#paint12_linear)"/>
<path opacity="0.2" d="M210.882 52.8091C207.023 52.7256 203.17 52.4344 199.342 51.9369C181.515 49.5676 175.758 43.3446 175.758 43.3446L194.155 37.4566L196.993 36.5458C197.205 37.1559 197.582 38.3122 197.963 39.8692C202.969 43.4192 207.337 47.7946 210.882 52.8091Z" fill="black"/>
<path d="M147.376 52.6614C145.992 53.2193 144.483 53.3932 143.009 53.1645C138.414 52.4859 135 48.3765 135 48.3765C134.861 42.2379 140.253 38.7455 145.21 37.3083C147.297 36.6299 149.5 36.3874 151.684 36.5959C156.126 37.3269 153.998 50.0232 147.376 52.6614Z" fill="url(#paint13_linear)"/>
<path opacity="0.2" d="M143.007 53.1637C138.412 52.485 134.998 48.3756 134.998 48.3756C134.859 42.237 140.251 38.7447 145.208 37.3074C146.677 40.5911 148.534 47.3025 143.007 53.1637Z" fill="black"/>
<path d="M134.349 52.0202C135.495 55.9883 144.644 62.6618 155.989 65.7214C155.989 65.7214 142.646 66.1256 134.556 59.5926C126.466 53.0596 128.309 50.1974 133.189 46.777L134.349 52.0202Z" fill="url(#paint14_linear)"/>
<path opacity="0.4" d="M134.349 52.0202C135.495 55.9883 144.644 62.6618 155.989 65.7214C155.989 65.7214 142.646 66.1256 134.556 59.5926C126.466 53.0596 128.309 50.1974 133.189 46.777L134.349 52.0202Z" fill="url(#paint15_linear)"/>
<path d="M144.666 36.5479C153.557 33.8876 153.408 37.5686 159.245 42.2415C171.138 51.7611 221.443 39.309 221.443 39.309C221.443 39.309 207.998 27.4493 190.278 26.2458C172.558 25.0424 144.666 36.5479 144.666 36.5479Z" fill="url(#paint16_linear)"/>
<path opacity="0.4" d="M144.666 36.5479C153.557 33.8876 153.408 37.5686 159.245 42.2415C171.138 51.7611 221.443 39.309 221.443 39.309C221.443 39.309 207.998 27.4493 190.278 26.2458C172.558 25.0424 144.666 36.5479 144.666 36.5479Z" fill="url(#paint17_linear)"/>
<path d="M128.938 53.179C128.938 53.179 126.934 44.2119 138.285 36.7779C149.636 29.3439 163.105 38.5007 163.105 38.5007L158.406 39.0625L159.247 42.2415C159.247 42.2415 150.1 37.7273 142.941 39.9414C135.782 42.1556 134.351 52.0212 134.351 52.0212L130.569 49.5897L128.938 53.179Z" fill="url(#paint18_linear)"/>
<path opacity="0.5" d="M128.938 53.179C128.938 53.179 126.934 44.2119 138.285 36.7779C149.636 29.3439 163.105 38.5007 163.105 38.5007L158.406 39.0625L159.247 42.2415C159.247 42.2415 150.1 37.7273 142.941 39.9414C135.782 42.1556 134.351 52.0212 134.351 52.0212L130.569 49.5897L128.938 53.179Z" fill="url(#paint19_linear)"/>
<path d="M124.123 29.5672C124.123 29.5672 124.425 38.6176 129.716 41.1317C135.006 43.6458 131.959 27.2631 131.959 27.2631L124.123 29.5672Z" fill="#484D58"/>
<path d="M144.549 45.5987C143.841 47.2298 142.618 48.5831 141.069 49.4511C139.52 50.319 137.73 50.6536 135.972 50.4036C133.694 50.1225 131.607 48.9823 130.137 47.2148C129.931 46.9695 129.738 46.7136 129.558 46.4481C126.265 41.5002 123.785 32.2277 128.804 27.642C129.907 26.6238 131.253 25.9056 132.711 25.5555C134.17 25.2054 135.694 25.2352 137.138 25.6419C138.583 26.0487 139.899 26.8189 140.962 27.8794C142.026 28.9398 142.8 30.2553 143.213 31.7006C145.08 37.8584 146.467 41.3899 144.549 45.5987Z" fill="url(#paint20_linear)"/>
<path d="M134.692 36.7688C134.905 37.2434 134.762 37.7516 134.436 37.8714C134.11 37.9911 133.71 37.6829 133.526 37.1945C133.343 36.7061 133.462 36.2087 133.782 36.092C134.101 35.9753 134.505 36.2722 134.692 36.7688Z" fill="#484D58"/>
<path d="M129.147 38.8189C129.361 39.2933 129.211 39.8047 128.891 39.9214C128.572 40.0381 128.164 39.7329 127.981 39.2446C127.798 38.7562 127.918 38.2585 128.237 38.142C128.555 38.0255 128.973 38.3505 129.147 38.8189Z" fill="#484D58"/>
<path d="M130.998 38.4085C130.966 40.1283 130.697 41.8354 130.199 43.4813C130.625 43.5986 131.073 43.6208 131.509 43.5463C131.945 43.4718 132.359 43.3024 132.723 43.0499L130.998 38.4085Z" fill="#FFBCB0"/>
<path d="M135.75 34.333C135.7 34.3595 135.644 34.3722 135.587 34.3699C135.531 34.3676 135.476 34.3504 135.428 34.3199C135.109 34.1044 134.744 33.9664 134.362 33.9169C133.981 33.8673 133.593 33.9076 133.229 34.0345C133.193 34.0511 133.153 34.0603 133.113 34.0616C133.073 34.0629 133.033 34.0564 132.996 34.0422C132.958 34.0281 132.924 34.0068 132.895 33.9793C132.866 33.9519 132.842 33.919 132.826 33.8825C132.809 33.8459 132.8 33.8065 132.798 33.7664C132.797 33.7263 132.804 33.6863 132.818 33.6488C132.832 33.6112 132.853 33.5768 132.881 33.5475C132.908 33.5182 132.941 33.4946 132.977 33.4781C133.432 33.3056 133.922 33.2451 134.405 33.3014C134.888 33.3578 135.351 33.5294 135.755 33.8019C135.789 33.8226 135.819 33.8498 135.843 33.8821C135.866 33.9144 135.884 33.951 135.893 33.9899C135.903 34.0289 135.905 34.0694 135.899 34.1091C135.893 34.1487 135.879 34.1869 135.859 34.2212L135.855 34.2277C135.826 34.268 135.79 34.3035 135.75 34.333Z" fill="#484D58"/>
<path d="M126.059 37.783C126.013 37.8249 125.955 37.8511 125.894 37.8578C125.854 37.8545 125.815 37.8434 125.779 37.8251C125.744 37.8067 125.712 37.7815 125.686 37.7509C125.66 37.7202 125.641 37.6848 125.629 37.6466C125.617 37.6083 125.612 37.5681 125.616 37.5282L125.614 37.5219C125.651 37.0342 125.805 36.5626 126.062 36.1469C126.319 35.7311 126.672 35.3834 127.091 35.1331C127.126 35.1145 127.165 35.1032 127.205 35.0997C127.245 35.0963 127.285 35.1007 127.323 35.1129C127.362 35.125 127.397 35.1446 127.428 35.1705C127.458 35.1964 127.484 35.2281 127.502 35.2638C127.537 35.3363 127.543 35.4195 127.519 35.4962C127.494 35.573 127.441 35.6374 127.371 35.6761C127.046 35.8837 126.773 36.1645 126.575 36.4961C126.377 36.8278 126.259 37.2012 126.231 37.5866C126.218 37.6298 126.196 37.6697 126.166 37.7036C126.137 37.7375 126.1 37.7646 126.059 37.783Z" fill="#484D58"/>
<path d="M136.022 25.8036L136.545 28.6124C137.069 28.687 137.547 28.9567 137.882 29.3678C138.218 29.779 138.386 30.3016 138.355 30.8318C138.2 33.3825 140.599 36.5032 142.784 37.3595C142.784 37.3595 142.528 36.3567 143.431 36.3279C144.335 36.2991 146.269 40.8188 146.269 40.8188C146.269 40.8188 148.258 39.6638 147.944 33.8381C147.652 28.45 144.867 26.0582 143.239 24.4553L136.022 25.8036Z" fill="#484D58"/>
<path d="M132.787 44.6928C133.28 45.3101 133.728 45.9626 134.127 46.645C134.257 46.5967 134.388 46.5481 134.515 46.493C136.269 45.79 136.852 44.8869 136.966 44.0956C137.013 43.708 136.967 43.3147 136.832 42.9486C136.762 42.7384 136.663 42.5389 136.538 42.3561C135.647 43.2703 134.57 43.9821 133.381 44.4435C133.021 44.6076 132.787 44.6928 132.787 44.6928Z" fill="#484D58"/>
<path d="M133.381 44.4442L133.791 45.0117C135.441 44.3481 136.515 43.6587 136.832 42.9509C136.762 42.7406 136.663 42.5412 136.538 42.3584C135.647 43.272 134.57 43.9832 133.381 44.4442Z" fill="white"/>
<path d="M134.515 46.4932C136.268 45.7902 136.852 44.8871 136.966 44.0958C136.303 44.3747 135.695 44.7692 135.17 45.2609C134.829 45.593 134.6 46.0239 134.515 46.4932Z" fill="#ED827E"/>
<path d="M136.544 28.6124C134.377 28.5774 129.386 29.958 126.166 32.6069C126.166 32.6069 124.481 32.8194 122.857 29.3533C121.233 25.8873 123.277 23.4466 124.115 23.749C124.953 24.0514 123.439 25.0627 123.586 26.0997C123.586 26.0997 127.505 23.3624 127.563 20.8366C127.62 18.3108 129.168 17.2052 130.095 17.9802C131.021 18.7552 128.797 21.8422 128.797 21.8422C128.797 21.8422 131.932 21.2907 133.074 18.5671C134.216 15.8436 136.715 14.1289 137.614 14.9337C138.512 15.7384 135.192 17.2709 134.494 18.6754C134.494 18.6754 139.364 15.5354 141.966 16.5843C144.568 17.6331 144.244 18.4102 142.57 18.3877C141.331 18.5022 140.154 18.9845 139.191 19.7729C139.191 19.7729 143.245 18.9124 145.123 20.2875C147 21.6626 148.555 20.3302 149.166 21.1573C149.776 21.9843 146.602 22.9669 146.602 22.9669C146.602 22.9669 148.729 24.0911 150.552 23.061C152.376 22.0308 153.668 24.8953 148.862 24.9852C148.862 24.9852 149.64 28.0629 151.411 28.1262C153.182 28.1894 152.761 29.6699 151.511 29.6721C150.261 29.6743 148.813 28.335 148.813 28.335C148.813 28.335 151.591 31.3983 150.979 32.8165C150.366 34.2347 149.039 31.5055 149.039 31.5055C149.039 31.5055 150.971 35.7872 150.347 36.1641C149.722 36.5411 148.552 35.0326 148.552 35.0326C148.552 35.0326 150.177 37.97 149.003 38.7866C148.061 39.3371 147.017 39.6878 145.934 39.8172C145.934 39.8172 140.377 28.6744 136.544 28.6124Z" fill="#484D58"/>
<path d="M147.667 35.6774C147.502 37.2903 146.705 38.7716 145.451 39.7967C143.782 41.1414 142.106 39.8467 141.86 37.8258C141.659 36.0279 142.255 33.1099 144.281 32.5705C146.307 32.0311 147.846 33.6943 147.667 35.6774Z" fill="url(#paint21_linear)"/>
<path d="M165.938 29.6407C165.938 29.6407 167.299 39.818 180.139 40.1302L194.06 28.8183L187.83 18.0506L165.938 29.6407Z" fill="url(#paint22_linear)"/>
<path opacity="0.5" d="M165.938 29.6407C165.938 29.6407 167.299 39.818 180.139 40.1302L194.06 28.8183L187.83 18.0506L165.938 29.6407Z" fill="url(#paint23_linear)"/>
<path d="M187.438 193.263C187.433 169.963 178.564 147.541 162.637 130.563C146.71 113.585 124.923 103.329 101.713 101.883C78.5029 100.437 55.6155 107.91 37.7121 122.78C19.8087 137.651 8.23591 158.799 5.35063 181.92C3.09758 200.01 6.2854 218.362 14.5058 234.625C23.7792 253.006 38.9669 267.717 57.615 276.382C76.263 285.046 97.282 287.158 117.276 282.376C137.27 277.594 155.07 266.197 167.801 250.027C180.532 233.857 187.451 213.859 187.438 193.263Z" fill="url(#paint24_linear)"/>
<path d="M179.595 230.434C135.421 253.15 120.274 243.623 73.0773 226.769C46.1032 217.126 26.4143 225.597 14.5049 234.626C22.316 250.082 34.3421 263.001 49.187 271.884C64.032 280.767 81.0871 285.249 98.3723 284.81C115.658 284.371 132.464 279.029 146.841 269.404C161.218 259.779 172.575 246.266 179.595 230.434Z" fill="url(#paint25_linear)"/>
<path d="M183.925 167.969C178.104 147.691 165.476 130.048 148.172 118.022C130.869 105.996 109.953 100.324 88.9579 101.964C67.963 103.604 48.177 112.456 32.9433 127.024C17.7096 141.592 7.96252 160.983 5.34912 181.919C13.3863 174.324 22.8969 168.467 33.2897 164.712C43.6825 160.957 54.7352 159.384 65.7605 160.092C113.799 162.922 150.719 196.928 183.925 167.969Z" fill="url(#paint26_linear)"/>
<ellipse rx="4.64722" ry="4.65741" transform="matrix(-1 0 0 1 226.165 215.017)" fill="url(#paint27_linear)"/>
<path d="M12.7797 90.8194C5.7216 90.8194 -0.000120163 85.0852 -0.000120163 78.0116C-0.000120163 70.938 5.7216 65.2037 12.7797 65.2037C19.8378 65.2037 25.5596 70.938 25.5596 78.0116C25.5596 85.0852 19.8378 90.8194 12.7797 90.8194Z" fill="url(#paint28_linear)"/>
<defs>
<linearGradient id="paint0_linear" x1="116.833" y1="34.4224" x2="125.652" y2="75.6217" gradientUnits="userSpaceOnUse">
<stop offset="0.0625" stop-color="#FFC19E"/>
<stop offset="1" stop-color="white"/>
</linearGradient>
<linearGradient id="paint1_linear" x1="126.18" y1="22.1765" x2="109.701" y2="101.387" gradientUnits="userSpaceOnUse">
<stop offset="0.0625" stop-color="#FFC19E"/>
<stop offset="1" stop-color="white"/>
</linearGradient>
<linearGradient id="paint2_linear" x1="127.687" y1="43.8551" x2="138.423" y2="51.7568" gradientUnits="userSpaceOnUse">
<stop stop-color="#EF8197"/>
<stop offset="0.942708" stop-color="#F7C58F"/>
</linearGradient>
<linearGradient id="paint3_linear" x1="127.687" y1="43.8551" x2="138.423" y2="51.7568" gradientUnits="userSpaceOnUse">
<stop stop-color="#EF8197"/>
<stop offset="0.942708" stop-color="#F7C58F"/>
</linearGradient>
<linearGradient id="paint4_linear" x1="238.342" y1="120.984" x2="239.719" y2="128.701" gradientUnits="userSpaceOnUse">
<stop offset="0.0625" stop-color="#FFC19E"/>
<stop offset="1" stop-color="white"/>
</linearGradient>
<linearGradient id="paint5_linear" x1="246.095" y1="127.768" x2="246.826" y2="131.184" gradientUnits="userSpaceOnUse">
<stop offset="0.0625" stop-color="#FFC19E"/>
<stop offset="1" stop-color="white"/>
</linearGradient>
<linearGradient id="paint6_linear" x1="244.923" y1="128.01" x2="245.458" y2="130.508" gradientUnits="userSpaceOnUse">
<stop offset="0.0625" stop-color="#FFC19E"/>
<stop offset="1" stop-color="white"/>
</linearGradient>
<linearGradient id="paint7_linear" x1="274.552" y1="107.042" x2="277.613" y2="121.338" gradientUnits="userSpaceOnUse">
<stop offset="0.0625" stop-color="#FFC19E"/>
<stop offset="1" stop-color="white"/>
</linearGradient>
<linearGradient id="paint8_linear" x1="280.549" y1="121.252" x2="281.235" y2="124.455" gradientUnits="userSpaceOnUse">
<stop offset="0.0625" stop-color="#FFC19E"/>
<stop offset="1" stop-color="white"/>
</linearGradient>
<linearGradient id="paint9_linear" x1="279.938" y1="121.384" x2="280.3" y2="123.076" gradientUnits="userSpaceOnUse">
<stop offset="0.0625" stop-color="#FFC19E"/>
<stop offset="1" stop-color="white"/>
</linearGradient>
<linearGradient id="paint10_linear" x1="275.974" y1="111.959" x2="274.338" y2="117.658" gradientUnits="userSpaceOnUse">
<stop offset="0.0625" stop-color="#FFC19E"/>
<stop offset="1" stop-color="white"/>
</linearGradient>
<linearGradient id="paint11_linear" x1="160.71" y1="31.975" x2="170.832" y2="79.2618" gradientUnits="userSpaceOnUse">
<stop stop-color="#3B3E89"/>
<stop offset="1" stop-color="#262859"/>
</linearGradient>
<linearGradient id="paint12_linear" x1="208.186" y1="27.2482" x2="210.656" y2="20.5487" gradientUnits="userSpaceOnUse">
<stop offset="0.0625" stop-color="#FFC19E"/>
<stop offset="1" stop-color="white"/>
</linearGradient>
<linearGradient id="paint13_linear" x1="141.245" y1="45.4553" x2="151.74" y2="49.098" gradientUnits="userSpaceOnUse">
<stop offset="0.0625" stop-color="#FFC19E"/>
<stop offset="1" stop-color="white"/>
</linearGradient>
<linearGradient id="paint14_linear" x1="135.256" y1="49.6864" x2="150.181" y2="67.0966" gradientUnits="userSpaceOnUse">
<stop stop-color="#EF8197"/>
<stop offset="0.942708" stop-color="#F7C58F"/>
</linearGradient>
<linearGradient id="paint15_linear" x1="135.256" y1="49.6864" x2="150.181" y2="67.0966" gradientUnits="userSpaceOnUse">
<stop stop-color="#EF8197"/>
<stop offset="0.942708" stop-color="#F7C58F"/>
</linearGradient>
<linearGradient id="paint16_linear" x1="165.419" y1="32.5596" x2="173.95" y2="54.678" gradientUnits="userSpaceOnUse">
<stop stop-color="#EF8197"/>
<stop offset="0.942708" stop-color="#F7C58F"/>
</linearGradient>
<linearGradient id="paint17_linear" x1="165.419" y1="32.5596" x2="173.95" y2="54.678" gradientUnits="userSpaceOnUse">
<stop stop-color="#EF8197"/>
<stop offset="0.942708" stop-color="#F7C58F"/>
</linearGradient>
<linearGradient id="paint18_linear" x1="136.316" y1="38.1793" x2="143.386" y2="53.2815" gradientUnits="userSpaceOnUse">
<stop stop-color="#EF8197"/>
<stop offset="0.942708" stop-color="#F7C58F"/>
</linearGradient>
<linearGradient id="paint19_linear" x1="136.316" y1="38.1793" x2="143.386" y2="53.2815" gradientUnits="userSpaceOnUse">
<stop stop-color="#EF8197"/>
<stop offset="0.942708" stop-color="#F7C58F"/>
</linearGradient>
<linearGradient id="paint20_linear" x1="153.002" y1="42.8277" x2="128.396" y2="42.9404" gradientUnits="userSpaceOnUse">
<stop offset="0.0625" stop-color="#FFC19E"/>
<stop offset="1" stop-color="white"/>
</linearGradient>
<linearGradient id="paint21_linear" x1="143.002" y1="31.1078" x2="145.551" y2="40.068" gradientUnits="userSpaceOnUse">
<stop offset="0.0625" stop-color="#FFC19E"/>
<stop offset="1" stop-color="white"/>
</linearGradient>
<linearGradient id="paint22_linear" x1="172.783" y1="24.1462" x2="184.349" y2="41.4336" gradientUnits="userSpaceOnUse">
<stop stop-color="#EF8197"/>
<stop offset="0.942708" stop-color="#F7C58F"/>
</linearGradient>
<linearGradient id="paint23_linear" x1="172.783" y1="24.1462" x2="184.349" y2="41.4336" gradientUnits="userSpaceOnUse">
<stop stop-color="#EF8197"/>
<stop offset="0.942708" stop-color="#F7C58F"/>
</linearGradient>
<linearGradient id="paint24_linear" x1="56.4775" y1="259.107" x2="143.402" y2="101.86" gradientUnits="userSpaceOnUse">
<stop stop-color="#EF8197"/>
<stop offset="0.942708" stop-color="#F7C58F"/>
</linearGradient>
<linearGradient id="paint25_linear" x1="61.3162" y1="276.069" x2="75.2652" y2="209.104" gradientUnits="userSpaceOnUse">
<stop stop-color="#EF8197"/>
<stop offset="0.942708" stop-color="#F7C58F"/>
</linearGradient>
<linearGradient id="paint26_linear" x1="55.9843" y1="170.631" x2="76.9818" y2="85.9109" gradientUnits="userSpaceOnUse">
<stop stop-color="#EF8197"/>
<stop offset="0.942708" stop-color="#F7C58F"/>
</linearGradient>
<linearGradient id="paint27_linear" x1="2.63543" y1="1.31053" x2="7.05605" y2="9.30662" gradientUnits="userSpaceOnUse">
<stop stop-color="#8177F7"/>
<stop offset="1" stop-color="#799FF8"/>
</linearGradient>
<linearGradient id="paint28_linear" x1="7.89331" y1="90.8194" x2="12.3082" y2="65.9428" gradientUnits="userSpaceOnUse">
<stop stop-color="#675AFF"/>
<stop offset="0.586458" stop-color="#C9D9FF"/>
</linearGradient>
</defs>
</svg>
