<svg width="22" height="22" viewBox="0 0 22 22" fill="none" xmlns="http://www.w3.org/2000/svg">
<mask id="path-1-inside-1" fill="white">
<path fill-rule="evenodd" clip-rule="evenodd" d="M0 5C0 2.23858 2.23858 0 5 0H17C19.7614 0 22 2.23858 22 5V17C22 19.7614 19.7614 22 17 22H5C2.23858 22 0 19.7614 0 17V5ZM14.8893 12.5185L14.8484 12.4972C14.8484 12.4972 14.8484 12.4972 14.8484 12.4972C14.8484 12.4972 14.8484 12.4972 14.8484 12.4972C14.6301 12.3834 13.6175 11.8556 13.422 11.7807C13.3337 11.7469 13.239 11.714 13.1383 11.714C12.9738 11.714 12.8356 11.8012 12.728 11.9725C12.6063 12.165 12.2379 12.6231 12.1241 12.76C12.1092 12.7781 12.0889 12.7997 12.0768 12.7997C12.0658 12.7997 11.8773 12.717 11.8202 12.6907C10.5134 12.0867 9.52147 10.6343 9.38546 10.3894C9.36791 10.3576 9.36555 10.3414 9.36514 10.3386C9.36509 10.3383 9.36509 10.338 9.36517 10.3377C9.37049 10.3188 9.41395 10.2725 9.43646 10.2485C9.50273 10.1787 9.57453 10.0868 9.64401 9.9978L9.64405 9.99775L9.64425 9.99748C9.67718 9.95529 9.71017 9.91303 9.74256 9.8732C9.84337 9.74841 9.88831 9.65151 9.94032 9.53932L9.94033 9.53931L9.94048 9.53898L9.96777 9.48062C10.0949 9.2118 9.98633 8.98494 9.95122 8.91169C9.92933 8.8651 9.62699 8.09106 9.4591 7.66125L9.35334 7.39077C9.22183 7.05591 9.04805 6.9 8.80656 6.9L8.79481 6.90009C8.7926 6.90016 8.79039 6.90029 8.78642 6.90052C8.77748 6.90105 8.75959 6.9021 8.71259 6.90421C8.59817 6.90935 7.97506 6.99663 7.69955 7.1814C7.40739 7.37738 6.91313 8.00207 6.91313 9.10068C6.91313 10.0894 7.50288 11.023 7.75609 11.3781C7.76132 11.3855 7.77021 11.3994 7.78271 11.4189L7.7907 11.4313C8.76039 12.938 9.96924 14.0546 11.1947 14.5755C12.3744 15.0769 12.9331 15.1348 13.2507 15.1348H13.2508C13.3842 15.1348 13.4911 15.1237 13.5853 15.1138L13.6451 15.1078C14.0526 15.0693 14.9483 14.5755 15.152 13.9732C15.3125 13.4987 15.3548 12.9804 15.248 12.7923C15.1749 12.6644 15.0489 12.6 14.8894 12.5185C14.8894 12.5185 14.8894 12.5185 14.8894 12.5185C14.8894 12.5185 14.8894 12.5185 14.8894 12.5185L14.8893 12.5185ZM2.82057 10.9692C2.82057 6.19026 6.5025 2.30229 11.0282 2.30229C15.5535 2.30229 19.2351 6.19026 19.2351 10.9692C19.2351 15.7476 15.5535 19.6352 11.0282 19.6351C10.4188 19.6351 9.81262 19.5633 9.22222 19.4231C7.83473 19.0937 6.37076 18.8658 5.01982 19.3225L2.80738 20.0705C2.78579 20.0779 2.76365 20.0814 2.74168 20.0814C2.68433 20.0814 2.62818 20.0571 2.58678 20.0122C2.52944 19.9501 2.5099 19.8589 2.53616 19.7764L3.28968 17.4115C3.70841 16.0973 3.49594 14.6853 3.13606 13.3539C2.92771 12.583 2.82057 11.7806 2.82057 10.9692ZM7.45086 16.6951C8.51415 17.4374 9.75109 17.8298 11.0282 17.8298C14.6125 17.8298 17.5285 14.7522 17.5285 10.9692C17.5285 7.18577 14.6124 4.10768 11.0281 4.10768C7.44343 4.10768 4.52703 7.18577 4.52703 10.9692C4.52703 12.4234 4.95505 13.8141 5.76474 14.9912C5.80652 15.052 5.81786 15.1305 5.79518 15.2018C5.50663 16.1075 6.36561 16.9727 7.26607 16.6681C7.28761 16.6609 7.30975 16.6573 7.33183 16.6573C7.37361 16.6573 7.41511 16.6701 7.45086 16.6951Z"/>
</mask>
<path fill-rule="evenodd" clip-rule="evenodd" d="M0 5C0 2.23858 2.23858 0 5 0H17C19.7614 0 22 2.23858 22 5V17C22 19.7614 19.7614 22 17 22H5C2.23858 22 0 19.7614 0 17V5ZM14.8893 12.5185L14.8484 12.4972C14.8484 12.4972 14.8484 12.4972 14.8484 12.4972C14.8484 12.4972 14.8484 12.4972 14.8484 12.4972C14.6301 12.3834 13.6175 11.8556 13.422 11.7807C13.3337 11.7469 13.239 11.714 13.1383 11.714C12.9738 11.714 12.8356 11.8012 12.728 11.9725C12.6063 12.165 12.2379 12.6231 12.1241 12.76C12.1092 12.7781 12.0889 12.7997 12.0768 12.7997C12.0658 12.7997 11.8773 12.717 11.8202 12.6907C10.5134 12.0867 9.52147 10.6343 9.38546 10.3894C9.36791 10.3576 9.36555 10.3414 9.36514 10.3386C9.36509 10.3383 9.36509 10.338 9.36517 10.3377C9.37049 10.3188 9.41395 10.2725 9.43646 10.2485C9.50273 10.1787 9.57453 10.0868 9.64401 9.9978L9.64405 9.99775L9.64425 9.99748C9.67718 9.95529 9.71017 9.91303 9.74256 9.8732C9.84337 9.74841 9.88831 9.65151 9.94032 9.53932L9.94033 9.53931L9.94048 9.53898L9.96777 9.48062C10.0949 9.2118 9.98633 8.98494 9.95122 8.91169C9.92933 8.8651 9.62699 8.09106 9.4591 7.66125L9.35334 7.39077C9.22183 7.05591 9.04805 6.9 8.80656 6.9L8.79481 6.90009C8.7926 6.90016 8.79039 6.90029 8.78642 6.90052C8.77748 6.90105 8.75959 6.9021 8.71259 6.90421C8.59817 6.90935 7.97506 6.99663 7.69955 7.1814C7.40739 7.37738 6.91313 8.00207 6.91313 9.10068C6.91313 10.0894 7.50288 11.023 7.75609 11.3781C7.76132 11.3855 7.77021 11.3994 7.78271 11.4189L7.7907 11.4313C8.76039 12.938 9.96924 14.0546 11.1947 14.5755C12.3744 15.0769 12.9331 15.1348 13.2507 15.1348H13.2508C13.3842 15.1348 13.4911 15.1237 13.5853 15.1138L13.6451 15.1078C14.0526 15.0693 14.9483 14.5755 15.152 13.9732C15.3125 13.4987 15.3548 12.9804 15.248 12.7923C15.1749 12.6644 15.0489 12.6 14.8894 12.5185C14.8894 12.5185 14.8894 12.5185 14.8894 12.5185C14.8894 12.5185 14.8894 12.5185 14.8894 12.5185L14.8893 12.5185ZM2.82057 10.9692C2.82057 6.19026 6.5025 2.30229 11.0282 2.30229C15.5535 2.30229 19.2351 6.19026 19.2351 10.9692C19.2351 15.7476 15.5535 19.6352 11.0282 19.6351C10.4188 19.6351 9.81262 19.5633 9.22222 19.4231C7.83473 19.0937 6.37076 18.8658 5.01982 19.3225L2.80738 20.0705C2.78579 20.0779 2.76365 20.0814 2.74168 20.0814C2.68433 20.0814 2.62818 20.0571 2.58678 20.0122C2.52944 19.9501 2.5099 19.8589 2.53616 19.7764L3.28968 17.4115C3.70841 16.0973 3.49594 14.6853 3.13606 13.3539C2.92771 12.583 2.82057 11.7806 2.82057 10.9692ZM7.45086 16.6951C8.51415 17.4374 9.75109 17.8298 11.0282 17.8298C14.6125 17.8298 17.5285 14.7522 17.5285 10.9692C17.5285 7.18577 14.6124 4.10768 11.0281 4.10768C7.44343 4.10768 4.52703 7.18577 4.52703 10.9692C4.52703 12.4234 4.95505 13.8141 5.76474 14.9912C5.80652 15.052 5.81786 15.1305 5.79518 15.2018C5.50663 16.1075 6.36561 16.9727 7.26607 16.6681C7.28761 16.6609 7.30975 16.6573 7.33183 16.6573C7.37361 16.6573 7.41511 16.6701 7.45086 16.6951Z" fill="url(#paint0_radial)"/>
<path d="M14.8893 12.5185L14.4276 13.4055L14.4348 13.4093L14.4421 13.4129L14.8893 12.5185ZM13.422 11.7807L13.7796 10.8468L13.779 10.8466L13.422 11.7807ZM12.728 11.9725L13.5732 12.507L13.5747 12.5045L12.728 11.9725ZM12.1241 12.76L11.3552 12.1206L11.3518 12.1246L12.1241 12.76ZM11.8202 12.6907L12.2398 11.7829L12.2398 11.7829L11.8202 12.6907ZM9.38546 10.3894L8.50983 10.8724L8.51122 10.8749L9.38546 10.3894ZM9.43646 10.2485L8.71144 9.5597L8.70696 9.56448L9.43646 10.2485ZM9.64401 9.9978L10.4322 10.6133L10.4334 10.6117L9.64401 9.9978ZM9.64405 9.99775L10.4334 10.6117L10.4348 10.6099L9.64405 9.99775ZM9.64425 9.99748L8.85592 9.38222L8.85353 9.38531L9.64425 9.99748ZM9.74256 9.8732L10.5184 10.5041L10.5204 10.5016L9.74256 9.8732ZM9.94032 9.53932L9.0459 9.0921L9.0393 9.10529L9.0331 9.11866L9.94032 9.53932ZM9.94033 9.53931L10.8348 9.98652L10.8419 9.9723L10.8485 9.95786L9.94033 9.53931ZM9.94048 9.53898L9.03462 9.11537L9.03229 9.12042L9.94048 9.53898ZM9.96777 9.48062L9.06381 9.05298L9.06192 9.05702L9.96777 9.48062ZM9.95122 8.91169L9.04615 9.33701L9.04942 9.34383L9.95122 8.91169ZM9.4591 7.66125L10.3906 7.29742L10.3904 7.29707L9.4591 7.66125ZM9.35334 7.39077L10.2847 7.02659L10.2841 7.02521L9.35334 7.39077ZM8.80656 6.9V5.89997L8.7989 5.90003L8.80656 6.9ZM8.79481 6.90009L8.78714 5.90012L8.77457 5.90021L8.76201 5.90062L8.79481 6.90009ZM8.78642 6.90052L8.72768 5.90225L8.7276 5.90225L8.78642 6.90052ZM8.71259 6.90421L8.66779 5.90521L8.66774 5.90522L8.71259 6.90421ZM7.69955 7.1814L7.14255 6.35089L7.14249 6.35093L7.69955 7.1814ZM7.75609 11.3781L8.57403 10.8027L8.57026 10.7975L7.75609 11.3781ZM7.78271 11.4189L6.94107 11.9589L6.94121 11.9591L7.78271 11.4189ZM7.7907 11.4313L6.94919 11.9715L6.9498 11.9725L7.7907 11.4313ZM11.1947 14.5755L10.8035 15.4958L10.8035 15.4958L11.1947 14.5755ZM13.5853 15.1138L13.4844 14.1189L13.4811 14.1193L13.5853 15.1138ZM13.6451 15.1078L13.5512 14.1122L13.5442 14.1129L13.6451 15.1078ZM15.152 13.9732L14.2047 13.6528L14.2047 13.6528L15.152 13.9732ZM15.248 12.7923L16.1177 12.2987L16.1162 12.2959L15.248 12.7923ZM11.0282 19.6351L11.0283 18.6351H11.0282V19.6351ZM2.80738 20.0705L2.4871 19.1232L2.48594 19.1236L2.80738 20.0705ZM2.58678 20.0122L3.3225 19.3349L3.3215 19.3338L2.58678 20.0122ZM2.53616 19.7764L1.58336 19.4728L1.58328 19.473L2.53616 19.7764ZM7.45086 16.6951L6.87789 17.5147L6.87842 17.515L7.45086 16.6951ZM17.5285 10.9692H16.5285V10.9692L17.5285 10.9692ZM5.76474 14.9912L4.94084 15.558L4.94088 15.558L5.76474 14.9912ZM14.8484 12.4972L15.3101 11.6102L14.8484 12.4972ZM5.01982 19.3225L4.69954 18.3752L5.01982 19.3225ZM14.8484 12.4972L14.3862 13.384L14.8484 12.4972ZM9.36517 10.3377L10.3279 10.6082L9.36517 10.3377ZM14.8894 12.5185L14.4422 13.4129L14.8894 12.5185ZM14.8894 12.5185L15.3443 11.628L14.8894 12.5185ZM17 -1H5V1H17V-1ZM23 17V5H21V17H23ZM5 23H17V21H5V23ZM-1 5V17H1V5H-1ZM14.3868 13.3843L14.4276 13.4055L15.351 11.6314L15.3101 11.6102L14.3868 13.3843ZM13.0645 12.7146C13.0625 12.7138 13.1191 12.7386 13.2559 12.8058C13.3751 12.8644 13.5216 12.9383 13.6722 13.0151C13.9728 13.1684 14.277 13.3271 14.3862 13.384L15.3107 11.6105C15.2015 11.5535 14.8903 11.3913 14.5811 11.2336C14.3056 11.093 13.9407 10.9085 13.7796 10.8468L13.0645 12.7146ZM13.1383 12.714C13.0798 12.714 13.0404 12.7044 13.0301 12.7017C13.0246 12.7003 13.0241 12.6999 13.0304 12.702C13.0372 12.7043 13.0472 12.708 13.0651 12.7148L13.779 10.8466C13.691 10.813 13.442 10.714 13.1383 10.714V12.714ZM13.5747 12.5045C13.5679 12.5154 13.5303 12.5712 13.4451 12.6249C13.3523 12.6834 13.2428 12.714 13.1383 12.714V10.714C12.5468 10.714 12.1228 11.056 11.8812 11.4405L13.5747 12.5045ZM12.8929 13.3994C12.9978 13.2733 13.4104 12.7644 13.5732 12.507L11.8828 11.4381C11.8525 11.4859 11.7606 11.6106 11.6348 11.7718C11.5188 11.9203 11.4048 12.061 11.3552 12.1206L12.8929 13.3994ZM12.0768 13.7997C12.3493 13.7997 12.5414 13.6897 12.6017 13.6535C12.6827 13.6049 12.7409 13.5548 12.7708 13.5277C12.8324 13.4719 12.877 13.4188 12.8963 13.3953L11.3518 12.1246C11.3563 12.1193 11.3833 12.086 11.428 12.0455C11.4495 12.026 11.4993 11.9825 11.5727 11.9385C11.6107 11.9157 11.6689 11.8843 11.7445 11.8572C11.8186 11.8307 11.9334 11.7997 12.0768 11.7997V13.7997ZM11.4007 13.5984C11.4404 13.6168 11.5107 13.6479 11.5704 13.6736C11.6006 13.6866 11.6344 13.7009 11.6641 13.713C11.6778 13.7185 11.6987 13.7269 11.7212 13.7351C11.7312 13.7388 11.7528 13.7466 11.7795 13.7548C11.7923 13.7587 11.8176 13.7662 11.8496 13.7736C11.862 13.7765 11.9558 13.7997 12.0768 13.7997V11.7997C12.1148 11.7997 12.1467 11.8018 12.1699 11.804C12.1937 11.8062 12.214 11.809 12.2298 11.8115C12.2605 11.8162 12.2852 11.8216 12.3009 11.8252C12.3315 11.8323 12.3551 11.8393 12.3659 11.8427C12.3886 11.8496 12.405 11.8556 12.4087 11.857C12.4186 11.8606 12.4225 11.8623 12.4161 11.8597C12.4056 11.8555 12.3867 11.8475 12.3612 11.8365C12.3097 11.8144 12.2571 11.791 12.2398 11.7829L11.4007 13.5984ZM8.51122 10.8749C8.62391 11.0778 8.9551 11.5646 9.42525 12.0796C9.89548 12.5947 10.5754 13.217 11.4007 13.5984L12.2398 11.7829C11.7582 11.5604 11.2888 11.1545 10.9023 10.7312C10.7149 10.5259 10.5594 10.3302 10.4448 10.1745C10.3877 10.0968 10.342 10.031 10.3088 9.98087C10.2728 9.92676 10.2586 9.90181 10.2597 9.90387L8.51122 10.8749ZM8.37562 10.483C8.39384 10.6079 8.43592 10.7384 8.50984 10.8724L10.2611 9.90637C10.2776 9.93632 10.2977 9.97836 10.3159 10.032C10.3251 10.059 10.3334 10.088 10.3406 10.1191C10.3441 10.1346 10.3472 10.1497 10.3498 10.1643C10.3511 10.1716 10.3522 10.1781 10.3531 10.1839C10.3535 10.1867 10.3539 10.1892 10.3542 10.1911C10.3545 10.1929 10.3547 10.1943 10.3547 10.1942L8.37562 10.483ZM8.70696 9.56448C8.69823 9.5738 8.66437 9.6096 8.63092 9.64915C8.61459 9.66845 8.58634 9.70267 8.5565 9.74524C8.54739 9.75823 8.45366 9.88501 8.40245 10.0673L10.3279 10.6082C10.2986 10.7124 10.2588 10.7868 10.2424 10.8162C10.2223 10.8523 10.2042 10.879 10.1943 10.8931C10.1748 10.921 10.1598 10.9385 10.1578 10.9409C10.153 10.9465 10.1522 10.9471 10.1659 10.9325L8.70696 9.56448ZM8.85585 9.38232C8.77743 9.48275 8.73748 9.53233 8.71146 9.55972L10.1615 10.9372C10.268 10.8251 10.3716 10.6908 10.4322 10.6133L8.85585 9.38232ZM8.85469 9.38381L8.85465 9.38386L10.4334 10.6117L10.4334 10.6117L8.85469 9.38381ZM8.85353 9.38531L8.85332 9.38558L10.4348 10.6099L10.435 10.6097L8.85353 9.38531ZM8.96672 9.24227C8.92692 9.29122 8.88771 9.34149 8.85592 9.38223L10.4326 10.6127C10.4667 10.5691 10.4934 10.5348 10.5184 10.5041L8.96672 9.24227ZM9.0331 9.11866C9.00489 9.17951 8.99646 9.19655 8.98849 9.2107C8.98438 9.21799 8.97892 9.22717 8.96468 9.24479L10.5204 10.5016C10.7031 10.2755 10.7902 10.0836 10.8475 9.95997L9.0331 9.11866ZM9.0459 9.09209L9.0459 9.0921L10.8348 9.98653L10.8348 9.98652L9.0459 9.09209ZM9.03229 9.12042L9.03214 9.12075L10.8485 9.95786L10.8487 9.95753L9.03229 9.12042ZM9.06192 9.05702L9.03463 9.11538L10.8463 9.96258L10.8736 9.90422L9.06192 9.05702ZM9.04942 9.34383C9.0594 9.36466 9.04068 9.3302 9.0325 9.27819C9.02251 9.21473 9.02739 9.12999 9.06382 9.05298L10.8717 9.90825C11.2087 9.19599 10.905 8.58791 10.853 8.47954L9.04942 9.34383ZM8.52764 8.02508C8.6808 8.4172 9.00532 9.25006 9.04618 9.337L10.8563 8.48638C10.8679 8.51118 10.8616 8.49763 10.8182 8.38838C10.7849 8.30429 10.7403 8.1911 10.6908 8.06487C10.5918 7.81268 10.4746 7.51249 10.3906 7.29742L8.52764 8.02508ZM8.42201 7.75495L8.52778 8.02542L10.3904 7.29707L10.2847 7.02659L8.42201 7.75495ZM8.80656 7.9C8.75711 7.9 8.69182 7.89157 8.62058 7.86453C8.54907 7.8374 8.49288 7.79959 8.45326 7.76404C8.38321 7.70117 8.38708 7.66602 8.42255 7.75633L10.2841 7.02521C10.1881 6.78066 10.0393 6.50013 9.78912 6.27559C9.51236 6.0272 9.16954 5.9 8.80656 5.9V7.9ZM8.80247 7.90006L8.81423 7.89997L8.7989 5.90003L8.78714 5.90012L8.80247 7.90006ZM8.84516 7.8988C8.84568 7.89877 8.84601 7.89875 8.84631 7.89873C8.84644 7.89872 8.84654 7.89872 8.84661 7.89871C8.84668 7.89871 8.8467 7.89871 8.8467 7.89871C8.84669 7.89871 8.84664 7.89871 8.84656 7.89871C8.84648 7.89872 8.84634 7.89873 8.84617 7.89874C8.84584 7.89875 8.84529 7.89878 8.84458 7.89882C8.84163 7.89898 8.83549 7.89929 8.82761 7.89955L8.76201 5.90062C8.75191 5.90096 8.74357 5.90137 8.73797 5.90167C8.73334 5.90191 8.72876 5.90219 8.72768 5.90225L8.84516 7.8988ZM8.75739 7.90321C8.80882 7.9009 8.83138 7.89961 8.84524 7.89879L8.7276 5.90225C8.72357 5.90249 8.71037 5.90331 8.66779 5.90521L8.75739 7.90321ZM8.25656 8.01191C8.22387 8.03384 8.22382 8.02705 8.28505 8.00586C8.33759 7.98768 8.40608 7.96886 8.48391 7.95152C8.56018 7.93453 8.63398 7.92149 8.69275 7.9127C8.76241 7.90227 8.78175 7.90211 8.75745 7.9032L8.66774 5.90522C8.53247 5.91129 8.28674 5.94642 8.04905 5.99937C7.83638 6.04674 7.44883 6.14547 7.14255 6.35089L8.25656 8.01191ZM7.91313 9.10068C7.91313 8.29897 8.27025 8.00273 8.25661 8.01188L7.14249 6.35093C6.54454 6.75202 5.91313 7.70517 5.91313 9.10068H7.91313ZM8.57026 10.7975C8.33341 10.4653 7.91313 9.75409 7.91313 9.10068H5.91313C5.91313 10.4248 6.67235 11.5807 6.94191 11.9587L8.57026 10.7975ZM8.62435 10.8788C8.61918 10.8708 8.59492 10.8325 8.57401 10.8028L6.93816 11.9534C6.93524 11.9492 6.93297 11.9459 6.93154 11.9438C6.93006 11.9417 6.92899 11.9401 6.92842 11.9392C6.92739 11.9377 6.92719 11.9373 6.92827 11.939C6.92927 11.9405 6.93076 11.9428 6.93304 11.9464C6.93532 11.9499 6.93787 11.9539 6.94107 11.9589L8.62435 10.8788ZM8.63221 10.891L8.62422 10.8786L6.94121 11.9591L6.9492 11.9715L8.63221 10.891ZM11.5858 13.6552C10.5988 13.2356 9.52951 12.2853 8.6316 10.8901L6.9498 11.9725C7.99127 13.5907 9.33965 14.8736 10.8035 15.4958L11.5858 13.6552ZM13.2507 14.1348C13.1064 14.1348 12.6835 14.1217 11.5858 13.6551L10.8035 15.4958C12.0654 16.0321 12.7598 16.1348 13.2507 16.1348V14.1348ZM13.2508 14.1348H13.2507V16.1348H13.2508V14.1348ZM13.4811 14.1193C13.3889 14.1289 13.3274 14.1348 13.2508 14.1348V16.1348C13.4411 16.1348 13.5933 16.1185 13.6895 16.1084L13.4811 14.1193ZM13.5442 14.1129L13.4844 14.1189L13.6862 16.1087L13.746 16.1027L13.5442 14.1129ZM14.2047 13.6528C14.21 13.6372 14.2035 13.6651 14.1462 13.7285C14.0914 13.7891 14.0121 13.8576 13.9139 13.9241C13.8166 13.9901 13.7173 14.0428 13.6342 14.078C13.5391 14.1182 13.5121 14.1159 13.5512 14.1122L13.739 16.1033C14.1777 16.062 14.6664 15.8302 15.036 15.5797C15.4065 15.3287 15.8943 14.8998 16.0993 14.2936L14.2047 13.6528ZM14.3784 13.2859C14.3382 13.2151 14.321 13.1583 14.3143 13.133C14.3105 13.1186 14.3084 13.1079 14.3074 13.1017C14.3068 13.0985 14.3065 13.0962 14.3062 13.0947C14.3061 13.0939 14.3061 13.0933 14.306 13.093C14.306 13.0928 14.306 13.0927 14.306 13.0926C14.306 13.0925 14.306 13.0924 14.306 13.0924C14.306 13.0924 14.306 13.0925 14.306 13.0926C14.306 13.0927 14.306 13.0928 14.306 13.093C14.306 13.0933 14.3061 13.0938 14.3061 13.0945C14.3062 13.0958 14.3064 13.0978 14.3065 13.1003C14.3067 13.1055 14.3069 13.1125 14.3069 13.1217C14.3069 13.1402 14.306 13.1644 14.3035 13.1942C14.2933 13.3204 14.2603 13.4884 14.2047 13.6528L16.0993 14.2936C16.2042 13.9835 16.2726 13.6551 16.2969 13.3565C16.3091 13.2072 16.3118 13.0459 16.2953 12.8864C16.2806 12.7446 16.2429 12.5192 16.1177 12.2987L14.3784 13.2859ZM14.4345 13.4091C14.4774 13.431 14.5008 13.443 14.52 13.4536C14.5378 13.4634 14.5378 13.4643 14.529 13.4581C14.5191 13.4512 14.4953 13.4336 14.4666 13.404C14.4366 13.3732 14.4062 13.3345 14.3799 13.2886L16.1162 12.2959C15.8685 11.8627 15.4401 11.6769 15.3443 11.628L14.4345 13.4091ZM14.4421 13.4129L14.4422 13.4129L15.3366 11.6241L15.3365 11.624L14.4421 13.4129ZM11.0282 1.30229C5.89961 1.30229 1.82057 5.68997 1.82057 10.9692H3.82057C3.82057 6.69054 7.10538 3.30229 11.0282 3.30229V1.30229ZM20.2351 10.9692C20.2351 5.69006 16.1565 1.30229 11.0282 1.30229V3.30229C14.9505 3.30229 18.2351 6.69045 18.2351 10.9692H20.2351ZM11.0282 20.6351C16.1564 20.6352 20.2351 16.2479 20.2351 10.9692H18.2351C18.2351 15.2473 14.9506 18.6352 11.0283 18.6351L11.0282 20.6351ZM8.99122 20.3961C9.6566 20.5541 10.3403 20.6351 11.0282 20.6351V18.6351C10.4973 18.6351 9.96865 18.5726 9.45323 18.4502L8.99122 20.3961ZM3.12766 21.0178L5.3401 20.2698L4.69954 18.3752L2.4871 19.1232L3.12766 21.0178ZM2.74168 21.0814C2.87102 21.0814 3.00186 21.0606 3.12882 21.0175L2.48594 19.1236C2.56971 19.0952 2.65629 19.0814 2.74168 19.0814V21.0814ZM1.85106 20.6895C2.07834 20.9363 2.39969 21.0814 2.74168 21.0814V19.0814C2.96898 19.0814 3.17801 19.1779 3.3225 19.3349L1.85106 20.6895ZM1.58328 19.473C1.4514 19.8873 1.54313 20.3559 1.85206 20.6905L3.3215 19.3338C3.51574 19.5442 3.56841 19.8304 3.48905 20.0797L1.58328 19.473ZM2.33688 17.1079L1.58336 19.4728L3.48897 20.08L4.24249 17.7151L2.33688 17.1079ZM1.82057 10.9692C1.82057 11.8685 1.9393 12.7587 2.1707 13.6148L4.10141 13.0929C3.91611 12.4074 3.82057 11.6927 3.82057 10.9692H1.82057ZM11.0282 16.8298C9.9592 16.8298 8.92148 16.5022 8.02331 15.8752L6.87842 17.515C8.10681 18.3726 9.54299 18.8298 11.0282 18.8298V16.8298ZM16.5285 10.9692C16.5285 14.2514 14.0101 16.8298 11.0282 16.8298V18.8298C15.2149 18.8298 18.5285 15.2529 18.5285 10.9692L16.5285 10.9692ZM11.0281 5.10768C14.0099 5.10768 16.5285 7.68642 16.5285 10.9692H18.5285C18.5285 6.68512 15.215 3.10768 11.0281 3.10768V5.10768ZM5.52703 10.9692C5.52703 7.68653 8.04587 5.10768 11.0281 5.10768V3.10768C6.84099 3.10768 3.52703 6.68501 3.52703 10.9692H5.52703ZM6.58864 14.4245C5.89579 13.4173 5.52703 12.2248 5.52703 10.9692H3.52703C3.52703 12.6219 4.0143 14.211 4.94084 15.558L6.58864 14.4245ZM6.74805 15.5051C6.8628 15.1447 6.80858 14.7442 6.58861 14.4245L4.94088 15.558C4.80446 15.3597 4.77291 15.1164 4.84231 14.8984L6.74805 15.5051ZM7.33183 15.6573C7.2011 15.6573 7.0709 15.6786 6.94617 15.7207L7.58598 17.6156C7.50433 17.6432 7.4184 17.6573 7.33183 17.6573V15.6573ZM8.02384 15.8755C7.82055 15.7334 7.57913 15.6573 7.33183 15.6573V17.6573C7.16808 17.6573 7.00967 17.6068 6.87789 17.5147L8.02384 15.8755ZM4.84236 14.8982C4.31322 16.5592 5.88353 18.1914 7.58645 17.6154L6.9457 15.7208C6.90794 15.7336 6.8839 15.7313 6.8663 15.7267C6.84453 15.7211 6.81748 15.7073 6.79211 15.6819C6.7667 15.6565 6.75051 15.6269 6.74324 15.5995C6.73696 15.5758 6.73495 15.5463 6.74799 15.5053L4.84236 14.8982ZM15.3101 11.6102C15.2633 11.5858 15.2147 11.5652 15.1647 11.5485L14.5322 13.4459C14.4822 13.4292 14.4335 13.4086 14.3868 13.3843L15.3101 11.6102ZM9.45323 18.4502C8.04941 18.1169 6.34021 17.8205 4.69954 18.3752L5.3401 20.2698C6.40132 19.9111 7.62005 20.0705 8.99122 20.3961L9.45323 18.4502ZM15.1647 11.5485C15.1829 11.5546 15.2063 11.563 15.2332 11.5742C15.2605 11.5856 15.2863 11.5978 15.3107 11.6105L14.3862 13.384C14.4402 13.4121 14.4902 13.4319 14.5322 13.4459L15.1647 11.5485ZM10.3489 10.1594C10.3721 10.2862 10.3747 10.4417 10.3279 10.6082L8.40245 10.0673C8.35549 10.2344 8.35812 10.3904 8.38134 10.5179L10.3489 10.1594ZM5 21C2.79086 21 1 19.2091 1 17H-1C-1 20.3137 1.68629 23 5 23V21ZM21 17C21 19.2091 19.2091 21 17 21V23C20.3137 23 23 20.3137 23 17H21ZM15.2056 11.5698C15.2505 11.5848 15.2943 11.6029 15.3366 11.6241L14.4422 13.4129C14.4845 13.4341 14.5283 13.4522 14.5732 13.4672L15.2056 11.5698ZM5 -1C1.68629 -1 -1 1.68629 -1 5H1C1 2.79086 2.79086 1 5 1V-1ZM4.24249 17.7151C4.75139 16.1179 4.47428 14.4725 4.10141 13.0929L2.1707 13.6148C2.51759 14.8982 2.66543 16.0767 2.33688 17.1079L4.24249 17.7151ZM15.3443 11.628C15.3001 11.6054 15.2537 11.5859 15.2056 11.5698L14.5732 13.4672C14.5251 13.4512 14.4788 13.4317 14.4345 13.4091L15.3443 11.628ZM17 1C19.2091 1 21 2.79086 21 5H23C23 1.68629 20.3137 -1 17 -1V1Z" fill="url(#paint1_linear)" mask="url(#path-1-inside-1)"/>
<defs>
<radialGradient id="paint0_radial" cx="0" cy="0" r="1" gradientUnits="userSpaceOnUse" gradientTransform="translate(5.59116 2.00424) rotate(59.5385) scale(22.657 20.2591)">
<stop stop-color="white" stop-opacity="0.4"/>
<stop offset="1" stop-color="white" stop-opacity="0"/>
</radialGradient>
<linearGradient id="paint1_linear" x1="17.0773" y1="0" x2="17.0773" y2="22" gradientUnits="userSpaceOnUse">
<stop stop-color="white" stop-opacity="0.4"/>
<stop offset="1" stop-color="white" stop-opacity="0.1"/>
</linearGradient>
</defs>
</svg>
