<svg width="296" height="264" viewBox="0 0 296 264" fill="none" xmlns="http://www.w3.org/2000/svg">
<g clip-path="url(#clip0)">
<path d="M245.397 118.293L245.588 112.068L236.957 110.783L229.036 109.61L227.612 116.965L237.023 117.674L245.397 118.293Z" fill="url(#paint0_linear)"/>
<path d="M245.235 110.721C244.549 110.715 244.828 119.166 244.828 119.166C244.828 119.166 249.945 124.478 250.966 129.589C251.988 134.7 255.105 131.94 255.283 126.308C255.462 120.675 255.586 116.382 255.71 112.376C255.834 108.371 252.347 110.767 245.235 110.721Z" fill="url(#paint1_linear)"/>
<path d="M246.849 123.665C246.856 123.93 246.776 124.19 246.622 124.406C246.507 124.524 246.359 124.603 246.197 124.635C246.036 124.667 245.869 124.65 245.717 124.585C245.596 124.549 245.484 124.489 245.388 124.407C245.292 124.326 245.213 124.226 245.157 124.113C244.937 123.513 244.887 122.863 245.012 122.236C244.618 122.909 244.161 123.5 243.714 123.507C243.425 123.515 243.191 123.318 243.019 122.933C242.941 122.761 242.901 122.573 242.903 122.384C242.906 122.195 242.949 122.009 243.032 121.839C243.54 120.716 245.508 120.072 245.605 120.038C245.636 120.034 245.668 120.038 245.697 120.05L245.742 120.056L245.806 120.065L245.862 120.137C246.389 121.248 246.723 122.441 246.849 123.665ZM245.37 122.905C245.34 123.245 245.394 123.587 245.528 123.901C245.554 123.961 245.593 124.014 245.642 124.058C245.691 124.101 245.748 124.133 245.811 124.152C246.141 124.251 246.23 124.141 246.262 124.108C246.6 123.725 246.181 122.166 245.696 120.905C245.519 121.559 245.41 122.229 245.37 122.905ZM243.328 122.342C243.322 122.476 243.349 122.611 243.407 122.733C243.456 122.851 243.56 123.05 243.681 123.047C244.055 123.031 244.766 121.851 245.261 120.616C244.673 120.855 243.7 121.341 243.41 121.999C243.365 122.109 243.347 122.227 243.355 122.345L243.328 122.342Z" fill="#F4F4F4"/>
<path opacity="0.2" d="M237.217 117.68L237.124 110.786L229.12 109.611L227.649 116.97L237.217 117.68Z" fill="black"/>
<path d="M151.911 53.7546C151.911 53.7546 172.444 57.8468 195.183 97.2217L233.51 108.54L234.321 118.463C234.321 118.463 196.058 115.186 185.084 109.742C174.111 104.297 153.961 79.4233 153.961 79.4233L136.624 61.3715L151.911 53.7546Z" fill="#407BFF"/>
<path opacity="0.6" d="M234.321 118.463C234.321 118.463 196.058 115.186 185.084 109.742C174.111 104.297 153.961 79.4234 153.961 79.4234L136.624 61.3716L151.907 53.7821C151.907 53.7821 167.8 56.9526 187.104 84.5301C188.942 87.1569 190.818 89.9929 192.707 93.0814C193.521 94.4261 194.346 95.8153 195.179 97.2492L233.506 108.568L234.321 118.463Z" fill="url(#paint2_linear)"/>
<path opacity="0.2" d="M192.706 93.0906C186.55 93.3271 178.383 91.7595 169.102 85.2262L182.551 83.1554L187.103 84.5391C188.946 87.1294 190.822 89.9655 192.706 93.0906Z" fill="#577BBD"/>
<path d="M232.643 107.787L233.341 119.292L235.561 119.349L234.746 108.525L232.643 107.787Z" fill="#F4F4F4"/>
<path d="M274.513 79.8827L272.127 74.1289L263.732 76.5158L256.03 78.7144L257.761 85.9988L266.629 82.7635L274.513 79.8827Z" fill="url(#paint3_linear)"/>
<path d="M271.247 73.0482C270.627 73.3202 274.354 80.8837 274.354 80.8837C274.354 80.8837 281.225 83.638 284.248 87.8498C287.271 92.0616 288.989 88.2831 286.829 83.0787C284.668 77.8744 283.015 73.9064 281.484 70.2052C279.953 66.5041 277.76 70.1555 271.247 73.0482Z" fill="url(#paint4_linear)"/>
<path d="M278.045 84.1796C278.166 84.4154 278.203 84.6857 278.149 84.9454C278.09 85.0994 277.987 85.2324 277.852 85.3273C277.718 85.4222 277.558 85.4748 277.393 85.4782C277.269 85.4936 277.143 85.4836 277.023 85.4488C276.903 85.4139 276.792 85.3551 276.695 85.2757C276.243 84.8172 275.926 84.2423 275.78 83.6145C275.68 84.3816 275.529 85.1141 275.123 85.3027C274.865 85.4361 274.57 85.3511 274.226 85.0649C274.088 84.9404 273.976 84.7883 273.899 84.6184C273.823 84.4485 273.782 84.2644 273.78 84.0779C273.783 82.8431 275.313 81.436 275.396 81.3634L275.477 81.3181L275.54 81.3264L275.613 81.336L275.696 81.3467C276.639 82.1454 277.434 83.1043 278.045 84.1796ZM276.416 84.0783C276.529 84.4014 276.716 84.6932 276.963 84.9299C277.014 84.9719 277.073 85.0029 277.136 85.0207C277.199 85.0386 277.265 85.0429 277.33 85.0336C277.671 84.9851 277.706 84.8597 277.721 84.8152C277.868 84.3237 276.853 83.0766 275.891 82.1245C276.001 82.7929 276.18 83.4481 276.425 84.0795L276.416 84.0783ZM274.321 84.4086C274.372 84.5355 274.453 84.6481 274.557 84.7365C274.648 84.8227 274.825 84.9573 274.934 84.9065C275.272 84.737 275.413 83.3716 275.373 82.0383C274.792 82.5762 274.4 83.2871 274.255 84.0656C274.255 84.1831 274.278 84.2995 274.321 84.4086Z" fill="#F4F4F4"/>
<path opacity="0.2" d="M266.806 82.6845L263.89 76.4435L256.109 78.6783L257.8 85.9853L266.806 82.6845Z" fill="black"/>
<path d="M124.672 47.2828C124.672 47.2828 121.385 63.7195 120.118 64.4644C118.852 65.2092 97.5346 76.5803 97.5346 76.5803C97.5346 76.5803 90.6584 76.7879 88.3721 77.5946C86.0858 78.4014 87.0303 85.3137 87.9982 86.3595C88.9661 87.4053 98.9595 83.9362 98.9595 83.9362L100.499 81.9546C100.499 81.9546 123.225 72.5877 125.337 71.7675C127.448 70.9472 134.482 52.6127 134.482 52.6127L124.672 47.2828Z" fill="url(#paint5_linear)"/>
<path d="M128.995 38.6247C122.325 39.9551 121.304 55.8055 121.304 55.8055L132.316 60.958L135.471 56.4104L128.995 38.6247Z" fill="#FFD771"/>
<path d="M162.747 59.6088C162.747 59.6088 183.165 54.8443 220.082 81.3773L259.674 75.8932L264.495 84.6026C264.495 84.6026 228.283 97.3914 216.034 96.9533C203.785 96.5152 175.191 82.1577 175.191 82.1577L151.955 72.8275L162.747 59.6088Z" fill="#407BFF"/>
<path opacity="0.6" d="M162.747 59.6088C162.747 59.6088 183.165 54.8443 220.082 81.3773L259.674 75.8932L264.495 84.6026C264.495 84.6026 228.283 97.3914 216.034 96.9533C203.785 96.5152 175.191 82.1577 175.191 82.1577L151.955 72.8275L162.747 59.6088Z" fill="url(#paint6_linear)"/>
<path d="M257.976 75.1792L260.258 75.477L265.639 84.8725L263.184 85.908L257.976 75.1792Z" fill="#F4F4F4"/>
<path d="M139.411 6.61488C139.411 6.61488 149.834 4.047 156.217 11.5951C160.239 16.3365 169.622 27.7776 175.663 25.0834C181.704 22.3892 191.114 20.4693 194.729 25.269C194.729 25.269 187.936 23.9178 184.149 26.1912C184.149 26.1912 190.885 25.213 192.992 27.3455C195.098 29.478 198.818 29.137 198.818 29.137C198.818 29.137 200.566 39.2098 184.464 38.2872C184.464 38.2872 192.46 41.0122 196.705 38.2878C196.705 38.2878 196.891 45.324 178.012 45.0514C159.134 44.7788 143.35 39.4957 140.269 33.456C137.187 27.4162 139.411 6.61488 139.411 6.61488Z" fill="#313131"/>
<path d="M181.651 59.8289C181.651 59.8289 175.615 77.9871 161.044 78.9827C158.739 79.1698 156.42 78.9206 154.208 78.2481C149.962 76.8503 146.444 73.8222 144.43 69.8296C143.808 68.706 143.313 67.5169 142.953 66.2841L164.921 58.5272L166.732 57.8812C169.475 57.6794 172.229 57.685 174.971 57.898C177.613 58.1315 180.242 58.679 181.651 59.8289Z" fill="url(#paint7_linear)"/>
<path opacity="0.2" d="M167.451 70.216C162.791 74.0655 158.555 76.7911 154.207 78.2482C149.961 76.8503 146.444 73.8223 144.429 69.8297C151.048 65.6903 157.889 61.9172 164.921 58.5273L166.732 57.8813C169.474 57.6795 172.229 57.6851 174.971 57.8981C175.535 60.6837 173.941 64.8593 167.451 70.216Z" fill="black"/>
<path d="M128.995 38.6246C141.983 36.0988 155.406 37.0343 167.917 41.3373C167.917 41.3373 173.375 53.8447 174.334 63.2758C174.334 63.2758 161.277 77.9822 146.346 75.5502C131.416 73.1181 128.995 38.6246 128.995 38.6246Z" fill="url(#paint8_linear)"/>
<path d="M129.763 21.0138C129.763 21.0138 131.245 0.774962 148.176 7.92616C169.465 16.8907 152.899 41.7079 142.49 36.7734C132.08 31.8389 129.763 21.0138 129.763 21.0138Z" fill="#313131"/>
<path d="M156.141 40.7569C156.141 40.7569 150.69 51.3759 143.831 49.7468C142.024 49.3098 140.364 48.4023 139.021 47.1161C137.678 45.83 136.699 44.2111 136.184 42.4238C136.071 42.0775 135.981 41.7245 135.913 41.3668C135.913 41.3668 139.573 40.7765 137.74 37.3981L147.278 31.7985C147.148 32.7276 147.072 33.6636 147.052 34.6015C147.038 36.2715 147.236 38.1641 148.197 38.7633C150.053 39.9064 156.141 40.7569 156.141 40.7569Z" fill="url(#paint9_linear)"/>
<path opacity="0.2" d="M147.088 34.6061C145.869 38.4684 142.893 44.2746 136.22 42.4283C136.108 42.082 136.018 41.729 135.95 41.3714C135.95 41.3714 139.609 40.781 137.776 37.4027L147.315 31.803C147.184 32.7321 147.109 33.6681 147.088 34.6061Z" fill="black"/>
<path d="M142.683 12.2613C135.004 10.6552 131.667 14.2503 129.451 22.0504C126.675 31.8019 127.396 39.2888 137.423 39.1861C151.078 39.0183 155.433 14.901 142.683 12.2613Z" fill="url(#paint10_linear)"/>
<path d="M134.507 22.6361C133.652 23.6551 132.676 24.5662 131.601 25.3494C131.76 25.7143 132.016 26.0284 132.341 26.2576C132.666 26.4868 133.048 26.6221 133.445 26.6489L134.507 22.6361Z" fill="#D4827D"/>
<path d="M139.336 22.9693C139.188 23.6002 139.409 24.1862 139.832 24.2879C140.255 24.3895 140.71 23.9567 140.885 23.3294C141.06 22.7021 140.812 22.1125 140.389 22.0109C139.966 21.9092 139.481 22.3567 139.336 22.9693Z" fill="#263238"/>
<path d="M140.526 22.1031L139.292 21.2455C139.292 21.2455 139.678 22.5498 140.526 22.1031Z" fill="#263238"/>
<path d="M131.525 21.021C131.379 21.6428 131.598 22.2379 132.022 22.3305C132.447 22.423 132.901 21.9994 133.074 21.3812C133.248 20.763 133.001 20.1643 132.578 20.0626C132.155 19.961 131.708 20.4041 131.525 21.021Z" fill="#263238"/>
<path d="M132.754 20.1411L131.519 19.2926C131.519 19.2926 131.924 20.5992 132.754 20.1411Z" fill="#263238"/>
<path d="M140.525 17.7008C141.148 17.7532 141.75 17.9484 142.286 18.2711C142.821 18.5939 143.276 19.0356 143.613 19.5621" stroke="#263238" stroke-width="0.72" stroke-linecap="round" stroke-linejoin="round"/>
<path d="M135.012 16.2101C134.515 15.9679 133.971 15.8406 133.419 15.8377C132.866 15.8347 132.32 15.9561 131.821 16.193" stroke="#263238" stroke-width="0.72" stroke-linecap="round" stroke-linejoin="round"/>
<path d="M148.386 26.9372C148.386 26.9372 146.116 19.8703 147.674 15.1143C147.674 15.1143 133.766 5.70162 129.782 21.0072C129.782 21.0072 131.16 6.96812 144.426 9.42435C157.693 11.8806 155.159 31.3598 147.132 35.6894C147.113 35.6961 149.759 31.3514 148.386 26.9372Z" fill="#313131"/>
<path d="M146.769 28.3047C146.897 27.871 147.109 27.4667 147.393 27.1151C147.677 26.7636 148.028 26.4716 148.425 26.256C148.822 26.0403 149.258 25.9053 149.708 25.8585C150.157 25.8118 150.611 25.8544 151.044 25.9837C153.368 26.7421 153.477 31.8738 147.315 31.803C146.426 31.7891 146.12 30.8576 146.769 28.3047Z" fill="#EEC1BB"/>
<path d="M132.107 29.5764C132.32 30.5116 132.463 31.4616 132.534 32.4184L133.045 32.4851C135.334 32.6538 136.44 31.9995 136.997 31.1435C137.253 30.7447 137.41 30.2912 137.458 29.8199C137.494 29.5544 137.492 29.285 137.451 29.0202C135.991 29.5426 134.436 29.745 132.891 29.6137C132.409 29.6066 132.107 29.5764 132.107 29.5764Z" fill="#263238"/>
<path d="M132.891 29.6136L133.041 30.4506C135.193 30.6015 136.757 30.4248 137.458 29.8198C137.494 29.5543 137.492 29.2849 137.451 29.0201C135.991 29.5425 134.436 29.7449 132.891 29.6136Z" fill="white"/>
<path d="M133.048 32.4576C135.337 32.6264 136.444 31.9721 137.001 31.1161C136.128 31.0678 135.253 31.1737 134.417 31.4289C133.864 31.6181 133.384 31.9783 133.048 32.4576Z" fill="#DE5753"/>
<path d="M142.717 12.8511C142.717 12.8511 143.164 26.1347 151.153 27.6419C159.141 29.1492 150.216 10.5703 150.216 10.5703C150.216 10.5703 138.265 2.94546 130.412 8.50502C122.559 14.0646 129.763 21.014 129.763 21.014C129.763 21.014 131.315 11.112 142.717 12.8511Z" fill="#313131"/>
<path d="M177.983 45.484C177.983 45.484 194.961 51.7867 198.036 53.0426C201.111 54.2984 222.438 66.9549 222.438 66.9549C222.438 66.9549 230.914 64.9409 231.718 65.9653C232.521 66.9896 233.941 71.8279 233.593 72.9249C233.246 74.0219 221.59 74.7293 221.082 74.2822C220.392 73.3978 219.772 72.4598 219.23 71.4771C219.23 71.4771 197.845 60.689 193.752 59.1981C189.659 57.7072 175.487 54.5847 175.487 54.5847L177.983 45.484Z" fill="url(#paint11_linear)"/>
<path d="M167.917 41.3373C167.917 41.3373 166.429 52.7337 172.711 57.5752L184.962 58.0693L189.538 48.1812C189.538 48.1812 178.775 42.9776 167.917 41.3373Z" fill="#FFDB7D"/>
</g>
<path d="M166.833 180.566C166.829 159.346 158.735 138.926 144.198 123.465C129.661 108.003 109.776 98.6626 88.5922 97.3457C67.4082 96.0288 46.5188 102.835 30.1784 116.377C13.8379 129.919 3.27541 149.179 0.642003 170.235C-1.41436 186.71 1.49518 203.423 8.99797 218.235C17.4618 234.974 31.3237 248.371 48.3438 256.262C65.3639 264.153 84.548 266.076 102.796 261.721C121.045 257.366 137.291 246.987 148.911 232.261C160.531 217.535 166.845 199.323 166.833 180.566Z" fill="url(#paint12_linear)"/>
<path d="M159.676 214.417C119.358 235.105 105.533 226.429 62.4565 211.079C37.8372 202.297 19.8671 210.012 8.99732 218.235C16.1265 232.31 27.1027 244.076 40.6518 252.166C54.2008 260.255 69.767 264.337 85.5433 263.938C101.32 263.538 116.659 258.673 129.781 249.908C142.903 241.142 153.269 228.836 159.676 214.417Z" fill="url(#paint13_linear)"/>
<path d="M163.627 157.53C158.314 139.063 146.788 122.996 130.995 112.044C115.203 101.091 96.1122 95.9257 76.9501 97.4194C57.788 98.9131 39.7292 106.975 25.8254 120.242C11.9216 133.509 3.02539 151.168 0.640137 170.235C7.97565 163.318 16.6561 157.984 26.1416 154.564C35.6271 151.145 45.7149 149.712 55.7777 150.357C99.6228 152.934 133.32 183.904 163.627 157.53Z" fill="url(#paint14_linear)"/>
<path d="M37.2775 74.551C37.2768 70.9752 35.9129 67.5341 33.4635 64.9286C31.0141 62.323 27.6635 60.749 24.0941 60.5271C20.5246 60.3052 17.0048 61.4521 14.2515 63.7342C11.4982 66.0162 9.7184 69.2619 9.27468 72.8101C8.92819 75.5864 9.41844 78.4028 10.6826 80.8988C12.1088 83.7196 14.4445 85.9773 17.3123 87.307C20.1802 88.6367 23.4126 88.9608 26.4874 88.2269C29.5623 87.493 32.2998 85.744 34.2577 83.2624C36.2156 80.7809 37.2795 77.7118 37.2775 74.551Z" fill="url(#paint15_linear)"/>
<path d="M215.111 153.689C215.11 149.414 213.479 145.299 210.55 142.184C207.622 139.068 203.616 137.187 199.348 136.921C195.08 136.656 190.871 138.027 187.579 140.756C184.287 143.484 182.159 147.365 181.629 151.607C181.215 154.927 181.801 158.294 183.312 161.279C185.017 164.652 187.81 167.351 191.239 168.941C194.668 170.531 198.533 170.918 202.209 170.041C205.886 169.163 209.159 167.072 211.5 164.105C213.841 161.138 215.113 157.468 215.111 153.689Z" fill="url(#paint16_linear)"/>
<path d="M222.444 224.581C222.444 222.326 221.584 220.157 220.04 218.514C218.495 216.872 216.383 215.879 214.133 215.74C211.883 215.6 209.663 216.323 207.928 217.761C206.192 219.2 205.07 221.246 204.79 223.483C204.572 225.233 204.881 227.009 205.678 228.583C206.577 230.361 208.049 231.784 209.857 232.623C211.665 233.461 213.703 233.665 215.642 233.203C217.58 232.74 219.306 231.637 220.54 230.073C221.775 228.508 222.445 226.573 222.444 224.581Z" fill="url(#paint17_linear)"/>
<defs>
<linearGradient id="paint0_linear" x1="251.926" y1="119.234" x2="247.528" y2="107.79" gradientUnits="userSpaceOnUse">
<stop stop-color="#F7A491"/>
<stop offset="1" stop-color="#FFE8E5"/>
</linearGradient>
<linearGradient id="paint1_linear" x1="248.316" y1="112.469" x2="259.05" y2="126.415" gradientUnits="userSpaceOnUse">
<stop stop-color="#EB4BAC"/>
<stop offset="1" stop-color="#FCE1C2"/>
</linearGradient>
<linearGradient id="paint2_linear" x1="193.722" y1="63.8611" x2="179.056" y2="124.667" gradientUnits="userSpaceOnUse">
<stop stop-color="#C7E5FF"/>
<stop offset="1" stop-color="#010D1F"/>
</linearGradient>
<linearGradient id="paint3_linear" x1="280.447" y1="87.3103" x2="269.585" y2="72.4475" gradientUnits="userSpaceOnUse">
<stop stop-color="#F7A491"/>
<stop offset="1" stop-color="#FFE8E5"/>
</linearGradient>
<linearGradient id="paint4_linear" x1="276.706" y1="71.0585" x2="284.383" y2="88.6647" gradientUnits="userSpaceOnUse">
<stop stop-color="#EB4BAC"/>
<stop offset="1" stop-color="#FCE1C2"/>
</linearGradient>
<linearGradient id="paint5_linear" x1="143" y1="89.2223" x2="115.874" y2="60.2366" gradientUnits="userSpaceOnUse">
<stop stop-color="#F7A491"/>
<stop offset="1" stop-color="#FFE8E5"/>
</linearGradient>
<linearGradient id="paint6_linear" x1="220" y1="62.3334" x2="221.528" y2="95.9445" gradientUnits="userSpaceOnUse">
<stop stop-color="#C7E5FF"/>
<stop offset="1" stop-color="#07345A"/>
</linearGradient>
<linearGradient id="paint7_linear" x1="163.18" y1="56.3314" x2="160.184" y2="79.281" gradientUnits="userSpaceOnUse">
<stop stop-color="#FFE49E"/>
<stop offset="1" stop-color="#FFC633"/>
</linearGradient>
<linearGradient id="paint8_linear" x1="153.368" y1="37.9001" x2="148.416" y2="75.8309" gradientUnits="userSpaceOnUse">
<stop stop-color="#FFE5A3"/>
<stop offset="1" stop-color="#FFC52E"/>
</linearGradient>
<linearGradient id="paint9_linear" x1="140.555" y1="30.5557" x2="150.787" y2="45.9325" gradientUnits="userSpaceOnUse">
<stop stop-color="#F7A491"/>
<stop offset="1" stop-color="#FFE8E5"/>
</linearGradient>
<linearGradient id="paint10_linear" x1="156.445" y1="38.4999" x2="135.667" y2="21.9999" gradientUnits="userSpaceOnUse">
<stop stop-color="#F7A491"/>
<stop offset="1" stop-color="#FFE8E5"/>
</linearGradient>
<linearGradient id="paint11_linear" x1="175.695" y1="48.8888" x2="179.03" y2="61.3417" gradientUnits="userSpaceOnUse">
<stop stop-color="#F7A491"/>
<stop offset="1" stop-color="#FFE8E5"/>
</linearGradient>
<linearGradient id="paint12_linear" x1="47.3056" y1="240.53" x2="126.376" y2="97.1776" gradientUnits="userSpaceOnUse">
<stop stop-color="#8177F7"/>
<stop offset="1" stop-color="#799FF8"/>
</linearGradient>
<linearGradient id="paint13_linear" x1="51.7221" y1="255.977" x2="64.4001" y2="194.981" gradientUnits="userSpaceOnUse">
<stop stop-color="#8177F7"/>
<stop offset="1" stop-color="#799FF8"/>
</linearGradient>
<linearGradient id="paint14_linear" x1="46.855" y1="159.955" x2="65.9405" y2="82.7802" gradientUnits="userSpaceOnUse">
<stop stop-color="#8177F7"/>
<stop offset="1" stop-color="#799FF8"/>
</linearGradient>
<linearGradient id="paint15_linear" x1="17.1374" y1="84.656" x2="30.4627" y2="60.5" gradientUnits="userSpaceOnUse">
<stop stop-color="#EB4BAC"/>
<stop offset="1" stop-color="#FCE1C2"/>
</linearGradient>
<linearGradient id="paint16_linear" x1="191.03" y1="165.771" x2="206.963" y2="136.889" gradientUnits="userSpaceOnUse">
<stop stop-color="#5FA8ED"/>
<stop offset="1" stop-color="#7ED5B7"/>
</linearGradient>
<linearGradient id="paint17_linear" x1="209.747" y1="230.951" x2="218.148" y2="215.722" gradientUnits="userSpaceOnUse">
<stop stop-color="#73BCF9"/>
<stop offset="1" stop-color="#7A96F8"/>
</linearGradient>
<clipPath id="clip0">
<rect width="200.055" height="111.082" fill="white" transform="translate(97.49) rotate(7.43747)"/>
</clipPath>
</defs>
</svg>
