<svg width="23" height="22" viewBox="0 0 23 22" fill="none" xmlns="http://www.w3.org/2000/svg">
<g filter="url(#filter0_b)">
<mask id="path-1-inside-1" fill="white">
<path fill-rule="evenodd" clip-rule="evenodd" d="M18.2083 22H4.79167C2.14571 22 0 19.9476 0 17.4167V4.58333C0 2.05242 2.14571 0 4.79167 0H18.2083C20.8552 0 23 2.05242 23 4.58333V17.4167C23 19.9476 20.8552 22 18.2083 22ZM19.1667 10.5343C19.1667 7.25267 15.7272 4.58333 11.5 4.58333C7.27279 4.58333 3.83333 7.25267 3.83333 10.5343C3.83333 13.4759 6.56075 15.9399 10.2455 16.4056C10.4947 16.4569 10.8349 16.5632 10.9202 16.7677C10.9978 16.9528 10.971 17.2434 10.9451 17.4304L10.8359 18.0583C10.8023 18.2435 10.6816 18.7834 11.5 18.4534C12.3184 18.1234 15.915 15.9665 17.5241 14.1955H17.5231C18.6348 13.0304 19.1667 11.8479 19.1667 10.5343ZM8.64608 12.4291H6.4975L6.394 12.3897V12.3888L6.39304 12.3878L6.39017 12.3851L6.348 12.287V9.0915C6.348 9.01267 6.41508 8.9485 6.4975 8.9485H7.03608C7.11754 8.9485 7.18463 9.01267 7.18463 9.0915V11.6288H8.64608C8.7285 11.6288 8.79463 11.693 8.79463 11.7718V12.2861C8.79463 12.3649 8.7285 12.4291 8.64608 12.4291ZM16.6137 12.4291H14.4651L14.3616 12.3897L14.3577 12.3851L14.3156 12.287V9.0915L14.3577 8.99342L14.3616 8.98883L14.4651 8.9485H16.6137C16.6961 8.9485 16.7622 9.01267 16.7622 9.0915V9.60575C16.7622 9.68458 16.6961 9.74875 16.6137 9.74875H15.1522V10.2887H16.6137C16.6961 10.2887 16.7622 10.3528 16.7622 10.4317V10.9459C16.7622 11.0247 16.6961 11.0889 16.6137 11.0889H15.1522V11.6288H16.6137C16.6961 11.6288 16.7622 11.693 16.7622 11.7718V12.2861C16.7622 12.3649 16.6961 12.4291 16.6137 12.4291ZM9.94271 12.4291H9.40412C9.32171 12.4291 9.25462 12.3658 9.25462 12.287V9.0915C9.25462 9.01267 9.32171 8.9485 9.40412 8.9485H9.94271C10.0251 8.9485 10.0912 9.01267 10.0912 9.0915V12.287C10.0912 12.3649 10.0251 12.4291 9.94271 12.4291ZM11.3016 12.4291H10.764C10.6816 12.4291 10.6145 12.3658 10.6145 12.287V9.0915C10.6145 9.01267 10.6816 8.9485 10.764 8.9485H11.3016L11.3141 8.94942L11.3285 8.95125L11.3371 8.95308L11.3515 8.95675L11.3562 8.95858L11.3697 8.96408L11.3821 8.97142L11.3898 8.976L11.4013 8.98517L11.4042 8.98792L11.4137 8.998L11.4262 9.01175L12.9567 10.9899V9.0915C12.9567 9.01267 13.0237 8.9485 13.1062 8.9485H13.6438C13.7262 8.9485 13.7933 9.01267 13.7933 9.0915V12.287C13.7933 12.3649 13.7262 12.4291 13.6438 12.4291H13.1062L13.0678 12.4245L13.0659 12.4236L13.0506 12.419L13.0439 12.4163L13.0324 12.4107L13.0228 12.4053L13.0218 12.4043L12.9835 12.3686L11.4511 10.3886V12.287C11.4511 12.3649 11.384 12.4291 11.3016 12.4291Z"/>
</mask>
<path fill-rule="evenodd" clip-rule="evenodd" d="M18.2083 22H4.79167C2.14571 22 0 19.9476 0 17.4167V4.58333C0 2.05242 2.14571 0 4.79167 0H18.2083C20.8552 0 23 2.05242 23 4.58333V17.4167C23 19.9476 20.8552 22 18.2083 22ZM19.1667 10.5343C19.1667 7.25267 15.7272 4.58333 11.5 4.58333C7.27279 4.58333 3.83333 7.25267 3.83333 10.5343C3.83333 13.4759 6.56075 15.9399 10.2455 16.4056C10.4947 16.4569 10.8349 16.5632 10.9202 16.7677C10.9978 16.9528 10.971 17.2434 10.9451 17.4304L10.8359 18.0583C10.8023 18.2435 10.6816 18.7834 11.5 18.4534C12.3184 18.1234 15.915 15.9665 17.5241 14.1955H17.5231C18.6348 13.0304 19.1667 11.8479 19.1667 10.5343ZM8.64608 12.4291H6.4975L6.394 12.3897V12.3888L6.39304 12.3878L6.39017 12.3851L6.348 12.287V9.0915C6.348 9.01267 6.41508 8.9485 6.4975 8.9485H7.03608C7.11754 8.9485 7.18463 9.01267 7.18463 9.0915V11.6288H8.64608C8.7285 11.6288 8.79463 11.693 8.79463 11.7718V12.2861C8.79463 12.3649 8.7285 12.4291 8.64608 12.4291ZM16.6137 12.4291H14.4651L14.3616 12.3897L14.3577 12.3851L14.3156 12.287V9.0915L14.3577 8.99342L14.3616 8.98883L14.4651 8.9485H16.6137C16.6961 8.9485 16.7622 9.01267 16.7622 9.0915V9.60575C16.7622 9.68458 16.6961 9.74875 16.6137 9.74875H15.1522V10.2887H16.6137C16.6961 10.2887 16.7622 10.3528 16.7622 10.4317V10.9459C16.7622 11.0247 16.6961 11.0889 16.6137 11.0889H15.1522V11.6288H16.6137C16.6961 11.6288 16.7622 11.693 16.7622 11.7718V12.2861C16.7622 12.3649 16.6961 12.4291 16.6137 12.4291ZM9.94271 12.4291H9.40412C9.32171 12.4291 9.25462 12.3658 9.25462 12.287V9.0915C9.25462 9.01267 9.32171 8.9485 9.40412 8.9485H9.94271C10.0251 8.9485 10.0912 9.01267 10.0912 9.0915V12.287C10.0912 12.3649 10.0251 12.4291 9.94271 12.4291ZM11.3016 12.4291H10.764C10.6816 12.4291 10.6145 12.3658 10.6145 12.287V9.0915C10.6145 9.01267 10.6816 8.9485 10.764 8.9485H11.3016L11.3141 8.94942L11.3285 8.95125L11.3371 8.95308L11.3515 8.95675L11.3562 8.95858L11.3697 8.96408L11.3821 8.97142L11.3898 8.976L11.4013 8.98517L11.4042 8.98792L11.4137 8.998L11.4262 9.01175L12.9567 10.9899V9.0915C12.9567 9.01267 13.0237 8.9485 13.1062 8.9485H13.6438C13.7262 8.9485 13.7933 9.01267 13.7933 9.0915V12.287C13.7933 12.3649 13.7262 12.4291 13.6438 12.4291H13.1062L13.0678 12.4245L13.0659 12.4236L13.0506 12.419L13.0439 12.4163L13.0324 12.4107L13.0228 12.4053L13.0218 12.4043L12.9835 12.3686L11.4511 10.3886V12.287C11.4511 12.3649 11.384 12.4291 11.3016 12.4291Z" fill="url(#paint0_radial)"/>
<path fill-rule="evenodd" clip-rule="evenodd" d="M18.2083 22H4.79167C2.14571 22 0 19.9476 0 17.4167V4.58333C0 2.05242 2.14571 0 4.79167 0H18.2083C20.8552 0 23 2.05242 23 4.58333V17.4167C23 19.9476 20.8552 22 18.2083 22ZM19.1667 10.5343C19.1667 7.25267 15.7272 4.58333 11.5 4.58333C7.27279 4.58333 3.83333 7.25267 3.83333 10.5343C3.83333 13.4759 6.56075 15.9399 10.2455 16.4056C10.4947 16.4569 10.8349 16.5632 10.9202 16.7677C10.9978 16.9528 10.971 17.2434 10.9451 17.4304L10.8359 18.0583C10.8023 18.2435 10.6816 18.7834 11.5 18.4534C12.3184 18.1234 15.915 15.9665 17.5241 14.1955H17.5231C18.6348 13.0304 19.1667 11.8479 19.1667 10.5343ZM8.64608 12.4291H6.4975L6.394 12.3897V12.3888L6.39304 12.3878L6.39017 12.3851L6.348 12.287V9.0915C6.348 9.01267 6.41508 8.9485 6.4975 8.9485H7.03608C7.11754 8.9485 7.18463 9.01267 7.18463 9.0915V11.6288H8.64608C8.7285 11.6288 8.79463 11.693 8.79463 11.7718V12.2861C8.79463 12.3649 8.7285 12.4291 8.64608 12.4291ZM16.6137 12.4291H14.4651L14.3616 12.3897L14.3577 12.3851L14.3156 12.287V9.0915L14.3577 8.99342L14.3616 8.98883L14.4651 8.9485H16.6137C16.6961 8.9485 16.7622 9.01267 16.7622 9.0915V9.60575C16.7622 9.68458 16.6961 9.74875 16.6137 9.74875H15.1522V10.2887H16.6137C16.6961 10.2887 16.7622 10.3528 16.7622 10.4317V10.9459C16.7622 11.0247 16.6961 11.0889 16.6137 11.0889H15.1522V11.6288H16.6137C16.6961 11.6288 16.7622 11.693 16.7622 11.7718V12.2861C16.7622 12.3649 16.6961 12.4291 16.6137 12.4291ZM9.94271 12.4291H9.40412C9.32171 12.4291 9.25462 12.3658 9.25462 12.287V9.0915C9.25462 9.01267 9.32171 8.9485 9.40412 8.9485H9.94271C10.0251 8.9485 10.0912 9.01267 10.0912 9.0915V12.287C10.0912 12.3649 10.0251 12.4291 9.94271 12.4291ZM11.3016 12.4291H10.764C10.6816 12.4291 10.6145 12.3658 10.6145 12.287V9.0915C10.6145 9.01267 10.6816 8.9485 10.764 8.9485H11.3016L11.3141 8.94942L11.3285 8.95125L11.3371 8.95308L11.3515 8.95675L11.3562 8.95858L11.3697 8.96408L11.3821 8.97142L11.3898 8.976L11.4013 8.98517L11.4042 8.98792L11.4137 8.998L11.4262 9.01175L12.9567 10.9899V9.0915C12.9567 9.01267 13.0237 8.9485 13.1062 8.9485H13.6438C13.7262 8.9485 13.7933 9.01267 13.7933 9.0915V12.287C13.7933 12.3649 13.7262 12.4291 13.6438 12.4291H13.1062L13.0678 12.4245L13.0659 12.4236L13.0506 12.419L13.0439 12.4163L13.0324 12.4107L13.0228 12.4053L13.0218 12.4043L12.9835 12.3686L11.4511 10.3886V12.287C11.4511 12.3649 11.384 12.4291 11.3016 12.4291Z" stroke="url(#paint1_linear)" stroke-width="2" mask="url(#path-1-inside-1)"/>
</g>
<defs>
<filter id="filter0_b" x="-40" y="-40" width="103" height="102" filterUnits="userSpaceOnUse" color-interpolation-filters="sRGB">
<feFlood flood-opacity="0" result="BackgroundImageFix"/>
<feGaussianBlur in="BackgroundImage" stdDeviation="20"/>
<feComposite in2="SourceAlpha" operator="in" result="effect1_backgroundBlur"/>
<feBlend mode="normal" in="SourceGraphic" in2="effect1_backgroundBlur" result="shape"/>
</filter>
<radialGradient id="paint0_radial" cx="0" cy="0" r="1" gradientUnits="userSpaceOnUse" gradientTransform="translate(5.8453 2.00424) rotate(58.4137) scale(22.9261 20.9314)">
<stop stop-color="white" stop-opacity="0.4"/>
<stop offset="1" stop-color="white" stop-opacity="0"/>
</radialGradient>
<linearGradient id="paint1_linear" x1="17.8536" y1="0" x2="17.8536" y2="22" gradientUnits="userSpaceOnUse">
<stop stop-color="white" stop-opacity="0.4"/>
<stop offset="1" stop-color="white" stop-opacity="0.1"/>
</linearGradient>
</defs>
</svg>
