<svg width="317" height="352" viewBox="0 0 317 352" fill="none" xmlns="http://www.w3.org/2000/svg">
<path d="M0.000144747 179.336C0.00461358 156.522 8.70641 134.568 24.3333 117.945C39.9601 101.322 61.3367 91.2802 84.1095 89.8644C106.882 88.4487 129.338 95.7656 146.904 110.325C164.47 124.885 175.825 145.592 178.656 168.229C180.867 185.941 177.739 203.91 169.673 219.834C160.575 237.831 145.673 252.235 127.377 260.718C109.08 269.202 88.457 271.269 68.84 266.587C49.223 261.905 31.7579 250.746 19.2666 234.914C6.77534 219.082 -0.0124115 199.501 0.000144747 179.336Z" fill="url(#paint0_linear)"/>
<path d="M7.69007 215.728C51.0319 237.97 65.8931 228.642 112.201 212.14C138.666 202.698 157.984 210.992 169.669 219.832C162.005 234.966 150.206 247.615 135.641 256.312C121.075 265.01 104.342 269.398 87.3823 268.969C70.4228 268.539 53.9329 263.308 39.827 253.885C25.7211 244.461 14.5776 231.23 7.69007 215.728Z" fill="url(#paint1_linear)"/>
<path d="M3.44531 154.571C9.15623 134.716 21.5472 117.442 38.5243 105.667C55.5014 93.8922 76.0236 88.3384 96.6229 89.9443C117.222 91.5502 136.635 100.217 151.582 114.481C166.529 128.745 176.092 147.731 178.656 168.23C170.771 160.793 161.439 155.059 151.242 151.382C141.045 147.705 130.201 146.166 119.383 146.858C72.2498 149.63 36.0252 182.926 3.44531 154.571Z" fill="url(#paint2_linear)"/>
<path d="M184.03 264.195C184.032 253.842 187.981 243.879 195.073 236.335C202.164 228.792 211.865 224.235 222.2 223.592C232.534 222.95 242.725 226.27 250.697 232.877C258.668 239.485 263.821 248.882 265.106 259.155C266.109 267.193 264.69 275.347 261.029 282.573C256.9 290.74 250.138 297.277 241.835 301.127C233.532 304.977 224.173 305.915 215.27 303.79C206.368 301.665 198.442 296.601 192.774 289.417C187.105 282.232 184.025 273.346 184.03 264.195Z" fill="url(#paint3_linear)"/>
<path d="M144.184 37.5659C141.01 41.1004 141.515 47.6644 146.131 49.9005C153.85 43.4807 146.853 38.3593 144.184 37.5659Z" fill="#BA68C8"/>
<path opacity="0.3" d="M144.184 37.5659C141.01 41.1004 141.515 47.6644 146.131 49.9005C153.85 43.4807 146.853 38.3593 144.184 37.5659Z" fill="black"/>
<path d="M171.811 35.1135C164.597 32.1561 151.83 36.3397 140.577 38.7201C121.101 38.2873 100.76 47.8088 100.76 47.8088C100.76 47.8088 94.6287 46.5826 91.5991 47.8088C88.5696 49.0351 89.7237 54.8057 90.9499 56.0319C92.1762 57.1861 96.5042 57.9795 96.5042 57.9795C96.5042 58.6287 97.0091 59.2058 97.6583 59.2058H97.9468C99.678 59.35 101.409 58.8451 102.708 57.691C103.357 57.186 103.862 56.5368 104.294 55.8155L106.026 52.786C124.636 50.622 139.279 49.3236 139.279 49.3236L171.089 46.7268L171.811 35.1135Z" fill="url(#paint4_linear)"/>
<path d="M146.131 49.9004C146.131 49.9004 150.531 44.4183 144.184 37.5657C151.036 35.6182 166.328 31.0017 171.81 35.1853L170.945 46.8708L146.131 49.9004Z" fill="url(#paint5_linear)"/>
<path opacity="0.3" d="M96.4321 58.0515L98.0912 58.1957C98.524 58.2679 98.8846 58.1236 99.2453 57.9072L100.472 57.1137C100.904 56.8252 101.121 56.3203 101.049 55.8153L100.688 53.5792L101.409 54.3727C101.842 54.8776 101.986 55.5989 101.842 56.2481C101.698 56.8252 101.265 57.258 100.76 57.5465L99.3174 58.2678C98.9568 58.4121 98.5961 58.4842 98.2354 58.4121L96.4321 58.0515Z" fill="black"/>
<path d="M297.61 25.8803C298.692 25.5197 300.351 25.9525 301.721 26.8902C303.092 27.9 304.029 29.3427 305.039 30.6411C306.554 32.6608 308.285 34.4641 310.161 36.051C311.387 37.0609 312.613 37.9986 313.695 39.0806C314.777 40.2347 315.643 41.6052 315.787 43.12C315.931 44.202 315.643 45.3561 314.994 46.2217C316.148 45.3561 316.653 43.8413 316.508 42.3987C316.364 40.8839 315.426 39.4413 314.417 38.3593C313.335 37.2051 312.108 36.3395 310.882 35.3297C308.934 33.7428 307.203 31.8673 305.761 29.9198C304.751 28.5492 303.813 26.9623 302.443 25.9525C301.072 24.9426 299.341 24.5819 298.331 24.9426L297.61 25.8803Z" fill="#263238"/>
<path d="M308.358 40.8116C307.348 39.8017 306.266 41.6772 304.39 41.6772C304.823 42.0378 305.184 42.3985 305.544 42.8313C307.564 42.3985 309.007 41.4608 308.358 40.8116Z" fill="white"/>
<path d="M306.193 38.7921C305.183 37.7822 303.741 39.8019 301.721 39.8741C302.009 40.0183 302.298 40.1626 302.587 40.379C302.803 40.5233 303.019 40.6675 303.308 40.8839C305.4 40.4511 306.915 39.5134 306.193 38.7921Z" fill="white"/>
<path d="M293.138 32.372C292.849 32.7327 292.777 33.2377 292.85 33.6704L298.043 39.1525C299.341 38.9361 300.64 39.2968 301.794 39.8738C303.814 39.8017 305.256 37.8541 306.266 38.7918C306.915 39.441 305.473 40.4509 303.381 40.8116C303.742 41.1001 304.102 41.3886 304.391 41.6771C306.338 41.605 307.42 39.8017 308.358 40.8116C309.007 41.4608 307.565 42.4706 305.545 42.8313C305.761 43.0477 306.05 43.3362 306.266 43.5526C306.483 43.769 306.699 44.0575 306.915 44.2739C310.45 44.7067 312.253 43.1919 314.634 40.3066C314.345 39.8738 314.056 39.5132 313.696 39.1525C312.614 37.9984 311.388 37.1328 310.161 36.1229C308.214 34.536 306.483 32.6606 305.04 30.713C304.03 29.3425 303.092 27.8998 301.722 26.9621C300.351 25.9523 298.62 25.5916 297.61 25.9523L293.138 32.372Z" fill="#455A64"/>
<path d="M306.915 44.2742C307.708 45.2119 308.501 46.2939 309.583 46.9431C310.954 47.7365 312.685 48.0251 314.056 47.2316C314.416 47.0152 314.777 46.7267 315.066 46.366C315.715 45.5004 316.003 44.3463 315.859 43.2643C315.715 42.1823 315.282 41.1725 314.633 40.3069C312.252 43.1201 310.377 44.6348 306.915 44.2742Z" fill="white"/>
<path d="M290.901 47.0149L299.269 38.2868C299.846 37.7098 299.846 36.772 299.269 36.195L296.6 33.5261C295.662 32.5883 294.147 32.5883 293.209 33.4539L284.049 41.677L290.901 47.0149Z" fill="url(#paint6_linear)"/>
<path d="M264.357 6.837C265.294 6.25994 267.098 6.33208 268.613 6.98128C270.127 7.63047 271.354 8.85671 272.652 10.0108C274.527 11.6699 276.619 13.1125 278.783 14.2666C280.154 14.988 281.596 15.6372 282.895 16.5028C284.193 17.3684 285.275 18.5946 285.78 20.0373C286.141 21.1192 286.069 22.2734 285.636 23.2832C286.574 22.2012 286.79 20.6143 286.285 19.2438C285.78 17.8012 284.626 16.5749 283.4 15.7093C282.101 14.8437 280.659 14.1945 279.288 13.4732C277.052 12.3191 275.032 10.8764 273.157 9.21737C271.858 8.13538 270.632 6.69273 269.117 6.04354C267.603 5.39435 265.799 5.32223 264.862 5.89929L264.357 6.837Z" fill="#263238"/>
<path d="M277.989 19.2433C276.835 18.4499 276.114 20.4696 274.238 20.9024C274.743 21.1909 275.176 21.4794 275.609 21.768C277.556 20.9745 278.783 19.7483 277.989 19.2433Z" fill="white"/>
<path d="M275.464 17.7289C274.31 16.9354 273.228 19.2437 271.281 19.6765C271.569 19.7486 271.93 19.8207 272.218 19.965C272.507 20.0371 272.723 20.1814 273.012 20.3257C275.032 19.5322 276.258 18.2338 275.464 17.7289Z" fill="white"/>
<path d="M261.327 14.1221C261.182 14.5549 261.182 15.0598 261.327 15.4926L267.53 19.7484C268.756 19.3156 270.055 19.3156 271.353 19.6763C273.301 19.2435 274.311 16.9353 275.537 17.7287C276.33 18.2337 275.104 19.5321 273.084 20.3255C273.517 20.5419 273.878 20.6862 274.238 20.9026C276.114 20.4698 276.835 18.4501 277.989 19.2435C278.783 19.7485 277.557 20.9747 275.609 21.7682C275.897 21.9846 276.186 22.1288 276.475 22.3452C276.763 22.4895 276.979 22.7059 277.268 22.9223C280.802 22.6337 282.317 20.7583 284.048 17.4402C283.688 17.0795 283.327 16.791 282.894 16.5025C281.596 15.6369 280.153 14.9877 278.783 14.2664C276.547 13.1122 274.527 11.6696 272.652 10.0105C271.353 8.92856 270.199 7.70232 268.612 6.98099C267.097 6.3318 265.294 6.25966 264.356 6.83672L261.327 14.1221Z" fill="#455A64"/>
<path d="M277.268 22.922C278.278 23.7154 279.215 24.5811 280.442 25.0139C281.956 25.5188 283.76 25.4466 284.914 24.3646C285.275 24.0761 285.491 23.7154 285.707 23.2827C286.14 22.2728 286.212 21.1187 285.852 20.0367C285.491 19.0268 284.842 18.1613 284.048 17.3678C282.317 20.758 280.802 22.5613 277.268 22.922Z" fill="white"/>
<path d="M262.193 28.9096L268.54 18.6668C268.973 17.9455 268.829 17.0799 268.107 16.575L264.934 14.4831C263.852 13.7618 262.337 14.0503 261.615 15.1323L254.33 25.0866L262.193 28.9096Z" fill="url(#paint7_linear)"/>
<path d="M219.201 78.8255C237.09 78.8977 250.651 77.3829 259.019 76.1567C265.006 75.2911 270.415 72.2615 274.455 67.7893L294.508 45.2839C291.983 38.8641 283.471 36.2673 283.471 36.2673C277.989 42.9035 260.75 49.9004 258.658 57.5464C250.363 56.0317 239.11 55.8153 239.11 55.8153L243.726 53.9398C247.405 52.425 250.507 49.8283 252.599 46.5102L266.304 24.7261C261.182 18.7391 252.527 18.3063 252.527 18.3063C248.776 25.9524 237.956 34.0312 235.648 40.451C218.769 41.8937 212.349 45.0675 205.929 49.0348L219.201 78.8255Z" fill="url(#paint8_linear)"/>
<g opacity="0.2">
<path opacity="0.5" d="M265.294 65.9139C266.953 58.2679 262.986 54.9498 260.822 53.8678C259.74 55.0941 258.946 56.3203 258.658 57.6187C263.924 59.8548 265.222 64.6155 265.294 65.9139Z" fill="black"/>
<path opacity="0.5" d="M221.438 47.4479C221.438 47.4479 227.352 48.9627 232.762 55.8153C232.762 55.8153 235.215 55.7431 239.11 55.8153L243.726 53.9398C244.015 53.7955 244.231 53.7234 244.52 53.5791L234.421 54.0119C234.421 54.0119 229.444 48.2413 221.438 47.4479Z" fill="black"/>
<path opacity="0.5" d="M242.212 46.438C242.5 40.6674 238.822 38.3592 237.162 37.5657C236.513 38.5756 236.008 39.5133 235.648 40.5232C239.615 41.4609 241.851 45.0675 242.212 46.438Z" fill="black"/>
</g>
<path d="M165.607 39.2967C163.083 58.1954 170.729 73.199 189.195 78.6089C199.077 81.4221 219.995 79.9794 219.995 79.9794C226.559 63.6775 221.077 55.9593 205.929 48.9624C196.552 51.992 194.316 41.1721 193.883 39.8737C187.103 36.3392 170.152 31.2178 170.152 31.2178C166.401 33.0211 165.607 39.2967 165.607 39.2967Z" fill="url(#paint9_linear)"/>
<path d="M183.135 36.7001L180.394 31.7951L169.502 39.1526C170.945 41.1002 172.387 42.9756 173.83 44.9232C175.705 45.7167 177.797 46.0052 179.673 45.1396C181.548 44.274 182.991 42.6871 183.64 40.7395C184.073 39.369 183.856 38.0706 183.135 36.7001Z" fill="url(#paint10_linear)"/>
<path opacity="0.3" d="M179.456 32.5165C179.456 38.4313 174.768 41.1724 171.882 42.2544L169.574 39.1527L179.456 32.5165Z" fill="black"/>
<path d="M182.414 27.8999C181.477 29.054 180.323 30.0638 178.88 30.2081C177.004 30.4245 175.273 28.9818 174.191 27.4671C173.109 25.8801 172.388 24.0768 171.017 22.7063C169.286 20.903 166.689 20.1095 164.237 20.1817C161.712 20.2538 159.26 21.1194 157.024 22.2014C155.22 21.1915 153.778 19.4603 153.129 17.5128C152.696 16.1422 152.624 14.6275 152.912 13.1848C153.056 12.5356 153.85 12.3914 154.211 12.8963C154.427 13.1848 154.715 13.4733 154.932 13.6897C154.788 11.3815 155.293 9.07325 156.519 7.05354C157.529 5.39449 158.971 4.02398 160.63 3.08625C161.135 2.79772 161.784 3.01412 162.073 3.51905C162.361 4.16825 162.794 4.67318 163.371 5.10598C165.03 2.79774 167.339 0.994422 170.008 0.0566988C170.585 -0.159699 171.162 0.273101 171.162 0.850161C171.45 4.74532 178.086 7.26995 180.25 9.00113C180.539 7.91914 181.188 6.98141 182.198 6.40435C183.136 5.75516 184.362 5.53876 185.444 5.68303C184.218 6.90928 183.064 8.20768 181.837 9.43393C183.136 9.3618 184.434 9.1454 185.588 8.64047C186.237 8.35194 186.959 8.78474 187.031 9.50607C187.247 11.093 186.814 12.8242 185.877 14.1225C186.31 13.9061 186.67 13.7619 187.031 13.5455C187.464 13.3291 187.969 13.6898 187.896 14.1947C187.536 16.3587 186.526 18.4505 184.867 19.8931C185.155 19.8931 185.444 19.821 185.732 19.7489C186.31 19.6046 186.814 19.9653 186.742 20.5423C186.526 21.6965 185.949 22.7784 185.3 23.7883C184.506 25.0867 183.424 26.6736 182.414 27.8999Z" fill="#263238"/>
<path d="M156.447 15.709C155.293 22.7059 156.086 29.9913 158.683 36.5554C159.26 38.0701 160.054 39.6571 161.496 40.4505C163.011 41.3161 164.814 41.0997 166.545 40.8833C169.287 40.4505 172.028 39.8735 174.552 38.6472C177.005 37.3488 179.169 35.3291 180.106 32.7323C181.91 33.1651 183.785 32.2995 184.939 30.8569C186.093 29.3421 186.454 27.4667 186.526 25.5912C186.526 24.365 186.31 22.9944 185.228 22.4895C184.218 21.9846 183.064 22.5616 182.198 23.283C180.756 24.4371 179.746 26.024 179.241 27.7552C178.447 24.8699 177.221 22.0567 176.428 19.0993C176.139 17.9452 175.706 16.7189 174.769 16.0697C173.542 15.2762 171.955 15.709 170.513 16.0697C166.113 17.0074 160.631 17.0074 156.447 15.709Z" fill="url(#paint11_linear)"/>
<path d="M164.958 24.5095L161.496 30.2801L165.608 31.0015L164.958 24.5095Z" fill="#FCDDCD"/>
<path d="M169.503 33.0212C168.493 33.5261 167.411 34.031 166.401 34.536C166.834 35.2573 167.988 35.5458 168.709 35.1852C169.503 34.8245 169.719 33.8146 169.503 33.0212Z" fill="#F28F8F"/>
<path opacity="0.3" d="M169.503 33.0212C168.493 33.5261 167.411 34.031 166.401 34.536C166.834 35.2573 167.988 35.5458 168.709 35.1852C169.503 34.8245 169.719 33.8146 169.503 33.0212Z" fill="black"/>
<path d="M167.699 35.2572C168.06 35.3293 168.421 35.3293 168.781 35.185C169.358 34.8965 169.647 34.2473 169.575 33.526C169.142 33.526 168.709 33.6703 168.348 33.9588C167.988 34.2473 167.699 34.7523 167.699 35.2572Z" fill="#F28F8F"/>
<path d="M170.801 24.7259C170.873 25.3751 170.368 25.9521 169.791 26.0243C169.142 26.0964 168.565 25.5915 168.493 25.0144C168.421 24.3652 168.926 23.7882 169.503 23.716C170.152 23.6439 170.729 24.0767 170.801 24.7259Z" fill="#263238"/>
<path d="M161.063 25.375C161.135 26.0242 160.63 26.6012 160.053 26.6734C159.404 26.7455 158.827 26.2406 158.755 25.6635C158.683 25.0143 159.188 24.4372 159.765 24.3651C160.414 24.2209 160.991 24.7258 161.063 25.375Z" fill="#263238"/>
<path d="M159.404 20.8308C158.611 21.48 157.817 22.2014 157.024 22.8506C156.735 22.2735 156.879 21.48 157.312 20.9751C157.817 20.5423 158.827 20.5423 159.404 20.8308Z" fill="#263238"/>
<path d="M169.358 19.6767C170.296 20.1817 171.162 20.6866 172.099 21.1915C172.316 20.5423 171.955 19.821 171.378 19.3882C170.873 19.0997 169.863 19.3161 169.358 19.6767Z" fill="#263238"/>
<path d="M227.353 61.5139L212.061 49.2513C206.723 44.9955 200.591 41.8217 193.955 40.0184C193.162 48.8185 197.634 57.2581 205.352 61.6581L219.707 69.8091L220.356 94.9834L220.139 99.7441L217.471 101.475L212.854 106.957C212.638 107.246 212.566 107.679 212.782 107.967C213.07 108.328 213.575 108.472 213.936 108.256L218.048 105.731L217.254 109.771C217.11 110.348 216.893 110.853 216.605 111.357L213.503 115.83C213.215 116.262 213.287 116.767 213.647 117.128C213.936 117.417 214.369 117.417 214.729 117.272L217.543 116.046C221.221 114.387 223.962 111.213 225.117 107.39L227.136 100.61C227.425 99.5999 227.641 98.59 227.713 97.5801L230.526 69.0157C230.815 66.2025 229.589 63.3172 227.353 61.5139Z" fill="url(#paint12_linear)"/>
<path d="M193.955 39.9461L199.293 41.6052C203.26 42.8314 207.011 44.7069 210.474 47.0872L219.49 53.507C219.418 61.081 211.339 66.7794 211.339 66.7794L200.014 60.0711C194.676 56.8973 191.863 50.766 193.017 44.6347L193.955 39.9461Z" fill="url(#paint13_linear)"/>
<path d="M111.087 336.603C111.088 332.688 112.582 328.919 115.264 326.066C117.946 323.213 121.615 321.489 125.524 321.246C129.433 321.003 133.287 322.259 136.302 324.758C139.317 327.257 141.266 330.811 141.752 334.697C142.132 337.737 141.595 340.821 140.21 343.555C138.649 346.644 136.091 349.116 132.95 350.572C129.81 352.028 126.27 352.383 122.903 351.579C119.536 350.776 116.538 348.86 114.394 346.143C112.25 343.425 111.085 340.065 111.087 336.603Z" fill="url(#paint14_linear)"/>
<defs>
<linearGradient id="paint0_linear" x1="128.493" y1="243.805" x2="43.4783" y2="89.6913" gradientUnits="userSpaceOnUse">
<stop stop-color="#5FA8ED"/>
<stop offset="1" stop-color="#7ED5B7"/>
</linearGradient>
<linearGradient id="paint1_linear" x1="123.74" y1="260.41" x2="110.108" y2="194.832" gradientUnits="userSpaceOnUse">
<stop stop-color="#5FA8ED"/>
<stop offset="1" stop-color="#7ED5B7"/>
</linearGradient>
<linearGradient id="paint2_linear" x1="128.975" y1="157.177" x2="108.454" y2="74.2064" gradientUnits="userSpaceOnUse">
<stop stop-color="#5FA8ED"/>
<stop offset="1" stop-color="#7ED5B7"/>
</linearGradient>
<linearGradient id="paint3_linear" x1="242.341" y1="293.451" x2="203.761" y2="223.514" gradientUnits="userSpaceOnUse">
<stop stop-color="#73BCF9"/>
<stop offset="1" stop-color="#7A96F8"/>
</linearGradient>
<linearGradient id="paint4_linear" x1="130.742" y1="34.0942" x2="130.742" y2="59.2298" gradientUnits="userSpaceOnUse">
<stop stop-color="#F7BC9C"/>
<stop offset="1" stop-color="#FCDDCD"/>
</linearGradient>
<linearGradient id="paint5_linear" x1="157.997" y1="33.4858" x2="157.997" y2="49.9004" gradientUnits="userSpaceOnUse">
<stop stop-color="#DE6069"/>
<stop offset="1" stop-color="#F4A494"/>
</linearGradient>
<linearGradient id="paint6_linear" x1="291.875" y1="32.8135" x2="291.875" y2="47.0149" gradientUnits="userSpaceOnUse">
<stop stop-color="#F7BB9B"/>
<stop offset="1" stop-color="#FCDDCD"/>
</linearGradient>
<linearGradient id="paint7_linear" x1="261.557" y1="14.0862" x2="261.557" y2="28.9096" gradientUnits="userSpaceOnUse">
<stop stop-color="#F7BC9C"/>
<stop offset="1" stop-color="#F6C6AE"/>
</linearGradient>
<linearGradient id="paint8_linear" x1="231.045" y1="26.8213" x2="242.916" y2="92.5073" gradientUnits="userSpaceOnUse">
<stop stop-color="#4E46A4"/>
<stop offset="1" stop-color="#799FF8"/>
</linearGradient>
<linearGradient id="paint9_linear" x1="213.02" y1="31.0169" x2="193.933" y2="80.3493" gradientUnits="userSpaceOnUse">
<stop stop-color="#CD3641"/>
<stop offset="0.639986" stop-color="#F18F96"/>
<stop offset="1" stop-color="#F4A693"/>
</linearGradient>
<linearGradient id="paint10_linear" x1="180.92" y1="34.263" x2="176.953" y2="45.4436" gradientUnits="userSpaceOnUse">
<stop stop-color="#F7BB9B"/>
<stop offset="1" stop-color="#F6C6AE"/>
</linearGradient>
<linearGradient id="paint11_linear" x1="186.331" y1="28.1313" x2="137.281" y2="28.1313" gradientUnits="userSpaceOnUse">
<stop stop-color="#F7B998"/>
<stop offset="1" stop-color="#F5CEBC"/>
</linearGradient>
<linearGradient id="paint12_linear" x1="250.889" y1="66.3622" x2="210.495" y2="78.6247" gradientUnits="userSpaceOnUse">
<stop stop-color="#F7BE9F"/>
<stop offset="1" stop-color="#FCDDCD"/>
</linearGradient>
<linearGradient id="paint13_linear" x1="212.659" y1="43.2796" x2="206.126" y2="66.7794" gradientUnits="userSpaceOnUse">
<stop stop-color="#DF636C"/>
<stop offset="1" stop-color="#F4A394"/>
</linearGradient>
<linearGradient id="paint14_linear" x1="121.542" y1="366.692" x2="121.542" y2="321.217" gradientUnits="userSpaceOnUse">
<stop offset="0.169841" stop-color="#EA5AB1"/>
<stop offset="0.942708" stop-color="#F9E1C5"/>
</linearGradient>
</defs>
</svg>
