<svg width="37" height="35" viewBox="0 0 37 35" fill="none" xmlns="http://www.w3.org/2000/svg">
<g filter="url(#filter0_b)">
<path d="M10.3758 13.7251L8.33333 15.8333H6.66667V17.4167H5V19H0V15.0417L5.72083 9.54037C6.62083 11.4594 8.3 12.973 10.3758 13.7251ZM20 6.33333C20 9.83092 17.015 12.6667 13.3333 12.6667C9.65167 12.6667 6.66667 9.83092 6.66667 6.33333C6.66667 2.83575 9.65167 0 13.3333 0C17.015 0 20 2.83575 20 6.33333ZM17.5 3.95833C17.5 3.08433 16.7533 2.375 15.8333 2.375C14.9133 2.375 14.1667 3.08433 14.1667 3.95833C14.1667 4.83233 14.9133 5.54167 15.8333 5.54167C16.7533 5.54167 17.5 4.83233 17.5 3.95833Z" fill="url(#paint0_radial)"/>
<path d="M6.16667 15.8333V16.9167H5H4.5V17.4167V18.5H0.5V15.2545L5.5864 10.3633C6.47213 11.9024 7.84549 13.1439 9.5034 13.9071L8.12157 15.3333H6.66667H6.16667V15.8333ZM19.5 6.33333C19.5 9.53092 16.7633 12.1667 13.3333 12.1667C9.90333 12.1667 7.16667 9.53092 7.16667 6.33333C7.16667 3.13575 9.90333 0.5 13.3333 0.5C16.7633 0.5 19.5 3.13575 19.5 6.33333ZM18 3.95833C18 2.78433 17.005 1.875 15.8333 1.875C14.6617 1.875 13.6667 2.78433 13.6667 3.95833C13.6667 5.13233 14.6617 6.04167 15.8333 6.04167C17.005 6.04167 18 5.13233 18 3.95833Z" stroke="url(#paint1_linear)"/>
</g>
<path d="M19.9849 34.2422L19.9839 34.2432C19.821 34.4074 19.5975 34.5 19.3642 34.5C19.1308 34.5 18.9074 34.4074 18.7444 34.2432L18.7434 34.2422L10.9597 26.4443L10.9597 26.4443C10.3466 25.8302 10.3471 24.8345 10.9593 24.2224L10.9597 24.222L11.9343 23.2456C11.9343 23.2455 11.9343 23.2455 11.9344 23.2455C12.5471 22.632 13.5384 22.6321 14.1508 23.2455C14.1508 23.2455 14.1508 23.2455 14.1508 23.2455L19.0103 28.1134L19.3642 28.4678L19.718 28.1134L32.8492 14.9602C32.8492 14.9601 32.8492 14.9601 32.8492 14.9601C33.4621 14.3464 34.4545 14.3469 35.0654 14.9598L35.0656 14.9601L36.0403 15.9366L36.0403 15.9366C36.6534 16.5507 36.653 17.5461 36.0406 18.1586L36.0403 18.1589L19.9849 34.2422Z" fill="url(#paint2_radial)" stroke="url(#paint3_linear)"/>
<defs>
<filter id="filter0_b" x="-40" y="-40" width="100" height="99" filterUnits="userSpaceOnUse" color-interpolation-filters="sRGB">
<feFlood flood-opacity="0" result="BackgroundImageFix"/>
<feGaussianBlur in="BackgroundImage" stdDeviation="20"/>
<feComposite in2="SourceAlpha" operator="in" result="effect1_backgroundBlur"/>
<feBlend mode="normal" in="SourceGraphic" in2="effect1_backgroundBlur" result="shape"/>
</filter>
<radialGradient id="paint0_radial" cx="0" cy="0" r="1" gradientUnits="userSpaceOnUse" gradientTransform="translate(5.08287 1.73093) rotate(58.2385) scale(19.8372 18.1669)">
<stop stop-color="white" stop-opacity="0.4"/>
<stop offset="1" stop-color="white" stop-opacity="0"/>
</radialGradient>
<linearGradient id="paint1_linear" x1="15.5249" y1="0" x2="15.5249" y2="19" gradientUnits="userSpaceOnUse">
<stop stop-color="white" stop-opacity="0.4"/>
<stop offset="1" stop-color="white" stop-opacity="0.1"/>
</linearGradient>
<radialGradient id="paint2_radial" cx="0" cy="0" r="1" gradientUnits="userSpaceOnUse" gradientTransform="translate(16.8619 15.9131) rotate(52.9041) scale(23.3718 23.0075)">
<stop stop-color="white" stop-opacity="0.4"/>
<stop offset="1" stop-color="white" stop-opacity="0"/>
</radialGradient>
<linearGradient id="paint3_linear" x1="30.9586" y1="14" x2="30.9586" y2="35" gradientUnits="userSpaceOnUse">
<stop stop-color="white" stop-opacity="0.4"/>
<stop offset="1" stop-color="white" stop-opacity="0.1"/>
</linearGradient>
</defs>
</svg>
