<svg width="35" height="35" viewBox="0 0 35 35" fill="none" xmlns="http://www.w3.org/2000/svg">
<path d="M32.5833 11.6667V11.1667H32.0833H2.91667H2.41667V11.6667V32.0833V32.5833H2.91667H32.0833H32.5833V32.0833V11.6667ZM28.6667 28.6667H23.8333V23.8333H28.6667V28.6667ZM15.0833 19.9167V15.0833H19.9167V19.9167H15.0833ZM23.8333 15.0833H28.6667V19.9167H23.8333V15.0833ZM6.33333 28.6667V23.8333H11.1667V28.6667H6.33333ZM15.0833 28.6667V23.8333H19.9167V28.6667H15.0833ZM6.33333 19.9167V15.0833H11.1667V19.9167H6.33333ZM34.5 3.41667V34.5H0.5V3.41667H3.875V4.375C3.875 6.25968 5.40698 7.79167 7.29167 7.79167C9.17635 7.79167 10.7083 6.25968 10.7083 4.375V3.41667H24.2917V4.375C24.2917 6.25968 25.8237 7.79167 27.7083 7.79167C29.593 7.79167 31.125 6.25968 31.125 4.375V3.41667H34.5ZM27.7083 0.5C28.2383 0.5 28.6667 0.92915 28.6667 1.45833V4.375C28.6667 4.90418 28.2383 5.33333 27.7083 5.33333C27.1783 5.33333 26.75 4.90418 26.75 4.375V1.45833C26.75 0.929151 27.1783 0.5 27.7083 0.5ZM8.25 4.375C8.25 4.90418 7.82166 5.33333 7.29167 5.33333C6.76168 5.33333 6.33333 4.90418 6.33333 4.375V1.45833C6.33333 0.92915 6.76168 0.5 7.29167 0.5C7.82166 0.5 8.25 0.92915 8.25 1.45833V4.375Z" fill="url(#paint0_radial)" stroke="url(#paint1_linear)"/>
<defs>
<radialGradient id="paint0_radial" cx="0" cy="0" r="1" gradientUnits="userSpaceOnUse" gradientTransform="translate(8.89503 3.18856) rotate(59.5385) scale(36.0452 32.2305)">
<stop stop-color="white" stop-opacity="0.4"/>
<stop offset="1" stop-color="white" stop-opacity="0"/>
</radialGradient>
<linearGradient id="paint1_linear" x1="27.1685" y1="0" x2="27.1685" y2="35" gradientUnits="userSpaceOnUse">
<stop stop-color="white" stop-opacity="0.4"/>
<stop offset="1" stop-color="white" stop-opacity="0.1"/>
</linearGradient>
</defs>
</svg>
