<svg width="28" height="30" viewBox="0 0 28 30" fill="none" xmlns="http://www.w3.org/2000/svg">
<path d="M24.8804 28H26.8684V29.5H0.5V28H2.48804H2.98804V27.5V0.5H24.3804V27.5V28H24.8804ZM8.70813 23.25H8.20813V23.75V28.75V29.25H8.70813H12.4402H12.9402V28.75V23.75V23.25H12.4402H8.70813ZM14.9282 23.25H14.4282V23.75V28.75V29.25H14.9282H18.6603H19.1603V28.75V23.75V23.25H18.6603H14.9282ZM7.96412 17.5V17H7.46412H4.97608H4.47608V17.5V20V20.5H4.97608H7.46412H7.96412V20V17.5ZM17.9163 17.5V17H17.4163H14.9282H14.4282V17.5V20V20.5H14.9282H17.4163H17.9163V20V17.5ZM12.9402 17.5V17H12.4402H9.95215H9.45215V17.5V20V20.5H9.95215H12.4402H12.9402V20V17.5ZM22.8923 17.5V17H22.3923H19.9043H19.4043V17.5V20V20.5H19.9043H22.3923H22.8923V20V17.5ZM7.96412 12.5V12H7.46412H4.97608H4.47608V12.5V15V15.5H4.97608H7.46412H7.96412V15V12.5ZM17.9163 12.5V12H17.4163H14.9282H14.4282V12.5V15V15.5H14.9282H17.4163H17.9163V15V12.5ZM12.9402 12.5V12H12.4402H9.95215H9.45215V12.5V15V15.5H9.95215H12.4402H12.9402V15V12.5ZM22.8923 12.5V12H22.3923H19.9043H19.4043V12.5V15V15.5H19.9043H22.3923H22.8923V15V12.5ZM7.96412 7.5V7H7.46412H4.97608H4.47608V7.5V10V10.5H4.97608H7.46412H7.96412V10V7.5ZM17.9163 7.5V7H17.4163H14.9282H14.4282V7.5V10V10.5H14.9282H17.4163H17.9163V10V7.5ZM12.9402 7.5V7H12.4402H9.95215H9.45215V7.5V10V10.5H9.95215H12.4402H12.9402V10V7.5ZM22.8923 7.5V7H22.3923H19.9043H19.4043V7.5V10V10.5H19.9043H22.3923H22.8923V10V7.5ZM7.96412 2.5V2H7.46412H4.97608H4.47608V2.5V5V5.5H4.97608H7.46412H7.96412V5V2.5ZM17.9163 2.5V2H17.4163H14.9282H14.4282V2.5V5V5.5H14.9282H17.4163H17.9163V5V2.5ZM12.9402 2.5V2H12.4402H9.95215H9.45215V2.5V5V5.5H9.95215H12.4402H12.9402V5V2.5ZM22.8923 2.5V2H22.3923H19.9043H19.4043V2.5V5V5.5H19.9043H22.3923H22.8923V5V2.5Z" fill="url(#paint0_radial)" stroke="url(#paint1_linear)"/>
<defs>
<radialGradient id="paint0_radial" cx="0" cy="0" r="1" gradientUnits="userSpaceOnUse" gradientTransform="translate(6.95551 2.73305) rotate(61.7842) scale(30.2226 25.7643)">
<stop stop-color="white" stop-opacity="0.4"/>
<stop offset="1" stop-color="white" stop-opacity="0"/>
</radialGradient>
<linearGradient id="paint1_linear" x1="21.2445" y1="0" x2="21.2445" y2="30" gradientUnits="userSpaceOnUse">
<stop stop-color="white" stop-opacity="0.4"/>
<stop offset="1" stop-color="white" stop-opacity="0.1"/>
</linearGradient>
</defs>
</svg>
