<svg width="31" height="31" viewBox="0 0 31 31" fill="none" xmlns="http://www.w3.org/2000/svg">
<mask id="path-1-inside-1" fill="white">
<path fill-rule="evenodd" clip-rule="evenodd" d="M0 5C0 2.23858 2.23858 0 5 0H26C28.7614 0 31 2.23858 31 5V26C31 28.7614 28.7614 31 26 31H5C2.23858 31 0 28.7614 0 26V5ZM20.9804 17.6395L20.9227 17.6095C20.6148 17.449 19.1883 16.7054 18.9129 16.5999C18.7883 16.5524 18.6549 16.5059 18.513 16.5059C18.2812 16.5059 18.0865 16.6288 17.9348 16.8702C17.7634 17.1414 17.2443 17.787 17.0839 17.9798C17.0629 18.0053 17.0343 18.0357 17.0172 18.0357C17.0019 18.0357 16.7362 17.9193 16.6558 17.8822C14.8143 17.0311 13.4166 14.9845 13.2249 14.6394C13.2002 14.5946 13.1969 14.5719 13.1963 14.5679C13.1962 14.5675 13.1962 14.5671 13.1964 14.5667C13.2038 14.54 13.2651 14.4747 13.2968 14.4409C13.3902 14.3426 13.4914 14.213 13.5893 14.0876L13.5896 14.0872C13.636 14.0278 13.6825 13.9682 13.7281 13.9121C13.8702 13.7363 13.9335 13.5997 14.0068 13.4416L14.007 13.4411L14.0455 13.3589C14.2247 12.9801 14.0716 12.6605 14.0222 12.5572C13.9913 12.4916 13.5655 11.4015 13.3289 10.7957L13.3287 10.7952C13.254 10.6039 13.1982 10.4611 13.1797 10.4141C12.9944 9.94227 12.7495 9.72258 12.4092 9.72258L12.3927 9.7227C12.3895 9.72281 12.3864 9.72299 12.3808 9.72332C12.3682 9.72406 12.343 9.72555 12.2768 9.72852C12.1156 9.73575 11.2376 9.85874 10.8493 10.1191C10.4377 10.3952 9.74121 11.2755 9.74121 12.8235C9.74121 14.2168 10.5722 15.5323 10.929 16.0326C10.9364 16.0431 10.9489 16.0626 10.9666 16.0901L10.9778 16.1076C12.3442 18.2307 14.0475 19.8041 15.7743 20.538C17.4367 21.2445 18.2239 21.3262 18.6714 21.3262H18.6715C18.8596 21.3262 19.0101 21.3105 19.1429 21.2966L19.2271 21.2881C19.8014 21.2339 21.0635 20.5381 21.3505 19.6893C21.5767 19.0208 21.6363 18.2904 21.4859 18.0253C21.3828 17.8451 21.2053 17.7544 20.9805 17.6396L20.9805 17.6396L20.9804 17.6395ZM3.97445 15.4566C3.97445 8.72259 9.16262 3.2441 15.5397 3.2441C21.9163 3.2441 27.104 8.72259 27.104 15.4566C27.104 22.1898 21.9163 27.6677 15.5398 27.6676C14.3742 27.6676 13.217 27.4812 12.1125 27.1205C10.7569 26.6778 9.29308 26.4767 7.94214 26.9334L3.95587 28.2812C3.92544 28.2915 3.89425 28.2964 3.86329 28.2964C3.78248 28.2964 3.70336 28.2623 3.64502 28.1989C3.56422 28.1114 3.5367 27.9829 3.5737 27.8667L4.90391 23.6918C5.32264 22.3777 5.13117 20.9647 4.67927 19.6616C4.215 18.3228 3.97445 16.8998 3.97445 15.4566ZM10.499 23.5249C11.9972 24.5709 13.7402 25.1237 15.5397 25.1237C20.5904 25.1237 24.6993 20.7871 24.6992 15.4566C24.6992 10.1254 20.5902 5.78805 15.5397 5.78805C10.4885 5.78805 6.37901 10.1254 6.37901 15.4566C6.37901 17.5056 6.98212 19.4653 8.12306 21.124C8.18192 21.2096 8.1979 21.3203 8.16595 21.4206C7.75936 22.6969 8.96973 23.916 10.2386 23.4869C10.2689 23.4766 10.3001 23.4716 10.3312 23.4716C10.3901 23.4716 10.4486 23.4897 10.499 23.5249Z"/>
</mask>
<path fill-rule="evenodd" clip-rule="evenodd" d="M0 5C0 2.23858 2.23858 0 5 0H26C28.7614 0 31 2.23858 31 5V26C31 28.7614 28.7614 31 26 31H5C2.23858 31 0 28.7614 0 26V5ZM20.9804 17.6395L20.9227 17.6095C20.6148 17.449 19.1883 16.7054 18.9129 16.5999C18.7883 16.5524 18.6549 16.5059 18.513 16.5059C18.2812 16.5059 18.0865 16.6288 17.9348 16.8702C17.7634 17.1414 17.2443 17.787 17.0839 17.9798C17.0629 18.0053 17.0343 18.0357 17.0172 18.0357C17.0019 18.0357 16.7362 17.9193 16.6558 17.8822C14.8143 17.0311 13.4166 14.9845 13.2249 14.6394C13.2002 14.5946 13.1969 14.5719 13.1963 14.5679C13.1962 14.5675 13.1962 14.5671 13.1964 14.5667C13.2038 14.54 13.2651 14.4747 13.2968 14.4409C13.3902 14.3426 13.4914 14.213 13.5893 14.0876L13.5896 14.0872C13.636 14.0278 13.6825 13.9682 13.7281 13.9121C13.8702 13.7363 13.9335 13.5997 14.0068 13.4416L14.007 13.4411L14.0455 13.3589C14.2247 12.9801 14.0716 12.6605 14.0222 12.5572C13.9913 12.4916 13.5655 11.4015 13.3289 10.7957L13.3287 10.7952C13.254 10.6039 13.1982 10.4611 13.1797 10.4141C12.9944 9.94227 12.7495 9.72258 12.4092 9.72258L12.3927 9.7227C12.3895 9.72281 12.3864 9.72299 12.3808 9.72332C12.3682 9.72406 12.343 9.72555 12.2768 9.72852C12.1156 9.73575 11.2376 9.85874 10.8493 10.1191C10.4377 10.3952 9.74121 11.2755 9.74121 12.8235C9.74121 14.2168 10.5722 15.5323 10.929 16.0326C10.9364 16.0431 10.9489 16.0626 10.9666 16.0901L10.9778 16.1076C12.3442 18.2307 14.0475 19.8041 15.7743 20.538C17.4367 21.2445 18.2239 21.3262 18.6714 21.3262H18.6715C18.8596 21.3262 19.0101 21.3105 19.1429 21.2966L19.2271 21.2881C19.8014 21.2339 21.0635 20.5381 21.3505 19.6893C21.5767 19.0208 21.6363 18.2904 21.4859 18.0253C21.3828 17.8451 21.2053 17.7544 20.9805 17.6396L20.9805 17.6396L20.9804 17.6395ZM3.97445 15.4566C3.97445 8.72259 9.16262 3.2441 15.5397 3.2441C21.9163 3.2441 27.104 8.72259 27.104 15.4566C27.104 22.1898 21.9163 27.6677 15.5398 27.6676C14.3742 27.6676 13.217 27.4812 12.1125 27.1205C10.7569 26.6778 9.29308 26.4767 7.94214 26.9334L3.95587 28.2812C3.92544 28.2915 3.89425 28.2964 3.86329 28.2964C3.78248 28.2964 3.70336 28.2623 3.64502 28.1989C3.56422 28.1114 3.5367 27.9829 3.5737 27.8667L4.90391 23.6918C5.32264 22.3777 5.13117 20.9647 4.67927 19.6616C4.215 18.3228 3.97445 16.8998 3.97445 15.4566ZM10.499 23.5249C11.9972 24.5709 13.7402 25.1237 15.5397 25.1237C20.5904 25.1237 24.6993 20.7871 24.6992 15.4566C24.6992 10.1254 20.5902 5.78805 15.5397 5.78805C10.4885 5.78805 6.37901 10.1254 6.37901 15.4566C6.37901 17.5056 6.98212 19.4653 8.12306 21.124C8.18192 21.2096 8.1979 21.3203 8.16595 21.4206C7.75936 22.6969 8.96973 23.916 10.2386 23.4869C10.2689 23.4766 10.3001 23.4716 10.3312 23.4716C10.3901 23.4716 10.4486 23.4897 10.499 23.5249Z" fill="url(#paint0_radial)"/>
<path d="M20.9227 17.6095L20.4604 18.4963L20.461 18.4966L20.9227 17.6095ZM20.9804 17.6395L20.5187 18.5266L20.5259 18.5303L20.5332 18.534L20.9804 17.6395ZM18.9129 16.5999L19.2705 15.6661L19.2698 15.6658L18.9129 16.5999ZM17.9348 16.8702L18.7801 17.4047L18.7816 17.4022L17.9348 16.8702ZM17.0839 17.9798L16.315 17.3404L16.3117 17.3445L17.0839 17.9798ZM16.6558 17.8822L17.0753 16.9744L17.0753 16.9744L16.6558 17.8822ZM13.2249 14.6394L12.3493 15.1224L12.3507 15.1249L13.2249 14.6394ZM13.2968 14.4409L12.5718 13.7521L12.5673 13.7569L13.2968 14.4409ZM13.5893 14.0876L12.8019 13.4711L12.8012 13.4721L13.5893 14.0876ZM13.5896 14.0872L14.377 14.7037L14.3779 14.7025L13.5896 14.0872ZM13.7281 13.9121L14.504 14.543L14.506 14.5405L13.7281 13.9121ZM14.0068 13.4416L14.914 13.8623L14.9141 13.8621L14.0068 13.4416ZM14.007 13.4411L13.1012 13.0175L13.0997 13.0207L14.007 13.4411ZM14.0455 13.3589L13.1415 12.9313L13.1396 12.9353L14.0455 13.3589ZM14.0222 12.5572L13.1171 12.9826L13.1204 12.9894L14.0222 12.5572ZM13.3289 10.7957L14.2604 10.4319L14.2599 10.4308L13.3289 10.7957ZM13.3287 10.7952L12.3972 11.1591L12.3977 11.1602L13.3287 10.7952ZM13.1797 10.4141L12.2489 10.7797L12.2493 10.7808L13.1797 10.4141ZM12.4092 9.72258V8.72255L12.4016 8.72261L12.4092 9.72258ZM12.3927 9.7227L12.385 8.72273L12.3725 8.72283L12.3599 8.72324L12.3927 9.7227ZM12.3808 9.72332L12.4396 10.7216L12.4396 10.7216L12.3808 9.72332ZM12.2768 9.72852L12.232 8.72952L12.232 8.72952L12.2768 9.72852ZM10.8493 10.1191L10.2923 9.2886L10.2923 9.28863L10.8493 10.1191ZM10.929 16.0326L11.747 15.4573L11.7432 15.452L10.929 16.0326ZM10.9666 16.0901L10.1249 16.6301L10.1251 16.6304L10.9666 16.0901ZM10.9778 16.1076L10.1363 16.6478L10.1369 16.6488L10.9778 16.1076ZM15.7743 20.538L15.3831 21.4584L15.3832 21.4584L15.7743 20.538ZM19.1429 21.2966L19.042 20.3017L19.0387 20.302L19.1429 21.2966ZM19.2271 21.2881L19.1332 20.2925L19.1263 20.2932L19.2271 21.2881ZM21.3505 19.6893L20.4033 19.3689L20.4032 19.369L21.3505 19.6893ZM21.4859 18.0253L22.3555 17.5317L22.354 17.529L21.4859 18.0253ZM20.9805 17.6396L20.4258 18.4717L20.474 18.5038L20.5256 18.5301L20.9805 17.6396ZM20.9805 17.6396L21.5352 16.8075L21.4834 16.773L21.4277 16.7452L20.9805 17.6396ZM15.5398 27.6676L15.5398 26.6676H15.5398V27.6676ZM3.95587 28.2812L3.63559 27.3338L3.63438 27.3342L3.95587 28.2812ZM3.64502 28.1989L4.38075 27.5216L4.37975 27.5206L3.64502 28.1989ZM3.5737 27.8667L2.62089 27.5631L2.62081 27.5633L3.5737 27.8667ZM10.499 23.5249L9.926 24.3445L9.92651 24.3448L10.499 23.5249ZM24.6992 15.4566H23.6992V15.4566L24.6992 15.4566ZM8.12306 21.124L7.29916 21.6907L7.29919 21.6908L8.12306 21.124ZM12.1125 27.1205L12.4229 26.1699L12.1125 27.1205ZM7.94214 26.9334L7.62186 25.9861L7.94214 26.9334ZM13.1964 14.5667L12.2336 14.2962L13.1964 14.5667ZM26 -1H5V1H26V-1ZM32 26V5H30V26H32ZM5 32H26V30H5V32ZM-1 5V26H1V5H-1ZM20.461 18.4966L20.5187 18.5266L21.442 16.7525L21.3843 16.7224L20.461 18.4966ZM18.5553 17.5338C18.5543 17.5334 18.5794 17.5437 18.6433 17.5734C18.7007 17.6002 18.7736 17.6353 18.859 17.6772C19.0296 17.761 19.2382 17.8662 19.4511 17.9748C19.8764 18.1918 20.3065 18.416 20.4604 18.4963L21.3849 16.7228C21.2309 16.6425 20.7939 16.4147 20.3601 16.1933C19.9598 15.9891 19.4715 15.743 19.2705 15.6661L18.5553 17.5338ZM18.513 17.5059C18.4751 17.5059 18.4557 17.4997 18.4647 17.5021C18.469 17.5032 18.478 17.5058 18.4937 17.5112C18.5098 17.5167 18.529 17.5238 18.556 17.5341L19.2698 15.6658C19.1457 15.6184 18.8579 15.5059 18.513 15.5059V17.5059ZM18.7816 17.4022C18.7968 17.3781 18.7843 17.4074 18.7272 17.4435C18.6625 17.4843 18.5839 17.5059 18.513 17.5059V15.5059C17.8542 15.5059 17.3737 15.8836 17.0881 16.3382L18.7816 17.4022ZM17.8527 18.6193C18.0042 18.4371 18.5675 17.7408 18.78 17.4047L17.0896 16.3358C17.0345 16.4229 16.8924 16.6142 16.7169 16.8391C16.5512 17.0513 16.3879 17.2528 16.315 17.3404L17.8527 18.6193ZM17.0172 19.0357C17.291 19.0357 17.4845 18.9252 17.5464 18.8881C17.629 18.8385 17.6889 18.7871 17.7205 18.7584C17.7856 18.6995 17.8338 18.6424 17.8561 18.6152L16.3117 17.3445C16.3131 17.3428 16.3365 17.3136 16.3777 17.2762C16.3975 17.2583 16.4456 17.2162 16.5174 17.1731C16.5547 17.1507 16.6121 17.1197 16.687 17.0929C16.7604 17.0666 16.8745 17.0357 17.0172 17.0357V19.0357ZM16.2362 18.7899C16.2876 18.8136 16.383 18.8559 16.4655 18.8914C16.507 18.9093 16.5516 18.9282 16.5896 18.9436C16.6074 18.9508 16.6318 18.9605 16.6568 18.9697C16.6681 18.9739 16.6908 18.982 16.7183 18.9905C16.7315 18.9945 16.7571 19.0021 16.7894 19.0096C16.8021 19.0125 16.8961 19.0357 17.0172 19.0357V17.0357C17.0552 17.0357 17.0871 17.0379 17.1103 17.0401C17.134 17.0423 17.1543 17.0451 17.17 17.0475C17.2006 17.0523 17.2252 17.0576 17.2407 17.0612C17.2711 17.0682 17.2943 17.0752 17.3047 17.0784C17.317 17.0821 17.3265 17.0853 17.3318 17.0872C17.3376 17.0891 17.3419 17.0907 17.3444 17.0916C17.3516 17.0943 17.3521 17.0946 17.3416 17.0903C17.3229 17.0827 17.2931 17.0702 17.2563 17.0544C17.2206 17.039 17.1825 17.0224 17.1488 17.0074C17.114 16.992 17.0881 16.9803 17.0753 16.9744L16.2362 18.7899ZM12.3507 15.1249C12.4912 15.3779 12.9378 16.0383 13.5831 16.7453C14.2286 17.4523 15.1437 18.285 16.2362 18.7899L17.0753 16.9744C16.3264 16.6283 15.6219 16.0121 15.0602 15.3969C14.4985 14.7815 14.1503 14.246 14.0992 14.1539L12.3507 15.1249ZM12.2069 14.7129C12.2252 14.8383 12.2681 14.9752 12.3493 15.1224L14.1006 14.1564C14.1135 14.1799 14.1316 14.217 14.1486 14.2672C14.1572 14.2925 14.1652 14.3202 14.1721 14.3502C14.1755 14.3652 14.1785 14.3799 14.1811 14.3941C14.1823 14.4012 14.1834 14.4076 14.1843 14.4132C14.1847 14.4159 14.1851 14.4183 14.1853 14.4201C14.1856 14.4218 14.1858 14.4232 14.1857 14.423L12.2069 14.7129ZM12.5673 13.7569C12.554 13.7711 12.5134 13.8141 12.474 13.8606C12.4548 13.8834 12.4238 13.921 12.3919 13.9666C12.3806 13.9826 12.2854 14.112 12.2336 14.2962L14.1591 14.8372C14.1301 14.9404 14.0908 15.0136 14.0751 15.0417C14.0556 15.0766 14.0385 15.1019 14.0296 15.1145C14.0199 15.1284 14.0123 15.1383 14.0084 15.1431C14.0043 15.1484 14.0016 15.1515 14.0009 15.1523C13.9999 15.1535 14.0016 15.1515 14.0071 15.1455C14.0125 15.1396 14.0181 15.1336 14.0263 15.1249L12.5673 13.7569ZM12.8012 13.4721C12.6943 13.609 12.6249 13.6962 12.5718 13.7521L14.0218 15.1296C14.1555 14.9889 14.2885 14.817 14.3775 14.7031L12.8012 13.4721ZM12.8022 13.4707L12.8019 13.4711L14.3767 14.7041L14.377 14.7037L12.8022 13.4707ZM12.9523 13.2812C12.8992 13.3464 12.8465 13.414 12.8013 13.472L14.3779 14.7025C14.4255 14.6416 14.4657 14.59 14.504 14.543L12.9523 13.2812ZM13.0996 13.021C13.0607 13.1048 13.0424 13.1432 13.022 13.1794C13.0055 13.2087 12.9851 13.2405 12.9503 13.2837L14.506 14.5405C14.7299 14.2633 14.8354 14.0318 14.914 13.8623L13.0996 13.021ZM13.0997 13.0207L13.0995 13.0212L14.9141 13.8621L14.9143 13.8616L13.0997 13.0207ZM13.1396 12.9353L13.1012 13.0176L14.9129 13.8647L14.9513 13.7825L13.1396 12.9353ZM13.1204 12.9894C13.1309 13.0113 13.1321 13.0145 13.1331 13.0174C13.1341 13.0201 13.1329 13.0175 13.1317 13.0101C13.1304 13.002 13.1293 12.9881 13.1314 12.9704C13.1336 12.9515 13.1386 12.9375 13.1415 12.9313L14.9494 13.7865C15.3384 12.9643 14.9902 12.2634 14.924 12.1251L13.1204 12.9894ZM12.3974 11.1596C12.6193 11.7276 13.0673 12.8766 13.1171 12.9826L14.9272 12.1319C14.9302 12.1383 14.8359 11.9019 14.6836 11.5137C14.544 11.1582 14.3787 10.735 14.2604 10.4319L12.3974 11.1596ZM12.3977 11.1602L12.3979 11.1607L14.2599 10.4308L14.2597 10.4303L12.3977 11.1602ZM12.2493 10.7808C12.2671 10.8259 12.322 10.9665 12.3972 11.1591L14.2602 10.4314C14.1859 10.2414 14.1293 10.0963 14.11 10.0475L12.2493 10.7808ZM12.4092 10.7226C12.3845 10.7226 12.3421 10.7181 12.2923 10.6992C12.2422 10.6802 12.2058 10.6547 12.1846 10.6356C12.1656 10.6186 12.1664 10.6136 12.1809 10.6369C12.1957 10.6606 12.2197 10.7053 12.2489 10.7797L14.1105 10.0486C13.9875 9.73551 13.8075 9.40479 13.5205 9.14718C13.2069 8.86573 12.8216 8.72258 12.4092 8.72258V10.7226ZM12.4003 10.7227L12.4169 10.7225L12.4016 8.72261L12.385 8.72273L12.4003 10.7227ZM12.4396 10.7216C12.4412 10.7215 12.4418 10.7215 12.4423 10.7214C12.4427 10.7214 12.4421 10.7214 12.441 10.7215C12.4386 10.7216 12.4329 10.7219 12.4254 10.7222L12.3599 8.72324C12.341 8.72386 12.3233 8.72498 12.322 8.72505L12.4396 10.7216ZM12.3216 10.7275C12.3923 10.7243 12.4221 10.7226 12.4396 10.7216L12.3221 8.72505C12.3143 8.7255 12.2938 8.72675 12.232 8.72952L12.3216 10.7275ZM11.4064 10.9496C11.4018 10.9526 11.4389 10.9295 11.5406 10.8942C11.6336 10.8621 11.746 10.8316 11.8656 10.805C11.9837 10.7787 12.0973 10.7586 12.1883 10.745C12.2902 10.7297 12.3343 10.7269 12.3217 10.7275L12.232 8.72952C12.0733 8.73665 11.7521 8.78123 11.4308 8.85281C11.1344 8.91882 10.655 9.04538 10.2923 9.2886L11.4064 10.9496ZM10.7412 12.8235C10.7412 11.5724 11.3005 11.0206 11.4064 10.9496L10.2923 9.28863C9.57481 9.7699 8.74121 10.9786 8.74121 12.8235H10.7412ZM11.7432 15.452C11.4027 14.9746 10.7412 13.8814 10.7412 12.8235H8.74121C8.74121 14.5521 9.74169 16.09 10.1148 16.6132L11.7432 15.452ZM11.8082 15.5501C11.7979 15.534 11.77 15.4901 11.747 15.4573L10.1111 16.6079C10.1062 16.601 10.1032 16.5965 10.1032 16.5965C10.1029 16.596 10.1035 16.597 10.1055 16.6C10.1074 16.603 10.1099 16.6068 10.1133 16.6121C10.1167 16.6173 10.1204 16.6231 10.1249 16.6301L11.8082 15.5501ZM11.8193 15.5673L11.8081 15.5498L10.1251 16.6304L10.1363 16.6478L11.8193 15.5673ZM16.1655 19.6177C14.6771 18.9851 13.1133 17.578 11.8187 15.5664L10.1369 16.6488C11.575 18.8834 13.418 20.6231 15.3831 21.4584L16.1655 19.6177ZM18.6714 20.3262C18.3972 20.3262 17.7458 20.2893 16.1654 19.6177L15.3832 21.4584C17.1276 22.1997 18.0506 22.3262 18.6714 22.3262V20.3262ZM18.6715 20.3262H18.6714V22.3262H18.6715V20.3262ZM19.0387 20.302C18.9079 20.3157 18.8028 20.3262 18.6715 20.3262V22.3262C18.9164 22.3262 19.1123 22.3053 19.2471 22.2912L19.0387 20.302ZM19.1263 20.2932L19.042 20.3017L19.2438 22.2915L19.328 22.283L19.1263 20.2932ZM20.4032 19.369C20.3629 19.4883 20.1886 19.7196 19.8355 19.9589C19.6767 20.0665 19.5134 20.1536 19.3712 20.2138C19.3007 20.2436 19.2413 20.2643 19.1954 20.2775C19.147 20.2914 19.1272 20.293 19.1332 20.2925L19.3211 22.2836C19.8431 22.2344 20.4651 21.9482 20.9576 21.6145C21.4509 21.2801 22.0511 20.7392 22.2978 20.0097L20.4032 19.369ZM20.6162 18.5189C20.5553 18.4117 20.5594 18.3493 20.5653 18.4061C20.5694 18.4453 20.5714 18.5183 20.5627 18.6249C20.5454 18.838 20.4917 19.1075 20.4033 19.3689L22.2978 20.0098C22.4355 19.6027 22.5247 19.1727 22.5561 18.7872C22.5718 18.5945 22.5747 18.3934 22.5547 18.2001C22.5365 18.0246 22.4916 17.7715 22.3555 17.5317L20.6162 18.5189ZM20.5256 18.5301C20.5848 18.5604 20.6237 18.5803 20.6574 18.5989C20.6897 18.6167 20.7031 18.6256 20.7067 18.6281C20.7092 18.6298 20.6967 18.6215 20.678 18.6022C20.6581 18.5818 20.6365 18.5545 20.6177 18.5217L22.354 17.529C22.0764 17.0435 21.5965 16.8313 21.4354 16.7491L20.5256 18.5301ZM20.4258 18.4716L20.4258 18.4717L21.5352 16.8076L21.5352 16.8075L20.4258 18.4716ZM20.5332 18.534L20.5333 18.534L21.4277 16.7452L21.4276 16.7451L20.5332 18.534ZM15.5397 2.2441C8.55973 2.2441 2.97445 8.22231 2.97445 15.4566H4.97445C4.97445 9.22288 9.76551 4.2441 15.5397 4.2441V2.2441ZM28.104 15.4566C28.104 8.2224 22.5193 2.2441 15.5397 2.2441V4.2441C21.3133 4.2441 26.104 9.22279 26.104 15.4566H28.104ZM15.5398 28.6676C22.5192 28.6677 28.104 22.6901 28.104 15.4566H26.104C26.104 21.6895 21.3134 26.6677 15.5398 26.6676L15.5398 28.6676ZM11.802 28.0711C13.0058 28.4642 14.2677 28.6676 15.5398 28.6676V26.6676C14.4807 26.6676 13.4283 26.4983 12.4229 26.1699L11.802 28.0711ZM4.27615 29.2285L8.26242 27.8808L7.62186 25.9861L3.63559 27.3338L4.27615 29.2285ZM3.86329 29.2964C4.00161 29.2964 4.14153 29.2742 4.27735 29.2281L3.63438 27.3342C3.70936 27.3088 3.78689 27.2964 3.86329 27.2964V29.2964ZM2.9093 28.8762C3.15352 29.1415 3.49784 29.2964 3.86329 29.2964V27.2964C4.06712 27.2964 4.25319 27.3831 4.38075 27.5216L2.9093 28.8762ZM2.62081 27.5633C2.47819 28.0113 2.57791 28.5173 2.9103 28.8773L4.37975 27.5206C4.55052 27.7055 4.5952 27.9544 4.52658 28.17L2.62081 27.5633ZM3.95111 23.3882L2.62089 27.5631L4.5265 28.1702L5.85671 23.9954L3.95111 23.3882ZM2.97445 15.4566C2.97445 17.0107 3.23344 18.5445 3.73447 19.9893L5.62407 19.334C5.19656 18.1012 4.97445 16.7889 4.97445 15.4566H2.97445ZM15.5397 24.1237C13.9483 24.1237 12.4046 23.6357 11.0714 22.7049L9.92651 24.3448C11.5899 25.5061 13.5321 26.1237 15.5397 26.1237V24.1237ZM23.6992 15.4566C23.6993 20.2863 19.988 24.1237 15.5397 24.1237V26.1237C21.1928 26.1237 25.6993 21.2879 25.6992 15.4565L23.6992 15.4566ZM15.5397 6.78805C19.9877 6.78805 23.6992 10.626 23.6992 15.4566H25.6992C25.6992 9.62472 21.1928 4.78805 15.5397 4.78805V6.78805ZM7.37901 15.4566C7.37901 10.6261 11.0909 6.78805 15.5397 6.78805V4.78805C9.88604 4.78805 5.37901 9.62461 5.37901 15.4566H7.37901ZM8.94696 20.5573C7.92287 19.0685 7.37901 17.3071 7.37901 15.4566H5.37901C5.37901 17.7042 6.04138 19.8622 7.29916 21.6907L8.94696 20.5573ZM9.11882 21.724C9.24285 21.3344 9.18398 20.9018 8.94693 20.5572L7.29919 21.6908C7.17987 21.5173 7.15296 21.3061 7.21307 21.1173L9.11882 21.724ZM10.3312 22.4716C10.1914 22.4716 10.0522 22.4944 9.91865 22.5394L10.5585 24.4343C10.4857 24.4589 10.4088 24.4716 10.3312 24.4716V22.4716ZM11.0719 22.7053C10.854 22.553 10.5956 22.4716 10.3312 22.4716V24.4716C10.1846 24.4716 10.0431 24.4263 9.926 24.3445L11.0719 22.7053ZM7.21313 21.1171C6.56595 23.1485 8.48766 25.1347 10.5589 24.4342L9.9182 22.5396C9.45181 22.6973 8.95278 22.2452 9.11876 21.7242L7.21313 21.1171ZM5.85671 23.9954C6.36553 22.3985 6.11465 20.7486 5.62407 19.334L3.73447 19.9893C4.14769 21.1808 4.27975 22.3568 3.95111 23.3882L5.85671 23.9954ZM12.4229 26.1699C10.9719 25.696 9.26459 25.4307 7.62186 25.9861L8.26242 27.8808C9.32157 27.5227 10.5418 27.6595 11.802 28.0711L12.4229 26.1699ZM14.1804 14.3903C14.2032 14.5166 14.2057 14.6714 14.1591 14.8372L12.2336 14.2962C12.1868 14.4628 12.1893 14.6184 12.2122 14.7455L14.1804 14.3903ZM5 30C2.79086 30 1 28.2091 1 26H-1C-1 29.3137 1.68629 32 5 32V30ZM30 26C30 28.2091 28.2091 30 26 30V32C29.3137 32 32 29.3137 32 26H30ZM5 -1C1.68629 -1 -1 1.68629 -1 5H1C1 2.79086 2.79086 1 5 1V-1ZM26 1C28.2091 1 30 2.79086 30 5H32C32 1.68629 29.3137 -1 26 -1V1Z" fill="url(#paint1_linear)" mask="url(#path-1-inside-1)"/>
<defs>
<radialGradient id="paint0_radial" cx="0" cy="0" r="1" gradientUnits="userSpaceOnUse" gradientTransform="translate(7.87845 2.82415) rotate(59.5385) scale(31.9258 28.547)">
<stop stop-color="white" stop-opacity="0.4"/>
<stop offset="1" stop-color="white" stop-opacity="0"/>
</radialGradient>
<linearGradient id="paint1_linear" x1="24.0635" y1="0" x2="24.0635" y2="31" gradientUnits="userSpaceOnUse">
<stop stop-color="white" stop-opacity="0.4"/>
<stop offset="1" stop-color="white" stop-opacity="0.1"/>
</linearGradient>
</defs>
</svg>
