<svg width="524" height="615" viewBox="0 0 524 615" fill="none" xmlns="http://www.w3.org/2000/svg">
<g opacity="0.2">
<g opacity="0.4" filter="url(#filter0_f)">
<path d="M379.333 390.028C379.326 350.745 364.342 312.942 337.433 284.318C310.525 255.694 273.716 238.403 234.503 235.965C195.29 233.527 156.623 246.126 126.375 271.197C96.1279 296.267 76.576 331.923 71.7013 370.903C67.8949 401.402 73.2806 432.343 87.1688 459.763C102.836 490.752 128.495 515.555 160.001 530.163C191.506 544.771 227.017 548.331 260.796 540.268C294.575 532.206 324.649 512.991 346.158 485.73C367.667 458.468 379.355 424.752 379.333 390.028Z" fill="url(#paint0_linear)"/>
</g>
</g>
<path d="M346.543 390.036C346.537 359.094 334.735 329.319 313.541 306.774C292.346 284.228 263.354 270.609 232.468 268.689C201.582 266.768 171.126 276.692 147.302 296.439C123.477 316.185 108.077 344.27 104.238 374.972C101.24 398.994 105.482 423.365 116.421 444.962C128.761 469.37 148.971 488.906 173.786 500.412C198.602 511.917 226.572 514.722 253.178 508.371C279.783 502.021 303.471 486.887 320.412 465.414C337.354 443.942 346.56 417.385 346.543 390.036Z" fill="url(#paint1_linear)"/>
<path d="M336.112 439.393C277.329 469.558 257.173 456.907 194.368 434.525C158.474 421.72 132.273 432.969 116.426 444.959C126.82 465.484 142.823 482.64 162.577 494.435C182.332 506.231 205.027 512.183 228.028 511.601C251.03 511.018 273.395 503.924 292.526 491.143C311.657 478.362 326.771 460.417 336.112 439.393Z" fill="url(#paint2_linear)"/>
<path d="M341.869 356.447C334.124 329.519 317.319 306.091 294.293 290.121C271.268 274.151 243.434 266.618 215.496 268.796C187.558 270.974 161.228 282.729 140.957 302.074C120.685 321.42 107.715 347.17 104.237 374.972C114.932 364.886 127.588 357.108 141.418 352.122C155.247 347.136 169.955 345.047 184.627 345.987C248.552 349.745 297.682 394.903 341.869 356.447Z" fill="url(#paint3_linear)"/>
<path d="M178.083 0.323207C176.454 0.685939 174.884 1.27536 173.419 2.07424C172.018 2.82839 170.763 3.82629 169.712 5.0211C168.701 6.17871 167.955 7.54292 167.525 9.01859C167.076 10.5828 167.041 12.237 167.423 13.819C167.676 15.0748 168.175 16.2679 168.892 17.3296C169.536 18.243 170.31 19.0573 171.19 19.7469C172.051 20.4149 172.968 21.0065 173.932 21.515L176.648 22.95C177.467 23.3779 178.245 23.8812 178.971 24.4533C179.627 24.951 180.13 25.6228 180.423 26.3923C180.571 26.7353 180.81 27.031 181.115 27.2464C181.261 27.3583 181.431 27.4356 181.612 27.4726C181.792 27.5096 181.979 27.5053 182.157 27.46L186.155 26.6058C186.347 26.5653 186.528 26.4871 186.69 26.3757C186.851 26.2642 186.989 26.1218 187.094 25.9566C187.206 25.802 187.28 25.6232 187.309 25.4347C187.339 25.2462 187.324 25.0534 187.265 24.8718C186.932 23.6293 186.351 22.467 185.557 21.4552C184.841 20.5622 184.014 19.7642 183.097 19.0806C182.21 18.4321 181.27 17.8605 180.287 17.3723C179.313 16.8854 178.407 16.4156 177.57 15.9544C176.805 15.55 176.086 15.0631 175.426 14.5023C174.851 14.018 174.452 13.3575 174.29 12.6232C174.143 11.9818 174.153 11.3143 174.319 10.6776C174.486 10.041 174.804 9.45414 175.247 8.96734C176.351 7.76036 177.828 6.95753 179.441 6.68672C182.425 6.02047 184.947 7.02554 187.009 9.70192C187.207 9.99495 187.459 10.2472 187.752 10.445C187.911 10.5258 188.084 10.5742 188.261 10.5874C188.438 10.6006 188.617 10.5783 188.786 10.5219L193.056 9.57379C193.207 9.54478 193.35 9.48602 193.478 9.40095C193.605 9.31588 193.715 9.20622 193.799 9.07838C193.892 8.94753 193.955 8.79768 193.983 8.63964C194.011 8.48159 194.004 8.31928 193.962 8.16442C193.603 6.85166 192.928 5.64651 191.997 4.65381C190.952 3.50022 189.712 2.54021 188.333 1.81799C186.822 1.02466 185.192 0.482313 183.507 0.212168C181.709 -0.10417 179.866 -0.0664533 178.083 0.323207ZM182.593 30.6802C182.405 30.7202 182.228 30.7985 182.072 30.9102C181.917 31.0219 181.786 31.1646 181.687 31.3293C181.582 31.4888 181.511 31.6679 181.477 31.8558C181.443 32.0438 181.448 32.2366 181.491 32.4227L182.516 37.0522C182.602 37.4218 182.828 37.7435 183.147 37.9491C183.466 38.1548 183.852 38.2283 184.224 38.1541L188.751 37.1547C188.938 37.1147 189.114 37.0373 189.27 36.9272C189.425 36.8171 189.557 36.6766 189.657 36.5141C189.763 36.3553 189.836 36.1762 189.87 35.988C189.903 35.7998 189.898 35.6067 189.853 35.4208L188.828 30.7827C188.742 30.4131 188.516 30.0914 188.197 29.8858C187.878 29.6801 187.492 29.6066 187.12 29.6808L182.593 30.6802Z" fill="url(#paint4_linear)"/>
<path d="M164.655 43.877C163.526 43.6908 162.375 43.6678 161.239 43.8087C160.146 43.9327 159.085 44.2509 158.104 44.7483C157.167 45.2274 156.346 45.9034 155.695 46.7299C155.005 47.6158 154.561 48.6674 154.405 49.7793C154.228 50.6444 154.228 51.5364 154.405 52.4016C154.583 53.1543 154.871 53.8767 155.26 54.5455C155.64 55.1902 156.074 55.8017 156.558 56.3734L157.933 57.9963C158.347 58.4818 158.719 59.0019 159.043 59.5509C159.333 60.039 159.481 60.5979 159.471 61.1653C159.472 61.4318 159.549 61.6924 159.693 61.9169C159.758 62.0243 159.846 62.116 159.951 62.1854C160.056 62.2548 160.175 62.3002 160.299 62.3184L163.092 62.7796C163.362 62.822 163.638 62.7577 163.861 62.6003C163.97 62.5287 164.062 62.433 164.129 62.3204C164.195 62.2079 164.235 62.0815 164.245 61.9511C164.362 61.0757 164.295 60.1855 164.049 59.3374C163.827 58.5763 163.503 57.8492 163.084 57.1763C162.684 56.5322 162.229 55.9235 161.726 55.357C161.222 54.7932 160.769 54.2636 160.342 53.7511C159.957 53.2957 159.622 52.8003 159.342 52.2734C159.098 51.816 159.011 51.2906 159.095 50.7786C159.164 50.3287 159.342 49.9023 159.613 49.5363C159.884 49.1703 160.239 48.8755 160.649 48.6774C161.662 48.1829 162.811 48.0445 163.912 48.2845C164.908 48.4313 165.834 48.8816 166.565 49.574C167.296 50.2664 167.795 51.1673 167.995 52.1539C168.049 52.3948 168.148 52.6236 168.286 52.8286C168.451 53.0103 168.681 53.1206 168.926 53.1361L171.899 53.623C172.11 53.6577 172.326 53.612 172.505 53.4949C172.599 53.4344 172.678 53.354 172.737 53.2596C172.796 53.1651 172.833 53.0588 172.847 52.9482C172.95 52.0152 172.824 51.0711 172.479 50.1978C172.109 49.1881 171.559 48.2535 170.857 47.4389C170.09 46.5447 169.185 45.7804 168.174 45.1753C167.097 44.5182 165.902 44.0772 164.655 43.877ZM159.778 64.5392C159.647 64.5172 159.513 64.5218 159.384 64.5526C159.255 64.5834 159.133 64.6399 159.026 64.7186C158.92 64.7945 158.829 64.8911 158.76 65.0026C158.691 65.1141 158.645 65.2382 158.625 65.3678L158.095 68.5965C158.073 68.7274 158.078 68.8614 158.109 68.9905C158.14 69.1197 158.196 69.2413 158.275 69.3482C158.35 69.456 158.446 69.5474 158.558 69.6164C158.669 69.6855 158.794 69.7308 158.924 69.7496L162.084 70.2707C162.214 70.2919 162.346 70.287 162.474 70.2562C162.602 70.2254 162.722 70.1693 162.827 70.0913C162.937 70.0173 163.03 69.9214 163.1 69.8096C163.171 69.6979 163.218 69.5728 163.237 69.4421L163.767 66.2048C163.806 65.9387 163.738 65.6679 163.578 65.4518C163.418 65.2357 163.179 65.0918 162.913 65.0517L159.778 64.5392Z" fill="url(#paint5_linear)"/>
<g opacity="0.2">
<path opacity="0.2" d="M164.655 43.877C163.526 43.6908 162.375 43.6678 161.239 43.8087C160.146 43.9327 159.085 44.2509 158.104 44.7483C157.167 45.2274 156.346 45.9034 155.695 46.7299C155.005 47.6158 154.561 48.6674 154.405 49.7793C154.228 50.6444 154.228 51.5364 154.405 52.4016C154.583 53.1543 154.871 53.8767 155.26 54.5455C155.64 55.1902 156.074 55.8017 156.558 56.3734L157.933 57.9963C158.347 58.4818 158.719 59.0019 159.043 59.5509C159.333 60.039 159.481 60.5979 159.471 61.1653C159.472 61.4318 159.549 61.6924 159.693 61.9169C159.758 62.0243 159.846 62.116 159.951 62.1854C160.056 62.2548 160.175 62.3002 160.299 62.3184L163.092 62.7796C163.362 62.822 163.638 62.7577 163.861 62.6003C163.97 62.5287 164.062 62.433 164.129 62.3204C164.195 62.2079 164.235 62.0815 164.245 61.9511C164.362 61.0757 164.295 60.1855 164.049 59.3374C163.827 58.5763 163.503 57.8492 163.084 57.1763C162.684 56.5322 162.229 55.9235 161.726 55.357C161.222 54.7932 160.769 54.2636 160.342 53.7511C159.957 53.2957 159.622 52.8003 159.342 52.2734C159.098 51.816 159.011 51.2906 159.095 50.7786C159.164 50.3287 159.342 49.9023 159.613 49.5363C159.884 49.1703 160.239 48.8755 160.649 48.6774C161.662 48.1829 162.811 48.0445 163.912 48.2845C164.908 48.4313 165.834 48.8816 166.565 49.574C167.296 50.2664 167.795 51.1673 167.995 52.1539C168.049 52.3948 168.148 52.6236 168.286 52.8286C168.451 53.0103 168.681 53.1206 168.926 53.1361L171.899 53.623C172.11 53.6577 172.326 53.612 172.505 53.4949C172.599 53.4344 172.678 53.354 172.737 53.2596C172.796 53.1651 172.833 53.0588 172.847 52.9482C172.95 52.0152 172.824 51.0711 172.479 50.1978C172.109 49.1881 171.559 48.2535 170.857 47.4389C170.09 46.5447 169.185 45.7804 168.174 45.1753C167.097 44.5182 165.902 44.0772 164.655 43.877ZM159.778 64.5392C159.647 64.5172 159.513 64.5218 159.384 64.5526C159.255 64.5834 159.133 64.6399 159.026 64.7186C158.92 64.7945 158.829 64.8911 158.76 65.0026C158.691 65.1141 158.645 65.2382 158.625 65.3678L158.095 68.5965C158.073 68.7274 158.078 68.8614 158.109 68.9905C158.14 69.1197 158.196 69.2413 158.275 69.3482C158.35 69.456 158.446 69.5474 158.558 69.6164C158.669 69.6855 158.794 69.7308 158.924 69.7496L162.084 70.2707C162.214 70.2919 162.346 70.287 162.474 70.2562C162.602 70.2254 162.722 70.1693 162.827 70.0913C162.937 70.0173 163.03 69.9214 163.1 69.8096C163.171 69.6979 163.218 69.5728 163.237 69.4421L163.767 66.2048C163.806 65.9387 163.738 65.6679 163.578 65.4518C163.418 65.2357 163.179 65.0918 162.913 65.0517L159.778 64.5392Z" fill="url(#paint6_linear)"/>
</g>
<path d="M135.528 53.0417C135.275 53.2267 135.103 53.5034 135.051 53.813C134.998 54.1225 135.068 54.4404 135.247 54.6988L137.502 57.8592C137.687 58.1129 137.963 58.2844 138.273 58.337C138.582 58.3897 138.9 58.3194 139.159 58.1411L142.251 55.9459C142.378 55.8567 142.486 55.7425 142.568 55.6104C142.651 55.4783 142.705 55.3309 142.729 55.1771C142.774 54.8778 142.704 54.5726 142.533 54.323L140.278 51.154C140.095 50.8993 139.818 50.7274 139.509 50.6757C139.208 50.6305 138.902 50.704 138.655 50.8807L135.528 53.0417ZM122.477 31.6108C121.362 32.3974 120.366 33.3411 119.521 34.4124C118.705 35.432 118.078 36.589 117.668 37.8291C117.276 39.0143 117.145 40.27 117.284 41.5105C117.444 42.8315 117.944 44.0882 118.736 45.1578C119.326 46.0227 120.08 46.7628 120.956 47.3359C121.735 47.8195 122.582 48.1851 123.468 48.4207C124.327 48.65 125.204 48.8043 126.09 48.882L128.601 49.0955C129.351 49.1643 130.094 49.2958 130.822 49.4884C131.473 49.6605 132.065 50.0094 132.53 50.4963C132.754 50.7143 133.031 50.8703 133.333 50.949C133.48 50.9838 133.633 50.9858 133.78 50.9548C133.928 50.9238 134.067 50.8606 134.187 50.7697L136.921 48.8307C137.182 48.643 137.359 48.3612 137.416 48.0449C137.449 47.8957 137.447 47.741 137.409 47.5928C137.372 47.4446 137.302 47.307 137.203 47.1907C136.567 46.3572 135.768 45.6625 134.854 45.1493C134.031 44.6983 133.152 44.3593 132.24 44.1414C131.365 43.9298 130.473 43.7927 129.575 43.7314C128.721 43.6801 127.867 43.6118 127.081 43.5349C126.375 43.4741 125.679 43.3336 125.005 43.1164C124.418 42.9375 123.907 42.5678 123.553 42.0657C123.236 41.6308 123.029 41.1248 122.952 40.5919C122.874 40.0589 122.928 39.5152 123.109 39.0078C123.554 37.749 124.408 36.6755 125.535 35.9585C127.568 34.5064 129.788 34.458 132.197 35.8133C132.44 35.9685 132.709 36.0784 132.992 36.1379C133.138 36.1483 133.285 36.1295 133.425 36.0826C133.564 36.0356 133.693 35.9615 133.803 35.8645L136.707 33.7974C136.919 33.6536 137.066 33.433 137.117 33.1825C137.142 33.0543 137.139 32.9223 137.108 32.7955C137.077 32.6688 137.019 32.5502 136.938 32.4479C136.262 31.5742 135.382 30.8792 134.375 30.4235C133.22 29.8891 131.98 29.5624 130.711 29.4583C129.322 29.345 127.923 29.4546 126.568 29.7829C125.097 30.1149 123.706 30.7363 122.477 31.6108Z" fill="url(#paint7_linear)"/>
<g opacity="0.6">
<path opacity="0.6" d="M135.528 53.0417C135.275 53.2267 135.103 53.5034 135.051 53.813C134.998 54.1225 135.068 54.4404 135.247 54.6988L137.502 57.8592C137.687 58.1129 137.963 58.2844 138.273 58.337C138.582 58.3897 138.9 58.3194 139.159 58.1411L142.251 55.9459C142.378 55.8567 142.486 55.7425 142.568 55.6104C142.651 55.4783 142.705 55.3309 142.729 55.1771C142.774 54.8778 142.704 54.5726 142.533 54.323L140.278 51.154C140.095 50.8993 139.818 50.7274 139.509 50.6757C139.208 50.6305 138.902 50.704 138.655 50.8807L135.528 53.0417ZM122.477 31.6108C121.362 32.3974 120.366 33.3411 119.521 34.4124C118.705 35.432 118.078 36.589 117.668 37.8291C117.276 39.0143 117.145 40.27 117.284 41.5105C117.444 42.8315 117.944 44.0882 118.736 45.1578C119.326 46.0227 120.08 46.7628 120.956 47.3359C121.735 47.8195 122.582 48.1851 123.468 48.4207C124.327 48.65 125.204 48.8043 126.09 48.882L128.601 49.0955C129.351 49.1643 130.094 49.2958 130.822 49.4884C131.473 49.6605 132.065 50.0094 132.53 50.4963C132.754 50.7143 133.031 50.8703 133.333 50.949C133.48 50.9838 133.633 50.9858 133.78 50.9548C133.928 50.9238 134.067 50.8606 134.187 50.7697L136.921 48.8307C137.182 48.643 137.359 48.3612 137.416 48.0449C137.449 47.8957 137.447 47.741 137.409 47.5928C137.372 47.4446 137.302 47.307 137.203 47.1907C136.567 46.3572 135.768 45.6625 134.854 45.1493C134.031 44.6983 133.152 44.3593 132.24 44.1414C131.365 43.9298 130.473 43.7927 129.575 43.7314C128.721 43.6801 127.867 43.6118 127.081 43.5349C126.375 43.4741 125.679 43.3336 125.005 43.1164C124.418 42.9375 123.907 42.5678 123.553 42.0657C123.236 41.6308 123.029 41.1248 122.952 40.5919C122.874 40.0589 122.928 39.5152 123.109 39.0078C123.554 37.749 124.408 36.6755 125.535 35.9585C127.568 34.5064 129.788 34.458 132.197 35.8133C132.44 35.9685 132.709 36.0784 132.992 36.1379C133.138 36.1483 133.285 36.1295 133.425 36.0826C133.564 36.0356 133.693 35.9615 133.803 35.8645L136.707 33.7974C136.919 33.6536 137.066 33.433 137.117 33.1825C137.142 33.0543 137.139 32.9223 137.108 32.7955C137.077 32.6688 137.019 32.5502 136.938 32.4479C136.262 31.5742 135.382 30.8792 134.375 30.4235C133.22 29.8891 131.98 29.5624 130.711 29.4583C129.322 29.345 127.923 29.4546 126.568 29.7829C125.097 30.1149 123.706 30.7363 122.477 31.6108Z" fill="url(#paint8_linear)"/>
</g>
<path d="M449.585 207.95L446.918 196.504L430.556 198.342L415.542 200.039L416.508 214.143L434.014 210.877L449.585 207.95Z" fill="url(#paint9_linear)"/>
<path d="M445.622 194.22C444.368 194.541 448.971 209.818 448.971 209.818C448.971 209.818 460.875 217.026 465.214 225.853C469.554 234.68 473.901 228.136 471.498 217.777C469.095 207.418 467.242 199.529 465.527 192.164C463.813 184.8 458.615 190.859 445.622 194.22Z" fill="#455A64"/>
<path d="M454.835 217.044C454.976 217.524 454.957 218.037 454.781 218.505C454.627 218.775 454.396 218.993 454.117 219.129C453.838 219.265 453.524 219.315 453.217 219.27C452.979 219.263 452.746 219.206 452.531 219.105C452.316 219.003 452.124 218.859 451.967 218.68C451.275 217.692 450.869 216.532 450.794 215.328C450.401 216.746 449.852 218.045 449.042 218.273C448.519 218.429 447.996 218.182 447.495 217.564C447.27 217.287 447.107 216.965 447.019 216.619C446.932 216.273 446.922 215.912 446.989 215.562C447.373 213.269 450.65 211.141 450.811 211.032C450.865 211.009 450.925 211.002 450.983 211.01L451.069 210.998L451.19 210.983L451.326 211.088C452.825 212.859 454.012 214.873 454.835 217.044ZM451.771 216.375C451.88 217.009 452.145 217.607 452.541 218.114C452.618 218.21 452.714 218.289 452.824 218.344C452.934 218.399 453.055 218.43 453.178 218.434C453.829 218.454 453.937 218.212 453.98 218.137C454.41 217.274 452.892 214.633 451.397 212.568C451.389 213.846 451.515 215.122 451.771 216.375ZM447.773 216.336C447.828 216.584 447.942 216.816 448.106 217.011C448.254 217.202 448.54 217.515 448.759 217.451C449.432 217.241 450.157 214.745 450.462 212.252C449.505 212.973 447.967 214.33 447.756 215.672C447.729 215.893 447.752 216.118 447.825 216.329L447.773 216.336Z" fill="#F4F4F4"/>
<path opacity="0.2" d="M434.371 210.795L430.862 198.268L415.695 200.002L416.577 214.135L434.371 210.795Z" fill="black"/>
<path d="M247.832 135.536C247.832 135.536 287.26 133.053 347.803 193.847L423.183 195.923L429.469 213.626C429.469 213.626 358.101 226.185 335.451 221.571C312.801 216.957 264.005 181.355 264.005 181.355L223.643 156.832L247.832 135.536Z" fill="#407BFF"/>
<path opacity="0.6" d="M429.469 213.626C429.469 213.626 358.101 226.185 335.451 221.571C312.801 216.957 264.005 181.355 264.005 181.355L223.643 156.832L247.839 135.588C247.839 135.588 278.357 133.672 326.922 174.614C331.546 178.514 336.341 182.778 341.282 187.495C343.418 189.553 345.594 191.688 347.809 193.899L423.19 195.975L429.469 213.626Z" fill="url(#paint10_linear)"/>
<path opacity="0.2" d="M344.29 191.315C323.567 194.991 295.123 194.004 260.387 178.076L304.87 165.203L320.985 167.342C328.537 174.534 336.325 182.476 344.29 191.315Z" fill="black"/>
<path d="M421.237 194.967L428.082 215.612L432.159 214.641L425.43 195.296L421.237 194.967Z" fill="#F4F4F4"/>
<path d="M484.079 123.798L476.941 114.461L462.787 122.88L449.805 130.621L456.491 143.067L471.096 132.871L484.079 123.798Z" fill="url(#paint11_linear)"/>
<path d="M474.813 112.916C473.813 113.712 484.274 125.7 484.274 125.7C484.274 125.7 498.138 127.396 505.691 133.612C513.245 139.829 514.549 132.105 508.087 123.661C501.626 115.216 496.688 108.781 492.104 102.772C487.519 96.764 485.288 104.486 474.813 112.916Z" fill="#455A64"/>
<path d="M492.601 129.923C492.937 130.294 493.135 130.769 493.162 131.269C493.13 131.579 493.005 131.871 492.806 132.109C492.606 132.348 492.34 132.521 492.041 132.607C491.822 132.695 491.588 132.738 491.353 132.732C491.117 132.727 490.885 132.674 490.671 132.576C489.624 131.959 488.767 131.064 488.197 129.99C488.386 131.437 488.465 132.846 487.817 133.386C487.41 133.755 486.831 133.743 486.066 133.387C485.753 133.227 485.476 133.004 485.253 132.731C485.031 132.459 484.868 132.143 484.774 131.803C484.182 129.55 486.289 126.243 486.407 126.07L486.531 125.949L486.652 125.933L486.789 125.915L486.944 125.895C489.052 126.894 490.967 128.258 492.601 129.923ZM489.581 130.528C489.943 131.062 490.427 131.503 490.992 131.815C491.105 131.867 491.227 131.895 491.351 131.897C491.474 131.899 491.597 131.875 491.711 131.827C492.309 131.573 492.312 131.328 492.318 131.239C492.349 130.271 489.892 128.489 487.678 127.218C488.202 128.384 488.845 129.492 489.598 130.525L489.581 130.528ZM485.921 132.144C486.075 132.351 486.277 132.517 486.51 132.628C486.717 132.741 487.106 132.901 487.28 132.756C487.813 132.283 487.409 129.724 486.692 127.312C485.893 128.574 485.522 130.061 485.634 131.551C485.691 131.765 485.789 131.967 485.921 132.144Z" fill="#F4F4F4"/>
<path opacity="0.2" d="M471.381 132.641L463.04 122.672L449.932 130.517L456.555 143.023L471.381 132.641Z" fill="black"/>
<path d="M195.022 136.927C195.022 136.927 196.989 168.495 195.04 170.467C193.091 172.439 159.723 203.503 159.723 203.503C159.723 203.503 147.283 207.212 143.504 209.791C139.725 212.369 144.796 224.518 147.068 225.956C149.34 227.395 165.884 216.227 165.884 216.227L167.732 211.868C167.732 211.868 204.64 183.777 208.094 181.258C211.548 178.739 215.494 141.895 215.494 141.895L195.022 136.927Z" fill="url(#paint12_linear)"/>
<path d="M198.712 119.044C187.192 124.701 193.009 154.102 193.009 154.102L215.587 158.164L219.138 148.342L198.712 119.044Z" fill="url(#paint13_linear)"/>
<path d="M270.43 140.963C270.43 140.963 305.358 122.384 385.536 152.89L455.085 123.71L468.096 137.258C468.096 137.258 408.251 178.122 385.7 183.257C363.149 188.391 304.047 176.058 304.047 176.058L257.151 170.298L270.43 140.963Z" fill="#407BFF"/>
<path opacity="0.6" d="M270.43 140.963C270.43 140.963 305.358 122.384 385.536 152.89L455.085 123.71L468.096 137.258C468.096 137.258 408.251 178.122 385.7 183.257C363.149 188.391 304.047 176.058 304.047 176.058L257.151 170.298L270.43 140.963Z" fill="url(#paint14_linear)"/>
<path d="M451.642 123.23L455.947 122.669L470.312 137.196L466.336 140.274L451.642 123.23Z" fill="#F4F4F4"/>
<path d="M202.2 55.6215C202.2 55.6215 219.966 45.8894 235.264 56.5628C244.894 63.2618 267.549 79.5817 277.26 71.7421C286.972 63.9026 303.204 55.8427 312.121 62.8451C312.121 62.8451 299.078 63.6717 293.274 69.6517C293.274 69.6517 305.083 64.6051 309.959 67.4736C314.834 70.3421 321.452 67.9185 321.452 67.9185C321.452 67.9185 329.518 85.4417 299.706 91.5591C299.706 91.5591 315.61 92.6549 322.03 85.6305C322.03 85.6305 325.778 98.3725 291.217 107.02C256.656 115.668 225.313 113.678 216.767 104.156C208.221 94.6342 202.2 55.6215 202.2 55.6215Z" fill="#313131"/>
<path d="M305.012 132.208C305.012 132.208 302.8 168.247 276.709 177.121C272.597 178.579 268.246 179.248 263.885 179.093C255.465 178.6 247.584 174.782 241.975 168.477C240.297 166.729 238.818 164.8 237.564 162.726L273.871 137.938L276.86 135.883C281.764 134.186 286.79 132.862 291.894 131.923C296.826 131.069 301.886 130.793 305.012 132.208Z" fill="url(#paint15_linear)"/>
<path opacity="0.2" d="M284.146 158.029C277.512 167.307 271.109 174.329 263.885 179.093C255.465 178.6 247.584 174.782 241.975 168.476C252.041 157.721 262.689 147.526 273.871 137.938L276.86 135.883C281.764 134.186 286.79 132.862 291.894 131.923C294.272 136.729 293.388 145.116 284.146 158.029Z" fill="black"/>
<path d="M198.711 119.043C221.174 108.145 246.106 103.35 271.007 105.137C271.007 105.137 287.019 125.303 293.337 142.038C293.337 142.038 276.649 175.183 248.242 177.98C219.834 180.777 198.711 119.043 198.711 119.043Z" fill="url(#paint16_linear)"/>
<path d="M191.581 86.5544C191.581 86.5544 184.48 48.9269 218.822 53.7669C261.99 59.8032 243.798 113.087 222.425 109.131C201.051 105.174 191.581 86.5544 191.581 86.5544Z" fill="#313131"/>
<path d="M249.251 109.782C249.251 109.782 244.453 131.789 231.155 132.14C227.648 132.219 224.182 131.367 221.11 129.672C218.037 127.977 215.468 125.499 213.662 122.49C213.289 121.912 212.953 121.312 212.657 120.693C212.657 120.693 219.044 117.844 214.065 112.57L228.748 97.7379C228.96 99.4955 229.276 101.239 229.692 102.96C230.476 106.012 231.755 109.367 233.798 109.994C237.735 111.18 249.251 109.782 249.251 109.782Z" fill="url(#paint17_linear)"/>
<path opacity="0.2" d="M229.761 102.951C229.409 110.585 226.794 122.615 213.73 122.481C213.358 121.904 213.022 121.304 212.725 120.684C212.725 120.684 219.113 117.835 214.134 112.562L228.817 97.7291C229.029 99.4867 229.344 101.23 229.761 102.951Z" fill="black"/>
<path d="M210.903 64.3349C196.121 65.1255 191.777 73.2983 191.515 88.5966C191.175 107.725 196.116 121.03 214.353 115.986C239.175 109.065 235.435 62.9726 210.903 64.3349Z" fill="url(#paint18_linear)"/>
<path d="M201.019 87.2154C199.952 89.488 198.614 91.6223 197.032 93.5714C197.499 94.1599 198.118 94.6088 198.822 94.8692C199.527 95.1295 200.289 95.1914 201.025 95.048L201.019 87.2154Z" fill="#D4827D"/>
<path d="M209.987 85.4838C210.023 86.7057 210.709 87.6677 211.53 87.6482C212.35 87.6287 212.972 86.6188 212.986 85.3901C213.001 84.1615 212.263 83.2063 211.443 83.2258C210.622 83.2453 209.954 84.2964 209.987 85.4838Z" fill="#263238"/>
<path d="M211.736 83.3282L209.071 82.3618C209.071 82.3618 210.408 84.5531 211.736 83.3282Z" fill="#263238"/>
<path d="M194.799 85.7139C194.833 86.9186 195.521 87.8977 196.34 87.861C197.158 87.8243 197.781 86.8316 197.798 85.6202C197.815 84.4088 197.076 83.4364 196.255 83.4558C195.434 83.4753 194.833 84.5002 194.799 85.7139Z" fill="#263238"/>
<path d="M196.613 83.5146L193.949 82.5654C193.949 82.5654 195.321 84.7523 196.613 83.5146Z" fill="#263238"/>
<path d="M209.603 75.3C210.764 75.0938 211.958 75.1577 213.091 75.4869C214.224 75.8161 215.266 76.4017 216.137 77.1983" stroke="#263238" stroke-width="0.72" stroke-linecap="round" stroke-linejoin="round"/>
<path d="M198.826 75.2516C197.804 75.0504 196.749 75.082 195.741 75.3441C194.732 75.6062 193.795 76.0921 193 76.7657" stroke="#263238" stroke-width="0.72" stroke-linecap="round" stroke-linejoin="round"/>
<path d="M228.413 88.3361C228.413 88.3361 220.85 76.5478 221.388 67.1194C221.388 67.1194 191.465 56.6905 191.613 86.5333C191.613 86.5333 187.325 60.2626 212.709 58.3159C238.093 56.3692 242.908 93.1209 230.366 104.905C230.334 104.927 233.055 95.7214 228.413 88.3361Z" fill="#313131"/>
<path d="M226.127 91.614C226.15 90.7611 226.341 89.9211 226.689 89.1423C227.037 88.3634 227.535 87.6611 228.155 87.0754C228.775 86.4898 229.504 86.0323 230.301 85.7294C231.098 85.4265 231.947 85.2841 232.8 85.3103C237.404 85.5679 240.09 94.8735 228.817 97.7295C227.189 98.1348 226.181 96.584 226.127 91.614Z" fill="#EEC1BB"/>
<path d="M200.003 101.035C200.846 102.637 201.567 104.3 202.159 106.011L203.123 105.885C207.379 105.084 209.08 103.355 209.681 101.524C209.954 100.673 210.022 99.7692 209.88 98.8867C209.818 98.3849 209.683 97.8948 209.48 97.4318C207.07 99.0918 204.332 100.214 201.451 100.723C200.569 100.943 200.003 101.035 200.003 101.035Z" fill="#263238"/>
<path d="M201.451 100.723L202.131 102.177C206.129 101.409 208.895 100.33 209.88 98.8868C209.817 98.385 209.683 97.8949 209.479 97.4319C207.07 99.0919 204.332 100.214 201.451 100.723Z" fill="white"/>
<path d="M203.116 105.833C207.372 105.033 209.073 103.303 209.674 101.472C208.059 101.807 206.515 102.424 205.114 103.294C204.196 103.908 203.496 104.797 203.116 105.833Z" fill="#DE5753"/>
<path d="M211.251 65.394C211.251 65.394 218.501 89.4029 233.8 88.2819C249.099 87.1609 223.823 57.6016 223.823 57.6016C223.823 57.6016 198.335 49.4853 186.705 63.4285C175.076 77.3716 191.581 86.5556 191.581 86.5556C191.581 86.5556 189.616 67.7452 211.251 65.394Z" fill="#313131"/>
<path d="M291.374 107.823C291.374 107.823 325.389 111.094 331.606 111.894C337.822 112.695 382.847 125.446 382.847 125.446C382.847 125.446 397.329 117.668 399.291 119.146C401.253 120.625 406.185 128.761 406.083 130.93C405.981 133.099 385.066 140.035 383.924 139.466C382.236 138.187 380.652 136.777 379.188 135.247C379.188 135.247 334.962 125.932 326.775 125.195C318.588 124.459 291.23 125.63 291.23 125.63L291.374 107.823Z" fill="url(#paint19_linear)"/>
<path d="M271.007 105.137C271.007 105.137 273.815 126.641 287.616 132.428L310.198 127.394L313.754 107.145C313.754 107.145 291.603 102.869 271.007 105.137Z" fill="url(#paint20_linear)"/>
<path d="M92.3366 215.676C92.3357 210.9 90.5138 206.304 87.2421 202.823C83.9703 199.343 79.4947 197.24 74.7268 196.944C69.9589 196.648 65.2573 198.179 61.5795 201.228C57.9018 204.276 55.5244 208.611 54.9317 213.351C54.4689 217.059 55.1238 220.821 56.8124 224.155C58.7174 227.923 61.8373 230.939 65.668 232.715C69.4988 234.491 73.8166 234.924 77.9237 233.944C82.0309 232.964 85.6876 230.627 88.3028 227.313C90.9181 223.998 92.3393 219.898 92.3366 215.676Z" fill="url(#paint21_linear)"/>
<path d="M393.08 550.031C393.079 545.335 391.288 540.817 388.072 537.395C384.855 533.974 380.456 531.907 375.769 531.616C371.081 531.324 366.46 532.83 362.844 535.827C359.229 538.824 356.892 543.086 356.309 547.745C355.854 551.39 356.498 555.089 358.158 558.366C360.03 562.07 363.098 565.035 366.863 566.781C370.629 568.527 374.874 568.953 378.911 567.989C382.949 567.025 386.544 564.729 389.114 561.47C391.685 558.211 393.082 554.181 393.08 550.031Z" fill="url(#paint22_linear)"/>
<path d="M502.997 434.012C502.995 422.813 498.723 412.035 491.051 403.875C483.38 395.714 472.886 390.784 461.706 390.089C450.527 389.394 439.502 392.986 430.879 400.134C422.256 407.281 416.681 417.447 415.292 428.56C414.206 437.255 415.742 446.076 419.701 453.894C424.168 462.729 431.483 469.8 440.466 473.964C449.448 478.129 459.572 479.144 469.202 476.846C478.833 474.547 487.407 469.069 493.539 461.297C499.671 453.524 503.003 443.912 502.997 434.012Z" fill="url(#paint23_linear)"/>
<defs>
<filter id="filter0_f" x="0.512939" y="165.667" width="448.82" height="448.82" filterUnits="userSpaceOnUse" color-interpolation-filters="sRGB">
<feFlood flood-opacity="0" result="BackgroundImageFix"/>
<feBlend mode="normal" in="SourceGraphic" in2="BackgroundImageFix" result="shape"/>
<feGaussianBlur stdDeviation="35" result="effect1_foregroundBlur"/>
</filter>
<linearGradient id="paint0_linear" x1="158.079" y1="501.039" x2="304.468" y2="235.667" gradientUnits="userSpaceOnUse">
<stop stop-color="#EF8197"/>
<stop offset="0.942708" stop-color="#F7C58F"/>
</linearGradient>
<linearGradient id="paint1_linear" x1="172.273" y1="477.472" x2="287.575" y2="268.454" gradientUnits="userSpaceOnUse">
<stop stop-color="#EF8197"/>
<stop offset="0.942708" stop-color="#F7C58F"/>
</linearGradient>
<linearGradient id="paint2_linear" x1="178.718" y1="499.993" x2="197.206" y2="411.052" gradientUnits="userSpaceOnUse">
<stop stop-color="#EF8197"/>
<stop offset="0.942708" stop-color="#F7C58F"/>
</linearGradient>
<linearGradient id="paint3_linear" x1="171.618" y1="359.982" x2="199.45" y2="247.451" gradientUnits="userSpaceOnUse">
<stop stop-color="#EF8197"/>
<stop offset="0.942708" stop-color="#F7C58F"/>
</linearGradient>
<linearGradient id="paint4_linear" x1="186.39" y1="5.37197" x2="165.606" y2="31.8563" gradientUnits="userSpaceOnUse">
<stop stop-color="#8177F7"/>
<stop offset="1" stop-color="#799FF8"/>
</linearGradient>
<linearGradient id="paint5_linear" x1="167.605" y1="47.4554" x2="153.133" y2="65.8333" gradientUnits="userSpaceOnUse">
<stop stop-color="#8177F7"/>
<stop offset="1" stop-color="#799FF8"/>
</linearGradient>
<linearGradient id="paint6_linear" x1="167.605" y1="47.4554" x2="153.133" y2="65.8333" gradientUnits="userSpaceOnUse">
<stop stop-color="#8177F7"/>
<stop offset="1" stop-color="#799FF8"/>
</linearGradient>
<linearGradient id="paint7_linear" x1="135.508" y1="33.4866" x2="120.923" y2="56.7951" gradientUnits="userSpaceOnUse">
<stop stop-color="#8177F7"/>
<stop offset="1" stop-color="#799FF8"/>
</linearGradient>
<linearGradient id="paint8_linear" x1="135.508" y1="33.4866" x2="120.923" y2="56.7951" gradientUnits="userSpaceOnUse">
<stop stop-color="#8177F7"/>
<stop offset="1" stop-color="#799FF8"/>
</linearGradient>
<linearGradient id="paint9_linear" x1="461.949" y1="206.503" x2="448.383" y2="187.763" gradientUnits="userSpaceOnUse">
<stop stop-color="#F7A491"/>
<stop offset="1" stop-color="#FFE8E5"/>
</linearGradient>
<linearGradient id="paint10_linear" x1="324.999" y1="182" x2="331.999" y2="230.5" gradientUnits="userSpaceOnUse">
<stop stop-color="#262859"/>
<stop offset="1" stop-color="#262859" stop-opacity="0"/>
</linearGradient>
<linearGradient id="paint11_linear" x1="498.498" y1="134.47" x2="471.49" y2="112.626" gradientUnits="userSpaceOnUse">
<stop stop-color="#F7A491"/>
<stop offset="1" stop-color="#FFE8E5"/>
</linearGradient>
<linearGradient id="paint12_linear" x1="248.762" y1="204.535" x2="185.251" y2="164.813" gradientUnits="userSpaceOnUse">
<stop stop-color="#F7A491"/>
<stop offset="1" stop-color="#FFE8E5"/>
</linearGradient>
<linearGradient id="paint13_linear" x1="196.762" y1="125.112" x2="222.68" y2="148.768" gradientUnits="userSpaceOnUse">
<stop stop-color="#EF8197"/>
<stop offset="0.942708" stop-color="#F7C58F"/>
</linearGradient>
<linearGradient id="paint14_linear" x1="368" y1="144" x2="363" y2="183" gradientUnits="userSpaceOnUse">
<stop stop-color="#262859"/>
<stop offset="1" stop-color="#262859" stop-opacity="0"/>
</linearGradient>
<linearGradient id="paint15_linear" x1="255.225" y1="142.854" x2="275.7" y2="184.426" gradientUnits="userSpaceOnUse">
<stop stop-color="#EF8197"/>
<stop offset="0.942708" stop-color="#F7C58F"/>
</linearGradient>
<linearGradient id="paint16_linear" x1="224.624" y1="118.531" x2="262.901" y2="181.975" gradientUnits="userSpaceOnUse">
<stop stop-color="#EF8197"/>
<stop offset="0.942708" stop-color="#F7C58F"/>
</linearGradient>
<linearGradient id="paint17_linear" x1="215.886" y1="98.728" x2="241.993" y2="121.815" gradientUnits="userSpaceOnUse">
<stop stop-color="#F7A491"/>
<stop offset="1" stop-color="#FFE8E5"/>
</linearGradient>
<linearGradient id="paint18_linear" x1="248.711" y1="105.52" x2="202.826" y2="85.4937" gradientUnits="userSpaceOnUse">
<stop stop-color="#F7A491"/>
<stop offset="1" stop-color="#FFE8E5"/>
</linearGradient>
<linearGradient id="paint19_linear" x1="288.85" y1="115.141" x2="300.965" y2="136.236" gradientUnits="userSpaceOnUse">
<stop stop-color="#F7A491"/>
<stop offset="1" stop-color="#FFE8E5"/>
</linearGradient>
<linearGradient id="paint20_linear" x1="283.384" y1="107.666" x2="297.914" y2="134.572" gradientUnits="userSpaceOnUse">
<stop stop-color="#EF8197"/>
<stop offset="0.942708" stop-color="#F7C58F"/>
</linearGradient>
<linearGradient id="paint21_linear" x1="50.7994" y1="234.457" x2="92.7808" y2="208.026" gradientUnits="userSpaceOnUse">
<stop stop-color="#F4F4F4"/>
<stop offset="1" stop-color="#799FF8"/>
</linearGradient>
<linearGradient id="paint22_linear" x1="366.634" y1="563.3" x2="384.131" y2="531.58" gradientUnits="userSpaceOnUse">
<stop stop-color="#EB4BAC"/>
<stop offset="1" stop-color="#FCE1C2"/>
</linearGradient>
<linearGradient id="paint23_linear" x1="439.918" y1="465.661" x2="481.653" y2="390.004" gradientUnits="userSpaceOnUse">
<stop stop-color="#8177F7"/>
<stop offset="1" stop-color="#799FF8"/>
</linearGradient>
</defs>
</svg>
