<svg width="283" height="304" viewBox="0 0 283 304" fill="none" xmlns="http://www.w3.org/2000/svg">
<g opacity="0.2">
<g opacity="0.4" filter="url(#filter0_f)">
<path d="M70.9739 162.849C70.9774 144.846 77.8445 127.521 90.1765 114.403C102.509 101.284 119.378 93.3597 137.349 92.2425C155.32 91.1252 173.042 96.8994 186.904 108.389C200.766 119.879 209.727 136.22 211.961 154.084C213.705 168.062 211.237 182.242 204.872 194.809C197.692 209.011 185.932 220.378 171.494 227.073C157.055 233.767 140.78 235.399 125.299 231.704C109.818 228.009 96.0357 219.203 86.1781 206.709C76.3206 194.215 70.964 178.763 70.9739 162.849Z" fill="url(#paint0_linear)"/>
</g>
</g>
<path d="M86.0017 162.853C86.0045 148.673 91.4133 135.027 101.127 124.695C110.84 114.362 124.127 108.12 138.282 107.24C152.437 106.36 166.395 110.908 177.314 119.958C188.232 129.008 195.29 141.879 197.05 155.95C198.424 166.959 196.479 178.128 191.466 188.026C185.811 199.212 176.548 208.165 165.176 213.438C153.803 218.712 140.984 219.997 128.791 217.086C116.597 214.176 105.742 207.24 97.9773 197.399C90.213 187.559 85.9939 175.388 86.0017 162.853Z" fill="url(#paint1_linear)"/>
<path d="M90.7814 185.474C117.722 199.299 126.959 193.501 155.742 183.243C172.193 177.375 184.2 182.53 191.463 188.025C186.7 197.431 179.365 205.294 170.312 210.7C161.259 216.106 150.858 218.834 140.316 218.567C129.774 218.299 119.525 215.048 110.757 209.191C101.989 203.333 95.0625 195.109 90.7814 185.474Z" fill="url(#paint2_linear)"/>
<path d="M88.1435 147.459C91.6932 135.119 99.3951 124.381 109.948 117.062C120.5 109.743 133.256 106.291 146.06 107.289C158.864 108.288 170.931 113.675 180.221 122.541C189.512 131.407 195.456 143.208 197.05 155.95C192.149 151.327 186.348 147.763 180.01 145.478C173.672 143.192 166.931 142.235 160.207 142.666C130.911 144.388 108.394 165.084 88.1435 147.459Z" fill="url(#paint3_linear)"/>
<path d="M179.414 0.173078C180.286 0.367322 181.126 0.68296 181.911 1.11076C182.661 1.51461 183.333 2.04899 183.896 2.68881C184.438 3.30871 184.837 4.03925 185.067 4.82947C185.308 5.66713 185.327 6.55293 185.122 7.4001C184.987 8.07257 184.719 8.71152 184.335 9.28004C183.99 9.76916 183.576 10.2052 183.105 10.5745C182.644 10.9322 182.153 11.249 181.637 11.5213L180.182 12.2898C179.743 12.5189 179.327 12.7884 178.938 13.0948C178.587 13.3613 178.317 13.7211 178.16 14.1331C178.081 14.3168 177.953 14.4751 177.79 14.5905C177.711 14.6504 177.62 14.6918 177.524 14.7116C177.427 14.7314 177.327 14.7291 177.232 14.7049L175.091 14.2475C174.988 14.2258 174.891 14.1839 174.805 14.1242C174.718 14.0645 174.645 13.9883 174.588 13.8998C174.528 13.817 174.489 13.7213 174.473 13.6203C174.457 13.5194 174.465 13.4161 174.496 13.3189C174.675 12.6535 174.986 12.0311 175.411 11.4893C175.794 11.0111 176.237 10.5838 176.729 10.2177C177.203 9.87042 177.707 9.56436 178.233 9.30291C178.755 9.04218 179.24 8.79061 179.688 8.54361C180.098 8.32708 180.483 8.06633 180.836 7.76602C181.144 7.50667 181.358 7.15296 181.444 6.75973C181.524 6.4163 181.518 6.05883 181.429 5.71789C181.34 5.37696 181.169 5.06271 180.932 4.80203C180.341 4.15569 179.55 3.72577 178.686 3.58075C177.088 3.22398 175.738 3.76219 174.634 5.1954C174.528 5.35232 174.393 5.48742 174.236 5.59334C174.151 5.63658 174.058 5.66249 173.963 5.66955C173.868 5.67662 173.773 5.66471 173.682 5.63451L171.395 5.12679C171.315 5.11125 171.238 5.07978 171.17 5.03423C171.101 4.98868 171.043 4.92995 170.997 4.86149C170.947 4.79142 170.914 4.71118 170.899 4.62654C170.884 4.54191 170.888 4.45499 170.91 4.37207C171.103 3.66908 171.464 3.02372 171.962 2.49213C172.522 1.87438 173.186 1.36029 173.925 0.973539C174.734 0.54871 175.607 0.25828 176.509 0.113617C177.472 -0.0557834 178.458 -0.0355859 179.414 0.173078ZM176.998 16.4293C177.099 16.4507 177.194 16.4927 177.277 16.5525C177.361 16.6123 177.431 16.6887 177.483 16.7769C177.54 16.8623 177.578 16.9582 177.596 17.0589C177.614 17.1595 177.612 17.2628 177.589 17.3624L177.04 19.8415C176.994 20.0395 176.872 20.2117 176.702 20.3218C176.531 20.432 176.324 20.4713 176.125 20.4316L173.701 19.8964C173.601 19.875 173.506 19.8336 173.423 19.7746C173.34 19.7156 173.269 19.6404 173.216 19.5534C173.159 19.4684 173.12 19.3724 173.102 19.2717C173.084 19.1709 173.087 19.0675 173.111 18.9679L173.659 16.4842C173.705 16.2863 173.827 16.114 173.997 16.0039C174.168 15.8938 174.375 15.8544 174.574 15.8941L176.998 16.4293Z" fill="url(#paint4_linear)"/>
<path d="M186.604 23.4962C187.209 23.3964 187.825 23.3841 188.434 23.4596C189.019 23.526 189.587 23.6964 190.113 23.9627C190.614 24.2193 191.054 24.5813 191.402 25.0239C191.772 25.4983 192.01 26.0614 192.093 26.6568C192.188 27.1201 192.188 27.5978 192.093 28.0611C191.998 28.4642 191.844 28.851 191.636 29.2092C191.432 29.5544 191.199 29.8819 190.94 30.188L190.204 31.0571C189.982 31.317 189.783 31.5956 189.609 31.8896C189.454 32.1509 189.375 32.4503 189.381 32.7541C189.38 32.8968 189.339 33.0363 189.262 33.1566C189.227 33.2141 189.18 33.2632 189.123 33.3004C189.067 33.3375 189.004 33.3618 188.937 33.3716L187.441 33.6186C187.297 33.6413 187.149 33.6068 187.03 33.5225C186.971 33.4842 186.922 33.4329 186.886 33.3726C186.851 33.3124 186.829 33.2447 186.824 33.1749C186.761 32.7061 186.797 32.2294 186.929 31.7752C187.048 31.3677 187.222 30.9783 187.446 30.618C187.66 30.273 187.903 29.9471 188.173 29.6437C188.443 29.3418 188.685 29.0582 188.914 28.7838C189.12 28.5399 189.3 28.2746 189.449 27.9925C189.58 27.7475 189.627 27.4661 189.582 27.192C189.545 26.951 189.45 26.7227 189.305 26.5267C189.159 26.3307 188.969 26.1729 188.749 26.0668C188.207 25.802 187.592 25.7279 187.002 25.8564C186.469 25.935 185.973 26.1761 185.582 26.5469C185.19 26.9177 184.923 27.4001 184.816 27.9284C184.787 28.0575 184.734 28.18 184.66 28.2898C184.572 28.3871 184.449 28.4461 184.317 28.4544L182.725 28.7152C182.612 28.7338 182.497 28.7093 182.401 28.6466C182.351 28.6141 182.308 28.5711 182.277 28.5205C182.245 28.4699 182.225 28.413 182.218 28.3538C182.162 27.8542 182.23 27.3486 182.414 26.881C182.613 26.3403 182.907 25.8398 183.283 25.4035C183.694 24.9247 184.179 24.5154 184.72 24.1914C185.297 23.8395 185.937 23.6034 186.604 23.4962ZM189.216 34.5608C189.286 34.549 189.358 34.5515 189.427 34.568C189.496 34.5845 189.561 34.6147 189.619 34.6569C189.676 34.6975 189.724 34.7492 189.761 34.8089C189.798 34.8687 189.823 34.9351 189.834 35.0045L190.117 36.7335C190.129 36.8036 190.126 36.8754 190.11 36.9445C190.093 37.0137 190.063 37.0788 190.021 37.136C189.981 37.1938 189.929 37.2427 189.87 37.2797C189.81 37.3167 189.743 37.3409 189.673 37.351L187.981 37.63C187.912 37.6414 187.841 37.6388 187.772 37.6223C187.704 37.6058 187.64 37.5758 187.583 37.534C187.524 37.4943 187.475 37.443 187.437 37.3831C187.399 37.3233 187.374 37.2563 187.364 37.1863L187.08 35.4528C187.059 35.3103 187.095 35.1652 187.181 35.0495C187.267 34.9338 187.395 34.8567 187.537 34.8353L189.216 34.5608Z" fill="url(#paint5_linear)"/>
<g opacity="0.2">
<path opacity="0.2" d="M186.604 23.4962C187.209 23.3964 187.825 23.3841 188.434 23.4596C189.019 23.526 189.587 23.6964 190.113 23.9627C190.614 24.2193 191.054 24.5813 191.402 25.0239C191.772 25.4983 192.01 26.0614 192.093 26.6568C192.188 27.1201 192.188 27.5978 192.093 28.0611C191.998 28.4642 191.844 28.851 191.636 29.2092C191.432 29.5544 191.199 29.8819 190.94 30.188L190.204 31.0571C189.982 31.317 189.783 31.5956 189.609 31.8896C189.454 32.1509 189.375 32.4503 189.381 32.7541C189.38 32.8968 189.339 33.0363 189.262 33.1566C189.227 33.2141 189.18 33.2632 189.123 33.3004C189.067 33.3375 189.004 33.3618 188.937 33.3716L187.441 33.6186C187.297 33.6413 187.149 33.6068 187.03 33.5225C186.971 33.4842 186.922 33.4329 186.886 33.3726C186.851 33.3124 186.829 33.2447 186.824 33.1749C186.761 32.7061 186.797 32.2294 186.929 31.7752C187.048 31.3677 187.222 30.9783 187.446 30.618C187.66 30.273 187.903 29.9471 188.173 29.6437C188.443 29.3418 188.685 29.0582 188.914 28.7838C189.12 28.5399 189.3 28.2746 189.449 27.9925C189.58 27.7475 189.627 27.4661 189.582 27.192C189.545 26.951 189.45 26.7227 189.305 26.5267C189.159 26.3307 188.969 26.1729 188.749 26.0668C188.207 25.802 187.592 25.7279 187.002 25.8564C186.469 25.935 185.973 26.1761 185.582 26.5469C185.19 26.9177 184.923 27.4001 184.816 27.9284C184.787 28.0575 184.734 28.18 184.66 28.2898C184.572 28.3871 184.449 28.4461 184.317 28.4544L182.725 28.7152C182.612 28.7338 182.497 28.7093 182.401 28.6466C182.351 28.6141 182.308 28.5711 182.277 28.5205C182.245 28.4699 182.225 28.413 182.218 28.3538C182.162 27.8542 182.23 27.3486 182.414 26.881C182.613 26.3403 182.907 25.8398 183.283 25.4035C183.694 24.9247 184.179 24.5154 184.72 24.1914C185.297 23.8395 185.937 23.6034 186.604 23.4962ZM189.216 34.5608C189.286 34.549 189.358 34.5515 189.427 34.568C189.496 34.5845 189.561 34.6147 189.619 34.6569C189.676 34.6975 189.724 34.7492 189.761 34.8089C189.798 34.8687 189.823 34.9351 189.834 35.0045L190.117 36.7335C190.129 36.8036 190.126 36.8754 190.11 36.9445C190.093 37.0137 190.063 37.0788 190.021 37.136C189.981 37.1938 189.929 37.2427 189.87 37.2797C189.81 37.3167 189.743 37.3409 189.673 37.351L187.981 37.63C187.912 37.6414 187.841 37.6388 187.772 37.6223C187.704 37.6058 187.64 37.5758 187.583 37.534C187.524 37.4943 187.475 37.443 187.437 37.3831C187.399 37.3233 187.374 37.2563 187.364 37.1863L187.08 35.4528C187.059 35.3103 187.095 35.1652 187.181 35.0495C187.267 34.9338 187.395 34.8567 187.537 34.8353L189.216 34.5608Z" fill="url(#paint6_linear)"/>
</g>
<path d="M202.201 28.4041C202.337 28.5032 202.429 28.6513 202.457 28.8171C202.485 28.9829 202.448 29.1531 202.352 29.2915L201.145 30.9839C201.046 31.1197 200.898 31.2115 200.732 31.2397C200.566 31.2679 200.396 31.2303 200.257 31.1348L198.602 29.9593C198.533 29.9115 198.475 29.8504 198.431 29.7796C198.387 29.7089 198.358 29.63 198.345 29.5476C198.321 29.3873 198.359 29.2239 198.451 29.0902L199.658 27.3932C199.756 27.2568 199.904 27.1647 200.07 27.1371C200.231 27.1129 200.395 27.1523 200.527 27.2469L202.201 28.4041ZM209.191 16.9278C209.788 17.349 210.321 17.8543 210.773 18.4281C211.21 18.974 211.546 19.5936 211.766 20.2577C211.976 20.8924 212.046 21.5648 211.972 22.2291C211.886 22.9365 211.618 23.6095 211.194 24.1822C210.878 24.6454 210.474 25.0417 210.005 25.3486C209.588 25.6076 209.134 25.8034 208.66 25.9295C208.2 26.0523 207.73 26.135 207.256 26.1765L205.911 26.2909C205.509 26.3277 205.112 26.3981 204.722 26.5013C204.373 26.5935 204.056 26.7803 203.807 27.041C203.687 27.1577 203.539 27.2413 203.377 27.2835C203.298 27.3021 203.217 27.3032 203.138 27.2865C203.058 27.2699 202.984 27.2361 202.92 27.1874L201.456 26.1491C201.316 26.0486 201.221 25.8977 201.191 25.7283C201.173 25.6484 201.174 25.5655 201.194 25.4862C201.214 25.4068 201.252 25.3331 201.305 25.2709C201.645 24.8245 202.073 24.4525 202.563 24.1777C203.003 23.9362 203.474 23.7547 203.962 23.6379C204.431 23.5247 204.909 23.4512 205.39 23.4184C205.847 23.3909 206.304 23.3543 206.725 23.3132C207.103 23.2806 207.476 23.2054 207.837 23.089C208.151 22.9933 208.425 22.7953 208.614 22.5264C208.784 22.2935 208.895 22.0226 208.936 21.7372C208.978 21.4518 208.949 21.1606 208.852 20.8889C208.614 20.2148 208.156 19.64 207.553 19.256C206.464 18.4784 205.275 18.4525 203.985 19.1782C203.855 19.2613 203.711 19.3202 203.56 19.352C203.481 19.3576 203.403 19.3475 203.328 19.3224C203.253 19.2973 203.185 19.2576 203.125 19.2057L201.57 18.0987C201.457 18.0217 201.378 17.9036 201.351 17.7694C201.337 17.7008 201.339 17.6301 201.356 17.5622C201.372 17.4943 201.403 17.4308 201.447 17.376C201.809 16.9082 202.28 16.536 202.819 16.292C203.438 16.0058 204.102 15.8309 204.781 15.7751C205.525 15.7145 206.274 15.7731 207 15.9489C207.788 16.1267 208.532 16.4595 209.191 16.9278Z" fill="url(#paint7_linear)"/>
<g opacity="0.6">
<path opacity="0.6" d="M202.201 28.4041C202.337 28.5032 202.429 28.6513 202.457 28.8171C202.485 28.9829 202.448 29.1531 202.352 29.2915L201.145 30.9839C201.046 31.1197 200.898 31.2115 200.732 31.2397C200.566 31.2679 200.396 31.2303 200.257 31.1348L198.602 29.9593C198.533 29.9115 198.475 29.8504 198.431 29.7796C198.387 29.7089 198.358 29.63 198.345 29.5476C198.321 29.3873 198.359 29.2239 198.451 29.0902L199.658 27.3932C199.756 27.2568 199.904 27.1647 200.07 27.1371C200.231 27.1129 200.395 27.1523 200.527 27.2469L202.201 28.4041ZM209.191 16.9278C209.788 17.349 210.321 17.8543 210.773 18.4281C211.21 18.974 211.546 19.5936 211.766 20.2577C211.976 20.8924 212.046 21.5648 211.972 22.2291C211.886 22.9365 211.618 23.6095 211.194 24.1822C210.878 24.6454 210.474 25.0417 210.005 25.3486C209.588 25.6076 209.134 25.8034 208.66 25.9295C208.2 26.0523 207.73 26.135 207.256 26.1765L205.911 26.2909C205.509 26.3277 205.112 26.3981 204.722 26.5013C204.373 26.5935 204.056 26.7803 203.807 27.041C203.687 27.1577 203.539 27.2413 203.377 27.2835C203.298 27.3021 203.217 27.3032 203.138 27.2865C203.058 27.2699 202.984 27.2361 202.92 27.1874L201.456 26.1491C201.316 26.0486 201.221 25.8977 201.191 25.7283C201.173 25.6484 201.174 25.5655 201.194 25.4862C201.214 25.4068 201.252 25.3331 201.305 25.2709C201.645 24.8245 202.073 24.4525 202.563 24.1777C203.003 23.9362 203.474 23.7547 203.962 23.6379C204.431 23.5247 204.909 23.4512 205.39 23.4184C205.847 23.3909 206.304 23.3543 206.725 23.3132C207.103 23.2806 207.476 23.2054 207.837 23.089C208.151 22.9933 208.425 22.7953 208.614 22.5264C208.784 22.2935 208.895 22.0226 208.936 21.7372C208.978 21.4518 208.949 21.1606 208.852 20.8889C208.614 20.2148 208.156 19.64 207.553 19.256C206.464 18.4784 205.275 18.4525 203.985 19.1782C203.855 19.2613 203.711 19.3202 203.56 19.352C203.481 19.3576 203.403 19.3475 203.328 19.3224C203.253 19.2973 203.185 19.2576 203.125 19.2057L201.57 18.0987C201.457 18.0217 201.378 17.9036 201.351 17.7694C201.337 17.7008 201.339 17.6301 201.356 17.5622C201.372 17.4943 201.403 17.4308 201.447 17.376C201.809 16.9082 202.28 16.536 202.819 16.292C203.438 16.0058 204.102 15.8309 204.781 15.7751C205.525 15.7145 206.274 15.7731 207 15.9489C207.788 16.1267 208.532 16.4595 209.191 16.9278Z" fill="url(#paint8_linear)"/>
</g>
<path d="M46.4665 92.9814L47.6662 87.8337L55.0247 88.6603L61.7771 89.4236L61.3429 95.7667L53.4697 94.2976L46.4665 92.9814Z" fill="url(#paint9_linear)"/>
<path d="M48.2494 86.8064C48.8133 86.9509 46.7429 93.8214 46.7429 93.8214C46.7429 93.8214 41.3894 97.0634 39.4378 101.033C37.4861 105.003 35.5311 102.06 36.6119 97.4013C37.6926 92.7424 38.526 89.1941 39.297 85.8821C40.068 82.57 42.4059 85.2948 48.2494 86.8064Z" fill="#455A64"/>
<path d="M44.1058 97.0709C44.0427 97.2869 44.0513 97.5176 44.1303 97.7282C44.1994 97.8497 44.3035 97.9474 44.4289 98.0088C44.5544 98.0701 44.6954 98.0922 44.8336 98.0722C44.9405 98.0689 45.0456 98.0436 45.1423 97.9979C45.239 97.9522 45.3254 97.8872 45.3959 97.8068C45.7071 97.3624 45.8897 96.8408 45.9235 96.2993C46.1002 96.9371 46.3469 97.521 46.7115 97.6238C46.9465 97.6939 47.1815 97.5827 47.4068 97.3047C47.5085 97.1806 47.5816 97.0355 47.6209 96.88C47.6603 96.7244 47.665 96.562 47.6346 96.4044C47.4621 95.3731 45.9882 94.4161 45.9158 94.3673C45.8914 94.357 45.8646 94.3535 45.8384 94.3572L45.7997 94.3521L45.7455 94.345L45.6842 94.3922C45.0099 95.1889 44.4761 96.0948 44.1058 97.0709ZM45.484 96.77C45.4347 97.0553 45.3158 97.3241 45.1378 97.5524C45.1032 97.5956 45.0597 97.6309 45.0103 97.6558C44.9608 97.6806 44.9065 97.6944 44.8512 97.6962C44.5586 97.7053 44.5098 97.5965 44.4906 97.5625C44.2971 97.1746 44.9798 95.9869 45.6524 95.058C45.6556 95.6329 45.5991 96.2067 45.484 96.77ZM47.282 96.7525C47.2572 96.8643 47.2058 96.9684 47.1321 97.0561C47.0658 97.142 46.9371 97.2828 46.8385 97.2542C46.5358 97.1595 46.2098 96.0372 46.0726 94.9158C46.5029 95.24 47.195 95.8505 47.2895 96.454C47.302 96.5535 47.2915 96.6546 47.2588 96.7495L47.282 96.7525Z" fill="#F4F4F4"/>
<path opacity="0.2" d="M53.3088 94.2609L54.887 88.6267L61.7081 89.4068L61.3116 95.7628L53.3088 94.2609Z" fill="black"/>
<path d="M137.204 60.4134C137.204 60.4134 119.471 59.2966 92.2426 86.638L58.3408 87.5719L55.5136 95.5337C55.5136 95.5337 87.6111 101.182 97.7977 99.1068C107.984 97.0317 129.93 81.0201 129.93 81.0201L148.082 69.991L137.204 60.4134Z" fill="#407BFF"/>
<path opacity="0.6" d="M55.5137 95.5337C55.5137 95.5337 87.6112 101.182 97.7979 99.1068C107.985 97.0317 129.93 81.0201 129.93 81.0201L148.082 69.991L137.201 60.4366C137.201 60.4366 123.475 59.5749 101.634 77.9883C99.5539 79.7423 97.3976 81.6598 95.1753 83.7815C94.2144 84.7069 93.2358 85.6668 92.2397 86.6613L58.3379 87.5951L55.5137 95.5337Z" fill="url(#paint10_linear)"/>
<path opacity="0.2" d="M93.8227 85.4998C103.143 87.1529 115.935 86.7093 131.557 79.5455L111.551 73.756L104.304 74.7179C100.907 77.9525 97.4045 81.5245 93.8227 85.4998Z" fill="black"/>
<path d="M59.2161 87.1423L56.1374 96.427L54.3042 95.9906L57.3301 87.2902L59.2161 87.1423Z" fill="#F4F4F4"/>
<path d="M30.9535 55.1341L34.1637 50.9346L40.5294 54.7212L46.3678 58.2025L43.361 63.8L36.7924 59.2145L30.9535 55.1341Z" fill="url(#paint11_linear)"/>
<path d="M35.1211 50.2401C35.5705 50.5983 30.8657 55.9899 30.8657 55.9899C30.8657 55.9899 24.6308 56.7523 21.2336 59.5482C17.8364 62.344 17.2502 58.8705 20.156 55.0726C23.0618 51.2747 25.2826 48.3804 27.3445 45.6782C29.4063 42.976 30.41 46.4488 35.1211 50.2401Z" fill="#455A64"/>
<path d="M27.1204 57.8887C26.9697 58.0558 26.8806 58.2695 26.8681 58.4942C26.8828 58.6333 26.9387 58.7649 27.0285 58.8721C27.1183 58.9793 27.2381 59.0572 27.3724 59.096C27.4707 59.1356 27.576 59.1547 27.6819 59.1523C27.7879 59.1499 27.8922 59.1259 27.9886 59.0818C28.4597 58.8044 28.8448 58.4018 29.1013 57.9187C29.0163 58.5697 28.9808 59.2035 29.272 59.4464C29.4552 59.6122 29.7158 59.6068 30.0596 59.4468C30.2005 59.3749 30.325 59.2744 30.4251 59.1518C30.5252 59.0292 30.5986 58.8871 30.6409 58.7345C30.9071 57.721 29.9592 56.2337 29.9063 56.1559L29.8505 56.1013L29.7962 56.0942L29.7343 56.0862L29.6646 56.0771C28.7167 56.5266 27.8555 57.1399 27.1204 57.8887ZM28.479 58.1607C28.3159 58.4011 28.0984 58.5995 27.8442 58.7398C27.7936 58.7633 27.7387 58.7759 27.683 58.7767C27.6272 58.7776 27.5719 58.7668 27.5206 58.7449C27.252 58.631 27.2506 58.5205 27.2479 58.4807C27.2339 58.0454 28.3388 57.2439 29.3349 56.6724C29.0992 57.1967 28.8098 57.6951 28.4713 58.1596L28.479 58.1607ZM30.1247 58.8878C30.0555 58.9809 29.9646 59.0556 29.86 59.1055C29.7667 59.1563 29.5919 59.2281 29.5138 59.1627C29.2738 58.9501 29.4555 57.7995 29.7783 56.7146C30.1375 57.2823 30.3043 57.9508 30.254 58.6209C30.2283 58.7173 30.1844 58.8079 30.1247 58.8878Z" fill="#F4F4F4"/>
<path opacity="0.2" d="M36.6642 59.1114L40.4157 54.6278L46.311 58.1559L43.332 63.7807L36.6642 59.1114Z" fill="black"/>
<path d="M160.955 61.039C160.955 61.039 160.071 75.2365 160.947 76.1234C161.824 77.0102 176.831 90.9809 176.831 90.9809C176.831 90.9809 182.426 92.6491 184.125 93.8089C185.824 94.9686 183.544 100.432 182.522 101.079C181.5 101.726 174.06 96.7037 174.06 96.7037L173.229 94.7431C173.229 94.7431 156.629 82.1094 155.076 80.9765C153.523 79.8437 151.748 63.2734 151.748 63.2734L160.955 61.039Z" fill="url(#paint12_linear)"/>
<path d="M159.295 52.9962C164.476 55.5405 161.86 68.7633 161.86 68.7633L151.706 70.5904L150.108 66.1731L159.295 52.9962Z" fill="url(#paint13_linear)"/>
<path d="M127.04 62.8541C127.04 62.8541 111.331 54.4982 75.2723 68.2182L43.9931 55.0947L38.1414 61.1878C38.1414 61.1878 65.0565 79.5661 75.1985 81.8752C85.3405 84.1844 111.921 78.6378 111.921 78.6378L133.013 76.0473L127.04 62.8541Z" fill="#407BFF"/>
<path opacity="0.6" d="M127.04 62.8541C127.04 62.8541 111.331 54.4982 75.2723 68.2182L43.9931 55.0947L38.1414 61.1878C38.1414 61.1878 65.0565 79.5661 75.1985 81.8753C85.3405 84.1844 111.921 78.6378 111.921 78.6378L133.013 76.0473L127.04 62.8541Z" fill="url(#paint14_linear)"/>
<path d="M45.542 54.8789L43.606 54.6262L37.1454 61.16L38.9337 62.5442L45.542 54.8789Z" fill="#F4F4F4"/>
<path d="M157.726 24.4726C157.726 24.4726 149.736 20.0956 142.856 24.8959C138.525 27.9087 128.336 35.2485 123.968 31.7227C119.601 28.1969 112.3 24.572 108.29 27.7213C108.29 27.7213 114.156 28.0931 116.766 30.7825C116.766 30.7825 111.455 28.5129 109.263 29.803C107.07 31.0931 104.093 30.003 104.093 30.003C104.093 30.003 100.466 37.884 113.874 40.6352C113.874 40.6352 106.721 41.1281 103.833 37.9689C103.833 37.9689 102.148 43.6995 117.691 47.5887C133.235 51.4778 147.331 50.5831 151.175 46.3007C155.018 42.0182 157.726 24.4726 157.726 24.4726Z" fill="#313131"/>
<path d="M111.487 58.9166C111.487 58.9166 112.482 75.125 124.216 79.1159C126.066 79.7715 128.023 80.0723 129.984 80.0028C133.771 79.7813 137.315 78.0639 139.838 75.2281C140.592 74.442 141.258 73.5746 141.821 72.6418L125.493 61.4937L124.149 60.5694C121.943 59.8064 119.683 59.211 117.387 58.7883C115.169 58.4042 112.893 58.2805 111.487 58.9166Z" fill="url(#paint15_linear)"/>
<path opacity="0.2" d="M120.872 70.5293C123.855 74.702 126.735 77.8601 129.984 80.0024C133.771 79.7809 137.315 78.0635 139.838 75.2278C135.311 70.3907 130.522 65.8056 125.493 61.4934L124.149 60.5691C121.943 59.8061 119.683 59.2107 117.387 58.788C116.318 60.9498 116.715 64.7218 120.872 70.5293Z" fill="black"/>
<path d="M159.296 52.9959C149.193 48.0948 137.98 45.9379 126.781 46.7416C126.781 46.7416 119.58 55.8112 116.739 63.3377C116.739 63.3377 124.244 78.2443 137.02 79.5022C149.796 80.7602 159.296 52.9959 159.296 52.9959Z" fill="url(#paint16_linear)"/>
<path d="M162.503 38.3846C162.503 38.3846 165.697 21.4619 150.251 23.6387C130.837 26.3534 139.019 50.3176 148.631 48.538C158.244 46.7585 162.503 38.3846 162.503 38.3846Z" fill="#313131"/>
<path d="M136.565 48.831C136.565 48.831 138.723 58.7283 144.704 58.8864C146.281 58.9217 147.84 58.5388 149.222 57.7765C150.603 57.0142 151.759 55.8997 152.571 54.5461C152.739 54.2865 152.89 54.0166 153.023 53.7381C153.023 53.7381 150.151 52.4567 152.39 50.085L145.786 43.4142C145.691 44.2047 145.549 44.9888 145.362 45.7627C145.009 47.1353 144.434 48.6445 143.515 48.9265C141.744 49.4598 136.565 48.831 136.565 48.831Z" fill="url(#paint17_linear)"/>
<path opacity="0.2" d="M145.331 45.7585C145.489 49.1919 146.665 54.6025 152.54 54.5419C152.708 54.2824 152.859 54.0125 152.992 53.7339C152.992 53.7339 150.12 52.4525 152.359 50.0808L145.755 43.4101C145.66 44.2005 145.518 44.9847 145.331 45.7585Z" fill="black"/>
<path d="M153.812 28.3909C160.461 28.7464 162.414 32.4221 162.532 39.3024C162.685 47.9054 160.463 53.8891 152.261 51.6204C141.097 48.5079 142.78 27.7782 153.812 28.3909Z" fill="url(#paint18_linear)"/>
<path d="M158.258 38.6815C158.737 39.7036 159.339 40.6635 160.05 41.5401C159.84 41.8047 159.562 42.0066 159.245 42.1237C158.929 42.2408 158.586 42.2686 158.255 42.2042L158.258 38.6815Z" fill="#D4827D"/>
<path d="M154.224 37.9027C154.208 38.4523 153.899 38.8849 153.53 38.8761C153.161 38.8674 152.882 38.4132 152.875 37.8606C152.868 37.308 153.2 36.8784 153.569 36.8872C153.938 36.896 154.239 37.3687 154.224 37.9027Z" fill="#263238"/>
<path d="M153.437 36.9332L154.636 36.4985C154.636 36.4985 154.035 37.4841 153.437 36.9332Z" fill="#263238"/>
<path d="M161.055 38.0063C161.04 38.5481 160.73 38.9885 160.362 38.9719C159.994 38.9554 159.714 38.509 159.706 37.9642C159.698 37.4193 160.031 36.982 160.4 36.9908C160.769 36.9995 161.04 37.4605 161.055 38.0063Z" fill="#263238"/>
<path d="M160.24 37.017L161.438 36.5901C161.438 36.5901 160.821 37.5736 160.24 37.017Z" fill="#263238"/>
<path d="M154.397 33.3227C153.875 33.23 153.338 33.2587 152.828 33.4068C152.319 33.5548 151.85 33.8182 151.458 34.1765" stroke="#263238" stroke-width="0.72" stroke-linecap="round" stroke-linejoin="round"/>
<path d="M159.244 33.3009C159.703 33.2105 160.178 33.2247 160.631 33.3426C161.085 33.4604 161.506 33.679 161.864 33.9819" stroke="#263238" stroke-width="0.72" stroke-linecap="round" stroke-linejoin="round"/>
<path d="M145.938 39.1856C145.938 39.1856 149.339 33.8839 149.097 29.6435C149.097 29.6435 162.555 24.9532 162.488 38.3748C162.488 38.3748 164.417 26.5597 153.001 25.6842C141.584 24.8087 139.419 41.3375 145.059 46.6373C145.074 46.6471 143.85 42.5071 145.938 39.1856Z" fill="#313131"/>
<path d="M146.965 40.6597C146.955 40.2761 146.869 39.8983 146.712 39.548C146.556 39.1978 146.332 38.8819 146.053 38.6185C145.774 38.3551 145.446 38.1494 145.088 38.0131C144.729 37.8769 144.348 37.8128 143.964 37.8246C141.894 37.9405 140.686 42.1256 145.755 43.4101C146.488 43.5924 146.941 42.8949 146.965 40.6597Z" fill="#EEC1BB"/>
<path d="M158.715 44.8965C158.335 45.617 158.011 46.3651 157.745 47.1345L157.311 47.0779C155.397 46.7176 154.632 45.94 154.362 45.1165C154.239 44.7337 154.209 44.3274 154.273 43.9305C154.301 43.7048 154.361 43.4844 154.453 43.2761C155.536 44.0227 156.768 44.5275 158.063 44.7564C158.46 44.8554 158.715 44.8965 158.715 44.8965Z" fill="#263238"/>
<path d="M158.063 44.7566L157.758 45.4102C155.96 45.0652 154.716 44.5797 154.273 43.9307C154.301 43.705 154.361 43.4846 154.453 43.2764C155.536 44.0229 156.768 44.5277 158.063 44.7566Z" fill="white"/>
<path d="M157.314 47.0546C155.4 46.6943 154.635 45.9167 154.365 45.0932C155.091 45.2437 155.786 45.5211 156.416 45.9126C156.829 46.1884 157.143 46.5883 157.314 47.0546Z" fill="#DE5753"/>
<path d="M153.656 28.8671C153.656 28.8671 150.395 39.6649 143.515 39.1608C136.634 38.6566 148.002 25.3626 148.002 25.3626C148.002 25.3626 159.465 21.7123 164.695 27.9832C169.925 34.254 162.502 38.3844 162.502 38.3844C162.502 38.3844 163.386 29.9246 153.656 28.8671Z" fill="#313131"/>
<path d="M117.621 47.9497C117.621 47.9497 102.323 49.4206 99.527 49.7808C96.7313 50.1409 76.4818 55.8757 76.4818 55.8757C76.4818 55.8757 69.9683 52.3771 69.086 53.0423C68.2037 53.7074 65.9855 57.3665 66.0314 58.3419C66.0773 59.3174 75.4835 62.4368 75.9974 62.1808C76.7565 61.6058 77.4688 60.9714 78.1274 60.2835C78.1274 60.2835 98.0176 56.0939 101.7 55.7628C105.381 55.4316 117.686 55.9581 117.686 55.9581L117.621 47.9497Z" fill="url(#paint19_linear)"/>
<path d="M126.781 46.7417C126.781 46.7417 125.518 56.4131 119.311 59.0156L109.155 56.7519L107.556 47.6448C107.556 47.6448 117.518 45.7217 126.781 46.7417Z" fill="url(#paint20_linear)"/>
<path d="M217.06 98.8088C217.06 96.5978 217.903 94.4702 219.418 92.8591C220.932 91.2481 223.004 90.2749 225.211 90.1377C227.418 90.0005 229.594 90.7096 231.297 92.1206C232.999 93.5317 234.1 95.5385 234.374 97.7324C234.588 99.449 234.285 101.19 233.503 102.734C232.622 104.478 231.178 105.874 229.404 106.696C227.631 107.518 225.632 107.719 223.731 107.265C221.83 106.811 220.137 105.73 218.927 104.195C217.716 102.661 217.058 100.763 217.06 98.8088Z" fill="url(#paint21_linear)"/>
<path d="M77.7122 233.988C77.7126 231.951 78.4897 229.99 79.8854 228.505C81.2811 227.021 83.1904 226.124 85.2243 225.997C87.2582 225.871 89.2638 226.524 90.8327 227.825C92.4016 229.125 93.4157 230.975 93.6686 232.996C93.866 234.578 93.5867 236.183 92.8663 237.605C92.0537 239.213 90.7228 240.499 89.0886 241.257C87.4545 242.015 85.6126 242.199 83.8605 241.781C82.1084 241.363 80.5486 240.366 79.4329 238.952C78.3173 237.538 77.711 235.789 77.7122 233.988Z" fill="url(#paint22_linear)"/>
<path d="M31.6592 192.253C31.66 188.435 33.1162 184.761 35.7313 181.98C38.3465 179.198 41.9238 177.517 45.7348 177.28C49.5458 177.043 53.3038 178.268 56.2435 180.704C59.1832 183.141 61.0834 186.606 61.5571 190.395C61.9271 193.359 61.4036 196.366 60.0539 199.031C58.5312 202.042 56.0375 204.453 52.9755 205.872C49.9136 207.292 46.4624 207.638 43.1795 206.855C39.8966 206.071 36.9738 204.204 34.8834 201.554C32.793 198.905 31.6571 195.628 31.6592 192.253Z" fill="url(#paint23_linear)"/>
<defs>
<filter id="filter0_f" x="0.973877" y="22.106" width="281.532" height="281.532" filterUnits="userSpaceOnUse" color-interpolation-filters="sRGB">
<feFlood flood-opacity="0" result="BackgroundImageFix"/>
<feBlend mode="normal" in="SourceGraphic" in2="BackgroundImageFix" result="shape"/>
<feGaussianBlur stdDeviation="35" result="effect1_foregroundBlur"/>
</filter>
<linearGradient id="paint0_linear" x1="172.374" y1="213.725" x2="105.285" y2="92.106" gradientUnits="userSpaceOnUse">
<stop stop-color="#8177F7"/>
<stop offset="1" stop-color="#799FF8"/>
</linearGradient>
<linearGradient id="paint1_linear" x1="165.869" y1="202.925" x2="113.027" y2="107.133" gradientUnits="userSpaceOnUse">
<stop stop-color="#8177F7"/>
<stop offset="1" stop-color="#799FF8"/>
</linearGradient>
<linearGradient id="paint2_linear" x1="162.915" y1="213.247" x2="154.442" y2="172.486" gradientUnits="userSpaceOnUse">
<stop stop-color="#8177F7"/>
<stop offset="1" stop-color="#799FF8"/>
</linearGradient>
<linearGradient id="paint3_linear" x1="166.17" y1="149.08" x2="153.414" y2="97.5072" gradientUnits="userSpaceOnUse">
<stop stop-color="#8177F7"/>
<stop offset="1" stop-color="#799FF8"/>
</linearGradient>
<linearGradient id="paint4_linear" x1="174.965" y1="2.8767" x2="186.095" y2="17.0591" gradientUnits="userSpaceOnUse">
<stop stop-color="#8177F7"/>
<stop offset="1" stop-color="#799FF8"/>
</linearGradient>
<linearGradient id="paint5_linear" x1="185.025" y1="25.4124" x2="192.775" y2="35.2538" gradientUnits="userSpaceOnUse">
<stop stop-color="#8177F7"/>
<stop offset="1" stop-color="#799FF8"/>
</linearGradient>
<linearGradient id="paint6_linear" x1="185.025" y1="25.4124" x2="192.775" y2="35.2538" gradientUnits="userSpaceOnUse">
<stop stop-color="#8177F7"/>
<stop offset="1" stop-color="#799FF8"/>
</linearGradient>
<linearGradient id="paint7_linear" x1="202.212" y1="17.9323" x2="210.022" y2="30.414" gradientUnits="userSpaceOnUse">
<stop stop-color="#8177F7"/>
<stop offset="1" stop-color="#799FF8"/>
</linearGradient>
<linearGradient id="paint8_linear" x1="202.212" y1="17.9323" x2="210.022" y2="30.414" gradientUnits="userSpaceOnUse">
<stop stop-color="#8177F7"/>
<stop offset="1" stop-color="#799FF8"/>
</linearGradient>
<linearGradient id="paint9_linear" x1="40.9059" y1="92.3306" x2="47.0071" y2="83.9025" gradientUnits="userSpaceOnUse">
<stop stop-color="#F7A491"/>
<stop offset="1" stop-color="#FFE8E5"/>
</linearGradient>
<linearGradient id="paint10_linear" x1="102.498" y1="81.31" x2="99.35" y2="103.123" gradientUnits="userSpaceOnUse">
<stop stop-color="#262859"/>
<stop offset="1" stop-color="#262859" stop-opacity="0"/>
</linearGradient>
<linearGradient id="paint11_linear" x1="24.4685" y1="59.9335" x2="36.6152" y2="50.1093" gradientUnits="userSpaceOnUse">
<stop stop-color="#F7A491"/>
<stop offset="1" stop-color="#FFE8E5"/>
</linearGradient>
<linearGradient id="paint12_linear" x1="136.786" y1="91.445" x2="165.35" y2="73.5805" gradientUnits="userSpaceOnUse">
<stop stop-color="#F7A491"/>
<stop offset="1" stop-color="#FFE8E5"/>
</linearGradient>
<linearGradient id="paint13_linear" x1="160.172" y1="55.7255" x2="148.515" y2="66.3646" gradientUnits="userSpaceOnUse">
<stop stop-color="#EF8197"/>
<stop offset="0.942708" stop-color="#F7C58F"/>
</linearGradient>
<linearGradient id="paint14_linear" x1="83.1588" y1="64.22" x2="85.4075" y2="81.7599" gradientUnits="userSpaceOnUse">
<stop stop-color="#262859"/>
<stop offset="1" stop-color="#262859" stop-opacity="0"/>
</linearGradient>
<linearGradient id="paint15_linear" x1="133.879" y1="63.7047" x2="124.67" y2="82.4012" gradientUnits="userSpaceOnUse">
<stop stop-color="#EF8197"/>
<stop offset="0.942708" stop-color="#F7C58F"/>
</linearGradient>
<linearGradient id="paint16_linear" x1="147.642" y1="52.7657" x2="130.427" y2="81.2989" gradientUnits="userSpaceOnUse">
<stop stop-color="#EF8197"/>
<stop offset="0.942708" stop-color="#F7C58F"/>
</linearGradient>
<linearGradient id="paint17_linear" x1="151.571" y1="43.8595" x2="139.83" y2="54.2426" gradientUnits="userSpaceOnUse">
<stop stop-color="#F7A491"/>
<stop offset="1" stop-color="#FFE8E5"/>
</linearGradient>
<linearGradient id="paint18_linear" x1="136.809" y1="46.9137" x2="157.445" y2="37.9069" gradientUnits="userSpaceOnUse">
<stop stop-color="#F7A491"/>
<stop offset="1" stop-color="#FFE8E5"/>
</linearGradient>
<linearGradient id="paint19_linear" x1="118.756" y1="51.241" x2="113.307" y2="60.7282" gradientUnits="userSpaceOnUse">
<stop stop-color="#F7A491"/>
<stop offset="1" stop-color="#FFE8E5"/>
</linearGradient>
<linearGradient id="paint20_linear" x1="121.214" y1="47.8791" x2="114.679" y2="59.9801" gradientUnits="userSpaceOnUse">
<stop stop-color="#EF8197"/>
<stop offset="0.942708" stop-color="#F7C58F"/>
</linearGradient>
<linearGradient id="paint21_linear" x1="229.512" y1="105.057" x2="221.273" y2="90.1209" gradientUnits="userSpaceOnUse">
<stop stop-color="#5FA8ED"/>
<stop offset="1" stop-color="#7ED5B7"/>
</linearGradient>
<linearGradient id="paint22_linear" x1="83.1523" y1="249.645" x2="83.1522" y2="225.982" gradientUnits="userSpaceOnUse">
<stop offset="0.169841" stop-color="#EA5AB1"/>
<stop offset="0.942708" stop-color="#F9E1C5"/>
</linearGradient>
<linearGradient id="paint23_linear" x1="53.1623" y1="203.042" x2="38.9352" y2="177.251" gradientUnits="userSpaceOnUse">
<stop stop-color="#73BCF9"/>
<stop offset="1" stop-color="#7A96F8"/>
</linearGradient>
</defs>
</svg>
