<svg width="15" height="25" viewBox="0 0 15 25" fill="none" xmlns="http://www.w3.org/2000/svg">
<path d="M14.6835 13.186L1.83715 24.7173C1.41625 25.0949 0.734808 25.0942 0.314616 24.7153C-0.10525 24.3365 -0.104165 23.7228 0.316786 23.3449L12.3985 12.5L0.316356 1.65507C-0.104541 1.27714 -0.105626 0.663816 0.314186 0.284912C0.524824 0.0949708 0.800776 1.40011e-07 1.07673 1.8826e-07C1.35197 2.36385e-07 1.62684 0.0943358 1.8371 0.282957L14.6835 11.8139C14.8862 11.9955 15 12.2425 15 12.5C15 12.7574 14.8859 13.0042 14.6835 13.186Z" fill="url(#paint0_linear)"/>
<defs>
<linearGradient id="paint0_linear" x1="4.25325" y1="21.4827" x2="18.2139" y2="6.2981" gradientUnits="userSpaceOnUse">
<stop stop-color="#8177F7"/>
<stop offset="1" stop-color="#799FF8"/>
</linearGradient>
</defs>
</svg>
