<svg width="15" height="25" viewBox="0 0 15 25" fill="none" xmlns="http://www.w3.org/2000/svg">
<path d="M0.316478 13.186L13.1629 24.7173C13.5838 25.0949 14.2652 25.0942 14.6854 24.7153C15.1053 24.3365 15.1042 23.7228 14.6832 23.3449L2.60149 12.5L14.6837 1.65507C15.1045 1.27714 15.1056 0.663815 14.6858 0.28491C14.4752 0.0949687 14.1992 -2.04736e-06 13.9233 -2.09561e-06C13.648 -2.14373e-06 13.3732 0.0943334 13.1629 0.282955L0.316478 11.8139C0.113759 11.9955 4.13794e-06 12.2425 4.09293e-06 12.4999C4.04792e-06 12.7574 0.114085 13.0041 0.316478 13.186Z" fill="url(#paint0_linear)"/>
<defs>
<linearGradient id="paint0_linear" x1="10.7468" y1="21.4827" x2="-3.21389" y2="6.29809" gradientUnits="userSpaceOnUse">
<stop stop-color="#8177F7"/>
<stop offset="1" stop-color="#799FF8"/>
</linearGradient>
</defs>
</svg>
