<svg width="235" height="240" viewBox="0 0 235 240" fill="none" xmlns="http://www.w3.org/2000/svg">
<g filter="url(#filter0_d)">
<path d="M94.8647 174.902C94.0876 174.902 93.3424 174.594 92.793 174.044C92.2436 173.495 91.9348 172.75 91.9348 171.973V139.415C91.9348 132.433 97.5948 126.753 104.552 126.753H129.708C136.665 126.753 142.325 132.433 142.325 139.415V171.971C142.325 173.589 141.014 174.901 139.396 174.901L94.8647 174.902Z" fill="url(#paint0_linear)"/>
<path d="M117.13 143.737C115.512 143.737 114.2 142.425 114.2 140.807V127.73C114.2 126.112 115.512 124.8 117.13 124.8C118.748 124.8 120.06 126.112 120.06 127.73V140.807C120.06 142.425 118.748 143.737 117.13 143.737Z" fill="#FF8856"/>
<path d="M88.2497 199.742C88.0862 199.742 87.9216 199.728 87.7573 199.7C86.7456 199.527 85.8977 198.838 85.5227 197.883L81.6253 187.958L71.795 183.829C70.8487 183.431 70.1796 182.568 70.0309 181.552C69.8823 180.537 70.2759 179.517 71.0686 178.865L79.3032 172.092L80.1929 161.466C80.2784 160.444 80.893 159.54 81.813 159.085C82.7329 158.63 83.8237 158.689 84.6889 159.242L93.6755 164.98L104.056 162.543C105.055 162.307 106.104 162.613 106.821 163.348C107.538 164.082 107.819 165.138 107.561 166.131L104.88 176.451L110.406 185.57C110.938 186.448 110.972 187.54 110.495 188.449C110.019 189.358 109.101 189.951 108.076 190.013L97.4333 190.652L90.4682 198.726C89.9061 199.377 89.0934 199.742 88.2497 199.742Z" fill="#FDBF00"/>
<path d="M146.011 199.742C145.167 199.742 144.354 199.377 143.793 198.726L136.828 190.653L126.185 190.013C125.16 189.951 124.243 189.358 123.766 188.449C123.289 187.54 123.323 186.448 123.855 185.57L129.38 176.451L126.7 166.132C126.442 165.138 126.722 164.082 127.44 163.348C128.157 162.614 129.206 162.308 130.205 162.543L140.585 164.98L149.572 159.242C150.437 158.69 151.528 158.631 152.448 159.085C153.368 159.541 153.982 160.444 154.068 161.467L154.958 172.092L163.192 178.866C163.985 179.517 164.378 180.537 164.23 181.552C164.081 182.568 163.412 183.432 162.466 183.829L152.635 187.959L148.738 197.883C148.363 198.838 147.515 199.528 146.503 199.7C146.339 199.728 146.174 199.742 146.011 199.742Z" fill="#FDBF00"/>
<path d="M132.456 200C132.071 200 131.683 199.924 131.317 199.769L117.13 193.78L102.943 199.769C101.998 200.168 100.913 200.044 100.082 199.44C99.2519 198.837 98.7978 197.843 98.8853 196.821L100.197 181.478L90.1175 169.836C89.4456 169.06 89.2288 167.989 89.546 167.013C89.8632 166.037 90.6681 165.298 91.6677 165.065L106.665 161.572L114.622 148.388C115.152 147.509 116.104 146.972 117.13 146.972C118.157 146.972 119.108 147.509 119.638 148.388L127.596 161.572L142.593 165.065C143.593 165.298 144.397 166.037 144.714 167.013C145.032 167.989 144.815 169.06 144.143 169.836L134.063 181.478L135.375 196.821C135.463 197.843 135.009 198.837 134.178 199.44C133.67 199.81 133.065 200 132.456 200Z" fill="url(#paint1_radial)"/>
<path d="M117.13 130.078C108.838 130.078 102.091 123.332 102.091 115.039C102.091 106.746 108.838 100 117.13 100C125.423 100 132.169 106.746 132.169 115.039C132.169 123.332 125.423 130.078 117.13 130.078Z" fill="url(#paint2_linear)"/>
</g>
<defs>
<filter id="filter0_d" x="0" y="0" width="234.261" height="240" filterUnits="userSpaceOnUse" color-interpolation-filters="sRGB">
<feFlood flood-opacity="0" result="BackgroundImageFix"/>
<feColorMatrix in="SourceAlpha" type="matrix" values="0 0 0 0 0 0 0 0 0 0 0 0 0 0 0 0 0 0 127 0"/>
<feOffset dy="-30"/>
<feGaussianBlur stdDeviation="35"/>
<feColorMatrix type="matrix" values="0 0 0 0 0.509804 0 0 0 0 0.662745 0 0 0 0 0.976471 0 0 0 0.45 0"/>
<feBlend mode="normal" in2="BackgroundImageFix" result="effect1_dropShadow"/>
<feBlend mode="normal" in="SourceGraphic" in2="effect1_dropShadow" result="shape"/>
</filter>
<linearGradient id="paint0_linear" x1="117.13" y1="126.753" x2="117.13" y2="174.902" gradientUnits="userSpaceOnUse">
<stop stop-color="#FFF4F4"/>
<stop offset="1" stop-color="#F6EFEA"/>
</linearGradient>
<radialGradient id="paint1_radial" cx="0" cy="0" r="1" gradientUnits="userSpaceOnUse" gradientTransform="translate(117.13 173.486) rotate(90) scale(26.514 27.7276)">
<stop stop-color="#FFDE46"/>
<stop offset="1" stop-color="#FFCD00"/>
</radialGradient>
<linearGradient id="paint2_linear" x1="117.13" y1="100" x2="117.13" y2="130.078" gradientUnits="userSpaceOnUse">
<stop stop-color="#FFE4C1"/>
<stop offset="0.458333" stop-color="#FDDBAF"/>
<stop offset="1" stop-color="#F9CD94"/>
</linearGradient>
</defs>
</svg>
