<svg width="240" height="240" viewBox="0 0 240 240" fill="none" xmlns="http://www.w3.org/2000/svg">
<g filter="url(#filter0_d)">
<path d="M154.52 134.52C154.52 115.59 139.284 100.22 120.406 100.002C101.45 99.784 85.7583 115.053 85.4842 134.008C85.3379 144.118 89.5383 153.248 96.3363 159.652C99.1344 162.287 100.674 165.993 100.674 169.837V179.38H139.326V169.778C139.326 165.965 140.856 162.29 143.635 159.679C150.335 153.383 154.52 144.44 154.52 134.52Z" fill="url(#paint0_linear)"/>
<path d="M134.81 149.851C133.617 148.659 131.971 148.045 130.286 148.17C128.604 148.294 127.063 149.142 126.058 150.496C125.345 151.458 124.952 152.647 124.952 153.845V154.17L122.08 151.298L126.634 146.744C130.291 143.087 130.291 137.135 126.634 133.477C122.976 129.819 117.024 129.819 113.366 133.477C109.708 137.135 109.708 143.087 113.366 146.744L117.92 151.298L115.048 154.17V153.845C115.048 152.647 114.656 151.458 113.942 150.496C112.937 149.142 111.396 148.294 109.714 148.17C108.033 148.046 106.383 148.659 105.19 149.851C103.966 151.076 103.291 152.704 103.291 154.436C103.291 156.167 103.965 157.795 105.19 159.02C106.415 160.244 108.042 160.919 109.774 160.919C110.585 160.919 111.373 160.771 112.107 160.488V172.116C112.107 172.928 112.766 173.587 113.578 173.587C114.39 173.587 115.048 172.928 115.048 172.116V158.329L120 153.378L124.952 158.329V172.116C124.952 172.928 125.61 173.587 126.422 173.587C127.235 173.587 127.893 172.928 127.893 172.116V160.488C128.627 160.771 129.415 160.919 130.226 160.919C131.957 160.919 133.586 160.244 134.81 159.02C136.034 157.795 136.709 156.167 136.709 154.436C136.709 152.704 136.034 151.076 134.81 149.851ZM112.107 157.1C111.461 157.668 110.642 157.977 109.774 157.977C108.828 157.977 107.939 157.609 107.27 156.94C106.601 156.271 106.232 155.381 106.232 154.436C106.232 153.49 106.601 152.6 107.27 151.931C107.807 151.394 108.533 151.095 109.287 151.095C109.357 151.095 109.427 151.098 109.497 151.103C110.326 151.164 111.085 151.582 111.58 152.249C111.92 152.707 112.107 153.274 112.107 153.845V157.1ZM115.446 135.557C116.663 134.34 118.28 133.67 120 133.67C121.72 133.67 123.337 134.34 124.554 135.557C127.065 138.068 127.065 142.154 124.554 144.665L120 149.219L115.446 144.665C112.935 142.154 112.935 138.068 115.446 135.557ZM132.73 156.94C132.061 157.609 131.172 157.978 130.226 157.978C129.359 157.978 128.539 157.668 127.893 157.101V153.845C127.893 153.274 128.08 152.707 128.42 152.249C128.915 151.582 129.674 151.164 130.503 151.103C131.329 151.042 132.143 151.344 132.73 151.931C133.399 152.6 133.768 153.49 133.768 154.436C133.768 155.382 133.399 156.271 132.73 156.94Z" fill="url(#paint1_linear)"/>
<path d="M120 200C109.306 200 100.637 191.331 100.637 180.637V179.38H139.363V180.637C139.363 191.331 130.694 200 120 200Z" fill="url(#paint2_linear)"/>
<path d="M137.595 167.976H102.405C99.2558 167.976 96.7029 170.529 96.7029 173.678C96.7029 175.281 97.3644 176.73 98.4295 177.766C100.005 179.298 100.782 181.502 100.354 183.657C100.263 184.113 100.21 184.59 100.21 185.082C100.21 188.231 102.762 190.784 105.912 190.784H134.089C137.238 190.784 139.791 188.231 139.791 185.082C139.791 184.59 139.737 184.113 139.647 183.657C139.219 181.502 139.996 179.298 141.571 177.766C142.636 176.73 143.298 175.281 143.298 173.678C143.297 170.529 140.744 167.976 137.595 167.976Z" fill="url(#paint3_linear)"/>
<path d="M168.036 137.894H158.793C157.708 137.894 156.829 137.015 156.829 135.93C156.829 134.846 157.708 133.967 158.793 133.967H168.036C169.121 133.967 170 134.846 170 135.93C170 137.015 169.121 137.894 168.036 137.894Z" fill="url(#paint4_linear)"/>
<path d="M81.2076 137.894H71.9637C70.8792 137.894 70 137.015 70 135.93C70 134.846 70.8792 133.967 71.9637 133.967H81.2076C82.2921 133.967 83.1714 134.846 83.1714 135.93C83.1714 137.015 82.2921 137.894 81.2076 137.894Z" fill="url(#paint5_linear)"/>
<path d="M153.967 171.861C153.464 171.861 152.962 171.669 152.578 171.286L146.042 164.749C145.275 163.983 145.275 162.739 146.042 161.972C146.809 161.206 148.052 161.206 148.819 161.972L155.355 168.509C156.122 169.276 156.122 170.519 155.355 171.286C154.972 171.669 154.469 171.861 153.967 171.861Z" fill="url(#paint6_linear)"/>
<path d="M92.5696 110.464C92.0671 110.464 91.5645 110.272 91.1812 109.889L84.6447 103.352C83.8779 102.585 83.8779 101.342 84.6447 100.575C85.4116 99.8083 86.6549 99.8083 87.4218 100.575L93.9583 107.111C94.7251 107.878 94.7251 109.122 93.9583 109.888C93.5747 110.272 93.0722 110.464 92.5696 110.464Z" fill="url(#paint7_linear)"/>
<path d="M86.0331 171.861C85.5306 171.861 85.028 171.669 84.6445 171.286C83.8776 170.519 83.8776 169.276 84.6445 168.509L91.181 161.972C91.9478 161.206 93.1911 161.206 93.958 161.972C94.7249 162.739 94.7249 163.983 93.958 164.749L87.4215 171.286C87.0382 171.669 86.5357 171.861 86.0331 171.861Z" fill="url(#paint8_linear)"/>
<path d="M147.43 110.464C146.928 110.464 146.425 110.272 146.042 109.889C145.275 109.122 145.275 107.878 146.042 107.112L152.578 100.575C153.345 99.8085 154.588 99.8087 155.355 100.575C156.122 101.342 156.122 102.586 155.355 103.352L148.819 109.889C148.435 110.272 147.933 110.464 147.43 110.464Z" fill="url(#paint9_linear)"/>
</g>
<defs>
<filter id="filter0_d" x="0" y="0" width="240" height="240" filterUnits="userSpaceOnUse" color-interpolation-filters="sRGB">
<feFlood flood-opacity="0" result="BackgroundImageFix"/>
<feColorMatrix in="SourceAlpha" type="matrix" values="0 0 0 0 0 0 0 0 0 0 0 0 0 0 0 0 0 0 127 0"/>
<feOffset dy="-30"/>
<feGaussianBlur stdDeviation="35"/>
<feColorMatrix type="matrix" values="0 0 0 0 0.509804 0 0 0 0 0.662745 0 0 0 0 0.976471 0 0 0 0.45 0"/>
<feBlend mode="normal" in2="BackgroundImageFix" result="effect1_dropShadow"/>
<feBlend mode="normal" in="SourceGraphic" in2="effect1_dropShadow" result="shape"/>
</filter>
<linearGradient id="paint0_linear" x1="105.057" y1="111.168" x2="145.298" y2="174.614" gradientUnits="userSpaceOnUse">
<stop stop-color="#EF8197"/>
<stop offset="0.942708" stop-color="#F7C58F"/>
</linearGradient>
<linearGradient id="paint1_linear" x1="78.8236" y1="152.16" x2="116.471" y2="152.16" gradientUnits="userSpaceOnUse">
<stop stop-color="#537983"/>
<stop offset="1" stop-color="#3E5959"/>
</linearGradient>
<linearGradient id="paint2_linear" x1="101.83" y1="189.69" x2="147.446" y2="189.69" gradientUnits="userSpaceOnUse">
<stop stop-color="#537983"/>
<stop offset="1" stop-color="#3E5959"/>
</linearGradient>
<linearGradient id="paint3_linear" x1="98.139" y1="179.38" x2="153.022" y2="179.38" gradientUnits="userSpaceOnUse">
<stop stop-color="#F9F3F1"/>
<stop offset="0.5725" stop-color="#EFE2DD"/>
<stop offset="1" stop-color="#CDBFBA"/>
</linearGradient>
<linearGradient id="paint4_linear" x1="160.564" y1="134.519" x2="161.269" y2="138.805" gradientUnits="userSpaceOnUse">
<stop stop-color="#EF8197"/>
<stop offset="0.942708" stop-color="#F7C58F"/>
</linearGradient>
<linearGradient id="paint5_linear" x1="73.7347" y1="134.519" x2="74.4397" y2="138.805" gradientUnits="userSpaceOnUse">
<stop stop-color="#EF8197"/>
<stop offset="0.942708" stop-color="#F7C58F"/>
</linearGradient>
<linearGradient id="paint6_linear" x1="148.434" y1="162.869" x2="153.394" y2="171.861" gradientUnits="userSpaceOnUse">
<stop stop-color="#EF8197"/>
<stop offset="0.942708" stop-color="#F7C58F"/>
</linearGradient>
<linearGradient id="paint7_linear" x1="87.0366" y1="101.472" x2="91.9967" y2="110.464" gradientUnits="userSpaceOnUse">
<stop stop-color="#EF8197"/>
<stop offset="0.942708" stop-color="#F7C58F"/>
</linearGradient>
<linearGradient id="paint8_linear" x1="87.0363" y1="162.869" x2="91.9963" y2="171.861" gradientUnits="userSpaceOnUse">
<stop stop-color="#EF8197"/>
<stop offset="0.942708" stop-color="#F7C58F"/>
</linearGradient>
<linearGradient id="paint9_linear" x1="148.434" y1="101.472" x2="153.393" y2="110.464" gradientUnits="userSpaceOnUse">
<stop stop-color="#EF8197"/>
<stop offset="0.942708" stop-color="#F7C58F"/>
</linearGradient>
</defs>
</svg>
