<svg width="240" height="240" viewBox="0 0 240 240" fill="none" xmlns="http://www.w3.org/2000/svg">
<g filter="url(#filter0_d)">
<path d="M120 198.047C118.382 198.047 117.07 196.735 117.07 195.117V185.352C117.07 183.734 118.382 182.422 120 182.422C121.618 182.422 122.93 183.734 122.93 185.352V195.117C122.93 196.735 121.618 198.047 120 198.047Z" fill="url(#paint0_linear)"/>
<path d="M125.859 200H114.141C112.523 200 111.211 198.688 111.211 197.07C111.211 195.452 112.523 194.141 114.141 194.141H125.859C127.477 194.141 128.789 195.452 128.789 197.07C128.789 198.688 127.477 200 125.859 200Z" fill="url(#paint1_linear)"/>
<path d="M161.211 112.695H78.7891C77.1711 112.695 75.8594 114.007 75.8594 115.625V185.352C75.8594 186.97 77.1711 188.281 78.7891 188.281H161.211C162.829 188.281 164.141 186.97 164.141 185.352V115.625C164.141 114.007 162.829 112.695 161.211 112.695Z" fill="url(#paint2_linear)"/>
<path d="M167.07 100H72.9297C71.3117 100 70 101.312 70 102.93V115.625C70 117.243 71.3117 118.555 72.9297 118.555H167.07C168.688 118.555 170 117.243 170 115.625V102.93C170 101.312 168.688 100 167.07 100Z" fill="url(#paint3_linear)"/>
<path d="M153.887 170.469H130.254C128.636 170.469 127.324 169.157 127.324 167.539C127.324 165.921 128.636 164.609 130.254 164.609H153.887C155.505 164.609 156.816 165.921 156.816 167.539C156.816 169.157 155.505 170.469 153.887 170.469Z" fill="#E63950"/>
<path d="M153.887 158.75H130.254C128.636 158.75 127.324 157.438 127.324 155.82C127.324 154.202 128.636 152.891 130.254 152.891H153.887C155.505 152.891 156.816 154.202 156.816 155.82C156.816 157.438 155.505 158.75 153.887 158.75Z" fill="#E63950"/>
<path d="M153.887 147.031H130.254C128.636 147.031 127.324 145.719 127.324 144.101C127.324 142.483 128.636 141.172 130.254 141.172H153.887C155.505 141.172 156.816 142.483 156.816 144.101C156.816 145.719 155.505 147.031 153.887 147.031Z" fill="#E63950"/>
<path d="M110.484 153.336H100.414V143.266C100.414 141.894 99.3016 140.781 97.9295 140.781C89.6372 140.781 82.8909 147.528 82.8909 155.82C82.8909 164.113 89.6372 170.859 97.9295 170.859C106.222 170.859 112.968 164.113 112.968 155.82C112.968 154.448 111.856 153.336 110.484 153.336Z" fill="#FFF983"/>
<path d="M112.964 155.904C112.965 155.876 112.968 155.848 112.968 155.82C112.968 147.528 106.222 140.781 97.9297 140.781V155.904H112.964Z" fill="#FF6C6C"/>
<path d="M138.672 130.273H101.328C99.7099 130.273 98.3982 128.962 98.3982 127.344C98.3982 125.726 99.7099 124.414 101.328 124.414H138.672C140.29 124.414 141.602 125.726 141.602 127.344C141.602 128.962 140.29 130.273 138.672 130.273Z" fill="url(#paint4_linear)"/>
</g>
<defs>
<filter id="filter0_d" x="0" y="0" width="240" height="240" filterUnits="userSpaceOnUse" color-interpolation-filters="sRGB">
<feFlood flood-opacity="0" result="BackgroundImageFix"/>
<feColorMatrix in="SourceAlpha" type="matrix" values="0 0 0 0 0 0 0 0 0 0 0 0 0 0 0 0 0 0 127 0"/>
<feOffset dy="-30"/>
<feGaussianBlur stdDeviation="35"/>
<feColorMatrix type="matrix" values="0 0 0 0 0.509804 0 0 0 0 0.662745 0 0 0 0 0.976471 0 0 0 0.45 0"/>
<feBlend mode="normal" in2="BackgroundImageFix" result="effect1_dropShadow"/>
<feBlend mode="normal" in="SourceGraphic" in2="effect1_dropShadow" result="shape"/>
</filter>
<linearGradient id="paint0_linear" x1="120" y1="182.422" x2="120" y2="198.047" gradientUnits="userSpaceOnUse">
<stop stop-color="#47568C"/>
<stop offset="1" stop-color="#29376D"/>
</linearGradient>
<linearGradient id="paint1_linear" x1="120" y1="194.141" x2="120" y2="200" gradientUnits="userSpaceOnUse">
<stop stop-color="#61729B"/>
<stop offset="1" stop-color="#47568C"/>
</linearGradient>
<linearGradient id="paint2_linear" x1="120" y1="112.695" x2="120" y2="188.281" gradientUnits="userSpaceOnUse">
<stop stop-color="#F0F7FF"/>
<stop offset="1" stop-color="#DFE7F4"/>
</linearGradient>
<linearGradient id="paint3_linear" x1="120" y1="100" x2="120" y2="118.555" gradientUnits="userSpaceOnUse">
<stop stop-color="#7C83E7"/>
<stop offset="1" stop-color="#5F69E2"/>
</linearGradient>
<linearGradient id="paint4_linear" x1="120" y1="124.414" x2="120" y2="130.273" gradientUnits="userSpaceOnUse">
<stop stop-color="#61729B"/>
<stop offset="1" stop-color="#47568C"/>
</linearGradient>
</defs>
</svg>
