<svg width="31" height="31" viewBox="0 0 31 31" fill="none" xmlns="http://www.w3.org/2000/svg">
<g filter="url(#filter0_b)">
<mask id="path-1-inside-1" fill="white">
<path fill-rule="evenodd" clip-rule="evenodd" d="M24.5417 30.225H6.45833C2.89204 30.225 0 27.4053 0 23.9281V6.29688C0 2.81974 2.89204 0 6.45833 0H24.5417C28.1092 0 31 2.81974 31 6.29688V23.9281C31 27.4053 28.1092 30.225 24.5417 30.225ZM25.8333 14.4727C25.8333 9.96417 21.1975 6.29688 15.5 6.29688C9.80246 6.29688 5.16667 9.96417 5.16667 14.4727C5.16667 18.5141 8.84275 21.8993 13.8092 22.539C14.145 22.6096 14.6036 22.7556 14.7185 23.0365C14.8232 23.2909 14.787 23.6901 14.7521 23.947L14.6049 24.8097C14.5597 25.0641 14.3969 25.8059 15.5 25.3525C16.6031 24.8991 21.4507 21.9358 23.6194 19.5027H23.6181C25.1165 17.902 25.8333 16.2774 25.8333 14.4727ZM11.6534 17.0759H8.7575L8.618 17.0217V17.0205L8.61671 17.0192L8.61283 17.0154L8.556 16.8807V12.4905C8.556 12.3822 8.64642 12.294 8.7575 12.294H9.48342C9.59321 12.294 9.68363 12.3822 9.68363 12.4905V15.9764H11.6534C11.7645 15.9764 11.8536 16.0646 11.8536 16.1729V16.8794C11.8536 16.9877 11.7645 17.0759 11.6534 17.0759ZM22.3923 17.0759H19.4964L19.3569 17.0217L19.3517 17.0154L19.2949 16.8807V12.4905L19.3517 12.3557L19.3569 12.3494L19.4964 12.294H22.3923C22.5034 12.294 22.5925 12.3822 22.5925 12.4905V13.197C22.5925 13.3053 22.5034 13.3935 22.3923 13.3935H20.4225V14.1352H22.3923C22.5034 14.1352 22.5925 14.2234 22.5925 14.3317V15.0382C22.5925 15.1465 22.5034 15.2347 22.3923 15.2347H20.4225V15.9764H22.3923C22.5034 15.9764 22.5925 16.0646 22.5925 16.1729V16.8794C22.5925 16.9877 22.5034 17.0759 22.3923 17.0759ZM13.401 17.0759H12.6751C12.564 17.0759 12.4736 16.989 12.4736 16.8807V12.4905C12.4736 12.3822 12.564 12.294 12.6751 12.294H13.401C13.5121 12.294 13.6012 12.3822 13.6012 12.4905V16.8807C13.6012 16.9877 13.5121 17.0759 13.401 17.0759ZM15.2326 17.0759H14.508C14.3969 17.0759 14.3065 16.989 14.3065 16.8807V12.4905C14.3065 12.3822 14.3969 12.294 14.508 12.294H15.2326L15.2494 12.2953L15.2688 12.2978L15.2804 12.3003L15.2998 12.3054L15.3062 12.3079L15.3243 12.3154L15.3411 12.3255L15.3515 12.3318L15.367 12.3444L15.3708 12.3482L15.3837 12.362L15.4005 12.3809L17.4633 15.0986V12.4905C17.4633 12.3822 17.5537 12.294 17.6648 12.294H18.3895C18.5005 12.294 18.591 12.3822 18.591 12.4905V16.8807C18.591 16.9877 18.5005 17.0759 18.3895 17.0759H17.6648L17.6132 17.0696L17.6106 17.0683L17.5899 17.062L17.5809 17.0582L17.5654 17.0507L17.5525 17.0431L17.5512 17.0419L17.4995 16.9927L15.4341 14.2725V16.8807C15.4341 16.9877 15.3437 17.0759 15.2326 17.0759Z"/>
</mask>
<path fill-rule="evenodd" clip-rule="evenodd" d="M24.5417 30.225H6.45833C2.89204 30.225 0 27.4053 0 23.9281V6.29688C0 2.81974 2.89204 0 6.45833 0H24.5417C28.1092 0 31 2.81974 31 6.29688V23.9281C31 27.4053 28.1092 30.225 24.5417 30.225ZM25.8333 14.4727C25.8333 9.96417 21.1975 6.29688 15.5 6.29688C9.80246 6.29688 5.16667 9.96417 5.16667 14.4727C5.16667 18.5141 8.84275 21.8993 13.8092 22.539C14.145 22.6096 14.6036 22.7556 14.7185 23.0365C14.8232 23.2909 14.787 23.6901 14.7521 23.947L14.6049 24.8097C14.5597 25.0641 14.3969 25.8059 15.5 25.3525C16.6031 24.8991 21.4507 21.9358 23.6194 19.5027H23.6181C25.1165 17.902 25.8333 16.2774 25.8333 14.4727ZM11.6534 17.0759H8.7575L8.618 17.0217V17.0205L8.61671 17.0192L8.61283 17.0154L8.556 16.8807V12.4905C8.556 12.3822 8.64642 12.294 8.7575 12.294H9.48342C9.59321 12.294 9.68363 12.3822 9.68363 12.4905V15.9764H11.6534C11.7645 15.9764 11.8536 16.0646 11.8536 16.1729V16.8794C11.8536 16.9877 11.7645 17.0759 11.6534 17.0759ZM22.3923 17.0759H19.4964L19.3569 17.0217L19.3517 17.0154L19.2949 16.8807V12.4905L19.3517 12.3557L19.3569 12.3494L19.4964 12.294H22.3923C22.5034 12.294 22.5925 12.3822 22.5925 12.4905V13.197C22.5925 13.3053 22.5034 13.3935 22.3923 13.3935H20.4225V14.1352H22.3923C22.5034 14.1352 22.5925 14.2234 22.5925 14.3317V15.0382C22.5925 15.1465 22.5034 15.2347 22.3923 15.2347H20.4225V15.9764H22.3923C22.5034 15.9764 22.5925 16.0646 22.5925 16.1729V16.8794C22.5925 16.9877 22.5034 17.0759 22.3923 17.0759ZM13.401 17.0759H12.6751C12.564 17.0759 12.4736 16.989 12.4736 16.8807V12.4905C12.4736 12.3822 12.564 12.294 12.6751 12.294H13.401C13.5121 12.294 13.6012 12.3822 13.6012 12.4905V16.8807C13.6012 16.9877 13.5121 17.0759 13.401 17.0759ZM15.2326 17.0759H14.508C14.3969 17.0759 14.3065 16.989 14.3065 16.8807V12.4905C14.3065 12.3822 14.3969 12.294 14.508 12.294H15.2326L15.2494 12.2953L15.2688 12.2978L15.2804 12.3003L15.2998 12.3054L15.3062 12.3079L15.3243 12.3154L15.3411 12.3255L15.3515 12.3318L15.367 12.3444L15.3708 12.3482L15.3837 12.362L15.4005 12.3809L17.4633 15.0986V12.4905C17.4633 12.3822 17.5537 12.294 17.6648 12.294H18.3895C18.5005 12.294 18.591 12.3822 18.591 12.4905V16.8807C18.591 16.9877 18.5005 17.0759 18.3895 17.0759H17.6648L17.6132 17.0696L17.6106 17.0683L17.5899 17.062L17.5809 17.0582L17.5654 17.0507L17.5525 17.0431L17.5512 17.0419L17.4995 16.9927L15.4341 14.2725V16.8807C15.4341 16.9877 15.3437 17.0759 15.2326 17.0759Z" fill="url(#paint0_radial)"/>
<path fill-rule="evenodd" clip-rule="evenodd" d="M24.5417 30.225H6.45833C2.89204 30.225 0 27.4053 0 23.9281V6.29688C0 2.81974 2.89204 0 6.45833 0H24.5417C28.1092 0 31 2.81974 31 6.29688V23.9281C31 27.4053 28.1092 30.225 24.5417 30.225ZM25.8333 14.4727C25.8333 9.96417 21.1975 6.29688 15.5 6.29688C9.80246 6.29688 5.16667 9.96417 5.16667 14.4727C5.16667 18.5141 8.84275 21.8993 13.8092 22.539C14.145 22.6096 14.6036 22.7556 14.7185 23.0365C14.8232 23.2909 14.787 23.6901 14.7521 23.947L14.6049 24.8097C14.5597 25.0641 14.3969 25.8059 15.5 25.3525C16.6031 24.8991 21.4507 21.9358 23.6194 19.5027H23.6181C25.1165 17.902 25.8333 16.2774 25.8333 14.4727ZM11.6534 17.0759H8.7575L8.618 17.0217V17.0205L8.61671 17.0192L8.61283 17.0154L8.556 16.8807V12.4905C8.556 12.3822 8.64642 12.294 8.7575 12.294H9.48342C9.59321 12.294 9.68363 12.3822 9.68363 12.4905V15.9764H11.6534C11.7645 15.9764 11.8536 16.0646 11.8536 16.1729V16.8794C11.8536 16.9877 11.7645 17.0759 11.6534 17.0759ZM22.3923 17.0759H19.4964L19.3569 17.0217L19.3517 17.0154L19.2949 16.8807V12.4905L19.3517 12.3557L19.3569 12.3494L19.4964 12.294H22.3923C22.5034 12.294 22.5925 12.3822 22.5925 12.4905V13.197C22.5925 13.3053 22.5034 13.3935 22.3923 13.3935H20.4225V14.1352H22.3923C22.5034 14.1352 22.5925 14.2234 22.5925 14.3317V15.0382C22.5925 15.1465 22.5034 15.2347 22.3923 15.2347H20.4225V15.9764H22.3923C22.5034 15.9764 22.5925 16.0646 22.5925 16.1729V16.8794C22.5925 16.9877 22.5034 17.0759 22.3923 17.0759ZM13.401 17.0759H12.6751C12.564 17.0759 12.4736 16.989 12.4736 16.8807V12.4905C12.4736 12.3822 12.564 12.294 12.6751 12.294H13.401C13.5121 12.294 13.6012 12.3822 13.6012 12.4905V16.8807C13.6012 16.9877 13.5121 17.0759 13.401 17.0759ZM15.2326 17.0759H14.508C14.3969 17.0759 14.3065 16.989 14.3065 16.8807V12.4905C14.3065 12.3822 14.3969 12.294 14.508 12.294H15.2326L15.2494 12.2953L15.2688 12.2978L15.2804 12.3003L15.2998 12.3054L15.3062 12.3079L15.3243 12.3154L15.3411 12.3255L15.3515 12.3318L15.367 12.3444L15.3708 12.3482L15.3837 12.362L15.4005 12.3809L17.4633 15.0986V12.4905C17.4633 12.3822 17.5537 12.294 17.6648 12.294H18.3895C18.5005 12.294 18.591 12.3822 18.591 12.4905V16.8807C18.591 16.9877 18.5005 17.0759 18.3895 17.0759H17.6648L17.6132 17.0696L17.6106 17.0683L17.5899 17.062L17.5809 17.0582L17.5654 17.0507L17.5525 17.0431L17.5512 17.0419L17.4995 16.9927L15.4341 14.2725V16.8807C15.4341 16.9877 15.3437 17.0759 15.2326 17.0759Z" stroke="url(#paint1_linear)" stroke-width="2" mask="url(#path-1-inside-1)"/>
</g>
<defs>
<filter id="filter0_b" x="-40" y="-40" width="111" height="110.225" filterUnits="userSpaceOnUse" color-interpolation-filters="sRGB">
<feFlood flood-opacity="0" result="BackgroundImageFix"/>
<feGaussianBlur in="BackgroundImage" stdDeviation="20"/>
<feComposite in2="SourceAlpha" operator="in" result="effect1_backgroundBlur"/>
<feBlend mode="normal" in="SourceGraphic" in2="effect1_backgroundBlur" result="shape"/>
</filter>
<radialGradient id="paint0_radial" cx="0" cy="0" r="1" gradientUnits="userSpaceOnUse" gradientTransform="translate(7.87845 2.75355) rotate(58.9007) scale(31.3347 28.3583)">
<stop stop-color="white" stop-opacity="0.4"/>
<stop offset="1" stop-color="white" stop-opacity="0"/>
</radialGradient>
<linearGradient id="paint1_linear" x1="24.0635" y1="0" x2="24.0635" y2="30.225" gradientUnits="userSpaceOnUse">
<stop stop-color="white" stop-opacity="0.4"/>
<stop offset="1" stop-color="white" stop-opacity="0.1"/>
</linearGradient>
</defs>
</svg>
