<svg width="485" height="432" viewBox="0 0 485 432" fill="none" xmlns="http://www.w3.org/2000/svg">
<g clip-path="url(#clip0)">
<path d="M401.559 193.57L401.871 183.383L387.749 181.281L374.787 179.361L372.456 191.397L387.856 192.557L401.559 193.57Z" fill="url(#paint0_linear)"/>
<path d="M401.293 181.18C400.171 181.17 400.628 194.999 400.628 194.999C400.628 194.999 409 203.691 410.672 212.055C412.344 220.419 417.444 215.903 417.736 206.685C418.028 197.468 418.232 190.443 418.434 183.889C418.637 177.335 412.931 181.256 401.293 181.18Z" fill="url(#paint1_linear)"/>
<path d="M403.934 202.361C403.945 202.794 403.815 203.22 403.563 203.574C403.375 203.766 403.132 203.896 402.868 203.949C402.604 204.001 402.33 203.972 402.082 203.867C401.885 203.807 401.702 203.708 401.544 203.575C401.386 203.442 401.258 203.278 401.166 203.093C400.806 202.111 400.724 201.049 400.929 200.023C400.284 201.124 399.535 202.09 398.805 202.101C398.332 202.116 397.949 201.792 397.667 201.162C397.539 200.881 397.475 200.574 397.478 200.265C397.482 199.955 397.553 199.651 397.688 199.372C398.52 197.535 401.741 196.481 401.9 196.426C401.95 196.419 402.002 196.426 402.049 196.446L402.124 196.455L402.228 196.469L402.319 196.587C403.181 198.406 403.728 200.358 403.934 202.361ZM401.515 201.118C401.466 201.674 401.554 202.234 401.773 202.747C401.816 202.845 401.88 202.932 401.959 203.003C402.039 203.074 402.134 203.126 402.236 203.157C402.777 203.319 402.921 203.14 402.974 203.086C403.527 202.459 402.842 199.908 402.049 197.844C401.758 198.914 401.579 200.011 401.515 201.118ZM398.173 200.195C398.164 200.416 398.208 200.635 398.302 200.835C398.383 201.028 398.553 201.354 398.751 201.35C399.362 201.323 400.525 199.393 401.336 197.371C400.374 197.762 398.782 198.557 398.307 199.635C398.234 199.814 398.204 200.008 398.218 200.201L398.173 200.195Z" fill="#F4F4F4"/>
<path opacity="0.2" d="M388.173 192.568L388.021 181.287L374.923 179.364L372.516 191.405L388.173 192.568Z" fill="black"/>
<path d="M248.581 87.9623C248.581 87.9623 282.181 94.6585 319.39 159.09L382.107 177.612L383.435 193.849C383.435 193.849 320.822 188.487 302.866 179.577C284.909 170.668 251.937 129.966 251.937 129.966L223.567 100.426L248.581 87.9623Z" fill="#407BFF"/>
<path opacity="0.6" d="M383.435 193.849C383.435 193.849 320.822 188.487 302.865 179.577C284.909 170.668 251.937 129.966 251.937 129.966L223.567 100.426L248.576 88.0073C248.576 88.0073 274.581 93.1954 306.17 138.322C309.178 142.621 312.248 147.261 315.339 152.315C316.671 154.516 318.02 156.789 319.384 159.135L382.101 177.657L383.435 193.849Z" fill="url(#paint2_linear)"/>
<path opacity="0.2" d="M315.337 152.33C305.263 152.717 291.9 150.152 276.711 139.461L298.719 136.073L306.168 138.337C309.184 142.576 312.253 147.216 315.337 152.33Z" fill="#577BBD"/>
<path d="M380.689 176.378L381.831 195.205L385.463 195.299L384.13 177.587L380.689 176.378Z" fill="#F4F4F4"/>
<path d="M449.203 130.717L445.299 121.302L431.562 125.207L418.958 128.805L421.791 140.725L436.302 135.431L449.203 130.717Z" fill="url(#paint3_linear)"/>
<path d="M443.859 119.533C442.844 119.978 448.944 132.355 448.944 132.355C448.944 132.355 460.186 136.862 465.133 143.754C470.08 150.646 472.892 144.463 469.356 135.947C465.821 127.431 463.115 120.937 460.61 114.881C458.105 108.825 454.516 114.8 443.859 119.533Z" fill="url(#paint4_linear)"/>
<path d="M454.982 137.748C455.181 138.134 455.241 138.577 455.153 139.002C455.057 139.254 454.887 139.471 454.667 139.627C454.447 139.782 454.185 139.868 453.915 139.874C453.713 139.899 453.507 139.882 453.311 139.825C453.114 139.768 452.932 139.672 452.774 139.542C452.033 138.792 451.515 137.851 451.276 136.824C451.112 138.079 450.865 139.278 450.202 139.586C449.778 139.805 449.295 139.666 448.734 139.197C448.507 138.993 448.325 138.745 448.199 138.467C448.073 138.189 448.006 137.887 448.003 137.582C448.009 135.562 450.511 133.259 450.648 133.14L450.78 133.066L450.884 133.08L451.004 133.095L451.138 133.113C452.682 134.42 453.983 135.989 454.982 137.748ZM452.316 137.583C452.501 138.111 452.808 138.589 453.212 138.976C453.295 139.045 453.391 139.096 453.495 139.125C453.598 139.154 453.706 139.161 453.813 139.146C454.37 139.067 454.427 138.861 454.452 138.789C454.693 137.984 453.031 135.944 451.458 134.386C451.637 135.479 451.93 136.551 452.331 137.585L452.316 137.583ZM448.889 138.123C448.972 138.331 449.104 138.515 449.275 138.66C449.423 138.801 449.714 139.021 449.892 138.938C450.444 138.661 450.675 136.426 450.61 134.245C449.66 135.125 449.018 136.288 448.78 137.562C448.78 137.754 448.817 137.945 448.889 138.123Z" fill="#F4F4F4"/>
<path opacity="0.2" d="M436.592 135.302L431.82 125.089L419.087 128.746L421.855 140.703L436.592 135.302Z" fill="black"/>
<path d="M204.009 77.3717C204.009 77.3717 198.63 104.268 196.558 105.487C194.485 106.706 159.602 125.313 159.602 125.313C159.602 125.313 148.35 125.653 144.609 126.973C140.868 128.293 142.413 139.604 143.997 141.316C145.581 143.027 161.934 137.35 161.934 137.35L164.453 134.107C164.453 134.107 201.641 118.78 205.097 117.438C208.552 116.095 220.062 86.0934 220.062 86.0934L204.009 77.3717Z" fill="url(#paint5_linear)"/>
<path d="M211.083 63.2037C200.168 65.3807 198.498 91.3177 198.498 91.3177L216.518 99.749L221.68 92.3074L211.083 63.2037Z" fill="#FFD771"/>
<path d="M266.314 97.5414C266.314 97.5414 299.725 89.7449 360.134 133.163L424.921 124.189L432.811 138.44C432.811 138.44 373.555 159.367 353.511 158.651C333.467 157.934 286.676 134.44 286.676 134.44L248.653 119.172L266.314 97.5414Z" fill="#407BFF"/>
<path opacity="0.6" d="M266.314 97.5414C266.314 97.5414 299.725 89.7449 360.134 133.163L424.921 124.189L432.811 138.44C432.811 138.44 373.555 159.367 353.511 158.651C333.467 157.934 286.676 134.44 286.676 134.44L248.653 119.172L266.314 97.5414Z" fill="url(#paint6_linear)"/>
<path d="M422.143 123.021L425.876 123.508L434.682 138.882L430.664 140.577L422.143 123.021Z" fill="#F4F4F4"/>
<path d="M228.126 10.824C228.126 10.824 245.182 6.62203 255.628 18.9735C262.209 26.7322 277.563 45.4539 287.448 41.0452C297.333 36.6365 312.732 33.4948 318.647 41.349C318.647 41.349 307.531 39.138 301.335 42.858C301.335 42.858 312.357 41.2573 315.804 44.7469C319.252 48.2364 325.338 47.6784 325.338 47.6784C325.338 47.6784 328.198 64.1611 301.849 62.6515C301.849 62.6515 314.935 67.1105 321.88 62.6524C321.88 62.6524 322.184 74.1663 291.292 73.7202C260.4 73.2741 234.573 64.6289 229.53 54.7458C224.487 44.8626 228.126 10.824 228.126 10.824Z" fill="#313131"/>
<path d="M297.248 97.9018C297.248 97.9018 287.37 127.615 263.527 129.244C259.755 129.551 255.96 129.143 252.34 128.042C245.392 125.755 239.636 120.8 236.339 114.267C235.322 112.428 234.511 110.482 233.923 108.465L269.871 95.7718L272.834 94.7147C277.322 94.3845 281.829 94.3937 286.316 94.7422C290.64 95.1243 294.942 96.0203 297.248 97.9018Z" fill="url(#paint7_linear)"/>
<path opacity="0.2" d="M274.01 114.899C266.385 121.198 259.454 125.658 252.34 128.042C245.392 125.755 239.636 120.8 236.339 114.267C247.17 107.493 258.364 101.319 269.871 95.7719L272.833 94.7149C277.322 94.3847 281.829 94.3939 286.316 94.7424C287.239 99.3006 284.631 106.133 274.01 114.899Z" fill="black"/>
<path d="M211.083 63.2042C232.336 59.0711 254.3 60.6019 274.773 67.6431C274.773 67.6431 283.704 88.1098 285.273 103.543C285.273 103.543 263.908 127.608 239.476 123.628C215.044 119.648 211.083 63.2042 211.083 63.2042Z" fill="url(#paint8_linear)"/>
<path d="M212.339 34.3862C212.339 34.3862 214.764 1.26821 242.471 12.9702C277.307 27.6394 250.198 68.2493 233.165 60.1747C216.132 52.1001 212.339 34.3862 212.339 34.3862Z" fill="#313131"/>
<path d="M255.504 66.6926C255.504 66.6926 246.584 84.0691 235.36 81.4033C232.403 80.6883 229.687 79.2032 227.49 77.0986C225.292 74.994 223.69 72.3449 222.846 69.4202C222.662 68.8536 222.515 68.2759 222.404 67.6907C222.404 67.6907 228.392 66.7247 225.393 61.1964L241.001 52.0334C240.788 53.5538 240.664 55.0853 240.63 56.6202C240.607 59.3528 240.932 62.4499 242.505 63.4303C245.541 65.3008 255.504 66.6926 255.504 66.6926Z" fill="url(#paint9_linear)"/>
<path opacity="0.2" d="M240.689 56.628C238.695 62.9482 233.825 72.4492 222.906 69.428C222.722 68.8614 222.574 68.2838 222.463 67.6985C222.463 67.6985 228.451 66.7325 225.452 61.2042L241.06 52.0412C240.847 53.5616 240.723 55.0931 240.689 56.628Z" fill="black"/>
<path d="M233.481 20.0639C220.915 17.4357 215.454 23.3186 211.829 36.0824C207.286 52.0394 208.466 64.2907 224.874 64.1227C247.219 63.8481 254.345 24.3833 233.481 20.0639Z" fill="url(#paint10_linear)"/>
<path d="M220.102 37.0409C218.703 38.7084 217.106 40.1993 215.346 41.4808C215.606 42.0779 216.025 42.592 216.558 42.967C217.09 43.342 217.715 43.5635 218.364 43.6073L220.102 37.0409Z" fill="#D4827D"/>
<path d="M228.004 37.5863C227.763 38.6186 228.123 39.5776 228.816 39.7439C229.508 39.9102 230.253 39.2021 230.539 38.1756C230.825 37.149 230.419 36.1843 229.727 36.0179C229.035 35.8516 228.241 36.5838 228.004 37.5863Z" fill="#263238"/>
<path d="M229.951 36.1685L227.932 34.7651C227.932 34.7651 228.564 36.8994 229.951 36.1685Z" fill="#263238"/>
<path d="M215.223 34.3979C214.984 35.4153 215.343 36.3892 216.037 36.5405C216.731 36.6919 217.474 35.9987 217.758 34.9872C218.042 33.9756 217.638 32.9959 216.946 32.8295C216.254 32.6632 215.522 33.3882 215.223 34.3979Z" fill="#263238"/>
<path d="M217.233 32.9582L215.212 31.5698C215.212 31.5698 215.875 33.708 217.233 32.9582Z" fill="#263238"/>
<path d="M229.95 28.965C230.969 29.0507 231.955 29.37 232.832 29.8982C233.708 30.4263 234.451 31.1492 235.004 32.0108" stroke="#263238" stroke-width="0.72" stroke-linecap="round" stroke-linejoin="round"/>
<path d="M220.928 26.5257C220.116 26.1294 219.225 25.9212 218.321 25.9163C217.417 25.9115 216.524 26.1102 215.708 26.4977" stroke="#263238" stroke-width="0.72" stroke-linecap="round" stroke-linejoin="round"/>
<path d="M242.814 44.0786C242.814 44.0786 239.099 32.5147 241.649 24.7321C241.649 24.7321 218.89 9.32955 212.371 34.3751C212.371 34.3751 214.626 11.402 236.334 15.4213C258.043 19.4406 253.897 51.3157 240.762 58.4004C240.73 58.4115 245.06 51.3019 242.814 44.0786Z" fill="#313131"/>
<path d="M240.168 46.3169C240.377 45.6071 240.724 44.9456 241.189 44.3703C241.654 43.795 242.228 43.3172 242.878 42.9644C243.528 42.6115 244.241 42.3905 244.976 42.3141C245.712 42.2376 246.455 42.3072 247.163 42.5189C250.965 43.7598 251.144 52.1571 241.06 52.0413C239.606 52.0186 239.106 50.4944 240.168 46.3169Z" fill="#EEC1BB"/>
<path d="M216.175 48.3977C216.525 49.928 216.758 51.4826 216.874 53.0482L217.71 53.1573C221.455 53.4335 223.265 52.3628 224.177 50.9621C224.595 50.3094 224.853 49.5673 224.931 48.7961C224.99 48.3616 224.987 47.9208 224.919 47.4876C222.53 48.3424 219.986 48.6736 217.458 48.4587C216.669 48.447 216.175 48.3977 216.175 48.3977Z" fill="#263238"/>
<path d="M217.458 48.4586L217.704 49.8281C221.225 50.0751 223.784 49.786 224.931 48.7959C224.991 48.3615 224.987 47.9207 224.919 47.4874C222.53 48.3423 219.986 48.6735 217.458 48.4586Z" fill="white"/>
<path d="M217.716 53.1126C221.461 53.3888 223.271 52.3181 224.183 50.9174C222.755 50.8383 221.324 51.0115 219.955 51.4292C219.049 51.7388 218.265 52.3283 217.716 53.1126Z" fill="#DE5753"/>
<path d="M233.537 21.0291C233.537 21.0291 234.268 42.7658 247.341 45.2322C260.413 47.6986 245.809 17.2968 245.809 17.2968C245.809 17.2968 226.252 4.81982 213.401 13.9173C200.55 23.0147 212.339 34.3865 212.339 34.3865C212.339 34.3865 214.879 18.1832 233.537 21.0291Z" fill="#313131"/>
<path d="M291.245 74.4287C291.245 74.4287 319.027 84.7422 324.059 86.7973C329.09 88.8523 363.989 109.563 363.989 109.563C363.989 109.563 377.859 106.267 379.174 107.944C380.489 109.62 382.812 117.537 382.243 119.332C381.675 121.127 362.601 122.285 361.771 121.553C360.64 120.106 359.627 118.571 358.74 116.963C358.74 116.963 323.746 99.3097 317.049 96.87C310.351 94.4303 287.16 89.3208 287.16 89.3208L291.245 74.4287Z" fill="url(#paint11_linear)"/>
<path d="M274.773 67.6431C274.773 67.6431 272.338 86.2918 282.618 94.2143L302.665 95.0227L310.154 78.8422C310.154 78.8422 292.54 70.3272 274.773 67.6431Z" fill="#FFDB7D"/>
</g>
<path d="M273 295.472C272.993 260.749 259.747 227.334 235.96 202.033C212.173 176.732 179.634 161.448 144.969 159.293C110.304 157.138 76.1217 168.275 49.3828 190.435C22.6439 212.595 5.35976 244.112 1.05055 278.566C-2.3144 305.525 2.44665 332.874 14.7239 357.111C28.5739 384.503 51.2569 406.426 79.108 419.338C106.959 432.25 138.351 435.397 168.212 428.271C198.073 421.144 224.658 404.16 243.673 380.063C262.687 355.966 273.019 326.164 273 295.472Z" fill="url(#paint12_linear)"/>
<path d="M261.287 350.865C195.312 384.717 172.69 370.52 102.201 345.403C61.9149 331.032 32.5093 343.656 14.7224 357.111C26.3884 380.144 44.3495 399.397 66.5206 412.635C88.6918 425.873 114.164 432.552 139.979 431.898C165.795 431.244 190.896 423.283 212.368 408.94C233.84 394.597 250.803 374.459 261.287 350.865Z" fill="url(#paint13_linear)"/>
<path d="M267.754 257.777C259.061 227.558 240.199 201.266 214.357 183.344C188.514 165.422 157.275 156.969 125.919 159.414C94.5629 161.858 65.0122 175.049 42.2606 196.759C19.5089 218.469 4.95149 247.366 1.04834 278.566C13.0519 267.248 27.2562 258.519 42.778 252.923C58.2997 247.328 74.8071 244.984 91.2735 246.038C163.02 250.256 218.161 300.934 267.754 257.777Z" fill="url(#paint14_linear)"/>
<path d="M60.9999 121.993C60.9987 116.141 58.7668 110.511 54.7588 106.247C50.7507 101.983 45.2679 99.4077 39.4269 99.0446C33.586 98.6815 27.8263 100.558 23.3209 104.293C18.8154 108.027 15.9031 113.338 15.177 119.144C14.61 123.687 15.4123 128.296 17.481 132.38C19.8146 136.996 23.6367 140.69 28.3295 142.866C33.0224 145.042 38.3119 145.573 43.3434 144.372C48.3749 143.171 52.8544 140.309 56.0583 136.248C59.2621 132.187 61.0031 127.165 60.9999 121.993Z" fill="url(#paint15_linear)"/>
<path d="M352 251.491C351.999 244.495 349.33 237.762 344.538 232.665C339.746 227.567 333.19 224.487 326.206 224.053C319.223 223.619 312.336 225.863 306.949 230.328C301.562 234.793 298.08 241.143 297.212 248.085C296.534 253.517 297.493 259.027 299.966 263.911C302.757 269.43 307.327 273.847 312.938 276.449C318.549 279.05 324.873 279.685 330.889 278.249C336.905 276.813 342.261 273.391 346.092 268.535C349.922 263.68 352.004 257.675 352 251.491Z" fill="url(#paint16_linear)"/>
<path d="M364 367.495C363.999 363.807 362.592 360.257 360.065 357.569C357.539 354.881 354.082 353.257 350.4 353.028C346.717 352.799 343.086 353.982 340.246 356.337C337.405 358.691 335.569 362.039 335.112 365.699C334.754 368.564 335.26 371.469 336.564 374.044C338.035 376.954 340.445 379.283 343.403 380.655C346.362 382.027 349.697 382.361 352.869 381.604C356.041 380.847 358.865 379.042 360.885 376.482C362.904 373.922 364.002 370.756 364 367.495Z" fill="url(#paint17_linear)"/>
<defs>
<linearGradient id="paint0_linear" x1="412.243" y1="195.11" x2="405.045" y2="176.383" gradientUnits="userSpaceOnUse">
<stop stop-color="#F7A491"/>
<stop offset="1" stop-color="#FFE8E5"/>
</linearGradient>
<linearGradient id="paint1_linear" x1="406.336" y1="184.041" x2="423.9" y2="206.86" gradientUnits="userSpaceOnUse">
<stop stop-color="#EB4BAC"/>
<stop offset="1" stop-color="#FCE1C2"/>
</linearGradient>
<linearGradient id="paint2_linear" x1="317" y1="104.5" x2="293" y2="204" gradientUnits="userSpaceOnUse">
<stop stop-color="#C7E5FF"/>
<stop offset="1" stop-color="#010D1F"/>
</linearGradient>
<linearGradient id="paint3_linear" x1="458.913" y1="142.871" x2="441.139" y2="118.55" gradientUnits="userSpaceOnUse">
<stop stop-color="#F7A491"/>
<stop offset="1" stop-color="#FFE8E5"/>
</linearGradient>
<linearGradient id="paint4_linear" x1="452.791" y1="116.277" x2="465.355" y2="145.088" gradientUnits="userSpaceOnUse">
<stop stop-color="#EB4BAC"/>
<stop offset="1" stop-color="#FCE1C2"/>
</linearGradient>
<linearGradient id="paint5_linear" x1="234" y1="146" x2="189.612" y2="98.5689" gradientUnits="userSpaceOnUse">
<stop stop-color="#F7A491"/>
<stop offset="1" stop-color="#FFE8E5"/>
</linearGradient>
<linearGradient id="paint6_linear" x1="360" y1="102" x2="362.5" y2="157" gradientUnits="userSpaceOnUse">
<stop stop-color="#C7E5FF"/>
<stop offset="1" stop-color="#07345A"/>
</linearGradient>
<linearGradient id="paint7_linear" x1="267.022" y1="92.1787" x2="262.119" y2="129.733" gradientUnits="userSpaceOnUse">
<stop stop-color="#FFE49E"/>
<stop offset="1" stop-color="#FFC633"/>
</linearGradient>
<linearGradient id="paint8_linear" x1="250.966" y1="62.0187" x2="242.863" y2="124.087" gradientUnits="userSpaceOnUse">
<stop stop-color="#FFE5A3"/>
<stop offset="1" stop-color="#FFC52E"/>
</linearGradient>
<linearGradient id="paint9_linear" x1="230" y1="49.9998" x2="246.742" y2="75.1618" gradientUnits="userSpaceOnUse">
<stop stop-color="#F7A491"/>
<stop offset="1" stop-color="#FFE8E5"/>
</linearGradient>
<linearGradient id="paint10_linear" x1="256" y1="62.9998" x2="222" y2="35.9998" gradientUnits="userSpaceOnUse">
<stop stop-color="#F7A491"/>
<stop offset="1" stop-color="#FFE8E5"/>
</linearGradient>
<linearGradient id="paint11_linear" x1="287.5" y1="80.0002" x2="292.958" y2="100.378" gradientUnits="userSpaceOnUse">
<stop stop-color="#F7A491"/>
<stop offset="1" stop-color="#FFE8E5"/>
</linearGradient>
<linearGradient id="paint12_linear" x1="77.4091" y1="393.595" x2="206.797" y2="159.018" gradientUnits="userSpaceOnUse">
<stop stop-color="#8177F7"/>
<stop offset="1" stop-color="#799FF8"/>
</linearGradient>
<linearGradient id="paint13_linear" x1="84.6357" y1="418.871" x2="105.381" y2="319.059" gradientUnits="userSpaceOnUse">
<stop stop-color="#8177F7"/>
<stop offset="1" stop-color="#799FF8"/>
</linearGradient>
<linearGradient id="paint14_linear" x1="76.6726" y1="261.744" x2="107.904" y2="135.458" gradientUnits="userSpaceOnUse">
<stop stop-color="#8177F7"/>
<stop offset="1" stop-color="#799FF8"/>
</linearGradient>
<linearGradient id="paint15_linear" x1="28.0433" y1="138.528" x2="49.8483" y2="99.0002" gradientUnits="userSpaceOnUse">
<stop stop-color="#EB4BAC"/>
<stop offset="1" stop-color="#FCE1C2"/>
</linearGradient>
<linearGradient id="paint16_linear" x1="312.595" y1="271.262" x2="338.667" y2="224" gradientUnits="userSpaceOnUse">
<stop stop-color="#5FA8ED"/>
<stop offset="1" stop-color="#7ED5B7"/>
</linearGradient>
<linearGradient id="paint17_linear" x1="343.223" y1="377.92" x2="356.97" y2="353" gradientUnits="userSpaceOnUse">
<stop stop-color="#73BCF9"/>
<stop offset="1" stop-color="#7A96F8"/>
</linearGradient>
<clipPath id="clip0">
<rect width="327.363" height="181.77" fill="white" transform="translate(159.529) rotate(7.43747)"/>
</clipPath>
</defs>
</svg>
