<svg width="387" height="414" viewBox="0 0 387 414" fill="none" xmlns="http://www.w3.org/2000/svg">
<path d="M93.8604 190.843L94.6758 183.227L105.417 183.11L115.273 183.019L115.776 192.219L104.173 191.496L93.8604 190.843Z" fill="url(#paint0_linear)"/>
<path d="M95.3371 181.645C96.1756 181.755 94.4137 192.003 94.4137 192.003C94.4137 192.003 87.2777 197.66 85.1673 203.672C83.0568 209.685 79.7251 205.842 80.4614 198.949C81.1978 192.057 81.762 186.797 82.2896 181.9C82.8171 177.003 86.6531 180.509 95.3371 181.645Z" fill="#43446C"/>
<path d="M91.1865 197.149C91.1288 197.469 91.1819 197.8 91.3369 198.086C91.4572 198.249 91.6244 198.371 91.8162 198.437C92.008 198.503 92.2153 198.508 92.4104 198.453C92.5626 198.43 92.7084 198.376 92.8387 198.294C92.969 198.213 93.0809 198.105 93.1673 197.977C93.5436 197.276 93.7171 196.484 93.6683 195.69C94.0264 196.577 94.4917 197.37 95.0302 197.46C95.3821 197.517 95.6974 197.32 95.9715 196.874C96.0958 196.678 96.1761 196.457 96.207 196.228C96.2379 195.998 96.2185 195.764 96.1503 195.543C95.7195 194.088 93.4227 192.966 93.3042 192.909C93.269 192.892 93.2303 192.882 93.1911 192.882C93.162 192.881 93.1329 192.884 93.105 192.893C93.0764 192.902 93.0493 192.915 93.0242 192.932C92.9946 192.952 92.9696 192.979 92.9511 193.01C92.1274 194.277 91.5303 195.677 91.1865 197.149ZM93.0802 196.463C93.0602 196.884 92.9382 197.293 92.7245 197.656C92.6805 197.723 92.6228 197.781 92.5552 197.825C92.4875 197.869 92.4115 197.899 92.3318 197.912C91.9167 197.971 91.8248 197.831 91.7935 197.786C91.4463 197.256 92.2169 195.427 93.0231 193.975C93.1287 194.802 93.1493 195.637 93.0847 196.468L93.0802 196.463ZM95.6679 196.126C95.649 196.29 95.5928 196.448 95.5035 196.588C95.4221 196.722 95.2629 196.943 95.1192 196.919C94.6587 196.843 94.0135 195.282 93.5962 193.692C94.2729 194.09 95.3762 194.854 95.6202 195.698C95.6668 195.836 95.6846 195.981 95.6724 196.126L95.6679 196.126Z" fill="url(#paint1_linear)"/>
<path opacity="0.2" d="M103.936 191.47L105.207 183.085L115.166 183.006L115.723 192.213L103.936 191.47Z" fill="black"/>
<path d="M218.726 127.956C218.726 127.956 192.994 129.493 158.636 173.628L109.998 180.962L107.337 192.924C107.337 192.924 154.539 195.374 168.841 190.59C183.144 185.806 211.897 158.895 211.897 158.895L236.081 139.781L218.726 127.956Z" fill="url(#paint2_linear)"/>
<path opacity="0.6" d="M107.339 192.915C107.339 192.915 154.543 195.368 168.84 190.583C183.137 185.798 211.896 158.887 211.896 158.887L236.076 139.78L218.722 127.96C218.722 127.96 198.811 129.145 170.627 159.492C167.943 162.383 165.178 165.522 162.354 168.967C161.131 170.468 159.892 172.022 158.638 173.628L110.001 180.962L107.339 192.915Z" fill="url(#paint3_linear)"/>
<path opacity="0.2" d="M162.353 168.968C169.819 170.293 180.041 169.759 192.458 163.363L176.41 158.574L170.626 159.493C167.942 162.384 165.177 165.523 162.353 168.968Z" fill="black"/>
<path d="M111.184 180.186L108.396 194.091L105.673 193.784L108.491 180.729L111.184 180.186Z" fill="url(#paint4_linear)"/>
<path d="M64.8326 139.134L68.7135 132.528L78.5502 136.847L87.5672 140.823L84.2365 149.414L73.962 143.975L64.8326 139.134Z" fill="url(#paint5_linear)"/>
<path d="M69.9681 131.361C70.6863 131.806 64.8589 140.418 64.8589 140.418C64.8589 140.418 56.0261 142.633 51.6268 147.242C47.2275 151.851 45.7738 146.971 49.2852 141.001C52.7965 135.031 55.4748 130.463 57.9695 126.217C60.4642 121.971 62.5225 126.748 69.9681 131.361Z" fill="#43446C"/>
<path d="M59.8013 143.781C59.6167 144.049 59.5292 144.372 59.5531 144.697C59.5931 144.953 59.7694 145.296 60.3787 145.473C60.5268 145.515 60.6822 145.527 60.8349 145.506C60.9875 145.485 61.1342 145.432 61.2655 145.352C61.8971 144.868 62.3814 144.218 62.664 143.474C62.6251 144.429 62.7224 145.345 63.1766 145.647C63.3518 145.741 63.552 145.778 63.749 145.751C63.946 145.725 64.1298 145.638 64.2743 145.501C64.4683 145.374 64.6325 145.207 64.7554 145.01C64.8784 144.814 64.9572 144.593 64.9864 144.363C65.1927 142.859 63.5627 140.891 63.4774 140.79C63.4534 140.761 63.4239 140.737 63.3907 140.72C63.3644 140.707 63.3361 140.698 63.307 140.693C63.2778 140.688 63.2479 140.688 63.2187 140.693C63.1832 140.699 63.1495 140.713 63.1198 140.734C61.8454 141.549 60.7225 142.58 59.8013 143.781ZM61.8098 143.935C61.6185 144.31 61.3388 144.633 60.995 144.876C60.9269 144.92 60.8505 144.949 60.7706 144.961C60.6908 144.974 60.6092 144.969 60.5311 144.949C60.1275 144.832 60.1016 144.666 60.0929 144.611C59.9946 143.986 61.4503 142.637 62.7832 141.645C62.5371 142.44 62.2109 143.207 61.8098 143.935ZM64.3076 144.694C64.2217 144.836 64.1046 144.958 63.9651 145.048C63.8353 145.137 63.5998 145.272 63.4792 145.192C63.0903 144.933 63.1461 143.244 63.42 141.624C64.0398 142.378 64.3984 143.313 64.4421 144.288C64.4247 144.431 64.379 144.569 64.3076 144.694Z" fill="url(#paint6_linear)"/>
<path opacity="0.2" d="M73.7553 143.857L78.3666 136.74L87.4746 140.774L84.1887 149.393L73.7553 143.857Z" fill="black"/>
<path d="M253.024 124.66C253.024 124.66 254.257 145.238 255.683 146.369C257.108 147.5 281.174 164.928 281.174 164.928C281.174 164.928 289.523 166.336 292.166 167.701C294.81 169.065 292.507 177.338 291.154 178.447C289.801 179.556 278.196 173.645 278.196 173.645L276.647 170.978C276.647 170.978 250.519 155.734 248.079 154.371C245.64 153.008 240.163 129.505 240.163 129.505L253.024 124.66Z" fill="url(#paint7_linear)"/>
<path d="M249.213 113.391C257.121 116.133 255.686 135.616 255.686 135.616L241.392 139.989L238.317 133.915L249.213 113.391Z" fill="url(#paint8_linear)"/>
<path opacity="0.2" d="M249.213 113.391C257.121 116.133 255.686 135.616 255.686 135.616L241.392 139.989L238.317 133.915L249.213 113.391Z" fill="url(#paint9_linear)"/>
<path d="M204.517 133.266C204.517 133.266 180.436 124.067 130.948 150.13L83.603 136.777L76.2524 146.575C76.2524 146.575 118.253 168.253 133.257 169.785C148.26 171.318 185.548 158.64 185.548 158.64L215.455 151.189L204.517 133.266Z" fill="url(#paint10_linear)"/>
<path opacity="0.6" d="M204.517 133.266C204.517 133.266 180.436 124.067 130.948 150.13L83.603 136.777L76.2524 146.575C76.2524 146.575 118.253 168.253 133.257 169.785C148.26 171.318 185.548 158.64 185.548 158.64L215.455 151.189L204.517 133.266Z" fill="url(#paint11_linear)"/>
<path d="M85.7957 136.196L82.9581 136.174L74.8113 146.72L77.6364 148.385L85.7957 136.196Z" fill="url(#paint12_linear)"/>
<path d="M241.903 72.6312C241.903 72.6312 229.632 67.7538 220.577 75.8327C214.865 80.9308 201.507 93.2917 194.593 88.9895C187.68 84.6872 176.508 80.7696 171.319 86.0065C171.319 86.0065 179.836 85.5046 184.067 88.9098C184.067 88.9098 176.018 86.6016 173.089 88.8267C170.16 91.0518 165.687 90.0302 165.687 90.0302C165.687 90.0302 161.858 102.008 181.641 103.593C181.641 103.593 171.394 105.576 166.72 101.533C166.72 101.533 165.311 110.073 188.367 112.929C211.423 115.786 231.565 111.996 236.347 105.153C241.129 98.3104 241.903 72.6312 241.903 72.6312Z" fill="#43446C"/>
<path d="M181.437 130.352C181.437 130.352 185.736 153.492 203.333 157.159C206.112 157.776 208.982 157.863 211.792 157.416C217.205 156.428 222.004 153.331 225.133 148.806C226.08 147.542 226.884 146.177 227.531 144.735L202.054 131.584L199.956 130.492C196.653 129.786 193.302 129.329 189.93 129.125C186.647 128.964 183.349 129.189 181.437 130.352Z" fill="url(#paint13_linear)"/>
<path opacity="0.2" d="M196.999 145.399C202.032 150.874 206.736 154.908 211.792 157.416C217.205 156.429 222.003 153.332 225.133 148.806C217.76 142.648 210.055 136.899 202.053 131.584L199.955 130.492C196.652 129.785 193.301 129.328 189.929 129.125C188.726 132.423 189.988 137.779 196.999 145.399Z" fill="black"/>
<path d="M249.214 113.39C233.806 108.124 217.283 107.002 201.304 110.134C201.304 110.134 192.533 124.453 189.758 135.788C189.758 135.788 203.226 155.904 221.812 155.447C240.397 154.99 249.214 113.39 249.214 113.39Z" fill="url(#paint14_linear)"/>
<path d="M208.894 113.676C208.894 113.676 226.056 101.72 239.092 113.314" stroke="#43446C" stroke-width="0.5" stroke-linecap="round" stroke-linejoin="round"/>
<path d="M251.243 91.7958C251.243 91.7958 252.843 66.8981 230.954 72.7495C203.478 80.0946 219.499 113.115 233.022 108.856C246.545 104.597 251.243 91.7958 251.243 91.7958Z" fill="#43446C"/>
<path d="M215.754 111.412C215.754 111.412 220.61 125.268 229.202 124.438C231.479 124.21 233.655 123.384 235.51 122.043C237.364 120.703 238.831 118.895 239.761 116.804C239.956 116.401 240.125 115.986 240.268 115.562C240.268 115.562 235.906 114.227 238.71 110.419L228.024 101.99C228.027 103.144 227.961 104.297 227.828 105.443C227.564 107.48 227.003 109.753 225.73 110.321C223.32 111.401 215.754 111.412 215.754 111.412Z" fill="url(#paint15_linear)"/>
<path opacity="0.2" d="M227.828 105.443C228.663 110.355 231.313 117.885 239.761 116.805C239.956 116.402 240.125 115.987 240.268 115.563C240.268 115.563 235.906 114.227 238.71 110.419L228.024 101.99C228.026 103.144 227.961 104.297 227.828 105.443Z" fill="black"/>
<path d="M236.97 78.9294C246.603 78.2638 250.059 83.2071 251.45 93.0848C253.19 105.429 251.047 114.431 238.821 112.614C222.219 110.146 220.975 80.0339 236.97 78.9294Z" fill="url(#paint16_linear)"/>
<path d="M245.188 92.9757C246.058 94.3617 247.091 95.638 248.266 96.7771C248.012 97.1945 247.647 97.5335 247.212 97.7567C246.777 97.9799 246.289 98.0786 245.802 98.0419L245.188 92.9757Z" fill="#D4827D"/>
<path d="M239.237 92.5957C239.31 93.3892 238.942 94.0661 238.415 94.1143C237.888 94.1624 237.4 93.5617 237.33 92.7727C237.26 91.9837 237.624 91.3022 238.15 91.253C238.676 91.2037 239.163 91.8055 239.237 92.5957Z" fill="#43446C"/>
<path d="M237.934 91.3169L239.59 90.4844C239.59 90.4844 238.868 92.0037 237.934 91.3169Z" fill="#43446C"/>
<path d="M249.043 91.5223C249.115 92.3158 248.747 92.9927 248.221 93.0409C247.695 93.089 247.206 92.4894 247.135 91.6993C247.064 90.9092 247.429 90.2288 247.956 90.1807C248.483 90.1326 248.969 90.7321 249.043 91.5223Z" fill="#43446C"/>
<path d="M247.743 90.2388L249.398 89.4052C249.398 89.4052 248.674 90.9301 247.743 90.2388Z" fill="#43446C"/>
<path d="M238.681 85.9512C237.913 85.911 237.146 86.0475 236.439 86.3501C235.732 86.6527 235.104 87.1133 234.603 87.6966" stroke="#43446C" stroke-width="0.725" stroke-linecap="round" stroke-linejoin="round"/>
<path d="M245.654 85.0603C246.3 84.8484 246.987 84.7857 247.661 84.8769C248.336 84.9681 248.981 85.2109 249.548 85.5871" stroke="#43446C" stroke-width="0.725" stroke-linecap="round" stroke-linejoin="round"/>
<path d="M227.565 95.891C227.565 95.891 231.521 87.6656 230.418 81.6028C230.418 81.6028 248.967 72.4866 251.247 91.7964C251.247 91.7964 251.924 74.4641 235.339 75.2243C218.781 75.9825 218.558 100.14 227.608 106.769C227.608 106.767 225.12 101.033 227.565 95.891Z" fill="#43446C"/>
<path d="M229.279 97.82C229.109 96.7118 228.506 95.7163 227.603 95.0514C226.701 94.3864 225.571 94.1061 224.462 94.2717C221.5 94.8044 220.501 101.031 228.029 101.992C229.107 102.123 229.637 101.042 229.279 97.82Z" fill="url(#paint17_linear)"/>
<path d="M246.94 101.834C246.524 102.938 246.189 104.072 245.937 105.225C245.728 105.216 245.521 105.209 245.314 105.19C242.494 105.01 241.245 103.994 240.718 102.923C240.471 102.395 240.354 101.815 240.377 101.233C240.38 100.902 240.429 100.573 240.522 100.256C242.212 101.142 244.074 101.653 245.98 101.755C246.567 101.822 246.94 101.834 246.94 101.834Z" fill="#43446C"/>
<path d="M245.98 101.756L245.658 102.75C243.004 102.573 241.157 102.092 240.378 101.237C240.38 100.907 240.429 100.578 240.522 100.261C242.213 101.145 244.075 101.655 245.98 101.756Z" fill="white"/>
<path d="M245.314 105.19C242.494 105.01 241.244 103.995 240.718 102.924C241.788 103.012 242.834 103.288 243.808 103.74C244.449 104.054 244.976 104.561 245.314 105.19Z" fill="#EC7774"/>
<path d="M236.821 79.67C236.821 79.67 234.035 95.788 224.041 96.2742C214.047 96.7604 228.062 75.6279 228.062 75.6279C228.062 75.6279 243.924 68.358 252.557 76.4521C261.189 84.5462 251.247 91.7963 251.247 91.7963C251.247 91.7963 251.014 79.4795 236.821 79.67Z" fill="#43446C"/>
<path d="M236.647 78.551C236.647 78.551 238.572 89.2917 230.938 93.6359" stroke="#43446C" stroke-width="0.5" stroke-linecap="round" stroke-linejoin="round"/>
<path d="M239.092 113.314C243.248 117.012 221.207 124.823 208.894 113.676" stroke="#43446C" stroke-width="0.5" stroke-linecap="round" stroke-linejoin="round"/>
<path d="M209.441 113.681L205.249 111.93L203.848 113.047L204.93 114.468L209.441 113.681Z" fill="url(#paint18_linear)"/>
<path opacity="0.6" d="M209.441 113.681L205.249 111.93L203.848 113.047L204.93 114.468L209.441 113.681Z" fill="white"/>
<path d="M188.327 113.495C188.327 113.495 166.566 118.305 162.603 119.319C158.64 120.332 130.509 132.165 130.509 132.165C130.509 132.165 120.507 128.284 119.359 129.397C118.211 130.511 115.661 136.192 115.878 137.562C116.095 138.932 130.209 141.774 130.896 141.323C131.9 140.342 132.823 139.281 133.656 138.152C133.656 138.152 161.54 128.621 166.792 127.489C172.044 126.356 189.837 124.945 189.837 124.945L188.327 113.495Z" fill="url(#paint19_linear)"/>
<path d="M201.304 110.134C201.304 110.134 201.197 124.268 192.717 129.112L177.697 127.65L173.784 114.83C173.784 114.83 187.785 110.281 201.304 110.134Z" fill="url(#paint20_linear)"/>
<path opacity="0.2" d="M201.304 110.134C201.304 110.134 201.197 124.268 192.717 129.112L177.697 127.65L173.784 114.83C173.784 114.83 187.785 110.281 201.304 110.134Z" fill="url(#paint21_linear)"/>
<path d="M132 294.492C132.004 275.538 139.233 257.299 152.216 243.489C165.199 229.678 182.958 221.335 201.878 220.159C220.797 218.983 239.454 225.062 254.047 237.158C268.641 249.254 278.075 266.457 280.427 285.264C282.263 299.979 279.665 314.908 272.964 328.137C265.405 343.089 253.025 355.056 237.824 362.104C222.623 369.152 205.49 370.87 189.192 366.98C172.894 363.09 158.384 353.819 148.007 340.666C137.629 327.513 131.99 311.245 132 294.492Z" fill="url(#paint22_linear)"/>
<path d="M138.389 324.728C174.397 343.206 186.744 335.457 225.216 321.747C247.203 313.903 263.253 320.794 272.96 328.138C266.593 340.71 256.79 351.22 244.69 358.445C232.589 365.671 218.687 369.317 204.597 368.96C190.507 368.603 176.807 364.258 165.088 356.428C153.369 348.599 144.111 337.607 138.389 324.728Z" fill="url(#paint23_linear)"/>
<path d="M134.861 273.917C139.605 257.422 149.9 243.071 164.004 233.288C178.109 223.505 195.159 218.891 212.272 220.225C229.386 221.56 245.515 228.76 257.932 240.61C270.35 252.461 278.295 268.234 280.425 285.265C273.874 279.086 266.121 274.322 257.65 271.267C249.178 268.213 240.169 266.934 231.182 267.509C192.023 269.812 161.928 297.474 134.861 273.917Z" fill="url(#paint24_linear)"/>
<circle cx="363" cy="276" r="4" fill="#9EA1EB"/>
<circle cx="286" cy="381" r="6" fill="#9EA1EB"/>
<path d="M67 303C71.9706 303 76 298.97 76 294C76 289.029 71.9706 285 67 285C62.0294 285 58 289.029 58 294C58 298.97 62.0294 303 67 303Z" fill="url(#paint25_linear)"/>
<defs>
<linearGradient id="paint0_linear" x1="105.07" y1="183.016" x2="104.814" y2="192.136" gradientUnits="userSpaceOnUse">
<stop offset="0.0625" stop-color="#FFC19E"/>
<stop offset="1" stop-color="white"/>
</linearGradient>
<linearGradient id="paint1_linear" x1="94.8079" y1="193.684" x2="91.9664" y2="198.235" gradientUnits="userSpaceOnUse">
<stop stop-color="#EF8197"/>
<stop offset="0.942708" stop-color="#F7C58F"/>
</linearGradient>
<linearGradient id="paint2_linear" x1="199.71" y1="137.134" x2="179.63" y2="205.671" gradientUnits="userSpaceOnUse">
<stop stop-color="#73BCF9"/>
<stop offset="1" stop-color="#7A96F8"/>
</linearGradient>
<linearGradient id="paint3_linear" x1="199.707" y1="137.136" x2="179.632" y2="205.662" gradientUnits="userSpaceOnUse">
<stop stop-color="#73BCF9"/>
<stop offset="1" stop-color="#7A96F8"/>
</linearGradient>
<linearGradient id="paint4_linear" x1="109.636" y1="182.134" x2="102.25" y2="187.25" gradientUnits="userSpaceOnUse">
<stop stop-color="#EF8197"/>
<stop offset="0.942708" stop-color="#F7C58F"/>
</linearGradient>
<linearGradient id="paint5_linear" x1="76.2559" y1="132.585" x2="76.1289" y2="149.353" gradientUnits="userSpaceOnUse">
<stop offset="0.0625" stop-color="#FFC19E"/>
<stop offset="1" stop-color="white"/>
</linearGradient>
<linearGradient id="paint6_linear" x1="63.4791" y1="141.404" x2="61.1387" y2="145.883" gradientUnits="userSpaceOnUse">
<stop stop-color="#EF8197"/>
<stop offset="0.942708" stop-color="#F7C58F"/>
</linearGradient>
<linearGradient id="paint7_linear" x1="257.883" y1="168.458" x2="273.351" y2="147.624" gradientUnits="userSpaceOnUse">
<stop offset="0.0625" stop-color="#FFC19E"/>
<stop offset="1" stop-color="white"/>
</linearGradient>
<linearGradient id="paint8_linear" x1="250.953" y1="117.155" x2="236.1" y2="134.521" gradientUnits="userSpaceOnUse">
<stop stop-color="#EF8197"/>
<stop offset="0.942708" stop-color="#F7C58F"/>
</linearGradient>
<linearGradient id="paint9_linear" x1="250.953" y1="117.155" x2="236.1" y2="134.521" gradientUnits="userSpaceOnUse">
<stop stop-color="#EF8197"/>
<stop offset="0.942708" stop-color="#F7C58F"/>
</linearGradient>
<linearGradient id="paint10_linear" x1="176.081" y1="137.006" x2="169.28" y2="179.281" gradientUnits="userSpaceOnUse">
<stop stop-color="#73BCF9"/>
<stop offset="1" stop-color="#7A96F8"/>
</linearGradient>
<linearGradient id="paint11_linear" x1="176.081" y1="137.006" x2="169.28" y2="179.281" gradientUnits="userSpaceOnUse">
<stop stop-color="#73BCF9"/>
<stop offset="1" stop-color="#7A96F8"/>
</linearGradient>
<linearGradient id="paint12_linear" x1="82.6908" y1="137.896" x2="76.4682" y2="147.769" gradientUnits="userSpaceOnUse">
<stop stop-color="#EF8197"/>
<stop offset="0.942708" stop-color="#F7C58F"/>
</linearGradient>
<linearGradient id="paint13_linear" x1="214.517" y1="133.283" x2="204.58" y2="161.809" gradientUnits="userSpaceOnUse">
<stop stop-color="#EF8197"/>
<stop offset="0.942708" stop-color="#F7C58F"/>
</linearGradient>
<linearGradient id="paint14_linear" x1="232.39" y1="115.115" x2="212.688" y2="159.215" gradientUnits="userSpaceOnUse">
<stop stop-color="#EF8197"/>
<stop offset="0.942708" stop-color="#F7C58F"/>
</linearGradient>
<linearGradient id="paint15_linear" x1="232.958" y1="107.833" x2="227.928" y2="124.47" gradientUnits="userSpaceOnUse">
<stop stop-color="#FFC19E"/>
<stop offset="1" stop-color="white"/>
</linearGradient>
<linearGradient id="paint16_linear" x1="219.274" y1="105.716" x2="251.167" y2="97.4958" gradientUnits="userSpaceOnUse">
<stop offset="0.0625" stop-color="#FFC19E"/>
<stop offset="1" stop-color="white"/>
</linearGradient>
<linearGradient id="paint17_linear" x1="229.039" y1="93.2979" x2="225.794" y2="101.984" gradientUnits="userSpaceOnUse">
<stop offset="0.0625" stop-color="#FFC19E"/>
<stop offset="1" stop-color="white"/>
</linearGradient>
<linearGradient id="paint18_linear" x1="207.864" y1="112.308" x2="207.173" y2="114.981" gradientUnits="userSpaceOnUse">
<stop stop-color="#4A7AF9"/>
<stop offset="1" stop-color="#B4E1EF"/>
</linearGradient>
<linearGradient id="paint19_linear" x1="157.381" y1="138.687" x2="148.666" y2="118.879" gradientUnits="userSpaceOnUse">
<stop offset="0.0625" stop-color="#FFC19E"/>
<stop offset="1" stop-color="white"/>
</linearGradient>
<linearGradient id="paint20_linear" x1="193.491" y1="112.754" x2="186.233" y2="131.322" gradientUnits="userSpaceOnUse">
<stop stop-color="#EF8197"/>
<stop offset="0.942708" stop-color="#F7C58F"/>
</linearGradient>
<linearGradient id="paint21_linear" x1="193.491" y1="112.754" x2="186.233" y2="131.322" gradientUnits="userSpaceOnUse">
<stop stop-color="#EF8197"/>
<stop offset="0.942708" stop-color="#F7C58F"/>
</linearGradient>
<linearGradient id="paint22_linear" x1="238.751" y1="348.052" x2="168.121" y2="220.015" gradientUnits="userSpaceOnUse">
<stop stop-color="#8177F7"/>
<stop offset="1" stop-color="#799FF8"/>
</linearGradient>
<linearGradient id="paint23_linear" x1="234.803" y1="361.849" x2="223.478" y2="307.368" gradientUnits="userSpaceOnUse">
<stop stop-color="#8177F7"/>
<stop offset="1" stop-color="#799FF8"/>
</linearGradient>
<linearGradient id="paint24_linear" x1="239.151" y1="276.082" x2="222.102" y2="207.151" gradientUnits="userSpaceOnUse">
<stop stop-color="#8177F7"/>
<stop offset="1" stop-color="#799FF8"/>
</linearGradient>
<linearGradient id="paint25_linear" x1="63.1039" y1="287.532" x2="71.6364" y2="303" gradientUnits="userSpaceOnUse">
<stop stop-color="#F29C96"/>
<stop offset="0.942708" stop-color="#F8D2BF"/>
</linearGradient>
</defs>
</svg>
