<svg width="282" height="290" viewBox="0 0 282 290" fill="none" xmlns="http://www.w3.org/2000/svg">
<g filter="url(#filter0_d)">
<path d="M107.297 212.353C106.131 212.353 105.014 211.891 104.19 211.066C103.365 210.242 102.902 209.124 102.902 207.959V159.122C102.902 148.649 111.392 140.13 121.828 140.13H159.562C169.998 140.13 178.488 148.649 178.488 159.122V207.957C178.488 210.384 176.521 212.352 174.094 212.352L107.297 212.353Z" fill="url(#paint0_linear)"/>
<path d="M140.695 165.606C138.268 165.606 136.301 163.638 136.301 161.211V141.595C136.301 139.168 138.268 137.2 140.695 137.2C143.123 137.2 145.09 139.168 145.09 141.595V161.211C145.09 163.638 143.122 165.606 140.695 165.606Z" fill="url(#paint1_linear)"/>
<path d="M97.3745 249.612C97.1293 249.612 96.8823 249.592 96.636 249.55C95.1184 249.291 93.8466 248.257 93.2841 246.824L87.4379 231.938L72.6925 225.743C71.2731 225.147 70.2694 223.851 70.0464 222.328C69.8235 220.805 70.4138 219.276 71.6029 218.298L83.9548 208.137L85.2893 192.2C85.4176 190.666 86.3396 189.311 87.7195 188.628C89.0993 187.945 90.7356 188.034 92.0334 188.863L105.513 197.47L121.083 193.814C122.582 193.461 124.156 193.92 125.231 195.022C126.307 196.123 126.728 197.707 126.341 199.197L122.321 214.677L130.609 228.355C131.407 229.672 131.458 231.31 130.743 232.674C130.028 234.037 128.651 234.927 127.115 235.019L111.15 235.979L100.702 248.088C99.8592 249.065 98.6402 249.612 97.3745 249.612Z" fill="url(#paint2_linear)"/>
<path d="M184.016 249.612C182.75 249.612 181.532 249.065 180.689 248.089L170.241 235.979L154.277 235.019C152.74 234.927 151.364 234.037 150.649 232.674C149.934 231.31 149.984 229.672 150.782 228.355L159.07 214.677L155.049 199.197C154.663 197.707 155.083 196.123 156.159 195.022C157.235 193.92 158.808 193.461 160.307 193.814L175.878 197.47L189.358 188.863C190.655 188.035 192.292 187.946 193.672 188.628C195.051 189.311 195.973 190.666 196.102 192.2L197.436 208.138L209.788 218.298C210.977 219.276 211.567 220.805 211.345 222.328C211.122 223.852 210.118 225.147 208.699 225.743L193.953 231.938L188.107 246.824C187.544 248.257 186.272 249.291 184.755 249.55C184.508 249.592 184.261 249.612 184.016 249.612Z" fill="url(#paint3_linear)"/>
<path d="M163.684 250C163.106 250 162.525 249.886 161.975 249.654L140.695 240.671L119.415 249.654C117.997 250.252 116.369 250.066 115.123 249.16C113.878 248.256 113.197 246.765 113.328 245.231L115.295 222.216L100.176 204.754C99.1683 203.59 98.8431 201.984 99.3189 200.52C99.7947 199.056 101.002 197.947 102.501 197.598L124.997 192.357L136.933 172.582C137.728 171.264 139.156 170.458 140.695 170.458C142.235 170.458 143.662 171.264 144.458 172.582L156.393 192.357L178.889 197.598C180.389 197.947 181.596 199.056 182.071 200.52C182.547 201.984 182.222 203.59 181.214 204.754L166.095 222.216L168.063 245.231C168.194 246.765 167.513 248.255 166.267 249.16C165.505 249.715 164.598 250 163.684 250Z" fill="url(#paint4_linear)"/>
<path d="M140.695 145.117C128.256 145.117 118.137 134.997 118.137 122.559C118.137 110.12 128.256 100 140.695 100C153.134 100 163.254 110.12 163.254 122.559C163.254 134.997 153.134 145.117 140.695 145.117Z" fill="url(#paint5_linear)"/>
</g>
<defs>
<filter id="filter0_d" x="0" y="0" width="281.391" height="290" filterUnits="userSpaceOnUse" color-interpolation-filters="sRGB">
<feFlood flood-opacity="0" result="BackgroundImageFix"/>
<feColorMatrix in="SourceAlpha" type="matrix" values="0 0 0 0 0 0 0 0 0 0 0 0 0 0 0 0 0 0 127 0"/>
<feOffset dy="-30"/>
<feGaussianBlur stdDeviation="35"/>
<feColorMatrix type="matrix" values="0 0 0 0 0.509804 0 0 0 0 0.662745 0 0 0 0 0.976471 0 0 0 0.45 0"/>
<feBlend mode="normal" in2="BackgroundImageFix" result="effect1_dropShadow"/>
<feBlend mode="normal" in="SourceGraphic" in2="effect1_dropShadow" result="shape"/>
</filter>
<linearGradient id="paint0_linear" x1="140.695" y1="140.13" x2="140.695" y2="212.353" gradientUnits="userSpaceOnUse">
<stop stop-color="#FFF4F4"/>
<stop offset="1" stop-color="#F6EFEA"/>
</linearGradient>
<linearGradient id="paint1_linear" x1="138.793" y1="141.197" x2="152.377" y2="148.816" gradientUnits="userSpaceOnUse">
<stop stop-color="#EB4BAC"/>
<stop offset="1" stop-color="#FCE1C2"/>
</linearGradient>
<linearGradient id="paint2_linear" x1="121.5" y1="205" x2="99.5472" y2="222.559" gradientUnits="userSpaceOnUse">
<stop stop-color="#8177F7"/>
<stop offset="1" stop-color="#799FF8"/>
</linearGradient>
<linearGradient id="paint3_linear" x1="170" y1="201.5" x2="187.571" y2="227.953" gradientUnits="userSpaceOnUse">
<stop stop-color="#8177F7"/>
<stop offset="1" stop-color="#799FF8"/>
</linearGradient>
<linearGradient id="paint4_linear" x1="141" y1="173" x2="142.793" y2="218.068" gradientUnits="userSpaceOnUse">
<stop stop-color="#8177F7"/>
<stop offset="1" stop-color="#799FF8"/>
</linearGradient>
<linearGradient id="paint5_linear" x1="140.695" y1="100" x2="140.695" y2="145.117" gradientUnits="userSpaceOnUse">
<stop stop-color="#FFE4C1"/>
<stop offset="0.458333" stop-color="#FDDBAF"/>
<stop offset="1" stop-color="#F9CD94"/>
</linearGradient>
</defs>
</svg>
