<svg width="508" height="586" viewBox="0 0 508 586" fill="none" xmlns="http://www.w3.org/2000/svg">
<g opacity="0.2">
<g opacity="0.4" filter="url(#filter0_f)">
<path d="M127.14 357.127C127.148 317.646 142.207 279.652 169.251 250.884C196.295 222.116 233.289 204.737 272.7 202.287C312.111 199.837 350.973 212.5 381.373 237.697C411.773 262.894 431.424 298.729 436.323 337.906C440.148 368.559 434.735 399.656 420.777 427.214C405.031 458.359 379.242 483.286 347.578 497.968C315.914 512.65 280.224 516.228 246.275 508.125C212.325 500.022 182.1 480.71 160.483 453.311C138.865 425.912 127.118 392.026 127.14 357.127Z" fill="url(#paint0_linear)"/>
</g>
</g>
<path d="M160.096 357.135C160.102 326.038 171.963 296.112 193.264 273.453C214.565 250.794 243.704 237.106 274.746 235.176C305.787 233.246 336.397 243.22 360.341 263.066C384.286 282.912 399.763 311.138 403.622 341.995C406.635 366.139 402.372 390.632 391.378 412.338C378.975 436.87 358.663 456.503 333.723 468.067C308.783 479.631 280.672 482.45 253.932 476.067C227.192 469.685 203.385 454.474 186.358 432.894C169.331 411.313 160.079 384.623 160.096 357.135Z" fill="url(#paint1_linear)"/>
<path d="M170.579 406.741C229.658 437.059 249.916 424.344 313.037 401.849C349.113 388.98 375.445 400.285 391.373 412.335C380.926 432.963 364.843 450.206 344.989 462.061C325.135 473.917 302.325 479.899 279.208 479.313C256.09 478.727 233.613 471.598 214.385 458.752C195.157 445.906 179.967 427.872 170.579 406.741Z" fill="url(#paint2_linear)"/>
<path d="M164.792 323.377C172.577 296.313 189.467 272.767 212.608 256.716C235.75 240.666 263.724 233.095 291.803 235.284C319.882 237.473 346.344 249.288 366.718 268.731C387.092 288.174 400.127 314.053 403.623 341.996C392.874 331.859 380.154 324.042 366.254 319.03C352.355 314.019 337.573 311.92 322.827 312.864C258.58 316.642 209.202 362.027 164.792 323.377Z" fill="url(#paint3_linear)"/>
<path d="M364.945 0.379558C366.858 0.805532 368.702 1.49772 370.422 2.43588C372.068 3.32151 373.542 4.49339 374.776 5.89652C375.963 7.25595 376.839 8.85801 377.344 10.591C377.871 12.4279 377.913 14.3705 377.464 16.2283C377.167 17.703 376.58 19.1042 375.739 20.351C374.982 21.4236 374.073 22.38 373.04 23.1897C372.03 23.9742 370.952 24.669 369.82 25.2661L366.631 26.9513C365.668 27.4538 364.755 28.0448 363.902 28.7167C363.132 29.3012 362.541 30.0901 362.197 30.9937C362.024 31.3966 361.743 31.7438 361.385 31.9968C361.213 32.1282 361.013 32.219 360.801 32.2624C360.589 32.3058 360.37 32.3007 360.161 32.2476L355.466 31.2445C355.241 31.197 355.027 31.1051 354.838 30.9742C354.649 30.8433 354.487 30.6761 354.363 30.4821C354.232 30.3005 354.145 30.0905 354.11 29.8692C354.075 29.6478 354.093 29.4214 354.162 29.2082C354.553 27.749 355.236 26.3841 356.168 25.1959C357.009 24.1472 357.98 23.2101 359.057 22.4073C360.098 21.6457 361.202 20.9745 362.358 20.4011C363.501 19.8294 364.564 19.2777 365.547 18.736C366.446 18.2612 367.291 17.6893 368.065 17.0308C368.74 16.462 369.209 15.6863 369.399 14.824C369.573 14.0708 369.561 13.2869 369.365 12.5393C369.17 11.7916 368.796 11.1025 368.276 10.5308C366.979 9.11336 365.245 8.17057 363.351 7.85254C359.846 7.07013 356.884 8.25043 354.463 11.3934C354.231 11.7376 353.935 12.0338 353.591 12.2661C353.404 12.3609 353.201 12.4177 352.993 12.4332C352.784 12.4487 352.575 12.4226 352.377 12.3564L347.361 11.243C347.185 11.2089 347.016 11.1399 346.866 11.04C346.717 10.9401 346.588 10.8113 346.489 10.6612C346.379 10.5075 346.306 10.3315 346.273 10.1459C346.24 9.96034 346.248 9.76974 346.298 9.58788C346.72 8.04623 347.512 6.63097 348.605 5.4652C349.832 4.11048 351.289 2.9831 352.908 2.13496C354.683 1.20331 356.597 0.566404 358.576 0.24916C360.687 -0.122332 362.851 -0.0780394 364.945 0.379558ZM359.649 36.0292C359.869 36.0762 360.077 36.1682 360.26 36.2994C360.443 36.4306 360.597 36.5981 360.712 36.7915C360.836 36.9788 360.92 37.1891 360.96 37.4098C360.999 37.6305 360.994 37.857 360.943 38.0755L359.739 43.5122C359.639 43.9462 359.373 44.324 358.998 44.5655C358.624 44.807 358.17 44.8933 357.733 44.8062L352.417 43.6326C352.198 43.5856 351.991 43.4947 351.808 43.3654C351.625 43.2361 351.471 43.0711 351.354 42.8803C351.229 42.6938 351.144 42.4834 351.104 42.2625C351.064 42.0415 351.071 41.8147 351.123 41.5963L352.327 36.1496C352.427 35.7156 352.693 35.3378 353.068 35.0963C353.442 34.8548 353.896 34.7685 354.333 34.8556L359.649 36.0292Z" fill="url(#paint4_linear)"/>
<path d="M380.714 51.5266C382.041 51.3079 383.392 51.2809 384.726 51.4463C386.009 51.592 387.256 51.9657 388.408 52.5497C389.507 53.1124 390.472 53.9063 391.236 54.8769C392.046 55.9172 392.569 57.1521 392.751 58.4579C392.959 59.4739 392.959 60.5214 392.751 61.5374C392.542 62.4214 392.204 63.2698 391.748 64.0551C391.301 64.8123 390.791 65.5303 390.223 66.2017L388.608 68.1076C388.122 68.6777 387.686 69.2885 387.304 69.9332C386.964 70.5064 386.791 71.1628 386.803 71.829C386.801 72.142 386.71 72.4481 386.542 72.7117C386.465 72.8379 386.362 72.9456 386.238 73.0271C386.115 73.1086 385.976 73.1619 385.83 73.1832L382.55 73.7249C382.233 73.7747 381.909 73.6991 381.647 73.5142C381.518 73.4302 381.411 73.3178 381.332 73.1856C381.254 73.0534 381.207 72.905 381.195 72.7519C381.058 71.7238 381.137 70.6784 381.426 69.6824C381.686 68.7887 382.068 67.9348 382.56 67.1446C383.029 66.3882 383.563 65.6734 384.155 65.0081C384.746 64.346 385.278 63.7241 385.78 63.1223C386.232 62.5874 386.625 62.0056 386.953 61.3869C387.241 60.8497 387.343 60.2327 387.244 59.6315C387.162 59.1031 386.954 58.6024 386.636 58.1725C386.318 57.7427 385.9 57.3966 385.418 57.1639C384.229 56.5832 382.879 56.4207 381.587 56.7025C380.417 56.8749 379.329 57.4037 378.471 58.2169C377.613 59.03 377.027 60.0879 376.792 61.2465C376.728 61.5294 376.612 61.7981 376.451 62.0389C376.256 62.2523 375.987 62.3817 375.699 62.4L372.208 62.9718C371.96 63.0126 371.706 62.9589 371.496 62.8213C371.386 62.7503 371.293 62.6559 371.224 62.545C371.154 62.434 371.11 62.3092 371.094 62.1793C370.973 61.0836 371.121 59.9749 371.526 58.9494C371.961 57.7637 372.607 56.6662 373.432 55.7095C374.331 54.6594 375.395 53.7618 376.581 53.0513C377.847 52.2796 379.25 51.7617 380.714 51.5266ZM386.442 75.7912C386.595 75.7654 386.753 75.7708 386.904 75.8069C387.056 75.8431 387.199 75.9094 387.324 76.0019C387.45 76.0911 387.556 76.2044 387.637 76.3354C387.718 76.4663 387.772 76.6121 387.796 76.7642L388.418 80.5559C388.443 80.7096 388.438 80.867 388.402 81.0186C388.366 81.1702 388.299 81.3131 388.207 81.4386C388.119 81.5653 388.006 81.6725 387.875 81.7536C387.744 81.8347 387.597 81.888 387.445 81.91L383.733 82.5219C383.581 82.5469 383.425 82.5411 383.276 82.505C383.126 82.4688 382.985 82.4029 382.861 82.3113C382.732 82.2243 382.623 82.1117 382.54 81.9805C382.457 81.8493 382.402 81.7024 382.379 81.5489L381.757 77.7472C381.711 77.4347 381.791 77.1167 381.979 76.8629C382.167 76.6091 382.448 76.4401 382.76 76.3931L386.442 75.7912Z" fill="url(#paint5_linear)"/>
<g opacity="0.2">
<path opacity="0.2" d="M380.714 51.5266C382.041 51.3079 383.392 51.2809 384.726 51.4463C386.009 51.592 387.256 51.9657 388.408 52.5497C389.507 53.1124 390.472 53.9063 391.236 54.8769C392.046 55.9172 392.569 57.1521 392.751 58.4579C392.959 59.4739 392.959 60.5214 392.751 61.5374C392.542 62.4214 392.204 63.2698 391.748 64.0551C391.301 64.8123 390.791 65.5303 390.223 66.2017L388.608 68.1076C388.122 68.6777 387.686 69.2885 387.304 69.9332C386.964 70.5064 386.791 71.1628 386.803 71.829C386.801 72.142 386.71 72.4481 386.542 72.7117C386.465 72.8379 386.362 72.9456 386.238 73.0271C386.115 73.1086 385.976 73.1619 385.83 73.1832L382.55 73.7249C382.233 73.7747 381.909 73.6991 381.647 73.5142C381.518 73.4302 381.411 73.3178 381.332 73.1856C381.254 73.0534 381.207 72.905 381.195 72.7519C381.058 71.7238 381.137 70.6784 381.426 69.6824C381.686 68.7887 382.068 67.9348 382.56 67.1446C383.029 66.3882 383.563 65.6734 384.155 65.0081C384.746 64.346 385.278 63.7241 385.78 63.1223C386.232 62.5874 386.625 62.0056 386.953 61.3869C387.241 60.8497 387.343 60.2327 387.244 59.6315C387.162 59.1031 386.954 58.6024 386.636 58.1725C386.318 57.7427 385.9 57.3966 385.418 57.1639C384.229 56.5832 382.879 56.4207 381.587 56.7025C380.417 56.8749 379.329 57.4037 378.471 58.2169C377.613 59.03 377.027 60.0879 376.792 61.2465C376.728 61.5294 376.612 61.7981 376.451 62.0389C376.256 62.2523 375.987 62.3817 375.699 62.4L372.208 62.9718C371.96 63.0126 371.706 62.9589 371.496 62.8213C371.386 62.7503 371.293 62.6559 371.224 62.545C371.154 62.434 371.11 62.3092 371.094 62.1793C370.973 61.0836 371.121 59.9749 371.526 58.9494C371.961 57.7637 372.607 56.6662 373.432 55.7095C374.331 54.6594 375.395 53.7618 376.581 53.0513C377.847 52.2796 379.25 51.7617 380.714 51.5266ZM386.442 75.7912C386.595 75.7654 386.753 75.7708 386.904 75.8069C387.056 75.8431 387.199 75.9094 387.324 76.0019C387.45 76.0911 387.556 76.2044 387.637 76.3354C387.718 76.4663 387.772 76.6121 387.796 76.7642L388.418 80.5559C388.443 80.7096 388.438 80.867 388.402 81.0186C388.366 81.1702 388.299 81.3131 388.207 81.4386C388.119 81.5653 388.006 81.6725 387.875 81.7536C387.744 81.8347 387.597 81.888 387.445 81.91L383.733 82.5219C383.581 82.5469 383.425 82.5411 383.276 82.505C383.126 82.4688 382.985 82.4029 382.861 82.3113C382.732 82.2243 382.623 82.1117 382.54 81.9805C382.457 81.8493 382.402 81.7024 382.379 81.5489L381.757 77.7472C381.711 77.4347 381.791 77.1167 381.979 76.8629C382.167 76.6091 382.448 76.4401 382.76 76.3931L386.442 75.7912Z" fill="url(#paint6_linear)"/>
</g>
<path d="M414.919 62.2892C415.217 62.5064 415.419 62.8314 415.48 63.1949C415.542 63.5584 415.46 63.9317 415.25 64.2352L412.602 67.9466C412.385 68.2446 412.06 68.4459 411.696 68.5077C411.333 68.5696 410.96 68.487 410.656 68.2776L407.025 65.6997C406.875 65.5949 406.748 65.4609 406.652 65.3057C406.555 65.1506 406.491 64.9775 406.463 64.7969C406.41 64.4454 406.493 64.087 406.694 63.7938L409.342 60.0724C409.557 59.7733 409.882 59.5713 410.245 59.5107C410.598 59.4576 410.958 59.5439 411.248 59.7514L414.919 62.2892ZM430.246 37.1218C431.556 38.0456 432.725 39.1537 433.717 40.4119C434.676 41.6092 435.413 42.968 435.894 44.4243C436.354 45.8161 436.508 47.2908 436.345 48.7476C436.157 50.2988 435.569 51.7747 434.64 53.0307C433.947 54.0464 433.061 54.9156 432.032 55.5886C431.117 56.1565 430.123 56.5858 429.083 56.8625C428.074 57.1318 427.044 57.313 426.003 57.4042L423.054 57.655C422.174 57.7358 421.301 57.8901 420.446 58.1164C419.681 58.3185 418.987 58.7281 418.44 59.3C418.177 59.556 417.852 59.7392 417.497 59.8317C417.325 59.8725 417.145 59.8748 416.972 59.8384C416.799 59.802 416.635 59.7278 416.494 59.621L413.284 57.344C412.978 57.1235 412.769 56.7926 412.702 56.4212C412.664 56.246 412.667 56.0642 412.71 55.8902C412.754 55.7162 412.837 55.5546 412.953 55.4181C413.7 54.4393 414.638 53.6234 415.712 53.0207C416.677 52.4911 417.71 52.0931 418.781 51.8371C419.809 51.5886 420.856 51.4276 421.911 51.3556C422.914 51.2954 423.917 51.2152 424.84 51.1249C425.668 51.0534 426.486 50.8885 427.277 50.6334C427.967 50.4233 428.567 49.9892 428.982 49.3996C429.355 48.8888 429.598 48.2946 429.689 47.6687C429.78 47.0429 429.716 46.4043 429.504 45.8085C428.981 44.3302 427.978 43.0696 426.655 42.2275C424.268 40.5223 421.66 40.4654 418.831 42.057C418.546 42.2392 418.23 42.3684 417.898 42.4382C417.726 42.4504 417.553 42.4283 417.39 42.3732C417.226 42.3181 417.075 42.2311 416.945 42.1172L413.535 39.6897C413.287 39.5208 413.114 39.2617 413.053 38.9675C413.024 38.817 413.028 38.662 413.064 38.5131C413.101 38.3642 413.169 38.2249 413.264 38.1048C414.058 37.0788 415.091 36.2627 416.273 35.7275C417.63 35.0999 419.087 34.7163 420.577 34.594C422.208 34.461 423.851 34.5897 425.442 34.9752C427.17 35.3651 428.803 36.0948 430.246 37.1218Z" fill="url(#paint7_linear)"/>
<g opacity="0.6">
<path opacity="0.6" d="M414.919 62.2892C415.217 62.5064 415.419 62.8314 415.48 63.1949C415.542 63.5584 415.46 63.9317 415.25 64.2352L412.602 67.9466C412.385 68.2446 412.06 68.4459 411.696 68.5077C411.333 68.5696 410.96 68.487 410.656 68.2776L407.025 65.6997C406.875 65.5949 406.748 65.4609 406.652 65.3057C406.555 65.1506 406.491 64.9775 406.463 64.7969C406.41 64.4454 406.493 64.087 406.694 63.7938L409.342 60.0724C409.557 59.7733 409.882 59.5713 410.245 59.5107C410.598 59.4576 410.958 59.5439 411.248 59.7514L414.919 62.2892ZM430.246 37.1218C431.556 38.0456 432.725 39.1537 433.717 40.4119C434.676 41.6092 435.413 42.968 435.894 44.4243C436.354 45.8161 436.508 47.2908 436.345 48.7476C436.157 50.2988 435.569 51.7747 434.64 53.0307C433.947 54.0464 433.061 54.9156 432.032 55.5886C431.117 56.1565 430.123 56.5858 429.083 56.8625C428.074 57.1318 427.044 57.313 426.003 57.4042L423.054 57.655C422.174 57.7358 421.301 57.8901 420.446 58.1164C419.681 58.3185 418.987 58.7281 418.44 59.3C418.177 59.556 417.852 59.7392 417.497 59.8317C417.325 59.8725 417.145 59.8748 416.972 59.8384C416.799 59.802 416.635 59.7278 416.494 59.621L413.284 57.344C412.978 57.1235 412.769 56.7926 412.702 56.4212C412.664 56.246 412.667 56.0642 412.71 55.8902C412.754 55.7162 412.837 55.5546 412.953 55.4181C413.7 54.4393 414.638 53.6234 415.712 53.0207C416.677 52.4911 417.71 52.0931 418.781 51.8371C419.809 51.5886 420.856 51.4276 421.911 51.3556C422.914 51.2954 423.917 51.2152 424.84 51.1249C425.668 51.0534 426.486 50.8885 427.277 50.6334C427.967 50.4233 428.567 49.9892 428.982 49.3996C429.355 48.8888 429.598 48.2946 429.689 47.6687C429.78 47.0429 429.716 46.4043 429.504 45.8085C428.981 44.3302 427.978 43.0696 426.655 42.2275C424.268 40.5223 421.66 40.4654 418.831 42.057C418.546 42.2392 418.23 42.3684 417.898 42.4382C417.726 42.4504 417.553 42.4283 417.39 42.3732C417.226 42.3181 417.075 42.2311 416.945 42.1172L413.535 39.6897C413.287 39.5208 413.114 39.2617 413.053 38.9675C413.024 38.817 413.028 38.662 413.064 38.5131C413.101 38.3642 413.169 38.2249 413.264 38.1048C414.058 37.0788 415.091 36.2627 416.273 35.7275C417.63 35.0999 419.087 34.7163 420.577 34.594C422.208 34.461 423.851 34.5897 425.442 34.9752C427.17 35.3651 428.803 36.0948 430.246 37.1218Z" fill="url(#paint8_linear)"/>
</g>
<path d="M73.3932 203.907L76.0241 192.619L92.1611 194.431L106.969 196.105L106.017 210.016L88.751 206.794L73.3932 203.907Z" fill="url(#paint9_linear)"/>
<path d="M77.3032 190.366C78.5399 190.683 73.9995 205.749 73.9995 205.749C73.9995 205.749 62.2593 212.859 57.9794 221.565C53.6995 230.27 49.4122 223.817 51.7822 213.6C54.1523 203.383 55.9798 195.602 57.6707 188.339C59.3616 181.075 64.4884 187.051 77.3032 190.366Z" fill="#455A64"/>
<path d="M68.2155 212.876C68.0769 213.35 68.0958 213.855 68.2691 214.317C68.4207 214.584 68.6489 214.798 68.924 214.933C69.1991 215.067 69.5084 215.116 69.8115 215.072C70.0459 215.064 70.2763 215.009 70.4884 214.909C70.7006 214.809 70.8899 214.666 71.0447 214.49C71.7271 213.515 72.1275 212.371 72.2017 211.184C72.589 212.583 73.13 213.863 73.9296 214.088C74.445 214.242 74.9604 213.998 75.4545 213.389C75.6774 213.116 75.8377 212.798 75.924 212.457C76.0103 212.116 76.0206 211.76 75.9541 211.414C75.5757 209.153 72.3435 207.054 72.1848 206.947C72.1311 206.924 72.0725 206.917 72.0149 206.925L71.93 206.914L71.8111 206.898L71.6767 207.002C70.198 208.749 69.0275 210.735 68.2155 212.876ZM71.2378 212.216C71.1297 212.842 70.8689 213.431 70.4785 213.932C70.4027 214.027 70.3073 214.104 70.1988 214.159C70.0904 214.213 69.9713 214.243 69.85 214.247C69.2084 214.267 69.1013 214.029 69.0593 213.954C68.6349 213.103 70.1321 210.499 71.607 208.462C71.614 209.722 71.4903 210.981 71.2378 212.216ZM75.1808 212.178C75.1264 212.423 75.0137 212.651 74.8521 212.843C74.7066 213.032 74.4245 213.341 74.2081 213.278C73.5444 213.07 72.8294 210.609 72.5286 208.15C73.4721 208.861 74.99 210.2 75.1972 211.523C75.2245 211.741 75.2015 211.963 75.1299 212.171L75.1808 212.178Z" fill="#F4F4F4"/>
<path opacity="0.2" d="M88.3988 206.713L91.8599 194.357L106.818 196.068L105.949 210.007L88.3988 206.713Z" fill="black"/>
<path d="M272.379 132.486C272.379 132.486 233.492 130.037 173.78 189.996L99.4338 192.044L93.2338 209.504C93.2338 209.504 163.623 221.891 185.962 217.34C208.302 212.789 256.428 177.676 256.428 177.676L296.236 153.489L272.379 132.486Z" fill="#407BFF"/>
<path opacity="0.6" d="M93.2337 209.505C93.2337 209.505 163.623 221.892 185.962 217.341C208.301 212.791 256.427 177.677 256.427 177.677L296.236 153.49L272.372 132.538C272.372 132.538 242.272 130.648 194.374 171.028C189.813 174.875 185.084 179.08 180.211 183.733C178.104 185.762 175.958 187.867 173.773 190.048L99.427 192.096L93.2337 209.505Z" fill="url(#paint10_linear)"/>
<path opacity="0.2" d="M177.244 187.5C197.683 191.126 225.736 190.153 259.996 174.443L216.123 161.746L200.229 163.856C192.78 170.949 185.099 178.783 177.244 187.5Z" fill="black"/>
<path d="M101.353 191.103L94.6012 211.464L90.5809 210.507L97.2169 191.427L101.353 191.103Z" fill="#F4F4F4"/>
<path d="M39.3733 120.909L46.4134 111.7L60.3731 120.004L73.1767 127.638L66.5827 139.913L52.1781 129.857L39.3733 120.909Z" fill="url(#paint11_linear)"/>
<path d="M48.5125 110.176C49.4981 110.962 39.1804 122.786 39.1804 122.786C39.1804 122.786 25.5074 124.457 18.0574 130.589C10.6073 136.72 9.32175 129.103 15.6942 120.774C22.0667 112.445 26.9369 106.098 31.4584 100.172C35.98 94.2462 38.1811 101.862 48.5125 110.176Z" fill="#455A64"/>
<path d="M30.9682 126.95C30.6376 127.316 30.4423 127.785 30.4149 128.278C30.4471 128.583 30.5696 128.871 30.7666 129.106C30.9636 129.341 31.2262 129.512 31.5208 129.597C31.7363 129.684 31.9672 129.726 32.1995 129.721C32.4318 129.716 32.6606 129.663 32.872 129.566C33.9051 128.958 34.7497 128.075 35.3121 127.016C35.1258 128.443 35.048 129.833 35.6866 130.366C36.0882 130.729 36.6597 130.718 37.4137 130.367C37.7228 130.209 37.9958 129.989 38.2152 129.72C38.4347 129.451 38.5958 129.139 38.6884 128.805C39.2722 126.582 37.1935 123.32 37.0776 123.15L36.9551 123.03L36.8362 123.015L36.7004 122.997L36.5475 122.977C34.4688 123.963 32.5801 125.308 30.9682 126.95ZM33.9475 127.546C33.5899 128.073 33.1129 128.509 32.5554 128.816C32.4444 128.868 32.324 128.895 32.2018 128.897C32.0795 128.899 31.9583 128.875 31.8458 128.827C31.2566 128.578 31.2537 128.335 31.2478 128.248C31.217 127.293 33.64 125.536 35.8244 124.283C35.3075 125.432 34.6728 126.525 33.9305 127.544L33.9475 127.546ZM37.5564 129.141C37.4047 129.345 37.2054 129.509 36.976 129.618C36.7714 129.73 36.3881 129.887 36.2168 129.744C35.6905 129.277 36.089 126.754 36.7968 124.375C37.5846 125.62 37.9504 127.086 37.84 128.556C37.7837 128.767 37.6874 128.966 37.5564 129.141Z" fill="#F4F4F4"/>
<path opacity="0.2" d="M51.8971 129.631L60.1239 119.799L73.0523 127.536L66.5195 139.871L51.8971 129.631Z" fill="black"/>
<path d="M324.464 133.859C324.464 133.859 322.524 164.994 324.446 166.939C326.369 168.883 359.279 199.521 359.279 199.521C359.279 199.521 371.548 203.179 375.275 205.723C379.002 208.266 374 220.248 371.76 221.667C369.519 223.085 353.202 212.071 353.202 212.071L351.38 207.771C351.38 207.771 314.977 180.066 311.571 177.581C308.165 175.097 304.272 138.759 304.272 138.759L324.464 133.859Z" fill="url(#paint12_linear)"/>
<path d="M320.825 116.221C332.187 121.8 326.45 150.797 326.45 150.797L304.182 154.804L300.679 145.117L320.825 116.221Z" fill="url(#paint13_linear)"/>
<path d="M250.09 137.839C250.09 137.839 215.641 119.514 136.564 149.602L67.9694 120.822L55.1366 134.184C55.1366 134.184 114.161 174.488 136.402 179.552C158.644 184.616 216.935 172.452 216.935 172.452L263.188 166.771L250.09 137.839Z" fill="#407BFF"/>
<path opacity="0.6" d="M250.09 137.839C250.09 137.839 215.641 119.514 136.564 149.602L67.9694 120.822L55.1366 134.184C55.1366 134.184 114.161 174.488 136.402 179.552C158.644 184.616 216.935 172.452 216.935 172.452L263.188 166.771L250.09 137.839Z" fill="url(#paint14_linear)"/>
<path d="M71.3647 120.349L67.1192 119.795L52.9512 134.123L56.8729 137.159L71.3647 120.349Z" fill="#F4F4F4"/>
<path d="M317.384 53.669C317.384 53.669 299.863 44.0704 284.775 54.5973C275.276 61.2044 252.932 77.3003 243.354 69.5683C233.776 61.8364 217.766 53.8871 208.971 60.7935C208.971 60.7935 221.836 61.6086 227.56 67.5066C227.56 67.5066 215.913 62.5292 211.105 65.3584C206.296 68.1876 199.769 65.7972 199.769 65.7972C199.769 65.7972 191.813 83.0799 221.216 89.1134C221.216 89.1134 205.531 90.1942 199.198 83.2662C199.198 83.2662 195.502 95.8334 229.589 104.362C263.675 112.891 294.589 110.929 303.017 101.538C311.446 92.1463 317.384 53.669 317.384 53.669Z" fill="#313131"/>
<path d="M215.983 129.204C215.983 129.204 218.165 164.749 243.897 173.501C247.954 174.938 252.245 175.598 256.545 175.446C264.85 174.96 272.623 171.194 278.155 164.975C279.81 163.251 281.269 161.349 282.505 159.303L246.697 134.855L243.749 132.828C238.912 131.155 233.955 129.849 228.921 128.922C224.057 128.08 219.066 127.809 215.983 129.204Z" fill="url(#paint15_linear)"/>
<path opacity="0.2" d="M236.563 154.671C243.106 163.822 249.422 170.747 256.546 175.445C264.851 174.96 272.624 171.194 278.156 164.975C268.228 154.367 257.726 144.312 246.698 134.855L243.75 132.829C238.912 131.155 233.956 129.849 228.922 128.923C226.576 133.663 227.448 141.935 236.563 154.671Z" fill="black"/>
<path d="M320.825 116.22C298.671 105.472 274.081 100.742 249.521 102.504C249.521 102.504 233.729 122.393 227.498 138.899C227.498 138.899 243.957 171.589 271.974 174.347C299.992 177.106 320.825 116.22 320.825 116.22Z" fill="url(#paint16_linear)"/>
<path d="M327.858 84.1771C327.858 84.1771 334.862 47.0659 300.99 51.8395C258.415 57.793 276.357 110.346 297.438 106.443C318.518 102.541 327.858 84.1771 327.858 84.1771Z" fill="#313131"/>
<path d="M270.979 107.087C270.979 107.087 275.711 128.791 288.826 129.138C292.286 129.215 295.704 128.376 298.734 126.704C301.764 125.032 304.299 122.588 306.08 119.62C306.447 119.05 306.778 118.459 307.071 117.848C307.071 117.848 300.771 115.038 305.682 109.836L291.2 95.2076C290.991 96.941 290.68 98.6607 290.269 100.358C289.496 103.368 288.235 106.677 286.22 107.296C282.336 108.466 270.979 107.087 270.979 107.087Z" fill="url(#paint17_linear)"/>
<path opacity="0.2" d="M290.201 100.349C290.548 107.878 293.127 119.743 306.012 119.61C306.38 119.041 306.711 118.449 307.004 117.839C307.004 117.839 300.703 115.028 305.614 109.827L291.133 95.1984C290.923 96.9319 290.612 98.6515 290.201 100.349Z" fill="black"/>
<path d="M308.801 62.2623C323.38 63.042 327.665 71.1027 327.923 86.1911C328.258 105.057 323.385 118.179 305.398 113.204C280.917 106.379 284.606 60.9186 308.801 62.2623Z" fill="url(#paint18_linear)"/>
<path d="M318.549 84.8284C319.601 87.0699 320.921 89.1749 322.481 91.0973C322.021 91.6776 321.41 92.1204 320.715 92.3772C320.021 92.634 319.269 92.695 318.543 92.5536L318.549 84.8284Z" fill="#D4827D"/>
<path d="M309.705 83.121C309.669 84.3262 308.992 85.2749 308.183 85.2557C307.373 85.2365 306.761 84.2404 306.746 83.0286C306.732 81.8168 307.459 80.8747 308.269 80.894C309.078 80.9132 309.737 81.9499 309.705 83.121Z" fill="#263238"/>
<path d="M307.979 80.9943L310.608 80.0412C310.608 80.0412 309.289 82.2024 307.979 80.9943Z" fill="#263238"/>
<path d="M324.684 83.3483C324.65 84.5364 323.971 85.5022 323.164 85.466C322.357 85.4297 321.742 84.4507 321.726 83.2559C321.709 82.0611 322.439 81.102 323.248 81.1212C324.057 81.1405 324.651 82.1513 324.684 83.3483Z" fill="#263238"/>
<path d="M322.895 81.1786L325.522 80.2424C325.522 80.2424 324.17 82.3992 322.895 81.1786Z" fill="#263238"/>
<path d="M310.084 73.0767C308.938 72.8733 307.761 72.9364 306.643 73.261C305.526 73.5857 304.498 74.1632 303.639 74.9489" stroke="#263238" stroke-width="0.72" stroke-linecap="round" stroke-linejoin="round"/>
<path d="M320.712 73.0293C321.72 72.8309 322.76 72.8621 323.755 73.1206C324.75 73.3791 325.674 73.8583 326.458 74.5227" stroke="#263238" stroke-width="0.72" stroke-linecap="round" stroke-linejoin="round"/>
<path d="M291.531 85.9341C291.531 85.9341 298.99 74.3076 298.46 65.0086C298.46 65.0086 327.973 54.7227 327.827 84.1561C327.827 84.1561 332.055 58.2459 307.02 56.3259C281.985 54.4059 277.236 90.6533 289.605 102.276C289.637 102.297 286.953 93.2182 291.531 85.9341Z" fill="#313131"/>
<path d="M293.786 89.1667C293.763 88.3255 293.575 87.4971 293.232 86.7289C292.888 85.9608 292.397 85.2681 291.786 84.6904C291.174 84.1128 290.455 83.6617 289.669 83.3629C288.883 83.0642 288.046 82.9237 287.205 82.9495C282.664 83.2036 280.015 92.3815 291.133 95.1983C292.739 95.5981 293.733 94.0686 293.786 89.1667Z" fill="#EEC1BB"/>
<path d="M319.552 98.4584C318.72 100.038 318.009 101.679 317.426 103.366L316.475 103.242C312.277 102.452 310.6 100.747 310.006 98.9408C309.738 98.1014 309.67 97.2103 309.81 96.3399C309.872 95.845 310.005 95.3616 310.205 94.9049C312.582 96.5421 315.282 97.6491 318.124 98.151C318.993 98.3683 319.552 98.4584 319.552 98.4584Z" fill="#263238"/>
<path d="M318.124 98.151L317.453 99.5844C313.51 98.8277 310.782 97.763 309.81 96.3398C309.872 95.8449 310.005 95.3615 310.205 94.9049C312.582 96.5421 315.282 97.6491 318.124 98.151Z" fill="white"/>
<path d="M316.481 103.191C312.283 102.401 310.606 100.696 310.013 98.8902C311.606 99.2203 313.129 99.8285 314.511 100.687C315.416 101.292 316.106 102.169 316.481 103.191Z" fill="#DE5753"/>
<path d="M308.458 63.3067C308.458 63.3067 301.308 86.9861 286.218 85.8805C271.129 84.7749 296.058 55.6212 296.058 55.6212C296.058 55.6212 321.197 47.6163 332.667 61.3681C344.136 75.1199 327.858 84.1779 327.858 84.1779C327.858 84.1779 329.796 65.6256 308.458 63.3067Z" fill="#313131"/>
<path d="M229.433 105.154C229.433 105.154 195.885 108.379 189.754 109.169C183.623 109.959 139.216 122.535 139.216 122.535C139.216 122.535 124.932 114.863 122.998 116.322C121.063 117.78 116.198 125.805 116.299 127.944C116.4 130.083 137.027 136.924 138.154 136.362C139.819 135.101 141.381 133.71 142.825 132.202C142.825 132.202 186.444 123.014 194.519 122.288C202.593 121.562 229.576 122.716 229.576 122.716L229.433 105.154Z" fill="url(#paint19_linear)"/>
<path d="M249.521 102.505C249.521 102.505 246.753 123.714 233.14 129.421L210.868 124.457L207.361 104.485C207.361 104.485 229.208 100.268 249.521 102.505Z" fill="url(#paint20_linear)"/>
<path d="M447.503 216.686C447.504 211.838 449.353 207.172 452.675 203.639C455.996 200.106 460.539 197.971 465.379 197.671C470.219 197.37 474.992 198.925 478.725 202.019C482.458 205.113 484.872 209.514 485.473 214.326C485.943 218.09 485.278 221.909 483.564 225.293C481.63 229.118 478.463 232.18 474.575 233.983C470.686 235.786 466.303 236.225 462.134 235.23C457.965 234.235 454.253 231.863 451.598 228.498C448.943 225.134 447.5 220.972 447.503 216.686Z" fill="url(#paint21_linear)"/>
<path d="M141.916 513.133C141.917 508.665 143.621 504.365 146.682 501.109C149.743 497.853 153.93 495.887 158.39 495.609C162.85 495.332 167.249 496.765 170.689 499.617C174.13 502.468 176.354 506.524 176.908 510.958C177.341 514.427 176.729 517.947 175.149 521.066C173.367 524.591 170.448 527.412 166.864 529.073C163.281 530.735 159.242 531.14 155.399 530.223C151.557 529.306 148.136 527.12 145.69 524.019C143.243 520.918 141.914 517.083 141.916 513.133Z" fill="url(#paint22_linear)"/>
<path d="M40.9225 421.608C40.9242 413.236 44.1177 405.179 49.8526 399.078C55.5876 392.978 63.4327 389.292 71.7902 388.773C80.1476 388.253 88.3889 390.939 94.8355 396.282C101.282 401.625 105.449 409.224 106.488 417.532C107.299 424.032 106.152 430.627 103.192 436.471C99.8524 443.076 94.3837 448.362 87.6689 451.475C80.9542 454.588 73.3857 455.347 66.1864 453.629C58.987 451.911 52.5774 447.815 47.9932 442.005C43.409 436.195 40.9179 429.009 40.9225 421.608Z" fill="url(#paint23_linear)"/>
<defs>
<filter id="filter0_f" x="57.1401" y="131.988" width="450.377" height="450.377" filterUnits="userSpaceOnUse" color-interpolation-filters="sRGB">
<feFlood flood-opacity="0" result="BackgroundImageFix"/>
<feBlend mode="normal" in="SourceGraphic" in2="BackgroundImageFix" result="shape"/>
<feGaussianBlur stdDeviation="35" result="effect1_foregroundBlur"/>
</filter>
<linearGradient id="paint0_linear" x1="349.51" y1="468.697" x2="202.383" y2="201.988" gradientUnits="userSpaceOnUse">
<stop stop-color="#8177F7"/>
<stop offset="1" stop-color="#799FF8"/>
</linearGradient>
<linearGradient id="paint1_linear" x1="335.244" y1="445.012" x2="219.361" y2="234.94" gradientUnits="userSpaceOnUse">
<stop stop-color="#8177F7"/>
<stop offset="1" stop-color="#799FF8"/>
</linearGradient>
<linearGradient id="paint2_linear" x1="328.767" y1="467.646" x2="310.186" y2="378.258" gradientUnits="userSpaceOnUse">
<stop stop-color="#8177F7"/>
<stop offset="1" stop-color="#799FF8"/>
</linearGradient>
<linearGradient id="paint3_linear" x1="335.902" y1="326.93" x2="307.93" y2="213.832" gradientUnits="userSpaceOnUse">
<stop stop-color="#8177F7"/>
<stop offset="1" stop-color="#799FF8"/>
</linearGradient>
<linearGradient id="paint4_linear" x1="355.19" y1="6.30856" x2="379.598" y2="37.4104" gradientUnits="userSpaceOnUse">
<stop stop-color="#8177F7"/>
<stop offset="1" stop-color="#799FF8"/>
</linearGradient>
<linearGradient id="paint5_linear" x1="377.25" y1="55.7289" x2="394.246" y2="77.311" gradientUnits="userSpaceOnUse">
<stop stop-color="#8177F7"/>
<stop offset="1" stop-color="#799FF8"/>
</linearGradient>
<linearGradient id="paint6_linear" x1="377.25" y1="55.7289" x2="394.246" y2="77.311" gradientUnits="userSpaceOnUse">
<stop stop-color="#8177F7"/>
<stop offset="1" stop-color="#799FF8"/>
</linearGradient>
<linearGradient id="paint7_linear" x1="414.943" y1="39.3246" x2="432.071" y2="66.697" gradientUnits="userSpaceOnUse">
<stop stop-color="#8177F7"/>
<stop offset="1" stop-color="#799FF8"/>
</linearGradient>
<linearGradient id="paint8_linear" x1="414.943" y1="39.3246" x2="432.071" y2="66.697" gradientUnits="userSpaceOnUse">
<stop stop-color="#8177F7"/>
<stop offset="1" stop-color="#799FF8"/>
</linearGradient>
<linearGradient id="paint9_linear" x1="61.199" y1="202.48" x2="74.5786" y2="183.997" gradientUnits="userSpaceOnUse">
<stop stop-color="#F7A491"/>
<stop offset="1" stop-color="#FFE8E5"/>
</linearGradient>
<linearGradient id="paint10_linear" x1="196.27" y1="178.313" x2="189.366" y2="226.148" gradientUnits="userSpaceOnUse">
<stop stop-color="#262859"/>
<stop offset="1" stop-color="#262859" stop-opacity="0"/>
</linearGradient>
<linearGradient id="paint11_linear" x1="25.1518" y1="131.434" x2="51.7894" y2="109.89" gradientUnits="userSpaceOnUse">
<stop stop-color="#F7A491"/>
<stop offset="1" stop-color="#FFE8E5"/>
</linearGradient>
<linearGradient id="paint12_linear" x1="271.461" y1="200.539" x2="334.101" y2="161.362" gradientUnits="userSpaceOnUse">
<stop stop-color="#F7A491"/>
<stop offset="1" stop-color="#FFE8E5"/>
</linearGradient>
<linearGradient id="paint13_linear" x1="322.748" y1="122.206" x2="297.186" y2="145.537" gradientUnits="userSpaceOnUse">
<stop stop-color="#EF8197"/>
<stop offset="0.942708" stop-color="#F7C58F"/>
</linearGradient>
<linearGradient id="paint14_linear" x1="153.859" y1="140.834" x2="158.79" y2="179.299" gradientUnits="userSpaceOnUse">
<stop stop-color="#262859"/>
<stop offset="1" stop-color="#262859" stop-opacity="0"/>
</linearGradient>
<linearGradient id="paint15_linear" x1="265.087" y1="139.704" x2="244.893" y2="180.705" gradientUnits="userSpaceOnUse">
<stop stop-color="#EF8197"/>
<stop offset="0.942708" stop-color="#F7C58F"/>
</linearGradient>
<linearGradient id="paint16_linear" x1="295.267" y1="115.715" x2="257.516" y2="178.288" gradientUnits="userSpaceOnUse">
<stop stop-color="#EF8197"/>
<stop offset="0.942708" stop-color="#F7C58F"/>
</linearGradient>
<linearGradient id="paint17_linear" x1="303.886" y1="96.1841" x2="278.138" y2="118.954" gradientUnits="userSpaceOnUse">
<stop stop-color="#F7A491"/>
<stop offset="1" stop-color="#FFE8E5"/>
</linearGradient>
<linearGradient id="paint18_linear" x1="271.512" y1="102.882" x2="316.768" y2="83.1308" gradientUnits="userSpaceOnUse">
<stop stop-color="#F7A491"/>
<stop offset="1" stop-color="#FFE8E5"/>
</linearGradient>
<linearGradient id="paint19_linear" x1="231.924" y1="112.372" x2="219.974" y2="133.177" gradientUnits="userSpaceOnUse">
<stop stop-color="#F7A491"/>
<stop offset="1" stop-color="#FFE8E5"/>
</linearGradient>
<linearGradient id="paint20_linear" x1="237.315" y1="104.999" x2="222.984" y2="131.537" gradientUnits="userSpaceOnUse">
<stop stop-color="#EF8197"/>
<stop offset="0.942708" stop-color="#F7C58F"/>
</linearGradient>
<linearGradient id="paint21_linear" x1="474.812" y1="230.388" x2="456.744" y2="197.634" gradientUnits="userSpaceOnUse">
<stop stop-color="#5FA8ED"/>
<stop offset="1" stop-color="#7ED5B7"/>
</linearGradient>
<linearGradient id="paint22_linear" x1="153.846" y1="547.468" x2="153.846" y2="495.575" gradientUnits="userSpaceOnUse">
<stop offset="0.169841" stop-color="#EA5AB1"/>
<stop offset="0.942708" stop-color="#F9E1C5"/>
</linearGradient>
<linearGradient id="paint23_linear" x1="88.0785" y1="445.268" x2="56.8787" y2="388.709" gradientUnits="userSpaceOnUse">
<stop stop-color="#73BCF9"/>
<stop offset="1" stop-color="#7A96F8"/>
</linearGradient>
</defs>
</svg>
