<svg width="290" height="290" viewBox="0 0 290 290" fill="none" xmlns="http://www.w3.org/2000/svg">
<g filter="url(#filter0_d)">
<path d="M196.779 151.779C196.779 123.386 173.925 100.33 145.609 100.003C117.175 99.6758 93.6374 122.58 93.2263 151.013C93.0068 166.177 99.3074 179.873 109.504 189.477C113.702 193.43 116.012 198.989 116.012 204.755V219.07H173.989V204.667C173.989 198.948 176.284 193.435 180.452 189.519C190.502 180.074 196.779 166.66 196.779 151.779Z" fill="url(#paint0_linear)"/>
<path d="M167.215 174.777C165.426 172.988 162.956 172.068 160.43 172.254C157.907 172.44 155.595 173.712 154.087 175.744C153.017 177.187 152.427 178.971 152.427 180.767V181.255L148.12 176.947L154.951 170.117C160.437 164.63 160.437 155.702 154.951 150.216C149.464 144.729 140.536 144.729 135.049 150.216C129.563 155.702 129.563 164.63 135.049 170.117L141.88 176.947L137.573 181.255V180.767C137.573 178.971 136.983 177.187 135.913 175.744C134.405 173.712 132.094 172.44 129.57 172.254C127.049 172.069 124.574 172.988 122.785 174.777C120.948 176.614 119.937 179.056 119.937 181.653C119.937 184.251 120.948 186.693 122.785 188.529C124.622 190.366 127.064 191.378 129.661 191.378C130.877 191.378 132.059 191.156 133.161 190.732V208.174C133.161 209.392 134.149 210.38 135.367 210.38C136.585 210.38 137.573 209.392 137.573 208.174V187.494L145 180.067L152.427 187.494V208.174C152.427 209.392 153.415 210.38 154.633 210.38C155.852 210.38 156.839 209.392 156.839 208.174V190.732C157.941 191.156 159.123 191.378 160.339 191.378C162.936 191.378 165.378 190.367 167.215 188.529C169.051 186.693 170.063 184.251 170.063 181.653C170.063 179.056 169.051 176.614 167.215 174.777ZM133.161 185.651C132.192 186.502 130.962 186.966 129.661 186.966C128.242 186.966 126.908 186.413 125.905 185.41C124.902 184.406 124.349 183.072 124.349 181.653C124.349 180.234 124.901 178.9 125.905 177.897C126.711 177.09 127.799 176.643 128.931 176.643C129.035 176.643 129.141 176.647 129.246 176.654C130.489 176.746 131.627 177.372 132.37 178.373C132.88 179.061 133.161 179.911 133.161 180.768V185.651ZM138.169 153.335C139.994 151.51 142.42 150.506 145 150.506C147.58 150.506 150.006 151.511 151.831 153.335C155.598 157.102 155.598 163.23 151.831 166.997L145 173.828L138.169 166.997C134.403 163.23 134.403 157.102 138.169 153.335ZM164.095 185.41C163.092 186.414 161.758 186.966 160.339 186.966C159.038 186.966 157.808 186.502 156.839 185.651V180.768C156.839 179.911 157.12 179.061 157.631 178.373C158.373 177.372 159.512 176.746 160.754 176.654C161.993 176.562 163.214 177.016 164.095 177.897C165.099 178.9 165.651 180.234 165.651 181.654C165.651 183.073 165.099 184.407 164.095 185.41Z" fill="url(#paint1_linear)"/>
<path d="M145 250C128.959 250 115.956 236.997 115.956 220.956V219.07H174.045V220.956C174.044 236.997 161.041 250 145 250Z" fill="url(#paint2_linear)"/>
<path d="M171.393 201.964H118.607C113.884 201.964 110.054 205.793 110.054 210.517C110.054 212.922 111.047 215.095 112.644 216.649C115.007 218.947 116.172 222.253 115.53 225.486C115.395 226.169 115.314 226.885 115.314 227.623C115.314 232.347 119.144 236.177 123.867 236.177H166.133C170.857 236.177 174.686 232.347 174.686 227.623C174.686 226.885 174.606 226.169 174.47 225.486C173.828 222.253 174.994 218.947 177.356 216.649C178.954 215.095 179.946 212.922 179.946 210.517C179.946 205.793 176.117 201.964 171.393 201.964Z" fill="url(#paint3_linear)"/>
<path d="M217.054 156.841H203.189C201.562 156.841 200.243 155.522 200.243 153.896C200.243 152.269 201.562 150.95 203.189 150.95H217.054C218.681 150.95 220 152.269 220 153.896C220 155.522 218.681 156.841 217.054 156.841Z" fill="url(#paint4_linear)"/>
<path d="M86.8115 156.841H72.9456C71.3188 156.841 70 155.522 70 153.896C70 152.269 71.3188 150.95 72.9456 150.95H86.8115C88.4382 150.95 89.757 152.269 89.757 153.896C89.757 155.522 88.4382 156.841 86.8115 156.841Z" fill="url(#paint5_linear)"/>
<path d="M195.95 207.792C195.196 207.792 194.442 207.504 193.867 206.929L184.062 197.124C182.912 195.974 182.912 194.109 184.062 192.959C185.213 191.809 187.077 191.809 188.228 192.959L198.033 202.763C199.183 203.914 199.183 205.779 198.033 206.929C197.457 207.504 196.704 207.792 195.95 207.792Z" fill="url(#paint6_linear)"/>
<path d="M103.854 115.696C103.1 115.696 102.347 115.408 101.772 114.833L91.967 105.028C90.8167 103.878 90.8167 102.013 91.967 100.863C93.1173 99.7124 94.9823 99.7124 96.1326 100.863L105.937 110.667C107.088 111.817 107.088 113.682 105.937 114.833C105.362 115.408 104.608 115.696 103.854 115.696Z" fill="url(#paint7_linear)"/>
<path d="M94.0497 207.792C93.2958 207.792 92.542 207.504 91.9667 206.929C90.8164 205.779 90.8164 203.914 91.9667 202.763L101.771 192.959C102.922 191.809 104.787 191.809 105.937 192.959C107.087 194.109 107.087 195.974 105.937 197.124L96.1323 206.929C95.5573 207.504 94.8035 207.792 94.0497 207.792Z" fill="url(#paint8_linear)"/>
<path d="M186.145 115.696C185.392 115.696 184.638 115.408 184.062 114.833C182.912 113.683 182.912 111.818 184.062 110.668L193.867 100.863C195.018 99.7128 196.882 99.7131 198.033 100.863C199.183 102.013 199.183 103.878 198.033 105.029L188.228 114.833C187.653 115.408 186.899 115.696 186.145 115.696Z" fill="url(#paint9_linear)"/>
</g>
<defs>
<filter id="filter0_d" x="0" y="0" width="290" height="290" filterUnits="userSpaceOnUse" color-interpolation-filters="sRGB">
<feFlood flood-opacity="0" result="BackgroundImageFix"/>
<feColorMatrix in="SourceAlpha" type="matrix" values="0 0 0 0 0 0 0 0 0 0 0 0 0 0 0 0 0 0 127 0"/>
<feOffset dy="-30"/>
<feGaussianBlur stdDeviation="35"/>
<feColorMatrix type="matrix" values="0 0 0 0 0.509804 0 0 0 0 0.662745 0 0 0 0 0.976471 0 0 0 0.45 0"/>
<feBlend mode="normal" in2="BackgroundImageFix" result="effect1_dropShadow"/>
<feBlend mode="normal" in="SourceGraphic" in2="effect1_dropShadow" result="shape"/>
</filter>
<linearGradient id="paint0_linear" x1="126.5" y1="84.4999" x2="153" y2="143.5" gradientUnits="userSpaceOnUse">
<stop offset="0.0625" stop-color="#FFC19E"/>
<stop offset="1" stop-color="white"/>
</linearGradient>
<linearGradient id="paint1_linear" x1="134.15" y1="155.144" x2="168.116" y2="203.161" gradientUnits="userSpaceOnUse">
<stop stop-color="#8177F7"/>
<stop offset="1" stop-color="#799FF8"/>
</linearGradient>
<linearGradient id="paint2_linear" x1="132.427" y1="223.422" x2="141.8" y2="255.335" gradientUnits="userSpaceOnUse">
<stop stop-color="#8177F7"/>
<stop offset="1" stop-color="#799FF8"/>
</linearGradient>
<linearGradient id="paint3_linear" x1="129.872" y1="206.777" x2="139.523" y2="242.517" gradientUnits="userSpaceOnUse">
<stop stop-color="#EB4BAC"/>
<stop offset="1" stop-color="#FCE1C2"/>
</linearGradient>
<linearGradient id="paint4_linear" x1="205.845" y1="151.779" x2="206.903" y2="158.208" gradientUnits="userSpaceOnUse">
<stop stop-color="#EB4BAC"/>
<stop offset="1" stop-color="#FCE1C2"/>
</linearGradient>
<linearGradient id="paint5_linear" x1="75.6021" y1="151.779" x2="76.6596" y2="158.208" gradientUnits="userSpaceOnUse">
<stop stop-color="#EB4BAC"/>
<stop offset="1" stop-color="#FCE1C2"/>
</linearGradient>
<linearGradient id="paint6_linear" x1="187.65" y1="194.304" x2="195.09" y2="207.792" gradientUnits="userSpaceOnUse">
<stop stop-color="#EB4BAC"/>
<stop offset="1" stop-color="#FCE1C2"/>
</linearGradient>
<linearGradient id="paint7_linear" x1="95.5548" y1="102.208" x2="102.995" y2="115.696" gradientUnits="userSpaceOnUse">
<stop stop-color="#EB4BAC"/>
<stop offset="1" stop-color="#FCE1C2"/>
</linearGradient>
<linearGradient id="paint8_linear" x1="95.5545" y1="194.304" x2="102.994" y2="207.792" gradientUnits="userSpaceOnUse">
<stop stop-color="#EB4BAC"/>
<stop offset="1" stop-color="#FCE1C2"/>
</linearGradient>
<linearGradient id="paint9_linear" x1="187.65" y1="102.209" x2="195.09" y2="115.696" gradientUnits="userSpaceOnUse">
<stop stop-color="#EB4BAC"/>
<stop offset="1" stop-color="#FCE1C2"/>
</linearGradient>
</defs>
</svg>
