<svg width="389" height="414" viewBox="0 0 389 414" fill="none" xmlns="http://www.w3.org/2000/svg">
<path d="M210.443 63.2334L211.492 58.3187C211.654 57.554 211.993 56.8381 212.483 56.2288C212.972 55.6194 213.598 55.1338 214.31 54.811C215.021 54.4883 215.799 54.3376 216.58 54.371C217.361 54.4044 218.123 54.621 218.804 55.0033L218.837 55.022C222.656 57.2097 224.646 96.7472 224.646 96.7472C224.646 96.7472 229.864 105.742 229.529 107.245C229.195 108.748 221.642 112.086 220.925 110.468C220.208 108.85 214.995 103.784 215.203 101.185C215.411 98.5868 218.419 96.4524 218.419 96.4524C218.419 96.4524 212.138 69.8364 210.443 63.2334Z" fill="url(#paint0_linear)"/>
<path opacity="0.1" d="M210.443 63.2334L211.492 58.3187C211.654 57.554 211.993 56.8381 212.483 56.2288C212.972 55.6194 213.598 55.1338 214.31 54.811C215.021 54.4883 215.799 54.3376 216.58 54.371C217.361 54.4044 218.123 54.621 218.804 55.0033L218.837 55.022C222.656 57.2097 224.646 96.7472 224.646 96.7472C224.646 96.7472 229.864 105.742 229.529 107.245C229.195 108.748 221.642 112.086 220.925 110.468C220.208 108.85 214.995 103.784 215.203 101.185C215.411 98.5868 218.419 96.4524 218.419 96.4524C218.419 96.4524 212.138 69.8364 210.443 63.2334Z" fill="url(#paint1_linear)"/>
<path d="M207.017 85.412L214.092 76.4437C214.092 76.4437 217.086 67.8608 209.524 64.9886L203.371 65.7852L207.017 85.412Z" fill="url(#paint2_linear)"/>
<path opacity="0.5" d="M207.017 85.412L214.092 76.4437C214.092 76.4437 217.086 67.8608 209.524 64.9886L203.371 65.7852L207.017 85.412Z" fill="url(#paint3_linear)"/>
<path d="M58.7002 167.938L60.0158 176.202L79.2695 173.839L77.9528 165.564L58.7002 167.938Z" fill="url(#paint4_linear)"/>
<path d="M60.479 176.665L64.8099 167.468C64.8801 167.317 64.8969 167.146 64.8577 166.985C64.8184 166.823 64.7254 166.679 64.5938 166.577L58.5541 161.91C58.2927 161.713 57.9641 161.627 57.6399 161.672C57.3157 161.717 57.0224 161.888 56.824 162.148C56.7692 162.221 56.7223 162.299 56.6843 162.382C55.3314 165.381 54.4943 167.635 52.7345 171.372C51.6508 173.673 48.1399 180.505 46.6425 183.686C45.1451 186.867 48.0922 188.758 48.9923 187.593C53.0114 182.355 56.8424 178.793 59.3981 177.714C59.8797 177.516 60.2667 177.14 60.479 176.665Z" fill="#484D58"/>
<path d="M57.9705 178.544C57.6874 179.039 57.582 179.616 57.6718 180.18C57.7208 180.374 57.8188 180.552 57.9563 180.697C58.0938 180.842 58.2662 180.95 58.4572 181.009C58.5607 181.061 58.6771 181.082 58.7923 181.069C58.9075 181.056 59.0165 181.01 59.1059 180.937C59.9337 180.303 59.5834 177.149 59.5362 176.797C59.535 176.759 59.5215 176.722 59.4977 176.692C59.474 176.662 59.4412 176.64 59.4042 176.63C59.3661 176.618 59.3253 176.617 59.2867 176.627C59.2481 176.638 59.2134 176.659 59.1868 176.689C58.7141 177.261 58.3062 177.883 57.9705 178.544ZM59.0105 180.41C58.9792 180.493 58.9245 180.566 58.8529 180.619C58.8311 180.667 58.7317 180.692 58.5867 180.635C58.4606 180.594 58.3464 180.523 58.2538 180.428C58.1612 180.333 58.093 180.217 58.0551 180.089C58.0697 179.059 58.4756 178.072 59.1904 177.329C59.3257 178.358 59.263 179.403 59.0055 180.409L59.0105 180.41Z" fill="#407BFF"/>
<path d="M59.1558 176.738L59.1152 176.824C59.1719 177.804 60.1262 180.101 60.998 180.323C61.144 180.36 61.298 180.344 61.4337 180.279C61.5694 180.214 61.6784 180.104 61.742 179.968C61.824 179.841 61.8778 179.697 61.8998 179.547C61.9219 179.397 61.9116 179.244 61.8697 179.098C61.5693 177.886 59.4789 176.678 59.3776 176.619C59.3455 176.603 59.3099 176.596 59.2742 176.597C59.2384 176.599 59.2036 176.609 59.173 176.628C59.1562 176.662 59.1502 176.7 59.1558 176.738ZM61.512 179.706L61.4711 179.793C61.3626 180.024 61.2201 179.98 61.1658 179.968C60.6291 179.832 59.8218 178.275 59.601 177.218C60.4396 177.675 61.119 178.376 61.5483 179.229C61.5925 179.387 61.5779 179.555 61.5074 179.703L61.512 179.706Z" fill="#407BFF"/>
<path opacity="0.2" d="M77.9429 165.566L79.2596 173.84L69.3303 175.054L68.0136 166.78L77.9429 165.566Z" fill="black"/>
<path d="M69.2158 165.072L73.2098 176.416C73.2098 176.416 117.586 175.699 129.63 161.606C138.591 151.129 145.311 129.799 148.168 119.538C149.157 115.992 149.684 113.772 149.684 113.772L159.713 92.9584L120.573 89.126C120.573 89.126 122.811 113.531 120.506 131.392C119.592 138.438 117.979 144.457 115.236 147.565C105.541 158.561 69.2158 165.072 69.2158 165.072Z" fill="url(#paint5_linear)"/>
<path opacity="0.2" d="M120.573 89.126C120.573 89.126 122.811 113.531 120.506 131.392C124.61 127.514 127.873 122.833 130.092 117.64C134.979 119.37 142.575 119.631 148.168 119.538C149.157 115.992 149.684 113.772 149.684 113.772L159.713 92.9584L120.573 89.126Z" fill="black"/>
<path d="M9.91601 160.205L14.2137 167.385L31.201 158.021L26.8978 150.833L9.91601 160.205Z" fill="url(#paint6_linear)"/>
<path d="M14.819 167.64L15.4133 157.49C15.4224 157.323 15.3748 157.159 15.2781 157.023C15.1815 156.887 15.0417 156.789 14.8815 156.743L7.53825 154.66C7.22253 154.575 6.88587 154.618 6.60175 154.78C6.31762 154.942 6.1091 155.21 6.02164 155.525C5.99766 155.613 5.98322 155.704 5.97862 155.795C5.84022 159.082 5.90202 161.486 5.66 165.608C5.51108 168.149 4.79697 175.796 4.59131 179.303C4.38565 182.811 7.82378 183.47 8.22568 182.053C10.0058 175.696 12.2346 170.963 14.2043 169.01C14.5775 168.649 14.7976 168.158 14.819 167.64Z" fill="#484D58"/>
<path d="M13.1908 170.317C13.1125 170.881 13.2291 171.456 13.5214 171.946C13.6394 172.108 13.7969 172.236 13.9787 172.32C14.1606 172.403 14.3608 172.439 14.5603 172.423C14.6753 172.433 14.7906 172.409 14.8922 172.354C14.9938 172.299 15.0774 172.216 15.1328 172.115C15.6652 171.219 14.1647 168.425 13.9918 168.113C13.9762 168.077 13.9494 168.047 13.9154 168.028C13.8815 168.009 13.8422 168.001 13.8035 168.006C13.7636 168.009 13.7255 168.024 13.6938 168.049C13.6622 168.073 13.6383 168.107 13.6252 168.144C13.4004 168.85 13.2547 169.579 13.1908 170.317ZM14.8499 171.661C14.8522 171.75 14.8287 171.838 14.7822 171.913C14.7793 171.967 14.7012 172.026 14.5406 172.027C14.4083 172.036 14.2758 172.013 14.1544 171.959C14.0331 171.906 13.9266 171.823 13.8442 171.719C13.4746 170.757 13.4836 169.691 13.8695 168.735C14.3802 169.639 14.713 170.632 14.8499 171.661Z" fill="#407BFF"/>
<path d="M13.6128 168.198L13.6071 168.294C14.0243 169.182 15.7654 170.957 16.657 170.845C16.806 170.824 16.943 170.751 17.0448 170.641C17.1465 170.53 17.2068 170.387 17.2153 170.237C17.2433 170.088 17.2395 169.935 17.204 169.787C17.1685 169.64 17.1022 169.502 17.0095 169.382C16.2761 168.369 13.8889 168.027 13.7734 168.009C13.7375 168.007 13.7016 168.013 13.669 168.028C13.6363 168.043 13.6079 168.066 13.5862 168.095C13.5848 168.131 13.5941 168.167 13.6128 168.198ZM16.9057 170.076L16.901 170.172C16.8857 170.426 16.7384 170.439 16.6829 170.442C16.1341 170.516 14.8008 169.371 14.2064 168.472C15.155 168.584 16.047 168.982 16.7637 169.614C16.8656 169.745 16.9157 169.909 16.9047 170.075L16.9057 170.076Z" fill="#407BFF"/>
<path opacity="0.2" d="M26.8934 150.834L31.1966 158.023L22.4331 162.846L18.1298 155.658L26.8934 150.834Z" fill="url(#paint7_linear)"/>
<path d="M20.9298 151.581L28.4277 163.42C28.4277 163.42 70.7841 148.044 87.1582 135.869C94.0962 130.712 120.838 106.661 127.23 100.902C128.119 100.099 128.614 99.6564 128.614 99.6564L158.041 86.3106L145.719 53.4722C145.719 53.4722 137.112 54.0928 126.328 60.2541C124.731 61.1585 123.086 62.1897 121.411 63.3622C114.948 67.9356 109.308 73.5722 104.731 80.0323C103.533 81.6868 102.365 83.4496 101.227 85.3208C76.2716 126.356 20.9298 151.581 20.9298 151.581Z" fill="url(#paint8_linear)"/>
<path d="M209.7 80.2703C209.7 80.2703 204.083 63.2336 176.253 54.8671C148.424 46.5006 122.882 58.465 122.882 58.465C122.882 58.465 109.699 92.6632 136.23 108.589C145.804 114.336 158.65 111.079 158.65 111.079L163.735 99.7596C163.735 99.7596 203.871 90.6909 209.7 80.2703Z" fill="#407BFF"/>
<path opacity="0.8" d="M119.631 78.9089C119.841 86.1307 121.698 94.137 127.229 100.902C129.756 103.97 132.801 106.571 136.227 108.586C145.806 114.337 158.651 111.075 158.651 111.075L163.738 99.7603C163.738 99.7603 203.872 90.686 209.697 80.2675C209.697 80.2675 204.078 63.2359 176.251 54.8645C148.423 46.4932 122.88 58.4624 122.88 58.4624C122.88 58.4624 122.802 58.678 122.663 59.0811C122.39 59.867 121.902 61.3567 121.411 63.3625C120.112 68.4393 119.513 73.6699 119.631 78.9089Z" fill="url(#paint9_linear)"/>
<path d="M148.281 45.7638C148.281 45.7638 128.636 31.6066 123.923 29.0367C119.209 26.4668 76.8576 49.6569 76.8576 49.6569C76.8576 49.6569 64.1791 49.9811 62.8316 51.2891C61.4841 52.5971 62.8397 62.5766 64.9778 62.2861C67.1159 61.9955 75.7116 64.1787 78.2732 62.3005C80.8349 60.4223 81.1379 55.9349 81.1379 55.9349C81.1379 55.9349 120.233 43.0037 122.454 42.5039C124.055 42.1429 141.639 56.8393 141.639 56.8393L148.281 45.7638Z" fill="url(#paint10_linear)"/>
<path opacity="0.2" d="M104.731 80.0323C109.714 79.9247 114.688 79.5497 119.631 78.9087C142.647 75.8564 150.08 67.8395 150.08 67.8395L126.328 60.2542L122.663 59.0808C122.389 59.8668 121.902 61.3564 121.41 63.3623C114.948 67.9356 109.308 73.5723 104.731 80.0323Z" fill="black"/>
<path d="M186.724 79.8419C188.511 80.5608 190.459 80.7847 192.363 80.4902C198.295 79.6158 202.703 74.3218 202.703 74.3218C202.882 66.4137 195.921 61.9146 189.52 60.063C186.826 59.189 183.982 58.8767 181.162 59.1453C175.426 60.0869 178.175 76.4432 186.724 79.8419Z" fill="url(#paint11_linear)"/>
<path opacity="0.2" d="M192.365 80.4895C198.297 79.6152 202.705 74.3212 202.705 74.3212C202.884 66.413 195.923 61.9139 189.522 60.0624C187.625 64.2927 185.229 72.9388 192.365 80.4895Z" fill="black"/>
<path d="M203.543 79.016C202.063 84.1279 190.251 92.7252 175.603 96.6668C175.603 96.6668 192.831 97.1875 203.276 88.7713C213.72 80.355 211.341 76.6677 205.04 72.2613L203.543 79.016Z" fill="url(#paint12_linear)"/>
<path opacity="0.4" d="M203.543 79.016C202.063 84.1279 190.251 92.7252 175.603 96.6668C175.603 96.6668 192.831 97.1875 203.276 88.7713C213.72 80.355 211.341 76.6677 205.04 72.2613L203.543 79.016Z" fill="url(#paint13_linear)"/>
<path d="M190.222 59.0834C178.743 55.6562 178.935 60.3982 171.399 66.4183C156.045 78.6821 91.0958 62.6404 91.0958 62.6404C91.0958 62.6404 108.455 47.3619 131.333 45.8115C154.211 44.2611 190.222 59.0834 190.222 59.0834Z" fill="url(#paint14_linear)"/>
<path opacity="0.4" d="M190.222 59.0834C178.743 55.6562 178.935 60.3982 171.399 66.4183C156.045 78.6821 91.0958 62.6404 91.0958 62.6404C91.0958 62.6404 108.455 47.3619 131.333 45.8115C154.211 44.2611 190.222 59.0834 190.222 59.0834Z" fill="url(#paint15_linear)"/>
<path d="M210.529 80.508C210.529 80.508 213.117 68.9559 198.461 59.3789C183.805 49.802 166.416 61.5983 166.416 61.5983L172.483 62.3222L171.397 66.4175C171.397 66.4175 183.206 60.602 192.449 63.4544C201.693 66.3069 203.541 79.0164 203.541 79.0164L208.423 75.8839L210.529 80.508Z" fill="url(#paint16_linear)"/>
<path opacity="0.5" d="M210.529 80.508C210.529 80.508 213.117 68.9559 198.461 59.3789C183.805 49.802 166.416 61.5983 166.416 61.5983L172.483 62.3222L171.397 66.4175C171.397 66.4175 183.206 60.602 192.449 63.4544C201.693 66.3069 203.541 79.0164 203.541 79.0164L208.423 75.8839L210.529 80.508Z" fill="url(#paint17_linear)"/>
<path d="M216.745 50.0904C216.745 50.0904 216.355 61.7499 209.525 64.9887C202.694 68.2276 206.628 47.1221 206.628 47.1221L216.745 50.0904Z" fill="#484D58"/>
<path d="M190.374 70.7433C191.288 72.8446 192.866 74.5881 194.866 75.7062C196.866 76.8243 199.178 77.2554 201.447 76.9334C204.389 76.5712 207.083 75.1023 208.981 72.8253C209.247 72.5093 209.496 72.1796 209.728 71.8376C213.98 65.4634 217.182 53.5179 210.702 47.6102C209.277 46.2986 207.54 45.3733 205.657 44.9223C203.773 44.4713 201.806 44.5096 199.941 45.0336C198.077 45.5576 196.377 46.5499 195.004 47.916C193.632 49.2822 192.631 50.9768 192.098 52.8388C189.688 60.7717 187.897 65.3213 190.374 70.7433Z" fill="url(#paint18_linear)"/>
<path d="M203.1 59.3681C202.825 59.9795 203.009 60.6342 203.43 60.7885C203.85 60.9428 204.368 60.5456 204.605 59.9165C204.842 59.2874 204.687 58.6465 204.275 58.4961C203.863 58.3458 203.341 58.7283 203.1 59.3681Z" fill="#484D58"/>
<path d="M210.259 62.0092C209.983 62.6204 210.177 63.2792 210.589 63.4295C211.001 63.5798 211.528 63.1867 211.764 62.5575C212.001 61.9284 211.846 61.2873 211.434 61.1372C211.023 60.9871 210.483 61.4058 210.259 62.0092Z" fill="#484D58"/>
<path d="M207.869 61.4804C207.91 63.696 208.257 65.8952 208.901 68.0155C208.35 68.1667 207.773 68.1953 207.21 68.0993C206.647 68.0033 206.112 67.785 205.642 67.4598L207.869 61.4804Z" fill="#FFBCB0"/>
<path d="M201.734 56.23C201.798 56.2641 201.871 56.2806 201.944 56.2776C202.017 56.2746 202.087 56.2524 202.149 56.2131C202.561 55.9355 203.032 55.7578 203.525 55.6939C204.018 55.6301 204.519 55.682 204.988 55.8455C205.036 55.8668 205.086 55.8787 205.138 55.8804C205.19 55.8821 205.241 55.8736 205.29 55.8554C205.338 55.8373 205.382 55.8097 205.42 55.7744C205.458 55.7391 205.488 55.6967 205.509 55.6496C205.531 55.6025 205.543 55.5517 205.544 55.5001C205.546 55.4484 205.538 55.3969 205.519 55.3486C205.501 55.3002 205.474 55.2559 205.438 55.2181C205.403 55.1804 205.361 55.15 205.314 55.1286C204.726 54.9065 204.094 54.8285 203.47 54.9011C202.846 54.9737 202.249 55.1948 201.728 55.5459C201.684 55.5725 201.645 55.6076 201.614 55.6491C201.583 55.6907 201.561 55.7379 201.549 55.7881C201.536 55.8382 201.534 55.8904 201.541 55.9415C201.549 55.9926 201.567 56.0418 201.593 56.086L201.598 56.0944C201.636 56.1462 201.682 56.192 201.734 56.23Z" fill="#484D58"/>
<path d="M214.246 60.6747C214.305 60.7286 214.38 60.7623 214.46 60.771C214.511 60.7668 214.561 60.7524 214.607 60.7288C214.653 60.7051 214.694 60.6727 214.727 60.6332C214.761 60.5937 214.786 60.5481 214.802 60.4988C214.817 60.4496 214.823 60.3978 214.818 60.3463L214.82 60.3382C214.773 59.71 214.574 59.1024 214.243 58.5668C213.911 58.0312 213.455 57.5833 212.914 57.2608C212.868 57.2369 212.818 57.2223 212.766 57.2178C212.715 57.2134 212.663 57.2191 212.613 57.2348C212.564 57.2504 212.518 57.2756 212.479 57.309C212.439 57.3423 212.407 57.3832 212.383 57.4292C212.338 57.5225 212.33 57.6297 212.362 57.7286C212.393 57.8275 212.461 57.9104 212.552 57.9604C212.972 58.2278 213.324 58.5895 213.58 59.0168C213.835 59.4441 213.988 59.9251 214.025 60.4216C214.041 60.4772 214.069 60.5286 214.108 60.5723C214.146 60.616 214.193 60.6509 214.246 60.6747Z" fill="#484D58"/>
<path d="M201.383 45.2419L200.708 48.8604C200.031 48.9565 199.414 49.3039 198.981 49.8336C198.548 50.3633 198.33 51.0366 198.371 51.7196C198.57 55.0055 195.473 59.0259 192.652 60.129C192.652 60.129 192.983 58.8371 191.817 58.8001C190.65 58.763 188.153 64.5856 188.153 64.5856C188.153 64.5856 185.584 63.0976 185.991 55.5926C186.367 48.6512 189.963 45.57 192.065 43.505L201.383 45.2419Z" fill="#484D58"/>
<path d="M205.56 69.5762C204.923 70.3715 204.345 71.2121 203.83 72.0912C203.661 72.0289 203.492 71.9664 203.328 71.8954C201.064 70.9897 200.311 69.8262 200.164 68.8068C200.103 68.3076 200.162 67.8009 200.337 67.3293C200.427 67.0584 200.555 66.8015 200.716 66.566C201.867 67.7436 203.257 68.6606 204.792 69.2551C205.258 69.4664 205.56 69.5762 205.56 69.5762Z" fill="#484D58"/>
<path d="M204.792 69.2561L204.263 69.9873C202.133 69.1323 200.747 68.2441 200.337 67.3323C200.427 67.0614 200.555 66.8045 200.716 66.569C201.867 67.746 203.257 68.6623 204.792 69.2561Z" fill="white"/>
<path d="M203.328 71.8958C201.065 70.9902 200.312 69.8266 200.164 68.8073C201.02 69.1666 201.804 69.6748 202.482 70.3082C202.923 70.736 203.219 71.2912 203.328 71.8958Z" fill="#ED827E"/>
<path d="M200.708 48.8605C203.506 48.8154 209.951 50.594 214.107 54.0065C214.107 54.0065 216.283 54.2802 218.38 49.815C220.477 45.3498 217.838 42.2056 216.756 42.5951C215.674 42.9847 217.628 44.2875 217.439 45.6234C217.439 45.6234 212.379 42.0971 212.304 38.8432C212.23 35.5892 210.231 34.1649 209.035 35.1633C207.84 36.1617 210.711 40.1387 210.711 40.1387C210.711 40.1387 206.663 39.4281 205.188 35.9195C203.714 32.4108 200.488 30.2018 199.328 31.2386C198.168 32.2753 202.455 34.2495 203.356 36.059C203.356 36.059 197.067 32.0138 193.708 33.365C190.349 34.7162 190.767 35.7173 192.929 35.6884C194.528 35.8358 196.047 36.4572 197.291 37.4729C197.291 37.4729 192.057 36.3643 189.633 38.1358C187.209 39.9073 185.201 38.1908 184.413 39.2563C183.625 40.3218 187.723 41.5876 187.723 41.5876C187.723 41.5876 184.977 43.0359 182.622 41.7088C180.268 40.3816 178.6 44.0718 184.805 44.1877C184.805 44.1877 183.8 48.1526 181.514 48.2341C179.227 48.3156 179.771 50.2228 181.385 50.2256C182.999 50.2285 184.868 48.5032 184.868 48.5032C184.868 48.5032 181.281 52.4495 182.072 54.2765C182.863 56.1035 184.576 52.5876 184.576 52.5876C184.576 52.5876 182.082 58.1035 182.888 58.5892C183.694 59.0748 185.205 57.1315 185.205 57.1315C185.205 57.1315 183.107 60.9156 184.623 61.9676C185.839 62.6768 187.187 63.1286 188.585 63.2953C188.585 63.2953 195.76 48.9403 200.708 48.8605Z" fill="#484D58"/>
<path d="M186.347 57.962C186.561 60.0399 187.59 61.9482 189.209 63.2688C191.364 65.0011 193.528 63.3332 193.845 60.7297C194.105 58.4136 193.335 54.6544 190.719 53.9595C188.103 53.2646 186.117 55.4073 186.347 57.962Z" fill="url(#paint19_linear)"/>
<path d="M162.758 50.1852C162.758 50.1852 161.001 63.2963 144.423 63.6984L126.45 49.1257L134.494 35.254L162.758 50.1852Z" fill="url(#paint20_linear)"/>
<path opacity="0.5" d="M162.758 50.1852C162.758 50.1852 161.001 63.2963 144.423 63.6984L126.45 49.1257L134.494 35.254L162.758 50.1852Z" fill="url(#paint21_linear)"/>
<path d="M135 260.975C135.006 230.958 146.456 202.072 167.02 180.201C187.583 158.329 215.712 145.116 245.679 143.253C275.645 141.39 305.195 151.018 328.31 170.174C351.425 189.331 366.367 216.576 370.092 246.361C373.001 269.666 368.885 293.309 358.272 314.261C346.299 337.94 326.69 356.892 302.614 368.054C278.537 379.216 251.4 381.937 225.586 375.776C199.772 369.616 176.79 354.934 160.353 334.102C143.915 313.271 134.983 287.508 135 260.975Z" fill="url(#paint22_linear)"/>
<path d="M145.125 308.861C202.159 338.125 221.715 325.852 282.65 304.139C317.476 291.717 342.897 302.63 358.273 314.261C348.188 334.172 332.661 350.816 313.495 362.26C294.329 373.703 272.309 379.477 249.992 378.912C227.675 378.347 205.976 371.465 187.414 359.065C168.852 346.666 154.189 329.258 145.125 308.861Z" fill="url(#paint23_linear)"/>
<path d="M139.535 228.389C147.05 202.266 163.355 179.538 185.695 164.045C208.035 148.552 235.04 141.244 262.147 143.357C289.253 145.47 314.799 156.874 334.467 175.641C354.135 194.409 366.72 219.389 370.094 246.361C359.717 236.577 347.438 229.031 334.02 224.194C320.602 219.356 306.332 217.33 292.097 218.242C230.074 221.888 182.407 265.697 139.535 228.389Z" fill="url(#paint24_linear)"/>
<circle cx="85" cy="289" r="6" fill="#9EA1EB"/>
<path d="M360.5 129C369.613 129 377 121.613 377 112.5C377 103.387 369.613 96 360.5 96C351.387 96 344 103.387 344 112.5C344 121.613 351.387 129 360.5 129Z" fill="url(#paint25_linear)"/>
<defs>
<linearGradient id="paint0_linear" x1="226.158" y1="56.3452" x2="214.819" y2="109.431" gradientUnits="userSpaceOnUse">
<stop offset="0.0625" stop-color="#FFC19E"/>
<stop offset="1" stop-color="white"/>
</linearGradient>
<linearGradient id="paint1_linear" x1="214.09" y1="40.5691" x2="235.276" y2="142.632" gradientUnits="userSpaceOnUse">
<stop offset="0.0625" stop-color="#FFC19E"/>
<stop offset="1" stop-color="white"/>
</linearGradient>
<linearGradient id="paint2_linear" x1="212.144" y1="68.4971" x2="198.304" y2="78.7056" gradientUnits="userSpaceOnUse">
<stop stop-color="#8177F7"/>
<stop offset="1" stop-color="#799FF8"/>
</linearGradient>
<linearGradient id="paint3_linear" x1="212.144" y1="68.4971" x2="198.304" y2="78.7056" gradientUnits="userSpaceOnUse">
<stop stop-color="#8177F7"/>
<stop offset="1" stop-color="#799FF8"/>
</linearGradient>
<linearGradient id="paint4_linear" x1="69.2783" y1="167.86" x2="67.508" y2="177.803" gradientUnits="userSpaceOnUse">
<stop offset="0.0625" stop-color="#FFC19E"/>
<stop offset="1" stop-color="white"/>
</linearGradient>
<linearGradient id="paint5_linear" x1="141.071" y1="151.83" x2="79.5088" y2="109.507" gradientUnits="userSpaceOnUse">
<stop stop-color="#EB4BAC"/>
<stop offset="1" stop-color="#FCE1C2"/>
</linearGradient>
<linearGradient id="paint6_linear" x1="22.5266" y1="149.899" x2="18.5919" y2="168.32" gradientUnits="userSpaceOnUse">
<stop offset="0.0625" stop-color="#FFC19E"/>
<stop offset="1" stop-color="white"/>
</linearGradient>
<linearGradient id="paint7_linear" x1="20.6909" y1="156.233" x2="22.7951" y2="163.578" gradientUnits="userSpaceOnUse">
<stop offset="0.0625" stop-color="#FFC19E"/>
<stop offset="1" stop-color="white"/>
</linearGradient>
<linearGradient id="paint8_linear" x1="84.2736" y1="147.392" x2="54.6562" y2="98.3118" gradientUnits="userSpaceOnUse">
<stop stop-color="#EB4BAC"/>
<stop offset="1" stop-color="#FCE1C2"/>
</linearGradient>
<linearGradient id="paint9_linear" x1="169.508" y1="53.1923" x2="156.493" y2="114.122" gradientUnits="userSpaceOnUse">
<stop stop-color="#3B3E89"/>
<stop offset="1" stop-color="#262859"/>
</linearGradient>
<linearGradient id="paint10_linear" x1="108.212" y1="47.1029" x2="105.035" y2="38.4677" gradientUnits="userSpaceOnUse">
<stop offset="0.0625" stop-color="#FFC19E"/>
<stop offset="1" stop-color="white"/>
</linearGradient>
<linearGradient id="paint11_linear" x1="194.64" y1="70.5586" x2="181.097" y2="75.2698" gradientUnits="userSpaceOnUse">
<stop offset="0.0625" stop-color="#FFC19E"/>
<stop offset="1" stop-color="white"/>
</linearGradient>
<linearGradient id="paint12_linear" x1="202.371" y1="76.0094" x2="183.151" y2="98.48" gradientUnits="userSpaceOnUse">
<stop stop-color="#8177F7"/>
<stop offset="1" stop-color="#799FF8"/>
</linearGradient>
<linearGradient id="paint13_linear" x1="202.371" y1="76.0094" x2="183.151" y2="98.48" gradientUnits="userSpaceOnUse">
<stop stop-color="#8177F7"/>
<stop offset="1" stop-color="#799FF8"/>
</linearGradient>
<linearGradient id="paint14_linear" x1="163.428" y1="53.9453" x2="152.456" y2="82.4559" gradientUnits="userSpaceOnUse">
<stop stop-color="#8177F7"/>
<stop offset="1" stop-color="#799FF8"/>
</linearGradient>
<linearGradient id="paint15_linear" x1="163.428" y1="53.9453" x2="152.456" y2="82.4559" gradientUnits="userSpaceOnUse">
<stop stop-color="#8177F7"/>
<stop offset="1" stop-color="#799FF8"/>
</linearGradient>
<linearGradient id="paint16_linear" x1="201.003" y1="61.1844" x2="191.908" y2="80.6553" gradientUnits="userSpaceOnUse">
<stop stop-color="#8177F7"/>
<stop offset="1" stop-color="#799FF8"/>
</linearGradient>
<linearGradient id="paint17_linear" x1="201.003" y1="61.1844" x2="191.908" y2="80.6553" gradientUnits="userSpaceOnUse">
<stop stop-color="#8177F7"/>
<stop offset="1" stop-color="#799FF8"/>
</linearGradient>
<linearGradient id="paint18_linear" x1="179.46" y1="67.1735" x2="211.228" y2="67.3194" gradientUnits="userSpaceOnUse">
<stop offset="0.0625" stop-color="#FFC19E"/>
<stop offset="1" stop-color="white"/>
</linearGradient>
<linearGradient id="paint19_linear" x1="192.372" y1="52.0751" x2="189.093" y2="63.622" gradientUnits="userSpaceOnUse">
<stop offset="0.0625" stop-color="#FFC19E"/>
<stop offset="1" stop-color="white"/>
</linearGradient>
<linearGradient id="paint20_linear" x1="149.978" y1="42.2111" x2="140.571" y2="58.283" gradientUnits="userSpaceOnUse">
<stop stop-color="#8177F7"/>
<stop offset="1" stop-color="#799FF8"/>
</linearGradient>
<linearGradient id="paint21_linear" x1="153.92" y1="43.1068" x2="139.032" y2="65.4078" gradientUnits="userSpaceOnUse">
<stop stop-color="#8177F7"/>
<stop offset="1" stop-color="#799FF8"/>
</linearGradient>
<linearGradient id="paint22_linear" x1="304.082" y1="345.8" x2="192.231" y2="143.015" gradientUnits="userSpaceOnUse">
<stop stop-color="#5FA8ED"/>
<stop offset="1" stop-color="#7ED5B7"/>
</linearGradient>
<linearGradient id="paint23_linear" x1="297.835" y1="367.651" x2="279.901" y2="281.366" gradientUnits="userSpaceOnUse">
<stop stop-color="#5FA8ED"/>
<stop offset="1" stop-color="#7ED5B7"/>
</linearGradient>
<linearGradient id="paint24_linear" x1="304.719" y1="231.819" x2="277.721" y2="122.649" gradientUnits="userSpaceOnUse">
<stop stop-color="#5FA8ED"/>
<stop offset="1" stop-color="#7ED5B7"/>
</linearGradient>
<linearGradient id="paint25_linear" x1="344" y1="112.5" x2="377" y2="112.5" gradientUnits="userSpaceOnUse">
<stop offset="0.005" stop-color="#FEA7AF"/>
<stop offset="0.973" stop-color="#EA47AC"/>
</linearGradient>
</defs>
</svg>
