<svg width="148" height="148" viewBox="0 0 148 148" fill="none" xmlns="http://www.w3.org/2000/svg">
<g style="mix-blend-mode:luminosity">
<path d="M28.5575 130.06C27.9857 130.06 27.4142 129.842 26.9781 129.406C26.1059 128.533 26.1059 127.119 26.9781 126.247L117.863 35.3617C118.736 34.4893 120.15 34.4896 121.022 35.3617C121.894 36.2338 121.894 37.6479 121.022 38.5203L30.1369 129.406C29.7004 129.841 29.129 130.06 28.5575 130.06Z" fill="url(#paint0_linear)"/>
<path d="M119.443 130.06C118.871 130.06 118.3 129.842 117.863 129.406L26.9781 38.5207C26.1059 37.6486 26.1059 36.2345 26.9781 35.3621C27.8504 34.49 29.2642 34.49 30.1369 35.3621L121.022 126.247C121.894 127.119 121.894 128.534 121.022 129.406C120.586 129.842 120.014 130.06 119.443 130.06Z" fill="url(#paint1_linear)"/>
<path d="M73.9999 120.6C95.1066 120.6 112.217 103.489 112.217 82.3827C112.217 61.2761 95.1066 44.1658 73.9999 44.1658C52.8933 44.1658 35.783 61.2761 35.783 82.3827C35.783 103.489 52.8933 120.6 73.9999 120.6Z" fill="url(#paint2_linear)"/>
<path d="M112.217 82.3832C112.217 103.49 95.1071 120.6 74 120.6C72.4714 120.6 70.9614 120.51 69.4802 120.335C88.456 118.097 103.175 101.961 103.175 82.3832C103.175 62.805 88.456 46.6689 69.4802 44.4319C70.9611 44.2567 72.4712 44.1665 74 44.1665C95.1068 44.1662 112.217 61.2764 112.217 82.3832Z" fill="url(#paint3_linear)"/>
<path d="M94.6288 103.799V114.558C88.6788 118.382 81.5979 120.601 73.9996 120.601C66.4013 120.601 59.3207 118.383 53.3704 114.558V103.799C53.3704 95.8849 59.7849 89.4729 67.6963 89.4729H80.3026C88.2142 89.4726 94.6288 95.8846 94.6288 103.799Z" fill="url(#paint4_linear)"/>
<path d="M94.6289 103.799V114.558C92.304 116.052 89.8042 117.302 87.1714 118.268V103.799C87.1714 95.8875 80.7568 89.4729 72.8455 89.4729H80.303C88.2117 89.4726 94.6289 95.8872 94.6289 103.799Z" fill="url(#paint5_linear)"/>
<path d="M85.0011 90.2612L73.9999 111.214L62.9988 90.2612C64.4707 89.7516 66.0533 89.4729 67.6989 89.4729H80.3006C81.9465 89.4729 83.5292 89.7516 85.0011 90.2612Z" fill="white"/>
<path d="M79.6144 100.519L74 111.214L68.3855 100.519L72.4292 89.4729H75.5707L79.6144 100.519Z" fill="#FB4A59"/>
<path d="M60.6738 80.1561C63.1168 80.1561 65.0973 78.1757 65.0973 75.7326C65.0973 73.2896 63.1168 71.3091 60.6738 71.3091C58.2307 71.3091 56.2502 73.2896 56.2502 75.7326C56.2502 78.1757 58.2307 80.1561 60.6738 80.1561Z" fill="#FDB0A0"/>
<path d="M87.3259 80.1561C89.7689 80.1561 91.7494 78.1757 91.7494 75.7326C91.7494 73.2896 89.7689 71.3091 87.3259 71.3091C84.8828 71.3091 82.9023 73.2896 82.9023 75.7326C82.9023 78.1757 84.8828 80.1561 87.3259 80.1561Z" fill="#F69583"/>
<path d="M73.9999 90.7353C67.5495 90.7353 62.3203 85.5062 62.3203 79.0557V74.8395C62.3203 68.3891 67.5495 63.1599 73.9999 63.1599C80.4503 63.1599 85.6794 68.3891 85.6794 74.8395V79.0557C85.6794 85.5062 80.4503 90.7353 73.9999 90.7353Z" fill="#FFCEC0"/>
<path d="M85.6798 74.8397V79.0548C85.6798 85.5076 80.4501 90.7344 74.0002 90.7344C73.0345 90.7344 72.093 90.6182 71.1946 90.3936C76.289 89.1382 80.0659 84.5389 80.0659 79.0548V74.8397C80.0659 71.6147 78.759 68.6954 76.6434 66.5798C75.1634 65.0998 73.2911 64.0175 71.1946 63.501C72.0927 63.2764 73.0345 63.1602 74.0002 63.1602C77.2253 63.1602 80.1445 64.467 82.2602 66.5801C84.3729 68.6954 85.6798 71.6147 85.6798 74.8397Z" fill="#FDB0A0"/>
<path d="M89.5017 71.6896C87.1624 71.9217 82.498 72.1724 78.4994 71.084C75.6565 70.3102 73.7068 67.6948 73.7068 64.7484V60.2907C73.7068 58.0306 75.5389 56.1985 77.799 56.1985H80.8776C86.4689 56.1985 91.0014 60.731 91.0014 66.3223V70.0333C91.0014 70.8895 90.3539 71.6052 89.5017 71.6896Z" fill="#7A7179"/>
<path d="M91.0018 66.3231V70.0341C91.0018 70.8883 90.3543 71.6048 89.5001 71.6887C87.8875 71.8505 85.1717 72.0185 82.327 71.7485C82.5638 71.7274 82.7826 71.7095 82.9864 71.6887C83.8377 71.6048 84.4852 70.8883 84.4852 70.0341V66.3231C84.4852 61.4521 81.05 57.3873 76.4727 56.4192C76.8863 56.2753 77.3329 56.1975 77.7974 56.1975H80.8759C86.4696 56.1975 91.0018 60.7297 91.0018 66.3231Z" fill="#685E67"/>
<path d="M58.4832 72.1424C61.1328 72.4222 66.8547 72.7859 71.7353 71.4573C75.0864 70.545 77.3847 67.4619 77.3847 63.9888V58.7345C77.3847 56.0702 75.2248 53.9106 72.5608 53.9106H68.9319C62.341 53.9106 56.9983 59.2537 56.9983 65.8443V70.4875C56.9983 71.3377 57.638 72.0534 58.4832 72.1424Z" fill="#9B8F99"/>
<path d="M77.3842 58.7335V63.988C77.3842 67.4623 75.085 70.5466 71.7368 71.458C67.705 72.555 63.1008 72.498 60.1304 72.2882C61.8061 72.1564 63.5355 71.9014 65.1693 71.458C68.5207 70.5469 70.8196 67.4623 70.8196 63.988V58.7335C70.8196 56.4614 69.246 54.5548 67.1297 54.0451C67.7171 53.9552 68.3198 53.9102 68.9312 53.9102H72.5612C75.2258 53.9104 77.3842 56.0715 77.3842 58.7335Z" fill="#8B8088"/>
<path d="M76.2333 111.215V120.014C76.2333 120.196 76.2125 120.371 76.1677 120.541C75.4499 120.58 74.7264 120.601 73.9997 120.601C73.273 120.601 72.5495 120.58 71.8317 120.541C71.7872 120.371 71.7661 120.196 71.7661 120.014V111.215C71.7661 109.982 72.7666 108.981 73.9994 108.981C75.2328 108.981 76.2333 109.982 76.2333 111.215Z" fill="url(#paint6_linear)"/>
<path d="M81.287 115.029C81.2832 115.029 81.2798 115.029 81.2763 115.029H81.2454C80.0117 115.023 79.0167 114.019 79.0225 112.785C79.0283 111.555 80.0273 110.562 81.2555 110.562H81.2662L81.2971 110.562C82.5308 110.568 83.5258 111.573 83.52 112.806C83.5142 114.036 82.5155 115.029 81.287 115.029Z" fill="white"/>
<path d="M145.109 47.0989H117.957C116.36 47.0989 115.066 45.8048 115.066 44.2083V32.4391C115.066 26.1231 120.186 21.0029 126.502 21.0029H136.564C142.88 21.0029 148 26.1231 148 32.4391V44.2083C148 45.8048 146.706 47.0989 145.109 47.0989Z" fill="url(#paint7_linear)"/>
<path d="M136.262 36.3463L132.329 39.8038C131.874 40.2042 131.192 40.2042 130.737 39.8038L126.804 36.3463C126.463 36.0466 126.32 35.5812 126.432 35.1415L130.055 21.0032H133.012L136.634 35.1415C136.747 35.5812 136.603 36.0469 136.262 36.3463Z" fill="url(#paint8_linear)"/>
<path d="M148 32.4394V44.2085C148 45.805 146.706 47.0992 145.109 47.0992H142.047V32.4394C142.047 26.1251 136.926 21.0032 130.612 21.0032H136.564C142.88 21.0032 148 26.1233 148 32.4394Z" fill="url(#paint9_linear)"/>
<path d="M131.533 22.0121C126.384 22.0121 122.21 17.838 122.21 12.689V9.32313C122.21 4.17406 126.384 0 131.533 0C136.682 0 140.856 4.17406 140.856 9.32313V12.6887C140.856 17.8378 136.682 22.0121 131.533 22.0121Z" fill="#FFCEC0"/>
<path d="M140.856 9.32415V12.6886C140.856 17.8376 136.682 22.0117 131.533 22.0117C130.504 22.0117 129.51 21.844 128.583 21.5347C132.285 20.2978 134.953 16.8051 134.953 12.6886V9.32415C134.953 6.75092 133.91 4.41876 132.222 2.73122C131.211 1.71979 129.971 0.941631 128.583 0.477685C129.51 0.168389 130.504 0.000732422 131.533 0.000732422C134.106 0.000732422 136.439 1.04367 138.126 2.73122C139.813 4.41876 140.856 6.75092 140.856 9.32415Z" fill="#FDB0A0"/>
<path d="M30.0434 148H2.89062C1.29413 148 0 146.706 0 145.109V133.34C0 127.024 5.12016 121.904 11.4362 121.904H21.4979C27.8139 121.904 32.934 127.024 32.934 133.34V145.109C32.934 146.706 31.6396 148 30.0434 148Z" fill="url(#paint10_linear)"/>
<path d="M21.1959 137.247L17.2632 140.705C16.8079 141.105 16.1263 141.105 15.671 140.705L11.7383 137.247C11.3975 136.948 11.2538 136.482 11.3663 136.043L14.9888 121.904H17.9456L21.5682 136.043C21.6806 136.482 21.5367 136.948 21.1959 137.247Z" fill="url(#paint11_linear)"/>
<path d="M32.9339 133.34V145.109C32.9339 146.706 31.6398 148 30.0433 148H26.9815V133.34C26.9815 127.026 21.8599 121.904 15.5457 121.904H21.498C27.8138 121.904 32.9339 127.025 32.9339 133.34Z" fill="url(#paint12_linear)"/>
<path d="M16.4669 122.913C11.3179 122.913 7.1438 118.739 7.1438 113.59V110.224C7.1438 105.075 11.3179 100.901 16.4669 100.901C21.616 100.901 25.7901 105.075 25.7901 110.224V113.59C25.7901 118.739 21.616 122.913 16.4669 122.913Z" fill="#FFCEC0"/>
<path d="M25.7902 110.225V113.59C25.7902 118.739 21.6158 122.913 16.4671 122.913C15.4374 122.913 14.4442 122.745 13.5166 122.436C17.2192 121.199 19.8867 117.706 19.8867 113.59V110.225C19.8867 107.652 18.8437 105.32 17.1562 103.632C16.1448 102.621 14.9053 101.843 13.5166 101.379C14.4442 101.07 15.4374 100.902 16.4671 100.902C19.0403 100.902 21.3725 101.945 23.0597 103.632C24.7473 105.32 25.7902 107.652 25.7902 110.225Z" fill="#FDB0A0"/>
<path d="M30.0434 47.0989H2.89062C1.29413 47.0989 0 45.8047 0 44.2082V32.4391C0 26.1233 5.12016 21.0032 11.4362 21.0032H21.4979C27.8139 21.0032 32.934 26.1233 32.934 32.4394V44.2085C32.934 45.8047 31.6396 47.0989 30.0434 47.0989Z" fill="url(#paint13_linear)"/>
<path d="M11.7381 36.3463L15.6711 39.8038C16.1263 40.2042 16.8079 40.2042 17.2632 39.8038L21.1959 36.3463C21.5367 36.0466 21.6804 35.5812 21.5679 35.1415L17.9454 21.0032H14.9886L11.366 35.1415C11.2536 35.5812 11.3973 36.0469 11.7381 36.3463Z" fill="url(#paint14_linear)"/>
<path d="M32.9339 32.4391V44.2083C32.9339 45.8048 31.6398 47.0989 30.0433 47.0989H26.9815V32.4391C26.9815 26.1248 21.8599 21.0029 15.5457 21.0029H21.498C27.8138 21.0032 32.9339 26.1234 32.9339 32.4391Z" fill="url(#paint15_linear)"/>
<path d="M16.4669 22.0121C11.3179 22.0121 7.1438 17.838 7.1438 12.689V9.32313C7.1438 4.17406 11.3179 0 16.4669 0C21.616 0 25.7901 4.17406 25.7901 9.32313V12.6887C25.7901 17.8378 21.616 22.0121 16.4669 22.0121Z" fill="#FFCEC0"/>
<path d="M25.7902 9.32415V12.6886C25.7902 17.8376 21.6158 22.0117 16.4671 22.0117C15.4374 22.0117 14.4442 21.844 13.5166 21.5347C17.2192 20.2978 19.8867 16.8051 19.8867 12.6886V9.32415C19.8867 6.75092 18.8437 4.41876 17.1562 2.73122C16.1448 1.71979 14.9053 0.941631 13.5166 0.477685C14.4442 0.168389 15.4374 0.000732422 16.4671 0.000732422C19.0403 0.000732422 21.3725 1.04367 23.0597 2.73122C24.7473 4.41876 25.7902 6.75092 25.7902 9.32415Z" fill="#FDB0A0"/>
<path d="M145.109 148H117.957C116.36 148 115.066 146.706 115.066 145.109V133.34C115.066 127.024 120.186 121.904 126.502 121.904H136.564C142.88 121.904 148 127.024 148 133.34V145.109C148 146.706 146.706 148 145.109 148Z" fill="url(#paint16_linear)"/>
<path d="M126.804 137.247L130.737 140.705C131.192 141.105 131.874 141.105 132.329 140.705L136.262 137.247C136.603 136.948 136.746 136.482 136.634 136.043L133.011 121.904H130.054L126.432 136.043C126.319 136.482 126.463 136.948 126.804 137.247Z" fill="url(#paint17_linear)"/>
<path d="M148 133.34V145.109C148 146.706 146.706 148 145.109 148H142.047V133.34C142.047 127.026 136.926 121.904 130.612 121.904H136.564C142.88 121.904 148 127.025 148 133.34Z" fill="url(#paint18_linear)"/>
<path d="M131.533 122.913C126.384 122.913 122.21 118.739 122.21 113.59V110.224C122.21 105.075 126.384 100.901 131.533 100.901C136.682 100.901 140.856 105.075 140.856 110.224V113.59C140.856 118.739 136.682 122.913 131.533 122.913Z" fill="#FFCEC0"/>
<path d="M140.856 110.225V113.59C140.856 118.739 136.682 122.913 131.533 122.913C130.504 122.913 129.51 122.745 128.583 122.436C132.285 121.199 134.953 117.706 134.953 113.59V110.225C134.953 107.652 133.91 105.32 132.222 103.632C131.211 102.621 129.971 101.843 128.583 101.379C129.51 101.07 130.504 100.902 131.533 100.902C134.106 100.902 136.439 101.945 138.126 103.632C139.813 105.32 140.856 107.652 140.856 110.225Z" fill="#FDB0A0"/>
<path d="M85.5916 34.8052H75.5397C74.306 34.8052 73.3064 33.8053 73.3064 32.5719C73.3064 31.3385 74.3063 30.3386 75.5397 30.3386H85.5916C86.8253 30.3386 87.8248 31.3385 87.8248 32.5719C87.8248 33.8053 86.825 34.8052 85.5916 34.8052Z" fill="url(#paint19_linear)"/>
<path d="M100.076 25.5159H75.5397C74.306 25.5159 73.3064 24.516 73.3064 23.2826C73.3064 22.0492 74.3063 21.0493 75.5397 21.0493H100.076C101.31 21.0493 102.31 22.0492 102.31 23.2826C102.31 24.516 101.31 25.5159 100.076 25.5159Z" fill="url(#paint20_linear)"/>
<path d="M100.076 18.4637H75.5397C74.306 18.4637 73.3064 17.4638 73.3064 16.2304C73.3064 14.9969 74.3063 13.9971 75.5397 13.9971H100.076C101.31 13.9971 102.31 14.9969 102.31 16.2304C102.31 17.4638 101.31 18.4637 100.076 18.4637Z" fill="url(#paint21_linear)"/>
<path d="M56.6299 33.1078C61.4386 33.1078 65.3368 29.2096 65.3368 24.4009C65.3368 19.5923 61.4386 15.6941 56.6299 15.6941C51.8213 15.6941 47.9231 19.5923 47.9231 24.4009C47.9231 29.2096 51.8213 33.1078 56.6299 33.1078Z" fill="url(#paint22_linear)"/>
<path d="M57.6019 27.9928C57.0304 27.9928 56.4587 27.7746 56.0225 27.3387L53.5562 24.8724C52.6841 24.0003 52.6841 22.5862 53.5562 21.7138C54.4286 20.8417 55.8424 20.8417 56.7151 21.7138L57.6019 22.601L63.7578 16.4451C64.6302 15.573 66.044 15.573 66.9166 16.4451C67.7887 17.3172 67.7887 18.7313 66.9166 19.6037L59.1813 27.339C58.7448 27.7749 58.1731 27.9928 57.6019 27.9928Z" fill="url(#paint23_linear)"/>
</g>
<defs>
<linearGradient id="paint0_linear" x1="74.0001" y1="34.7075" x2="74.0001" y2="130.06" gradientUnits="userSpaceOnUse">
<stop stop-color="#3B3E89"/>
<stop offset="1" stop-color="#262859"/>
</linearGradient>
<linearGradient id="paint1_linear" x1="74.0001" y1="34.708" x2="74.0001" y2="130.06" gradientUnits="userSpaceOnUse">
<stop stop-color="#3B3E89"/>
<stop offset="1" stop-color="#262859"/>
</linearGradient>
<linearGradient id="paint2_linear" x1="73.9999" y1="44.1658" x2="73.9999" y2="120.6" gradientUnits="userSpaceOnUse">
<stop offset="0.0625" stop-color="#FFC19E"/>
<stop offset="1" stop-color="white"/>
</linearGradient>
<linearGradient id="paint3_linear" x1="90.8486" y1="44.1665" x2="90.8486" y2="120.6" gradientUnits="userSpaceOnUse">
<stop offset="0.0625" stop-color="#FFC19E"/>
<stop offset="1" stop-color="white"/>
</linearGradient>
<linearGradient id="paint4_linear" x1="65.0692" y1="93.8524" x2="77.4457" y2="123.59" gradientUnits="userSpaceOnUse">
<stop stop-color="#EB4BAC"/>
<stop offset="1" stop-color="#FCE1C2"/>
</linearGradient>
<linearGradient id="paint5_linear" x1="79.0222" y1="93.5242" x2="94.3864" y2="114.594" gradientUnits="userSpaceOnUse">
<stop stop-color="#EB4BAC"/>
<stop offset="1" stop-color="#FCE1C2"/>
</linearGradient>
<linearGradient id="paint6_linear" x1="73.0328" y1="110.616" x2="79.1418" y2="114.874" gradientUnits="userSpaceOnUse">
<stop stop-color="#EB4BAC"/>
<stop offset="1" stop-color="#FCE1C2"/>
</linearGradient>
<linearGradient id="paint7_linear" x1="124.404" y1="24.6744" x2="135.138" y2="49.231" gradientUnits="userSpaceOnUse">
<stop stop-color="#5FA8ED"/>
<stop offset="1" stop-color="#7ED5B7"/>
</linearGradient>
<linearGradient id="paint8_linear" x1="129.309" y1="23.6905" x2="140.009" y2="34.1278" gradientUnits="userSpaceOnUse">
<stop stop-color="#EF8197"/>
<stop offset="0.942708" stop-color="#F7C58F"/>
</linearGradient>
<linearGradient id="paint9_linear" x1="135.542" y1="24.6747" x2="149.909" y2="42.0287" gradientUnits="userSpaceOnUse">
<stop stop-color="#5FA8ED"/>
<stop offset="1" stop-color="#7ED5B7"/>
</linearGradient>
<linearGradient id="paint10_linear" x1="9.33844" y1="125.576" x2="20.0722" y2="150.132" gradientUnits="userSpaceOnUse">
<stop stop-color="#73BCF9"/>
<stop offset="1" stop-color="#7A96F8"/>
</linearGradient>
<linearGradient id="paint11_linear" x1="16.4672" y1="121.904" x2="16.4672" y2="141.005" gradientUnits="userSpaceOnUse">
<stop stop-color="#3B3E89"/>
<stop offset="1" stop-color="#262859"/>
</linearGradient>
<linearGradient id="paint12_linear" x1="20.4761" y1="125.576" x2="34.8432" y2="142.93" gradientUnits="userSpaceOnUse">
<stop stop-color="#73BCF9"/>
<stop offset="1" stop-color="#7A96F8"/>
</linearGradient>
<linearGradient id="paint13_linear" x1="9.33844" y1="24.6746" x2="20.072" y2="49.2311" gradientUnits="userSpaceOnUse">
<stop stop-color="#8177F7"/>
<stop offset="1" stop-color="#799FF8"/>
</linearGradient>
<linearGradient id="paint14_linear" x1="14.2425" y1="23.6905" x2="24.9433" y2="34.1277" gradientUnits="userSpaceOnUse">
<stop stop-color="#EB4BAC"/>
<stop offset="1" stop-color="#FCE1C2"/>
</linearGradient>
<linearGradient id="paint15_linear" x1="20.4761" y1="24.6744" x2="34.8432" y2="42.0284" gradientUnits="userSpaceOnUse">
<stop stop-color="#8177F7"/>
<stop offset="1" stop-color="#799FF8"/>
</linearGradient>
<linearGradient id="paint16_linear" x1="124.404" y1="125.576" x2="135.138" y2="150.132" gradientUnits="userSpaceOnUse">
<stop stop-color="#EF8197"/>
<stop offset="0.942708" stop-color="#F7C58F"/>
</linearGradient>
<linearGradient id="paint17_linear" x1="129.308" y1="124.592" x2="140.009" y2="135.029" gradientUnits="userSpaceOnUse">
<stop stop-color="#8177F7"/>
<stop offset="1" stop-color="#799FF8"/>
</linearGradient>
<linearGradient id="paint18_linear" x1="135.542" y1="125.576" x2="149.909" y2="142.93" gradientUnits="userSpaceOnUse">
<stop stop-color="#EF8197"/>
<stop offset="0.942708" stop-color="#F7C58F"/>
</linearGradient>
<linearGradient id="paint19_linear" x1="77.4231" y1="30.967" x2="78.2489" y2="35.833" gradientUnits="userSpaceOnUse">
<stop stop-color="#73BCF9"/>
<stop offset="1" stop-color="#7A96F8"/>
</linearGradient>
<linearGradient id="paint20_linear" x1="81.5303" y1="21.6777" x2="81.9525" y2="26.648" gradientUnits="userSpaceOnUse">
<stop stop-color="#73BCF9"/>
<stop offset="1" stop-color="#7A96F8"/>
</linearGradient>
<linearGradient id="paint21_linear" x1="81.5303" y1="14.6255" x2="81.9525" y2="19.5958" gradientUnits="userSpaceOnUse">
<stop stop-color="#73BCF9"/>
<stop offset="1" stop-color="#7A96F8"/>
</linearGradient>
<linearGradient id="paint22_linear" x1="52.8607" y1="18.1441" x2="61.1153" y2="33.1078" gradientUnits="userSpaceOnUse">
<stop stop-color="#EB4BAC"/>
<stop offset="1" stop-color="#FCE1C2"/>
</linearGradient>
<linearGradient id="paint23_linear" x1="57.0614" y1="17.5077" x2="62.2453" y2="28.8048" gradientUnits="userSpaceOnUse">
<stop stop-color="#73BCF9"/>
<stop offset="1" stop-color="#7A96F8"/>
</linearGradient>
</defs>
</svg>
