<svg width="387" height="414" viewBox="0 0 387 414" fill="none" xmlns="http://www.w3.org/2000/svg">
<path d="M251.939 54.5542C257.269 50.7128 262.565 46.8852 262.565 46.8852C262.565 46.8852 265.864 40.6288 267.634 38.8884C269.403 37.1481 275.368 41.1365 275.896 42.4985C276.423 43.8604 268.7 51.5245 268.7 51.5245L266.18 52.0563C266.18 52.0563 259.977 57.5488 254.35 62.5336L251.939 54.5542Z" fill="url(#paint0_linear)"/>
<path d="M206.064 73.8433C206.064 73.8433 220.879 71.0284 227.466 67.9687C234.052 64.909 259.555 48.292 259.555 48.292L262.36 56.6716C262.36 56.6716 239.301 77.2153 233.406 79.8948C227.511 82.5742 206.775 88.537 206.775 88.537L206.064 73.8433Z" fill="url(#paint1_linear)"/>
<path opacity="0.1" d="M206.78 88.5347C206.78 88.5347 214.464 86.3214 221.805 83.9824C226.514 82.4773 231.089 80.926 233.4 79.8828C239.3 77.2141 262.355 56.671 262.355 56.671L259.553 48.2842C259.553 48.2842 234.048 64.9082 227.47 67.9665C220.891 71.0249 206.065 73.8359 206.065 73.8359L206.499 82.6567L206.78 88.5347Z" fill="url(#paint2_linear)"/>
<path opacity="0.2" d="M206.78 88.5345C206.78 88.5345 214.464 86.3211 221.806 83.9821C218.161 82.6257 212.144 81.0622 206.499 82.6565L206.78 88.5345Z" fill="black"/>
<path d="M94.3536 88.9114L99.5851 85.2264L105.576 91.9061L111.061 98.0374L105.563 103.422L99.6249 95.74L94.3536 88.9114Z" fill="url(#paint3_linear)"/>
<path d="M100.941 84.772C101.334 85.3578 93.9297 89.8977 93.9297 89.8977C93.9297 89.8977 86.4471 88.5355 81.51 90.5215C76.5729 92.5075 77.149 88.3003 81.8828 84.9664L93.5902 76.7183C96.9488 74.3499 96.8703 78.6944 100.941 84.772Z" fill="#585979"/>
<path d="M88.9236 90.7112C88.6902 90.8508 88.5117 91.0662 88.4179 91.3215C88.3819 91.4868 88.3972 91.6592 88.4616 91.8156C88.5261 91.972 88.6368 92.1051 88.7788 92.197C88.8768 92.2802 88.991 92.3421 89.1142 92.3787C89.2374 92.4154 89.3669 92.4259 89.4944 92.4098C90.1418 92.2606 90.7345 91.9331 91.2054 91.4644C90.8467 92.1782 90.6053 92.9077 90.846 93.2946C91.0031 93.5466 91.3013 93.6361 91.7324 93.5622C91.9234 93.5333 92.1059 93.4631 92.2672 93.3568C92.4286 93.2504 92.5649 93.1103 92.6668 92.9461C93.3432 91.8739 92.7815 89.815 92.7521 89.7088C92.7441 89.6783 92.7296 89.6498 92.7094 89.6255C92.6945 89.6063 92.6762 89.5899 92.6554 89.5773C92.6342 89.564 92.6109 89.5544 92.5864 89.5488C92.557 89.5415 92.5264 89.5404 92.4965 89.5457C91.2469 89.7238 90.0379 90.1183 88.9236 90.7112ZM90.3978 91.5215C90.1229 91.7407 89.7986 91.8895 89.4532 91.9548C89.3864 91.965 89.3182 91.9609 89.2532 91.9428C89.1881 91.9247 89.1276 91.8931 89.0756 91.8501C88.808 91.6224 88.846 91.4877 88.8578 91.4421C89.0011 90.9331 90.5723 90.409 91.9278 90.115C91.4667 90.6343 90.9541 91.1056 90.3978 91.5215ZM92.035 92.9645C91.9215 93.0433 91.7914 93.095 91.6548 93.1157C91.5255 93.1376 91.299 93.1609 91.2347 93.0582C91.0286 92.7263 91.6531 91.4622 92.4215 90.3239C92.633 91.1111 92.5832 91.9456 92.2795 92.702C92.2158 92.8036 92.1324 92.8913 92.0342 92.96L92.035 92.9645Z" fill="url(#paint4_linear)"/>
<path opacity="0.2" d="M99.511 95.5826L105.474 91.7616L111.011 97.9701L105.537 103.391L99.511 95.5826Z" fill="black"/>
<path d="M100.475 98.5165C100.475 98.5165 105.284 104.605 111.588 111.942C117.008 118.393 122.775 124.545 128.863 130.368C128.984 130.474 129.094 130.582 129.202 130.678C131.231 132.613 133.446 134.343 135.816 135.843C141.178 138.961 149.06 138.193 156.634 135.734C164.455 133.177 171.935 128.809 175.952 125.037C179.269 121.998 182.164 118.53 184.562 114.724L176.349 100.351C176.349 100.351 162.956 106.496 141.398 119.749C141.224 119.87 141.036 119.982 140.849 120.094L127.832 109.11L109.445 93.5991L100.475 98.5165Z" fill="url(#paint5_linear)"/>
<path d="M110.585 93.917L100.321 99.8265L99.0134 97.9485L108.757 92.5223L110.585 93.917Z" fill="url(#paint6_linear)"/>
<path opacity="0.2" d="M129.202 130.678C131.231 132.613 133.447 134.343 135.816 135.843C141.179 138.961 149.06 138.193 156.634 135.734C159.933 132 162.676 127.811 164.78 123.294L174.018 120.262L164.299 119.553L129.202 130.678Z" fill="black"/>
<path opacity="0.2" d="M110.585 93.917L100.321 99.8265L99.0134 97.9485L108.757 92.5223L110.585 93.917Z" fill="url(#paint7_linear)"/>
<path opacity="0.2" d="M111.589 111.942C117.008 118.394 122.775 124.545 128.864 130.369L142.554 121.297L141.399 119.749C141.224 119.87 141.037 119.982 140.849 120.094L127.833 109.11C123.795 109.7 117.814 110.663 111.589 111.942Z" fill="black"/>
<path d="M61.7689 122.31L64.0025 116.317L72.7207 118.442L80.7146 120.403L79.2218 127.953L69.9807 124.972L61.7689 122.31Z" fill="url(#paint8_linear)"/>
<path d="M64.8678 115.171C65.524 115.433 61.9808 123.363 61.9808 123.363C61.9808 123.363 55.0374 126.467 52.0875 130.897C49.1375 135.327 47.2359 131.529 49.2557 126.103C51.2754 120.677 52.8176 116.537 54.2518 112.681C55.6861 108.826 58.07 112.46 64.8678 115.171Z" fill="#585979"/>
<path d="M58.3064 126.863C58.1932 127.111 58.1678 127.389 58.2344 127.653C58.3045 127.858 58.5003 128.114 59.0267 128.171C59.1549 128.184 59.2842 128.169 59.4065 128.129C59.5287 128.088 59.6412 128.023 59.7368 127.937C60.1869 127.446 60.4906 126.839 60.6136 126.184C60.7207 126.975 60.9334 127.713 61.3501 127.894C61.5079 127.946 61.6781 127.947 61.8364 127.897C61.9948 127.846 62.1334 127.748 62.2325 127.614C62.3736 127.482 62.4842 127.32 62.5566 127.14C62.629 126.961 62.6615 126.767 62.6518 126.574C62.6043 125.307 60.9775 123.926 60.8934 123.855C60.8695 123.835 60.8416 123.819 60.8113 123.81C60.788 123.803 60.7633 123.8 60.7388 123.802C60.7138 123.802 60.689 123.806 60.6653 123.815C60.6371 123.826 60.6115 123.843 60.59 123.864C59.6599 124.723 58.8871 125.738 58.3064 126.863ZM59.9801 126.696C59.8763 127.033 59.6919 127.339 59.4431 127.589C59.3933 127.634 59.3346 127.669 59.2706 127.691C59.2066 127.713 59.1387 127.721 59.0714 127.716C58.7212 127.678 58.6782 127.546 58.6629 127.502C58.4902 127.002 59.4926 125.681 60.4444 124.672C60.3585 125.362 60.2031 126.041 59.9806 126.699L59.9801 126.696ZM62.1444 126.956C62.0947 127.086 62.0164 127.202 61.9152 127.296C61.8164 127.39 61.6472 127.535 61.5358 127.487C61.1781 127.329 60.9793 125.933 60.9698 124.56C61.5888 125.09 62.0193 125.807 62.197 126.602C62.2034 126.724 62.1857 126.845 62.145 126.96L62.1444 126.956Z" fill="url(#paint9_linear)"/>
<path opacity="0.2" d="M69.7942 124.898L72.5538 118.376L80.6289 120.363L79.1776 127.928L69.7942 124.898Z" fill="black"/>
<path d="M175.812 97.198C175.812 97.198 154.668 93.1263 117.747 121.75L76.8687 117.644L72.2454 126.775C72.2454 126.775 109.941 138.508 122.504 137.59C135.068 136.673 163.897 120.83 163.897 120.83L187.415 110.359L175.812 97.198Z" fill="url(#paint10_linear)"/>
<path d="M78.5833 116.851L76.243 117.246L71.0738 127.101L73.6423 128.059L78.5833 116.851Z" fill="url(#paint11_linear)"/>
<path opacity="0.2" d="M78.5833 116.851L76.243 117.246L71.0738 127.101L73.6423 128.059L78.5833 116.851Z" fill="url(#paint12_linear)"/>
<path d="M156.407 98.1575C156.407 98.1575 163.303 116.566 178.31 117.028C180.685 117.132 183.058 116.787 185.305 116.01C187.439 115.219 189.395 114.016 191.064 112.468C192.732 110.921 194.079 109.06 195.028 106.992C195.624 105.815 196.087 104.575 196.41 103.296L173.547 96.1766L171.663 95.5834C168.843 95.4814 166.02 95.5918 163.218 95.9137C160.491 96.2592 157.811 96.9223 156.407 98.1575Z" fill="url(#paint13_linear)"/>
<path opacity="0.2" d="M156.407 98.1575C156.407 98.1575 163.303 116.566 178.31 117.028C180.685 117.132 183.058 116.787 185.305 116.01C187.439 115.219 189.395 114.016 191.064 112.468C192.732 110.921 194.079 109.06 195.028 106.992C195.624 105.815 196.087 104.575 196.41 103.296L173.547 96.1766L171.663 95.5834C168.843 95.4814 166.02 95.5918 163.218 95.9137C160.491 96.2592 157.811 96.9223 156.407 98.1575Z" fill="url(#paint14_linear)"/>
<path opacity="0.2" d="M171.392 108.274C176.328 112.046 180.783 114.682 185.305 116.012C187.439 115.221 189.396 114.018 191.064 112.47C192.732 110.923 194.079 109.062 195.028 106.994C188.07 102.999 180.898 99.388 173.544 96.1781L171.659 95.5849C168.84 95.4828 166.017 95.5932 163.214 95.9152C162.704 98.8024 164.519 103.025 171.392 108.274Z" fill="black"/>
<path d="M209.242 73.3341C195.864 71.9318 182.344 73.7535 169.814 78.6468C169.814 78.6468 164.681 91.7007 164.041 101.425C164.041 101.425 178.041 116.016 193.262 112.941C208.483 109.867 209.242 73.3341 209.242 73.3341Z" fill="url(#paint15_linear)"/>
<path opacity="0.2" d="M164.037 101.42C164.037 101.42 178.04 116.008 193.258 112.936C208.476 109.864 209.244 73.3338 209.244 73.3338C195.864 71.9321 182.343 73.7537 169.811 78.6461C167.416 84.8694 165.616 91.3055 164.435 97.8682C164.25 99.08 164.107 100.273 164.037 101.42Z" fill="url(#paint16_linear)"/>
<path opacity="0.2" d="M164.435 97.8682C170.513 93.4731 171.754 82.2151 169.811 78.6461C167.416 84.8694 165.616 91.3056 164.435 97.8682Z" fill="black"/>
<path d="M208.231 56.3133C208.231 56.3133 205.932 35.601 188.778 43.5921C167.246 53.6239 185.218 78.462 195.721 72.9912C206.225 67.5204 208.231 56.3133 208.231 56.3133Z" fill="#585979"/>
<path d="M181.883 77.5967C181.883 77.5967 187.89 88.2874 194.836 86.3578C196.676 85.8402 198.346 84.8448 199.677 83.4729C201.007 82.101 201.951 80.4014 202.412 78.5466C202.515 78.1868 202.594 77.8208 202.65 77.4509C202.65 77.4509 198.869 76.9864 200.621 73.4472L190.608 68.0661C190.778 69.0148 190.892 69.9726 190.949 70.9347C191.027 72.6487 190.896 74.5987 189.931 75.2509C188.105 76.4884 181.883 77.5967 181.883 77.5967Z" fill="url(#paint17_linear)"/>
<path opacity="0.2" d="M190.949 70.9333C192.348 74.8519 195.622 80.6606 202.412 78.5453C202.515 78.1854 202.594 77.8195 202.65 77.4496C202.65 77.4496 198.869 76.985 200.621 73.4458L190.608 68.0647C190.778 69.0135 190.892 69.9713 190.949 70.9333Z" fill="black"/>
<path d="M194.619 47.7961C202.445 45.851 206.009 49.4135 208.585 57.3376C211.807 67.2375 211.352 74.9543 201.031 75.231C187.018 75.6148 181.621 51.0275 194.619 47.7961Z" fill="url(#paint18_linear)"/>
<path d="M203.417 58.1572C204.335 59.1713 205.372 60.0711 206.505 60.8373C206.356 61.2174 206.106 61.549 205.78 61.7956C205.455 62.0422 205.068 62.1942 204.662 62.2348L203.417 58.1572Z" fill="#D4827D"/>
<path d="M198.467 58.7093C198.643 59.3479 198.439 59.9611 198.011 60.0781C197.582 60.195 197.097 59.7737 196.922 59.1316C196.748 58.4894 196.951 57.8798 197.379 57.7628C197.808 57.6458 198.293 58.0694 198.467 58.7093Z" fill="#585979"/>
<path d="M197.21 57.8415L198.451 56.9158C198.451 56.9158 198.075 58.2754 197.21 57.8415Z" fill="#585979"/>
<path d="M206.375 56.3971C206.55 57.037 206.346 57.6491 205.919 57.7659C205.491 57.8826 205.005 57.4615 204.829 56.8196C204.653 56.1776 204.859 55.5676 205.286 55.4508C205.713 55.334 206.201 55.763 206.375 56.3971Z" fill="#585979"/>
<path d="M205.119 55.5351L206.36 54.6094C206.36 54.6094 205.989 55.9683 205.119 55.5351Z" fill="#585979"/>
<path d="M197.045 53.3238C196.408 53.4024 195.798 53.6259 195.262 53.9772C194.725 54.3284 194.276 54.798 193.949 55.3499" stroke="#585979" stroke-width="0.725" stroke-linecap="round" stroke-linejoin="round"/>
<path d="M202.652 51.579C203.153 51.3106 203.708 51.1593 204.276 51.1363C204.843 51.1134 205.409 51.2194 205.93 51.4464" stroke="#585979" stroke-width="0.725" stroke-linecap="round" stroke-linejoin="round"/>
<path d="M189.345 63.1132C189.345 63.1132 191.406 55.7742 189.617 50.9471C189.617 50.9471 203.551 40.7554 208.23 56.3075C208.23 56.3075 206.267 41.9523 192.74 44.9854C179.23 48.0143 182.554 67.9165 190.96 72.0533C190.96 72.0533 188.081 67.6979 189.345 63.1132Z" fill="#585979"/>
<path d="M191.034 64.4479C190.734 63.5612 190.094 62.83 189.255 62.4143C188.416 61.9986 187.446 61.9323 186.558 62.2301C184.199 63.0969 184.281 68.3633 190.611 68.0608C191.52 68.0176 191.797 67.0505 191.034 64.4479Z" fill="#FFE3DF"/>
<path d="M206.143 65.1894C205.962 66.1589 205.851 67.1402 205.811 68.1257C205.639 68.1491 205.467 68.1734 205.294 68.1876C202.949 68.4482 201.775 67.7935 201.185 66.9898C200.905 66.5916 200.725 66.1318 200.66 65.6493C200.613 65.3773 200.605 65.1001 200.636 64.8259C202.154 65.308 203.759 65.4582 205.341 65.2663C205.836 65.2344 206.143 65.1894 206.143 65.1894Z" fill="#585979"/>
<path d="M205.342 65.2656L205.222 66.1283C203.013 66.3693 201.426 66.2417 200.66 65.6488C200.613 65.3768 200.605 65.0997 200.635 64.8254C202.155 65.3077 203.76 65.4578 205.342 65.2656Z" fill="white"/>
<path d="M205.295 68.1873C202.949 68.4478 201.775 67.7932 201.185 66.9895C202.079 66.9078 202.98 66.9847 203.846 67.2168C204.419 67.3808 204.925 67.7202 205.295 68.1873Z" fill="#DE5753"/>
<path d="M181.284 51.8182C181.284 51.8182 179.115 45.6855 171.695 46.9376C164.274 48.1896 164.005 52.4274 157.838 53.9414C151.671 55.4553 147.412 51.7143 146.842 48.3343C146.842 48.3343 145.131 50.286 146.73 53.4924C145.824 52.6543 145.255 51.514 145.131 50.286C145.131 50.286 142.899 54.9777 148.275 60.8671C153.652 66.7565 163.54 65.3837 167.147 62.8601C176.321 56.4424 181.112 59.3028 181.112 59.3028L181.284 51.8182Z" fill="#585979"/>
<path d="M180.282 58.4096C180.282 58.4096 176.329 56.036 169.428 61.7058C162.526 67.3756 153.567 68.9171 150.217 64.7443" stroke="#585979" stroke-width="0.5" stroke-linecap="round" stroke-linejoin="round"/>
<path d="M150.281 74.9261C156.474 72.735 162.635 70.5495 162.635 70.5495C162.635 70.5495 167.557 65.4726 169.75 64.3061C171.943 63.1395 176.54 68.6366 176.663 70.0932C176.787 71.5497 167.22 76.7294 167.22 76.7294L164.653 76.5311C164.653 76.5311 157.155 80.0585 150.354 83.2667L150.281 74.9261Z" fill="url(#paint19_linear)"/>
<path d="M155.742 72.4001L158.112 81.0752L169.812 78.6426C169.812 78.6426 171.537 91.2937 164.827 95.6143C164.827 95.6143 134.298 95.8175 131.714 90.5732C129.131 85.3288 134.355 78.6778 155.742 72.4001Z" fill="url(#paint20_linear)"/>
<path opacity="0.1" d="M131.721 90.5743C134.301 95.8123 164.823 95.6138 164.823 95.6138C171.533 91.2955 169.811 78.6462 169.811 78.6462L162.559 80.1563L158.107 81.0794L155.738 72.4018C134.356 78.6799 129.128 85.327 131.721 90.5743Z" fill="url(#paint21_linear)"/>
<path opacity="0.2" d="M146.4 86.3444C146.4 86.3444 154.65 86.064 158.647 84.278C159.56 83.9172 160.383 83.3615 161.058 82.6496C161.734 81.9378 162.246 81.0869 162.559 80.1566L158.107 81.0796L146.4 86.3444Z" fill="black"/>
<path d="M95 270.489C95.0051 244.666 104.855 219.817 122.542 201.001C140.23 182.186 164.426 170.819 190.203 169.217C215.979 167.614 241.397 175.896 261.279 192.376C281.162 208.856 294.015 232.294 297.219 257.917C299.721 277.965 296.181 298.304 287.051 316.328C276.753 336.699 259.886 353.002 239.176 362.605C218.466 372.207 195.123 374.547 172.919 369.248C150.715 363.948 130.946 351.317 116.808 333.397C102.669 315.477 94.9858 293.314 95 270.489Z" fill="url(#paint22_linear)"/>
<path d="M103.705 311.68C152.764 336.855 169.585 326.297 222 307.618C251.956 296.932 273.822 306.32 287.048 316.326C278.373 333.455 265.018 347.772 248.531 357.617C232.045 367.461 213.104 372.429 193.908 371.942C174.712 371.456 156.047 365.536 140.081 354.869C124.114 344.202 111.501 329.227 103.705 311.68Z" fill="url(#paint23_linear)"/>
<path d="M98.9 242.457C105.364 219.984 119.389 200.432 138.606 187.104C157.822 173.776 181.051 167.49 204.367 169.307C227.683 171.125 249.657 180.935 266.574 197.08C283.492 213.225 294.317 234.715 297.219 257.918C288.294 249.501 277.732 243.01 266.19 238.848C254.648 234.687 242.373 232.944 230.129 233.728C176.779 236.865 135.777 274.552 98.9 242.457Z" fill="url(#paint24_linear)"/>
<circle cx="338" cy="174" r="4" fill="#9EA1EB"/>
<circle cx="248" cy="390" r="6" fill="#9EA1EB"/>
<defs>
<linearGradient id="paint0_linear" x1="253.495" y1="53.9338" x2="269.174" y2="59.1599" gradientUnits="userSpaceOnUse">
<stop offset="0.0625" stop-color="#FFC19E"/>
<stop offset="1" stop-color="white"/>
</linearGradient>
<linearGradient id="paint1_linear" x1="244.823" y1="55.1869" x2="241.192" y2="88.3104" gradientUnits="userSpaceOnUse">
<stop stop-color="#5FA8ED"/>
<stop offset="1" stop-color="#7ED5B7"/>
</linearGradient>
<linearGradient id="paint2_linear" x1="244.821" y1="55.1801" x2="241.185" y2="88.3094" gradientUnits="userSpaceOnUse">
<stop stop-color="#5FA8ED"/>
<stop offset="1" stop-color="#7ED5B7"/>
</linearGradient>
<linearGradient id="paint3_linear" x1="109.577" y1="96.9488" x2="93.8991" y2="91.7228" gradientUnits="userSpaceOnUse">
<stop offset="0.0625" stop-color="#FFC19E"/>
<stop offset="1" stop-color="white"/>
</linearGradient>
<linearGradient id="paint4_linear" x1="91.5431" y1="90.2504" x2="90.5322" y2="94.0294" gradientUnits="userSpaceOnUse">
<stop stop-color="#5FA8ED"/>
<stop offset="1" stop-color="#7ED5B7"/>
</linearGradient>
<linearGradient id="paint5_linear" x1="157.757" y1="92.5729" x2="149.133" y2="144.801" gradientUnits="userSpaceOnUse">
<stop stop-color="#8177F7"/>
<stop offset="1" stop-color="#799FF8"/>
</linearGradient>
<linearGradient id="paint6_linear" x1="107.064" y1="93.6354" x2="106.488" y2="99.8918" gradientUnits="userSpaceOnUse">
<stop stop-color="#5FA8ED"/>
<stop offset="1" stop-color="#7ED5B7"/>
</linearGradient>
<linearGradient id="paint7_linear" x1="107.064" y1="93.6354" x2="106.488" y2="99.8918" gradientUnits="userSpaceOnUse">
<stop stop-color="#5FA8ED"/>
<stop offset="1" stop-color="#7ED5B7"/>
</linearGradient>
<linearGradient id="paint8_linear" x1="78.2211" y1="119.059" x2="72.5449" y2="129.08" gradientUnits="userSpaceOnUse">
<stop offset="0.0625" stop-color="#FFC19E"/>
<stop offset="1" stop-color="white"/>
</linearGradient>
<linearGradient id="paint9_linear" x1="60.9831" y1="124.362" x2="59.7098" y2="128.384" gradientUnits="userSpaceOnUse">
<stop stop-color="#5FA8ED"/>
<stop offset="1" stop-color="#7ED5B7"/>
</linearGradient>
<linearGradient id="paint10_linear" x1="152.969" y1="104.403" x2="153.511" y2="140.172" gradientUnits="userSpaceOnUse">
<stop stop-color="#8177F7"/>
<stop offset="1" stop-color="#799FF8"/>
</linearGradient>
<linearGradient id="paint11_linear" x1="76.2755" y1="118.7" x2="72.5927" y2="127.725" gradientUnits="userSpaceOnUse">
<stop stop-color="#5FA8ED"/>
<stop offset="1" stop-color="#7ED5B7"/>
</linearGradient>
<linearGradient id="paint12_linear" x1="76.2755" y1="118.7" x2="72.5927" y2="127.725" gradientUnits="userSpaceOnUse">
<stop stop-color="#5FA8ED"/>
<stop offset="1" stop-color="#7ED5B7"/>
</linearGradient>
<linearGradient id="paint13_linear" x1="184.042" y1="95.7646" x2="180.01" y2="120.672" gradientUnits="userSpaceOnUse">
<stop stop-color="#5FA8ED"/>
<stop offset="1" stop-color="#7ED5B7"/>
</linearGradient>
<linearGradient id="paint14_linear" x1="184.042" y1="95.7646" x2="180.01" y2="120.672" gradientUnits="userSpaceOnUse">
<stop stop-color="#5FA8ED"/>
<stop offset="1" stop-color="#7ED5B7"/>
</linearGradient>
<linearGradient id="paint15_linear" x1="195.884" y1="78.0916" x2="185.893" y2="117.321" gradientUnits="userSpaceOnUse">
<stop stop-color="#5FA8ED"/>
<stop offset="1" stop-color="#7ED5B7"/>
</linearGradient>
<linearGradient id="paint16_linear" x1="195.885" y1="78.0906" x2="185.898" y2="117.317" gradientUnits="userSpaceOnUse">
<stop stop-color="#5FA8ED"/>
<stop offset="1" stop-color="#7ED5B7"/>
</linearGradient>
<linearGradient id="paint17_linear" x1="196.812" y1="69.2105" x2="193.793" y2="86.5691" gradientUnits="userSpaceOnUse">
<stop offset="0.0625" stop-color="#FFC19E"/>
<stop offset="1" stop-color="white"/>
</linearGradient>
<linearGradient id="paint18_linear" x1="181.938" y1="77.6524" x2="210.078" y2="55.1401" gradientUnits="userSpaceOnUse">
<stop offset="0.0625" stop-color="#FFC19E"/>
<stop offset="1" stop-color="white"/>
</linearGradient>
<linearGradient id="paint19_linear" x1="151.386" y1="73.6324" x2="164.227" y2="80.9261" gradientUnits="userSpaceOnUse">
<stop offset="0.0625" stop-color="#FFC19E"/>
<stop offset="1" stop-color="white"/>
</linearGradient>
<linearGradient id="paint20_linear" x1="157.84" y1="75.5278" x2="153.739" y2="101.11" gradientUnits="userSpaceOnUse">
<stop stop-color="#5FA8ED"/>
<stop offset="1" stop-color="#7ED5B7"/>
</linearGradient>
<linearGradient id="paint21_linear" x1="157.84" y1="75.5286" x2="153.739" y2="101.108" gradientUnits="userSpaceOnUse">
<stop stop-color="#5FA8ED"/>
<stop offset="1" stop-color="#7ED5B7"/>
</linearGradient>
<linearGradient id="paint22_linear" x1="240.439" y1="343.46" x2="144.212" y2="169.021" gradientUnits="userSpaceOnUse">
<stop stop-color="#EF8197"/>
<stop offset="0.942708" stop-color="#F7C58F"/>
</linearGradient>
<linearGradient id="paint23_linear" x1="235.061" y1="362.255" x2="219.632" y2="288.028" gradientUnits="userSpaceOnUse">
<stop stop-color="#EF8197"/>
<stop offset="0.942708" stop-color="#F7C58F"/>
</linearGradient>
<linearGradient id="paint24_linear" x1="240.986" y1="245.408" x2="217.758" y2="151.494" gradientUnits="userSpaceOnUse">
<stop stop-color="#EF8197"/>
<stop offset="0.942708" stop-color="#F7C58F"/>
</linearGradient>
</defs>
</svg>
