<svg width="495" height="445" viewBox="0 0 495 445" fill="none" xmlns="http://www.w3.org/2000/svg">
<path d="M273.718 72.1558C268.768 77.9848 261.62 87.993 257.44 92.3923L242.339 84.0193L229.1 74.2004L226.316 82.494C226.316 82.494 242.043 98.3312 245.563 101.081C249.742 104.38 252.821 107.35 256.891 109.549C259.97 111.199 263.489 108.779 267.119 105.59C272.288 101.081 286.365 86.5633 286.365 86.5633L294.064 61.9277C285.925 61.1578 278.777 66.2169 273.718 72.1558Z" fill="url(#paint0_linear)"/>
<path d="M226.389 71.554C225.505 70.4253 224.808 70.4674 223.985 69.4301C223.618 68.882 223.162 68.3927 222.707 67.9035C222.191 67.3229 221.648 66.8924 221.105 66.462C217.69 63.4551 215.046 60.4608 211.543 57.5127C211.333 57.3889 211.211 57.2062 210.913 57.1411C210.702 57.0173 210.378 57.1024 210.264 57.3114C210.176 57.3702 210.211 57.6117 210.184 57.7619C210.06 58.9045 210.471 60.0857 211.057 61.1494C211.643 62.213 212.343 63.0677 213.104 64.0137C213.621 64.5943 214.111 65.3251 214.627 65.9057C215.511 67.0344 216.457 68.2544 217.077 69.5596C217.173 69.8925 217.331 70.3167 217.576 70.6821C217.698 70.8648 217.821 71.0475 218.004 71.3215C217.163 70.826 216.173 70.298 215.333 69.8025C214.912 69.5548 214.255 69.3333 214.026 69.7513C213.825 70.0192 213.921 70.352 214.017 70.6849C214.584 72.2904 215.915 73.5167 217.211 74.5014C218.087 75.2384 218.901 75.8841 219.689 76.6799C220.267 77.3518 220.818 78.174 221.396 78.8459C222.525 80.34 223.917 81.6576 225.538 82.5572C227.412 84.2139 230.015 83.9246 233.442 84.6727L231.174 75.6001C229.655 74.7972 227.273 72.6827 226.389 71.554Z" fill="url(#paint1_linear)"/>
<path d="M294.724 61.9282C288.895 60.1685 280.426 63.5779 273.717 71.9364C267.118 80.0749 263.599 84.5841 263.599 84.5841C263.599 84.5841 266.679 93.3826 276.027 97.4519L289.445 85.464L294.724 61.9282Z" fill="url(#paint2_linear)"/>
<path d="M402.285 31.1333C404.925 25.1944 409.544 20.3553 414.493 16.176C419.442 11.9967 424.831 8.36738 429.78 4.07814C430.22 3.63822 430.77 3.19829 430.88 2.53841C431.1 0.998684 429.231 0.11884 427.911 0.338801C427.031 0.448781 426.261 0.778723 425.381 0.778723C424.611 0.778723 423.841 0.338801 422.962 0.22882C421.422 -0.211102 419.772 0.11884 418.232 0.11884C416.583 0.22882 415.043 -0.211102 413.393 0.22882C409.214 1.32863 406.794 5.83783 402.725 7.15759C399.756 8.14742 396.236 7.26757 393.487 8.91728C390.847 10.567 390.077 13.9764 389.967 17.1658C389.967 19.5854 390.297 21.2351 389.857 23.6547C389.418 25.9643 387.328 32.0132 382.929 41.0316C383.589 41.6915 398.106 47.9604 398.326 46.5306C399.206 42.9013 400.966 34.2128 402.285 31.1333Z" fill="url(#paint3_linear)"/>
<path d="M454.966 70.5063C460.025 66.437 467.504 64.0175 473.883 62.5877C480.261 61.158 486.64 60.3881 493.019 58.8484C493.679 58.7384 494.339 58.5184 494.669 57.9685C495.659 56.6488 494.229 55.109 493.019 54.6691C492.249 54.4492 491.369 54.3392 490.6 53.8993C489.94 53.4593 489.39 52.7995 488.73 52.2495C487.52 51.1497 485.98 50.5998 484.551 49.94C483.011 49.2801 481.801 48.1803 480.151 47.7404C475.972 46.8605 471.683 49.72 467.504 49.0601C464.424 48.5102 461.675 46.0906 458.595 46.3106C455.516 46.5306 453.206 49.2801 451.776 52.0296C450.677 54.1192 450.237 55.8789 448.697 57.7486C447.267 59.6182 442.648 64.1274 434.51 70.0664C434.729 70.9462 444.298 81.3944 444.298 81.3944C446.497 78.5349 452.326 72.7059 454.966 70.5063Z" fill="url(#paint4_linear)"/>
<path d="M381.169 89.3133C388.207 86.0139 390.187 83.4843 391.177 80.0749C393.156 72.9262 397.116 55.2193 401.075 35.9727C399.205 38.0623 386.998 35.6428 386.558 33.1132C377.429 53.0197 373.14 58.6287 372.37 70.3966C364.232 72.3763 349.274 76.3356 344.435 77.4354C331.347 80.5148 321.999 90.963 317.82 98.2217L331.237 111.749C344.325 104.381 374.13 92.6127 381.169 89.3133Z" fill="url(#paint5_linear)"/>
<path opacity="0.4" d="M381.169 89.3133C388.207 86.0139 390.187 83.4843 391.177 80.0749C393.156 72.9262 397.116 55.2193 401.075 35.9727C399.205 38.0623 386.998 35.6428 386.558 33.1132C377.429 53.0197 373.14 58.6287 372.37 70.3966C364.232 72.3763 349.274 76.3356 344.435 77.4354C331.347 80.5148 321.999 90.963 317.82 98.2217L331.237 111.749C344.325 104.381 374.13 92.6127 381.169 89.3133Z" fill="url(#paint6_linear)"/>
<path opacity="0.15" d="M380.399 76.7758C380.399 76.7758 380.289 69.6271 372.7 66.4376C372.48 67.7574 372.37 69.0771 372.26 70.5069C378.419 72.5965 380.399 76.7758 380.399 76.7758Z" fill="black"/>
<path d="M403.715 93.932C403.715 93.932 381.718 91.6224 369.401 90.1927C355.873 80.2945 338.276 83.8138 337.066 85.9035L349.934 122.307C373.58 120.547 398.326 119.448 410.423 116.038C422.301 113.069 449.247 76.3352 449.247 76.3352C449.576 74.2455 442.318 67.0968 438.029 66.8768C425.931 76.1152 407.894 84.0338 403.715 93.932Z" fill="url(#paint7_linear)"/>
<path opacity="0.3" d="M403.715 93.932C403.715 93.932 381.718 91.6224 369.401 90.1927C355.873 80.2945 338.276 83.8138 337.066 85.9035L349.934 122.307C373.58 120.547 398.326 119.448 410.423 116.038C422.301 113.069 449.247 76.3352 449.247 76.3352C449.576 74.2455 442.318 67.0968 438.029 66.8768C425.931 76.1152 407.894 84.0338 403.715 93.932Z" fill="url(#paint8_linear)"/>
<path opacity="0.15" d="M405.364 90.9623C404.594 92.0621 404.154 92.722 403.604 93.9318C407.674 95.2515 410.973 99.4308 411.633 101.85C411.743 101.85 412.293 96.0214 405.364 90.9623Z" fill="black"/>
<path d="M303.632 64.3475C311.111 67.427 314.3 68.3068 317.82 70.0665C321.889 72.1561 323.099 74.9056 325.738 78.9749C328.378 81.7244 331.017 82.9342 332.557 82.6043C335.197 82.3843 345.205 86.4536 350.264 96.2419C355.543 106.58 354.553 117.028 351.034 122.857C345.425 123.627 335.197 125.497 319.36 123.627C309.791 122.417 300.553 116.698 294.724 111.969C286.255 105.04 281.306 96.5718 279.217 85.7937C276.247 71.0563 283.066 55.879 303.632 64.3475Z" fill="url(#paint9_linear)"/>
<path d="M264.369 47.7404C265.029 48.6203 266.568 50.16 267.558 50.4899C269.098 51.0398 269.868 49.2801 271.188 48.2903C272.067 47.6304 272.727 46.6406 272.947 45.5408C273.167 44.441 272.947 43.3412 272.947 42.1314C272.947 41.3615 272.617 40.5917 272.287 39.9318C271.628 38.502 270.638 37.1823 269.318 36.1925C268.768 35.7525 268.108 35.4226 267.338 35.2026C266.788 35.0927 266.458 35.2026 266.019 35.6426C265.139 36.7424 264.699 38.0621 264.589 39.4919C264.479 41.2516 264.919 43.0113 265.579 44.551C264.919 43.8911 264.369 43.3412 263.709 42.6813C263.599 42.5713 263.599 42.5713 263.489 42.4613C263.269 42.3514 263.159 42.4613 263.049 42.6813C262.939 42.9013 262.939 43.0113 262.939 43.2312C262.829 44.1111 262.939 45.8707 264.369 47.7404Z" fill="#263238"/>
<path d="M299.453 58.848L302.972 67.2065C303.962 69.7361 303.192 74.5752 296.923 76.9948C292.744 78.5345 289.995 76.2249 289.995 76.2249L286.365 70.9459L299.453 58.848Z" fill="url(#paint10_linear)"/>
<path d="M303.632 52.1391C303.632 52.1391 302.862 56.2084 302.092 57.9681C300.773 60.8276 297.693 61.1575 297.693 61.1575L297.253 55.5485L303.632 52.1391Z" fill="#263238"/>
<path d="M299.783 36.9619C299.783 36.9619 302.202 36.412 304.292 38.1717C306.272 39.9314 305.612 45.9803 303.632 52.0292L299.343 52.7991L299.783 36.9619Z" fill="#263238"/>
<path d="M303.412 56.3189C303.192 56.5388 302.862 56.6488 302.642 56.7588C301.542 57.1987 300.663 57.3087 299.893 57.3087C297.693 57.3087 297.143 55.549 297.143 55.549L297.583 60.1682L295.691 65.4114C295.031 65.4114 294.603 67.1576 294.053 67.0476C292.425 67.7973 292.959 67.6458 291.919 69.8014C290.38 69.3615 289.445 69.8465 289.445 69.8465C286.695 70.9463 283.616 71.8261 283.396 71.8261C283.396 71.8261 279.216 72.706 277.127 72.596C273.607 72.266 270.858 69.9565 269.648 66.3271C267.558 60.3881 267.009 55.329 267.668 43.4511C268.438 30.3635 283.396 29.2636 291.864 33.8828C300.333 38.502 297.473 49.5001 297.473 49.5001C298.023 47.7404 298.353 46.6406 299.343 45.4308C300.333 44.221 304.292 43.4511 306.272 46.9705C308.141 50.2699 305.832 54.7791 303.412 56.3189Z" fill="url(#paint11_linear)"/>
<path d="M288.235 40.7013C288.345 45.4304 291.864 45.9803 293.184 45.8703C292.964 48.3999 292.964 49.3897 293.514 51.0394C293.954 52.4692 295.163 54.3388 296.593 53.459C297.033 53.1291 297.143 52.6891 297.143 52.1392C297.253 51.4793 297.253 50.3795 297.473 49.6097C298.793 45.7604 299.893 44.9905 301.322 44.6606C301.102 43.4508 300.882 42.131 300.662 41.0312C300.113 37.7318 300.003 33.9924 298.023 31.023C295.933 27.8335 292.304 26.5138 288.675 25.9639C285.595 25.5239 282.406 25.5239 279.326 25.304C275.917 25.084 272.397 24.0942 269.758 21.6746C269.208 21.1247 268.548 20.5748 267.778 20.7948C267.008 21.0147 266.788 21.8946 266.678 22.5545C266.239 25.414 266.458 28.2735 267.778 31.023C267.228 30.803 266.898 30.693 266.458 30.3631C265.799 29.8132 265.249 29.3733 264.589 28.8234C264.369 28.6034 264.039 28.3834 263.819 28.4934C263.379 28.6034 263.269 29.1533 263.269 29.5932C263.269 33.5525 265.359 37.1819 267.998 39.9314C271.848 44.1106 278.776 44.6606 288.235 40.7013Z" fill="#263238"/>
<path d="M299.893 37.9521L304.952 34.8726C304.072 33.4429 302.312 33.0029 300.882 33.7728C299.453 34.5427 299.013 36.5223 299.893 37.9521Z" fill="#263238"/>
<path d="M296.923 62.4775C296.923 62.4775 296.263 66.5468 294.724 68.7464C294.284 69.5162 291.864 71.7158 287.685 72.9256L286.365 71.056L289.334 69.9561C290.654 69.4062 291.974 68.7464 292.744 68.0865C294.504 66.8767 296.483 63.5773 296.923 62.4775Z" fill="#B16668"/>
<path d="M282.076 53.0189C282.186 53.8988 282.846 54.5586 283.725 54.5586C284.605 54.4487 285.265 53.7888 285.155 52.7989C285.045 51.9191 284.385 51.2592 283.505 51.2592C282.736 51.3692 282.076 52.1391 282.076 53.0189Z" fill="#263238"/>
<path d="M282.846 47.5204L286.475 48.4003C286.695 47.3004 286.035 46.3106 285.045 46.0907C284.055 45.8707 283.066 46.5306 282.846 47.5204Z" fill="#263238"/>
<path d="M283.946 61.9275L278.337 64.457C278.997 66.1067 280.756 66.7666 282.296 66.1067C283.946 65.3369 284.606 63.5772 283.946 61.9275Z" fill="#874C4C"/>
<path d="M283.616 63.2471C282.076 63.2471 280.866 64.4569 280.866 65.9966C280.866 66.1066 280.866 66.2166 280.866 66.3266C281.306 66.3266 281.856 66.3266 282.296 66.1066C283.396 65.6667 284.056 64.5669 284.056 63.3571C284.056 63.2471 283.836 63.2471 283.616 63.2471Z" fill="#B16668"/>
<path d="M268.548 48.6199L271.958 46.9702C271.518 45.9804 270.418 45.5405 269.428 46.0904C268.548 46.5303 268.108 47.6301 268.548 48.6199Z" fill="#263238"/>
<path d="M269.538 52.4694C269.648 53.3493 270.308 54.0091 271.188 54.0091C272.068 53.8992 272.728 53.2393 272.618 52.2494C272.508 51.3696 271.848 50.7097 270.968 50.7097C270.198 50.8197 269.538 51.5896 269.538 52.4694Z" fill="#263238"/>
<path d="M277.127 51.0391L276.577 61.7072L271.078 60.0575L277.127 51.0391Z" fill="#F8B6A9"/>
<path d="M342.455 117.687C341.905 115.267 337.286 100.53 334.096 91.1813C329.037 76.7739 327.938 72.2647 317.709 70.505C310.011 75.4541 316.28 96.3504 316.28 96.3504L326.728 121.426C326.068 132.534 324.748 151.011 323.428 153.65C319.799 156.51 318.259 161.239 315.62 163.549C312.87 165.858 313.2 167.398 314.74 167.398C317.159 167.398 319.029 165.748 320.899 164.318C321.119 164.208 321.229 164.098 321.449 164.098C321.779 164.208 321.999 164.648 321.669 165.968C320.679 170.367 318.369 173.887 315.95 176.856C315.62 177.296 315.18 177.736 314.96 178.286C314.74 178.836 314.74 179.496 315.07 179.936C315.73 180.815 317.05 180.595 318.039 180.266C323.538 178.066 328.158 171.687 330.687 166.408C333.657 160.029 339.925 137.373 342.455 124.615C343.115 121.206 343.005 120.106 342.455 117.687Z" fill="url(#paint12_linear)"/>
<path d="M317.05 69.7361C327.388 72.4856 329.148 74.7952 331.457 81.284C333.657 87.6629 337.616 100.751 337.616 100.751C337.616 100.751 334.097 106.14 327.828 107.789C321.559 109.439 320.569 108.449 320.569 108.449C320.569 108.449 314.41 94.0418 313.311 89.4226C310.451 76.7748 317.05 69.7361 317.05 69.7361Z" fill="url(#paint13_linear)"/>
<path d="M273 275.472C272.993 240.749 259.747 207.334 235.96 182.033C212.173 156.732 179.634 141.448 144.969 139.293C110.304 137.138 76.1217 148.275 49.3828 170.435C22.6439 192.595 5.35976 224.112 1.05055 258.566C-2.3144 285.525 2.44665 312.874 14.7239 337.111C28.5739 364.503 51.2569 386.426 79.108 399.338C106.959 412.25 138.351 415.397 168.212 408.271C198.073 401.144 224.658 384.16 243.673 360.063C262.687 335.966 273.019 306.164 273 275.472Z" fill="url(#paint14_linear)"/>
<path d="M261.287 330.865C195.312 364.717 172.69 350.52 102.201 325.402C61.9149 311.032 32.5093 323.656 14.7224 337.111C26.3884 360.144 44.3495 379.397 66.5206 392.635C88.6918 405.872 114.164 412.552 139.979 411.898C165.795 411.244 190.896 403.283 212.368 388.94C233.84 374.597 250.803 354.459 261.287 330.865Z" fill="url(#paint15_linear)"/>
<path d="M267.754 237.777C259.061 207.558 240.199 181.266 214.357 163.344C188.514 145.422 157.275 136.969 125.919 139.413C94.5629 141.858 65.0122 155.049 42.2606 176.759C19.5089 198.469 4.95149 227.366 1.04834 258.566C13.0519 247.248 27.2562 238.519 42.778 232.923C58.2997 227.327 74.8071 224.984 91.2735 226.038C163.02 230.256 218.161 280.934 267.754 237.777Z" fill="url(#paint16_linear)"/>
<path d="M140 74.9924C139.999 68.8866 137.67 63.0109 133.487 58.5619C129.305 54.1128 123.584 51.4252 117.489 51.0463C111.394 50.6674 105.384 52.6257 100.682 56.5224C95.9811 60.4191 92.9421 65.9611 92.1845 72.0198C91.5928 76.7603 92.4299 81.5694 94.5886 85.8313C97.0237 90.648 101.012 94.503 105.909 96.7735C110.806 99.044 116.325 99.5974 121.576 98.3443C126.826 97.0911 131.5 94.1046 134.843 89.8673C138.187 85.63 140.003 80.3895 140 74.9924Z" fill="url(#paint17_linear)"/>
<path d="M395 344.986C394.998 333.792 390.728 323.02 383.06 314.863C375.393 306.707 364.904 301.78 353.73 301.085C342.556 300.39 331.537 303.98 322.918 311.124C314.299 318.268 308.727 328.429 307.338 339.536C306.254 348.227 307.788 357.044 311.746 364.857C316.21 373.688 323.522 380.755 332.5 384.918C341.477 389.081 351.597 390.095 361.222 387.798C370.848 385.5 379.417 380.025 385.546 372.257C391.676 364.488 395.006 354.881 395 344.986Z" fill="url(#paint18_linear)"/>
<path d="M29 430.495C28.9993 426.807 27.5922 423.257 25.0654 420.569C22.5385 417.881 19.082 416.257 15.3996 416.028C11.7173 415.799 8.08619 416.982 5.24579 419.337C2.40539 421.691 0.569352 425.039 0.111597 428.699C-0.245852 431.564 0.259901 434.469 1.56408 437.044C3.03532 439.954 5.44487 442.283 8.40341 443.655C11.3619 445.027 14.6966 445.361 17.8687 444.604C21.0407 443.847 23.8648 442.042 25.8846 439.482C27.9045 436.922 29.002 433.756 29 430.495Z" fill="url(#paint19_linear)"/>
<defs>
<linearGradient id="paint0_linear" x1="255.461" y1="113.257" x2="249.572" y2="82.0846" gradientUnits="userSpaceOnUse">
<stop offset="0.0625" stop-color="#FFC19E"/>
<stop offset="1" stop-color="white"/>
</linearGradient>
<linearGradient id="paint1_linear" x1="211.353" y1="56.5294" x2="231.221" y2="86.1619" gradientUnits="userSpaceOnUse">
<stop offset="0.0625" stop-color="#FFC19E"/>
<stop offset="1" stop-color="white"/>
</linearGradient>
<linearGradient id="paint2_linear" x1="272.424" y1="66.5391" x2="290.702" y2="95.2053" gradientUnits="userSpaceOnUse">
<stop stop-color="#EF8197"/>
<stop offset="0.942708" stop-color="#F7C58F"/>
</linearGradient>
<linearGradient id="paint3_linear" x1="388.705" y1="38.9941" x2="425.238" y2="9.97914" gradientUnits="userSpaceOnUse">
<stop offset="0.0625" stop-color="#FFC19E"/>
<stop offset="1" stop-color="white"/>
</linearGradient>
<linearGradient id="paint4_linear" x1="445.766" y1="67.1336" x2="482.433" y2="57.553" gradientUnits="userSpaceOnUse">
<stop offset="0.0625" stop-color="#FFC19E"/>
<stop offset="1" stop-color="white"/>
</linearGradient>
<linearGradient id="paint5_linear" x1="341.427" y1="44.1767" x2="377.543" y2="113.494" gradientUnits="userSpaceOnUse">
<stop stop-color="#73BCF9"/>
<stop offset="1" stop-color="#7A96F8"/>
</linearGradient>
<linearGradient id="paint6_linear" x1="341.427" y1="44.1767" x2="377.543" y2="113.494" gradientUnits="userSpaceOnUse">
<stop stop-color="#73BCF9"/>
<stop offset="1" stop-color="#7A96F8"/>
</linearGradient>
<linearGradient id="paint7_linear" x1="368.878" y1="74.6754" x2="384.64" y2="132.506" gradientUnits="userSpaceOnUse">
<stop stop-color="#73BCF9"/>
<stop offset="1" stop-color="#7A96F8"/>
</linearGradient>
<linearGradient id="paint8_linear" x1="368.878" y1="74.6754" x2="384.64" y2="132.506" gradientUnits="userSpaceOnUse">
<stop stop-color="#73BCF9"/>
<stop offset="1" stop-color="#7A96F8"/>
</linearGradient>
<linearGradient id="paint9_linear" x1="299.932" y1="70.7074" x2="326.44" y2="128.655" gradientUnits="userSpaceOnUse">
<stop stop-color="#EF8197"/>
<stop offset="0.942708" stop-color="#F7C58F"/>
</linearGradient>
<linearGradient id="paint10_linear" x1="296.767" y1="60.343" x2="294.848" y2="77.5241" gradientUnits="userSpaceOnUse">
<stop offset="0.0625" stop-color="#FFC19E"/>
<stop offset="1" stop-color="white"/>
</linearGradient>
<linearGradient id="paint11_linear" x1="308.714" y1="51.0101" x2="280.392" y2="53.2646" gradientUnits="userSpaceOnUse">
<stop offset="0.0625" stop-color="#FFC19E"/>
<stop offset="1" stop-color="white"/>
</linearGradient>
<linearGradient id="paint12_linear" x1="348.472" y1="135.047" x2="314.879" y2="128.125" gradientUnits="userSpaceOnUse">
<stop offset="0.0625" stop-color="#FFC19E"/>
<stop offset="1" stop-color="white"/>
</linearGradient>
<linearGradient id="paint13_linear" x1="319.688" y1="75.2242" x2="341.301" y2="100.359" gradientUnits="userSpaceOnUse">
<stop stop-color="#EF8197"/>
<stop offset="0.942708" stop-color="#F7C58F"/>
</linearGradient>
<linearGradient id="paint14_linear" x1="77.4091" y1="373.595" x2="206.797" y2="139.018" gradientUnits="userSpaceOnUse">
<stop stop-color="#8177F7"/>
<stop offset="1" stop-color="#799FF8"/>
</linearGradient>
<linearGradient id="paint15_linear" x1="84.6357" y1="398.871" x2="105.381" y2="299.059" gradientUnits="userSpaceOnUse">
<stop stop-color="#8177F7"/>
<stop offset="1" stop-color="#799FF8"/>
</linearGradient>
<linearGradient id="paint16_linear" x1="76.6726" y1="241.744" x2="107.904" y2="115.458" gradientUnits="userSpaceOnUse">
<stop stop-color="#8177F7"/>
<stop offset="1" stop-color="#799FF8"/>
</linearGradient>
<linearGradient id="paint17_linear" x1="105.61" y1="92.2468" x2="128.363" y2="51" gradientUnits="userSpaceOnUse">
<stop stop-color="#EB4BAC"/>
<stop offset="1" stop-color="#FCE1C2"/>
</linearGradient>
<linearGradient id="paint18_linear" x1="331.952" y1="376.619" x2="373.666" y2="301" gradientUnits="userSpaceOnUse">
<stop stop-color="#5FA8ED"/>
<stop offset="1" stop-color="#7ED5B7"/>
</linearGradient>
<linearGradient id="paint19_linear" x1="8.22294" y1="440.92" x2="21.9696" y2="416" gradientUnits="userSpaceOnUse">
<stop stop-color="#73BCF9"/>
<stop offset="1" stop-color="#7A96F8"/>
</linearGradient>
</defs>
</svg>
