<svg width="1177" height="748" viewBox="0 0 1177 748" fill="none" xmlns="http://www.w3.org/2000/svg">
<g clip-path="url(#clip0)">
<path d="M1023 512.5C1023 513.328 1022.33 514 1021.5 514C1020.67 514 1020 513.328 1020 512.5C1020 511.672 1020.67 511 1021.5 511C1022.33 511 1023 511.672 1023 512.5Z" fill="white"/>
<path d="M198 55.5C198 56.3284 197.328 57 196.5 57C195.671 57 195 56.3284 195 55.5C195 54.6716 195.671 54 196.5 54C197.328 54 198 54.6716 198 55.5Z" fill="white"/>
<path d="M1148.21 667.807C1142.42 667.953 1136.66 668.624 1131 669.814C1136.66 671.009 1142.42 671.683 1148.21 671.828C1148.52 672.718 1149.03 673.526 1149.7 674.19C1150.38 674.855 1151.2 675.359 1152.1 675.663C1152.25 681.37 1152.93 687.051 1154.14 692.635C1155.35 687.051 1156.03 681.37 1156.18 675.663C1157.08 675.359 1157.9 674.857 1158.57 674.193C1159.25 673.529 1159.76 672.723 1160.06 671.835C1165.85 671.692 1171.62 671.015 1177.28 669.814C1171.62 668.618 1165.85 667.944 1160.06 667.8C1159.76 666.911 1159.25 666.104 1158.57 665.441C1157.9 664.777 1157.08 664.274 1156.18 663.972C1156.04 658.264 1155.36 652.582 1154.14 647C1152.92 652.582 1152.24 658.264 1152.1 663.972C1151.2 664.277 1150.38 664.78 1149.7 665.445C1149.03 666.11 1148.52 666.917 1148.21 667.807Z" fill="white"/>
<path d="M15.1765 20.3483C10.0732 20.477 4.99292 21.0695 0 22.1183C4.99221 23.1722 10.0728 23.7669 15.1765 23.8946C15.4481 24.6791 15.8985 25.3918 16.4929 25.9779C17.0873 26.5641 17.8099 27.0084 18.6054 27.2763C18.7375 32.3093 19.3404 37.3193 20.4066 42.2429C21.4728 37.3193 22.0757 32.3093 22.2077 27.2763C23.0016 27.0086 23.7229 26.5653 24.3162 25.9802C24.9094 25.3951 25.3591 24.6835 25.6305 23.9006C30.7367 23.7745 35.8197 23.1778 40.8132 22.1183C35.8189 21.0638 30.7362 20.4695 25.6305 20.3423C25.3599 19.5589 24.9106 18.8472 24.3172 18.262C23.7238 17.6768 23.0021 17.2335 22.2077 16.9666C22.0817 11.9332 21.4787 6.92267 20.4066 2C19.3345 6.92267 18.7315 11.9332 18.6054 16.9666C17.8104 17.2353 17.0882 17.6796 16.4939 18.2657C15.8996 18.8518 15.449 19.5642 15.1765 20.3483Z" fill="white"/>
<path d="M805 627.5C805 628.328 804.328 629 803.5 629C802.671 629 802 628.328 802 627.5C802 626.672 802.671 626 803.5 626C804.328 626 805 626.672 805 627.5Z" fill="white"/>
<path d="M909 40.5C909 41.3284 908.328 42 907.5 42C906.671 42 906 41.3284 906 40.5C906 39.6716 906.671 39 907.5 39C908.328 39 909 39.6716 909 40.5Z" fill="white"/>
<path d="M1089 743.5C1089 744.328 1088.33 745 1087.5 745C1086.67 745 1086 744.328 1086 743.5C1086 742.672 1086.67 742 1087.5 742C1088.33 742 1089 742.672 1089 743.5Z" fill="white"/>
<path d="M293 690.5C293 691.328 292.328 692 291.5 692C290.671 692 290 691.328 290 690.5C290 689.672 290.671 689 291.5 689C292.328 689 293 689.672 293 690.5Z" fill="white"/>
<path d="M160 468.5C160 469.328 159.328 470 158.5 470C157.671 470 157 469.328 157 468.5C157 467.672 157.671 467 158.5 467C159.328 467 160 467.672 160 468.5Z" fill="white"/>
<circle cx="877" cy="541" r="1" fill="white"/>
<circle cx="877" cy="541" r="1" fill="white"/>
</g>
<defs>
<clipPath id="clip0">
<rect width="1177" height="748" fill="white"/>
</clipPath>
</defs>
</svg>
